%TF.GenerationSoftware,KiCad,Pcbnew,9.0.4*%
%TF.CreationDate,2025-08-25T16:14:29+02:00*%
%TF.ProjectId,livello_serbatoio_definitiva,6c697665-6c6c-46f5-9f73-65726261746f,D*%
%TF.SameCoordinates,Original*%
%TF.FileFunction,Soldermask,Bot*%
%TF.FilePolarity,Negative*%
%FSLAX46Y46*%
G04 Gerber Fmt 4.6, Leading zero omitted, Abs format (unit mm)*
G04 Created by KiCad (PCBNEW 9.0.4) date 2025-08-25 16:14:29*
%MOMM*%
%LPD*%
G01*
G04 APERTURE LIST*
G04 Aperture macros list*
%AMRoundRect*
0 Rectangle with rounded corners*
0 $1 Rounding radius*
0 $2 $3 $4 $5 $6 $7 $8 $9 X,Y pos of 4 corners*
0 Add a 4 corners polygon primitive as box body*
4,1,4,$2,$3,$4,$5,$6,$7,$8,$9,$2,$3,0*
0 Add four circle primitives for the rounded corners*
1,1,$1+$1,$2,$3*
1,1,$1+$1,$4,$5*
1,1,$1+$1,$6,$7*
1,1,$1+$1,$8,$9*
0 Add four rect primitives between the rounded corners*
20,1,$1+$1,$2,$3,$4,$5,0*
20,1,$1+$1,$4,$5,$6,$7,0*
20,1,$1+$1,$6,$7,$8,$9,0*
20,1,$1+$1,$8,$9,$2,$3,0*%
G04 Aperture macros list end*
%ADD10O,1.600000X1.600000*%
%ADD11C,1.600000*%
%ADD12RoundRect,0.150000X0.150000X-0.825000X0.150000X0.825000X-0.150000X0.825000X-0.150000X-0.825000X0*%
%ADD13C,2.000000*%
%ADD14C,0.800000*%
%ADD15C,6.000000*%
%ADD16R,1.600000X1.600000*%
%ADD17C,1.800000*%
%ADD18R,1.700000X1.700000*%
%ADD19O,1.700000X1.700000*%
%ADD20R,2.100000X2.100000*%
%ADD21C,2.100000*%
%ADD22C,1.700000*%
%ADD23C,3.500000*%
%ADD24RoundRect,0.162500X0.162500X-0.617500X0.162500X0.617500X-0.162500X0.617500X-0.162500X-0.617500X0*%
%ADD25RoundRect,0.250000X-1.450000X0.400000X-1.450000X-0.400000X1.450000X-0.400000X1.450000X0.400000X0*%
%ADD26R,1.800000X1.800000*%
G04 APERTURE END LIST*
D10*
%TO.C,R6*%
X91440000Y-98810000D03*
D11*
X91440000Y-86110000D03*
%TD*%
D12*
%TO.C,U1*%
X161515000Y-103295000D03*
X160245000Y-103295000D03*
X158975000Y-103295000D03*
X157705000Y-103295000D03*
X156435000Y-103295000D03*
X155165000Y-103295000D03*
X153895000Y-103295000D03*
X152625000Y-103295000D03*
X152625000Y-98345000D03*
X153895000Y-98345000D03*
X155165000Y-98345000D03*
X156435000Y-98345000D03*
X157705000Y-98345000D03*
X158975000Y-98345000D03*
X160245000Y-98345000D03*
X161515000Y-98345000D03*
%TD*%
D13*
%TO.C,RV1*%
X99500000Y-75900000D03*
X109500000Y-78400000D03*
X99500000Y-80900000D03*
%TD*%
D14*
%TO.C,H1*%
X90750000Y-74000000D03*
X91409010Y-72409010D03*
X91409010Y-75590990D03*
X93000000Y-71750000D03*
D15*
X93000000Y-74000000D03*
D14*
X93000000Y-76250000D03*
X94590990Y-72409010D03*
X94590990Y-75590990D03*
X95250000Y-74000000D03*
%TD*%
%TO.C,H2*%
X161750000Y-74000000D03*
X162409010Y-72409010D03*
X162409010Y-75590990D03*
X164000000Y-71750000D03*
D15*
X164000000Y-74000000D03*
D14*
X164000000Y-76250000D03*
X165590990Y-72409010D03*
X165590990Y-75590990D03*
X166250000Y-74000000D03*
%TD*%
%TO.C,H3*%
X161750000Y-134000000D03*
X162409010Y-132409010D03*
X162409010Y-135590990D03*
X164000000Y-131750000D03*
D15*
X164000000Y-134000000D03*
D14*
X164000000Y-136250000D03*
X165590990Y-132409010D03*
X165590990Y-135590990D03*
X166250000Y-134000000D03*
%TD*%
%TO.C,H4*%
X90750000Y-134000000D03*
X91409010Y-132409010D03*
X91409010Y-135590990D03*
X93000000Y-131750000D03*
D15*
X93000000Y-134000000D03*
D14*
X93000000Y-136250000D03*
X94590990Y-132409010D03*
X94590990Y-135590990D03*
X95250000Y-134000000D03*
%TD*%
D16*
%TO.C,U2*%
X99440000Y-119200000D03*
D10*
X101980000Y-119200000D03*
X104520000Y-119200000D03*
X107060000Y-119200000D03*
X109600000Y-119200000D03*
X112140000Y-119200000D03*
X114680000Y-119200000D03*
X117220000Y-119200000D03*
X119760000Y-119200000D03*
X122300000Y-119200000D03*
X124840000Y-119200000D03*
X127380000Y-119200000D03*
X129920000Y-119200000D03*
X132460000Y-119200000D03*
X132460000Y-111580000D03*
X129920000Y-111580000D03*
X127380000Y-111580000D03*
X124840000Y-111580000D03*
X122300000Y-111580000D03*
X119760000Y-111580000D03*
X117220000Y-111580000D03*
X114680000Y-111580000D03*
X112140000Y-111580000D03*
X109600000Y-111580000D03*
X107060000Y-111580000D03*
X104520000Y-111580000D03*
X101980000Y-111580000D03*
X99440000Y-111580000D03*
%TD*%
D17*
%TO.C,Y1*%
X123430000Y-123450000D03*
X118550000Y-123450000D03*
%TD*%
D11*
%TO.C,C3*%
X116850000Y-108900000D03*
X114350000Y-108900000D03*
%TD*%
%TO.C,C7*%
X116060000Y-128000000D03*
X118560000Y-128000000D03*
%TD*%
%TO.C,C8*%
X125940000Y-128000000D03*
X123440000Y-128000000D03*
%TD*%
%TO.C,C6*%
X119950000Y-108900000D03*
X122450000Y-108900000D03*
%TD*%
%TO.C,R9*%
X151130000Y-80840000D03*
X151130000Y-93540000D03*
%TD*%
D18*
%TO.C,J3*%
X97000000Y-88500000D03*
D19*
X99540000Y-88500000D03*
X102080000Y-88500000D03*
X104620000Y-88500000D03*
X107160000Y-88500000D03*
X109700000Y-88500000D03*
X112240000Y-88500000D03*
X114780000Y-88500000D03*
X117320000Y-88500000D03*
X119860000Y-88500000D03*
X122400000Y-88500000D03*
X124940000Y-88500000D03*
X127480000Y-88500000D03*
X130020000Y-88500000D03*
X132560000Y-88500000D03*
X135100000Y-88500000D03*
%TD*%
D11*
%TO.C,C4*%
X96200000Y-119250000D03*
X96200000Y-116750000D03*
%TD*%
D13*
%TO.C,SW1*%
X102700000Y-126840000D03*
X96200000Y-126840000D03*
X102700000Y-122340000D03*
X96200000Y-122340000D03*
%TD*%
D11*
%TO.C,R5*%
X131950000Y-124600000D03*
D10*
X144650000Y-124600000D03*
%TD*%
D20*
%TO.C,J8*%
X141770000Y-135390000D03*
D21*
X136770000Y-135390000D03*
X131770000Y-135390000D03*
X126770000Y-135390000D03*
X121770000Y-135390000D03*
X116770000Y-135390000D03*
X111770000Y-135390000D03*
X106770000Y-135390000D03*
%TD*%
D18*
%TO.C,J5*%
X92655000Y-117115000D03*
D19*
X90115000Y-117115000D03*
X92655000Y-119655000D03*
X90115000Y-119655000D03*
X92655000Y-122195000D03*
X90115000Y-122195000D03*
%TD*%
D18*
%TO.C,J1*%
X154770000Y-122850000D03*
D22*
X154770000Y-120350000D03*
X156770000Y-120350000D03*
X156770000Y-122850000D03*
D23*
X159480000Y-115580000D03*
X159480000Y-127620000D03*
%TD*%
D11*
%TO.C,C2*%
X164220000Y-108010000D03*
X164220000Y-110510000D03*
%TD*%
D24*
%TO.C,U3*%
X156720000Y-111870000D03*
X155770000Y-111870000D03*
X154820000Y-111870000D03*
X154820000Y-109170000D03*
X155770000Y-109170000D03*
X156720000Y-109170000D03*
%TD*%
D11*
%TO.C,C5*%
X160140000Y-107970000D03*
X160140000Y-110470000D03*
%TD*%
D18*
%TO.C,J7*%
X91400000Y-101860000D03*
D19*
X91400000Y-104400000D03*
X91400000Y-106940000D03*
X91400000Y-109480000D03*
X91400000Y-112020000D03*
%TD*%
D18*
%TO.C,J6*%
X112200000Y-97065000D03*
D19*
X114740000Y-97065000D03*
X117280000Y-97065000D03*
X119820000Y-97065000D03*
%TD*%
D16*
%TO.C,C9*%
X149017613Y-113320000D03*
D11*
X149017613Y-111320000D03*
%TD*%
D25*
%TO.C,F1*%
X149370000Y-118395000D03*
X149370000Y-122845000D03*
%TD*%
D11*
%TO.C,C1*%
X160570000Y-90870000D03*
X160570000Y-93370000D03*
%TD*%
D26*
%TO.C,D4*%
X148600000Y-73400000D03*
D17*
X151140000Y-73400000D03*
%TD*%
D11*
%TO.C,R8*%
X144650000Y-128400000D03*
D10*
X131950000Y-128400000D03*
%TD*%
M02*
