%TF.GenerationSoftware,KiCad,Pcbnew,9.0.4*%
%TF.CreationDate,2025-08-25T16:14:29+02:00*%
%TF.ProjectId,livello_serbatoio_definitiva,6c697665-6c6c-46f5-9f73-65726261746f,D*%
%TF.SameCoordinates,Original*%
%TF.FileFunction,Legend,Top*%
%TF.FilePolarity,Positive*%
%FSLAX46Y46*%
G04 Gerber Fmt 4.6, Leading zero omitted, Abs format (unit mm)*
G04 Created by KiCad (PCBNEW 9.0.4) date 2025-08-25 16:14:29*
%MOMM*%
%LPD*%
G01*
G04 APERTURE LIST*
%ADD10C,0.160000*%
G04 APERTURE END LIST*
D10*
X97947618Y-129854299D02*
X97614285Y-129378108D01*
X97376190Y-129854299D02*
X97376190Y-128854299D01*
X97376190Y-128854299D02*
X97757142Y-128854299D01*
X97757142Y-128854299D02*
X97852380Y-128901918D01*
X97852380Y-128901918D02*
X97899999Y-128949537D01*
X97899999Y-128949537D02*
X97947618Y-129044775D01*
X97947618Y-129044775D02*
X97947618Y-129187632D01*
X97947618Y-129187632D02*
X97899999Y-129282870D01*
X97899999Y-129282870D02*
X97852380Y-129330489D01*
X97852380Y-129330489D02*
X97757142Y-129378108D01*
X97757142Y-129378108D02*
X97376190Y-129378108D01*
X98376190Y-129330489D02*
X98709523Y-129330489D01*
X98852380Y-129854299D02*
X98376190Y-129854299D01*
X98376190Y-129854299D02*
X98376190Y-128854299D01*
X98376190Y-128854299D02*
X98852380Y-128854299D01*
X99233333Y-129806680D02*
X99376190Y-129854299D01*
X99376190Y-129854299D02*
X99614285Y-129854299D01*
X99614285Y-129854299D02*
X99709523Y-129806680D01*
X99709523Y-129806680D02*
X99757142Y-129759060D01*
X99757142Y-129759060D02*
X99804761Y-129663822D01*
X99804761Y-129663822D02*
X99804761Y-129568584D01*
X99804761Y-129568584D02*
X99757142Y-129473346D01*
X99757142Y-129473346D02*
X99709523Y-129425727D01*
X99709523Y-129425727D02*
X99614285Y-129378108D01*
X99614285Y-129378108D02*
X99423809Y-129330489D01*
X99423809Y-129330489D02*
X99328571Y-129282870D01*
X99328571Y-129282870D02*
X99280952Y-129235251D01*
X99280952Y-129235251D02*
X99233333Y-129140013D01*
X99233333Y-129140013D02*
X99233333Y-129044775D01*
X99233333Y-129044775D02*
X99280952Y-128949537D01*
X99280952Y-128949537D02*
X99328571Y-128901918D01*
X99328571Y-128901918D02*
X99423809Y-128854299D01*
X99423809Y-128854299D02*
X99661904Y-128854299D01*
X99661904Y-128854299D02*
X99804761Y-128901918D01*
X100233333Y-129330489D02*
X100566666Y-129330489D01*
X100709523Y-129854299D02*
X100233333Y-129854299D01*
X100233333Y-129854299D02*
X100233333Y-128854299D01*
X100233333Y-128854299D02*
X100709523Y-128854299D01*
X100995238Y-128854299D02*
X101566666Y-128854299D01*
X101280952Y-129854299D02*
X101280952Y-128854299D01*
X169000000Y-105120000D02*
X169000000Y-113120000D01*
X121205000Y-98660000D02*
X111025000Y-98660000D01*
X110980000Y-86870000D02*
X121140000Y-86880000D01*
X121140000Y-86880000D02*
X121140000Y-90130000D01*
X121140000Y-90850000D02*
X110960000Y-90850000D01*
X110960000Y-90130000D02*
X110960000Y-86870000D01*
X105100000Y-84000000D02*
G75*
G02*
X104700000Y-84000000I-200000J0D01*
G01*
X104300000Y-84000000D02*
G75*
G02*
X104700000Y-84000000I200000J0D01*
G01*
X121140000Y-86860000D02*
X121140000Y-90120000D01*
X132900000Y-84000000D02*
G75*
G02*
X132500000Y-84000000I-200000J0D01*
G01*
X89000000Y-86000000D02*
X89000000Y-122000000D01*
X121140000Y-97850000D02*
X121140000Y-90840000D01*
X128200000Y-122000000D02*
X134400000Y-122000000D01*
X142850000Y-122000000D02*
X151913402Y-122000000D01*
X165300000Y-121820000D02*
X169000000Y-121820000D01*
X110960000Y-86860000D02*
X121130000Y-86860000D01*
X110960000Y-90120000D02*
X110960000Y-86860000D01*
X132100000Y-84000000D02*
G75*
G02*
X132500000Y-84000000I200000J0D01*
G01*
X93500000Y-86000000D02*
X148840000Y-86000000D01*
X104300000Y-122000000D02*
X113200000Y-122000000D01*
X110960000Y-90130000D02*
X110960000Y-90850000D01*
X124600000Y-84000000D02*
G75*
G02*
X125000000Y-84000000I200000J0D01*
G01*
X125400000Y-84000000D02*
G75*
G02*
X125000000Y-84000000I-200000J0D01*
G01*
X169000000Y-86000000D02*
X169000000Y-96500000D01*
X94170000Y-105800000D02*
G75*
G02*
X94570000Y-105800000I200000J0D01*
G01*
X110960000Y-90850000D02*
X110960000Y-97850000D01*
X158440000Y-121820000D02*
X165280000Y-121820000D01*
X169000000Y-113120000D02*
X169000000Y-121820000D01*
X94970000Y-105800000D02*
G75*
G02*
X94570000Y-105800000I-200000J0D01*
G01*
X89000000Y-86000000D02*
X89500000Y-86000000D01*
X142600000Y-122000000D02*
X143100000Y-122000000D01*
X121140000Y-90840000D02*
X110960000Y-90840000D01*
X121140000Y-90120000D02*
X121140000Y-90850000D01*
X169000000Y-86000000D02*
X153300000Y-86000000D01*
X126817856Y-80149327D02*
X126942856Y-79149327D01*
X126895237Y-79530279D02*
X126996428Y-79482660D01*
X126996428Y-79482660D02*
X127186904Y-79482660D01*
X127186904Y-79482660D02*
X127276190Y-79530279D01*
X127276190Y-79530279D02*
X127317856Y-79577898D01*
X127317856Y-79577898D02*
X127353571Y-79673136D01*
X127353571Y-79673136D02*
X127317856Y-79958850D01*
X127317856Y-79958850D02*
X127258333Y-80054088D01*
X127258333Y-80054088D02*
X127204761Y-80101708D01*
X127204761Y-80101708D02*
X127103571Y-80149327D01*
X127103571Y-80149327D02*
X126913094Y-80149327D01*
X126913094Y-80149327D02*
X126823809Y-80101708D01*
X127710714Y-79482660D02*
X127865476Y-80149327D01*
X128186904Y-79482660D02*
X127865476Y-80149327D01*
X127865476Y-80149327D02*
X127740476Y-80387422D01*
X127740476Y-80387422D02*
X127686904Y-80435041D01*
X127686904Y-80435041D02*
X127585714Y-80482660D01*
X129889286Y-79196946D02*
X129800000Y-79149327D01*
X129800000Y-79149327D02*
X129657143Y-79149327D01*
X129657143Y-79149327D02*
X129508333Y-79196946D01*
X129508333Y-79196946D02*
X129401190Y-79292184D01*
X129401190Y-79292184D02*
X129341666Y-79387422D01*
X129341666Y-79387422D02*
X129270238Y-79577898D01*
X129270238Y-79577898D02*
X129252381Y-79720755D01*
X129252381Y-79720755D02*
X129276190Y-79911231D01*
X129276190Y-79911231D02*
X129311905Y-80006469D01*
X129311905Y-80006469D02*
X129395238Y-80101708D01*
X129395238Y-80101708D02*
X129532143Y-80149327D01*
X129532143Y-80149327D02*
X129627381Y-80149327D01*
X129627381Y-80149327D02*
X129776190Y-80101708D01*
X129776190Y-80101708D02*
X129829762Y-80054088D01*
X129829762Y-80054088D02*
X129871428Y-79720755D01*
X129871428Y-79720755D02*
X129680952Y-79720755D01*
X130817857Y-80149327D02*
X130544047Y-79673136D01*
X130246428Y-80149327D02*
X130371428Y-79149327D01*
X130371428Y-79149327D02*
X130752381Y-79149327D01*
X130752381Y-79149327D02*
X130841666Y-79196946D01*
X130841666Y-79196946D02*
X130883333Y-79244565D01*
X130883333Y-79244565D02*
X130919047Y-79339803D01*
X130919047Y-79339803D02*
X130901190Y-79482660D01*
X130901190Y-79482660D02*
X130841666Y-79577898D01*
X130841666Y-79577898D02*
X130788095Y-79625517D01*
X130788095Y-79625517D02*
X130686905Y-79673136D01*
X130686905Y-79673136D02*
X130305952Y-79673136D01*
X127192857Y-80854509D02*
X127246428Y-80806890D01*
X127246428Y-80806890D02*
X127347618Y-80759271D01*
X127347618Y-80759271D02*
X127585714Y-80759271D01*
X127585714Y-80759271D02*
X127674999Y-80806890D01*
X127674999Y-80806890D02*
X127716666Y-80854509D01*
X127716666Y-80854509D02*
X127752380Y-80949747D01*
X127752380Y-80949747D02*
X127740476Y-81044985D01*
X127740476Y-81044985D02*
X127674999Y-81187842D01*
X127674999Y-81187842D02*
X127032142Y-81759271D01*
X127032142Y-81759271D02*
X127651190Y-81759271D01*
X128395238Y-80759271D02*
X128490476Y-80759271D01*
X128490476Y-80759271D02*
X128579761Y-80806890D01*
X128579761Y-80806890D02*
X128621428Y-80854509D01*
X128621428Y-80854509D02*
X128657142Y-80949747D01*
X128657142Y-80949747D02*
X128680952Y-81140223D01*
X128680952Y-81140223D02*
X128651190Y-81378318D01*
X128651190Y-81378318D02*
X128579761Y-81568794D01*
X128579761Y-81568794D02*
X128520238Y-81664032D01*
X128520238Y-81664032D02*
X128466666Y-81711652D01*
X128466666Y-81711652D02*
X128365476Y-81759271D01*
X128365476Y-81759271D02*
X128270238Y-81759271D01*
X128270238Y-81759271D02*
X128180952Y-81711652D01*
X128180952Y-81711652D02*
X128139285Y-81664032D01*
X128139285Y-81664032D02*
X128103571Y-81568794D01*
X128103571Y-81568794D02*
X128079761Y-81378318D01*
X128079761Y-81378318D02*
X128109523Y-81140223D01*
X128109523Y-81140223D02*
X128180952Y-80949747D01*
X128180952Y-80949747D02*
X128240476Y-80854509D01*
X128240476Y-80854509D02*
X128294047Y-80806890D01*
X128294047Y-80806890D02*
X128395238Y-80759271D01*
X129097619Y-80854509D02*
X129151190Y-80806890D01*
X129151190Y-80806890D02*
X129252380Y-80759271D01*
X129252380Y-80759271D02*
X129490476Y-80759271D01*
X129490476Y-80759271D02*
X129579761Y-80806890D01*
X129579761Y-80806890D02*
X129621428Y-80854509D01*
X129621428Y-80854509D02*
X129657142Y-80949747D01*
X129657142Y-80949747D02*
X129645238Y-81044985D01*
X129645238Y-81044985D02*
X129579761Y-81187842D01*
X129579761Y-81187842D02*
X128936904Y-81759271D01*
X128936904Y-81759271D02*
X129555952Y-81759271D01*
X130585714Y-80759271D02*
X130109523Y-80759271D01*
X130109523Y-80759271D02*
X130002381Y-81235461D01*
X130002381Y-81235461D02*
X130055952Y-81187842D01*
X130055952Y-81187842D02*
X130157142Y-81140223D01*
X130157142Y-81140223D02*
X130395238Y-81140223D01*
X130395238Y-81140223D02*
X130484523Y-81187842D01*
X130484523Y-81187842D02*
X130526190Y-81235461D01*
X130526190Y-81235461D02*
X130561904Y-81330699D01*
X130561904Y-81330699D02*
X130532142Y-81568794D01*
X130532142Y-81568794D02*
X130472619Y-81664032D01*
X130472619Y-81664032D02*
X130419047Y-81711652D01*
X130419047Y-81711652D02*
X130317857Y-81759271D01*
X130317857Y-81759271D02*
X130079761Y-81759271D01*
X130079761Y-81759271D02*
X129990476Y-81711652D01*
X129990476Y-81711652D02*
X129948809Y-81664032D01*
X111665714Y-85268584D02*
X112141904Y-85268584D01*
X111570476Y-85554299D02*
X111903809Y-84554299D01*
X111903809Y-84554299D02*
X112237142Y-85554299D01*
X112475238Y-84554299D02*
X113094285Y-84554299D01*
X113094285Y-84554299D02*
X112760952Y-84935251D01*
X112760952Y-84935251D02*
X112903809Y-84935251D01*
X112903809Y-84935251D02*
X112999047Y-84982870D01*
X112999047Y-84982870D02*
X113046666Y-85030489D01*
X113046666Y-85030489D02*
X113094285Y-85125727D01*
X113094285Y-85125727D02*
X113094285Y-85363822D01*
X113094285Y-85363822D02*
X113046666Y-85459060D01*
X113046666Y-85459060D02*
X112999047Y-85506680D01*
X112999047Y-85506680D02*
X112903809Y-85554299D01*
X112903809Y-85554299D02*
X112618095Y-85554299D01*
X112618095Y-85554299D02*
X112522857Y-85506680D01*
X112522857Y-85506680D02*
X112475238Y-85459060D01*
X114165714Y-85268584D02*
X114641904Y-85268584D01*
X114070476Y-85554299D02*
X114403809Y-84554299D01*
X114403809Y-84554299D02*
X114737142Y-85554299D01*
X115022857Y-84649537D02*
X115070476Y-84601918D01*
X115070476Y-84601918D02*
X115165714Y-84554299D01*
X115165714Y-84554299D02*
X115403809Y-84554299D01*
X115403809Y-84554299D02*
X115499047Y-84601918D01*
X115499047Y-84601918D02*
X115546666Y-84649537D01*
X115546666Y-84649537D02*
X115594285Y-84744775D01*
X115594285Y-84744775D02*
X115594285Y-84840013D01*
X115594285Y-84840013D02*
X115546666Y-84982870D01*
X115546666Y-84982870D02*
X114975238Y-85554299D01*
X114975238Y-85554299D02*
X115594285Y-85554299D01*
X116665714Y-85268584D02*
X117141904Y-85268584D01*
X116570476Y-85554299D02*
X116903809Y-84554299D01*
X116903809Y-84554299D02*
X117237142Y-85554299D01*
X118094285Y-85554299D02*
X117522857Y-85554299D01*
X117808571Y-85554299D02*
X117808571Y-84554299D01*
X117808571Y-84554299D02*
X117713333Y-84697156D01*
X117713333Y-84697156D02*
X117618095Y-84792394D01*
X117618095Y-84792394D02*
X117522857Y-84840013D01*
X119265714Y-85268584D02*
X119741904Y-85268584D01*
X119170476Y-85554299D02*
X119503809Y-84554299D01*
X119503809Y-84554299D02*
X119837142Y-85554299D01*
X120360952Y-84554299D02*
X120456190Y-84554299D01*
X120456190Y-84554299D02*
X120551428Y-84601918D01*
X120551428Y-84601918D02*
X120599047Y-84649537D01*
X120599047Y-84649537D02*
X120646666Y-84744775D01*
X120646666Y-84744775D02*
X120694285Y-84935251D01*
X120694285Y-84935251D02*
X120694285Y-85173346D01*
X120694285Y-85173346D02*
X120646666Y-85363822D01*
X120646666Y-85363822D02*
X120599047Y-85459060D01*
X120599047Y-85459060D02*
X120551428Y-85506680D01*
X120551428Y-85506680D02*
X120456190Y-85554299D01*
X120456190Y-85554299D02*
X120360952Y-85554299D01*
X120360952Y-85554299D02*
X120265714Y-85506680D01*
X120265714Y-85506680D02*
X120218095Y-85459060D01*
X120218095Y-85459060D02*
X120170476Y-85363822D01*
X120170476Y-85363822D02*
X120122857Y-85173346D01*
X120122857Y-85173346D02*
X120122857Y-84935251D01*
X120122857Y-84935251D02*
X120170476Y-84744775D01*
X120170476Y-84744775D02*
X120218095Y-84649537D01*
X120218095Y-84649537D02*
X120265714Y-84601918D01*
X120265714Y-84601918D02*
X120360952Y-84554299D01*
X101595237Y-72459060D02*
X101547618Y-72506680D01*
X101547618Y-72506680D02*
X101404761Y-72554299D01*
X101404761Y-72554299D02*
X101309523Y-72554299D01*
X101309523Y-72554299D02*
X101166666Y-72506680D01*
X101166666Y-72506680D02*
X101071428Y-72411441D01*
X101071428Y-72411441D02*
X101023809Y-72316203D01*
X101023809Y-72316203D02*
X100976190Y-72125727D01*
X100976190Y-72125727D02*
X100976190Y-71982870D01*
X100976190Y-71982870D02*
X101023809Y-71792394D01*
X101023809Y-71792394D02*
X101071428Y-71697156D01*
X101071428Y-71697156D02*
X101166666Y-71601918D01*
X101166666Y-71601918D02*
X101309523Y-71554299D01*
X101309523Y-71554299D02*
X101404761Y-71554299D01*
X101404761Y-71554299D02*
X101547618Y-71601918D01*
X101547618Y-71601918D02*
X101595237Y-71649537D01*
X102214285Y-71554299D02*
X102404761Y-71554299D01*
X102404761Y-71554299D02*
X102499999Y-71601918D01*
X102499999Y-71601918D02*
X102595237Y-71697156D01*
X102595237Y-71697156D02*
X102642856Y-71887632D01*
X102642856Y-71887632D02*
X102642856Y-72220965D01*
X102642856Y-72220965D02*
X102595237Y-72411441D01*
X102595237Y-72411441D02*
X102499999Y-72506680D01*
X102499999Y-72506680D02*
X102404761Y-72554299D01*
X102404761Y-72554299D02*
X102214285Y-72554299D01*
X102214285Y-72554299D02*
X102119047Y-72506680D01*
X102119047Y-72506680D02*
X102023809Y-72411441D01*
X102023809Y-72411441D02*
X101976190Y-72220965D01*
X101976190Y-72220965D02*
X101976190Y-71887632D01*
X101976190Y-71887632D02*
X102023809Y-71697156D01*
X102023809Y-71697156D02*
X102119047Y-71601918D01*
X102119047Y-71601918D02*
X102214285Y-71554299D01*
X103071428Y-72554299D02*
X103071428Y-71554299D01*
X103071428Y-71554299D02*
X103642856Y-72554299D01*
X103642856Y-72554299D02*
X103642856Y-71554299D01*
X103976190Y-71554299D02*
X104547618Y-71554299D01*
X104261904Y-72554299D02*
X104261904Y-71554299D01*
X105452380Y-72554299D02*
X105119047Y-72078108D01*
X104880952Y-72554299D02*
X104880952Y-71554299D01*
X104880952Y-71554299D02*
X105261904Y-71554299D01*
X105261904Y-71554299D02*
X105357142Y-71601918D01*
X105357142Y-71601918D02*
X105404761Y-71649537D01*
X105404761Y-71649537D02*
X105452380Y-71744775D01*
X105452380Y-71744775D02*
X105452380Y-71887632D01*
X105452380Y-71887632D02*
X105404761Y-71982870D01*
X105404761Y-71982870D02*
X105357142Y-72030489D01*
X105357142Y-72030489D02*
X105261904Y-72078108D01*
X105261904Y-72078108D02*
X104880952Y-72078108D01*
X105833333Y-72268584D02*
X106309523Y-72268584D01*
X105738095Y-72554299D02*
X106071428Y-71554299D01*
X106071428Y-71554299D02*
X106404761Y-72554299D01*
X106690476Y-72506680D02*
X106833333Y-72554299D01*
X106833333Y-72554299D02*
X107071428Y-72554299D01*
X107071428Y-72554299D02*
X107166666Y-72506680D01*
X107166666Y-72506680D02*
X107214285Y-72459060D01*
X107214285Y-72459060D02*
X107261904Y-72363822D01*
X107261904Y-72363822D02*
X107261904Y-72268584D01*
X107261904Y-72268584D02*
X107214285Y-72173346D01*
X107214285Y-72173346D02*
X107166666Y-72125727D01*
X107166666Y-72125727D02*
X107071428Y-72078108D01*
X107071428Y-72078108D02*
X106880952Y-72030489D01*
X106880952Y-72030489D02*
X106785714Y-71982870D01*
X106785714Y-71982870D02*
X106738095Y-71935251D01*
X106738095Y-71935251D02*
X106690476Y-71840013D01*
X106690476Y-71840013D02*
X106690476Y-71744775D01*
X106690476Y-71744775D02*
X106738095Y-71649537D01*
X106738095Y-71649537D02*
X106785714Y-71601918D01*
X106785714Y-71601918D02*
X106880952Y-71554299D01*
X106880952Y-71554299D02*
X107119047Y-71554299D01*
X107119047Y-71554299D02*
X107261904Y-71601918D01*
X107547619Y-71554299D02*
X108119047Y-71554299D01*
X107833333Y-72554299D02*
X107833333Y-71554299D01*
X114290977Y-73948923D02*
X114290977Y-72748923D01*
X114290977Y-72748923D02*
X114690977Y-73606066D01*
X114690977Y-73606066D02*
X115090977Y-72748923D01*
X115090977Y-72748923D02*
X115090977Y-73948923D01*
X115833834Y-73948923D02*
X115719549Y-73891781D01*
X115719549Y-73891781D02*
X115662406Y-73834638D01*
X115662406Y-73834638D02*
X115605263Y-73720352D01*
X115605263Y-73720352D02*
X115605263Y-73377495D01*
X115605263Y-73377495D02*
X115662406Y-73263209D01*
X115662406Y-73263209D02*
X115719549Y-73206066D01*
X115719549Y-73206066D02*
X115833834Y-73148923D01*
X115833834Y-73148923D02*
X116005263Y-73148923D01*
X116005263Y-73148923D02*
X116119549Y-73206066D01*
X116119549Y-73206066D02*
X116176692Y-73263209D01*
X116176692Y-73263209D02*
X116233834Y-73377495D01*
X116233834Y-73377495D02*
X116233834Y-73720352D01*
X116233834Y-73720352D02*
X116176692Y-73834638D01*
X116176692Y-73834638D02*
X116119549Y-73891781D01*
X116119549Y-73891781D02*
X116005263Y-73948923D01*
X116005263Y-73948923D02*
X115833834Y-73948923D01*
X116748120Y-73148923D02*
X116748120Y-73948923D01*
X116748120Y-73263209D02*
X116805263Y-73206066D01*
X116805263Y-73206066D02*
X116919548Y-73148923D01*
X116919548Y-73148923D02*
X117090977Y-73148923D01*
X117090977Y-73148923D02*
X117205263Y-73206066D01*
X117205263Y-73206066D02*
X117262406Y-73320352D01*
X117262406Y-73320352D02*
X117262406Y-73948923D01*
X117833834Y-73948923D02*
X117833834Y-73148923D01*
X117833834Y-72748923D02*
X117776691Y-72806066D01*
X117776691Y-72806066D02*
X117833834Y-72863209D01*
X117833834Y-72863209D02*
X117890977Y-72806066D01*
X117890977Y-72806066D02*
X117833834Y-72748923D01*
X117833834Y-72748923D02*
X117833834Y-72863209D01*
X118233834Y-73148923D02*
X118690977Y-73148923D01*
X118405263Y-72748923D02*
X118405263Y-73777495D01*
X118405263Y-73777495D02*
X118462406Y-73891781D01*
X118462406Y-73891781D02*
X118576691Y-73948923D01*
X118576691Y-73948923D02*
X118690977Y-73948923D01*
X119262405Y-73948923D02*
X119148120Y-73891781D01*
X119148120Y-73891781D02*
X119090977Y-73834638D01*
X119090977Y-73834638D02*
X119033834Y-73720352D01*
X119033834Y-73720352D02*
X119033834Y-73377495D01*
X119033834Y-73377495D02*
X119090977Y-73263209D01*
X119090977Y-73263209D02*
X119148120Y-73206066D01*
X119148120Y-73206066D02*
X119262405Y-73148923D01*
X119262405Y-73148923D02*
X119433834Y-73148923D01*
X119433834Y-73148923D02*
X119548120Y-73206066D01*
X119548120Y-73206066D02*
X119605263Y-73263209D01*
X119605263Y-73263209D02*
X119662405Y-73377495D01*
X119662405Y-73377495D02*
X119662405Y-73720352D01*
X119662405Y-73720352D02*
X119605263Y-73834638D01*
X119605263Y-73834638D02*
X119548120Y-73891781D01*
X119548120Y-73891781D02*
X119433834Y-73948923D01*
X119433834Y-73948923D02*
X119262405Y-73948923D01*
X120176691Y-73948923D02*
X120176691Y-73148923D01*
X120176691Y-73377495D02*
X120233834Y-73263209D01*
X120233834Y-73263209D02*
X120290977Y-73206066D01*
X120290977Y-73206066D02*
X120405262Y-73148923D01*
X120405262Y-73148923D02*
X120519548Y-73148923D01*
X121776691Y-73891781D02*
X121890977Y-73948923D01*
X121890977Y-73948923D02*
X122119548Y-73948923D01*
X122119548Y-73948923D02*
X122233834Y-73891781D01*
X122233834Y-73891781D02*
X122290977Y-73777495D01*
X122290977Y-73777495D02*
X122290977Y-73720352D01*
X122290977Y-73720352D02*
X122233834Y-73606066D01*
X122233834Y-73606066D02*
X122119548Y-73548923D01*
X122119548Y-73548923D02*
X121948120Y-73548923D01*
X121948120Y-73548923D02*
X121833834Y-73491781D01*
X121833834Y-73491781D02*
X121776691Y-73377495D01*
X121776691Y-73377495D02*
X121776691Y-73320352D01*
X121776691Y-73320352D02*
X121833834Y-73206066D01*
X121833834Y-73206066D02*
X121948120Y-73148923D01*
X121948120Y-73148923D02*
X122119548Y-73148923D01*
X122119548Y-73148923D02*
X122233834Y-73206066D01*
X123262406Y-73891781D02*
X123148120Y-73948923D01*
X123148120Y-73948923D02*
X122919549Y-73948923D01*
X122919549Y-73948923D02*
X122805263Y-73891781D01*
X122805263Y-73891781D02*
X122748120Y-73777495D01*
X122748120Y-73777495D02*
X122748120Y-73320352D01*
X122748120Y-73320352D02*
X122805263Y-73206066D01*
X122805263Y-73206066D02*
X122919549Y-73148923D01*
X122919549Y-73148923D02*
X123148120Y-73148923D01*
X123148120Y-73148923D02*
X123262406Y-73206066D01*
X123262406Y-73206066D02*
X123319549Y-73320352D01*
X123319549Y-73320352D02*
X123319549Y-73434638D01*
X123319549Y-73434638D02*
X122748120Y-73548923D01*
X123833834Y-73948923D02*
X123833834Y-73148923D01*
X123833834Y-73377495D02*
X123890977Y-73263209D01*
X123890977Y-73263209D02*
X123948120Y-73206066D01*
X123948120Y-73206066D02*
X124062405Y-73148923D01*
X124062405Y-73148923D02*
X124176691Y-73148923D01*
X124576691Y-73948923D02*
X124576691Y-72748923D01*
X124576691Y-73206066D02*
X124690977Y-73148923D01*
X124690977Y-73148923D02*
X124919548Y-73148923D01*
X124919548Y-73148923D02*
X125033834Y-73206066D01*
X125033834Y-73206066D02*
X125090977Y-73263209D01*
X125090977Y-73263209D02*
X125148119Y-73377495D01*
X125148119Y-73377495D02*
X125148119Y-73720352D01*
X125148119Y-73720352D02*
X125090977Y-73834638D01*
X125090977Y-73834638D02*
X125033834Y-73891781D01*
X125033834Y-73891781D02*
X124919548Y-73948923D01*
X124919548Y-73948923D02*
X124690977Y-73948923D01*
X124690977Y-73948923D02*
X124576691Y-73891781D01*
X126176691Y-73948923D02*
X126176691Y-73320352D01*
X126176691Y-73320352D02*
X126119548Y-73206066D01*
X126119548Y-73206066D02*
X126005262Y-73148923D01*
X126005262Y-73148923D02*
X125776691Y-73148923D01*
X125776691Y-73148923D02*
X125662405Y-73206066D01*
X126176691Y-73891781D02*
X126062405Y-73948923D01*
X126062405Y-73948923D02*
X125776691Y-73948923D01*
X125776691Y-73948923D02*
X125662405Y-73891781D01*
X125662405Y-73891781D02*
X125605262Y-73777495D01*
X125605262Y-73777495D02*
X125605262Y-73663209D01*
X125605262Y-73663209D02*
X125662405Y-73548923D01*
X125662405Y-73548923D02*
X125776691Y-73491781D01*
X125776691Y-73491781D02*
X126062405Y-73491781D01*
X126062405Y-73491781D02*
X126176691Y-73434638D01*
X126576690Y-73148923D02*
X127033833Y-73148923D01*
X126748119Y-72748923D02*
X126748119Y-73777495D01*
X126748119Y-73777495D02*
X126805262Y-73891781D01*
X126805262Y-73891781D02*
X126919547Y-73948923D01*
X126919547Y-73948923D02*
X127033833Y-73948923D01*
X127605261Y-73948923D02*
X127490976Y-73891781D01*
X127490976Y-73891781D02*
X127433833Y-73834638D01*
X127433833Y-73834638D02*
X127376690Y-73720352D01*
X127376690Y-73720352D02*
X127376690Y-73377495D01*
X127376690Y-73377495D02*
X127433833Y-73263209D01*
X127433833Y-73263209D02*
X127490976Y-73206066D01*
X127490976Y-73206066D02*
X127605261Y-73148923D01*
X127605261Y-73148923D02*
X127776690Y-73148923D01*
X127776690Y-73148923D02*
X127890976Y-73206066D01*
X127890976Y-73206066D02*
X127948119Y-73263209D01*
X127948119Y-73263209D02*
X128005261Y-73377495D01*
X128005261Y-73377495D02*
X128005261Y-73720352D01*
X128005261Y-73720352D02*
X127948119Y-73834638D01*
X127948119Y-73834638D02*
X127890976Y-73891781D01*
X127890976Y-73891781D02*
X127776690Y-73948923D01*
X127776690Y-73948923D02*
X127605261Y-73948923D01*
X128519547Y-73948923D02*
X128519547Y-73148923D01*
X128519547Y-72748923D02*
X128462404Y-72806066D01*
X128462404Y-72806066D02*
X128519547Y-72863209D01*
X128519547Y-72863209D02*
X128576690Y-72806066D01*
X128576690Y-72806066D02*
X128519547Y-72748923D01*
X128519547Y-72748923D02*
X128519547Y-72863209D01*
X129262404Y-73948923D02*
X129148119Y-73891781D01*
X129148119Y-73891781D02*
X129090976Y-73834638D01*
X129090976Y-73834638D02*
X129033833Y-73720352D01*
X129033833Y-73720352D02*
X129033833Y-73377495D01*
X129033833Y-73377495D02*
X129090976Y-73263209D01*
X129090976Y-73263209D02*
X129148119Y-73206066D01*
X129148119Y-73206066D02*
X129262404Y-73148923D01*
X129262404Y-73148923D02*
X129433833Y-73148923D01*
X129433833Y-73148923D02*
X129548119Y-73206066D01*
X129548119Y-73206066D02*
X129605262Y-73263209D01*
X129605262Y-73263209D02*
X129662404Y-73377495D01*
X129662404Y-73377495D02*
X129662404Y-73720352D01*
X129662404Y-73720352D02*
X129605262Y-73834638D01*
X129605262Y-73834638D02*
X129548119Y-73891781D01*
X129548119Y-73891781D02*
X129433833Y-73948923D01*
X129433833Y-73948923D02*
X129262404Y-73948923D01*
X114976691Y-75880856D02*
X114576691Y-75309428D01*
X114290977Y-75880856D02*
X114290977Y-74680856D01*
X114290977Y-74680856D02*
X114748120Y-74680856D01*
X114748120Y-74680856D02*
X114862405Y-74737999D01*
X114862405Y-74737999D02*
X114919548Y-74795142D01*
X114919548Y-74795142D02*
X114976691Y-74909428D01*
X114976691Y-74909428D02*
X114976691Y-75080856D01*
X114976691Y-75080856D02*
X114919548Y-75195142D01*
X114919548Y-75195142D02*
X114862405Y-75252285D01*
X114862405Y-75252285D02*
X114748120Y-75309428D01*
X114748120Y-75309428D02*
X114290977Y-75309428D01*
X115948120Y-75823714D02*
X115833834Y-75880856D01*
X115833834Y-75880856D02*
X115605263Y-75880856D01*
X115605263Y-75880856D02*
X115490977Y-75823714D01*
X115490977Y-75823714D02*
X115433834Y-75709428D01*
X115433834Y-75709428D02*
X115433834Y-75252285D01*
X115433834Y-75252285D02*
X115490977Y-75137999D01*
X115490977Y-75137999D02*
X115605263Y-75080856D01*
X115605263Y-75080856D02*
X115833834Y-75080856D01*
X115833834Y-75080856D02*
X115948120Y-75137999D01*
X115948120Y-75137999D02*
X116005263Y-75252285D01*
X116005263Y-75252285D02*
X116005263Y-75366571D01*
X116005263Y-75366571D02*
X115433834Y-75480856D01*
X116405262Y-75080856D02*
X116690976Y-75880856D01*
X116690976Y-75880856D02*
X116976691Y-75080856D01*
X117433834Y-75766571D02*
X117490977Y-75823714D01*
X117490977Y-75823714D02*
X117433834Y-75880856D01*
X117433834Y-75880856D02*
X117376691Y-75823714D01*
X117376691Y-75823714D02*
X117433834Y-75766571D01*
X117433834Y-75766571D02*
X117433834Y-75880856D01*
X118919549Y-75252285D02*
X119319549Y-75252285D01*
X119490977Y-75880856D02*
X118919549Y-75880856D01*
X118919549Y-75880856D02*
X118919549Y-74680856D01*
X118919549Y-74680856D02*
X119490977Y-74680856D01*
X114290977Y-79116151D02*
X114690977Y-79116151D01*
X114862405Y-79744722D02*
X114290977Y-79744722D01*
X114290977Y-79744722D02*
X114290977Y-78544722D01*
X114290977Y-78544722D02*
X114862405Y-78544722D01*
X115319548Y-79687580D02*
X115433834Y-79744722D01*
X115433834Y-79744722D02*
X115662405Y-79744722D01*
X115662405Y-79744722D02*
X115776691Y-79687580D01*
X115776691Y-79687580D02*
X115833834Y-79573294D01*
X115833834Y-79573294D02*
X115833834Y-79516151D01*
X115833834Y-79516151D02*
X115776691Y-79401865D01*
X115776691Y-79401865D02*
X115662405Y-79344722D01*
X115662405Y-79344722D02*
X115490977Y-79344722D01*
X115490977Y-79344722D02*
X115376691Y-79287580D01*
X115376691Y-79287580D02*
X115319548Y-79173294D01*
X115319548Y-79173294D02*
X115319548Y-79116151D01*
X115319548Y-79116151D02*
X115376691Y-79001865D01*
X115376691Y-79001865D02*
X115490977Y-78944722D01*
X115490977Y-78944722D02*
X115662405Y-78944722D01*
X115662405Y-78944722D02*
X115776691Y-79001865D01*
X116348120Y-78944722D02*
X116348120Y-80144722D01*
X116348120Y-79001865D02*
X116462406Y-78944722D01*
X116462406Y-78944722D02*
X116690977Y-78944722D01*
X116690977Y-78944722D02*
X116805263Y-79001865D01*
X116805263Y-79001865D02*
X116862406Y-79059008D01*
X116862406Y-79059008D02*
X116919548Y-79173294D01*
X116919548Y-79173294D02*
X116919548Y-79516151D01*
X116919548Y-79516151D02*
X116862406Y-79630437D01*
X116862406Y-79630437D02*
X116805263Y-79687580D01*
X116805263Y-79687580D02*
X116690977Y-79744722D01*
X116690977Y-79744722D02*
X116462406Y-79744722D01*
X116462406Y-79744722D02*
X116348120Y-79687580D01*
X117948120Y-79744722D02*
X117948120Y-79116151D01*
X117948120Y-79116151D02*
X117890977Y-79001865D01*
X117890977Y-79001865D02*
X117776691Y-78944722D01*
X117776691Y-78944722D02*
X117548120Y-78944722D01*
X117548120Y-78944722D02*
X117433834Y-79001865D01*
X117948120Y-79687580D02*
X117833834Y-79744722D01*
X117833834Y-79744722D02*
X117548120Y-79744722D01*
X117548120Y-79744722D02*
X117433834Y-79687580D01*
X117433834Y-79687580D02*
X117376691Y-79573294D01*
X117376691Y-79573294D02*
X117376691Y-79459008D01*
X117376691Y-79459008D02*
X117433834Y-79344722D01*
X117433834Y-79344722D02*
X117548120Y-79287580D01*
X117548120Y-79287580D02*
X117833834Y-79287580D01*
X117833834Y-79287580D02*
X117948120Y-79230437D01*
X118519548Y-78944722D02*
X118519548Y-79744722D01*
X118519548Y-79059008D02*
X118576691Y-79001865D01*
X118576691Y-79001865D02*
X118690976Y-78944722D01*
X118690976Y-78944722D02*
X118862405Y-78944722D01*
X118862405Y-78944722D02*
X118976691Y-79001865D01*
X118976691Y-79001865D02*
X119033834Y-79116151D01*
X119033834Y-79116151D02*
X119033834Y-79744722D01*
X120119548Y-79744722D02*
X120119548Y-78544722D01*
X120119548Y-79687580D02*
X120005262Y-79744722D01*
X120005262Y-79744722D02*
X119776690Y-79744722D01*
X119776690Y-79744722D02*
X119662405Y-79687580D01*
X119662405Y-79687580D02*
X119605262Y-79630437D01*
X119605262Y-79630437D02*
X119548119Y-79516151D01*
X119548119Y-79516151D02*
X119548119Y-79173294D01*
X119548119Y-79173294D02*
X119605262Y-79059008D01*
X119605262Y-79059008D02*
X119662405Y-79001865D01*
X119662405Y-79001865D02*
X119776690Y-78944722D01*
X119776690Y-78944722D02*
X120005262Y-78944722D01*
X120005262Y-78944722D02*
X120119548Y-79001865D01*
X120690976Y-79744722D02*
X120690976Y-78944722D01*
X120690976Y-78544722D02*
X120633833Y-78601865D01*
X120633833Y-78601865D02*
X120690976Y-78659008D01*
X120690976Y-78659008D02*
X120748119Y-78601865D01*
X120748119Y-78601865D02*
X120690976Y-78544722D01*
X120690976Y-78544722D02*
X120690976Y-78659008D01*
X121262405Y-79744722D02*
X121262405Y-78544722D01*
X121262405Y-79001865D02*
X121376691Y-78944722D01*
X121376691Y-78944722D02*
X121605262Y-78944722D01*
X121605262Y-78944722D02*
X121719548Y-79001865D01*
X121719548Y-79001865D02*
X121776691Y-79059008D01*
X121776691Y-79059008D02*
X121833833Y-79173294D01*
X121833833Y-79173294D02*
X121833833Y-79516151D01*
X121833833Y-79516151D02*
X121776691Y-79630437D01*
X121776691Y-79630437D02*
X121719548Y-79687580D01*
X121719548Y-79687580D02*
X121605262Y-79744722D01*
X121605262Y-79744722D02*
X121376691Y-79744722D01*
X121376691Y-79744722D02*
X121262405Y-79687580D01*
X122348119Y-79744722D02*
X122348119Y-78944722D01*
X122348119Y-78544722D02*
X122290976Y-78601865D01*
X122290976Y-78601865D02*
X122348119Y-78659008D01*
X122348119Y-78659008D02*
X122405262Y-78601865D01*
X122405262Y-78601865D02*
X122348119Y-78544722D01*
X122348119Y-78544722D02*
X122348119Y-78659008D01*
X123090976Y-79744722D02*
X122976691Y-79687580D01*
X122976691Y-79687580D02*
X122919548Y-79573294D01*
X122919548Y-79573294D02*
X122919548Y-78544722D01*
X124005262Y-79687580D02*
X123890976Y-79744722D01*
X123890976Y-79744722D02*
X123662405Y-79744722D01*
X123662405Y-79744722D02*
X123548119Y-79687580D01*
X123548119Y-79687580D02*
X123490976Y-79573294D01*
X123490976Y-79573294D02*
X123490976Y-79116151D01*
X123490976Y-79116151D02*
X123548119Y-79001865D01*
X123548119Y-79001865D02*
X123662405Y-78944722D01*
X123662405Y-78944722D02*
X123890976Y-78944722D01*
X123890976Y-78944722D02*
X124005262Y-79001865D01*
X124005262Y-79001865D02*
X124062405Y-79116151D01*
X124062405Y-79116151D02*
X124062405Y-79230437D01*
X124062405Y-79230437D02*
X123490976Y-79344722D01*
X121661905Y-85554299D02*
X121661905Y-84554299D01*
X121661905Y-84554299D02*
X121900000Y-84554299D01*
X121900000Y-84554299D02*
X122042857Y-84601918D01*
X122042857Y-84601918D02*
X122138095Y-84697156D01*
X122138095Y-84697156D02*
X122185714Y-84792394D01*
X122185714Y-84792394D02*
X122233333Y-84982870D01*
X122233333Y-84982870D02*
X122233333Y-85125727D01*
X122233333Y-85125727D02*
X122185714Y-85316203D01*
X122185714Y-85316203D02*
X122138095Y-85411441D01*
X122138095Y-85411441D02*
X122042857Y-85506680D01*
X122042857Y-85506680D02*
X121900000Y-85554299D01*
X121900000Y-85554299D02*
X121661905Y-85554299D01*
X123138095Y-84554299D02*
X122661905Y-84554299D01*
X122661905Y-84554299D02*
X122614286Y-85030489D01*
X122614286Y-85030489D02*
X122661905Y-84982870D01*
X122661905Y-84982870D02*
X122757143Y-84935251D01*
X122757143Y-84935251D02*
X122995238Y-84935251D01*
X122995238Y-84935251D02*
X123090476Y-84982870D01*
X123090476Y-84982870D02*
X123138095Y-85030489D01*
X123138095Y-85030489D02*
X123185714Y-85125727D01*
X123185714Y-85125727D02*
X123185714Y-85363822D01*
X123185714Y-85363822D02*
X123138095Y-85459060D01*
X123138095Y-85459060D02*
X123090476Y-85506680D01*
X123090476Y-85506680D02*
X122995238Y-85554299D01*
X122995238Y-85554299D02*
X122757143Y-85554299D01*
X122757143Y-85554299D02*
X122661905Y-85506680D01*
X122661905Y-85506680D02*
X122614286Y-85459060D01*
X124261905Y-85554299D02*
X124261905Y-84554299D01*
X124261905Y-84554299D02*
X124500000Y-84554299D01*
X124500000Y-84554299D02*
X124642857Y-84601918D01*
X124642857Y-84601918D02*
X124738095Y-84697156D01*
X124738095Y-84697156D02*
X124785714Y-84792394D01*
X124785714Y-84792394D02*
X124833333Y-84982870D01*
X124833333Y-84982870D02*
X124833333Y-85125727D01*
X124833333Y-85125727D02*
X124785714Y-85316203D01*
X124785714Y-85316203D02*
X124738095Y-85411441D01*
X124738095Y-85411441D02*
X124642857Y-85506680D01*
X124642857Y-85506680D02*
X124500000Y-85554299D01*
X124500000Y-85554299D02*
X124261905Y-85554299D01*
X125690476Y-84554299D02*
X125500000Y-84554299D01*
X125500000Y-84554299D02*
X125404762Y-84601918D01*
X125404762Y-84601918D02*
X125357143Y-84649537D01*
X125357143Y-84649537D02*
X125261905Y-84792394D01*
X125261905Y-84792394D02*
X125214286Y-84982870D01*
X125214286Y-84982870D02*
X125214286Y-85363822D01*
X125214286Y-85363822D02*
X125261905Y-85459060D01*
X125261905Y-85459060D02*
X125309524Y-85506680D01*
X125309524Y-85506680D02*
X125404762Y-85554299D01*
X125404762Y-85554299D02*
X125595238Y-85554299D01*
X125595238Y-85554299D02*
X125690476Y-85506680D01*
X125690476Y-85506680D02*
X125738095Y-85459060D01*
X125738095Y-85459060D02*
X125785714Y-85363822D01*
X125785714Y-85363822D02*
X125785714Y-85125727D01*
X125785714Y-85125727D02*
X125738095Y-85030489D01*
X125738095Y-85030489D02*
X125690476Y-84982870D01*
X125690476Y-84982870D02*
X125595238Y-84935251D01*
X125595238Y-84935251D02*
X125404762Y-84935251D01*
X125404762Y-84935251D02*
X125309524Y-84982870D01*
X125309524Y-84982870D02*
X125261905Y-85030489D01*
X125261905Y-85030489D02*
X125214286Y-85125727D01*
X126761905Y-85554299D02*
X126761905Y-84554299D01*
X126761905Y-84554299D02*
X127000000Y-84554299D01*
X127000000Y-84554299D02*
X127142857Y-84601918D01*
X127142857Y-84601918D02*
X127238095Y-84697156D01*
X127238095Y-84697156D02*
X127285714Y-84792394D01*
X127285714Y-84792394D02*
X127333333Y-84982870D01*
X127333333Y-84982870D02*
X127333333Y-85125727D01*
X127333333Y-85125727D02*
X127285714Y-85316203D01*
X127285714Y-85316203D02*
X127238095Y-85411441D01*
X127238095Y-85411441D02*
X127142857Y-85506680D01*
X127142857Y-85506680D02*
X127000000Y-85554299D01*
X127000000Y-85554299D02*
X126761905Y-85554299D01*
X127666667Y-84554299D02*
X128333333Y-84554299D01*
X128333333Y-84554299D02*
X127904762Y-85554299D01*
X129261905Y-85554299D02*
X129261905Y-84554299D01*
X129261905Y-84554299D02*
X129500000Y-84554299D01*
X129500000Y-84554299D02*
X129642857Y-84601918D01*
X129642857Y-84601918D02*
X129738095Y-84697156D01*
X129738095Y-84697156D02*
X129785714Y-84792394D01*
X129785714Y-84792394D02*
X129833333Y-84982870D01*
X129833333Y-84982870D02*
X129833333Y-85125727D01*
X129833333Y-85125727D02*
X129785714Y-85316203D01*
X129785714Y-85316203D02*
X129738095Y-85411441D01*
X129738095Y-85411441D02*
X129642857Y-85506680D01*
X129642857Y-85506680D02*
X129500000Y-85554299D01*
X129500000Y-85554299D02*
X129261905Y-85554299D01*
X130404762Y-84982870D02*
X130309524Y-84935251D01*
X130309524Y-84935251D02*
X130261905Y-84887632D01*
X130261905Y-84887632D02*
X130214286Y-84792394D01*
X130214286Y-84792394D02*
X130214286Y-84744775D01*
X130214286Y-84744775D02*
X130261905Y-84649537D01*
X130261905Y-84649537D02*
X130309524Y-84601918D01*
X130309524Y-84601918D02*
X130404762Y-84554299D01*
X130404762Y-84554299D02*
X130595238Y-84554299D01*
X130595238Y-84554299D02*
X130690476Y-84601918D01*
X130690476Y-84601918D02*
X130738095Y-84649537D01*
X130738095Y-84649537D02*
X130785714Y-84744775D01*
X130785714Y-84744775D02*
X130785714Y-84792394D01*
X130785714Y-84792394D02*
X130738095Y-84887632D01*
X130738095Y-84887632D02*
X130690476Y-84935251D01*
X130690476Y-84935251D02*
X130595238Y-84982870D01*
X130595238Y-84982870D02*
X130404762Y-84982870D01*
X130404762Y-84982870D02*
X130309524Y-85030489D01*
X130309524Y-85030489D02*
X130261905Y-85078108D01*
X130261905Y-85078108D02*
X130214286Y-85173346D01*
X130214286Y-85173346D02*
X130214286Y-85363822D01*
X130214286Y-85363822D02*
X130261905Y-85459060D01*
X130261905Y-85459060D02*
X130309524Y-85506680D01*
X130309524Y-85506680D02*
X130404762Y-85554299D01*
X130404762Y-85554299D02*
X130595238Y-85554299D01*
X130595238Y-85554299D02*
X130690476Y-85506680D01*
X130690476Y-85506680D02*
X130738095Y-85459060D01*
X130738095Y-85459060D02*
X130785714Y-85363822D01*
X130785714Y-85363822D02*
X130785714Y-85173346D01*
X130785714Y-85173346D02*
X130738095Y-85078108D01*
X130738095Y-85078108D02*
X130690476Y-85030489D01*
X130690476Y-85030489D02*
X130595238Y-84982870D01*
X131761905Y-85554299D02*
X131761905Y-84554299D01*
X131761905Y-84554299D02*
X132000000Y-84554299D01*
X132000000Y-84554299D02*
X132142857Y-84601918D01*
X132142857Y-84601918D02*
X132238095Y-84697156D01*
X132238095Y-84697156D02*
X132285714Y-84792394D01*
X132285714Y-84792394D02*
X132333333Y-84982870D01*
X132333333Y-84982870D02*
X132333333Y-85125727D01*
X132333333Y-85125727D02*
X132285714Y-85316203D01*
X132285714Y-85316203D02*
X132238095Y-85411441D01*
X132238095Y-85411441D02*
X132142857Y-85506680D01*
X132142857Y-85506680D02*
X132000000Y-85554299D01*
X132000000Y-85554299D02*
X131761905Y-85554299D01*
X132809524Y-85554299D02*
X133000000Y-85554299D01*
X133000000Y-85554299D02*
X133095238Y-85506680D01*
X133095238Y-85506680D02*
X133142857Y-85459060D01*
X133142857Y-85459060D02*
X133238095Y-85316203D01*
X133238095Y-85316203D02*
X133285714Y-85125727D01*
X133285714Y-85125727D02*
X133285714Y-84744775D01*
X133285714Y-84744775D02*
X133238095Y-84649537D01*
X133238095Y-84649537D02*
X133190476Y-84601918D01*
X133190476Y-84601918D02*
X133095238Y-84554299D01*
X133095238Y-84554299D02*
X132904762Y-84554299D01*
X132904762Y-84554299D02*
X132809524Y-84601918D01*
X132809524Y-84601918D02*
X132761905Y-84649537D01*
X132761905Y-84649537D02*
X132714286Y-84744775D01*
X132714286Y-84744775D02*
X132714286Y-84982870D01*
X132714286Y-84982870D02*
X132761905Y-85078108D01*
X132761905Y-85078108D02*
X132809524Y-85125727D01*
X132809524Y-85125727D02*
X132904762Y-85173346D01*
X132904762Y-85173346D02*
X133095238Y-85173346D01*
X133095238Y-85173346D02*
X133190476Y-85125727D01*
X133190476Y-85125727D02*
X133238095Y-85078108D01*
X133238095Y-85078108D02*
X133285714Y-84982870D01*
X135361904Y-84601918D02*
X135266666Y-84554299D01*
X135266666Y-84554299D02*
X135123809Y-84554299D01*
X135123809Y-84554299D02*
X134980952Y-84601918D01*
X134980952Y-84601918D02*
X134885714Y-84697156D01*
X134885714Y-84697156D02*
X134838095Y-84792394D01*
X134838095Y-84792394D02*
X134790476Y-84982870D01*
X134790476Y-84982870D02*
X134790476Y-85125727D01*
X134790476Y-85125727D02*
X134838095Y-85316203D01*
X134838095Y-85316203D02*
X134885714Y-85411441D01*
X134885714Y-85411441D02*
X134980952Y-85506680D01*
X134980952Y-85506680D02*
X135123809Y-85554299D01*
X135123809Y-85554299D02*
X135219047Y-85554299D01*
X135219047Y-85554299D02*
X135361904Y-85506680D01*
X135361904Y-85506680D02*
X135409523Y-85459060D01*
X135409523Y-85459060D02*
X135409523Y-85125727D01*
X135409523Y-85125727D02*
X135219047Y-85125727D01*
X108961905Y-85554299D02*
X108961905Y-84554299D01*
X108961905Y-84554299D02*
X109200000Y-84554299D01*
X109200000Y-84554299D02*
X109342857Y-84601918D01*
X109342857Y-84601918D02*
X109438095Y-84697156D01*
X109438095Y-84697156D02*
X109485714Y-84792394D01*
X109485714Y-84792394D02*
X109533333Y-84982870D01*
X109533333Y-84982870D02*
X109533333Y-85125727D01*
X109533333Y-85125727D02*
X109485714Y-85316203D01*
X109485714Y-85316203D02*
X109438095Y-85411441D01*
X109438095Y-85411441D02*
X109342857Y-85506680D01*
X109342857Y-85506680D02*
X109200000Y-85554299D01*
X109200000Y-85554299D02*
X108961905Y-85554299D01*
X110390476Y-84887632D02*
X110390476Y-85554299D01*
X110152381Y-84506680D02*
X109914286Y-85220965D01*
X109914286Y-85220965D02*
X110533333Y-85220965D01*
X107461904Y-84601918D02*
X107366666Y-84554299D01*
X107366666Y-84554299D02*
X107223809Y-84554299D01*
X107223809Y-84554299D02*
X107080952Y-84601918D01*
X107080952Y-84601918D02*
X106985714Y-84697156D01*
X106985714Y-84697156D02*
X106938095Y-84792394D01*
X106938095Y-84792394D02*
X106890476Y-84982870D01*
X106890476Y-84982870D02*
X106890476Y-85125727D01*
X106890476Y-85125727D02*
X106938095Y-85316203D01*
X106938095Y-85316203D02*
X106985714Y-85411441D01*
X106985714Y-85411441D02*
X107080952Y-85506680D01*
X107080952Y-85506680D02*
X107223809Y-85554299D01*
X107223809Y-85554299D02*
X107319047Y-85554299D01*
X107319047Y-85554299D02*
X107461904Y-85506680D01*
X107461904Y-85506680D02*
X107509523Y-85459060D01*
X107509523Y-85459060D02*
X107509523Y-85125727D01*
X107509523Y-85125727D02*
X107319047Y-85125727D01*
X103861905Y-85554299D02*
X103861905Y-84554299D01*
X103861905Y-84554299D02*
X104100000Y-84554299D01*
X104100000Y-84554299D02*
X104242857Y-84601918D01*
X104242857Y-84601918D02*
X104338095Y-84697156D01*
X104338095Y-84697156D02*
X104385714Y-84792394D01*
X104385714Y-84792394D02*
X104433333Y-84982870D01*
X104433333Y-84982870D02*
X104433333Y-85125727D01*
X104433333Y-85125727D02*
X104385714Y-85316203D01*
X104385714Y-85316203D02*
X104338095Y-85411441D01*
X104338095Y-85411441D02*
X104242857Y-85506680D01*
X104242857Y-85506680D02*
X104100000Y-85554299D01*
X104100000Y-85554299D02*
X103861905Y-85554299D01*
X104766667Y-84554299D02*
X105385714Y-84554299D01*
X105385714Y-84554299D02*
X105052381Y-84935251D01*
X105052381Y-84935251D02*
X105195238Y-84935251D01*
X105195238Y-84935251D02*
X105290476Y-84982870D01*
X105290476Y-84982870D02*
X105338095Y-85030489D01*
X105338095Y-85030489D02*
X105385714Y-85125727D01*
X105385714Y-85125727D02*
X105385714Y-85363822D01*
X105385714Y-85363822D02*
X105338095Y-85459060D01*
X105338095Y-85459060D02*
X105290476Y-85506680D01*
X105290476Y-85506680D02*
X105195238Y-85554299D01*
X105195238Y-85554299D02*
X104909524Y-85554299D01*
X104909524Y-85554299D02*
X104814286Y-85506680D01*
X104814286Y-85506680D02*
X104766667Y-85459060D01*
X101980952Y-85554299D02*
X101647619Y-85078108D01*
X101409524Y-85554299D02*
X101409524Y-84554299D01*
X101409524Y-84554299D02*
X101790476Y-84554299D01*
X101790476Y-84554299D02*
X101885714Y-84601918D01*
X101885714Y-84601918D02*
X101933333Y-84649537D01*
X101933333Y-84649537D02*
X101980952Y-84744775D01*
X101980952Y-84744775D02*
X101980952Y-84887632D01*
X101980952Y-84887632D02*
X101933333Y-84982870D01*
X101933333Y-84982870D02*
X101885714Y-85030489D01*
X101885714Y-85030489D02*
X101790476Y-85078108D01*
X101790476Y-85078108D02*
X101409524Y-85078108D01*
X102266667Y-84554299D02*
X102600000Y-85554299D01*
X102600000Y-85554299D02*
X102933333Y-84554299D01*
X99209523Y-84554299D02*
X98733333Y-84554299D01*
X98733333Y-84554299D02*
X98685714Y-85030489D01*
X98685714Y-85030489D02*
X98733333Y-84982870D01*
X98733333Y-84982870D02*
X98828571Y-84935251D01*
X98828571Y-84935251D02*
X99066666Y-84935251D01*
X99066666Y-84935251D02*
X99161904Y-84982870D01*
X99161904Y-84982870D02*
X99209523Y-85030489D01*
X99209523Y-85030489D02*
X99257142Y-85125727D01*
X99257142Y-85125727D02*
X99257142Y-85363822D01*
X99257142Y-85363822D02*
X99209523Y-85459060D01*
X99209523Y-85459060D02*
X99161904Y-85506680D01*
X99161904Y-85506680D02*
X99066666Y-85554299D01*
X99066666Y-85554299D02*
X98828571Y-85554299D01*
X98828571Y-85554299D02*
X98733333Y-85506680D01*
X98733333Y-85506680D02*
X98685714Y-85459060D01*
X99542857Y-84554299D02*
X99876190Y-85554299D01*
X99876190Y-85554299D02*
X100209523Y-84554299D01*
X150745700Y-135190476D02*
X150745700Y-134714286D01*
X150745700Y-134714286D02*
X151745700Y-134714286D01*
X151126653Y-135523810D02*
X151126653Y-136285715D01*
X147079510Y-135062381D02*
X147031891Y-135205238D01*
X147031891Y-135205238D02*
X146984272Y-135252857D01*
X146984272Y-135252857D02*
X146889034Y-135300476D01*
X146889034Y-135300476D02*
X146746177Y-135300476D01*
X146746177Y-135300476D02*
X146650939Y-135252857D01*
X146650939Y-135252857D02*
X146603320Y-135205238D01*
X146603320Y-135205238D02*
X146555700Y-135110000D01*
X146555700Y-135110000D02*
X146555700Y-134729048D01*
X146555700Y-134729048D02*
X147555700Y-134729048D01*
X147555700Y-134729048D02*
X147555700Y-135062381D01*
X147555700Y-135062381D02*
X147508081Y-135157619D01*
X147508081Y-135157619D02*
X147460462Y-135205238D01*
X147460462Y-135205238D02*
X147365224Y-135252857D01*
X147365224Y-135252857D02*
X147269986Y-135252857D01*
X147269986Y-135252857D02*
X147174748Y-135205238D01*
X147174748Y-135205238D02*
X147127129Y-135157619D01*
X147127129Y-135157619D02*
X147079510Y-135062381D01*
X147079510Y-135062381D02*
X147079510Y-134729048D01*
X146936653Y-135729048D02*
X146936653Y-136490953D01*
X149355700Y-135200476D02*
X149355700Y-134724286D01*
X149355700Y-134724286D02*
X150355700Y-134724286D01*
X149736653Y-135533810D02*
X149736653Y-136295715D01*
X149355700Y-135914762D02*
X150117605Y-135914762D01*
X156626653Y-134814286D02*
X156626653Y-135576191D01*
X156245700Y-135195238D02*
X157007605Y-135195238D01*
X157245700Y-136528571D02*
X157245700Y-136052381D01*
X157245700Y-136052381D02*
X156769510Y-136004762D01*
X156769510Y-136004762D02*
X156817129Y-136052381D01*
X156817129Y-136052381D02*
X156864748Y-136147619D01*
X156864748Y-136147619D02*
X156864748Y-136385714D01*
X156864748Y-136385714D02*
X156817129Y-136480952D01*
X156817129Y-136480952D02*
X156769510Y-136528571D01*
X156769510Y-136528571D02*
X156674272Y-136576190D01*
X156674272Y-136576190D02*
X156436177Y-136576190D01*
X156436177Y-136576190D02*
X156340939Y-136528571D01*
X156340939Y-136528571D02*
X156293320Y-136480952D01*
X156293320Y-136480952D02*
X156245700Y-136385714D01*
X156245700Y-136385714D02*
X156245700Y-136147619D01*
X156245700Y-136147619D02*
X156293320Y-136052381D01*
X156293320Y-136052381D02*
X156340939Y-136004762D01*
X157245700Y-136861905D02*
X156245700Y-137195238D01*
X156245700Y-137195238D02*
X157245700Y-137528571D01*
X97261904Y-84601918D02*
X97166666Y-84554299D01*
X97166666Y-84554299D02*
X97023809Y-84554299D01*
X97023809Y-84554299D02*
X96880952Y-84601918D01*
X96880952Y-84601918D02*
X96785714Y-84697156D01*
X96785714Y-84697156D02*
X96738095Y-84792394D01*
X96738095Y-84792394D02*
X96690476Y-84982870D01*
X96690476Y-84982870D02*
X96690476Y-85125727D01*
X96690476Y-85125727D02*
X96738095Y-85316203D01*
X96738095Y-85316203D02*
X96785714Y-85411441D01*
X96785714Y-85411441D02*
X96880952Y-85506680D01*
X96880952Y-85506680D02*
X97023809Y-85554299D01*
X97023809Y-85554299D02*
X97119047Y-85554299D01*
X97119047Y-85554299D02*
X97261904Y-85506680D01*
X97261904Y-85506680D02*
X97309523Y-85459060D01*
X97309523Y-85459060D02*
X97309523Y-85125727D01*
X97309523Y-85125727D02*
X97119047Y-85125727D01*
X148479510Y-135062381D02*
X148431891Y-135205238D01*
X148431891Y-135205238D02*
X148384272Y-135252857D01*
X148384272Y-135252857D02*
X148289034Y-135300476D01*
X148289034Y-135300476D02*
X148146177Y-135300476D01*
X148146177Y-135300476D02*
X148050939Y-135252857D01*
X148050939Y-135252857D02*
X148003320Y-135205238D01*
X148003320Y-135205238D02*
X147955700Y-135110000D01*
X147955700Y-135110000D02*
X147955700Y-134729048D01*
X147955700Y-134729048D02*
X148955700Y-134729048D01*
X148955700Y-134729048D02*
X148955700Y-135062381D01*
X148955700Y-135062381D02*
X148908081Y-135157619D01*
X148908081Y-135157619D02*
X148860462Y-135205238D01*
X148860462Y-135205238D02*
X148765224Y-135252857D01*
X148765224Y-135252857D02*
X148669986Y-135252857D01*
X148669986Y-135252857D02*
X148574748Y-135205238D01*
X148574748Y-135205238D02*
X148527129Y-135157619D01*
X148527129Y-135157619D02*
X148479510Y-135062381D01*
X148479510Y-135062381D02*
X148479510Y-134729048D01*
X148336653Y-135729048D02*
X148336653Y-136490953D01*
X147955700Y-136110000D02*
X148717605Y-136110000D01*
X92563333Y-127774299D02*
X92230000Y-127298108D01*
X91991905Y-127774299D02*
X91991905Y-126774299D01*
X91991905Y-126774299D02*
X92372857Y-126774299D01*
X92372857Y-126774299D02*
X92468095Y-126821918D01*
X92468095Y-126821918D02*
X92515714Y-126869537D01*
X92515714Y-126869537D02*
X92563333Y-126964775D01*
X92563333Y-126964775D02*
X92563333Y-127107632D01*
X92563333Y-127107632D02*
X92515714Y-127202870D01*
X92515714Y-127202870D02*
X92468095Y-127250489D01*
X92468095Y-127250489D02*
X92372857Y-127298108D01*
X92372857Y-127298108D02*
X91991905Y-127298108D01*
X92944286Y-127726680D02*
X93087143Y-127774299D01*
X93087143Y-127774299D02*
X93325238Y-127774299D01*
X93325238Y-127774299D02*
X93420476Y-127726680D01*
X93420476Y-127726680D02*
X93468095Y-127679060D01*
X93468095Y-127679060D02*
X93515714Y-127583822D01*
X93515714Y-127583822D02*
X93515714Y-127488584D01*
X93515714Y-127488584D02*
X93468095Y-127393346D01*
X93468095Y-127393346D02*
X93420476Y-127345727D01*
X93420476Y-127345727D02*
X93325238Y-127298108D01*
X93325238Y-127298108D02*
X93134762Y-127250489D01*
X93134762Y-127250489D02*
X93039524Y-127202870D01*
X93039524Y-127202870D02*
X92991905Y-127155251D01*
X92991905Y-127155251D02*
X92944286Y-127060013D01*
X92944286Y-127060013D02*
X92944286Y-126964775D01*
X92944286Y-126964775D02*
X92991905Y-126869537D01*
X92991905Y-126869537D02*
X93039524Y-126821918D01*
X93039524Y-126821918D02*
X93134762Y-126774299D01*
X93134762Y-126774299D02*
X93372857Y-126774299D01*
X93372857Y-126774299D02*
X93515714Y-126821918D01*
X93405714Y-109628584D02*
X93881904Y-109628584D01*
X93310476Y-109914299D02*
X93643809Y-108914299D01*
X93643809Y-108914299D02*
X93977142Y-109914299D01*
X94739047Y-109247632D02*
X94739047Y-109914299D01*
X94500952Y-108866680D02*
X94262857Y-109580965D01*
X94262857Y-109580965D02*
X94881904Y-109580965D01*
X92500475Y-126369060D02*
X92452856Y-126416680D01*
X92452856Y-126416680D02*
X92309999Y-126464299D01*
X92309999Y-126464299D02*
X92214761Y-126464299D01*
X92214761Y-126464299D02*
X92071904Y-126416680D01*
X92071904Y-126416680D02*
X91976666Y-126321441D01*
X91976666Y-126321441D02*
X91929047Y-126226203D01*
X91929047Y-126226203D02*
X91881428Y-126035727D01*
X91881428Y-126035727D02*
X91881428Y-125892870D01*
X91881428Y-125892870D02*
X91929047Y-125702394D01*
X91929047Y-125702394D02*
X91976666Y-125607156D01*
X91976666Y-125607156D02*
X92071904Y-125511918D01*
X92071904Y-125511918D02*
X92214761Y-125464299D01*
X92214761Y-125464299D02*
X92309999Y-125464299D01*
X92309999Y-125464299D02*
X92452856Y-125511918D01*
X92452856Y-125511918D02*
X92500475Y-125559537D01*
X92929047Y-126464299D02*
X92929047Y-125464299D01*
X93500475Y-126464299D02*
X93071904Y-125892870D01*
X93500475Y-125464299D02*
X92929047Y-126035727D01*
X93405714Y-112188584D02*
X93881904Y-112188584D01*
X93310476Y-112474299D02*
X93643809Y-111474299D01*
X93643809Y-111474299D02*
X93977142Y-112474299D01*
X94786666Y-111474299D02*
X94310476Y-111474299D01*
X94310476Y-111474299D02*
X94262857Y-111950489D01*
X94262857Y-111950489D02*
X94310476Y-111902870D01*
X94310476Y-111902870D02*
X94405714Y-111855251D01*
X94405714Y-111855251D02*
X94643809Y-111855251D01*
X94643809Y-111855251D02*
X94739047Y-111902870D01*
X94739047Y-111902870D02*
X94786666Y-111950489D01*
X94786666Y-111950489D02*
X94834285Y-112045727D01*
X94834285Y-112045727D02*
X94834285Y-112283822D01*
X94834285Y-112283822D02*
X94786666Y-112379060D01*
X94786666Y-112379060D02*
X94739047Y-112426680D01*
X94739047Y-112426680D02*
X94643809Y-112474299D01*
X94643809Y-112474299D02*
X94405714Y-112474299D01*
X94405714Y-112474299D02*
X94310476Y-112426680D01*
X94310476Y-112426680D02*
X94262857Y-112379060D01*
X92169524Y-125124299D02*
X92169524Y-124124299D01*
X92169524Y-124124299D02*
X92502857Y-124838584D01*
X92502857Y-124838584D02*
X92836190Y-124124299D01*
X92836190Y-124124299D02*
X92836190Y-125124299D01*
X93312381Y-125124299D02*
X93312381Y-124124299D01*
X114230714Y-99798584D02*
X114706904Y-99798584D01*
X114135476Y-100084299D02*
X114468809Y-99084299D01*
X114468809Y-99084299D02*
X114802142Y-100084299D01*
X115087857Y-99179537D02*
X115135476Y-99131918D01*
X115135476Y-99131918D02*
X115230714Y-99084299D01*
X115230714Y-99084299D02*
X115468809Y-99084299D01*
X115468809Y-99084299D02*
X115564047Y-99131918D01*
X115564047Y-99131918D02*
X115611666Y-99179537D01*
X115611666Y-99179537D02*
X115659285Y-99274775D01*
X115659285Y-99274775D02*
X115659285Y-99370013D01*
X115659285Y-99370013D02*
X115611666Y-99512870D01*
X115611666Y-99512870D02*
X115040238Y-100084299D01*
X115040238Y-100084299D02*
X115659285Y-100084299D01*
X154445700Y-134776191D02*
X154445700Y-135347619D01*
X153445700Y-135061905D02*
X154445700Y-135061905D01*
X153445700Y-136252381D02*
X153921891Y-135919048D01*
X153445700Y-135680953D02*
X154445700Y-135680953D01*
X154445700Y-135680953D02*
X154445700Y-136061905D01*
X154445700Y-136061905D02*
X154398081Y-136157143D01*
X154398081Y-136157143D02*
X154350462Y-136204762D01*
X154350462Y-136204762D02*
X154255224Y-136252381D01*
X154255224Y-136252381D02*
X154112367Y-136252381D01*
X154112367Y-136252381D02*
X154017129Y-136204762D01*
X154017129Y-136204762D02*
X153969510Y-136157143D01*
X153969510Y-136157143D02*
X153921891Y-136061905D01*
X153921891Y-136061905D02*
X153921891Y-135680953D01*
X153445700Y-136680953D02*
X154445700Y-136680953D01*
X154398081Y-137680952D02*
X154445700Y-137585714D01*
X154445700Y-137585714D02*
X154445700Y-137442857D01*
X154445700Y-137442857D02*
X154398081Y-137300000D01*
X154398081Y-137300000D02*
X154302843Y-137204762D01*
X154302843Y-137204762D02*
X154207605Y-137157143D01*
X154207605Y-137157143D02*
X154017129Y-137109524D01*
X154017129Y-137109524D02*
X153874272Y-137109524D01*
X153874272Y-137109524D02*
X153683796Y-137157143D01*
X153683796Y-137157143D02*
X153588558Y-137204762D01*
X153588558Y-137204762D02*
X153493320Y-137300000D01*
X153493320Y-137300000D02*
X153445700Y-137442857D01*
X153445700Y-137442857D02*
X153445700Y-137538095D01*
X153445700Y-137538095D02*
X153493320Y-137680952D01*
X153493320Y-137680952D02*
X153540939Y-137728571D01*
X153540939Y-137728571D02*
X153874272Y-137728571D01*
X153874272Y-137728571D02*
X153874272Y-137538095D01*
X149280952Y-68954299D02*
X149471428Y-68954299D01*
X149471428Y-68954299D02*
X149566666Y-69001918D01*
X149566666Y-69001918D02*
X149661904Y-69097156D01*
X149661904Y-69097156D02*
X149709523Y-69287632D01*
X149709523Y-69287632D02*
X149709523Y-69620965D01*
X149709523Y-69620965D02*
X149661904Y-69811441D01*
X149661904Y-69811441D02*
X149566666Y-69906680D01*
X149566666Y-69906680D02*
X149471428Y-69954299D01*
X149471428Y-69954299D02*
X149280952Y-69954299D01*
X149280952Y-69954299D02*
X149185714Y-69906680D01*
X149185714Y-69906680D02*
X149090476Y-69811441D01*
X149090476Y-69811441D02*
X149042857Y-69620965D01*
X149042857Y-69620965D02*
X149042857Y-69287632D01*
X149042857Y-69287632D02*
X149090476Y-69097156D01*
X149090476Y-69097156D02*
X149185714Y-69001918D01*
X149185714Y-69001918D02*
X149280952Y-68954299D01*
X150138095Y-69954299D02*
X150138095Y-68954299D01*
X150138095Y-68954299D02*
X150709523Y-69954299D01*
X150709523Y-69954299D02*
X150709523Y-68954299D01*
X93878095Y-103921918D02*
X93782857Y-103874299D01*
X93782857Y-103874299D02*
X93640000Y-103874299D01*
X93640000Y-103874299D02*
X93497143Y-103921918D01*
X93497143Y-103921918D02*
X93401905Y-104017156D01*
X93401905Y-104017156D02*
X93354286Y-104112394D01*
X93354286Y-104112394D02*
X93306667Y-104302870D01*
X93306667Y-104302870D02*
X93306667Y-104445727D01*
X93306667Y-104445727D02*
X93354286Y-104636203D01*
X93354286Y-104636203D02*
X93401905Y-104731441D01*
X93401905Y-104731441D02*
X93497143Y-104826680D01*
X93497143Y-104826680D02*
X93640000Y-104874299D01*
X93640000Y-104874299D02*
X93735238Y-104874299D01*
X93735238Y-104874299D02*
X93878095Y-104826680D01*
X93878095Y-104826680D02*
X93925714Y-104779060D01*
X93925714Y-104779060D02*
X93925714Y-104445727D01*
X93925714Y-104445727D02*
X93735238Y-104445727D01*
X94354286Y-104874299D02*
X94354286Y-103874299D01*
X94354286Y-103874299D02*
X94925714Y-104874299D01*
X94925714Y-104874299D02*
X94925714Y-103874299D01*
X95401905Y-104874299D02*
X95401905Y-103874299D01*
X95401905Y-103874299D02*
X95640000Y-103874299D01*
X95640000Y-103874299D02*
X95782857Y-103921918D01*
X95782857Y-103921918D02*
X95878095Y-104017156D01*
X95878095Y-104017156D02*
X95925714Y-104112394D01*
X95925714Y-104112394D02*
X95973333Y-104302870D01*
X95973333Y-104302870D02*
X95973333Y-104445727D01*
X95973333Y-104445727D02*
X95925714Y-104636203D01*
X95925714Y-104636203D02*
X95878095Y-104731441D01*
X95878095Y-104731441D02*
X95782857Y-104826680D01*
X95782857Y-104826680D02*
X95640000Y-104874299D01*
X95640000Y-104874299D02*
X95401905Y-104874299D01*
X152649510Y-134738095D02*
X152649510Y-135071428D01*
X152125700Y-135214285D02*
X152125700Y-134738095D01*
X152125700Y-134738095D02*
X153125700Y-134738095D01*
X153125700Y-134738095D02*
X153125700Y-135214285D01*
X152220939Y-136214285D02*
X152173320Y-136166666D01*
X152173320Y-136166666D02*
X152125700Y-136023809D01*
X152125700Y-136023809D02*
X152125700Y-135928571D01*
X152125700Y-135928571D02*
X152173320Y-135785714D01*
X152173320Y-135785714D02*
X152268558Y-135690476D01*
X152268558Y-135690476D02*
X152363796Y-135642857D01*
X152363796Y-135642857D02*
X152554272Y-135595238D01*
X152554272Y-135595238D02*
X152697129Y-135595238D01*
X152697129Y-135595238D02*
X152887605Y-135642857D01*
X152887605Y-135642857D02*
X152982843Y-135690476D01*
X152982843Y-135690476D02*
X153078081Y-135785714D01*
X153078081Y-135785714D02*
X153125700Y-135928571D01*
X153125700Y-135928571D02*
X153125700Y-136023809D01*
X153125700Y-136023809D02*
X153078081Y-136166666D01*
X153078081Y-136166666D02*
X153030462Y-136214285D01*
X152125700Y-136642857D02*
X153125700Y-136642857D01*
X152649510Y-136642857D02*
X152649510Y-137214285D01*
X152125700Y-137214285D02*
X153125700Y-137214285D01*
X153125700Y-137880952D02*
X153125700Y-138071428D01*
X153125700Y-138071428D02*
X153078081Y-138166666D01*
X153078081Y-138166666D02*
X152982843Y-138261904D01*
X152982843Y-138261904D02*
X152792367Y-138309523D01*
X152792367Y-138309523D02*
X152459034Y-138309523D01*
X152459034Y-138309523D02*
X152268558Y-138261904D01*
X152268558Y-138261904D02*
X152173320Y-138166666D01*
X152173320Y-138166666D02*
X152125700Y-138071428D01*
X152125700Y-138071428D02*
X152125700Y-137880952D01*
X152125700Y-137880952D02*
X152173320Y-137785714D01*
X152173320Y-137785714D02*
X152268558Y-137690476D01*
X152268558Y-137690476D02*
X152459034Y-137642857D01*
X152459034Y-137642857D02*
X152792367Y-137642857D01*
X152792367Y-137642857D02*
X152982843Y-137690476D01*
X152982843Y-137690476D02*
X153078081Y-137785714D01*
X153078081Y-137785714D02*
X153125700Y-137880952D01*
X119330714Y-99798584D02*
X119806904Y-99798584D01*
X119235476Y-100084299D02*
X119568809Y-99084299D01*
X119568809Y-99084299D02*
X119902142Y-100084299D01*
X120425952Y-99084299D02*
X120521190Y-99084299D01*
X120521190Y-99084299D02*
X120616428Y-99131918D01*
X120616428Y-99131918D02*
X120664047Y-99179537D01*
X120664047Y-99179537D02*
X120711666Y-99274775D01*
X120711666Y-99274775D02*
X120759285Y-99465251D01*
X120759285Y-99465251D02*
X120759285Y-99703346D01*
X120759285Y-99703346D02*
X120711666Y-99893822D01*
X120711666Y-99893822D02*
X120664047Y-99989060D01*
X120664047Y-99989060D02*
X120616428Y-100036680D01*
X120616428Y-100036680D02*
X120521190Y-100084299D01*
X120521190Y-100084299D02*
X120425952Y-100084299D01*
X120425952Y-100084299D02*
X120330714Y-100036680D01*
X120330714Y-100036680D02*
X120283095Y-99989060D01*
X120283095Y-99989060D02*
X120235476Y-99893822D01*
X120235476Y-99893822D02*
X120187857Y-99703346D01*
X120187857Y-99703346D02*
X120187857Y-99465251D01*
X120187857Y-99465251D02*
X120235476Y-99274775D01*
X120235476Y-99274775D02*
X120283095Y-99179537D01*
X120283095Y-99179537D02*
X120330714Y-99131918D01*
X120330714Y-99131918D02*
X120425952Y-99084299D01*
X89469523Y-84694299D02*
X88993333Y-84694299D01*
X88993333Y-84694299D02*
X88993333Y-83694299D01*
X90374285Y-84599060D02*
X90326666Y-84646680D01*
X90326666Y-84646680D02*
X90183809Y-84694299D01*
X90183809Y-84694299D02*
X90088571Y-84694299D01*
X90088571Y-84694299D02*
X89945714Y-84646680D01*
X89945714Y-84646680D02*
X89850476Y-84551441D01*
X89850476Y-84551441D02*
X89802857Y-84456203D01*
X89802857Y-84456203D02*
X89755238Y-84265727D01*
X89755238Y-84265727D02*
X89755238Y-84122870D01*
X89755238Y-84122870D02*
X89802857Y-83932394D01*
X89802857Y-83932394D02*
X89850476Y-83837156D01*
X89850476Y-83837156D02*
X89945714Y-83741918D01*
X89945714Y-83741918D02*
X90088571Y-83694299D01*
X90088571Y-83694299D02*
X90183809Y-83694299D01*
X90183809Y-83694299D02*
X90326666Y-83741918D01*
X90326666Y-83741918D02*
X90374285Y-83789537D01*
X90802857Y-84694299D02*
X90802857Y-83694299D01*
X90802857Y-83694299D02*
X91040952Y-83694299D01*
X91040952Y-83694299D02*
X91183809Y-83741918D01*
X91183809Y-83741918D02*
X91279047Y-83837156D01*
X91279047Y-83837156D02*
X91326666Y-83932394D01*
X91326666Y-83932394D02*
X91374285Y-84122870D01*
X91374285Y-84122870D02*
X91374285Y-84265727D01*
X91374285Y-84265727D02*
X91326666Y-84456203D01*
X91326666Y-84456203D02*
X91279047Y-84551441D01*
X91279047Y-84551441D02*
X91183809Y-84646680D01*
X91183809Y-84646680D02*
X91040952Y-84694299D01*
X91040952Y-84694299D02*
X90802857Y-84694299D01*
X89427143Y-126861918D02*
X89331905Y-126814299D01*
X89331905Y-126814299D02*
X89189048Y-126814299D01*
X89189048Y-126814299D02*
X89046191Y-126861918D01*
X89046191Y-126861918D02*
X88950953Y-126957156D01*
X88950953Y-126957156D02*
X88903334Y-127052394D01*
X88903334Y-127052394D02*
X88855715Y-127242870D01*
X88855715Y-127242870D02*
X88855715Y-127385727D01*
X88855715Y-127385727D02*
X88903334Y-127576203D01*
X88903334Y-127576203D02*
X88950953Y-127671441D01*
X88950953Y-127671441D02*
X89046191Y-127766680D01*
X89046191Y-127766680D02*
X89189048Y-127814299D01*
X89189048Y-127814299D02*
X89284286Y-127814299D01*
X89284286Y-127814299D02*
X89427143Y-127766680D01*
X89427143Y-127766680D02*
X89474762Y-127719060D01*
X89474762Y-127719060D02*
X89474762Y-127385727D01*
X89474762Y-127385727D02*
X89284286Y-127385727D01*
X89903334Y-127814299D02*
X89903334Y-126814299D01*
X89903334Y-126814299D02*
X90474762Y-127814299D01*
X90474762Y-127814299D02*
X90474762Y-126814299D01*
X90950953Y-127814299D02*
X90950953Y-126814299D01*
X90950953Y-126814299D02*
X91189048Y-126814299D01*
X91189048Y-126814299D02*
X91331905Y-126861918D01*
X91331905Y-126861918D02*
X91427143Y-126957156D01*
X91427143Y-126957156D02*
X91474762Y-127052394D01*
X91474762Y-127052394D02*
X91522381Y-127242870D01*
X91522381Y-127242870D02*
X91522381Y-127385727D01*
X91522381Y-127385727D02*
X91474762Y-127576203D01*
X91474762Y-127576203D02*
X91427143Y-127671441D01*
X91427143Y-127671441D02*
X91331905Y-127766680D01*
X91331905Y-127766680D02*
X91189048Y-127814299D01*
X91189048Y-127814299D02*
X90950953Y-127814299D01*
X93304286Y-101963346D02*
X94066191Y-101963346D01*
X93685238Y-102344299D02*
X93685238Y-101582394D01*
X95018571Y-101344299D02*
X94542381Y-101344299D01*
X94542381Y-101344299D02*
X94494762Y-101820489D01*
X94494762Y-101820489D02*
X94542381Y-101772870D01*
X94542381Y-101772870D02*
X94637619Y-101725251D01*
X94637619Y-101725251D02*
X94875714Y-101725251D01*
X94875714Y-101725251D02*
X94970952Y-101772870D01*
X94970952Y-101772870D02*
X95018571Y-101820489D01*
X95018571Y-101820489D02*
X95066190Y-101915727D01*
X95066190Y-101915727D02*
X95066190Y-102153822D01*
X95066190Y-102153822D02*
X95018571Y-102249060D01*
X95018571Y-102249060D02*
X94970952Y-102296680D01*
X94970952Y-102296680D02*
X94875714Y-102344299D01*
X94875714Y-102344299D02*
X94637619Y-102344299D01*
X94637619Y-102344299D02*
X94542381Y-102296680D01*
X94542381Y-102296680D02*
X94494762Y-102249060D01*
X95351905Y-101344299D02*
X95685238Y-102344299D01*
X95685238Y-102344299D02*
X96018571Y-101344299D01*
X152229048Y-70633346D02*
X152990953Y-70633346D01*
X152610000Y-71014299D02*
X152610000Y-70252394D01*
X93305714Y-107444299D02*
X93305714Y-106444299D01*
X93305714Y-106444299D02*
X93543809Y-106444299D01*
X93543809Y-106444299D02*
X93686666Y-106491918D01*
X93686666Y-106491918D02*
X93781904Y-106587156D01*
X93781904Y-106587156D02*
X93829523Y-106682394D01*
X93829523Y-106682394D02*
X93877142Y-106872870D01*
X93877142Y-106872870D02*
X93877142Y-107015727D01*
X93877142Y-107015727D02*
X93829523Y-107206203D01*
X93829523Y-107206203D02*
X93781904Y-107301441D01*
X93781904Y-107301441D02*
X93686666Y-107396680D01*
X93686666Y-107396680D02*
X93543809Y-107444299D01*
X93543809Y-107444299D02*
X93305714Y-107444299D01*
X94829523Y-107444299D02*
X94258095Y-107444299D01*
X94543809Y-107444299D02*
X94543809Y-106444299D01*
X94543809Y-106444299D02*
X94448571Y-106587156D01*
X94448571Y-106587156D02*
X94353333Y-106682394D01*
X94353333Y-106682394D02*
X94258095Y-106730013D01*
X95448571Y-106444299D02*
X95543809Y-106444299D01*
X95543809Y-106444299D02*
X95639047Y-106491918D01*
X95639047Y-106491918D02*
X95686666Y-106539537D01*
X95686666Y-106539537D02*
X95734285Y-106634775D01*
X95734285Y-106634775D02*
X95781904Y-106825251D01*
X95781904Y-106825251D02*
X95781904Y-107063346D01*
X95781904Y-107063346D02*
X95734285Y-107253822D01*
X95734285Y-107253822D02*
X95686666Y-107349060D01*
X95686666Y-107349060D02*
X95639047Y-107396680D01*
X95639047Y-107396680D02*
X95543809Y-107444299D01*
X95543809Y-107444299D02*
X95448571Y-107444299D01*
X95448571Y-107444299D02*
X95353333Y-107396680D01*
X95353333Y-107396680D02*
X95305714Y-107349060D01*
X95305714Y-107349060D02*
X95258095Y-107253822D01*
X95258095Y-107253822D02*
X95210476Y-107063346D01*
X95210476Y-107063346D02*
X95210476Y-106825251D01*
X95210476Y-106825251D02*
X95258095Y-106634775D01*
X95258095Y-106634775D02*
X95305714Y-106539537D01*
X95305714Y-106539537D02*
X95353333Y-106491918D01*
X95353333Y-106491918D02*
X95448571Y-106444299D01*
X114480951Y-80854299D02*
X114480951Y-81568584D01*
X114480951Y-81568584D02*
X114433332Y-81711441D01*
X114433332Y-81711441D02*
X114338094Y-81806680D01*
X114338094Y-81806680D02*
X114195237Y-81854299D01*
X114195237Y-81854299D02*
X114099999Y-81854299D01*
X115433332Y-81854299D02*
X114957142Y-81854299D01*
X114957142Y-81854299D02*
X114957142Y-80854299D01*
X116338094Y-81759060D02*
X116290475Y-81806680D01*
X116290475Y-81806680D02*
X116147618Y-81854299D01*
X116147618Y-81854299D02*
X116052380Y-81854299D01*
X116052380Y-81854299D02*
X115909523Y-81806680D01*
X115909523Y-81806680D02*
X115814285Y-81711441D01*
X115814285Y-81711441D02*
X115766666Y-81616203D01*
X115766666Y-81616203D02*
X115719047Y-81425727D01*
X115719047Y-81425727D02*
X115719047Y-81282870D01*
X115719047Y-81282870D02*
X115766666Y-81092394D01*
X115766666Y-81092394D02*
X115814285Y-80997156D01*
X115814285Y-80997156D02*
X115909523Y-80901918D01*
X115909523Y-80901918D02*
X116052380Y-80854299D01*
X116052380Y-80854299D02*
X116147618Y-80854299D01*
X116147618Y-80854299D02*
X116290475Y-80901918D01*
X116290475Y-80901918D02*
X116338094Y-80949537D01*
X117052380Y-80854299D02*
X117052380Y-81568584D01*
X117052380Y-81568584D02*
X117004761Y-81711441D01*
X117004761Y-81711441D02*
X116909523Y-81806680D01*
X116909523Y-81806680D02*
X116766666Y-81854299D01*
X116766666Y-81854299D02*
X116671428Y-81854299D01*
X118004761Y-81854299D02*
X117528571Y-81854299D01*
X117528571Y-81854299D02*
X117528571Y-80854299D01*
X118909523Y-81759060D02*
X118861904Y-81806680D01*
X118861904Y-81806680D02*
X118719047Y-81854299D01*
X118719047Y-81854299D02*
X118623809Y-81854299D01*
X118623809Y-81854299D02*
X118480952Y-81806680D01*
X118480952Y-81806680D02*
X118385714Y-81711441D01*
X118385714Y-81711441D02*
X118338095Y-81616203D01*
X118338095Y-81616203D02*
X118290476Y-81425727D01*
X118290476Y-81425727D02*
X118290476Y-81282870D01*
X118290476Y-81282870D02*
X118338095Y-81092394D01*
X118338095Y-81092394D02*
X118385714Y-80997156D01*
X118385714Y-80997156D02*
X118480952Y-80901918D01*
X118480952Y-80901918D02*
X118623809Y-80854299D01*
X118623809Y-80854299D02*
X118719047Y-80854299D01*
X118719047Y-80854299D02*
X118861904Y-80901918D01*
X118861904Y-80901918D02*
X118909523Y-80949537D01*
X119623809Y-80854299D02*
X119623809Y-81568584D01*
X119623809Y-81568584D02*
X119576190Y-81711441D01*
X119576190Y-81711441D02*
X119480952Y-81806680D01*
X119480952Y-81806680D02*
X119338095Y-81854299D01*
X119338095Y-81854299D02*
X119242857Y-81854299D01*
X120576190Y-81854299D02*
X120100000Y-81854299D01*
X120100000Y-81854299D02*
X120100000Y-80854299D01*
X121480952Y-81759060D02*
X121433333Y-81806680D01*
X121433333Y-81806680D02*
X121290476Y-81854299D01*
X121290476Y-81854299D02*
X121195238Y-81854299D01*
X121195238Y-81854299D02*
X121052381Y-81806680D01*
X121052381Y-81806680D02*
X120957143Y-81711441D01*
X120957143Y-81711441D02*
X120909524Y-81616203D01*
X120909524Y-81616203D02*
X120861905Y-81425727D01*
X120861905Y-81425727D02*
X120861905Y-81282870D01*
X120861905Y-81282870D02*
X120909524Y-81092394D01*
X120909524Y-81092394D02*
X120957143Y-80997156D01*
X120957143Y-80997156D02*
X121052381Y-80901918D01*
X121052381Y-80901918D02*
X121195238Y-80854299D01*
X121195238Y-80854299D02*
X121290476Y-80854299D01*
X121290476Y-80854299D02*
X121433333Y-80901918D01*
X121433333Y-80901918D02*
X121480952Y-80949537D01*
X122195238Y-80854299D02*
X122195238Y-81568584D01*
X122195238Y-81568584D02*
X122147619Y-81711441D01*
X122147619Y-81711441D02*
X122052381Y-81806680D01*
X122052381Y-81806680D02*
X121909524Y-81854299D01*
X121909524Y-81854299D02*
X121814286Y-81854299D01*
X123147619Y-81854299D02*
X122671429Y-81854299D01*
X122671429Y-81854299D02*
X122671429Y-80854299D01*
X124052381Y-81759060D02*
X124004762Y-81806680D01*
X124004762Y-81806680D02*
X123861905Y-81854299D01*
X123861905Y-81854299D02*
X123766667Y-81854299D01*
X123766667Y-81854299D02*
X123623810Y-81806680D01*
X123623810Y-81806680D02*
X123528572Y-81711441D01*
X123528572Y-81711441D02*
X123480953Y-81616203D01*
X123480953Y-81616203D02*
X123433334Y-81425727D01*
X123433334Y-81425727D02*
X123433334Y-81282870D01*
X123433334Y-81282870D02*
X123480953Y-81092394D01*
X123480953Y-81092394D02*
X123528572Y-80997156D01*
X123528572Y-80997156D02*
X123623810Y-80901918D01*
X123623810Y-80901918D02*
X123766667Y-80854299D01*
X123766667Y-80854299D02*
X123861905Y-80854299D01*
X123861905Y-80854299D02*
X124004762Y-80901918D01*
X124004762Y-80901918D02*
X124052381Y-80949537D01*
X111730714Y-99798584D02*
X112206904Y-99798584D01*
X111635476Y-100084299D02*
X111968809Y-99084299D01*
X111968809Y-99084299D02*
X112302142Y-100084299D01*
X112540238Y-99084299D02*
X113159285Y-99084299D01*
X113159285Y-99084299D02*
X112825952Y-99465251D01*
X112825952Y-99465251D02*
X112968809Y-99465251D01*
X112968809Y-99465251D02*
X113064047Y-99512870D01*
X113064047Y-99512870D02*
X113111666Y-99560489D01*
X113111666Y-99560489D02*
X113159285Y-99655727D01*
X113159285Y-99655727D02*
X113159285Y-99893822D01*
X113159285Y-99893822D02*
X113111666Y-99989060D01*
X113111666Y-99989060D02*
X113064047Y-100036680D01*
X113064047Y-100036680D02*
X112968809Y-100084299D01*
X112968809Y-100084299D02*
X112683095Y-100084299D01*
X112683095Y-100084299D02*
X112587857Y-100036680D01*
X112587857Y-100036680D02*
X112540238Y-99989060D01*
X89622857Y-126494299D02*
X89622857Y-125494299D01*
X89622857Y-125494299D02*
X89956190Y-126208584D01*
X89956190Y-126208584D02*
X90289523Y-125494299D01*
X90289523Y-125494299D02*
X90289523Y-126494299D01*
X90956190Y-125494299D02*
X91146666Y-125494299D01*
X91146666Y-125494299D02*
X91241904Y-125541918D01*
X91241904Y-125541918D02*
X91337142Y-125637156D01*
X91337142Y-125637156D02*
X91384761Y-125827632D01*
X91384761Y-125827632D02*
X91384761Y-126160965D01*
X91384761Y-126160965D02*
X91337142Y-126351441D01*
X91337142Y-126351441D02*
X91241904Y-126446680D01*
X91241904Y-126446680D02*
X91146666Y-126494299D01*
X91146666Y-126494299D02*
X90956190Y-126494299D01*
X90956190Y-126494299D02*
X90860952Y-126446680D01*
X90860952Y-126446680D02*
X90765714Y-126351441D01*
X90765714Y-126351441D02*
X90718095Y-126160965D01*
X90718095Y-126160965D02*
X90718095Y-125827632D01*
X90718095Y-125827632D02*
X90765714Y-125637156D01*
X90765714Y-125637156D02*
X90860952Y-125541918D01*
X90860952Y-125541918D02*
X90956190Y-125494299D01*
X116730714Y-99798584D02*
X117206904Y-99798584D01*
X116635476Y-100084299D02*
X116968809Y-99084299D01*
X116968809Y-99084299D02*
X117302142Y-100084299D01*
X118159285Y-100084299D02*
X117587857Y-100084299D01*
X117873571Y-100084299D02*
X117873571Y-99084299D01*
X117873571Y-99084299D02*
X117778333Y-99227156D01*
X117778333Y-99227156D02*
X117683095Y-99322394D01*
X117683095Y-99322394D02*
X117587857Y-99370013D01*
X88894286Y-124793346D02*
X89656191Y-124793346D01*
X89275238Y-125174299D02*
X89275238Y-124412394D01*
X90608571Y-124174299D02*
X90132381Y-124174299D01*
X90132381Y-124174299D02*
X90084762Y-124650489D01*
X90084762Y-124650489D02*
X90132381Y-124602870D01*
X90132381Y-124602870D02*
X90227619Y-124555251D01*
X90227619Y-124555251D02*
X90465714Y-124555251D01*
X90465714Y-124555251D02*
X90560952Y-124602870D01*
X90560952Y-124602870D02*
X90608571Y-124650489D01*
X90608571Y-124650489D02*
X90656190Y-124745727D01*
X90656190Y-124745727D02*
X90656190Y-124983822D01*
X90656190Y-124983822D02*
X90608571Y-125079060D01*
X90608571Y-125079060D02*
X90560952Y-125126680D01*
X90560952Y-125126680D02*
X90465714Y-125174299D01*
X90465714Y-125174299D02*
X90227619Y-125174299D01*
X90227619Y-125174299D02*
X90132381Y-125126680D01*
X90132381Y-125126680D02*
X90084762Y-125079060D01*
X90941905Y-124174299D02*
X91275238Y-125174299D01*
X91275238Y-125174299D02*
X91608571Y-124174299D01*
X155798081Y-135338095D02*
X155845700Y-135242857D01*
X155845700Y-135242857D02*
X155845700Y-135100000D01*
X155845700Y-135100000D02*
X155798081Y-134957143D01*
X155798081Y-134957143D02*
X155702843Y-134861905D01*
X155702843Y-134861905D02*
X155607605Y-134814286D01*
X155607605Y-134814286D02*
X155417129Y-134766667D01*
X155417129Y-134766667D02*
X155274272Y-134766667D01*
X155274272Y-134766667D02*
X155083796Y-134814286D01*
X155083796Y-134814286D02*
X154988558Y-134861905D01*
X154988558Y-134861905D02*
X154893320Y-134957143D01*
X154893320Y-134957143D02*
X154845700Y-135100000D01*
X154845700Y-135100000D02*
X154845700Y-135195238D01*
X154845700Y-135195238D02*
X154893320Y-135338095D01*
X154893320Y-135338095D02*
X154940939Y-135385714D01*
X154940939Y-135385714D02*
X155274272Y-135385714D01*
X155274272Y-135385714D02*
X155274272Y-135195238D01*
X154845700Y-135814286D02*
X155845700Y-135814286D01*
X155845700Y-135814286D02*
X154845700Y-136385714D01*
X154845700Y-136385714D02*
X155845700Y-136385714D01*
X154845700Y-136861905D02*
X155845700Y-136861905D01*
X155845700Y-136861905D02*
X155845700Y-137100000D01*
X155845700Y-137100000D02*
X155798081Y-137242857D01*
X155798081Y-137242857D02*
X155702843Y-137338095D01*
X155702843Y-137338095D02*
X155607605Y-137385714D01*
X155607605Y-137385714D02*
X155417129Y-137433333D01*
X155417129Y-137433333D02*
X155274272Y-137433333D01*
X155274272Y-137433333D02*
X155083796Y-137385714D01*
X155083796Y-137385714D02*
X154988558Y-137338095D01*
X154988558Y-137338095D02*
X154893320Y-137242857D01*
X154893320Y-137242857D02*
X154845700Y-137100000D01*
X154845700Y-137100000D02*
X154845700Y-136861905D01*
X169000000Y-102320000D02*
X169000000Y-105120000D01*
X169000000Y-96320000D02*
X169000000Y-102320000D01*
X134400000Y-122000000D02*
X142600000Y-122000000D01*
X94123333Y-92814299D02*
X93790000Y-92338108D01*
X93551905Y-92814299D02*
X93551905Y-91814299D01*
X93551905Y-91814299D02*
X93932857Y-91814299D01*
X93932857Y-91814299D02*
X94028095Y-91861918D01*
X94028095Y-91861918D02*
X94075714Y-91909537D01*
X94075714Y-91909537D02*
X94123333Y-92004775D01*
X94123333Y-92004775D02*
X94123333Y-92147632D01*
X94123333Y-92147632D02*
X94075714Y-92242870D01*
X94075714Y-92242870D02*
X94028095Y-92290489D01*
X94028095Y-92290489D02*
X93932857Y-92338108D01*
X93932857Y-92338108D02*
X93551905Y-92338108D01*
X94980476Y-91814299D02*
X94790000Y-91814299D01*
X94790000Y-91814299D02*
X94694762Y-91861918D01*
X94694762Y-91861918D02*
X94647143Y-91909537D01*
X94647143Y-91909537D02*
X94551905Y-92052394D01*
X94551905Y-92052394D02*
X94504286Y-92242870D01*
X94504286Y-92242870D02*
X94504286Y-92623822D01*
X94504286Y-92623822D02*
X94551905Y-92719060D01*
X94551905Y-92719060D02*
X94599524Y-92766680D01*
X94599524Y-92766680D02*
X94694762Y-92814299D01*
X94694762Y-92814299D02*
X94885238Y-92814299D01*
X94885238Y-92814299D02*
X94980476Y-92766680D01*
X94980476Y-92766680D02*
X95028095Y-92719060D01*
X95028095Y-92719060D02*
X95075714Y-92623822D01*
X95075714Y-92623822D02*
X95075714Y-92385727D01*
X95075714Y-92385727D02*
X95028095Y-92290489D01*
X95028095Y-92290489D02*
X94980476Y-92242870D01*
X94980476Y-92242870D02*
X94885238Y-92195251D01*
X94885238Y-92195251D02*
X94694762Y-92195251D01*
X94694762Y-92195251D02*
X94599524Y-92242870D01*
X94599524Y-92242870D02*
X94551905Y-92290489D01*
X94551905Y-92290489D02*
X94504286Y-92385727D01*
X111604761Y-83654299D02*
X111271428Y-83178108D01*
X111033333Y-83654299D02*
X111033333Y-82654299D01*
X111033333Y-82654299D02*
X111414285Y-82654299D01*
X111414285Y-82654299D02*
X111509523Y-82701918D01*
X111509523Y-82701918D02*
X111557142Y-82749537D01*
X111557142Y-82749537D02*
X111604761Y-82844775D01*
X111604761Y-82844775D02*
X111604761Y-82987632D01*
X111604761Y-82987632D02*
X111557142Y-83082870D01*
X111557142Y-83082870D02*
X111509523Y-83130489D01*
X111509523Y-83130489D02*
X111414285Y-83178108D01*
X111414285Y-83178108D02*
X111033333Y-83178108D01*
X111890476Y-82654299D02*
X112223809Y-83654299D01*
X112223809Y-83654299D02*
X112557142Y-82654299D01*
X113414285Y-83654299D02*
X112842857Y-83654299D01*
X113128571Y-83654299D02*
X113128571Y-82654299D01*
X113128571Y-82654299D02*
X113033333Y-82797156D01*
X113033333Y-82797156D02*
X112938095Y-82892394D01*
X112938095Y-82892394D02*
X112842857Y-82940013D01*
X97928095Y-109294299D02*
X97928095Y-110103822D01*
X97928095Y-110103822D02*
X97975714Y-110199060D01*
X97975714Y-110199060D02*
X98023333Y-110246680D01*
X98023333Y-110246680D02*
X98118571Y-110294299D01*
X98118571Y-110294299D02*
X98309047Y-110294299D01*
X98309047Y-110294299D02*
X98404285Y-110246680D01*
X98404285Y-110246680D02*
X98451904Y-110199060D01*
X98451904Y-110199060D02*
X98499523Y-110103822D01*
X98499523Y-110103822D02*
X98499523Y-109294299D01*
X98928095Y-109389537D02*
X98975714Y-109341918D01*
X98975714Y-109341918D02*
X99070952Y-109294299D01*
X99070952Y-109294299D02*
X99309047Y-109294299D01*
X99309047Y-109294299D02*
X99404285Y-109341918D01*
X99404285Y-109341918D02*
X99451904Y-109389537D01*
X99451904Y-109389537D02*
X99499523Y-109484775D01*
X99499523Y-109484775D02*
X99499523Y-109580013D01*
X99499523Y-109580013D02*
X99451904Y-109722870D01*
X99451904Y-109722870D02*
X98880476Y-110294299D01*
X98880476Y-110294299D02*
X99499523Y-110294299D01*
X114073809Y-121658108D02*
X114073809Y-122134299D01*
X113740476Y-121134299D02*
X114073809Y-121658108D01*
X114073809Y-121658108D02*
X114407142Y-121134299D01*
X115264285Y-122134299D02*
X114692857Y-122134299D01*
X114978571Y-122134299D02*
X114978571Y-121134299D01*
X114978571Y-121134299D02*
X114883333Y-121277156D01*
X114883333Y-121277156D02*
X114788095Y-121372394D01*
X114788095Y-121372394D02*
X114692857Y-121420013D01*
X113453333Y-107089060D02*
X113405714Y-107136680D01*
X113405714Y-107136680D02*
X113262857Y-107184299D01*
X113262857Y-107184299D02*
X113167619Y-107184299D01*
X113167619Y-107184299D02*
X113024762Y-107136680D01*
X113024762Y-107136680D02*
X112929524Y-107041441D01*
X112929524Y-107041441D02*
X112881905Y-106946203D01*
X112881905Y-106946203D02*
X112834286Y-106755727D01*
X112834286Y-106755727D02*
X112834286Y-106612870D01*
X112834286Y-106612870D02*
X112881905Y-106422394D01*
X112881905Y-106422394D02*
X112929524Y-106327156D01*
X112929524Y-106327156D02*
X113024762Y-106231918D01*
X113024762Y-106231918D02*
X113167619Y-106184299D01*
X113167619Y-106184299D02*
X113262857Y-106184299D01*
X113262857Y-106184299D02*
X113405714Y-106231918D01*
X113405714Y-106231918D02*
X113453333Y-106279537D01*
X113786667Y-106184299D02*
X114405714Y-106184299D01*
X114405714Y-106184299D02*
X114072381Y-106565251D01*
X114072381Y-106565251D02*
X114215238Y-106565251D01*
X114215238Y-106565251D02*
X114310476Y-106612870D01*
X114310476Y-106612870D02*
X114358095Y-106660489D01*
X114358095Y-106660489D02*
X114405714Y-106755727D01*
X114405714Y-106755727D02*
X114405714Y-106993822D01*
X114405714Y-106993822D02*
X114358095Y-107089060D01*
X114358095Y-107089060D02*
X114310476Y-107136680D01*
X114310476Y-107136680D02*
X114215238Y-107184299D01*
X114215238Y-107184299D02*
X113929524Y-107184299D01*
X113929524Y-107184299D02*
X113834286Y-107136680D01*
X113834286Y-107136680D02*
X113786667Y-107089060D01*
X114443333Y-126179060D02*
X114395714Y-126226680D01*
X114395714Y-126226680D02*
X114252857Y-126274299D01*
X114252857Y-126274299D02*
X114157619Y-126274299D01*
X114157619Y-126274299D02*
X114014762Y-126226680D01*
X114014762Y-126226680D02*
X113919524Y-126131441D01*
X113919524Y-126131441D02*
X113871905Y-126036203D01*
X113871905Y-126036203D02*
X113824286Y-125845727D01*
X113824286Y-125845727D02*
X113824286Y-125702870D01*
X113824286Y-125702870D02*
X113871905Y-125512394D01*
X113871905Y-125512394D02*
X113919524Y-125417156D01*
X113919524Y-125417156D02*
X114014762Y-125321918D01*
X114014762Y-125321918D02*
X114157619Y-125274299D01*
X114157619Y-125274299D02*
X114252857Y-125274299D01*
X114252857Y-125274299D02*
X114395714Y-125321918D01*
X114395714Y-125321918D02*
X114443333Y-125369537D01*
X114776667Y-125274299D02*
X115443333Y-125274299D01*
X115443333Y-125274299D02*
X115014762Y-126274299D01*
X126903333Y-126279060D02*
X126855714Y-126326680D01*
X126855714Y-126326680D02*
X126712857Y-126374299D01*
X126712857Y-126374299D02*
X126617619Y-126374299D01*
X126617619Y-126374299D02*
X126474762Y-126326680D01*
X126474762Y-126326680D02*
X126379524Y-126231441D01*
X126379524Y-126231441D02*
X126331905Y-126136203D01*
X126331905Y-126136203D02*
X126284286Y-125945727D01*
X126284286Y-125945727D02*
X126284286Y-125802870D01*
X126284286Y-125802870D02*
X126331905Y-125612394D01*
X126331905Y-125612394D02*
X126379524Y-125517156D01*
X126379524Y-125517156D02*
X126474762Y-125421918D01*
X126474762Y-125421918D02*
X126617619Y-125374299D01*
X126617619Y-125374299D02*
X126712857Y-125374299D01*
X126712857Y-125374299D02*
X126855714Y-125421918D01*
X126855714Y-125421918D02*
X126903333Y-125469537D01*
X127474762Y-125802870D02*
X127379524Y-125755251D01*
X127379524Y-125755251D02*
X127331905Y-125707632D01*
X127331905Y-125707632D02*
X127284286Y-125612394D01*
X127284286Y-125612394D02*
X127284286Y-125564775D01*
X127284286Y-125564775D02*
X127331905Y-125469537D01*
X127331905Y-125469537D02*
X127379524Y-125421918D01*
X127379524Y-125421918D02*
X127474762Y-125374299D01*
X127474762Y-125374299D02*
X127665238Y-125374299D01*
X127665238Y-125374299D02*
X127760476Y-125421918D01*
X127760476Y-125421918D02*
X127808095Y-125469537D01*
X127808095Y-125469537D02*
X127855714Y-125564775D01*
X127855714Y-125564775D02*
X127855714Y-125612394D01*
X127855714Y-125612394D02*
X127808095Y-125707632D01*
X127808095Y-125707632D02*
X127760476Y-125755251D01*
X127760476Y-125755251D02*
X127665238Y-125802870D01*
X127665238Y-125802870D02*
X127474762Y-125802870D01*
X127474762Y-125802870D02*
X127379524Y-125850489D01*
X127379524Y-125850489D02*
X127331905Y-125898108D01*
X127331905Y-125898108D02*
X127284286Y-125993346D01*
X127284286Y-125993346D02*
X127284286Y-126183822D01*
X127284286Y-126183822D02*
X127331905Y-126279060D01*
X127331905Y-126279060D02*
X127379524Y-126326680D01*
X127379524Y-126326680D02*
X127474762Y-126374299D01*
X127474762Y-126374299D02*
X127665238Y-126374299D01*
X127665238Y-126374299D02*
X127760476Y-126326680D01*
X127760476Y-126326680D02*
X127808095Y-126279060D01*
X127808095Y-126279060D02*
X127855714Y-126183822D01*
X127855714Y-126183822D02*
X127855714Y-125993346D01*
X127855714Y-125993346D02*
X127808095Y-125898108D01*
X127808095Y-125898108D02*
X127760476Y-125850489D01*
X127760476Y-125850489D02*
X127665238Y-125802870D01*
X119083333Y-107039060D02*
X119035714Y-107086680D01*
X119035714Y-107086680D02*
X118892857Y-107134299D01*
X118892857Y-107134299D02*
X118797619Y-107134299D01*
X118797619Y-107134299D02*
X118654762Y-107086680D01*
X118654762Y-107086680D02*
X118559524Y-106991441D01*
X118559524Y-106991441D02*
X118511905Y-106896203D01*
X118511905Y-106896203D02*
X118464286Y-106705727D01*
X118464286Y-106705727D02*
X118464286Y-106562870D01*
X118464286Y-106562870D02*
X118511905Y-106372394D01*
X118511905Y-106372394D02*
X118559524Y-106277156D01*
X118559524Y-106277156D02*
X118654762Y-106181918D01*
X118654762Y-106181918D02*
X118797619Y-106134299D01*
X118797619Y-106134299D02*
X118892857Y-106134299D01*
X118892857Y-106134299D02*
X119035714Y-106181918D01*
X119035714Y-106181918D02*
X119083333Y-106229537D01*
X119940476Y-106134299D02*
X119750000Y-106134299D01*
X119750000Y-106134299D02*
X119654762Y-106181918D01*
X119654762Y-106181918D02*
X119607143Y-106229537D01*
X119607143Y-106229537D02*
X119511905Y-106372394D01*
X119511905Y-106372394D02*
X119464286Y-106562870D01*
X119464286Y-106562870D02*
X119464286Y-106943822D01*
X119464286Y-106943822D02*
X119511905Y-107039060D01*
X119511905Y-107039060D02*
X119559524Y-107086680D01*
X119559524Y-107086680D02*
X119654762Y-107134299D01*
X119654762Y-107134299D02*
X119845238Y-107134299D01*
X119845238Y-107134299D02*
X119940476Y-107086680D01*
X119940476Y-107086680D02*
X119988095Y-107039060D01*
X119988095Y-107039060D02*
X120035714Y-106943822D01*
X120035714Y-106943822D02*
X120035714Y-106705727D01*
X120035714Y-106705727D02*
X119988095Y-106610489D01*
X119988095Y-106610489D02*
X119940476Y-106562870D01*
X119940476Y-106562870D02*
X119845238Y-106515251D01*
X119845238Y-106515251D02*
X119654762Y-106515251D01*
X119654762Y-106515251D02*
X119559524Y-106562870D01*
X119559524Y-106562870D02*
X119511905Y-106610489D01*
X119511905Y-106610489D02*
X119464286Y-106705727D01*
X153743333Y-83634299D02*
X153410000Y-83158108D01*
X153171905Y-83634299D02*
X153171905Y-82634299D01*
X153171905Y-82634299D02*
X153552857Y-82634299D01*
X153552857Y-82634299D02*
X153648095Y-82681918D01*
X153648095Y-82681918D02*
X153695714Y-82729537D01*
X153695714Y-82729537D02*
X153743333Y-82824775D01*
X153743333Y-82824775D02*
X153743333Y-82967632D01*
X153743333Y-82967632D02*
X153695714Y-83062870D01*
X153695714Y-83062870D02*
X153648095Y-83110489D01*
X153648095Y-83110489D02*
X153552857Y-83158108D01*
X153552857Y-83158108D02*
X153171905Y-83158108D01*
X154219524Y-83634299D02*
X154410000Y-83634299D01*
X154410000Y-83634299D02*
X154505238Y-83586680D01*
X154505238Y-83586680D02*
X154552857Y-83539060D01*
X154552857Y-83539060D02*
X154648095Y-83396203D01*
X154648095Y-83396203D02*
X154695714Y-83205727D01*
X154695714Y-83205727D02*
X154695714Y-82824775D01*
X154695714Y-82824775D02*
X154648095Y-82729537D01*
X154648095Y-82729537D02*
X154600476Y-82681918D01*
X154600476Y-82681918D02*
X154505238Y-82634299D01*
X154505238Y-82634299D02*
X154314762Y-82634299D01*
X154314762Y-82634299D02*
X154219524Y-82681918D01*
X154219524Y-82681918D02*
X154171905Y-82729537D01*
X154171905Y-82729537D02*
X154124286Y-82824775D01*
X154124286Y-82824775D02*
X154124286Y-83062870D01*
X154124286Y-83062870D02*
X154171905Y-83158108D01*
X154171905Y-83158108D02*
X154219524Y-83205727D01*
X154219524Y-83205727D02*
X154314762Y-83253346D01*
X154314762Y-83253346D02*
X154505238Y-83253346D01*
X154505238Y-83253346D02*
X154600476Y-83205727D01*
X154600476Y-83205727D02*
X154648095Y-83158108D01*
X154648095Y-83158108D02*
X154695714Y-83062870D01*
X93936666Y-87874299D02*
X93936666Y-88588584D01*
X93936666Y-88588584D02*
X93889047Y-88731441D01*
X93889047Y-88731441D02*
X93793809Y-88826680D01*
X93793809Y-88826680D02*
X93650952Y-88874299D01*
X93650952Y-88874299D02*
X93555714Y-88874299D01*
X94317619Y-87874299D02*
X94936666Y-87874299D01*
X94936666Y-87874299D02*
X94603333Y-88255251D01*
X94603333Y-88255251D02*
X94746190Y-88255251D01*
X94746190Y-88255251D02*
X94841428Y-88302870D01*
X94841428Y-88302870D02*
X94889047Y-88350489D01*
X94889047Y-88350489D02*
X94936666Y-88445727D01*
X94936666Y-88445727D02*
X94936666Y-88683822D01*
X94936666Y-88683822D02*
X94889047Y-88779060D01*
X94889047Y-88779060D02*
X94841428Y-88826680D01*
X94841428Y-88826680D02*
X94746190Y-88874299D01*
X94746190Y-88874299D02*
X94460476Y-88874299D01*
X94460476Y-88874299D02*
X94365238Y-88826680D01*
X94365238Y-88826680D02*
X94317619Y-88779060D01*
X96043333Y-114989060D02*
X95995714Y-115036680D01*
X95995714Y-115036680D02*
X95852857Y-115084299D01*
X95852857Y-115084299D02*
X95757619Y-115084299D01*
X95757619Y-115084299D02*
X95614762Y-115036680D01*
X95614762Y-115036680D02*
X95519524Y-114941441D01*
X95519524Y-114941441D02*
X95471905Y-114846203D01*
X95471905Y-114846203D02*
X95424286Y-114655727D01*
X95424286Y-114655727D02*
X95424286Y-114512870D01*
X95424286Y-114512870D02*
X95471905Y-114322394D01*
X95471905Y-114322394D02*
X95519524Y-114227156D01*
X95519524Y-114227156D02*
X95614762Y-114131918D01*
X95614762Y-114131918D02*
X95757619Y-114084299D01*
X95757619Y-114084299D02*
X95852857Y-114084299D01*
X95852857Y-114084299D02*
X95995714Y-114131918D01*
X95995714Y-114131918D02*
X96043333Y-114179537D01*
X96900476Y-114417632D02*
X96900476Y-115084299D01*
X96662381Y-114036680D02*
X96424286Y-114750965D01*
X96424286Y-114750965D02*
X97043333Y-114750965D01*
X104396667Y-124656680D02*
X104539524Y-124704299D01*
X104539524Y-124704299D02*
X104777619Y-124704299D01*
X104777619Y-124704299D02*
X104872857Y-124656680D01*
X104872857Y-124656680D02*
X104920476Y-124609060D01*
X104920476Y-124609060D02*
X104968095Y-124513822D01*
X104968095Y-124513822D02*
X104968095Y-124418584D01*
X104968095Y-124418584D02*
X104920476Y-124323346D01*
X104920476Y-124323346D02*
X104872857Y-124275727D01*
X104872857Y-124275727D02*
X104777619Y-124228108D01*
X104777619Y-124228108D02*
X104587143Y-124180489D01*
X104587143Y-124180489D02*
X104491905Y-124132870D01*
X104491905Y-124132870D02*
X104444286Y-124085251D01*
X104444286Y-124085251D02*
X104396667Y-123990013D01*
X104396667Y-123990013D02*
X104396667Y-123894775D01*
X104396667Y-123894775D02*
X104444286Y-123799537D01*
X104444286Y-123799537D02*
X104491905Y-123751918D01*
X104491905Y-123751918D02*
X104587143Y-123704299D01*
X104587143Y-123704299D02*
X104825238Y-123704299D01*
X104825238Y-123704299D02*
X104968095Y-123751918D01*
X105301429Y-123704299D02*
X105539524Y-124704299D01*
X105539524Y-124704299D02*
X105730000Y-123990013D01*
X105730000Y-123990013D02*
X105920476Y-124704299D01*
X105920476Y-124704299D02*
X106158572Y-123704299D01*
X107063333Y-124704299D02*
X106491905Y-124704299D01*
X106777619Y-124704299D02*
X106777619Y-123704299D01*
X106777619Y-123704299D02*
X106682381Y-123847156D01*
X106682381Y-123847156D02*
X106587143Y-123942394D01*
X106587143Y-123942394D02*
X106491905Y-123990013D01*
X146813333Y-125084299D02*
X146480000Y-124608108D01*
X146241905Y-125084299D02*
X146241905Y-124084299D01*
X146241905Y-124084299D02*
X146622857Y-124084299D01*
X146622857Y-124084299D02*
X146718095Y-124131918D01*
X146718095Y-124131918D02*
X146765714Y-124179537D01*
X146765714Y-124179537D02*
X146813333Y-124274775D01*
X146813333Y-124274775D02*
X146813333Y-124417632D01*
X146813333Y-124417632D02*
X146765714Y-124512870D01*
X146765714Y-124512870D02*
X146718095Y-124560489D01*
X146718095Y-124560489D02*
X146622857Y-124608108D01*
X146622857Y-124608108D02*
X146241905Y-124608108D01*
X147718095Y-124084299D02*
X147241905Y-124084299D01*
X147241905Y-124084299D02*
X147194286Y-124560489D01*
X147194286Y-124560489D02*
X147241905Y-124512870D01*
X147241905Y-124512870D02*
X147337143Y-124465251D01*
X147337143Y-124465251D02*
X147575238Y-124465251D01*
X147575238Y-124465251D02*
X147670476Y-124512870D01*
X147670476Y-124512870D02*
X147718095Y-124560489D01*
X147718095Y-124560489D02*
X147765714Y-124655727D01*
X147765714Y-124655727D02*
X147765714Y-124893822D01*
X147765714Y-124893822D02*
X147718095Y-124989060D01*
X147718095Y-124989060D02*
X147670476Y-125036680D01*
X147670476Y-125036680D02*
X147575238Y-125084299D01*
X147575238Y-125084299D02*
X147337143Y-125084299D01*
X147337143Y-125084299D02*
X147241905Y-125036680D01*
X147241905Y-125036680D02*
X147194286Y-124989060D01*
X102466666Y-135154299D02*
X102466666Y-135868584D01*
X102466666Y-135868584D02*
X102419047Y-136011441D01*
X102419047Y-136011441D02*
X102323809Y-136106680D01*
X102323809Y-136106680D02*
X102180952Y-136154299D01*
X102180952Y-136154299D02*
X102085714Y-136154299D01*
X103085714Y-135582870D02*
X102990476Y-135535251D01*
X102990476Y-135535251D02*
X102942857Y-135487632D01*
X102942857Y-135487632D02*
X102895238Y-135392394D01*
X102895238Y-135392394D02*
X102895238Y-135344775D01*
X102895238Y-135344775D02*
X102942857Y-135249537D01*
X102942857Y-135249537D02*
X102990476Y-135201918D01*
X102990476Y-135201918D02*
X103085714Y-135154299D01*
X103085714Y-135154299D02*
X103276190Y-135154299D01*
X103276190Y-135154299D02*
X103371428Y-135201918D01*
X103371428Y-135201918D02*
X103419047Y-135249537D01*
X103419047Y-135249537D02*
X103466666Y-135344775D01*
X103466666Y-135344775D02*
X103466666Y-135392394D01*
X103466666Y-135392394D02*
X103419047Y-135487632D01*
X103419047Y-135487632D02*
X103371428Y-135535251D01*
X103371428Y-135535251D02*
X103276190Y-135582870D01*
X103276190Y-135582870D02*
X103085714Y-135582870D01*
X103085714Y-135582870D02*
X102990476Y-135630489D01*
X102990476Y-135630489D02*
X102942857Y-135678108D01*
X102942857Y-135678108D02*
X102895238Y-135773346D01*
X102895238Y-135773346D02*
X102895238Y-135963822D01*
X102895238Y-135963822D02*
X102942857Y-136059060D01*
X102942857Y-136059060D02*
X102990476Y-136106680D01*
X102990476Y-136106680D02*
X103085714Y-136154299D01*
X103085714Y-136154299D02*
X103276190Y-136154299D01*
X103276190Y-136154299D02*
X103371428Y-136106680D01*
X103371428Y-136106680D02*
X103419047Y-136059060D01*
X103419047Y-136059060D02*
X103466666Y-135963822D01*
X103466666Y-135963822D02*
X103466666Y-135773346D01*
X103466666Y-135773346D02*
X103419047Y-135678108D01*
X103419047Y-135678108D02*
X103371428Y-135630489D01*
X103371428Y-135630489D02*
X103276190Y-135582870D01*
X146361905Y-76754299D02*
X146361905Y-75754299D01*
X146361905Y-75754299D02*
X146600000Y-75754299D01*
X146600000Y-75754299D02*
X146742857Y-75801918D01*
X146742857Y-75801918D02*
X146838095Y-75897156D01*
X146838095Y-75897156D02*
X146885714Y-75992394D01*
X146885714Y-75992394D02*
X146933333Y-76182870D01*
X146933333Y-76182870D02*
X146933333Y-76325727D01*
X146933333Y-76325727D02*
X146885714Y-76516203D01*
X146885714Y-76516203D02*
X146838095Y-76611441D01*
X146838095Y-76611441D02*
X146742857Y-76706680D01*
X146742857Y-76706680D02*
X146600000Y-76754299D01*
X146600000Y-76754299D02*
X146361905Y-76754299D01*
X147790476Y-76087632D02*
X147790476Y-76754299D01*
X147552381Y-75706680D02*
X147314286Y-76420965D01*
X147314286Y-76420965D02*
X147933333Y-76420965D01*
X146793333Y-128954299D02*
X146460000Y-128478108D01*
X146221905Y-128954299D02*
X146221905Y-127954299D01*
X146221905Y-127954299D02*
X146602857Y-127954299D01*
X146602857Y-127954299D02*
X146698095Y-128001918D01*
X146698095Y-128001918D02*
X146745714Y-128049537D01*
X146745714Y-128049537D02*
X146793333Y-128144775D01*
X146793333Y-128144775D02*
X146793333Y-128287632D01*
X146793333Y-128287632D02*
X146745714Y-128382870D01*
X146745714Y-128382870D02*
X146698095Y-128430489D01*
X146698095Y-128430489D02*
X146602857Y-128478108D01*
X146602857Y-128478108D02*
X146221905Y-128478108D01*
X147364762Y-128382870D02*
X147269524Y-128335251D01*
X147269524Y-128335251D02*
X147221905Y-128287632D01*
X147221905Y-128287632D02*
X147174286Y-128192394D01*
X147174286Y-128192394D02*
X147174286Y-128144775D01*
X147174286Y-128144775D02*
X147221905Y-128049537D01*
X147221905Y-128049537D02*
X147269524Y-128001918D01*
X147269524Y-128001918D02*
X147364762Y-127954299D01*
X147364762Y-127954299D02*
X147555238Y-127954299D01*
X147555238Y-127954299D02*
X147650476Y-128001918D01*
X147650476Y-128001918D02*
X147698095Y-128049537D01*
X147698095Y-128049537D02*
X147745714Y-128144775D01*
X147745714Y-128144775D02*
X147745714Y-128192394D01*
X147745714Y-128192394D02*
X147698095Y-128287632D01*
X147698095Y-128287632D02*
X147650476Y-128335251D01*
X147650476Y-128335251D02*
X147555238Y-128382870D01*
X147555238Y-128382870D02*
X147364762Y-128382870D01*
X147364762Y-128382870D02*
X147269524Y-128430489D01*
X147269524Y-128430489D02*
X147221905Y-128478108D01*
X147221905Y-128478108D02*
X147174286Y-128573346D01*
X147174286Y-128573346D02*
X147174286Y-128763822D01*
X147174286Y-128763822D02*
X147221905Y-128859060D01*
X147221905Y-128859060D02*
X147269524Y-128906680D01*
X147269524Y-128906680D02*
X147364762Y-128954299D01*
X147364762Y-128954299D02*
X147555238Y-128954299D01*
X147555238Y-128954299D02*
X147650476Y-128906680D01*
X147650476Y-128906680D02*
X147698095Y-128859060D01*
X147698095Y-128859060D02*
X147745714Y-128763822D01*
X147745714Y-128763822D02*
X147745714Y-128573346D01*
X147745714Y-128573346D02*
X147698095Y-128478108D01*
X147698095Y-128478108D02*
X147650476Y-128430489D01*
X147650476Y-128430489D02*
X147555238Y-128382870D01*
%TO.C,R6*%
X93160000Y-97080000D02*
X93160000Y-87840000D01*
X93160000Y-87840000D02*
X89720000Y-87840000D01*
X91440000Y-97770000D02*
X91440000Y-97080000D01*
X91440000Y-87150000D02*
X91440000Y-87840000D01*
X89720000Y-97080000D02*
X93160000Y-97080000D01*
X89720000Y-87840000D02*
X89720000Y-97080000D01*
%TO.C,RV1*%
X99500000Y-83300000D02*
X109500000Y-83300000D01*
X104100000Y-78400000D02*
X105300000Y-78400000D01*
X104900000Y-78200000D02*
X105300000Y-78400000D01*
X105300000Y-78400000D02*
X104900000Y-78600000D01*
X109500000Y-73500000D02*
X99500000Y-73500000D01*
X106500000Y-78400000D02*
G75*
G02*
X102500000Y-78400000I-2000000J0D01*
G01*
X102500000Y-78400000D02*
G75*
G02*
X106500000Y-78400000I2000000J0D01*
G01*
%TO.C,U2*%
X98110000Y-112740000D02*
X98110000Y-114390000D01*
X98110000Y-116390000D02*
X98110000Y-118040000D01*
X98110000Y-118040000D02*
X133790000Y-118040000D01*
X133790000Y-112740000D02*
X98110000Y-112740000D01*
X133790000Y-118040000D02*
X133790000Y-112740000D01*
X98110000Y-114390000D02*
G75*
G02*
X98110000Y-116390000I0J-1000000D01*
G01*
%TO.C,Y1*%
X124190000Y-120950000D02*
X117790000Y-120950000D01*
X124190000Y-125950000D02*
X117790000Y-125950000D01*
X117790000Y-125950000D02*
G75*
G02*
X117790000Y-120950000I0J2500000D01*
G01*
X124189999Y-120950001D02*
G75*
G02*
X124190001Y-125949999I10001J-2499999D01*
G01*
%TO.C,C3*%
X112980000Y-110270000D02*
X112980000Y-107530000D01*
X118220000Y-107530000D02*
X112980000Y-107530000D01*
X118220000Y-110270000D02*
X112980000Y-110270000D01*
X118220000Y-110270000D02*
X118220000Y-107530000D01*
%TO.C,C7*%
X114690000Y-126630000D02*
X114690000Y-129370000D01*
X114690000Y-126630000D02*
X119930000Y-126630000D01*
X114690000Y-129370000D02*
X119930000Y-129370000D01*
X119930000Y-126630000D02*
X119930000Y-129370000D01*
%TO.C,C8*%
X122070000Y-129370000D02*
X122070000Y-126630000D01*
X127310000Y-126630000D02*
X122070000Y-126630000D01*
X127310000Y-129370000D02*
X122070000Y-129370000D01*
X127310000Y-129370000D02*
X127310000Y-126630000D01*
%TO.C,C6*%
X118580000Y-107530000D02*
X118580000Y-110270000D01*
X118580000Y-107530000D02*
X123820000Y-107530000D01*
X118580000Y-110270000D02*
X123820000Y-110270000D01*
X123820000Y-107530000D02*
X123820000Y-110270000D01*
%TO.C,R9*%
X151130000Y-92500000D02*
X151130000Y-91810000D01*
X149410000Y-91810000D02*
X152850000Y-91810000D01*
X152850000Y-91810000D02*
X152850000Y-82570000D01*
X149410000Y-82570000D02*
X149410000Y-91810000D01*
X152850000Y-82570000D02*
X149410000Y-82570000D01*
X151130000Y-81880000D02*
X151130000Y-82570000D01*
%TO.C,JP2*%
X113860000Y-91270000D02*
X115860000Y-91270000D01*
X113860000Y-94070000D02*
X113860000Y-91270000D01*
X115860000Y-91270000D02*
X115860000Y-94070000D01*
X115860000Y-94070000D02*
X113860000Y-94070000D01*
%TO.C,J3*%
X95670000Y-87170000D02*
X97000000Y-87170000D01*
X95670000Y-88500000D02*
X95670000Y-87170000D01*
X98270000Y-87170000D02*
X136430000Y-87170000D01*
X98270000Y-89830000D02*
X98270000Y-87170000D01*
X98270000Y-89830000D02*
X136430000Y-89830000D01*
X136430000Y-89830000D02*
X136430000Y-87170000D01*
%TO.C,JP3*%
X116400000Y-91270000D02*
X118400000Y-91270000D01*
X116400000Y-94070000D02*
X116400000Y-91270000D01*
X118400000Y-91270000D02*
X118400000Y-94070000D01*
X118400000Y-94070000D02*
X116400000Y-94070000D01*
%TO.C,JP4*%
X118930000Y-91270000D02*
X120930000Y-91270000D01*
X118930000Y-94070000D02*
X118930000Y-91270000D01*
X120930000Y-91270000D02*
X120930000Y-94070000D01*
X120930000Y-94070000D02*
X118930000Y-94070000D01*
%TO.C,JP1*%
X111310000Y-91270000D02*
X113310000Y-91270000D01*
X111310000Y-94070000D02*
X111310000Y-91270000D01*
X113310000Y-91270000D02*
X113310000Y-94070000D01*
X113310000Y-94070000D02*
X111310000Y-94070000D01*
%TO.C,C4*%
X94830000Y-115380000D02*
X97570000Y-115380000D01*
X94830000Y-120620000D02*
X94830000Y-115380000D01*
X94830000Y-120620000D02*
X97570000Y-120620000D01*
X97570000Y-120620000D02*
X97570000Y-115380000D01*
%TO.C,SW1*%
X95950000Y-123840000D02*
X95950000Y-125340000D01*
X97200000Y-127840000D02*
X101700000Y-127840000D01*
X101700000Y-121340000D02*
X97200000Y-121340000D01*
X102950000Y-125340000D02*
X102950000Y-123840000D01*
%TO.C,R5*%
X132990000Y-124600000D02*
X133680000Y-124600000D01*
X133680000Y-122880000D02*
X133680000Y-126320000D01*
X133680000Y-126320000D02*
X142920000Y-126320000D01*
X142920000Y-122880000D02*
X133680000Y-122880000D01*
X142920000Y-126320000D02*
X142920000Y-122880000D01*
X143610000Y-124600000D02*
X142920000Y-124600000D01*
%TO.C,J8*%
X104210000Y-139500000D02*
X104210000Y-131280000D01*
X105495000Y-136459000D02*
X105741000Y-136213000D01*
X105520000Y-139440000D02*
X105520000Y-138440000D01*
X105700000Y-136665000D02*
X105911000Y-136454000D01*
X107640000Y-134315000D02*
X107839000Y-134116000D01*
X107798000Y-134567000D02*
X108044000Y-134321000D01*
X108020000Y-138440000D02*
X105520000Y-138440000D01*
X108020000Y-139440000D02*
X105520000Y-139440000D01*
X108020000Y-139440000D02*
X108020000Y-138440000D01*
X110495000Y-136459000D02*
X110741000Y-136213000D01*
X110520000Y-139440000D02*
X110520000Y-138440000D01*
X110700000Y-136665000D02*
X110911000Y-136454000D01*
X112640000Y-134315000D02*
X112839000Y-134116000D01*
X112798000Y-134567000D02*
X113044000Y-134321000D01*
X113020000Y-138440000D02*
X110520000Y-138440000D01*
X113020000Y-139440000D02*
X110520000Y-139440000D01*
X113020000Y-139440000D02*
X113020000Y-138440000D01*
X115495000Y-136459000D02*
X115741000Y-136213000D01*
X115520000Y-139440000D02*
X115520000Y-138440000D01*
X115700000Y-136665000D02*
X115911000Y-136454000D01*
X117640000Y-134315000D02*
X117839000Y-134116000D01*
X117798000Y-134567000D02*
X118044000Y-134321000D01*
X118020000Y-138440000D02*
X115520000Y-138440000D01*
X118020000Y-139440000D02*
X115520000Y-139440000D01*
X118020000Y-139440000D02*
X118020000Y-138440000D01*
X120495000Y-136459000D02*
X120741000Y-136213000D01*
X120520000Y-139440000D02*
X120520000Y-138440000D01*
X120700000Y-136665000D02*
X120911000Y-136454000D01*
X122640000Y-134315000D02*
X122839000Y-134116000D01*
X122798000Y-134567000D02*
X123044000Y-134321000D01*
X123020000Y-138440000D02*
X120520000Y-138440000D01*
X123020000Y-139440000D02*
X120520000Y-139440000D01*
X123020000Y-139440000D02*
X123020000Y-138440000D01*
X125495000Y-136459000D02*
X125741000Y-136213000D01*
X125520000Y-139440000D02*
X125520000Y-138440000D01*
X125700000Y-136665000D02*
X125911000Y-136454000D01*
X127640000Y-134315000D02*
X127839000Y-134116000D01*
X127798000Y-134567000D02*
X128044000Y-134321000D01*
X128020000Y-138440000D02*
X125520000Y-138440000D01*
X128020000Y-139440000D02*
X125520000Y-139440000D01*
X128020000Y-139440000D02*
X128020000Y-138440000D01*
X130495000Y-136459000D02*
X130741000Y-136213000D01*
X130520000Y-139440000D02*
X130520000Y-138440000D01*
X130700000Y-136665000D02*
X130911000Y-136454000D01*
X132640000Y-134315000D02*
X132839000Y-134116000D01*
X132798000Y-134567000D02*
X133044000Y-134321000D01*
X133020000Y-138440000D02*
X130520000Y-138440000D01*
X133020000Y-139440000D02*
X130520000Y-139440000D01*
X133020000Y-139440000D02*
X133020000Y-138440000D01*
X135495000Y-136459000D02*
X135741000Y-136213000D01*
X135520000Y-139440000D02*
X135520000Y-138440000D01*
X135700000Y-136665000D02*
X135911000Y-136454000D01*
X137640000Y-134315000D02*
X137839000Y-134116000D01*
X137798000Y-134567000D02*
X138044000Y-134321000D01*
X138020000Y-138440000D02*
X135520000Y-138440000D01*
X138020000Y-139440000D02*
X135520000Y-139440000D01*
X138020000Y-139440000D02*
X138020000Y-138440000D01*
X140520000Y-139440000D02*
X140520000Y-138440000D01*
X143020000Y-138440000D02*
X140520000Y-138440000D01*
X143020000Y-139440000D02*
X140520000Y-139440000D01*
X143020000Y-139440000D02*
X143020000Y-138440000D01*
X144330000Y-131280000D02*
X104210000Y-131280000D01*
X144330000Y-131940000D02*
X104210000Y-131940000D01*
X144330000Y-132540000D02*
X104210000Y-132540000D01*
X144330000Y-137440000D02*
X104210000Y-137440000D01*
X144330000Y-139500000D02*
X104210000Y-139500000D01*
X144330000Y-139500000D02*
X144330000Y-131280000D01*
X144570000Y-131040000D02*
X143970000Y-131040000D01*
X144570000Y-131880000D02*
X144570000Y-131040000D01*
X140482922Y-136469908D02*
G75*
G02*
X140483000Y-134310000I1287079J1079908D01*
G01*
X140690117Y-134103045D02*
G75*
G02*
X141770000Y-133710000I1079881J-1286949D01*
G01*
X141741493Y-133709489D02*
G75*
G02*
X142851000Y-134103000I28507J-1680511D01*
G01*
X142849908Y-136677078D02*
G75*
G02*
X140690000Y-136677000I-1079908J1287079D01*
G01*
X143058062Y-134310266D02*
G75*
G02*
X143057000Y-136471000I-1288062J-1079734D01*
G01*
X108450000Y-135390000D02*
G75*
G02*
X105090000Y-135390000I-1680000J0D01*
G01*
X105090000Y-135390000D02*
G75*
G02*
X108450000Y-135390000I1680000J0D01*
G01*
X113450000Y-135390000D02*
G75*
G02*
X110090000Y-135390000I-1680000J0D01*
G01*
X110090000Y-135390000D02*
G75*
G02*
X113450000Y-135390000I1680000J0D01*
G01*
X118450000Y-135390000D02*
G75*
G02*
X115090000Y-135390000I-1680000J0D01*
G01*
X115090000Y-135390000D02*
G75*
G02*
X118450000Y-135390000I1680000J0D01*
G01*
X123450000Y-135390000D02*
G75*
G02*
X120090000Y-135390000I-1680000J0D01*
G01*
X120090000Y-135390000D02*
G75*
G02*
X123450000Y-135390000I1680000J0D01*
G01*
X128450000Y-135390000D02*
G75*
G02*
X125090000Y-135390000I-1680000J0D01*
G01*
X125090000Y-135390000D02*
G75*
G02*
X128450000Y-135390000I1680000J0D01*
G01*
X133450000Y-135390000D02*
G75*
G02*
X130090000Y-135390000I-1680000J0D01*
G01*
X130090000Y-135390000D02*
G75*
G02*
X133450000Y-135390000I1680000J0D01*
G01*
X138450000Y-135390000D02*
G75*
G02*
X135090000Y-135390000I-1680000J0D01*
G01*
X135090000Y-135390000D02*
G75*
G02*
X138450000Y-135390000I1680000J0D01*
G01*
%TO.C,D4*%
X147310000Y-71855000D02*
X147310000Y-74945000D01*
X147310000Y-71855170D02*
G75*
G02*
X152860000Y-73400462I2560000J-1544830D01*
G01*
X152860000Y-73399538D02*
G75*
G02*
X147310000Y-74944830I-2990000J-462D01*
G01*
%TO.C,R8*%
X143610000Y-128400000D02*
X142920000Y-128400000D01*
X142920000Y-130120000D02*
X142920000Y-126680000D01*
X142920000Y-126680000D02*
X133680000Y-126680000D01*
X133680000Y-130120000D02*
X142920000Y-130120000D01*
X133680000Y-126680000D02*
X133680000Y-130120000D01*
X132990000Y-128400000D02*
X133680000Y-128400000D01*
%TD*%
M02*
