%TF.GenerationSoftware,KiCad,Pcbnew,5.1.7*%
%TF.CreationDate,2020-10-18T18:31:42+02:00*%
%TF.ProjectId,livello_serbatoio_definitiva,6c697665-6c6c-46f5-9f73-65726261746f,rev?*%
%TF.SameCoordinates,Original*%
%TF.FileFunction,Copper,L1,Top*%
%TF.FilePolarity,Positive*%
%FSLAX46Y46*%
G04 Gerber Fmt 4.6, Leading zero omitted, Abs format (unit mm)*
G04 Created by KiCad (PCBNEW 5.1.7) date 2020-10-18 18:31:42*
%MOMM*%
%LPD*%
G01*
G04 APERTURE LIST*
%TA.AperFunction,ComponentPad*%
%ADD10C,1.000000*%
%TD*%
%TA.AperFunction,ComponentPad*%
%ADD11O,1.600000X1.600000*%
%TD*%
%TA.AperFunction,ComponentPad*%
%ADD12R,1.600000X1.600000*%
%TD*%
%TA.AperFunction,ComponentPad*%
%ADD13C,1.600000*%
%TD*%
%TA.AperFunction,ComponentPad*%
%ADD14C,0.800000*%
%TD*%
%TA.AperFunction,ComponentPad*%
%ADD15C,6.000000*%
%TD*%
%TA.AperFunction,ComponentPad*%
%ADD16C,1.800000*%
%TD*%
%TA.AperFunction,ComponentPad*%
%ADD17R,1.800000X1.800000*%
%TD*%
%TA.AperFunction,ComponentPad*%
%ADD18O,1.800000X1.200000*%
%TD*%
%TA.AperFunction,ComponentPad*%
%ADD19C,1.440000*%
%TD*%
%TA.AperFunction,ComponentPad*%
%ADD20C,2.000000*%
%TD*%
%TA.AperFunction,ComponentPad*%
%ADD21O,1.700000X1.700000*%
%TD*%
%TA.AperFunction,ComponentPad*%
%ADD22R,1.700000X1.700000*%
%TD*%
%TA.AperFunction,ComponentPad*%
%ADD23C,1.200000*%
%TD*%
%TA.AperFunction,ComponentPad*%
%ADD24C,1.700000*%
%TD*%
%TA.AperFunction,ComponentPad*%
%ADD25C,3.500000*%
%TD*%
%TA.AperFunction,ViaPad*%
%ADD26C,0.800000*%
%TD*%
%TA.AperFunction,ViaPad*%
%ADD27C,1.000000*%
%TD*%
%TA.AperFunction,Conductor*%
%ADD28C,0.254000*%
%TD*%
%TA.AperFunction,Conductor*%
%ADD29C,0.508000*%
%TD*%
G04 APERTURE END LIST*
D10*
%TO.P,Y1,1*%
%TO.N,/X2*%
X135300000Y-133620000D03*
%TO.P,Y1,2*%
%TO.N,/X1*%
X130420000Y-133620000D03*
%TD*%
D11*
%TO.P,U2,28*%
%TO.N,Net-(U2-Pad28)*%
X111300000Y-118780000D03*
%TO.P,U2,14*%
%TO.N,D8*%
X144320000Y-126400000D03*
%TO.P,U2,27*%
%TO.N,Net-(U2-Pad27)*%
X113840000Y-118780000D03*
%TO.P,U2,13*%
%TO.N,D7*%
X141780000Y-126400000D03*
%TO.P,U2,26*%
%TO.N,Net-(U2-Pad26)*%
X116380000Y-118780000D03*
%TO.P,U2,12*%
%TO.N,D6*%
X139240000Y-126400000D03*
%TO.P,U2,25*%
%TO.N,Net-(U2-Pad25)*%
X118920000Y-118780000D03*
%TO.P,U2,11*%
%TO.N,D5*%
X136700000Y-126400000D03*
%TO.P,U2,24*%
%TO.N,Net-(U2-Pad24)*%
X121460000Y-118780000D03*
%TO.P,U2,10*%
%TO.N,/X2*%
X134160000Y-126400000D03*
%TO.P,U2,23*%
%TO.N,Net-(U2-Pad23)*%
X124000000Y-118780000D03*
%TO.P,U2,9*%
%TO.N,/X1*%
X131620000Y-126400000D03*
%TO.P,U2,22*%
%TO.N,BLK*%
X126540000Y-118780000D03*
%TO.P,U2,8*%
X129080000Y-126400000D03*
%TO.P,U2,21*%
%TO.N,Net-(C3-Pad1)*%
X129080000Y-118780000D03*
%TO.P,U2,7*%
%TO.N,VDD*%
X126540000Y-126400000D03*
%TO.P,U2,20*%
X131620000Y-118780000D03*
%TO.P,U2,6*%
%TO.N,D4*%
X124000000Y-126400000D03*
%TO.P,U2,19*%
%TO.N,D13*%
X134160000Y-118780000D03*
%TO.P,U2,5*%
%TO.N,D3*%
X121460000Y-126400000D03*
%TO.P,U2,18*%
%TO.N,D12*%
X136700000Y-118780000D03*
%TO.P,U2,4*%
%TO.N,D2*%
X118920000Y-126400000D03*
%TO.P,U2,17*%
%TO.N,D11*%
X139240000Y-118780000D03*
%TO.P,U2,3*%
%TO.N,RX*%
X116380000Y-126400000D03*
%TO.P,U2,16*%
%TO.N,Net-(U2-Pad16)*%
X141780000Y-118780000D03*
%TO.P,U2,2*%
%TO.N,TX*%
X113840000Y-126400000D03*
%TO.P,U2,15*%
%TO.N,BLA*%
X144320000Y-118780000D03*
D12*
%TO.P,U2,1*%
%TO.N,ICSP_RST*%
X111300000Y-126400000D03*
%TD*%
D11*
%TO.P,R5,2*%
%TO.N,BLK*%
X92310000Y-122530000D03*
D13*
%TO.P,R5,1*%
%TO.N,DTR*%
X92310000Y-114910000D03*
%TD*%
D14*
%TO.P,H4,1*%
%TO.N,BLK*%
X94590990Y-132409010D03*
X93000000Y-131750000D03*
X91409010Y-132409010D03*
X90750000Y-134000000D03*
X91409010Y-135590990D03*
X93000000Y-136250000D03*
X94590990Y-135590990D03*
X95250000Y-134000000D03*
D15*
X93000000Y-134000000D03*
%TD*%
D16*
%TO.P,D1,2*%
%TO.N,Net-(D1-Pad2)*%
X137640000Y-72400000D03*
D17*
%TO.P,D1,1*%
%TO.N,Net-(D1-Pad1)*%
X135100000Y-72400000D03*
%TD*%
D16*
%TO.P,D2,2*%
%TO.N,Net-(D2-Pad2)*%
X143640000Y-72400000D03*
D17*
%TO.P,D2,1*%
%TO.N,Net-(D2-Pad1)*%
X141100000Y-72400000D03*
%TD*%
D11*
%TO.P,D3,2*%
%TO.N,ICSP_RST*%
X98880000Y-133000000D03*
D12*
%TO.P,D3,1*%
%TO.N,VDD*%
X106500000Y-133000000D03*
%TD*%
D16*
%TO.P,D4,2*%
%TO.N,Net-(D4-Pad2)*%
X149640000Y-72400000D03*
D17*
%TO.P,D4,1*%
%TO.N,BLK*%
X147100000Y-72400000D03*
%TD*%
D18*
%TO.P,J4,4*%
%TO.N,Net-(J4-Pad4)*%
X162306000Y-121508000D03*
%TO.P,J4,3*%
%TO.N,VDD*%
X162306000Y-123508000D03*
%TO.P,J4,2*%
%TO.N,D2*%
X162306000Y-125508000D03*
%TO.P,J4,1*%
%TO.N,BLK*%
%TA.AperFunction,ComponentPad*%
G36*
G01*
X162956001Y-128108000D02*
X161655999Y-128108000D01*
G75*
G02*
X161406000Y-127858001I0J249999D01*
G01*
X161406000Y-127157999D01*
G75*
G02*
X161655999Y-126908000I249999J0D01*
G01*
X162956001Y-126908000D01*
G75*
G02*
X163206000Y-127157999I0J-249999D01*
G01*
X163206000Y-127858001D01*
G75*
G02*
X162956001Y-128108000I-249999J0D01*
G01*
G37*
%TD.AperFunction*%
%TD*%
D11*
%TO.P,R1,2*%
%TO.N,Net-(R1-Pad2)*%
X132580000Y-97160000D03*
D13*
%TO.P,R1,1*%
%TO.N,TX*%
X124960000Y-97160000D03*
%TD*%
D11*
%TO.P,R2,2*%
%TO.N,Net-(R2-Pad2)*%
X132580000Y-93910000D03*
D13*
%TO.P,R2,1*%
%TO.N,RX*%
X124960000Y-93910000D03*
%TD*%
D11*
%TO.P,R3,2*%
%TO.N,Net-(D1-Pad2)*%
X139876000Y-77818000D03*
D13*
%TO.P,R3,1*%
%TO.N,VDD*%
X139876000Y-85438000D03*
%TD*%
D11*
%TO.P,R4,2*%
%TO.N,Net-(D2-Pad2)*%
X144076000Y-77818000D03*
D13*
%TO.P,R4,1*%
%TO.N,VDD*%
X144076000Y-85438000D03*
%TD*%
D11*
%TO.P,R6,2*%
%TO.N,ICSP_RST*%
X98880000Y-136000000D03*
D13*
%TO.P,R6,1*%
%TO.N,VDD*%
X106500000Y-136000000D03*
%TD*%
D11*
%TO.P,R7,2*%
%TO.N,/X2*%
X136710000Y-129420000D03*
D13*
%TO.P,R7,1*%
%TO.N,/X1*%
X129090000Y-129420000D03*
%TD*%
D11*
%TO.P,R8,2*%
%TO.N,Net-(J4-Pad4)*%
X157920000Y-121500000D03*
D13*
%TO.P,R8,1*%
%TO.N,D13*%
X150300000Y-121500000D03*
%TD*%
D11*
%TO.P,R9,2*%
%TO.N,VDD*%
X148276000Y-85458000D03*
D13*
%TO.P,R9,1*%
%TO.N,Net-(D4-Pad2)*%
X148276000Y-77838000D03*
%TD*%
D11*
%TO.P,R11,2*%
%TO.N,BLK*%
X150330000Y-125900000D03*
D13*
%TO.P,R11,1*%
%TO.N,D2*%
X157950000Y-125900000D03*
%TD*%
D19*
%TO.P,RV1,1*%
%TO.N,VDD*%
X104100000Y-74200000D03*
%TO.P,RV1,2*%
%TO.N,V0*%
X106640000Y-76740000D03*
%TO.P,RV1,3*%
%TO.N,BLK*%
X109180000Y-74200000D03*
%TD*%
D20*
%TO.P,SW1,1*%
%TO.N,DTR*%
X103550000Y-121000000D03*
%TO.P,SW1,2*%
%TO.N,BLK*%
X103550000Y-125500000D03*
%TO.P,SW1,1*%
%TO.N,DTR*%
X97050000Y-121000000D03*
%TO.P,SW1,2*%
%TO.N,BLK*%
X97050000Y-125500000D03*
%TD*%
D18*
%TO.P,J2,4*%
%TO.N,VDD*%
X162306000Y-110078000D03*
%TO.P,J2,3*%
%TO.N,D11*%
X162306000Y-112078000D03*
%TO.P,J2,2*%
%TO.N,D12*%
X162306000Y-114078000D03*
%TO.P,J2,1*%
%TO.N,BLK*%
%TA.AperFunction,ComponentPad*%
G36*
G01*
X162956001Y-116678000D02*
X161655999Y-116678000D01*
G75*
G02*
X161406000Y-116428001I0J249999D01*
G01*
X161406000Y-115727999D01*
G75*
G02*
X161655999Y-115478000I249999J0D01*
G01*
X162956001Y-115478000D01*
G75*
G02*
X163206000Y-115727999I0J-249999D01*
G01*
X163206000Y-116428001D01*
G75*
G02*
X162956001Y-116678000I-249999J0D01*
G01*
G37*
%TD.AperFunction*%
%TD*%
D21*
%TO.P,J3,16*%
%TO.N,BLK*%
X135100000Y-82000000D03*
%TO.P,J3,15*%
%TO.N,BLA*%
X132560000Y-82000000D03*
%TO.P,J3,14*%
%TO.N,D8*%
X130020000Y-82000000D03*
%TO.P,J3,13*%
%TO.N,D7*%
X127480000Y-82000000D03*
%TO.P,J3,12*%
%TO.N,D6*%
X124940000Y-82000000D03*
%TO.P,J3,11*%
%TO.N,D5*%
X122400000Y-82000000D03*
%TO.P,J3,10*%
%TO.N,DB3*%
X119860000Y-82000000D03*
%TO.P,J3,9*%
%TO.N,DB2*%
X117320000Y-82000000D03*
%TO.P,J3,8*%
%TO.N,DB1*%
X114780000Y-82000000D03*
%TO.P,J3,7*%
%TO.N,DB0*%
X112240000Y-82000000D03*
%TO.P,J3,6*%
%TO.N,D4*%
X109700000Y-82000000D03*
%TO.P,J3,5*%
%TO.N,BLK*%
X107160000Y-82000000D03*
%TO.P,J3,4*%
%TO.N,D3*%
X104620000Y-82000000D03*
%TO.P,J3,3*%
%TO.N,V0*%
X102080000Y-82000000D03*
%TO.P,J3,2*%
%TO.N,VDD*%
X99540000Y-82000000D03*
D22*
%TO.P,J3,1*%
%TO.N,BLK*%
X97000000Y-82000000D03*
%TD*%
D14*
%TO.P,H1,1*%
%TO.N,BLK*%
X94590990Y-72409010D03*
X93000000Y-71750000D03*
X91409010Y-72409010D03*
X90750000Y-74000000D03*
X91409010Y-75590990D03*
X93000000Y-76250000D03*
X94590990Y-75590990D03*
X95250000Y-74000000D03*
D15*
X93000000Y-74000000D03*
%TD*%
D14*
%TO.P,H2,1*%
%TO.N,BLK*%
X165590990Y-72409010D03*
X164000000Y-71750000D03*
X162409010Y-72409010D03*
X161750000Y-74000000D03*
X162409010Y-75590990D03*
X164000000Y-76250000D03*
X165590990Y-75590990D03*
X166250000Y-74000000D03*
D15*
X164000000Y-74000000D03*
%TD*%
D14*
%TO.P,H3,1*%
%TO.N,BLK*%
X165590990Y-132409010D03*
X164000000Y-131750000D03*
X162409010Y-132409010D03*
X161750000Y-134000000D03*
X162409010Y-135590990D03*
X164000000Y-136250000D03*
X165590990Y-135590990D03*
X166250000Y-134000000D03*
D15*
X164000000Y-134000000D03*
%TD*%
%TO.P,FB1,2*%
%TO.N,Net-(C1-Pad1)*%
%TA.AperFunction,SMDPad,CuDef*%
G36*
G01*
X151100000Y-103505000D02*
X148200000Y-103505000D01*
G75*
G02*
X147950000Y-103255000I0J250000D01*
G01*
X147950000Y-102455000D01*
G75*
G02*
X148200000Y-102205000I250000J0D01*
G01*
X151100000Y-102205000D01*
G75*
G02*
X151350000Y-102455000I0J-250000D01*
G01*
X151350000Y-103255000D01*
G75*
G02*
X151100000Y-103505000I-250000J0D01*
G01*
G37*
%TD.AperFunction*%
%TO.P,FB1,1*%
%TO.N,VDD*%
%TA.AperFunction,SMDPad,CuDef*%
G36*
G01*
X151100000Y-107955000D02*
X148200000Y-107955000D01*
G75*
G02*
X147950000Y-107705000I0J250000D01*
G01*
X147950000Y-106905000D01*
G75*
G02*
X148200000Y-106655000I250000J0D01*
G01*
X151100000Y-106655000D01*
G75*
G02*
X151350000Y-106905000I0J-250000D01*
G01*
X151350000Y-107705000D01*
G75*
G02*
X151100000Y-107955000I-250000J0D01*
G01*
G37*
%TD.AperFunction*%
%TD*%
D23*
%TO.P,C1,2*%
%TO.N,BLK*%
X155560000Y-104830000D03*
%TO.P,C1,1*%
%TO.N,Net-(C1-Pad1)*%
X155560000Y-102830000D03*
%TD*%
%TO.P,C2,2*%
%TO.N,BLK*%
X154230000Y-95260000D03*
%TO.P,C2,1*%
%TO.N,Net-(C2-Pad1)*%
X154230000Y-93260000D03*
%TD*%
%TO.P,C3,2*%
%TO.N,BLK*%
X126160000Y-113070000D03*
%TO.P,C3,1*%
%TO.N,Net-(C3-Pad1)*%
X128160000Y-113070000D03*
%TD*%
%TO.P,C4,2*%
%TO.N,DTR*%
X92240000Y-126050000D03*
%TO.P,C4,1*%
%TO.N,ICSP_RST*%
X92240000Y-128050000D03*
%TD*%
%TO.P,C6,2*%
%TO.N,BLK*%
X132000000Y-113190000D03*
%TO.P,C6,1*%
%TO.N,VDD*%
X134000000Y-113190000D03*
%TD*%
%TO.P,C7,2*%
%TO.N,/X1*%
X124110000Y-132530000D03*
%TO.P,C7,1*%
%TO.N,BLK*%
X124110000Y-134530000D03*
%TD*%
%TO.P,C8,2*%
%TO.N,/X2*%
X141570000Y-132530000D03*
%TO.P,C8,1*%
%TO.N,BLK*%
X141570000Y-134530000D03*
%TD*%
D21*
%TO.P,J5,6*%
%TO.N,BLK*%
X149910000Y-134410000D03*
%TO.P,J5,5*%
%TO.N,ICSP_RST*%
X149910000Y-131870000D03*
%TO.P,J5,4*%
%TO.N,D11*%
X152450000Y-134410000D03*
%TO.P,J5,3*%
%TO.N,D13*%
X152450000Y-131870000D03*
%TO.P,J5,2*%
%TO.N,VDD*%
X154990000Y-134410000D03*
D22*
%TO.P,J5,1*%
%TO.N,D12*%
X154990000Y-131870000D03*
%TD*%
%TO.P,J1,1*%
%TO.N,Net-(C1-Pad1)*%
X160780000Y-96110000D03*
D24*
%TO.P,J1,2*%
%TO.N,/D-*%
X160780000Y-93610000D03*
%TO.P,J1,3*%
%TO.N,/D+*%
X162780000Y-93610000D03*
%TO.P,J1,4*%
%TO.N,BLK*%
X162780000Y-96110000D03*
D25*
%TO.P,J1,5*%
X165490000Y-100880000D03*
X165490000Y-88840000D03*
%TD*%
D26*
%TO.N,DTR*%
X105800000Y-106710000D03*
D27*
%TO.N,VDD*%
X145100000Y-107340000D03*
D26*
%TO.N,D2*%
X154420000Y-121470000D03*
X141080000Y-106870000D03*
%TO.N,ICSP_RST*%
X110900000Y-131430000D03*
%TD*%
D28*
%TO.N,BLK*%
X150330000Y-125900000D02*
X151180000Y-126750000D01*
X151180000Y-133140000D02*
X149910000Y-134410000D01*
X151180000Y-126750000D02*
X151180000Y-133140000D01*
D29*
%TO.N,Net-(C1-Pad1)*%
X160780000Y-96110000D02*
X159870000Y-96110000D01*
X155560000Y-100420000D02*
X155560000Y-102830000D01*
X159870000Y-96110000D02*
X155560000Y-100420000D01*
X149675000Y-102830000D02*
X149650000Y-102855000D01*
X155560000Y-102830000D02*
X149675000Y-102830000D01*
D28*
%TO.N,Net-(C3-Pad1)*%
X128160000Y-117860000D02*
X129080000Y-118780000D01*
X128160000Y-113070000D02*
X128160000Y-117860000D01*
%TO.N,DTR*%
X103550000Y-121000000D02*
X103550000Y-108960000D01*
X103550000Y-108960000D02*
X105800000Y-106710000D01*
D29*
%TO.N,VDD*%
X149650000Y-107305000D02*
X149650000Y-108020000D01*
X151708000Y-110078000D02*
X162306000Y-110078000D01*
X149650000Y-108020000D02*
X151708000Y-110078000D01*
X162306000Y-110078000D02*
X162422000Y-110078000D01*
X166958000Y-85458000D02*
X148276000Y-85458000D01*
X168310000Y-86810000D02*
X166958000Y-85458000D01*
X168310000Y-102966000D02*
X168310000Y-86810000D01*
X162306000Y-108970000D02*
X168310000Y-102966000D01*
X162306000Y-110078000D02*
X162306000Y-108970000D01*
X144096000Y-85458000D02*
X144076000Y-85438000D01*
X148276000Y-85458000D02*
X144096000Y-85458000D01*
X144076000Y-85438000D02*
X139876000Y-85438000D01*
X139876000Y-85438000D02*
X138648000Y-85438000D01*
X138648000Y-85438000D02*
X137750000Y-84540000D01*
X137750000Y-84540000D02*
X137750000Y-79270000D01*
X137750000Y-79270000D02*
X137460000Y-78980000D01*
X137460000Y-78980000D02*
X100560000Y-78980000D01*
X99540000Y-80000000D02*
X99540000Y-82000000D01*
X100560000Y-78980000D02*
X99540000Y-80000000D01*
D28*
X99540000Y-82000000D02*
X98030000Y-80490000D01*
X98030000Y-80490000D02*
X98030000Y-75460000D01*
X99290000Y-74200000D02*
X104100000Y-74200000D01*
X98030000Y-75460000D02*
X99290000Y-74200000D01*
D29*
X162306000Y-110078000D02*
X164008000Y-110078000D01*
X164008000Y-110078000D02*
X164670000Y-110740000D01*
X164670000Y-110740000D02*
X164670000Y-122890000D01*
X164052000Y-123508000D02*
X162306000Y-123508000D01*
X164670000Y-122890000D02*
X164052000Y-123508000D01*
X131620000Y-118780000D02*
X131620000Y-120670000D01*
X131620000Y-120670000D02*
X129270000Y-123020000D01*
X129270000Y-123020000D02*
X127380000Y-123020000D01*
X126540000Y-123860000D02*
X126540000Y-126400000D01*
X127380000Y-123020000D02*
X126540000Y-123860000D01*
D28*
X106500000Y-136000000D02*
X106500000Y-133000000D01*
X106500000Y-133000000D02*
X106500000Y-132890000D01*
X106500000Y-132890000D02*
X111030000Y-128360000D01*
X124580000Y-128360000D02*
X126540000Y-126400000D01*
X111030000Y-128360000D02*
X124580000Y-128360000D01*
D29*
X145135000Y-107305000D02*
X145100000Y-107340000D01*
X149650000Y-107305000D02*
X145135000Y-107305000D01*
X157070000Y-134410000D02*
X154990000Y-134410000D01*
X161680000Y-129800000D02*
X157070000Y-134410000D01*
X162910000Y-129800000D02*
X161680000Y-129800000D01*
X164690000Y-128020000D02*
X162910000Y-129800000D01*
X164690000Y-125750000D02*
X164690000Y-128020000D01*
X162448000Y-123508000D02*
X164690000Y-125750000D01*
X162306000Y-123508000D02*
X162448000Y-123508000D01*
D28*
%TO.N,Net-(D1-Pad2)*%
X137640000Y-75582000D02*
X139876000Y-77818000D01*
X137640000Y-72400000D02*
X137640000Y-75582000D01*
%TO.N,Net-(D2-Pad2)*%
X143640000Y-77382000D02*
X144076000Y-77818000D01*
X143640000Y-72400000D02*
X143640000Y-77382000D01*
%TO.N,Net-(D4-Pad2)*%
X148276000Y-77838000D02*
X149700000Y-76414000D01*
X149700000Y-72460000D02*
X149640000Y-72400000D01*
X149700000Y-76414000D02*
X149700000Y-72460000D01*
%TO.N,D12*%
X162306000Y-114078000D02*
X157252000Y-114078000D01*
X157252000Y-114078000D02*
X156090000Y-115240000D01*
X156090000Y-115240000D02*
X156090000Y-127820000D01*
X154990000Y-128920000D02*
X154990000Y-131870000D01*
X156090000Y-127820000D02*
X154990000Y-128920000D01*
%TO.N,D3*%
X104620000Y-82000000D02*
X104620000Y-97460000D01*
X104620000Y-97460000D02*
X112800000Y-105640000D01*
X112800000Y-105640000D02*
X112800000Y-114900000D01*
X112800000Y-114900000D02*
X115110000Y-117210000D01*
X115110000Y-119177962D02*
X120072038Y-124140000D01*
X115110000Y-117210000D02*
X115110000Y-119177962D01*
X120072038Y-124140000D02*
X120540000Y-124140000D01*
X121460000Y-125060000D02*
X121460000Y-126400000D01*
X120540000Y-124140000D02*
X121460000Y-125060000D01*
%TO.N,D4*%
X123481943Y-124871943D02*
X124000000Y-125390000D01*
X121914010Y-124871943D02*
X123481943Y-124871943D01*
X120728057Y-123685990D02*
X121914010Y-124871943D01*
X109700000Y-82000000D02*
X109700000Y-84460000D01*
X105074010Y-97271944D02*
X113254010Y-105451943D01*
X109700000Y-84460000D02*
X109350000Y-84810000D01*
X109350000Y-84810000D02*
X106010000Y-84810000D01*
X113254010Y-114711944D02*
X115452066Y-116910000D01*
X115452066Y-116910000D02*
X117200000Y-116910000D01*
X124000000Y-125390000D02*
X124000000Y-126400000D01*
X106010000Y-84810000D02*
X105074010Y-85745990D01*
X105074010Y-85745990D02*
X105074010Y-97271944D01*
X120260094Y-123685990D02*
X120728057Y-123685990D01*
X113254010Y-105451943D02*
X113254010Y-114711944D01*
X117200000Y-116910000D02*
X117650000Y-117360000D01*
X117650000Y-117360000D02*
X117650000Y-121075896D01*
X117650000Y-121075896D02*
X120260094Y-123685990D01*
%TO.N,D5*%
X135430000Y-125130000D02*
X136700000Y-126400000D01*
X135430000Y-117540000D02*
X135430000Y-125130000D01*
X136250000Y-116720000D02*
X135430000Y-117540000D01*
X130810000Y-109820000D02*
X134680000Y-109820000D01*
X126570000Y-105580000D02*
X130810000Y-109820000D01*
X136250000Y-111390000D02*
X136250000Y-116720000D01*
X134680000Y-109820000D02*
X136250000Y-111390000D01*
X122400000Y-82000000D02*
X122400000Y-83700000D01*
X125420000Y-84840000D02*
X126570000Y-85990000D01*
X123540000Y-84840000D02*
X125420000Y-84840000D01*
X122400000Y-83700000D02*
X123540000Y-84840000D01*
X126570000Y-85990000D02*
X126570000Y-91240000D01*
X126570000Y-91240000D02*
X126570000Y-105580000D01*
X126570000Y-90660000D02*
X126570000Y-91240000D01*
%TO.N,D6*%
X127024010Y-105391944D02*
X130998056Y-109365990D01*
X134868057Y-109365990D02*
X136704010Y-111201943D01*
X130998056Y-109365990D02*
X134868057Y-109365990D01*
X136704010Y-111201943D02*
X136704010Y-116524010D01*
X136704010Y-116524010D02*
X137960000Y-117780000D01*
X137960000Y-117780000D02*
X137960000Y-124000000D01*
X139240000Y-125280000D02*
X139240000Y-126400000D01*
X137960000Y-124000000D02*
X139240000Y-125280000D01*
X124940000Y-82000000D02*
X124940000Y-83680000D01*
X127024010Y-85764010D02*
X127024010Y-90745990D01*
X124940000Y-83680000D02*
X127024010Y-85764010D01*
X127024010Y-90745990D02*
X127024010Y-105391944D01*
X127024010Y-90471943D02*
X127024010Y-90745990D01*
%TO.N,D7*%
X140510000Y-125130000D02*
X141780000Y-126400000D01*
X138062066Y-117240000D02*
X140030000Y-117240000D01*
X137158020Y-111013886D02*
X137158020Y-116335954D01*
X131186112Y-108911980D02*
X135056114Y-108911980D01*
X140030000Y-117240000D02*
X140510000Y-117720000D01*
X135056114Y-108911980D02*
X135322067Y-109177934D01*
X140510000Y-117720000D02*
X140510000Y-125130000D01*
X135322067Y-109177934D02*
X137158020Y-111013886D01*
X137158020Y-116335954D02*
X138062066Y-117240000D01*
X127480000Y-105205868D02*
X131186112Y-108911980D01*
X127480000Y-82000000D02*
X127480000Y-90340000D01*
X127480000Y-90340000D02*
X127480000Y-105205868D01*
X127480000Y-90285867D02*
X127480000Y-90340000D01*
%TO.N,D8*%
X142395990Y-116785990D02*
X143050000Y-117440000D01*
X138255990Y-116785990D02*
X142395990Y-116785990D01*
X137612030Y-116142030D02*
X138255990Y-116785990D01*
X137612030Y-110825829D02*
X137612030Y-116142030D01*
X135244170Y-108457971D02*
X137612030Y-110825829D01*
X143050000Y-117440000D02*
X143050000Y-125130000D01*
X131374168Y-108457970D02*
X135244170Y-108457971D01*
X127934010Y-105017812D02*
X131374168Y-108457970D01*
X127934010Y-86865990D02*
X127934010Y-105017812D01*
X130020000Y-84780000D02*
X127934010Y-86865990D01*
X143050000Y-125130000D02*
X144320000Y-126400000D01*
X130020000Y-82000000D02*
X130020000Y-84780000D01*
%TO.N,BLA*%
X132560000Y-82000000D02*
X132560000Y-84180000D01*
X132560000Y-84180000D02*
X131370000Y-85370000D01*
X131370000Y-85370000D02*
X130072066Y-85370000D01*
X130072066Y-85370000D02*
X128388020Y-87054046D01*
X128388020Y-87054046D02*
X128388020Y-104829756D01*
X131562225Y-108003961D02*
X135432227Y-108003962D01*
X128388020Y-104829756D02*
X131562225Y-108003961D01*
X135432227Y-108003962D02*
X138066040Y-110637772D01*
X138066040Y-115916040D02*
X138481980Y-116331980D01*
X138066040Y-110637772D02*
X138066040Y-115916040D01*
X144320000Y-118067933D02*
X144320000Y-118780000D01*
X142584047Y-116331980D02*
X144320000Y-118067933D01*
X138481980Y-116331980D02*
X142584047Y-116331980D01*
%TO.N,D2*%
X162306000Y-125508000D02*
X159972000Y-125508000D01*
X159580000Y-125900000D02*
X157950000Y-125900000D01*
X159972000Y-125508000D02*
X159580000Y-125900000D01*
X154420000Y-121470000D02*
X154420000Y-119700000D01*
X146920000Y-114910000D02*
X146920000Y-116650000D01*
X146920000Y-116650000D02*
X148930000Y-118660000D01*
X153380000Y-118660000D02*
X154420000Y-119700000D01*
X148930000Y-118660000D02*
X153380000Y-118660000D01*
X141080000Y-109070000D02*
X142525000Y-110515000D01*
X141080000Y-106870000D02*
X141080000Y-109070000D01*
X142525000Y-110515000D02*
X146920000Y-114910000D01*
X142260000Y-110250000D02*
X142525000Y-110515000D01*
%TO.N,Net-(J4-Pad4)*%
X157928000Y-121508000D02*
X157920000Y-121500000D01*
X162306000Y-121508000D02*
X157928000Y-121508000D01*
%TO.N,D13*%
X150300000Y-121500000D02*
X152050000Y-121500000D01*
X152450000Y-121900000D02*
X152450000Y-131870000D01*
X152050000Y-121500000D02*
X152450000Y-121900000D01*
%TO.N,ICSP_RST*%
X98880000Y-136000000D02*
X98880000Y-133000000D01*
X97870000Y-131990000D02*
X98880000Y-133000000D01*
X93930000Y-128050000D02*
X97870000Y-131990000D01*
X92240000Y-128050000D02*
X93930000Y-128050000D01*
X98880000Y-133000000D02*
X102400000Y-129480000D01*
X102400000Y-129480000D02*
X107910000Y-129480000D01*
X110990000Y-126400000D02*
X111300000Y-126400000D01*
X107910000Y-129480000D02*
X110990000Y-126400000D01*
X149910000Y-131870000D02*
X147160000Y-131870000D01*
X147160000Y-131870000D02*
X145740000Y-133290000D01*
X145740000Y-133290000D02*
X145740000Y-138090000D01*
X145740000Y-138090000D02*
X144980000Y-138850000D01*
X144980000Y-138850000D02*
X116900000Y-138850000D01*
X110900000Y-132850000D02*
X110900000Y-131430000D01*
X116900000Y-138850000D02*
X110900000Y-132850000D01*
%TD*%
M02*
