%TF.GenerationSoftware,KiCad,Pcbnew,5.1.6*%
%TF.CreationDate,2020-08-22T14:38:23+02:00*%
%TF.ProjectId,livello_serbatoio_definitiva,6c697665-6c6c-46f5-9f73-65726261746f,rev?*%
%TF.SameCoordinates,Original*%
%TF.FileFunction,Copper,L2,Bot*%
%TF.FilePolarity,Positive*%
%FSLAX46Y46*%
G04 Gerber Fmt 4.6, Leading zero omitted, Abs format (unit mm)*
G04 Created by KiCad (PCBNEW 5.1.6) date 2020-08-22 14:38:23*
%MOMM*%
%LPD*%
G01*
G04 APERTURE LIST*
%TA.AperFunction,ComponentPad*%
%ADD10R,1.600000X1.600000*%
%TD*%
%TA.AperFunction,ComponentPad*%
%ADD11O,1.600000X1.600000*%
%TD*%
%TA.AperFunction,ComponentPad*%
%ADD12R,1.700000X1.700000*%
%TD*%
%TA.AperFunction,ComponentPad*%
%ADD13C,1.700000*%
%TD*%
%TA.AperFunction,ComponentPad*%
%ADD14C,3.500000*%
%TD*%
%TA.AperFunction,ComponentPad*%
%ADD15C,6.000000*%
%TD*%
%TA.AperFunction,ComponentPad*%
%ADD16C,0.800000*%
%TD*%
%TA.AperFunction,ComponentPad*%
%ADD17C,1.000000*%
%TD*%
%TA.AperFunction,ComponentPad*%
%ADD18C,2.000000*%
%TD*%
%TA.AperFunction,ComponentPad*%
%ADD19C,1.600000*%
%TD*%
%TA.AperFunction,ComponentPad*%
%ADD20C,1.800000*%
%TD*%
%TA.AperFunction,ComponentPad*%
%ADD21R,1.800000X1.800000*%
%TD*%
%TA.AperFunction,ComponentPad*%
%ADD22O,1.800000X1.200000*%
%TD*%
%TA.AperFunction,ComponentPad*%
%ADD23C,1.440000*%
%TD*%
%TA.AperFunction,ComponentPad*%
%ADD24O,1.700000X1.700000*%
%TD*%
%TA.AperFunction,ViaPad*%
%ADD25C,0.800000*%
%TD*%
%TA.AperFunction,Conductor*%
%ADD26C,0.254000*%
%TD*%
G04 APERTURE END LIST*
D10*
%TO.P,U2,1*%
%TO.N,ICSP_RST*%
X111300000Y-126400000D03*
D11*
%TO.P,U2,15*%
%TO.N,BLA*%
X144320000Y-118780000D03*
%TO.P,U2,2*%
%TO.N,TX*%
X113840000Y-126400000D03*
%TO.P,U2,16*%
%TO.N,Net-(U2-Pad16)*%
X141780000Y-118780000D03*
%TO.P,U2,3*%
%TO.N,RX*%
X116380000Y-126400000D03*
%TO.P,U2,17*%
%TO.N,D11*%
X139240000Y-118780000D03*
%TO.P,U2,4*%
%TO.N,D2*%
X118920000Y-126400000D03*
%TO.P,U2,18*%
%TO.N,D12*%
X136700000Y-118780000D03*
%TO.P,U2,5*%
%TO.N,D3*%
X121460000Y-126400000D03*
%TO.P,U2,19*%
%TO.N,D13*%
X134160000Y-118780000D03*
%TO.P,U2,6*%
%TO.N,D4*%
X124000000Y-126400000D03*
%TO.P,U2,20*%
%TO.N,VDD*%
X131620000Y-118780000D03*
%TO.P,U2,7*%
X126540000Y-126400000D03*
%TO.P,U2,21*%
%TO.N,Net-(C3-Pad1)*%
X129080000Y-118780000D03*
%TO.P,U2,8*%
%TO.N,BLK*%
X129080000Y-126400000D03*
%TO.P,U2,22*%
X126540000Y-118780000D03*
%TO.P,U2,9*%
%TO.N,Net-(C7-Pad2)*%
X131620000Y-126400000D03*
%TO.P,U2,23*%
%TO.N,Net-(U2-Pad23)*%
X124000000Y-118780000D03*
%TO.P,U2,10*%
%TO.N,Net-(C8-Pad2)*%
X134160000Y-126400000D03*
%TO.P,U2,24*%
%TO.N,Net-(U2-Pad24)*%
X121460000Y-118780000D03*
%TO.P,U2,11*%
%TO.N,D5*%
X136700000Y-126400000D03*
%TO.P,U2,25*%
%TO.N,Net-(U2-Pad25)*%
X118920000Y-118780000D03*
%TO.P,U2,12*%
%TO.N,D6*%
X139240000Y-126400000D03*
%TO.P,U2,26*%
%TO.N,Net-(U2-Pad26)*%
X116380000Y-118780000D03*
%TO.P,U2,13*%
%TO.N,D7*%
X141780000Y-126400000D03*
%TO.P,U2,27*%
%TO.N,Net-(U2-Pad27)*%
X113840000Y-118780000D03*
%TO.P,U2,14*%
%TO.N,D8*%
X144320000Y-126400000D03*
%TO.P,U2,28*%
%TO.N,Net-(U2-Pad28)*%
X111300000Y-118780000D03*
%TD*%
D12*
%TO.P,J1,1*%
%TO.N,Net-(C1-Pad1)*%
X153500000Y-89500000D03*
D13*
%TO.P,J1,2*%
%TO.N,Net-(J1-Pad2)*%
X153500000Y-87000000D03*
%TO.P,J1,3*%
%TO.N,Net-(J1-Pad3)*%
X155500000Y-87000000D03*
%TO.P,J1,4*%
%TO.N,BLK*%
X155500000Y-89500000D03*
D14*
%TO.P,J1,5*%
X158210000Y-94270000D03*
X158210000Y-82230000D03*
%TD*%
D15*
%TO.P,H4,1*%
%TO.N,BLK*%
X93000000Y-134000000D03*
D16*
X95250000Y-134000000D03*
X94590990Y-135590990D03*
X93000000Y-136250000D03*
X91409010Y-135590990D03*
X90750000Y-134000000D03*
X91409010Y-132409010D03*
X93000000Y-131750000D03*
X94590990Y-132409010D03*
%TD*%
D17*
%TO.P,Y1,1*%
%TO.N,Net-(C8-Pad2)*%
X135290000Y-135050000D03*
%TO.P,Y1,2*%
%TO.N,Net-(C7-Pad2)*%
X130410000Y-135050000D03*
%TD*%
D18*
%TO.P,F1,1*%
%TO.N,VDD*%
X153400000Y-103500000D03*
%TO.P,F1,2*%
%TO.N,Net-(C1-Pad1)*%
X164800000Y-103500000D03*
%TD*%
D19*
%TO.P,C3,1*%
%TO.N,Net-(C3-Pad1)*%
X117700000Y-107000000D03*
D11*
%TO.P,C3,2*%
%TO.N,BLK*%
X117700000Y-99500000D03*
%TD*%
D19*
%TO.P,C2,1*%
%TO.N,Net-(C2-Pad1)*%
X143300000Y-105900000D03*
D11*
%TO.P,C2,2*%
%TO.N,BLK*%
X143300000Y-113400000D03*
%TD*%
%TO.P,C1,2*%
%TO.N,BLK*%
X155000000Y-98500000D03*
D19*
%TO.P,C1,1*%
%TO.N,Net-(C1-Pad1)*%
X162500000Y-98500000D03*
%TD*%
D11*
%TO.P,C4,2*%
%TO.N,DTR*%
X93400000Y-119900000D03*
D19*
%TO.P,C4,1*%
%TO.N,ICSP_RST*%
X93400000Y-127400000D03*
%TD*%
D11*
%TO.P,C6,2*%
%TO.N,BLK*%
X122900000Y-99500000D03*
D19*
%TO.P,C6,1*%
%TO.N,VDD*%
X122900000Y-107000000D03*
%TD*%
%TO.P,C7,1*%
%TO.N,BLK*%
X125200000Y-138100000D03*
D11*
%TO.P,C7,2*%
%TO.N,Net-(C7-Pad2)*%
X125200000Y-130600000D03*
%TD*%
%TO.P,C8,2*%
%TO.N,Net-(C8-Pad2)*%
X140400000Y-130600000D03*
D19*
%TO.P,C8,1*%
%TO.N,BLK*%
X140400000Y-138100000D03*
%TD*%
D20*
%TO.P,D1,2*%
%TO.N,Net-(D1-Pad2)*%
X137640000Y-72400000D03*
D21*
%TO.P,D1,1*%
%TO.N,Net-(D1-Pad1)*%
X135100000Y-72400000D03*
%TD*%
%TO.P,D2,1*%
%TO.N,Net-(D2-Pad1)*%
X141100000Y-72400000D03*
D20*
%TO.P,D2,2*%
%TO.N,Net-(D2-Pad2)*%
X143640000Y-72400000D03*
%TD*%
D10*
%TO.P,D3,1*%
%TO.N,VDD*%
X106500000Y-133000000D03*
D11*
%TO.P,D3,2*%
%TO.N,ICSP_RST*%
X98880000Y-133000000D03*
%TD*%
D21*
%TO.P,D4,1*%
%TO.N,BLK*%
X147100000Y-72400000D03*
D20*
%TO.P,D4,2*%
%TO.N,Net-(D4-Pad2)*%
X149640000Y-72400000D03*
%TD*%
%TO.P,J4,1*%
%TO.N,BLK*%
%TA.AperFunction,ComponentPad*%
G36*
G01*
X162150001Y-116000000D02*
X160849999Y-116000000D01*
G75*
G02*
X160600000Y-115750001I0J249999D01*
G01*
X160600000Y-115049999D01*
G75*
G02*
X160849999Y-114800000I249999J0D01*
G01*
X162150001Y-114800000D01*
G75*
G02*
X162400000Y-115049999I0J-249999D01*
G01*
X162400000Y-115750001D01*
G75*
G02*
X162150001Y-116000000I-249999J0D01*
G01*
G37*
%TD.AperFunction*%
D22*
%TO.P,J4,2*%
%TO.N,D2*%
X161500000Y-113400000D03*
%TO.P,J4,3*%
%TO.N,VDD*%
X161500000Y-111400000D03*
%TO.P,J4,4*%
%TO.N,Net-(J4-Pad4)*%
X161500000Y-109400000D03*
%TD*%
D11*
%TO.P,R1,2*%
%TO.N,Net-(R1-Pad2)*%
X123720000Y-90000000D03*
D19*
%TO.P,R1,1*%
%TO.N,TX*%
X116100000Y-90000000D03*
%TD*%
D11*
%TO.P,R2,2*%
%TO.N,Net-(R2-Pad2)*%
X123720000Y-95000000D03*
D19*
%TO.P,R2,1*%
%TO.N,RX*%
X116100000Y-95000000D03*
%TD*%
%TO.P,R3,1*%
%TO.N,VDD*%
X140100000Y-86100000D03*
D11*
%TO.P,R3,2*%
%TO.N,Net-(D1-Pad2)*%
X140100000Y-78480000D03*
%TD*%
D19*
%TO.P,R4,1*%
%TO.N,VDD*%
X144300000Y-86100000D03*
D11*
%TO.P,R4,2*%
%TO.N,Net-(D2-Pad2)*%
X144300000Y-78480000D03*
%TD*%
%TO.P,R5,2*%
%TO.N,BLK*%
X90000000Y-127420000D03*
D19*
%TO.P,R5,1*%
%TO.N,DTR*%
X90000000Y-119800000D03*
%TD*%
%TO.P,R6,1*%
%TO.N,VDD*%
X106500000Y-136000000D03*
D11*
%TO.P,R6,2*%
%TO.N,ICSP_RST*%
X98880000Y-136000000D03*
%TD*%
D19*
%TO.P,R7,1*%
%TO.N,Net-(C7-Pad2)*%
X129100000Y-130600000D03*
D11*
%TO.P,R7,2*%
%TO.N,Net-(C8-Pad2)*%
X136720000Y-130600000D03*
%TD*%
%TO.P,R8,2*%
%TO.N,Net-(J4-Pad4)*%
X155720000Y-109300000D03*
D19*
%TO.P,R8,1*%
%TO.N,D13*%
X148100000Y-109300000D03*
%TD*%
D11*
%TO.P,R9,2*%
%TO.N,VDD*%
X148500000Y-86120000D03*
D19*
%TO.P,R9,1*%
%TO.N,Net-(D4-Pad2)*%
X148500000Y-78500000D03*
%TD*%
%TO.P,R11,1*%
%TO.N,D2*%
X107050000Y-119630000D03*
D11*
%TO.P,R11,2*%
%TO.N,BLK*%
X107050000Y-127250000D03*
%TD*%
D23*
%TO.P,RV1,3*%
%TO.N,BLK*%
X109180000Y-74200000D03*
%TO.P,RV1,2*%
%TO.N,V0*%
X106640000Y-76740000D03*
%TO.P,RV1,1*%
%TO.N,VDD*%
X104100000Y-74200000D03*
%TD*%
D18*
%TO.P,SW1,2*%
%TO.N,BLK*%
X97050000Y-125500000D03*
%TO.P,SW1,1*%
%TO.N,DTR*%
X97050000Y-121000000D03*
%TO.P,SW1,2*%
%TO.N,BLK*%
X103550000Y-125500000D03*
%TO.P,SW1,1*%
%TO.N,DTR*%
X103550000Y-121000000D03*
%TD*%
%TO.P,J2,1*%
%TO.N,BLK*%
%TA.AperFunction,ComponentPad*%
G36*
G01*
X162150001Y-128000000D02*
X160849999Y-128000000D01*
G75*
G02*
X160600000Y-127750001I0J249999D01*
G01*
X160600000Y-127049999D01*
G75*
G02*
X160849999Y-126800000I249999J0D01*
G01*
X162150001Y-126800000D01*
G75*
G02*
X162400000Y-127049999I0J-249999D01*
G01*
X162400000Y-127750001D01*
G75*
G02*
X162150001Y-128000000I-249999J0D01*
G01*
G37*
%TD.AperFunction*%
D22*
%TO.P,J2,2*%
%TO.N,D12*%
X161500000Y-125400000D03*
%TO.P,J2,3*%
%TO.N,D11*%
X161500000Y-123400000D03*
%TO.P,J2,4*%
%TO.N,VDD*%
X161500000Y-121400000D03*
%TD*%
D12*
%TO.P,J3,1*%
%TO.N,BLK*%
X97000000Y-82000000D03*
D24*
%TO.P,J3,2*%
%TO.N,VDD*%
X99540000Y-82000000D03*
%TO.P,J3,3*%
%TO.N,V0*%
X102080000Y-82000000D03*
%TO.P,J3,4*%
%TO.N,D3*%
X104620000Y-82000000D03*
%TO.P,J3,5*%
%TO.N,BLK*%
X107160000Y-82000000D03*
%TO.P,J3,6*%
%TO.N,D4*%
X109700000Y-82000000D03*
%TO.P,J3,7*%
%TO.N,DB0*%
X112240000Y-82000000D03*
%TO.P,J3,8*%
%TO.N,DB1*%
X114780000Y-82000000D03*
%TO.P,J3,9*%
%TO.N,DB2*%
X117320000Y-82000000D03*
%TO.P,J3,10*%
%TO.N,DB3*%
X119860000Y-82000000D03*
%TO.P,J3,11*%
%TO.N,D5*%
X122400000Y-82000000D03*
%TO.P,J3,12*%
%TO.N,D6*%
X124940000Y-82000000D03*
%TO.P,J3,13*%
%TO.N,D7*%
X127480000Y-82000000D03*
%TO.P,J3,14*%
%TO.N,D8*%
X130020000Y-82000000D03*
%TO.P,J3,15*%
%TO.N,BLA*%
X132560000Y-82000000D03*
%TO.P,J3,16*%
%TO.N,BLK*%
X135100000Y-82000000D03*
%TD*%
D12*
%TO.P,J5,1*%
%TO.N,D11*%
X105200000Y-93300000D03*
D24*
%TO.P,J5,2*%
%TO.N,VDD*%
X105200000Y-95840000D03*
%TO.P,J5,3*%
%TO.N,D12*%
X105200000Y-98380000D03*
%TO.P,J5,4*%
%TO.N,D13*%
X105200000Y-100920000D03*
%TO.P,J5,5*%
%TO.N,ICSP_RST*%
X105200000Y-103460000D03*
%TO.P,J5,6*%
%TO.N,BLK*%
X105200000Y-106000000D03*
%TD*%
D16*
%TO.P,H1,1*%
%TO.N,BLK*%
X94590990Y-72409010D03*
X93000000Y-71750000D03*
X91409010Y-72409010D03*
X90750000Y-74000000D03*
X91409010Y-75590990D03*
X93000000Y-76250000D03*
X94590990Y-75590990D03*
X95250000Y-74000000D03*
D15*
X93000000Y-74000000D03*
%TD*%
%TO.P,H2,1*%
%TO.N,BLK*%
X164000000Y-74000000D03*
D16*
X166250000Y-74000000D03*
X165590990Y-75590990D03*
X164000000Y-76250000D03*
X162409010Y-75590990D03*
X161750000Y-74000000D03*
X162409010Y-72409010D03*
X164000000Y-71750000D03*
X165590990Y-72409010D03*
%TD*%
%TO.P,H3,1*%
%TO.N,BLK*%
X165590990Y-132409010D03*
X164000000Y-131750000D03*
X162409010Y-132409010D03*
X161750000Y-134000000D03*
X162409010Y-135590990D03*
X164000000Y-136250000D03*
X165590990Y-135590990D03*
X166250000Y-134000000D03*
D15*
X164000000Y-134000000D03*
%TD*%
D25*
%TO.N,Net-(D2-Pad1)*%
X144400000Y-95100000D03*
%TD*%
D26*
%TO.N,BLK*%
X158210000Y-94270000D02*
X158210000Y-92210000D01*
X158210000Y-92210000D02*
X155500000Y-89500000D01*
X161500000Y-127400000D02*
X162727400Y-126172600D01*
X162727400Y-126172600D02*
X162727400Y-116627400D01*
X162727400Y-116627400D02*
X161500000Y-115400000D01*
X126215500Y-128381500D02*
X125392300Y-127558400D01*
X126337600Y-128503700D02*
X126215500Y-128381500D01*
X139262400Y-136962400D02*
X140400000Y-138100000D01*
X125200000Y-138100000D02*
X126337600Y-136962400D01*
X125392300Y-121055000D02*
X126540000Y-119907300D01*
X108177300Y-127250000D02*
X108485700Y-127558400D01*
X161750000Y-135261500D02*
X143238500Y-135261500D01*
X143238500Y-135261500D02*
X140400000Y-138100000D01*
X162409000Y-135591000D02*
X162079500Y-135261500D01*
X162079500Y-135261500D02*
X161750000Y-135261500D01*
X161750000Y-135261500D02*
X161750000Y-134000000D01*
X122900000Y-99500000D02*
X117700000Y-99500000D01*
X90750000Y-134000000D02*
X91409000Y-134659000D01*
X91409000Y-134659000D02*
X91409000Y-135591000D01*
X91409000Y-132409000D02*
X90750000Y-133068000D01*
X90750000Y-133068000D02*
X90750000Y-134000000D01*
X105200000Y-125500000D02*
X105922700Y-126222700D01*
X105200000Y-106000000D02*
X105200000Y-107177300D01*
X109180000Y-78802700D02*
X109180000Y-74200000D01*
X107050000Y-127250000D02*
X108177300Y-127250000D01*
X93000000Y-136250000D02*
X93932000Y-136250000D01*
X93932000Y-136250000D02*
X94591000Y-135591000D01*
X97050000Y-125500000D02*
X97050000Y-129950000D01*
X97050000Y-129950000D02*
X94591000Y-132409000D01*
X94591000Y-76250000D02*
X94591000Y-75591000D01*
X97000000Y-80822700D02*
X94591000Y-78413700D01*
X94591000Y-78413700D02*
X94591000Y-76250000D01*
X94591000Y-76250000D02*
X93000000Y-76250000D01*
X161750000Y-134000000D02*
X162409000Y-133341000D01*
X162409000Y-133341000D02*
X162409000Y-132409000D01*
X158210000Y-82230000D02*
X158210000Y-86790000D01*
X158210000Y-86790000D02*
X155500000Y-89500000D01*
X97000000Y-82000000D02*
X97000000Y-80822700D01*
X126540000Y-118780000D02*
X126540000Y-119907300D01*
X94591000Y-135591000D02*
X95250000Y-134932000D01*
X95250000Y-134932000D02*
X95250000Y-134000000D01*
X165591000Y-75591000D02*
X166250000Y-74932000D01*
X166250000Y-74932000D02*
X166250000Y-74000000D01*
X161750000Y-74000000D02*
X162409000Y-74659000D01*
X162409000Y-74659000D02*
X162409000Y-75591000D01*
X165591000Y-72409000D02*
X166250000Y-73068000D01*
X166250000Y-73068000D02*
X166250000Y-74000000D01*
X107160000Y-82000000D02*
X107160000Y-80822700D01*
X95250000Y-74000000D02*
X94591000Y-74659000D01*
X94591000Y-74659000D02*
X94591000Y-75591000D01*
X90750000Y-74000000D02*
X91409000Y-73341000D01*
X91409000Y-73341000D02*
X91409000Y-72409000D01*
X91409000Y-75591000D02*
X90750000Y-74932000D01*
X90750000Y-74932000D02*
X90750000Y-74000000D01*
X95250000Y-74000000D02*
X94591000Y-73341000D01*
X94591000Y-73341000D02*
X94591000Y-72409000D01*
X166250000Y-134000000D02*
X165591000Y-134659000D01*
X165591000Y-134659000D02*
X165591000Y-135591000D01*
X118142300Y-97930400D02*
X117700000Y-98372700D01*
X118142300Y-88203300D02*
X118142300Y-97930400D01*
X113510000Y-83571000D02*
X118142300Y-88203300D01*
X113510000Y-81528038D02*
X113510000Y-83571000D01*
X117700000Y-98372700D02*
X117700000Y-99500000D01*
X111781962Y-79800000D02*
X113510000Y-81528038D01*
X110000000Y-79800000D02*
X111781962Y-79800000D01*
X109180000Y-78802700D02*
X109180000Y-78980000D01*
X105922700Y-126222700D02*
X105922700Y-127022700D01*
X106150000Y-127250000D02*
X107050000Y-127250000D01*
X105922700Y-127022700D02*
X106150000Y-127250000D01*
X128835700Y-126644300D02*
X129080000Y-126400000D01*
X126337600Y-136737600D02*
X126562400Y-136962400D01*
X126337600Y-136637600D02*
X126337600Y-136737600D01*
X126562400Y-136962400D02*
X139262400Y-136962400D01*
X126337600Y-136962400D02*
X126562400Y-136962400D01*
X126337600Y-136962400D02*
X126337600Y-136637600D01*
X126337600Y-136637600D02*
X126337600Y-128503700D01*
X125392300Y-127407700D02*
X125241600Y-127558400D01*
X125392300Y-127307700D02*
X125392300Y-127407700D01*
X125241600Y-127558400D02*
X125392300Y-127558400D01*
X108485700Y-127558400D02*
X125241600Y-127558400D01*
X125392300Y-127558400D02*
X125392300Y-127307700D01*
X125392300Y-127307700D02*
X125392300Y-121055000D01*
X126459800Y-128381500D02*
X126470650Y-128370650D01*
X126215500Y-128381500D02*
X126459800Y-128381500D01*
X126470650Y-128370650D02*
X126337600Y-128503700D01*
X127952700Y-126888600D02*
X126470650Y-128370650D01*
X128591400Y-126888600D02*
X129080000Y-126400000D01*
X127952700Y-126888600D02*
X128591400Y-126888600D01*
X105200000Y-125300000D02*
X105000000Y-125500000D01*
X105000000Y-125500000D02*
X105200000Y-125500000D01*
X105200000Y-125500000D02*
X105200000Y-125300000D01*
X103550000Y-125500000D02*
X105000000Y-125500000D01*
X105200000Y-125300000D02*
X105200000Y-107177300D01*
X109258650Y-79141350D02*
X109300000Y-79100000D01*
X109300000Y-79100000D02*
X110000000Y-79800000D01*
X109180000Y-78980000D02*
X109300000Y-79100000D01*
X108841350Y-79141350D02*
X109258650Y-79141350D01*
X107160000Y-80822700D02*
X108841350Y-79141350D01*
X108841350Y-79141350D02*
X109180000Y-78802700D01*
%TO.N,Net-(C1-Pad1)*%
X162500000Y-98500000D02*
X159498200Y-98500000D01*
X159498200Y-98500000D02*
X153500000Y-92501800D01*
X153500000Y-92501800D02*
X153500000Y-89500000D01*
X164800000Y-103500000D02*
X164800000Y-100800000D01*
X164800000Y-100800000D02*
X162500000Y-98500000D01*
%TO.N,Net-(C3-Pad1)*%
X117700000Y-107000000D02*
X128352700Y-117652700D01*
X128352700Y-118052700D02*
X129080000Y-118780000D01*
X128352700Y-117652700D02*
X128352700Y-118052700D01*
%TO.N,VDD*%
X148500000Y-86120000D02*
X148500000Y-98600000D01*
X148500000Y-98600000D02*
X153400000Y-103500000D01*
X131620000Y-118780000D02*
X131620000Y-117652700D01*
X126540000Y-126400000D02*
X126540000Y-125272700D01*
X126540000Y-125272700D02*
X131620000Y-120192700D01*
X131620000Y-120192700D02*
X131620000Y-118780000D01*
X160268000Y-111400000D02*
X160268000Y-110368000D01*
X160268000Y-110368000D02*
X153400000Y-103500000D01*
X122900000Y-107000000D02*
X122900000Y-108932700D01*
X122900000Y-108932700D02*
X131620000Y-117652700D01*
X160272700Y-121400000D02*
X160268000Y-121395300D01*
X160268000Y-121395300D02*
X160268000Y-111400000D01*
X160268000Y-111400000D02*
X160272700Y-111400000D01*
X106500000Y-136000000D02*
X106500000Y-133000000D01*
X99540000Y-82000000D02*
X99540000Y-83177300D01*
X104390700Y-94662700D02*
X99540100Y-89812100D01*
X99540100Y-89812100D02*
X99540100Y-83177300D01*
X99540100Y-83177300D02*
X99540000Y-83177300D01*
X161500000Y-111400000D02*
X160272700Y-111400000D01*
X161500000Y-121400000D02*
X160272700Y-121400000D01*
X99540000Y-82000000D02*
X99540000Y-78760000D01*
X148480000Y-86100000D02*
X148500000Y-86120000D01*
X144300000Y-86100000D02*
X148480000Y-86100000D01*
X99540000Y-78760000D02*
X104100000Y-74200000D01*
X104390700Y-95030700D02*
X105200000Y-95840000D01*
X104390700Y-94662700D02*
X104390700Y-95030700D01*
%TO.N,Net-(C7-Pad2)*%
X129100000Y-128920000D02*
X131620000Y-126400000D01*
X129100000Y-130600000D02*
X129100000Y-128920000D01*
X129100000Y-133740000D02*
X130410000Y-135050000D01*
X129100000Y-130600000D02*
X129100000Y-133740000D01*
%TO.N,Net-(C8-Pad2)*%
X136720000Y-131163600D02*
X136720000Y-130600000D01*
X136720000Y-128960000D02*
X134160000Y-126400000D01*
X136720000Y-130600000D02*
X136720000Y-128960000D01*
X136720000Y-133620000D02*
X135290000Y-135050000D01*
X136720000Y-130600000D02*
X136720000Y-133620000D01*
%TO.N,Net-(D1-Pad2)*%
X140100000Y-78480000D02*
X140100000Y-77352700D01*
X140100000Y-77352700D02*
X137640000Y-74892700D01*
X137640000Y-74892700D02*
X137640000Y-72400000D01*
%TO.N,Net-(D2-Pad1)*%
X142300000Y-74827300D02*
X141100000Y-73627300D01*
X141100000Y-73627300D02*
X141100000Y-72400000D01*
X144800000Y-90500000D02*
X142300000Y-88000000D01*
X142300000Y-88000000D02*
X142300000Y-74827300D01*
X144800000Y-94700000D02*
X144800000Y-90500000D01*
X144600000Y-94900000D02*
X144800000Y-94700000D01*
X144400000Y-95100000D02*
X144800000Y-94700000D01*
%TO.N,Net-(D2-Pad2)*%
X144300000Y-78480000D02*
X144300000Y-77352700D01*
X144300000Y-77352700D02*
X143640000Y-76692700D01*
X143640000Y-76692700D02*
X143640000Y-72400000D01*
%TO.N,Net-(D4-Pad2)*%
X148500000Y-78500000D02*
X149640000Y-77360000D01*
X149640000Y-77360000D02*
X149640000Y-72400000D01*
%TO.N,V0*%
X106640000Y-76740000D02*
X103060000Y-76740000D01*
X102080000Y-77720000D02*
X102080000Y-82000000D01*
X103060000Y-76740000D02*
X102080000Y-77720000D01*
%TO.N,D3*%
X106964400Y-88264400D02*
X104620000Y-85920000D01*
X115964400Y-88264400D02*
X106964400Y-88264400D01*
X117233700Y-89533700D02*
X115964400Y-88264400D01*
X117233700Y-95698500D02*
X117233700Y-89533700D01*
X116100000Y-96832200D02*
X117233700Y-95698500D01*
X104620000Y-85920000D02*
X104620000Y-82000000D01*
X116100000Y-109986200D02*
X116100000Y-96832200D01*
X120047400Y-113933600D02*
X116100000Y-109986200D01*
X120047400Y-123860100D02*
X120047400Y-113933600D01*
X121460000Y-125272700D02*
X120047400Y-123860100D01*
X121460000Y-126400000D02*
X121460000Y-125272700D01*
%TO.N,D4*%
X109700000Y-86300000D02*
X109700000Y-82000000D01*
X116186390Y-87810390D02*
X111210390Y-87810390D01*
X117688000Y-89312000D02*
X116186390Y-87810390D01*
X122872700Y-115553000D02*
X116554400Y-109234700D01*
X116554400Y-109234700D02*
X116554400Y-97020300D01*
X122872700Y-124145400D02*
X122872700Y-115553000D01*
X111210390Y-87810390D02*
X109700000Y-86300000D01*
X124000000Y-125272700D02*
X122872700Y-124145400D01*
X117688000Y-95886700D02*
X117688000Y-89312000D01*
X116554400Y-97020300D02*
X117688000Y-95886700D01*
X124000000Y-126400000D02*
X124000000Y-125272700D01*
%TO.N,D5*%
X122400000Y-82000000D02*
X122400000Y-83177300D01*
X136700000Y-126400000D02*
X136700000Y-125272700D01*
X122400000Y-83177300D02*
X125100800Y-85878100D01*
X125100800Y-85878100D02*
X125100800Y-108582600D01*
X125100800Y-108582600D02*
X132890000Y-116371800D01*
X132890000Y-116371800D02*
X132890000Y-121462700D01*
X132890000Y-121462700D02*
X136700000Y-125272700D01*
%TO.N,D6*%
X139240000Y-125272700D02*
X135572700Y-121605400D01*
X135572700Y-121605400D02*
X135572700Y-116782800D01*
X135572700Y-116782800D02*
X125782200Y-106992300D01*
X125782200Y-106992300D02*
X125782200Y-84019500D01*
X125782200Y-84019500D02*
X124940000Y-83177300D01*
X139240000Y-126400000D02*
X139240000Y-125272700D01*
X124940000Y-82000000D02*
X124940000Y-83177300D01*
%TO.N,D7*%
X141780000Y-126400000D02*
X141780000Y-125272700D01*
X127480000Y-82000000D02*
X127480000Y-106686700D01*
X127480000Y-106686700D02*
X137970000Y-117176700D01*
X137970000Y-117176700D02*
X137970000Y-121462700D01*
X137970000Y-121462700D02*
X141780000Y-125272700D01*
%TO.N,D8*%
X144320000Y-125272700D02*
X140510000Y-121462700D01*
X140510000Y-121462700D02*
X140510000Y-118249800D01*
X140510000Y-118249800D02*
X130020000Y-107759800D01*
X130020000Y-107759800D02*
X130020000Y-82000000D01*
X144320000Y-126400000D02*
X144320000Y-125272700D01*
%TO.N,BLA*%
X144320000Y-117652700D02*
X132560000Y-105892700D01*
X132560000Y-105892700D02*
X132560000Y-82000000D01*
X144320000Y-118780000D02*
X144320000Y-117652700D01*
%TO.N,TX*%
X113840000Y-126400000D02*
X113840000Y-125272700D01*
X116100000Y-90000000D02*
X114967500Y-91132500D01*
X114967500Y-91132500D02*
X114967500Y-124145200D01*
X114967500Y-124145200D02*
X113840000Y-125272700D01*
%TO.N,RX*%
X116100000Y-95000000D02*
X115645700Y-95454300D01*
X115645700Y-95454300D02*
X115645700Y-114731200D01*
X115645700Y-114731200D02*
X117527700Y-116613200D01*
X117527700Y-116613200D02*
X117527700Y-124125000D01*
X117527700Y-124125000D02*
X116380000Y-125272700D01*
X116380000Y-126400000D02*
X116380000Y-125272700D01*
%TO.N,ICSP_RST*%
X98880000Y-136000000D02*
X98880000Y-133000000D01*
X111300000Y-126400000D02*
X111300000Y-125272700D01*
X105567900Y-104637300D02*
X110172700Y-109242100D01*
X110172700Y-109242100D02*
X110172700Y-124145400D01*
X110172700Y-124145400D02*
X111300000Y-125272700D01*
X105567900Y-103827900D02*
X105200000Y-103460000D01*
X105567900Y-104637300D02*
X105567900Y-103827900D01*
%TD*%
%TO.N,BLK*%
G36*
X169340001Y-134967581D02*
G01*
X169340000Y-139340000D01*
X141135286Y-139340000D01*
X141141514Y-139336671D01*
X141213097Y-139092702D01*
X140400000Y-138279605D01*
X139586903Y-139092702D01*
X139658486Y-139336671D01*
X139665522Y-139340000D01*
X125935286Y-139340000D01*
X125941514Y-139336671D01*
X126013097Y-139092702D01*
X125200000Y-138279605D01*
X124386903Y-139092702D01*
X124458486Y-139336671D01*
X124465522Y-139340000D01*
X87660000Y-139340000D01*
X87660000Y-138170512D01*
X123759783Y-138170512D01*
X123801213Y-138450130D01*
X123896397Y-138716292D01*
X123963329Y-138841514D01*
X124207298Y-138913097D01*
X125020395Y-138100000D01*
X125379605Y-138100000D01*
X126192702Y-138913097D01*
X126436671Y-138841514D01*
X126557571Y-138586004D01*
X126626300Y-138311816D01*
X126633265Y-138170512D01*
X138959783Y-138170512D01*
X139001213Y-138450130D01*
X139096397Y-138716292D01*
X139163329Y-138841514D01*
X139407298Y-138913097D01*
X140220395Y-138100000D01*
X140579605Y-138100000D01*
X141392702Y-138913097D01*
X141636671Y-138841514D01*
X141757571Y-138586004D01*
X141826300Y-138311816D01*
X141840217Y-138029488D01*
X141798787Y-137749870D01*
X141703603Y-137483708D01*
X141636671Y-137358486D01*
X141392702Y-137286903D01*
X140579605Y-138100000D01*
X140220395Y-138100000D01*
X139407298Y-137286903D01*
X139163329Y-137358486D01*
X139042429Y-137613996D01*
X138973700Y-137888184D01*
X138959783Y-138170512D01*
X126633265Y-138170512D01*
X126640217Y-138029488D01*
X126598787Y-137749870D01*
X126503603Y-137483708D01*
X126436671Y-137358486D01*
X126192702Y-137286903D01*
X125379605Y-138100000D01*
X125020395Y-138100000D01*
X124207298Y-137286903D01*
X123963329Y-137358486D01*
X123842429Y-137613996D01*
X123773700Y-137888184D01*
X123759783Y-138170512D01*
X87660000Y-138170512D01*
X87660000Y-136558686D01*
X90620919Y-136558686D01*
X90957106Y-137027868D01*
X91587068Y-137368237D01*
X92271327Y-137579166D01*
X92983589Y-137652550D01*
X93696482Y-137585569D01*
X94382609Y-137380796D01*
X95015603Y-137046102D01*
X95042894Y-137027868D01*
X95379081Y-136558686D01*
X93000000Y-134179605D01*
X90620919Y-136558686D01*
X87660000Y-136558686D01*
X87660000Y-133983589D01*
X89347450Y-133983589D01*
X89414431Y-134696482D01*
X89619204Y-135382609D01*
X89953898Y-136015603D01*
X89972132Y-136042894D01*
X90441314Y-136379081D01*
X92820395Y-134000000D01*
X93179605Y-134000000D01*
X95558686Y-136379081D01*
X96027868Y-136042894D01*
X96368237Y-135412932D01*
X96579166Y-134728673D01*
X96652550Y-134016411D01*
X96585569Y-133303518D01*
X96452804Y-132858665D01*
X97445000Y-132858665D01*
X97445000Y-133141335D01*
X97500147Y-133418574D01*
X97608320Y-133679727D01*
X97765363Y-133914759D01*
X97965241Y-134114637D01*
X98118001Y-134216707D01*
X98118000Y-134783293D01*
X97965241Y-134885363D01*
X97765363Y-135085241D01*
X97608320Y-135320273D01*
X97500147Y-135581426D01*
X97445000Y-135858665D01*
X97445000Y-136141335D01*
X97500147Y-136418574D01*
X97608320Y-136679727D01*
X97765363Y-136914759D01*
X97965241Y-137114637D01*
X98200273Y-137271680D01*
X98461426Y-137379853D01*
X98738665Y-137435000D01*
X99021335Y-137435000D01*
X99298574Y-137379853D01*
X99559727Y-137271680D01*
X99794759Y-137114637D01*
X99994637Y-136914759D01*
X100151680Y-136679727D01*
X100259853Y-136418574D01*
X100315000Y-136141335D01*
X100315000Y-135858665D01*
X100259853Y-135581426D01*
X100151680Y-135320273D01*
X99994637Y-135085241D01*
X99794759Y-134885363D01*
X99642000Y-134783293D01*
X99642000Y-134216707D01*
X99794759Y-134114637D01*
X99994637Y-133914759D01*
X100151680Y-133679727D01*
X100259853Y-133418574D01*
X100315000Y-133141335D01*
X100315000Y-132858665D01*
X100259853Y-132581426D01*
X100151680Y-132320273D01*
X100071317Y-132200000D01*
X105061928Y-132200000D01*
X105061928Y-133800000D01*
X105074188Y-133924482D01*
X105110498Y-134044180D01*
X105169463Y-134154494D01*
X105248815Y-134251185D01*
X105345506Y-134330537D01*
X105455820Y-134389502D01*
X105575518Y-134425812D01*
X105700000Y-134438072D01*
X105738001Y-134438072D01*
X105738000Y-134783293D01*
X105585241Y-134885363D01*
X105385363Y-135085241D01*
X105228320Y-135320273D01*
X105120147Y-135581426D01*
X105065000Y-135858665D01*
X105065000Y-136141335D01*
X105120147Y-136418574D01*
X105228320Y-136679727D01*
X105385363Y-136914759D01*
X105585241Y-137114637D01*
X105820273Y-137271680D01*
X106081426Y-137379853D01*
X106358665Y-137435000D01*
X106641335Y-137435000D01*
X106918574Y-137379853D01*
X107179727Y-137271680D01*
X107414759Y-137114637D01*
X107422098Y-137107298D01*
X124386903Y-137107298D01*
X125200000Y-137920395D01*
X126013097Y-137107298D01*
X139586903Y-137107298D01*
X140400000Y-137920395D01*
X141213097Y-137107298D01*
X141141514Y-136863329D01*
X140886004Y-136742429D01*
X140611816Y-136673700D01*
X140329488Y-136659783D01*
X140049870Y-136701213D01*
X139783708Y-136796397D01*
X139658486Y-136863329D01*
X139586903Y-137107298D01*
X126013097Y-137107298D01*
X125941514Y-136863329D01*
X125686004Y-136742429D01*
X125411816Y-136673700D01*
X125129488Y-136659783D01*
X124849870Y-136701213D01*
X124583708Y-136796397D01*
X124458486Y-136863329D01*
X124386903Y-137107298D01*
X107422098Y-137107298D01*
X107614637Y-136914759D01*
X107771680Y-136679727D01*
X107821816Y-136558686D01*
X161620919Y-136558686D01*
X161957106Y-137027868D01*
X162587068Y-137368237D01*
X163271327Y-137579166D01*
X163983589Y-137652550D01*
X164696482Y-137585569D01*
X165382609Y-137380796D01*
X166015603Y-137046102D01*
X166042894Y-137027868D01*
X166379081Y-136558686D01*
X164000000Y-134179605D01*
X161620919Y-136558686D01*
X107821816Y-136558686D01*
X107879853Y-136418574D01*
X107935000Y-136141335D01*
X107935000Y-135858665D01*
X107879853Y-135581426D01*
X107771680Y-135320273D01*
X107614637Y-135085241D01*
X107414759Y-134885363D01*
X107262000Y-134783293D01*
X107262000Y-134438072D01*
X107300000Y-134438072D01*
X107424482Y-134425812D01*
X107544180Y-134389502D01*
X107654494Y-134330537D01*
X107751185Y-134251185D01*
X107830537Y-134154494D01*
X107889502Y-134044180D01*
X107925812Y-133924482D01*
X107938072Y-133800000D01*
X107938072Y-132200000D01*
X107925812Y-132075518D01*
X107889502Y-131955820D01*
X107830537Y-131845506D01*
X107751185Y-131748815D01*
X107654494Y-131669463D01*
X107544180Y-131610498D01*
X107424482Y-131574188D01*
X107300000Y-131561928D01*
X105700000Y-131561928D01*
X105575518Y-131574188D01*
X105455820Y-131610498D01*
X105345506Y-131669463D01*
X105248815Y-131748815D01*
X105169463Y-131845506D01*
X105110498Y-131955820D01*
X105074188Y-132075518D01*
X105061928Y-132200000D01*
X100071317Y-132200000D01*
X99994637Y-132085241D01*
X99794759Y-131885363D01*
X99559727Y-131728320D01*
X99298574Y-131620147D01*
X99021335Y-131565000D01*
X98738665Y-131565000D01*
X98461426Y-131620147D01*
X98200273Y-131728320D01*
X97965241Y-131885363D01*
X97765363Y-132085241D01*
X97608320Y-132320273D01*
X97500147Y-132581426D01*
X97445000Y-132858665D01*
X96452804Y-132858665D01*
X96380796Y-132617391D01*
X96046102Y-131984397D01*
X96027868Y-131957106D01*
X95558686Y-131620919D01*
X93179605Y-134000000D01*
X92820395Y-134000000D01*
X90441314Y-131620919D01*
X89972132Y-131957106D01*
X89631763Y-132587068D01*
X89420834Y-133271327D01*
X89347450Y-133983589D01*
X87660000Y-133983589D01*
X87660000Y-131441314D01*
X90620919Y-131441314D01*
X93000000Y-133820395D01*
X95379081Y-131441314D01*
X95042894Y-130972132D01*
X94412932Y-130631763D01*
X93851398Y-130458665D01*
X123765000Y-130458665D01*
X123765000Y-130741335D01*
X123820147Y-131018574D01*
X123928320Y-131279727D01*
X124085363Y-131514759D01*
X124285241Y-131714637D01*
X124520273Y-131871680D01*
X124781426Y-131979853D01*
X125058665Y-132035000D01*
X125341335Y-132035000D01*
X125618574Y-131979853D01*
X125879727Y-131871680D01*
X126114759Y-131714637D01*
X126314637Y-131514759D01*
X126471680Y-131279727D01*
X126579853Y-131018574D01*
X126635000Y-130741335D01*
X126635000Y-130458665D01*
X126579853Y-130181426D01*
X126471680Y-129920273D01*
X126314637Y-129685241D01*
X126114759Y-129485363D01*
X125879727Y-129328320D01*
X125618574Y-129220147D01*
X125341335Y-129165000D01*
X125058665Y-129165000D01*
X124781426Y-129220147D01*
X124520273Y-129328320D01*
X124285241Y-129485363D01*
X124085363Y-129685241D01*
X123928320Y-129920273D01*
X123820147Y-130181426D01*
X123765000Y-130458665D01*
X93851398Y-130458665D01*
X93728673Y-130420834D01*
X93016411Y-130347450D01*
X92303518Y-130414431D01*
X91617391Y-130619204D01*
X90984397Y-130953898D01*
X90957106Y-130972132D01*
X90620919Y-131441314D01*
X87660000Y-131441314D01*
X87660000Y-127769040D01*
X88608091Y-127769040D01*
X88702930Y-128033881D01*
X88847615Y-128275131D01*
X89036586Y-128483519D01*
X89262580Y-128651037D01*
X89516913Y-128771246D01*
X89650961Y-128811904D01*
X89873000Y-128689915D01*
X89873000Y-127547000D01*
X90127000Y-127547000D01*
X90127000Y-128689915D01*
X90349039Y-128811904D01*
X90483087Y-128771246D01*
X90737420Y-128651037D01*
X90963414Y-128483519D01*
X91152385Y-128275131D01*
X91297070Y-128033881D01*
X91391909Y-127769040D01*
X91270624Y-127547000D01*
X90127000Y-127547000D01*
X89873000Y-127547000D01*
X88729376Y-127547000D01*
X88608091Y-127769040D01*
X87660000Y-127769040D01*
X87660000Y-127070960D01*
X88608091Y-127070960D01*
X88729376Y-127293000D01*
X89873000Y-127293000D01*
X89873000Y-126150085D01*
X90127000Y-126150085D01*
X90127000Y-127293000D01*
X91270624Y-127293000D01*
X91289378Y-127258665D01*
X91965000Y-127258665D01*
X91965000Y-127541335D01*
X92020147Y-127818574D01*
X92128320Y-128079727D01*
X92285363Y-128314759D01*
X92485241Y-128514637D01*
X92720273Y-128671680D01*
X92981426Y-128779853D01*
X93258665Y-128835000D01*
X93541335Y-128835000D01*
X93818574Y-128779853D01*
X94079727Y-128671680D01*
X94314759Y-128514637D01*
X94514637Y-128314759D01*
X94671680Y-128079727D01*
X94779853Y-127818574D01*
X94823521Y-127599040D01*
X105658091Y-127599040D01*
X105752930Y-127863881D01*
X105897615Y-128105131D01*
X106086586Y-128313519D01*
X106312580Y-128481037D01*
X106566913Y-128601246D01*
X106700961Y-128641904D01*
X106923000Y-128519915D01*
X106923000Y-127377000D01*
X107177000Y-127377000D01*
X107177000Y-128519915D01*
X107399039Y-128641904D01*
X107533087Y-128601246D01*
X107787420Y-128481037D01*
X108013414Y-128313519D01*
X108202385Y-128105131D01*
X108347070Y-127863881D01*
X108441909Y-127599040D01*
X108320624Y-127377000D01*
X107177000Y-127377000D01*
X106923000Y-127377000D01*
X105779376Y-127377000D01*
X105658091Y-127599040D01*
X94823521Y-127599040D01*
X94835000Y-127541335D01*
X94835000Y-127258665D01*
X94779853Y-126981426D01*
X94671680Y-126720273D01*
X94614979Y-126635413D01*
X96094192Y-126635413D01*
X96189956Y-126899814D01*
X96479571Y-127040704D01*
X96791108Y-127122384D01*
X97112595Y-127141718D01*
X97431675Y-127097961D01*
X97736088Y-126992795D01*
X97910044Y-126899814D01*
X98005808Y-126635413D01*
X102594192Y-126635413D01*
X102689956Y-126899814D01*
X102979571Y-127040704D01*
X103291108Y-127122384D01*
X103612595Y-127141718D01*
X103931675Y-127097961D01*
X104236088Y-126992795D01*
X104407899Y-126900960D01*
X105658091Y-126900960D01*
X105779376Y-127123000D01*
X106923000Y-127123000D01*
X106923000Y-125980085D01*
X107177000Y-125980085D01*
X107177000Y-127123000D01*
X108320624Y-127123000D01*
X108441909Y-126900960D01*
X108347070Y-126636119D01*
X108202385Y-126394869D01*
X108013414Y-126186481D01*
X107787420Y-126018963D01*
X107533087Y-125898754D01*
X107399039Y-125858096D01*
X107177000Y-125980085D01*
X106923000Y-125980085D01*
X106700961Y-125858096D01*
X106566913Y-125898754D01*
X106312580Y-126018963D01*
X106086586Y-126186481D01*
X105897615Y-126394869D01*
X105752930Y-126636119D01*
X105658091Y-126900960D01*
X104407899Y-126900960D01*
X104410044Y-126899814D01*
X104505808Y-126635413D01*
X103550000Y-125679605D01*
X102594192Y-126635413D01*
X98005808Y-126635413D01*
X97050000Y-125679605D01*
X96094192Y-126635413D01*
X94614979Y-126635413D01*
X94514637Y-126485241D01*
X94314759Y-126285363D01*
X94079727Y-126128320D01*
X93818574Y-126020147D01*
X93541335Y-125965000D01*
X93258665Y-125965000D01*
X92981426Y-126020147D01*
X92720273Y-126128320D01*
X92485241Y-126285363D01*
X92285363Y-126485241D01*
X92128320Y-126720273D01*
X92020147Y-126981426D01*
X91965000Y-127258665D01*
X91289378Y-127258665D01*
X91391909Y-127070960D01*
X91297070Y-126806119D01*
X91152385Y-126564869D01*
X90963414Y-126356481D01*
X90737420Y-126188963D01*
X90483087Y-126068754D01*
X90349039Y-126028096D01*
X90127000Y-126150085D01*
X89873000Y-126150085D01*
X89650961Y-126028096D01*
X89516913Y-126068754D01*
X89262580Y-126188963D01*
X89036586Y-126356481D01*
X88847615Y-126564869D01*
X88702930Y-126806119D01*
X88608091Y-127070960D01*
X87660000Y-127070960D01*
X87660000Y-125562595D01*
X95408282Y-125562595D01*
X95452039Y-125881675D01*
X95557205Y-126186088D01*
X95650186Y-126360044D01*
X95914587Y-126455808D01*
X96870395Y-125500000D01*
X97229605Y-125500000D01*
X98185413Y-126455808D01*
X98449814Y-126360044D01*
X98590704Y-126070429D01*
X98672384Y-125758892D01*
X98684189Y-125562595D01*
X101908282Y-125562595D01*
X101952039Y-125881675D01*
X102057205Y-126186088D01*
X102150186Y-126360044D01*
X102414587Y-126455808D01*
X103370395Y-125500000D01*
X103729605Y-125500000D01*
X104685413Y-126455808D01*
X104949814Y-126360044D01*
X105090704Y-126070429D01*
X105172384Y-125758892D01*
X105191718Y-125437405D01*
X105147961Y-125118325D01*
X105042795Y-124813912D01*
X104949814Y-124639956D01*
X104685413Y-124544192D01*
X103729605Y-125500000D01*
X103370395Y-125500000D01*
X102414587Y-124544192D01*
X102150186Y-124639956D01*
X102009296Y-124929571D01*
X101927616Y-125241108D01*
X101908282Y-125562595D01*
X98684189Y-125562595D01*
X98691718Y-125437405D01*
X98647961Y-125118325D01*
X98542795Y-124813912D01*
X98449814Y-124639956D01*
X98185413Y-124544192D01*
X97229605Y-125500000D01*
X96870395Y-125500000D01*
X95914587Y-124544192D01*
X95650186Y-124639956D01*
X95509296Y-124929571D01*
X95427616Y-125241108D01*
X95408282Y-125562595D01*
X87660000Y-125562595D01*
X87660000Y-124364587D01*
X96094192Y-124364587D01*
X97050000Y-125320395D01*
X98005808Y-124364587D01*
X102594192Y-124364587D01*
X103550000Y-125320395D01*
X104505808Y-124364587D01*
X104410044Y-124100186D01*
X104120429Y-123959296D01*
X103808892Y-123877616D01*
X103487405Y-123858282D01*
X103168325Y-123902039D01*
X102863912Y-124007205D01*
X102689956Y-124100186D01*
X102594192Y-124364587D01*
X98005808Y-124364587D01*
X97910044Y-124100186D01*
X97620429Y-123959296D01*
X97308892Y-123877616D01*
X96987405Y-123858282D01*
X96668325Y-123902039D01*
X96363912Y-124007205D01*
X96189956Y-124100186D01*
X96094192Y-124364587D01*
X87660000Y-124364587D01*
X87660000Y-119658665D01*
X88565000Y-119658665D01*
X88565000Y-119941335D01*
X88620147Y-120218574D01*
X88728320Y-120479727D01*
X88885363Y-120714759D01*
X89085241Y-120914637D01*
X89320273Y-121071680D01*
X89581426Y-121179853D01*
X89858665Y-121235000D01*
X90141335Y-121235000D01*
X90418574Y-121179853D01*
X90679727Y-121071680D01*
X90914759Y-120914637D01*
X91114637Y-120714759D01*
X91271680Y-120479727D01*
X91379853Y-120218574D01*
X91435000Y-119941335D01*
X91435000Y-119758665D01*
X91965000Y-119758665D01*
X91965000Y-120041335D01*
X92020147Y-120318574D01*
X92128320Y-120579727D01*
X92285363Y-120814759D01*
X92485241Y-121014637D01*
X92720273Y-121171680D01*
X92981426Y-121279853D01*
X93258665Y-121335000D01*
X93541335Y-121335000D01*
X93818574Y-121279853D01*
X94079727Y-121171680D01*
X94314759Y-121014637D01*
X94490429Y-120838967D01*
X95415000Y-120838967D01*
X95415000Y-121161033D01*
X95477832Y-121476912D01*
X95601082Y-121774463D01*
X95780013Y-122042252D01*
X96007748Y-122269987D01*
X96275537Y-122448918D01*
X96573088Y-122572168D01*
X96888967Y-122635000D01*
X97211033Y-122635000D01*
X97526912Y-122572168D01*
X97824463Y-122448918D01*
X98092252Y-122269987D01*
X98319987Y-122042252D01*
X98498918Y-121774463D01*
X98622168Y-121476912D01*
X98685000Y-121161033D01*
X98685000Y-120838967D01*
X101915000Y-120838967D01*
X101915000Y-121161033D01*
X101977832Y-121476912D01*
X102101082Y-121774463D01*
X102280013Y-122042252D01*
X102507748Y-122269987D01*
X102775537Y-122448918D01*
X103073088Y-122572168D01*
X103388967Y-122635000D01*
X103711033Y-122635000D01*
X104026912Y-122572168D01*
X104324463Y-122448918D01*
X104592252Y-122269987D01*
X104819987Y-122042252D01*
X104998918Y-121774463D01*
X105122168Y-121476912D01*
X105185000Y-121161033D01*
X105185000Y-120838967D01*
X105122168Y-120523088D01*
X104998918Y-120225537D01*
X104819987Y-119957748D01*
X104592252Y-119730013D01*
X104324463Y-119551082D01*
X104173776Y-119488665D01*
X105615000Y-119488665D01*
X105615000Y-119771335D01*
X105670147Y-120048574D01*
X105778320Y-120309727D01*
X105935363Y-120544759D01*
X106135241Y-120744637D01*
X106370273Y-120901680D01*
X106631426Y-121009853D01*
X106908665Y-121065000D01*
X107191335Y-121065000D01*
X107468574Y-121009853D01*
X107729727Y-120901680D01*
X107964759Y-120744637D01*
X108164637Y-120544759D01*
X108321680Y-120309727D01*
X108429853Y-120048574D01*
X108485000Y-119771335D01*
X108485000Y-119488665D01*
X108429853Y-119211426D01*
X108321680Y-118950273D01*
X108164637Y-118715241D01*
X107964759Y-118515363D01*
X107729727Y-118358320D01*
X107468574Y-118250147D01*
X107191335Y-118195000D01*
X106908665Y-118195000D01*
X106631426Y-118250147D01*
X106370273Y-118358320D01*
X106135241Y-118515363D01*
X105935363Y-118715241D01*
X105778320Y-118950273D01*
X105670147Y-119211426D01*
X105615000Y-119488665D01*
X104173776Y-119488665D01*
X104026912Y-119427832D01*
X103711033Y-119365000D01*
X103388967Y-119365000D01*
X103073088Y-119427832D01*
X102775537Y-119551082D01*
X102507748Y-119730013D01*
X102280013Y-119957748D01*
X102101082Y-120225537D01*
X101977832Y-120523088D01*
X101915000Y-120838967D01*
X98685000Y-120838967D01*
X98622168Y-120523088D01*
X98498918Y-120225537D01*
X98319987Y-119957748D01*
X98092252Y-119730013D01*
X97824463Y-119551082D01*
X97526912Y-119427832D01*
X97211033Y-119365000D01*
X96888967Y-119365000D01*
X96573088Y-119427832D01*
X96275537Y-119551082D01*
X96007748Y-119730013D01*
X95780013Y-119957748D01*
X95601082Y-120225537D01*
X95477832Y-120523088D01*
X95415000Y-120838967D01*
X94490429Y-120838967D01*
X94514637Y-120814759D01*
X94671680Y-120579727D01*
X94779853Y-120318574D01*
X94835000Y-120041335D01*
X94835000Y-119758665D01*
X94779853Y-119481426D01*
X94671680Y-119220273D01*
X94514637Y-118985241D01*
X94314759Y-118785363D01*
X94079727Y-118628320D01*
X93818574Y-118520147D01*
X93541335Y-118465000D01*
X93258665Y-118465000D01*
X92981426Y-118520147D01*
X92720273Y-118628320D01*
X92485241Y-118785363D01*
X92285363Y-118985241D01*
X92128320Y-119220273D01*
X92020147Y-119481426D01*
X91965000Y-119758665D01*
X91435000Y-119758665D01*
X91435000Y-119658665D01*
X91379853Y-119381426D01*
X91271680Y-119120273D01*
X91114637Y-118885241D01*
X90914759Y-118685363D01*
X90679727Y-118528320D01*
X90418574Y-118420147D01*
X90141335Y-118365000D01*
X89858665Y-118365000D01*
X89581426Y-118420147D01*
X89320273Y-118528320D01*
X89085241Y-118685363D01*
X88885363Y-118885241D01*
X88728320Y-119120273D01*
X88620147Y-119381426D01*
X88565000Y-119658665D01*
X87660000Y-119658665D01*
X87660000Y-106356890D01*
X103758524Y-106356890D01*
X103803175Y-106504099D01*
X103928359Y-106766920D01*
X104102412Y-107000269D01*
X104318645Y-107195178D01*
X104568748Y-107344157D01*
X104843109Y-107441481D01*
X105073000Y-107320814D01*
X105073000Y-106127000D01*
X103879845Y-106127000D01*
X103758524Y-106356890D01*
X87660000Y-106356890D01*
X87660000Y-82850000D01*
X95511928Y-82850000D01*
X95524188Y-82974482D01*
X95560498Y-83094180D01*
X95619463Y-83204494D01*
X95698815Y-83301185D01*
X95795506Y-83380537D01*
X95905820Y-83439502D01*
X96025518Y-83475812D01*
X96150000Y-83488072D01*
X96714250Y-83485000D01*
X96873000Y-83326250D01*
X96873000Y-82127000D01*
X95673750Y-82127000D01*
X95515000Y-82285750D01*
X95511928Y-82850000D01*
X87660000Y-82850000D01*
X87660000Y-81150000D01*
X95511928Y-81150000D01*
X95515000Y-81714250D01*
X95673750Y-81873000D01*
X96873000Y-81873000D01*
X96873000Y-80673750D01*
X97127000Y-80673750D01*
X97127000Y-81873000D01*
X97147000Y-81873000D01*
X97147000Y-82127000D01*
X97127000Y-82127000D01*
X97127000Y-83326250D01*
X97285750Y-83485000D01*
X97850000Y-83488072D01*
X97974482Y-83475812D01*
X98094180Y-83439502D01*
X98204494Y-83380537D01*
X98301185Y-83301185D01*
X98380537Y-83204494D01*
X98439502Y-83094180D01*
X98461513Y-83021620D01*
X98593368Y-83153475D01*
X98778101Y-83276910D01*
X98778100Y-89774677D01*
X98774414Y-89812100D01*
X98778100Y-89849523D01*
X98778100Y-89849525D01*
X98789126Y-89961477D01*
X98832698Y-90105114D01*
X98832699Y-90105115D01*
X98903455Y-90237492D01*
X98942176Y-90284673D01*
X98998678Y-90353522D01*
X99027754Y-90377384D01*
X103628700Y-94978331D01*
X103628700Y-94993277D01*
X103625014Y-95030700D01*
X103628700Y-95068123D01*
X103628700Y-95068126D01*
X103639726Y-95180078D01*
X103683298Y-95323715D01*
X103754055Y-95456092D01*
X103760669Y-95464151D01*
X103715000Y-95693740D01*
X103715000Y-95986260D01*
X103772068Y-96273158D01*
X103884010Y-96543411D01*
X104046525Y-96786632D01*
X104253368Y-96993475D01*
X104427760Y-97110000D01*
X104253368Y-97226525D01*
X104046525Y-97433368D01*
X103884010Y-97676589D01*
X103772068Y-97946842D01*
X103715000Y-98233740D01*
X103715000Y-98526260D01*
X103772068Y-98813158D01*
X103884010Y-99083411D01*
X104046525Y-99326632D01*
X104253368Y-99533475D01*
X104427760Y-99650000D01*
X104253368Y-99766525D01*
X104046525Y-99973368D01*
X103884010Y-100216589D01*
X103772068Y-100486842D01*
X103715000Y-100773740D01*
X103715000Y-101066260D01*
X103772068Y-101353158D01*
X103884010Y-101623411D01*
X104046525Y-101866632D01*
X104253368Y-102073475D01*
X104427760Y-102190000D01*
X104253368Y-102306525D01*
X104046525Y-102513368D01*
X103884010Y-102756589D01*
X103772068Y-103026842D01*
X103715000Y-103313740D01*
X103715000Y-103606260D01*
X103772068Y-103893158D01*
X103884010Y-104163411D01*
X104046525Y-104406632D01*
X104253368Y-104613475D01*
X104435534Y-104735195D01*
X104318645Y-104804822D01*
X104102412Y-104999731D01*
X103928359Y-105233080D01*
X103803175Y-105495901D01*
X103758524Y-105643110D01*
X103879845Y-105873000D01*
X105073000Y-105873000D01*
X105073000Y-105853000D01*
X105327000Y-105853000D01*
X105327000Y-105873000D01*
X105347000Y-105873000D01*
X105347000Y-106127000D01*
X105327000Y-106127000D01*
X105327000Y-107320814D01*
X105556891Y-107441481D01*
X105831252Y-107344157D01*
X106081355Y-107195178D01*
X106297588Y-107000269D01*
X106471641Y-106766920D01*
X106519471Y-106666501D01*
X109410700Y-109557730D01*
X109410701Y-124107967D01*
X109407014Y-124145400D01*
X109421727Y-124294778D01*
X109465299Y-124438415D01*
X109536055Y-124570792D01*
X109590680Y-124637352D01*
X109631279Y-124686822D01*
X109660349Y-124710679D01*
X110076096Y-125126426D01*
X110048815Y-125148815D01*
X109969463Y-125245506D01*
X109910498Y-125355820D01*
X109874188Y-125475518D01*
X109861928Y-125600000D01*
X109861928Y-127200000D01*
X109874188Y-127324482D01*
X109910498Y-127444180D01*
X109969463Y-127554494D01*
X110048815Y-127651185D01*
X110145506Y-127730537D01*
X110255820Y-127789502D01*
X110375518Y-127825812D01*
X110500000Y-127838072D01*
X112100000Y-127838072D01*
X112224482Y-127825812D01*
X112344180Y-127789502D01*
X112454494Y-127730537D01*
X112551185Y-127651185D01*
X112630537Y-127554494D01*
X112689502Y-127444180D01*
X112725812Y-127324482D01*
X112726643Y-127316039D01*
X112925241Y-127514637D01*
X113160273Y-127671680D01*
X113421426Y-127779853D01*
X113698665Y-127835000D01*
X113981335Y-127835000D01*
X114258574Y-127779853D01*
X114519727Y-127671680D01*
X114754759Y-127514637D01*
X114954637Y-127314759D01*
X115110000Y-127082241D01*
X115265363Y-127314759D01*
X115465241Y-127514637D01*
X115700273Y-127671680D01*
X115961426Y-127779853D01*
X116238665Y-127835000D01*
X116521335Y-127835000D01*
X116798574Y-127779853D01*
X117059727Y-127671680D01*
X117294759Y-127514637D01*
X117494637Y-127314759D01*
X117650000Y-127082241D01*
X117805363Y-127314759D01*
X118005241Y-127514637D01*
X118240273Y-127671680D01*
X118501426Y-127779853D01*
X118778665Y-127835000D01*
X119061335Y-127835000D01*
X119338574Y-127779853D01*
X119599727Y-127671680D01*
X119834759Y-127514637D01*
X120034637Y-127314759D01*
X120190000Y-127082241D01*
X120345363Y-127314759D01*
X120545241Y-127514637D01*
X120780273Y-127671680D01*
X121041426Y-127779853D01*
X121318665Y-127835000D01*
X121601335Y-127835000D01*
X121878574Y-127779853D01*
X122139727Y-127671680D01*
X122374759Y-127514637D01*
X122574637Y-127314759D01*
X122730000Y-127082241D01*
X122885363Y-127314759D01*
X123085241Y-127514637D01*
X123320273Y-127671680D01*
X123581426Y-127779853D01*
X123858665Y-127835000D01*
X124141335Y-127835000D01*
X124418574Y-127779853D01*
X124679727Y-127671680D01*
X124914759Y-127514637D01*
X125114637Y-127314759D01*
X125270000Y-127082241D01*
X125425363Y-127314759D01*
X125625241Y-127514637D01*
X125860273Y-127671680D01*
X126121426Y-127779853D01*
X126398665Y-127835000D01*
X126681335Y-127835000D01*
X126958574Y-127779853D01*
X127219727Y-127671680D01*
X127454759Y-127514637D01*
X127654637Y-127314759D01*
X127811680Y-127079727D01*
X127816067Y-127069135D01*
X127927615Y-127255131D01*
X128116586Y-127463519D01*
X128342580Y-127631037D01*
X128596913Y-127751246D01*
X128730961Y-127791904D01*
X128953000Y-127669915D01*
X128953000Y-126527000D01*
X128933000Y-126527000D01*
X128933000Y-126273000D01*
X128953000Y-126273000D01*
X128953000Y-125130085D01*
X128730961Y-125008096D01*
X128596913Y-125048754D01*
X128342580Y-125168963D01*
X128116586Y-125336481D01*
X127927615Y-125544869D01*
X127816067Y-125730865D01*
X127811680Y-125720273D01*
X127654637Y-125485241D01*
X127529863Y-125360467D01*
X132128001Y-120762330D01*
X132128001Y-121425267D01*
X132124314Y-121462700D01*
X132139027Y-121612078D01*
X132182599Y-121755715D01*
X132253355Y-121888092D01*
X132316701Y-121965279D01*
X132348579Y-122004122D01*
X132377649Y-122027979D01*
X135710137Y-125360467D01*
X135585363Y-125485241D01*
X135430000Y-125717759D01*
X135274637Y-125485241D01*
X135074759Y-125285363D01*
X134839727Y-125128320D01*
X134578574Y-125020147D01*
X134301335Y-124965000D01*
X134018665Y-124965000D01*
X133741426Y-125020147D01*
X133480273Y-125128320D01*
X133245241Y-125285363D01*
X133045363Y-125485241D01*
X132890000Y-125717759D01*
X132734637Y-125485241D01*
X132534759Y-125285363D01*
X132299727Y-125128320D01*
X132038574Y-125020147D01*
X131761335Y-124965000D01*
X131478665Y-124965000D01*
X131201426Y-125020147D01*
X130940273Y-125128320D01*
X130705241Y-125285363D01*
X130505363Y-125485241D01*
X130348320Y-125720273D01*
X130343933Y-125730865D01*
X130232385Y-125544869D01*
X130043414Y-125336481D01*
X129817420Y-125168963D01*
X129563087Y-125048754D01*
X129429039Y-125008096D01*
X129207000Y-125130085D01*
X129207000Y-126273000D01*
X129227000Y-126273000D01*
X129227000Y-126527000D01*
X129207000Y-126527000D01*
X129207000Y-127669915D01*
X129249245Y-127693125D01*
X128587649Y-128354721D01*
X128558579Y-128378578D01*
X128534722Y-128407648D01*
X128534721Y-128407649D01*
X128463355Y-128494608D01*
X128392599Y-128626985D01*
X128349027Y-128770622D01*
X128334314Y-128920000D01*
X128338001Y-128957433D01*
X128338001Y-129383292D01*
X128185241Y-129485363D01*
X127985363Y-129685241D01*
X127828320Y-129920273D01*
X127720147Y-130181426D01*
X127665000Y-130458665D01*
X127665000Y-130741335D01*
X127720147Y-131018574D01*
X127828320Y-131279727D01*
X127985363Y-131514759D01*
X128185241Y-131714637D01*
X128338000Y-131816707D01*
X128338001Y-133702567D01*
X128334314Y-133740000D01*
X128349027Y-133889378D01*
X128392599Y-134033015D01*
X128463355Y-134165392D01*
X128533764Y-134251185D01*
X128558579Y-134281422D01*
X128587649Y-134305279D01*
X129275000Y-134992631D01*
X129275000Y-135161788D01*
X129318617Y-135381067D01*
X129404176Y-135587624D01*
X129528388Y-135773520D01*
X129686480Y-135931612D01*
X129872376Y-136055824D01*
X130078933Y-136141383D01*
X130298212Y-136185000D01*
X130521788Y-136185000D01*
X130741067Y-136141383D01*
X130947624Y-136055824D01*
X131133520Y-135931612D01*
X131291612Y-135773520D01*
X131415824Y-135587624D01*
X131501383Y-135381067D01*
X131545000Y-135161788D01*
X131545000Y-134938212D01*
X131501383Y-134718933D01*
X131415824Y-134512376D01*
X131291612Y-134326480D01*
X131133520Y-134168388D01*
X130947624Y-134044176D01*
X130741067Y-133958617D01*
X130521788Y-133915000D01*
X130352631Y-133915000D01*
X129862000Y-133424370D01*
X129862000Y-131816707D01*
X130014759Y-131714637D01*
X130214637Y-131514759D01*
X130371680Y-131279727D01*
X130479853Y-131018574D01*
X130535000Y-130741335D01*
X130535000Y-130458665D01*
X130479853Y-130181426D01*
X130371680Y-129920273D01*
X130214637Y-129685241D01*
X130014759Y-129485363D01*
X129862000Y-129383293D01*
X129862000Y-129235630D01*
X131298473Y-127799157D01*
X131478665Y-127835000D01*
X131761335Y-127835000D01*
X132038574Y-127779853D01*
X132299727Y-127671680D01*
X132534759Y-127514637D01*
X132734637Y-127314759D01*
X132890000Y-127082241D01*
X133045363Y-127314759D01*
X133245241Y-127514637D01*
X133480273Y-127671680D01*
X133741426Y-127779853D01*
X134018665Y-127835000D01*
X134301335Y-127835000D01*
X134481527Y-127799157D01*
X135958001Y-129275631D01*
X135958001Y-129383292D01*
X135805241Y-129485363D01*
X135605363Y-129685241D01*
X135448320Y-129920273D01*
X135340147Y-130181426D01*
X135285000Y-130458665D01*
X135285000Y-130741335D01*
X135340147Y-131018574D01*
X135448320Y-131279727D01*
X135605363Y-131514759D01*
X135805241Y-131714637D01*
X135958000Y-131816707D01*
X135958001Y-133304368D01*
X135347370Y-133915000D01*
X135178212Y-133915000D01*
X134958933Y-133958617D01*
X134752376Y-134044176D01*
X134566480Y-134168388D01*
X134408388Y-134326480D01*
X134284176Y-134512376D01*
X134198617Y-134718933D01*
X134155000Y-134938212D01*
X134155000Y-135161788D01*
X134198617Y-135381067D01*
X134284176Y-135587624D01*
X134408388Y-135773520D01*
X134566480Y-135931612D01*
X134752376Y-136055824D01*
X134958933Y-136141383D01*
X135178212Y-136185000D01*
X135401788Y-136185000D01*
X135621067Y-136141383D01*
X135827624Y-136055824D01*
X136013520Y-135931612D01*
X136171612Y-135773520D01*
X136295824Y-135587624D01*
X136381383Y-135381067D01*
X136425000Y-135161788D01*
X136425000Y-134992630D01*
X137232352Y-134185279D01*
X137261422Y-134161422D01*
X137356645Y-134045392D01*
X137389679Y-133983589D01*
X160347450Y-133983589D01*
X160414431Y-134696482D01*
X160619204Y-135382609D01*
X160953898Y-136015603D01*
X160972132Y-136042894D01*
X161441314Y-136379081D01*
X163820395Y-134000000D01*
X164179605Y-134000000D01*
X166558686Y-136379081D01*
X167027868Y-136042894D01*
X167368237Y-135412932D01*
X167579166Y-134728673D01*
X167652550Y-134016411D01*
X167585569Y-133303518D01*
X167380796Y-132617391D01*
X167046102Y-131984397D01*
X167027868Y-131957106D01*
X166558686Y-131620919D01*
X164179605Y-134000000D01*
X163820395Y-134000000D01*
X161441314Y-131620919D01*
X160972132Y-131957106D01*
X160631763Y-132587068D01*
X160420834Y-133271327D01*
X160347450Y-133983589D01*
X137389679Y-133983589D01*
X137427402Y-133913015D01*
X137470974Y-133769378D01*
X137482000Y-133657426D01*
X137482000Y-133657424D01*
X137485686Y-133620001D01*
X137482000Y-133582578D01*
X137482000Y-131816707D01*
X137634759Y-131714637D01*
X137834637Y-131514759D01*
X137991680Y-131279727D01*
X138099853Y-131018574D01*
X138155000Y-130741335D01*
X138155000Y-130458665D01*
X138965000Y-130458665D01*
X138965000Y-130741335D01*
X139020147Y-131018574D01*
X139128320Y-131279727D01*
X139285363Y-131514759D01*
X139485241Y-131714637D01*
X139720273Y-131871680D01*
X139981426Y-131979853D01*
X140258665Y-132035000D01*
X140541335Y-132035000D01*
X140818574Y-131979853D01*
X141079727Y-131871680D01*
X141314759Y-131714637D01*
X141514637Y-131514759D01*
X141563711Y-131441314D01*
X161620919Y-131441314D01*
X164000000Y-133820395D01*
X166379081Y-131441314D01*
X166042894Y-130972132D01*
X165412932Y-130631763D01*
X164728673Y-130420834D01*
X164016411Y-130347450D01*
X163303518Y-130414431D01*
X162617391Y-130619204D01*
X161984397Y-130953898D01*
X161957106Y-130972132D01*
X161620919Y-131441314D01*
X141563711Y-131441314D01*
X141671680Y-131279727D01*
X141779853Y-131018574D01*
X141835000Y-130741335D01*
X141835000Y-130458665D01*
X141779853Y-130181426D01*
X141671680Y-129920273D01*
X141514637Y-129685241D01*
X141314759Y-129485363D01*
X141079727Y-129328320D01*
X140818574Y-129220147D01*
X140541335Y-129165000D01*
X140258665Y-129165000D01*
X139981426Y-129220147D01*
X139720273Y-129328320D01*
X139485241Y-129485363D01*
X139285363Y-129685241D01*
X139128320Y-129920273D01*
X139020147Y-130181426D01*
X138965000Y-130458665D01*
X138155000Y-130458665D01*
X138099853Y-130181426D01*
X137991680Y-129920273D01*
X137834637Y-129685241D01*
X137634759Y-129485363D01*
X137482000Y-129383293D01*
X137482000Y-128997423D01*
X137485686Y-128960000D01*
X137478060Y-128882574D01*
X137470974Y-128810622D01*
X137427402Y-128666985D01*
X137392264Y-128601246D01*
X137356645Y-128534607D01*
X137314717Y-128483519D01*
X137261422Y-128418578D01*
X137232346Y-128394716D01*
X136837630Y-128000000D01*
X159961928Y-128000000D01*
X159974188Y-128124482D01*
X160010498Y-128244180D01*
X160069463Y-128354494D01*
X160148815Y-128451185D01*
X160245506Y-128530537D01*
X160355820Y-128589502D01*
X160475518Y-128625812D01*
X160600000Y-128638072D01*
X161214250Y-128635000D01*
X161373000Y-128476250D01*
X161373000Y-127527000D01*
X161627000Y-127527000D01*
X161627000Y-128476250D01*
X161785750Y-128635000D01*
X162400000Y-128638072D01*
X162524482Y-128625812D01*
X162644180Y-128589502D01*
X162754494Y-128530537D01*
X162851185Y-128451185D01*
X162930537Y-128354494D01*
X162989502Y-128244180D01*
X163025812Y-128124482D01*
X163038072Y-128000000D01*
X163035000Y-127685750D01*
X162876250Y-127527000D01*
X161627000Y-127527000D01*
X161373000Y-127527000D01*
X160123750Y-127527000D01*
X159965000Y-127685750D01*
X159961928Y-128000000D01*
X136837630Y-128000000D01*
X136672630Y-127835000D01*
X136841335Y-127835000D01*
X137118574Y-127779853D01*
X137379727Y-127671680D01*
X137614759Y-127514637D01*
X137814637Y-127314759D01*
X137970000Y-127082241D01*
X138125363Y-127314759D01*
X138325241Y-127514637D01*
X138560273Y-127671680D01*
X138821426Y-127779853D01*
X139098665Y-127835000D01*
X139381335Y-127835000D01*
X139658574Y-127779853D01*
X139919727Y-127671680D01*
X140154759Y-127514637D01*
X140354637Y-127314759D01*
X140510000Y-127082241D01*
X140665363Y-127314759D01*
X140865241Y-127514637D01*
X141100273Y-127671680D01*
X141361426Y-127779853D01*
X141638665Y-127835000D01*
X141921335Y-127835000D01*
X142198574Y-127779853D01*
X142459727Y-127671680D01*
X142694759Y-127514637D01*
X142894637Y-127314759D01*
X143050000Y-127082241D01*
X143205363Y-127314759D01*
X143405241Y-127514637D01*
X143640273Y-127671680D01*
X143901426Y-127779853D01*
X144178665Y-127835000D01*
X144461335Y-127835000D01*
X144738574Y-127779853D01*
X144999727Y-127671680D01*
X145234759Y-127514637D01*
X145434637Y-127314759D01*
X145591680Y-127079727D01*
X145699853Y-126818574D01*
X145755000Y-126541335D01*
X145755000Y-126258665D01*
X145699853Y-125981426D01*
X145591680Y-125720273D01*
X145434637Y-125485241D01*
X145234759Y-125285363D01*
X145076520Y-125179631D01*
X145070974Y-125123322D01*
X145027402Y-124979685D01*
X144982871Y-124896374D01*
X144956645Y-124847307D01*
X144886343Y-124761645D01*
X144861422Y-124731278D01*
X144832346Y-124707416D01*
X141272000Y-121147070D01*
X141272000Y-120122812D01*
X141361426Y-120159853D01*
X141638665Y-120215000D01*
X141921335Y-120215000D01*
X142198574Y-120159853D01*
X142459727Y-120051680D01*
X142694759Y-119894637D01*
X142894637Y-119694759D01*
X143050000Y-119462241D01*
X143205363Y-119694759D01*
X143405241Y-119894637D01*
X143640273Y-120051680D01*
X143901426Y-120159853D01*
X144178665Y-120215000D01*
X144461335Y-120215000D01*
X144738574Y-120159853D01*
X144999727Y-120051680D01*
X145234759Y-119894637D01*
X145434637Y-119694759D01*
X145591680Y-119459727D01*
X145699853Y-119198574D01*
X145755000Y-118921335D01*
X145755000Y-118638665D01*
X145699853Y-118361426D01*
X145591680Y-118100273D01*
X145434637Y-117865241D01*
X145234759Y-117665363D01*
X145076520Y-117559631D01*
X145070974Y-117503322D01*
X145027402Y-117359685D01*
X144956645Y-117227308D01*
X144861422Y-117111278D01*
X144832352Y-117087421D01*
X141493971Y-113749040D01*
X141908091Y-113749040D01*
X142002930Y-114013881D01*
X142147615Y-114255131D01*
X142336586Y-114463519D01*
X142562580Y-114631037D01*
X142816913Y-114751246D01*
X142950961Y-114791904D01*
X143173000Y-114669915D01*
X143173000Y-113527000D01*
X143427000Y-113527000D01*
X143427000Y-114669915D01*
X143649039Y-114791904D01*
X143783087Y-114751246D01*
X144037420Y-114631037D01*
X144263414Y-114463519D01*
X144452385Y-114255131D01*
X144597070Y-114013881D01*
X144691909Y-113749040D01*
X144570624Y-113527000D01*
X143427000Y-113527000D01*
X143173000Y-113527000D01*
X142029376Y-113527000D01*
X141908091Y-113749040D01*
X141493971Y-113749040D01*
X140795891Y-113050960D01*
X141908091Y-113050960D01*
X142029376Y-113273000D01*
X143173000Y-113273000D01*
X143173000Y-112130085D01*
X143427000Y-112130085D01*
X143427000Y-113273000D01*
X144570624Y-113273000D01*
X144691909Y-113050960D01*
X144597070Y-112786119D01*
X144452385Y-112544869D01*
X144263414Y-112336481D01*
X144037420Y-112168963D01*
X143783087Y-112048754D01*
X143649039Y-112008096D01*
X143427000Y-112130085D01*
X143173000Y-112130085D01*
X142950961Y-112008096D01*
X142816913Y-112048754D01*
X142562580Y-112168963D01*
X142336586Y-112336481D01*
X142147615Y-112544869D01*
X142002930Y-112786119D01*
X141908091Y-113050960D01*
X140795891Y-113050960D01*
X136903596Y-109158665D01*
X146665000Y-109158665D01*
X146665000Y-109441335D01*
X146720147Y-109718574D01*
X146828320Y-109979727D01*
X146985363Y-110214759D01*
X147185241Y-110414637D01*
X147420273Y-110571680D01*
X147681426Y-110679853D01*
X147958665Y-110735000D01*
X148241335Y-110735000D01*
X148518574Y-110679853D01*
X148779727Y-110571680D01*
X149014759Y-110414637D01*
X149214637Y-110214759D01*
X149371680Y-109979727D01*
X149479853Y-109718574D01*
X149535000Y-109441335D01*
X149535000Y-109158665D01*
X154285000Y-109158665D01*
X154285000Y-109441335D01*
X154340147Y-109718574D01*
X154448320Y-109979727D01*
X154605363Y-110214759D01*
X154805241Y-110414637D01*
X155040273Y-110571680D01*
X155301426Y-110679853D01*
X155578665Y-110735000D01*
X155861335Y-110735000D01*
X156138574Y-110679853D01*
X156399727Y-110571680D01*
X156634759Y-110414637D01*
X156834637Y-110214759D01*
X156991680Y-109979727D01*
X157099853Y-109718574D01*
X157155000Y-109441335D01*
X157155000Y-109158665D01*
X157099853Y-108881426D01*
X156991680Y-108620273D01*
X156834637Y-108385241D01*
X156634759Y-108185363D01*
X156399727Y-108028320D01*
X156138574Y-107920147D01*
X155861335Y-107865000D01*
X155578665Y-107865000D01*
X155301426Y-107920147D01*
X155040273Y-108028320D01*
X154805241Y-108185363D01*
X154605363Y-108385241D01*
X154448320Y-108620273D01*
X154340147Y-108881426D01*
X154285000Y-109158665D01*
X149535000Y-109158665D01*
X149479853Y-108881426D01*
X149371680Y-108620273D01*
X149214637Y-108385241D01*
X149014759Y-108185363D01*
X148779727Y-108028320D01*
X148518574Y-107920147D01*
X148241335Y-107865000D01*
X147958665Y-107865000D01*
X147681426Y-107920147D01*
X147420273Y-108028320D01*
X147185241Y-108185363D01*
X146985363Y-108385241D01*
X146828320Y-108620273D01*
X146720147Y-108881426D01*
X146665000Y-109158665D01*
X136903596Y-109158665D01*
X133503596Y-105758665D01*
X141865000Y-105758665D01*
X141865000Y-106041335D01*
X141920147Y-106318574D01*
X142028320Y-106579727D01*
X142185363Y-106814759D01*
X142385241Y-107014637D01*
X142620273Y-107171680D01*
X142881426Y-107279853D01*
X143158665Y-107335000D01*
X143441335Y-107335000D01*
X143718574Y-107279853D01*
X143979727Y-107171680D01*
X144214759Y-107014637D01*
X144414637Y-106814759D01*
X144571680Y-106579727D01*
X144679853Y-106318574D01*
X144735000Y-106041335D01*
X144735000Y-105758665D01*
X144679853Y-105481426D01*
X144571680Y-105220273D01*
X144414637Y-104985241D01*
X144214759Y-104785363D01*
X143979727Y-104628320D01*
X143718574Y-104520147D01*
X143441335Y-104465000D01*
X143158665Y-104465000D01*
X142881426Y-104520147D01*
X142620273Y-104628320D01*
X142385241Y-104785363D01*
X142185363Y-104985241D01*
X142028320Y-105220273D01*
X141920147Y-105481426D01*
X141865000Y-105758665D01*
X133503596Y-105758665D01*
X133322000Y-105577070D01*
X133322000Y-85958665D01*
X138665000Y-85958665D01*
X138665000Y-86241335D01*
X138720147Y-86518574D01*
X138828320Y-86779727D01*
X138985363Y-87014759D01*
X139185241Y-87214637D01*
X139420273Y-87371680D01*
X139681426Y-87479853D01*
X139958665Y-87535000D01*
X140241335Y-87535000D01*
X140518574Y-87479853D01*
X140779727Y-87371680D01*
X141014759Y-87214637D01*
X141214637Y-87014759D01*
X141371680Y-86779727D01*
X141479853Y-86518574D01*
X141535000Y-86241335D01*
X141535000Y-85958665D01*
X141479853Y-85681426D01*
X141371680Y-85420273D01*
X141214637Y-85185241D01*
X141014759Y-84985363D01*
X140779727Y-84828320D01*
X140518574Y-84720147D01*
X140241335Y-84665000D01*
X139958665Y-84665000D01*
X139681426Y-84720147D01*
X139420273Y-84828320D01*
X139185241Y-84985363D01*
X138985363Y-85185241D01*
X138828320Y-85420273D01*
X138720147Y-85681426D01*
X138665000Y-85958665D01*
X133322000Y-85958665D01*
X133322000Y-83276842D01*
X133506632Y-83153475D01*
X133713475Y-82946632D01*
X133835195Y-82764466D01*
X133904822Y-82881355D01*
X134099731Y-83097588D01*
X134333080Y-83271641D01*
X134595901Y-83396825D01*
X134743110Y-83441476D01*
X134973000Y-83320155D01*
X134973000Y-82127000D01*
X135227000Y-82127000D01*
X135227000Y-83320155D01*
X135456890Y-83441476D01*
X135604099Y-83396825D01*
X135866920Y-83271641D01*
X136100269Y-83097588D01*
X136295178Y-82881355D01*
X136444157Y-82631252D01*
X136541481Y-82356891D01*
X136420814Y-82127000D01*
X135227000Y-82127000D01*
X134973000Y-82127000D01*
X134953000Y-82127000D01*
X134953000Y-81873000D01*
X134973000Y-81873000D01*
X134973000Y-80679845D01*
X135227000Y-80679845D01*
X135227000Y-81873000D01*
X136420814Y-81873000D01*
X136541481Y-81643109D01*
X136444157Y-81368748D01*
X136295178Y-81118645D01*
X136100269Y-80902412D01*
X135866920Y-80728359D01*
X135604099Y-80603175D01*
X135456890Y-80558524D01*
X135227000Y-80679845D01*
X134973000Y-80679845D01*
X134743110Y-80558524D01*
X134595901Y-80603175D01*
X134333080Y-80728359D01*
X134099731Y-80902412D01*
X133904822Y-81118645D01*
X133835195Y-81235534D01*
X133713475Y-81053368D01*
X133506632Y-80846525D01*
X133263411Y-80684010D01*
X132993158Y-80572068D01*
X132706260Y-80515000D01*
X132413740Y-80515000D01*
X132126842Y-80572068D01*
X131856589Y-80684010D01*
X131613368Y-80846525D01*
X131406525Y-81053368D01*
X131290000Y-81227760D01*
X131173475Y-81053368D01*
X130966632Y-80846525D01*
X130723411Y-80684010D01*
X130453158Y-80572068D01*
X130166260Y-80515000D01*
X129873740Y-80515000D01*
X129586842Y-80572068D01*
X129316589Y-80684010D01*
X129073368Y-80846525D01*
X128866525Y-81053368D01*
X128750000Y-81227760D01*
X128633475Y-81053368D01*
X128426632Y-80846525D01*
X128183411Y-80684010D01*
X127913158Y-80572068D01*
X127626260Y-80515000D01*
X127333740Y-80515000D01*
X127046842Y-80572068D01*
X126776589Y-80684010D01*
X126533368Y-80846525D01*
X126326525Y-81053368D01*
X126210000Y-81227760D01*
X126093475Y-81053368D01*
X125886632Y-80846525D01*
X125643411Y-80684010D01*
X125373158Y-80572068D01*
X125086260Y-80515000D01*
X124793740Y-80515000D01*
X124506842Y-80572068D01*
X124236589Y-80684010D01*
X123993368Y-80846525D01*
X123786525Y-81053368D01*
X123670000Y-81227760D01*
X123553475Y-81053368D01*
X123346632Y-80846525D01*
X123103411Y-80684010D01*
X122833158Y-80572068D01*
X122546260Y-80515000D01*
X122253740Y-80515000D01*
X121966842Y-80572068D01*
X121696589Y-80684010D01*
X121453368Y-80846525D01*
X121246525Y-81053368D01*
X121130000Y-81227760D01*
X121013475Y-81053368D01*
X120806632Y-80846525D01*
X120563411Y-80684010D01*
X120293158Y-80572068D01*
X120006260Y-80515000D01*
X119713740Y-80515000D01*
X119426842Y-80572068D01*
X119156589Y-80684010D01*
X118913368Y-80846525D01*
X118706525Y-81053368D01*
X118590000Y-81227760D01*
X118473475Y-81053368D01*
X118266632Y-80846525D01*
X118023411Y-80684010D01*
X117753158Y-80572068D01*
X117466260Y-80515000D01*
X117173740Y-80515000D01*
X116886842Y-80572068D01*
X116616589Y-80684010D01*
X116373368Y-80846525D01*
X116166525Y-81053368D01*
X116050000Y-81227760D01*
X115933475Y-81053368D01*
X115726632Y-80846525D01*
X115483411Y-80684010D01*
X115213158Y-80572068D01*
X114926260Y-80515000D01*
X114633740Y-80515000D01*
X114346842Y-80572068D01*
X114076589Y-80684010D01*
X113833368Y-80846525D01*
X113626525Y-81053368D01*
X113510000Y-81227760D01*
X113393475Y-81053368D01*
X113186632Y-80846525D01*
X112943411Y-80684010D01*
X112673158Y-80572068D01*
X112386260Y-80515000D01*
X112093740Y-80515000D01*
X111806842Y-80572068D01*
X111536589Y-80684010D01*
X111293368Y-80846525D01*
X111086525Y-81053368D01*
X110970000Y-81227760D01*
X110853475Y-81053368D01*
X110646632Y-80846525D01*
X110403411Y-80684010D01*
X110133158Y-80572068D01*
X109846260Y-80515000D01*
X109553740Y-80515000D01*
X109266842Y-80572068D01*
X108996589Y-80684010D01*
X108753368Y-80846525D01*
X108546525Y-81053368D01*
X108424805Y-81235534D01*
X108355178Y-81118645D01*
X108160269Y-80902412D01*
X107926920Y-80728359D01*
X107664099Y-80603175D01*
X107516890Y-80558524D01*
X107287000Y-80679845D01*
X107287000Y-81873000D01*
X107307000Y-81873000D01*
X107307000Y-82127000D01*
X107287000Y-82127000D01*
X107287000Y-83320155D01*
X107516890Y-83441476D01*
X107664099Y-83396825D01*
X107926920Y-83271641D01*
X108160269Y-83097588D01*
X108355178Y-82881355D01*
X108424805Y-82764466D01*
X108546525Y-82946632D01*
X108753368Y-83153475D01*
X108938001Y-83276843D01*
X108938000Y-86262577D01*
X108934314Y-86300000D01*
X108938000Y-86337423D01*
X108938000Y-86337425D01*
X108949026Y-86449377D01*
X108992598Y-86593014D01*
X108992599Y-86593015D01*
X109063355Y-86725392D01*
X109089003Y-86756644D01*
X109158578Y-86841422D01*
X109187654Y-86865284D01*
X109824770Y-87502400D01*
X107280031Y-87502400D01*
X105382000Y-85604370D01*
X105382000Y-83276842D01*
X105566632Y-83153475D01*
X105773475Y-82946632D01*
X105895195Y-82764466D01*
X105964822Y-82881355D01*
X106159731Y-83097588D01*
X106393080Y-83271641D01*
X106655901Y-83396825D01*
X106803110Y-83441476D01*
X107033000Y-83320155D01*
X107033000Y-82127000D01*
X107013000Y-82127000D01*
X107013000Y-81873000D01*
X107033000Y-81873000D01*
X107033000Y-80679845D01*
X106803110Y-80558524D01*
X106655901Y-80603175D01*
X106393080Y-80728359D01*
X106159731Y-80902412D01*
X105964822Y-81118645D01*
X105895195Y-81235534D01*
X105773475Y-81053368D01*
X105566632Y-80846525D01*
X105323411Y-80684010D01*
X105053158Y-80572068D01*
X104766260Y-80515000D01*
X104473740Y-80515000D01*
X104186842Y-80572068D01*
X103916589Y-80684010D01*
X103673368Y-80846525D01*
X103466525Y-81053368D01*
X103350000Y-81227760D01*
X103233475Y-81053368D01*
X103026632Y-80846525D01*
X102842000Y-80723158D01*
X102842000Y-78035630D01*
X103375631Y-77502000D01*
X105519508Y-77502000D01*
X105587503Y-77603762D01*
X105776238Y-77792497D01*
X105998167Y-77940785D01*
X106244761Y-78042928D01*
X106506544Y-78095000D01*
X106773456Y-78095000D01*
X107035239Y-78042928D01*
X107281833Y-77940785D01*
X107503762Y-77792497D01*
X107692497Y-77603762D01*
X107840785Y-77381833D01*
X107942928Y-77135239D01*
X107995000Y-76873456D01*
X107995000Y-76606544D01*
X107942928Y-76344761D01*
X107840785Y-76098167D01*
X107692497Y-75876238D01*
X107503762Y-75687503D01*
X107281833Y-75539215D01*
X107035239Y-75437072D01*
X106773456Y-75385000D01*
X106506544Y-75385000D01*
X106244761Y-75437072D01*
X105998167Y-75539215D01*
X105776238Y-75687503D01*
X105587503Y-75876238D01*
X105519508Y-75978000D01*
X103399631Y-75978000D01*
X103846508Y-75531123D01*
X103966544Y-75555000D01*
X104233456Y-75555000D01*
X104495239Y-75502928D01*
X104741833Y-75400785D01*
X104963762Y-75252497D01*
X105080699Y-75135560D01*
X108424045Y-75135560D01*
X108485932Y-75371368D01*
X108727790Y-75484266D01*
X108987027Y-75547811D01*
X109253680Y-75559561D01*
X109517501Y-75519063D01*
X109768353Y-75427875D01*
X109874068Y-75371368D01*
X109935955Y-75135560D01*
X109180000Y-74379605D01*
X108424045Y-75135560D01*
X105080699Y-75135560D01*
X105152497Y-75063762D01*
X105300785Y-74841833D01*
X105402928Y-74595239D01*
X105455000Y-74333456D01*
X105455000Y-74273680D01*
X107820439Y-74273680D01*
X107860937Y-74537501D01*
X107952125Y-74788353D01*
X108008632Y-74894068D01*
X108244440Y-74955955D01*
X109000395Y-74200000D01*
X109359605Y-74200000D01*
X110115560Y-74955955D01*
X110351368Y-74894068D01*
X110464266Y-74652210D01*
X110527811Y-74392973D01*
X110539561Y-74126320D01*
X110499063Y-73862499D01*
X110407875Y-73611647D01*
X110351368Y-73505932D01*
X110115560Y-73444045D01*
X109359605Y-74200000D01*
X109000395Y-74200000D01*
X108244440Y-73444045D01*
X108008632Y-73505932D01*
X107895734Y-73747790D01*
X107832189Y-74007027D01*
X107820439Y-74273680D01*
X105455000Y-74273680D01*
X105455000Y-74066544D01*
X105402928Y-73804761D01*
X105300785Y-73558167D01*
X105152497Y-73336238D01*
X105080699Y-73264440D01*
X108424045Y-73264440D01*
X109180000Y-74020395D01*
X109935955Y-73264440D01*
X109874068Y-73028632D01*
X109632210Y-72915734D01*
X109372973Y-72852189D01*
X109106320Y-72840439D01*
X108842499Y-72880937D01*
X108591647Y-72972125D01*
X108485932Y-73028632D01*
X108424045Y-73264440D01*
X105080699Y-73264440D01*
X104963762Y-73147503D01*
X104741833Y-72999215D01*
X104495239Y-72897072D01*
X104233456Y-72845000D01*
X103966544Y-72845000D01*
X103704761Y-72897072D01*
X103458167Y-72999215D01*
X103236238Y-73147503D01*
X103047503Y-73336238D01*
X102899215Y-73558167D01*
X102797072Y-73804761D01*
X102745000Y-74066544D01*
X102745000Y-74333456D01*
X102768877Y-74453492D01*
X99027649Y-78194721D01*
X98998579Y-78218578D01*
X98974722Y-78247648D01*
X98974721Y-78247649D01*
X98903355Y-78334608D01*
X98832599Y-78466985D01*
X98789027Y-78610622D01*
X98774314Y-78760000D01*
X98778001Y-78797433D01*
X98778000Y-80723158D01*
X98593368Y-80846525D01*
X98461513Y-80978380D01*
X98439502Y-80905820D01*
X98380537Y-80795506D01*
X98301185Y-80698815D01*
X98204494Y-80619463D01*
X98094180Y-80560498D01*
X97974482Y-80524188D01*
X97850000Y-80511928D01*
X97285750Y-80515000D01*
X97127000Y-80673750D01*
X96873000Y-80673750D01*
X96714250Y-80515000D01*
X96150000Y-80511928D01*
X96025518Y-80524188D01*
X95905820Y-80560498D01*
X95795506Y-80619463D01*
X95698815Y-80698815D01*
X95619463Y-80795506D01*
X95560498Y-80905820D01*
X95524188Y-81025518D01*
X95511928Y-81150000D01*
X87660000Y-81150000D01*
X87660000Y-76558686D01*
X90620919Y-76558686D01*
X90957106Y-77027868D01*
X91587068Y-77368237D01*
X92271327Y-77579166D01*
X92983589Y-77652550D01*
X93696482Y-77585569D01*
X94382609Y-77380796D01*
X95015603Y-77046102D01*
X95042894Y-77027868D01*
X95379081Y-76558686D01*
X93000000Y-74179605D01*
X90620919Y-76558686D01*
X87660000Y-76558686D01*
X87660000Y-73983589D01*
X89347450Y-73983589D01*
X89414431Y-74696482D01*
X89619204Y-75382609D01*
X89953898Y-76015603D01*
X89972132Y-76042894D01*
X90441314Y-76379081D01*
X92820395Y-74000000D01*
X93179605Y-74000000D01*
X95558686Y-76379081D01*
X96027868Y-76042894D01*
X96368237Y-75412932D01*
X96579166Y-74728673D01*
X96652550Y-74016411D01*
X96585569Y-73303518D01*
X96380796Y-72617391D01*
X96046102Y-71984397D01*
X96027868Y-71957106D01*
X95558686Y-71620919D01*
X93179605Y-74000000D01*
X92820395Y-74000000D01*
X90441314Y-71620919D01*
X89972132Y-71957106D01*
X89631763Y-72587068D01*
X89420834Y-73271327D01*
X89347450Y-73983589D01*
X87660000Y-73983589D01*
X87660000Y-71441314D01*
X90620919Y-71441314D01*
X93000000Y-73820395D01*
X95320395Y-71500000D01*
X133561928Y-71500000D01*
X133561928Y-73300000D01*
X133574188Y-73424482D01*
X133610498Y-73544180D01*
X133669463Y-73654494D01*
X133748815Y-73751185D01*
X133845506Y-73830537D01*
X133955820Y-73889502D01*
X134075518Y-73925812D01*
X134200000Y-73938072D01*
X136000000Y-73938072D01*
X136124482Y-73925812D01*
X136244180Y-73889502D01*
X136354494Y-73830537D01*
X136451185Y-73751185D01*
X136530537Y-73654494D01*
X136589502Y-73544180D01*
X136595056Y-73525873D01*
X136661495Y-73592312D01*
X136878000Y-73736977D01*
X136878000Y-74855277D01*
X136874314Y-74892700D01*
X136878000Y-74930123D01*
X136878000Y-74930125D01*
X136889026Y-75042077D01*
X136932598Y-75185714D01*
X136949133Y-75216649D01*
X137003355Y-75318092D01*
X137042983Y-75366378D01*
X137098578Y-75434122D01*
X137127654Y-75457984D01*
X139110137Y-77440467D01*
X138985363Y-77565241D01*
X138828320Y-77800273D01*
X138720147Y-78061426D01*
X138665000Y-78338665D01*
X138665000Y-78621335D01*
X138720147Y-78898574D01*
X138828320Y-79159727D01*
X138985363Y-79394759D01*
X139185241Y-79594637D01*
X139420273Y-79751680D01*
X139681426Y-79859853D01*
X139958665Y-79915000D01*
X140241335Y-79915000D01*
X140518574Y-79859853D01*
X140779727Y-79751680D01*
X141014759Y-79594637D01*
X141214637Y-79394759D01*
X141371680Y-79159727D01*
X141479853Y-78898574D01*
X141535000Y-78621335D01*
X141535000Y-78338665D01*
X141479853Y-78061426D01*
X141371680Y-77800273D01*
X141214637Y-77565241D01*
X141014759Y-77365363D01*
X140856520Y-77259631D01*
X140850974Y-77203322D01*
X140807402Y-77059685D01*
X140736645Y-76927308D01*
X140641422Y-76811278D01*
X140612352Y-76787421D01*
X138402000Y-74577070D01*
X138402000Y-73736976D01*
X138618505Y-73592312D01*
X138832312Y-73378505D01*
X139000299Y-73127095D01*
X139116011Y-72847743D01*
X139175000Y-72551184D01*
X139175000Y-72248816D01*
X139116011Y-71952257D01*
X139000299Y-71672905D01*
X138884768Y-71500000D01*
X139561928Y-71500000D01*
X139561928Y-73300000D01*
X139574188Y-73424482D01*
X139610498Y-73544180D01*
X139669463Y-73654494D01*
X139748815Y-73751185D01*
X139845506Y-73830537D01*
X139955820Y-73889502D01*
X140075518Y-73925812D01*
X140200000Y-73938072D01*
X140402090Y-73938072D01*
X140463355Y-74052692D01*
X140491000Y-74086377D01*
X140558578Y-74168722D01*
X140587654Y-74192584D01*
X141538001Y-75142932D01*
X141538000Y-87962577D01*
X141534314Y-88000000D01*
X141538000Y-88037423D01*
X141538000Y-88037425D01*
X141549026Y-88149377D01*
X141592598Y-88293014D01*
X141624026Y-88351811D01*
X141663355Y-88425392D01*
X141701280Y-88471603D01*
X141758578Y-88541422D01*
X141787654Y-88565284D01*
X144038001Y-90815632D01*
X144038000Y-94129669D01*
X143909744Y-94182795D01*
X143740226Y-94296063D01*
X143596063Y-94440226D01*
X143482795Y-94609744D01*
X143404774Y-94798102D01*
X143365000Y-94998061D01*
X143365000Y-95201939D01*
X143404774Y-95401898D01*
X143482795Y-95590256D01*
X143596063Y-95759774D01*
X143740226Y-95903937D01*
X143909744Y-96017205D01*
X144098102Y-96095226D01*
X144298061Y-96135000D01*
X144501939Y-96135000D01*
X144701898Y-96095226D01*
X144890256Y-96017205D01*
X145059774Y-95903937D01*
X145203937Y-95759774D01*
X145317205Y-95590256D01*
X145395226Y-95401898D01*
X145435000Y-95201939D01*
X145435000Y-95127396D01*
X145436645Y-95125392D01*
X145507402Y-94993015D01*
X145550974Y-94849378D01*
X145562000Y-94737426D01*
X145562000Y-94737424D01*
X145565686Y-94700001D01*
X145564565Y-94688614D01*
X145562000Y-94662577D01*
X145562000Y-90537423D01*
X145565686Y-90500000D01*
X145557666Y-90418574D01*
X145550974Y-90350622D01*
X145507402Y-90206985D01*
X145472311Y-90141335D01*
X145436645Y-90074607D01*
X145365279Y-89987648D01*
X145341422Y-89958578D01*
X145312352Y-89934721D01*
X143062000Y-87684370D01*
X143062000Y-86830133D01*
X143185363Y-87014759D01*
X143385241Y-87214637D01*
X143620273Y-87371680D01*
X143881426Y-87479853D01*
X144158665Y-87535000D01*
X144441335Y-87535000D01*
X144718574Y-87479853D01*
X144979727Y-87371680D01*
X145214759Y-87214637D01*
X145414637Y-87014759D01*
X145516707Y-86862000D01*
X147269929Y-86862000D01*
X147385363Y-87034759D01*
X147585241Y-87234637D01*
X147738000Y-87336707D01*
X147738001Y-98562567D01*
X147734314Y-98600000D01*
X147749027Y-98749378D01*
X147792599Y-98893015D01*
X147863355Y-99025392D01*
X147934721Y-99112351D01*
X147958579Y-99141422D01*
X147987649Y-99165279D01*
X151832994Y-103010625D01*
X151827832Y-103023088D01*
X151765000Y-103338967D01*
X151765000Y-103661033D01*
X151827832Y-103976912D01*
X151951082Y-104274463D01*
X152130013Y-104542252D01*
X152357748Y-104769987D01*
X152625537Y-104948918D01*
X152923088Y-105072168D01*
X153238967Y-105135000D01*
X153561033Y-105135000D01*
X153876912Y-105072168D01*
X153889375Y-105067005D01*
X159506001Y-110683632D01*
X159506000Y-111362574D01*
X159502314Y-111400000D01*
X159506001Y-111437436D01*
X159506000Y-121357877D01*
X159502314Y-121395300D01*
X159506000Y-121432723D01*
X159506000Y-121432725D01*
X159517026Y-121544677D01*
X159560598Y-121688314D01*
X159560599Y-121688315D01*
X159631355Y-121820692D01*
X159670983Y-121868978D01*
X159726578Y-121936722D01*
X159729159Y-121938841D01*
X159731278Y-121941422D01*
X159847308Y-122036645D01*
X159979685Y-122107402D01*
X160123322Y-122150974D01*
X160227043Y-122161189D01*
X160322498Y-122277502D01*
X160471762Y-122400000D01*
X160322498Y-122522498D01*
X160168167Y-122710551D01*
X160053489Y-122925099D01*
X159982870Y-123157898D01*
X159959025Y-123400000D01*
X159982870Y-123642102D01*
X160053489Y-123874901D01*
X160168167Y-124089449D01*
X160322498Y-124277502D01*
X160471762Y-124400000D01*
X160322498Y-124522498D01*
X160168167Y-124710551D01*
X160053489Y-124925099D01*
X159982870Y-125157898D01*
X159959025Y-125400000D01*
X159982870Y-125642102D01*
X160053489Y-125874901D01*
X160168167Y-126089449D01*
X160294436Y-126243309D01*
X160245506Y-126269463D01*
X160148815Y-126348815D01*
X160069463Y-126445506D01*
X160010498Y-126555820D01*
X159974188Y-126675518D01*
X159961928Y-126800000D01*
X159965000Y-127114250D01*
X160123750Y-127273000D01*
X161373000Y-127273000D01*
X161373000Y-127253000D01*
X161627000Y-127253000D01*
X161627000Y-127273000D01*
X162876250Y-127273000D01*
X163035000Y-127114250D01*
X163038072Y-126800000D01*
X163025812Y-126675518D01*
X162989502Y-126555820D01*
X162930537Y-126445506D01*
X162851185Y-126348815D01*
X162754494Y-126269463D01*
X162705564Y-126243309D01*
X162831833Y-126089449D01*
X162946511Y-125874901D01*
X163017130Y-125642102D01*
X163040975Y-125400000D01*
X163017130Y-125157898D01*
X162946511Y-124925099D01*
X162831833Y-124710551D01*
X162677502Y-124522498D01*
X162528238Y-124400000D01*
X162677502Y-124277502D01*
X162831833Y-124089449D01*
X162946511Y-123874901D01*
X163017130Y-123642102D01*
X163040975Y-123400000D01*
X163017130Y-123157898D01*
X162946511Y-122925099D01*
X162831833Y-122710551D01*
X162677502Y-122522498D01*
X162528238Y-122400000D01*
X162677502Y-122277502D01*
X162831833Y-122089449D01*
X162946511Y-121874901D01*
X163017130Y-121642102D01*
X163040975Y-121400000D01*
X163017130Y-121157898D01*
X162946511Y-120925099D01*
X162831833Y-120710551D01*
X162677502Y-120522498D01*
X162489449Y-120368167D01*
X162274901Y-120253489D01*
X162042102Y-120182870D01*
X161860665Y-120165000D01*
X161139335Y-120165000D01*
X161030000Y-120175769D01*
X161030000Y-116635921D01*
X161214250Y-116635000D01*
X161373000Y-116476250D01*
X161373000Y-115527000D01*
X161627000Y-115527000D01*
X161627000Y-116476250D01*
X161785750Y-116635000D01*
X162400000Y-116638072D01*
X162524482Y-116625812D01*
X162644180Y-116589502D01*
X162754494Y-116530537D01*
X162851185Y-116451185D01*
X162930537Y-116354494D01*
X162989502Y-116244180D01*
X163025812Y-116124482D01*
X163038072Y-116000000D01*
X163035000Y-115685750D01*
X162876250Y-115527000D01*
X161627000Y-115527000D01*
X161373000Y-115527000D01*
X161353000Y-115527000D01*
X161353000Y-115273000D01*
X161373000Y-115273000D01*
X161373000Y-115253000D01*
X161627000Y-115253000D01*
X161627000Y-115273000D01*
X162876250Y-115273000D01*
X163035000Y-115114250D01*
X163038072Y-114800000D01*
X163025812Y-114675518D01*
X162989502Y-114555820D01*
X162930537Y-114445506D01*
X162851185Y-114348815D01*
X162754494Y-114269463D01*
X162705564Y-114243309D01*
X162831833Y-114089449D01*
X162946511Y-113874901D01*
X163017130Y-113642102D01*
X163040975Y-113400000D01*
X163017130Y-113157898D01*
X162946511Y-112925099D01*
X162831833Y-112710551D01*
X162677502Y-112522498D01*
X162528238Y-112400000D01*
X162677502Y-112277502D01*
X162831833Y-112089449D01*
X162946511Y-111874901D01*
X163017130Y-111642102D01*
X163040975Y-111400000D01*
X163017130Y-111157898D01*
X162946511Y-110925099D01*
X162831833Y-110710551D01*
X162677502Y-110522498D01*
X162528238Y-110400000D01*
X162677502Y-110277502D01*
X162831833Y-110089449D01*
X162946511Y-109874901D01*
X163017130Y-109642102D01*
X163040975Y-109400000D01*
X163017130Y-109157898D01*
X162946511Y-108925099D01*
X162831833Y-108710551D01*
X162677502Y-108522498D01*
X162489449Y-108368167D01*
X162274901Y-108253489D01*
X162042102Y-108182870D01*
X161860665Y-108165000D01*
X161139335Y-108165000D01*
X160957898Y-108182870D01*
X160725099Y-108253489D01*
X160510551Y-108368167D01*
X160322498Y-108522498D01*
X160168167Y-108710551D01*
X160053489Y-108925099D01*
X160018401Y-109040770D01*
X154967005Y-103989375D01*
X154972168Y-103976912D01*
X155035000Y-103661033D01*
X155035000Y-103338967D01*
X154972168Y-103023088D01*
X154848918Y-102725537D01*
X154669987Y-102457748D01*
X154442252Y-102230013D01*
X154174463Y-102051082D01*
X153876912Y-101927832D01*
X153561033Y-101865000D01*
X153238967Y-101865000D01*
X152923088Y-101927832D01*
X152910625Y-101932994D01*
X149826670Y-98849039D01*
X153608096Y-98849039D01*
X153648754Y-98983087D01*
X153768963Y-99237420D01*
X153936481Y-99463414D01*
X154144869Y-99652385D01*
X154386119Y-99797070D01*
X154650960Y-99891909D01*
X154873000Y-99770624D01*
X154873000Y-98627000D01*
X155127000Y-98627000D01*
X155127000Y-99770624D01*
X155349040Y-99891909D01*
X155613881Y-99797070D01*
X155855131Y-99652385D01*
X156063519Y-99463414D01*
X156231037Y-99237420D01*
X156351246Y-98983087D01*
X156391904Y-98849039D01*
X156269915Y-98627000D01*
X155127000Y-98627000D01*
X154873000Y-98627000D01*
X153730085Y-98627000D01*
X153608096Y-98849039D01*
X149826670Y-98849039D01*
X149262000Y-98284370D01*
X149262000Y-98150961D01*
X153608096Y-98150961D01*
X153730085Y-98373000D01*
X154873000Y-98373000D01*
X154873000Y-97229376D01*
X155127000Y-97229376D01*
X155127000Y-98373000D01*
X156269915Y-98373000D01*
X156391904Y-98150961D01*
X156351246Y-98016913D01*
X156231037Y-97762580D01*
X156063519Y-97536586D01*
X155855131Y-97347615D01*
X155613881Y-97202930D01*
X155349040Y-97108091D01*
X155127000Y-97229376D01*
X154873000Y-97229376D01*
X154650960Y-97108091D01*
X154386119Y-97202930D01*
X154144869Y-97347615D01*
X153936481Y-97536586D01*
X153768963Y-97762580D01*
X153648754Y-98016913D01*
X153608096Y-98150961D01*
X149262000Y-98150961D01*
X149262000Y-88650000D01*
X152011928Y-88650000D01*
X152011928Y-90350000D01*
X152024188Y-90474482D01*
X152060498Y-90594180D01*
X152119463Y-90704494D01*
X152198815Y-90801185D01*
X152295506Y-90880537D01*
X152405820Y-90939502D01*
X152525518Y-90975812D01*
X152650000Y-90988072D01*
X152738001Y-90988072D01*
X152738000Y-92464377D01*
X152734314Y-92501800D01*
X152738000Y-92539223D01*
X152738000Y-92539225D01*
X152749026Y-92651177D01*
X152792598Y-92794814D01*
X152792599Y-92794815D01*
X152863355Y-92927192D01*
X152895264Y-92966073D01*
X152958578Y-93043222D01*
X152987654Y-93067084D01*
X158932920Y-99012351D01*
X158956778Y-99041422D01*
X158985848Y-99065279D01*
X159072807Y-99136645D01*
X159099589Y-99150960D01*
X159205185Y-99207402D01*
X159348822Y-99250974D01*
X159460774Y-99262000D01*
X159460777Y-99262000D01*
X159498200Y-99265686D01*
X159535623Y-99262000D01*
X161283293Y-99262000D01*
X161385363Y-99414759D01*
X161585241Y-99614637D01*
X161820273Y-99771680D01*
X162081426Y-99879853D01*
X162358665Y-99935000D01*
X162641335Y-99935000D01*
X162821527Y-99899157D01*
X164038001Y-101115632D01*
X164038001Y-102045919D01*
X164025537Y-102051082D01*
X163757748Y-102230013D01*
X163530013Y-102457748D01*
X163351082Y-102725537D01*
X163227832Y-103023088D01*
X163165000Y-103338967D01*
X163165000Y-103661033D01*
X163227832Y-103976912D01*
X163351082Y-104274463D01*
X163530013Y-104542252D01*
X163757748Y-104769987D01*
X164025537Y-104948918D01*
X164323088Y-105072168D01*
X164638967Y-105135000D01*
X164961033Y-105135000D01*
X165276912Y-105072168D01*
X165574463Y-104948918D01*
X165842252Y-104769987D01*
X166069987Y-104542252D01*
X166248918Y-104274463D01*
X166372168Y-103976912D01*
X166435000Y-103661033D01*
X166435000Y-103338967D01*
X166372168Y-103023088D01*
X166248918Y-102725537D01*
X166069987Y-102457748D01*
X165842252Y-102230013D01*
X165574463Y-102051082D01*
X165562000Y-102045920D01*
X165562000Y-100837422D01*
X165565686Y-100799999D01*
X165558894Y-100731037D01*
X165550974Y-100650622D01*
X165507402Y-100506985D01*
X165436645Y-100374608D01*
X165341422Y-100258578D01*
X165312352Y-100234721D01*
X163899157Y-98821527D01*
X163935000Y-98641335D01*
X163935000Y-98358665D01*
X163879853Y-98081426D01*
X163771680Y-97820273D01*
X163614637Y-97585241D01*
X163414759Y-97385363D01*
X163179727Y-97228320D01*
X162918574Y-97120147D01*
X162641335Y-97065000D01*
X162358665Y-97065000D01*
X162081426Y-97120147D01*
X161820273Y-97228320D01*
X161585241Y-97385363D01*
X161385363Y-97585241D01*
X161283293Y-97738000D01*
X159813831Y-97738000D01*
X158691707Y-96615877D01*
X158709811Y-96613842D01*
X159157468Y-96471297D01*
X159513927Y-96280766D01*
X159700003Y-95939609D01*
X158210000Y-94449605D01*
X158195858Y-94463748D01*
X158016252Y-94284142D01*
X158030395Y-94270000D01*
X158389605Y-94270000D01*
X159879609Y-95760003D01*
X160220766Y-95573927D01*
X160436513Y-95156591D01*
X160566696Y-94705185D01*
X160606313Y-94237054D01*
X160553842Y-93770189D01*
X160411297Y-93322532D01*
X160220766Y-92966073D01*
X159879609Y-92779997D01*
X158389605Y-94270000D01*
X158030395Y-94270000D01*
X156540391Y-92779997D01*
X156199234Y-92966073D01*
X155983487Y-93383409D01*
X155866139Y-93790309D01*
X154676221Y-92600391D01*
X156719997Y-92600391D01*
X158210000Y-94090395D01*
X159700003Y-92600391D01*
X159513927Y-92259234D01*
X159096591Y-92043487D01*
X158645185Y-91913304D01*
X158177054Y-91873687D01*
X157710189Y-91926158D01*
X157262532Y-92068703D01*
X156906073Y-92259234D01*
X156719997Y-92600391D01*
X154676221Y-92600391D01*
X154262000Y-92186170D01*
X154262000Y-90988072D01*
X154350000Y-90988072D01*
X154474482Y-90975812D01*
X154594180Y-90939502D01*
X154704494Y-90880537D01*
X154792876Y-90808004D01*
X154992883Y-90903371D01*
X155276411Y-90975339D01*
X155568531Y-90990611D01*
X155858019Y-90948599D01*
X156133747Y-90850919D01*
X156271157Y-90777472D01*
X156348792Y-90528397D01*
X155500000Y-89679605D01*
X155485858Y-89693748D01*
X155306253Y-89514143D01*
X155320395Y-89500000D01*
X155679605Y-89500000D01*
X156528397Y-90348792D01*
X156777472Y-90271157D01*
X156903371Y-90007117D01*
X156975339Y-89723589D01*
X156990611Y-89431469D01*
X156948599Y-89141981D01*
X156850919Y-88866253D01*
X156777472Y-88728843D01*
X156528397Y-88651208D01*
X155679605Y-89500000D01*
X155320395Y-89500000D01*
X155306253Y-89485858D01*
X155485858Y-89306253D01*
X155500000Y-89320395D01*
X156348792Y-88471603D01*
X156283590Y-88262416D01*
X156446632Y-88153475D01*
X156653475Y-87946632D01*
X156815990Y-87703411D01*
X156927932Y-87433158D01*
X156985000Y-87146260D01*
X156985000Y-86853740D01*
X156927932Y-86566842D01*
X156815990Y-86296589D01*
X156653475Y-86053368D01*
X156446632Y-85846525D01*
X156203411Y-85684010D01*
X155933158Y-85572068D01*
X155646260Y-85515000D01*
X155353740Y-85515000D01*
X155066842Y-85572068D01*
X154796589Y-85684010D01*
X154553368Y-85846525D01*
X154500000Y-85899893D01*
X154446632Y-85846525D01*
X154203411Y-85684010D01*
X153933158Y-85572068D01*
X153646260Y-85515000D01*
X153353740Y-85515000D01*
X153066842Y-85572068D01*
X152796589Y-85684010D01*
X152553368Y-85846525D01*
X152346525Y-86053368D01*
X152184010Y-86296589D01*
X152072068Y-86566842D01*
X152015000Y-86853740D01*
X152015000Y-87146260D01*
X152072068Y-87433158D01*
X152184010Y-87703411D01*
X152346525Y-87946632D01*
X152447690Y-88047797D01*
X152405820Y-88060498D01*
X152295506Y-88119463D01*
X152198815Y-88198815D01*
X152119463Y-88295506D01*
X152060498Y-88405820D01*
X152024188Y-88525518D01*
X152011928Y-88650000D01*
X149262000Y-88650000D01*
X149262000Y-87336707D01*
X149414759Y-87234637D01*
X149614637Y-87034759D01*
X149771680Y-86799727D01*
X149879853Y-86538574D01*
X149935000Y-86261335D01*
X149935000Y-85978665D01*
X149879853Y-85701426D01*
X149771680Y-85440273D01*
X149614637Y-85205241D01*
X149414759Y-85005363D01*
X149179727Y-84848320D01*
X148918574Y-84740147D01*
X148641335Y-84685000D01*
X148358665Y-84685000D01*
X148081426Y-84740147D01*
X147820273Y-84848320D01*
X147585241Y-85005363D01*
X147385363Y-85205241D01*
X147296656Y-85338000D01*
X145516707Y-85338000D01*
X145414637Y-85185241D01*
X145214759Y-84985363D01*
X144979727Y-84828320D01*
X144718574Y-84720147D01*
X144441335Y-84665000D01*
X144158665Y-84665000D01*
X143881426Y-84720147D01*
X143620273Y-84828320D01*
X143385241Y-84985363D01*
X143185363Y-85185241D01*
X143062000Y-85369867D01*
X143062000Y-83899609D01*
X156719997Y-83899609D01*
X156906073Y-84240766D01*
X157323409Y-84456513D01*
X157774815Y-84586696D01*
X158242946Y-84626313D01*
X158709811Y-84573842D01*
X159157468Y-84431297D01*
X159513927Y-84240766D01*
X159700003Y-83899609D01*
X158210000Y-82409605D01*
X156719997Y-83899609D01*
X143062000Y-83899609D01*
X143062000Y-82262946D01*
X155813687Y-82262946D01*
X155866158Y-82729811D01*
X156008703Y-83177468D01*
X156199234Y-83533927D01*
X156540391Y-83720003D01*
X158030395Y-82230000D01*
X158389605Y-82230000D01*
X159879609Y-83720003D01*
X160220766Y-83533927D01*
X160436513Y-83116591D01*
X160566696Y-82665185D01*
X160606313Y-82197054D01*
X160553842Y-81730189D01*
X160411297Y-81282532D01*
X160220766Y-80926073D01*
X159879609Y-80739997D01*
X158389605Y-82230000D01*
X158030395Y-82230000D01*
X156540391Y-80739997D01*
X156199234Y-80926073D01*
X155983487Y-81343409D01*
X155853304Y-81794815D01*
X155813687Y-82262946D01*
X143062000Y-82262946D01*
X143062000Y-80560391D01*
X156719997Y-80560391D01*
X158210000Y-82050395D01*
X159700003Y-80560391D01*
X159513927Y-80219234D01*
X159096591Y-80003487D01*
X158645185Y-79873304D01*
X158177054Y-79833687D01*
X157710189Y-79886158D01*
X157262532Y-80028703D01*
X156906073Y-80219234D01*
X156719997Y-80560391D01*
X143062000Y-80560391D01*
X143062000Y-79210133D01*
X143185363Y-79394759D01*
X143385241Y-79594637D01*
X143620273Y-79751680D01*
X143881426Y-79859853D01*
X144158665Y-79915000D01*
X144441335Y-79915000D01*
X144718574Y-79859853D01*
X144979727Y-79751680D01*
X145214759Y-79594637D01*
X145414637Y-79394759D01*
X145571680Y-79159727D01*
X145679853Y-78898574D01*
X145735000Y-78621335D01*
X145735000Y-78358665D01*
X147065000Y-78358665D01*
X147065000Y-78641335D01*
X147120147Y-78918574D01*
X147228320Y-79179727D01*
X147385363Y-79414759D01*
X147585241Y-79614637D01*
X147820273Y-79771680D01*
X148081426Y-79879853D01*
X148358665Y-79935000D01*
X148641335Y-79935000D01*
X148918574Y-79879853D01*
X149179727Y-79771680D01*
X149414759Y-79614637D01*
X149614637Y-79414759D01*
X149771680Y-79179727D01*
X149879853Y-78918574D01*
X149935000Y-78641335D01*
X149935000Y-78358665D01*
X149899157Y-78178474D01*
X150152353Y-77925278D01*
X150181422Y-77901422D01*
X150276645Y-77785392D01*
X150347402Y-77653015D01*
X150390974Y-77509378D01*
X150402000Y-77397426D01*
X150402000Y-77397424D01*
X150405686Y-77360001D01*
X150402000Y-77322578D01*
X150402000Y-76558686D01*
X161620919Y-76558686D01*
X161957106Y-77027868D01*
X162587068Y-77368237D01*
X163271327Y-77579166D01*
X163983589Y-77652550D01*
X164696482Y-77585569D01*
X165382609Y-77380796D01*
X166015603Y-77046102D01*
X166042894Y-77027868D01*
X166379081Y-76558686D01*
X164000000Y-74179605D01*
X161620919Y-76558686D01*
X150402000Y-76558686D01*
X150402000Y-73983589D01*
X160347450Y-73983589D01*
X160414431Y-74696482D01*
X160619204Y-75382609D01*
X160953898Y-76015603D01*
X160972132Y-76042894D01*
X161441314Y-76379081D01*
X163820395Y-74000000D01*
X164179605Y-74000000D01*
X166558686Y-76379081D01*
X167027868Y-76042894D01*
X167368237Y-75412932D01*
X167579166Y-74728673D01*
X167652550Y-74016411D01*
X167585569Y-73303518D01*
X167380796Y-72617391D01*
X167046102Y-71984397D01*
X167027868Y-71957106D01*
X166558686Y-71620919D01*
X164179605Y-74000000D01*
X163820395Y-74000000D01*
X161441314Y-71620919D01*
X160972132Y-71957106D01*
X160631763Y-72587068D01*
X160420834Y-73271327D01*
X160347450Y-73983589D01*
X150402000Y-73983589D01*
X150402000Y-73736976D01*
X150618505Y-73592312D01*
X150832312Y-73378505D01*
X151000299Y-73127095D01*
X151116011Y-72847743D01*
X151175000Y-72551184D01*
X151175000Y-72248816D01*
X151116011Y-71952257D01*
X151000299Y-71672905D01*
X150845555Y-71441314D01*
X161620919Y-71441314D01*
X164000000Y-73820395D01*
X166379081Y-71441314D01*
X166042894Y-70972132D01*
X165412932Y-70631763D01*
X164728673Y-70420834D01*
X164016411Y-70347450D01*
X163303518Y-70414431D01*
X162617391Y-70619204D01*
X161984397Y-70953898D01*
X161957106Y-70972132D01*
X161620919Y-71441314D01*
X150845555Y-71441314D01*
X150832312Y-71421495D01*
X150618505Y-71207688D01*
X150367095Y-71039701D01*
X150087743Y-70923989D01*
X149791184Y-70865000D01*
X149488816Y-70865000D01*
X149192257Y-70923989D01*
X148912905Y-71039701D01*
X148661495Y-71207688D01*
X148595056Y-71274127D01*
X148589502Y-71255820D01*
X148530537Y-71145506D01*
X148451185Y-71048815D01*
X148354494Y-70969463D01*
X148244180Y-70910498D01*
X148124482Y-70874188D01*
X148000000Y-70861928D01*
X147385750Y-70865000D01*
X147227000Y-71023750D01*
X147227000Y-72273000D01*
X147247000Y-72273000D01*
X147247000Y-72527000D01*
X147227000Y-72527000D01*
X147227000Y-73776250D01*
X147385750Y-73935000D01*
X148000000Y-73938072D01*
X148124482Y-73925812D01*
X148244180Y-73889502D01*
X148354494Y-73830537D01*
X148451185Y-73751185D01*
X148530537Y-73654494D01*
X148589502Y-73544180D01*
X148595056Y-73525873D01*
X148661495Y-73592312D01*
X148878001Y-73736977D01*
X148878000Y-77044369D01*
X148821526Y-77100843D01*
X148641335Y-77065000D01*
X148358665Y-77065000D01*
X148081426Y-77120147D01*
X147820273Y-77228320D01*
X147585241Y-77385363D01*
X147385363Y-77585241D01*
X147228320Y-77820273D01*
X147120147Y-78081426D01*
X147065000Y-78358665D01*
X145735000Y-78358665D01*
X145735000Y-78338665D01*
X145679853Y-78061426D01*
X145571680Y-77800273D01*
X145414637Y-77565241D01*
X145214759Y-77365363D01*
X145056520Y-77259631D01*
X145050974Y-77203322D01*
X145007402Y-77059685D01*
X144940547Y-76934608D01*
X144936645Y-76927307D01*
X144865279Y-76840348D01*
X144841422Y-76811278D01*
X144812351Y-76787420D01*
X144402000Y-76377070D01*
X144402000Y-73736976D01*
X144618505Y-73592312D01*
X144832312Y-73378505D01*
X144884767Y-73300000D01*
X145561928Y-73300000D01*
X145574188Y-73424482D01*
X145610498Y-73544180D01*
X145669463Y-73654494D01*
X145748815Y-73751185D01*
X145845506Y-73830537D01*
X145955820Y-73889502D01*
X146075518Y-73925812D01*
X146200000Y-73938072D01*
X146814250Y-73935000D01*
X146973000Y-73776250D01*
X146973000Y-72527000D01*
X145723750Y-72527000D01*
X145565000Y-72685750D01*
X145561928Y-73300000D01*
X144884767Y-73300000D01*
X145000299Y-73127095D01*
X145116011Y-72847743D01*
X145175000Y-72551184D01*
X145175000Y-72248816D01*
X145116011Y-71952257D01*
X145000299Y-71672905D01*
X144884768Y-71500000D01*
X145561928Y-71500000D01*
X145565000Y-72114250D01*
X145723750Y-72273000D01*
X146973000Y-72273000D01*
X146973000Y-71023750D01*
X146814250Y-70865000D01*
X146200000Y-70861928D01*
X146075518Y-70874188D01*
X145955820Y-70910498D01*
X145845506Y-70969463D01*
X145748815Y-71048815D01*
X145669463Y-71145506D01*
X145610498Y-71255820D01*
X145574188Y-71375518D01*
X145561928Y-71500000D01*
X144884768Y-71500000D01*
X144832312Y-71421495D01*
X144618505Y-71207688D01*
X144367095Y-71039701D01*
X144087743Y-70923989D01*
X143791184Y-70865000D01*
X143488816Y-70865000D01*
X143192257Y-70923989D01*
X142912905Y-71039701D01*
X142661495Y-71207688D01*
X142595056Y-71274127D01*
X142589502Y-71255820D01*
X142530537Y-71145506D01*
X142451185Y-71048815D01*
X142354494Y-70969463D01*
X142244180Y-70910498D01*
X142124482Y-70874188D01*
X142000000Y-70861928D01*
X140200000Y-70861928D01*
X140075518Y-70874188D01*
X139955820Y-70910498D01*
X139845506Y-70969463D01*
X139748815Y-71048815D01*
X139669463Y-71145506D01*
X139610498Y-71255820D01*
X139574188Y-71375518D01*
X139561928Y-71500000D01*
X138884768Y-71500000D01*
X138832312Y-71421495D01*
X138618505Y-71207688D01*
X138367095Y-71039701D01*
X138087743Y-70923989D01*
X137791184Y-70865000D01*
X137488816Y-70865000D01*
X137192257Y-70923989D01*
X136912905Y-71039701D01*
X136661495Y-71207688D01*
X136595056Y-71274127D01*
X136589502Y-71255820D01*
X136530537Y-71145506D01*
X136451185Y-71048815D01*
X136354494Y-70969463D01*
X136244180Y-70910498D01*
X136124482Y-70874188D01*
X136000000Y-70861928D01*
X134200000Y-70861928D01*
X134075518Y-70874188D01*
X133955820Y-70910498D01*
X133845506Y-70969463D01*
X133748815Y-71048815D01*
X133669463Y-71145506D01*
X133610498Y-71255820D01*
X133574188Y-71375518D01*
X133561928Y-71500000D01*
X95320395Y-71500000D01*
X95379081Y-71441314D01*
X95042894Y-70972132D01*
X94412932Y-70631763D01*
X93728673Y-70420834D01*
X93016411Y-70347450D01*
X92303518Y-70414431D01*
X91617391Y-70619204D01*
X90984397Y-70953898D01*
X90957106Y-70972132D01*
X90620919Y-71441314D01*
X87660000Y-71441314D01*
X87660000Y-68660000D01*
X169340000Y-68660000D01*
X169340001Y-134967581D01*
G37*
X169340001Y-134967581D02*
X169340000Y-139340000D01*
X141135286Y-139340000D01*
X141141514Y-139336671D01*
X141213097Y-139092702D01*
X140400000Y-138279605D01*
X139586903Y-139092702D01*
X139658486Y-139336671D01*
X139665522Y-139340000D01*
X125935286Y-139340000D01*
X125941514Y-139336671D01*
X126013097Y-139092702D01*
X125200000Y-138279605D01*
X124386903Y-139092702D01*
X124458486Y-139336671D01*
X124465522Y-139340000D01*
X87660000Y-139340000D01*
X87660000Y-138170512D01*
X123759783Y-138170512D01*
X123801213Y-138450130D01*
X123896397Y-138716292D01*
X123963329Y-138841514D01*
X124207298Y-138913097D01*
X125020395Y-138100000D01*
X125379605Y-138100000D01*
X126192702Y-138913097D01*
X126436671Y-138841514D01*
X126557571Y-138586004D01*
X126626300Y-138311816D01*
X126633265Y-138170512D01*
X138959783Y-138170512D01*
X139001213Y-138450130D01*
X139096397Y-138716292D01*
X139163329Y-138841514D01*
X139407298Y-138913097D01*
X140220395Y-138100000D01*
X140579605Y-138100000D01*
X141392702Y-138913097D01*
X141636671Y-138841514D01*
X141757571Y-138586004D01*
X141826300Y-138311816D01*
X141840217Y-138029488D01*
X141798787Y-137749870D01*
X141703603Y-137483708D01*
X141636671Y-137358486D01*
X141392702Y-137286903D01*
X140579605Y-138100000D01*
X140220395Y-138100000D01*
X139407298Y-137286903D01*
X139163329Y-137358486D01*
X139042429Y-137613996D01*
X138973700Y-137888184D01*
X138959783Y-138170512D01*
X126633265Y-138170512D01*
X126640217Y-138029488D01*
X126598787Y-137749870D01*
X126503603Y-137483708D01*
X126436671Y-137358486D01*
X126192702Y-137286903D01*
X125379605Y-138100000D01*
X125020395Y-138100000D01*
X124207298Y-137286903D01*
X123963329Y-137358486D01*
X123842429Y-137613996D01*
X123773700Y-137888184D01*
X123759783Y-138170512D01*
X87660000Y-138170512D01*
X87660000Y-136558686D01*
X90620919Y-136558686D01*
X90957106Y-137027868D01*
X91587068Y-137368237D01*
X92271327Y-137579166D01*
X92983589Y-137652550D01*
X93696482Y-137585569D01*
X94382609Y-137380796D01*
X95015603Y-137046102D01*
X95042894Y-137027868D01*
X95379081Y-136558686D01*
X93000000Y-134179605D01*
X90620919Y-136558686D01*
X87660000Y-136558686D01*
X87660000Y-133983589D01*
X89347450Y-133983589D01*
X89414431Y-134696482D01*
X89619204Y-135382609D01*
X89953898Y-136015603D01*
X89972132Y-136042894D01*
X90441314Y-136379081D01*
X92820395Y-134000000D01*
X93179605Y-134000000D01*
X95558686Y-136379081D01*
X96027868Y-136042894D01*
X96368237Y-135412932D01*
X96579166Y-134728673D01*
X96652550Y-134016411D01*
X96585569Y-133303518D01*
X96452804Y-132858665D01*
X97445000Y-132858665D01*
X97445000Y-133141335D01*
X97500147Y-133418574D01*
X97608320Y-133679727D01*
X97765363Y-133914759D01*
X97965241Y-134114637D01*
X98118001Y-134216707D01*
X98118000Y-134783293D01*
X97965241Y-134885363D01*
X97765363Y-135085241D01*
X97608320Y-135320273D01*
X97500147Y-135581426D01*
X97445000Y-135858665D01*
X97445000Y-136141335D01*
X97500147Y-136418574D01*
X97608320Y-136679727D01*
X97765363Y-136914759D01*
X97965241Y-137114637D01*
X98200273Y-137271680D01*
X98461426Y-137379853D01*
X98738665Y-137435000D01*
X99021335Y-137435000D01*
X99298574Y-137379853D01*
X99559727Y-137271680D01*
X99794759Y-137114637D01*
X99994637Y-136914759D01*
X100151680Y-136679727D01*
X100259853Y-136418574D01*
X100315000Y-136141335D01*
X100315000Y-135858665D01*
X100259853Y-135581426D01*
X100151680Y-135320273D01*
X99994637Y-135085241D01*
X99794759Y-134885363D01*
X99642000Y-134783293D01*
X99642000Y-134216707D01*
X99794759Y-134114637D01*
X99994637Y-133914759D01*
X100151680Y-133679727D01*
X100259853Y-133418574D01*
X100315000Y-133141335D01*
X100315000Y-132858665D01*
X100259853Y-132581426D01*
X100151680Y-132320273D01*
X100071317Y-132200000D01*
X105061928Y-132200000D01*
X105061928Y-133800000D01*
X105074188Y-133924482D01*
X105110498Y-134044180D01*
X105169463Y-134154494D01*
X105248815Y-134251185D01*
X105345506Y-134330537D01*
X105455820Y-134389502D01*
X105575518Y-134425812D01*
X105700000Y-134438072D01*
X105738001Y-134438072D01*
X105738000Y-134783293D01*
X105585241Y-134885363D01*
X105385363Y-135085241D01*
X105228320Y-135320273D01*
X105120147Y-135581426D01*
X105065000Y-135858665D01*
X105065000Y-136141335D01*
X105120147Y-136418574D01*
X105228320Y-136679727D01*
X105385363Y-136914759D01*
X105585241Y-137114637D01*
X105820273Y-137271680D01*
X106081426Y-137379853D01*
X106358665Y-137435000D01*
X106641335Y-137435000D01*
X106918574Y-137379853D01*
X107179727Y-137271680D01*
X107414759Y-137114637D01*
X107422098Y-137107298D01*
X124386903Y-137107298D01*
X125200000Y-137920395D01*
X126013097Y-137107298D01*
X139586903Y-137107298D01*
X140400000Y-137920395D01*
X141213097Y-137107298D01*
X141141514Y-136863329D01*
X140886004Y-136742429D01*
X140611816Y-136673700D01*
X140329488Y-136659783D01*
X140049870Y-136701213D01*
X139783708Y-136796397D01*
X139658486Y-136863329D01*
X139586903Y-137107298D01*
X126013097Y-137107298D01*
X125941514Y-136863329D01*
X125686004Y-136742429D01*
X125411816Y-136673700D01*
X125129488Y-136659783D01*
X124849870Y-136701213D01*
X124583708Y-136796397D01*
X124458486Y-136863329D01*
X124386903Y-137107298D01*
X107422098Y-137107298D01*
X107614637Y-136914759D01*
X107771680Y-136679727D01*
X107821816Y-136558686D01*
X161620919Y-136558686D01*
X161957106Y-137027868D01*
X162587068Y-137368237D01*
X163271327Y-137579166D01*
X163983589Y-137652550D01*
X164696482Y-137585569D01*
X165382609Y-137380796D01*
X166015603Y-137046102D01*
X166042894Y-137027868D01*
X166379081Y-136558686D01*
X164000000Y-134179605D01*
X161620919Y-136558686D01*
X107821816Y-136558686D01*
X107879853Y-136418574D01*
X107935000Y-136141335D01*
X107935000Y-135858665D01*
X107879853Y-135581426D01*
X107771680Y-135320273D01*
X107614637Y-135085241D01*
X107414759Y-134885363D01*
X107262000Y-134783293D01*
X107262000Y-134438072D01*
X107300000Y-134438072D01*
X107424482Y-134425812D01*
X107544180Y-134389502D01*
X107654494Y-134330537D01*
X107751185Y-134251185D01*
X107830537Y-134154494D01*
X107889502Y-134044180D01*
X107925812Y-133924482D01*
X107938072Y-133800000D01*
X107938072Y-132200000D01*
X107925812Y-132075518D01*
X107889502Y-131955820D01*
X107830537Y-131845506D01*
X107751185Y-131748815D01*
X107654494Y-131669463D01*
X107544180Y-131610498D01*
X107424482Y-131574188D01*
X107300000Y-131561928D01*
X105700000Y-131561928D01*
X105575518Y-131574188D01*
X105455820Y-131610498D01*
X105345506Y-131669463D01*
X105248815Y-131748815D01*
X105169463Y-131845506D01*
X105110498Y-131955820D01*
X105074188Y-132075518D01*
X105061928Y-132200000D01*
X100071317Y-132200000D01*
X99994637Y-132085241D01*
X99794759Y-131885363D01*
X99559727Y-131728320D01*
X99298574Y-131620147D01*
X99021335Y-131565000D01*
X98738665Y-131565000D01*
X98461426Y-131620147D01*
X98200273Y-131728320D01*
X97965241Y-131885363D01*
X97765363Y-132085241D01*
X97608320Y-132320273D01*
X97500147Y-132581426D01*
X97445000Y-132858665D01*
X96452804Y-132858665D01*
X96380796Y-132617391D01*
X96046102Y-131984397D01*
X96027868Y-131957106D01*
X95558686Y-131620919D01*
X93179605Y-134000000D01*
X92820395Y-134000000D01*
X90441314Y-131620919D01*
X89972132Y-131957106D01*
X89631763Y-132587068D01*
X89420834Y-133271327D01*
X89347450Y-133983589D01*
X87660000Y-133983589D01*
X87660000Y-131441314D01*
X90620919Y-131441314D01*
X93000000Y-133820395D01*
X95379081Y-131441314D01*
X95042894Y-130972132D01*
X94412932Y-130631763D01*
X93851398Y-130458665D01*
X123765000Y-130458665D01*
X123765000Y-130741335D01*
X123820147Y-131018574D01*
X123928320Y-131279727D01*
X124085363Y-131514759D01*
X124285241Y-131714637D01*
X124520273Y-131871680D01*
X124781426Y-131979853D01*
X125058665Y-132035000D01*
X125341335Y-132035000D01*
X125618574Y-131979853D01*
X125879727Y-131871680D01*
X126114759Y-131714637D01*
X126314637Y-131514759D01*
X126471680Y-131279727D01*
X126579853Y-131018574D01*
X126635000Y-130741335D01*
X126635000Y-130458665D01*
X126579853Y-130181426D01*
X126471680Y-129920273D01*
X126314637Y-129685241D01*
X126114759Y-129485363D01*
X125879727Y-129328320D01*
X125618574Y-129220147D01*
X125341335Y-129165000D01*
X125058665Y-129165000D01*
X124781426Y-129220147D01*
X124520273Y-129328320D01*
X124285241Y-129485363D01*
X124085363Y-129685241D01*
X123928320Y-129920273D01*
X123820147Y-130181426D01*
X123765000Y-130458665D01*
X93851398Y-130458665D01*
X93728673Y-130420834D01*
X93016411Y-130347450D01*
X92303518Y-130414431D01*
X91617391Y-130619204D01*
X90984397Y-130953898D01*
X90957106Y-130972132D01*
X90620919Y-131441314D01*
X87660000Y-131441314D01*
X87660000Y-127769040D01*
X88608091Y-127769040D01*
X88702930Y-128033881D01*
X88847615Y-128275131D01*
X89036586Y-128483519D01*
X89262580Y-128651037D01*
X89516913Y-128771246D01*
X89650961Y-128811904D01*
X89873000Y-128689915D01*
X89873000Y-127547000D01*
X90127000Y-127547000D01*
X90127000Y-128689915D01*
X90349039Y-128811904D01*
X90483087Y-128771246D01*
X90737420Y-128651037D01*
X90963414Y-128483519D01*
X91152385Y-128275131D01*
X91297070Y-128033881D01*
X91391909Y-127769040D01*
X91270624Y-127547000D01*
X90127000Y-127547000D01*
X89873000Y-127547000D01*
X88729376Y-127547000D01*
X88608091Y-127769040D01*
X87660000Y-127769040D01*
X87660000Y-127070960D01*
X88608091Y-127070960D01*
X88729376Y-127293000D01*
X89873000Y-127293000D01*
X89873000Y-126150085D01*
X90127000Y-126150085D01*
X90127000Y-127293000D01*
X91270624Y-127293000D01*
X91289378Y-127258665D01*
X91965000Y-127258665D01*
X91965000Y-127541335D01*
X92020147Y-127818574D01*
X92128320Y-128079727D01*
X92285363Y-128314759D01*
X92485241Y-128514637D01*
X92720273Y-128671680D01*
X92981426Y-128779853D01*
X93258665Y-128835000D01*
X93541335Y-128835000D01*
X93818574Y-128779853D01*
X94079727Y-128671680D01*
X94314759Y-128514637D01*
X94514637Y-128314759D01*
X94671680Y-128079727D01*
X94779853Y-127818574D01*
X94823521Y-127599040D01*
X105658091Y-127599040D01*
X105752930Y-127863881D01*
X105897615Y-128105131D01*
X106086586Y-128313519D01*
X106312580Y-128481037D01*
X106566913Y-128601246D01*
X106700961Y-128641904D01*
X106923000Y-128519915D01*
X106923000Y-127377000D01*
X107177000Y-127377000D01*
X107177000Y-128519915D01*
X107399039Y-128641904D01*
X107533087Y-128601246D01*
X107787420Y-128481037D01*
X108013414Y-128313519D01*
X108202385Y-128105131D01*
X108347070Y-127863881D01*
X108441909Y-127599040D01*
X108320624Y-127377000D01*
X107177000Y-127377000D01*
X106923000Y-127377000D01*
X105779376Y-127377000D01*
X105658091Y-127599040D01*
X94823521Y-127599040D01*
X94835000Y-127541335D01*
X94835000Y-127258665D01*
X94779853Y-126981426D01*
X94671680Y-126720273D01*
X94614979Y-126635413D01*
X96094192Y-126635413D01*
X96189956Y-126899814D01*
X96479571Y-127040704D01*
X96791108Y-127122384D01*
X97112595Y-127141718D01*
X97431675Y-127097961D01*
X97736088Y-126992795D01*
X97910044Y-126899814D01*
X98005808Y-126635413D01*
X102594192Y-126635413D01*
X102689956Y-126899814D01*
X102979571Y-127040704D01*
X103291108Y-127122384D01*
X103612595Y-127141718D01*
X103931675Y-127097961D01*
X104236088Y-126992795D01*
X104407899Y-126900960D01*
X105658091Y-126900960D01*
X105779376Y-127123000D01*
X106923000Y-127123000D01*
X106923000Y-125980085D01*
X107177000Y-125980085D01*
X107177000Y-127123000D01*
X108320624Y-127123000D01*
X108441909Y-126900960D01*
X108347070Y-126636119D01*
X108202385Y-126394869D01*
X108013414Y-126186481D01*
X107787420Y-126018963D01*
X107533087Y-125898754D01*
X107399039Y-125858096D01*
X107177000Y-125980085D01*
X106923000Y-125980085D01*
X106700961Y-125858096D01*
X106566913Y-125898754D01*
X106312580Y-126018963D01*
X106086586Y-126186481D01*
X105897615Y-126394869D01*
X105752930Y-126636119D01*
X105658091Y-126900960D01*
X104407899Y-126900960D01*
X104410044Y-126899814D01*
X104505808Y-126635413D01*
X103550000Y-125679605D01*
X102594192Y-126635413D01*
X98005808Y-126635413D01*
X97050000Y-125679605D01*
X96094192Y-126635413D01*
X94614979Y-126635413D01*
X94514637Y-126485241D01*
X94314759Y-126285363D01*
X94079727Y-126128320D01*
X93818574Y-126020147D01*
X93541335Y-125965000D01*
X93258665Y-125965000D01*
X92981426Y-126020147D01*
X92720273Y-126128320D01*
X92485241Y-126285363D01*
X92285363Y-126485241D01*
X92128320Y-126720273D01*
X92020147Y-126981426D01*
X91965000Y-127258665D01*
X91289378Y-127258665D01*
X91391909Y-127070960D01*
X91297070Y-126806119D01*
X91152385Y-126564869D01*
X90963414Y-126356481D01*
X90737420Y-126188963D01*
X90483087Y-126068754D01*
X90349039Y-126028096D01*
X90127000Y-126150085D01*
X89873000Y-126150085D01*
X89650961Y-126028096D01*
X89516913Y-126068754D01*
X89262580Y-126188963D01*
X89036586Y-126356481D01*
X88847615Y-126564869D01*
X88702930Y-126806119D01*
X88608091Y-127070960D01*
X87660000Y-127070960D01*
X87660000Y-125562595D01*
X95408282Y-125562595D01*
X95452039Y-125881675D01*
X95557205Y-126186088D01*
X95650186Y-126360044D01*
X95914587Y-126455808D01*
X96870395Y-125500000D01*
X97229605Y-125500000D01*
X98185413Y-126455808D01*
X98449814Y-126360044D01*
X98590704Y-126070429D01*
X98672384Y-125758892D01*
X98684189Y-125562595D01*
X101908282Y-125562595D01*
X101952039Y-125881675D01*
X102057205Y-126186088D01*
X102150186Y-126360044D01*
X102414587Y-126455808D01*
X103370395Y-125500000D01*
X103729605Y-125500000D01*
X104685413Y-126455808D01*
X104949814Y-126360044D01*
X105090704Y-126070429D01*
X105172384Y-125758892D01*
X105191718Y-125437405D01*
X105147961Y-125118325D01*
X105042795Y-124813912D01*
X104949814Y-124639956D01*
X104685413Y-124544192D01*
X103729605Y-125500000D01*
X103370395Y-125500000D01*
X102414587Y-124544192D01*
X102150186Y-124639956D01*
X102009296Y-124929571D01*
X101927616Y-125241108D01*
X101908282Y-125562595D01*
X98684189Y-125562595D01*
X98691718Y-125437405D01*
X98647961Y-125118325D01*
X98542795Y-124813912D01*
X98449814Y-124639956D01*
X98185413Y-124544192D01*
X97229605Y-125500000D01*
X96870395Y-125500000D01*
X95914587Y-124544192D01*
X95650186Y-124639956D01*
X95509296Y-124929571D01*
X95427616Y-125241108D01*
X95408282Y-125562595D01*
X87660000Y-125562595D01*
X87660000Y-124364587D01*
X96094192Y-124364587D01*
X97050000Y-125320395D01*
X98005808Y-124364587D01*
X102594192Y-124364587D01*
X103550000Y-125320395D01*
X104505808Y-124364587D01*
X104410044Y-124100186D01*
X104120429Y-123959296D01*
X103808892Y-123877616D01*
X103487405Y-123858282D01*
X103168325Y-123902039D01*
X102863912Y-124007205D01*
X102689956Y-124100186D01*
X102594192Y-124364587D01*
X98005808Y-124364587D01*
X97910044Y-124100186D01*
X97620429Y-123959296D01*
X97308892Y-123877616D01*
X96987405Y-123858282D01*
X96668325Y-123902039D01*
X96363912Y-124007205D01*
X96189956Y-124100186D01*
X96094192Y-124364587D01*
X87660000Y-124364587D01*
X87660000Y-119658665D01*
X88565000Y-119658665D01*
X88565000Y-119941335D01*
X88620147Y-120218574D01*
X88728320Y-120479727D01*
X88885363Y-120714759D01*
X89085241Y-120914637D01*
X89320273Y-121071680D01*
X89581426Y-121179853D01*
X89858665Y-121235000D01*
X90141335Y-121235000D01*
X90418574Y-121179853D01*
X90679727Y-121071680D01*
X90914759Y-120914637D01*
X91114637Y-120714759D01*
X91271680Y-120479727D01*
X91379853Y-120218574D01*
X91435000Y-119941335D01*
X91435000Y-119758665D01*
X91965000Y-119758665D01*
X91965000Y-120041335D01*
X92020147Y-120318574D01*
X92128320Y-120579727D01*
X92285363Y-120814759D01*
X92485241Y-121014637D01*
X92720273Y-121171680D01*
X92981426Y-121279853D01*
X93258665Y-121335000D01*
X93541335Y-121335000D01*
X93818574Y-121279853D01*
X94079727Y-121171680D01*
X94314759Y-121014637D01*
X94490429Y-120838967D01*
X95415000Y-120838967D01*
X95415000Y-121161033D01*
X95477832Y-121476912D01*
X95601082Y-121774463D01*
X95780013Y-122042252D01*
X96007748Y-122269987D01*
X96275537Y-122448918D01*
X96573088Y-122572168D01*
X96888967Y-122635000D01*
X97211033Y-122635000D01*
X97526912Y-122572168D01*
X97824463Y-122448918D01*
X98092252Y-122269987D01*
X98319987Y-122042252D01*
X98498918Y-121774463D01*
X98622168Y-121476912D01*
X98685000Y-121161033D01*
X98685000Y-120838967D01*
X101915000Y-120838967D01*
X101915000Y-121161033D01*
X101977832Y-121476912D01*
X102101082Y-121774463D01*
X102280013Y-122042252D01*
X102507748Y-122269987D01*
X102775537Y-122448918D01*
X103073088Y-122572168D01*
X103388967Y-122635000D01*
X103711033Y-122635000D01*
X104026912Y-122572168D01*
X104324463Y-122448918D01*
X104592252Y-122269987D01*
X104819987Y-122042252D01*
X104998918Y-121774463D01*
X105122168Y-121476912D01*
X105185000Y-121161033D01*
X105185000Y-120838967D01*
X105122168Y-120523088D01*
X104998918Y-120225537D01*
X104819987Y-119957748D01*
X104592252Y-119730013D01*
X104324463Y-119551082D01*
X104173776Y-119488665D01*
X105615000Y-119488665D01*
X105615000Y-119771335D01*
X105670147Y-120048574D01*
X105778320Y-120309727D01*
X105935363Y-120544759D01*
X106135241Y-120744637D01*
X106370273Y-120901680D01*
X106631426Y-121009853D01*
X106908665Y-121065000D01*
X107191335Y-121065000D01*
X107468574Y-121009853D01*
X107729727Y-120901680D01*
X107964759Y-120744637D01*
X108164637Y-120544759D01*
X108321680Y-120309727D01*
X108429853Y-120048574D01*
X108485000Y-119771335D01*
X108485000Y-119488665D01*
X108429853Y-119211426D01*
X108321680Y-118950273D01*
X108164637Y-118715241D01*
X107964759Y-118515363D01*
X107729727Y-118358320D01*
X107468574Y-118250147D01*
X107191335Y-118195000D01*
X106908665Y-118195000D01*
X106631426Y-118250147D01*
X106370273Y-118358320D01*
X106135241Y-118515363D01*
X105935363Y-118715241D01*
X105778320Y-118950273D01*
X105670147Y-119211426D01*
X105615000Y-119488665D01*
X104173776Y-119488665D01*
X104026912Y-119427832D01*
X103711033Y-119365000D01*
X103388967Y-119365000D01*
X103073088Y-119427832D01*
X102775537Y-119551082D01*
X102507748Y-119730013D01*
X102280013Y-119957748D01*
X102101082Y-120225537D01*
X101977832Y-120523088D01*
X101915000Y-120838967D01*
X98685000Y-120838967D01*
X98622168Y-120523088D01*
X98498918Y-120225537D01*
X98319987Y-119957748D01*
X98092252Y-119730013D01*
X97824463Y-119551082D01*
X97526912Y-119427832D01*
X97211033Y-119365000D01*
X96888967Y-119365000D01*
X96573088Y-119427832D01*
X96275537Y-119551082D01*
X96007748Y-119730013D01*
X95780013Y-119957748D01*
X95601082Y-120225537D01*
X95477832Y-120523088D01*
X95415000Y-120838967D01*
X94490429Y-120838967D01*
X94514637Y-120814759D01*
X94671680Y-120579727D01*
X94779853Y-120318574D01*
X94835000Y-120041335D01*
X94835000Y-119758665D01*
X94779853Y-119481426D01*
X94671680Y-119220273D01*
X94514637Y-118985241D01*
X94314759Y-118785363D01*
X94079727Y-118628320D01*
X93818574Y-118520147D01*
X93541335Y-118465000D01*
X93258665Y-118465000D01*
X92981426Y-118520147D01*
X92720273Y-118628320D01*
X92485241Y-118785363D01*
X92285363Y-118985241D01*
X92128320Y-119220273D01*
X92020147Y-119481426D01*
X91965000Y-119758665D01*
X91435000Y-119758665D01*
X91435000Y-119658665D01*
X91379853Y-119381426D01*
X91271680Y-119120273D01*
X91114637Y-118885241D01*
X90914759Y-118685363D01*
X90679727Y-118528320D01*
X90418574Y-118420147D01*
X90141335Y-118365000D01*
X89858665Y-118365000D01*
X89581426Y-118420147D01*
X89320273Y-118528320D01*
X89085241Y-118685363D01*
X88885363Y-118885241D01*
X88728320Y-119120273D01*
X88620147Y-119381426D01*
X88565000Y-119658665D01*
X87660000Y-119658665D01*
X87660000Y-106356890D01*
X103758524Y-106356890D01*
X103803175Y-106504099D01*
X103928359Y-106766920D01*
X104102412Y-107000269D01*
X104318645Y-107195178D01*
X104568748Y-107344157D01*
X104843109Y-107441481D01*
X105073000Y-107320814D01*
X105073000Y-106127000D01*
X103879845Y-106127000D01*
X103758524Y-106356890D01*
X87660000Y-106356890D01*
X87660000Y-82850000D01*
X95511928Y-82850000D01*
X95524188Y-82974482D01*
X95560498Y-83094180D01*
X95619463Y-83204494D01*
X95698815Y-83301185D01*
X95795506Y-83380537D01*
X95905820Y-83439502D01*
X96025518Y-83475812D01*
X96150000Y-83488072D01*
X96714250Y-83485000D01*
X96873000Y-83326250D01*
X96873000Y-82127000D01*
X95673750Y-82127000D01*
X95515000Y-82285750D01*
X95511928Y-82850000D01*
X87660000Y-82850000D01*
X87660000Y-81150000D01*
X95511928Y-81150000D01*
X95515000Y-81714250D01*
X95673750Y-81873000D01*
X96873000Y-81873000D01*
X96873000Y-80673750D01*
X97127000Y-80673750D01*
X97127000Y-81873000D01*
X97147000Y-81873000D01*
X97147000Y-82127000D01*
X97127000Y-82127000D01*
X97127000Y-83326250D01*
X97285750Y-83485000D01*
X97850000Y-83488072D01*
X97974482Y-83475812D01*
X98094180Y-83439502D01*
X98204494Y-83380537D01*
X98301185Y-83301185D01*
X98380537Y-83204494D01*
X98439502Y-83094180D01*
X98461513Y-83021620D01*
X98593368Y-83153475D01*
X98778101Y-83276910D01*
X98778100Y-89774677D01*
X98774414Y-89812100D01*
X98778100Y-89849523D01*
X98778100Y-89849525D01*
X98789126Y-89961477D01*
X98832698Y-90105114D01*
X98832699Y-90105115D01*
X98903455Y-90237492D01*
X98942176Y-90284673D01*
X98998678Y-90353522D01*
X99027754Y-90377384D01*
X103628700Y-94978331D01*
X103628700Y-94993277D01*
X103625014Y-95030700D01*
X103628700Y-95068123D01*
X103628700Y-95068126D01*
X103639726Y-95180078D01*
X103683298Y-95323715D01*
X103754055Y-95456092D01*
X103760669Y-95464151D01*
X103715000Y-95693740D01*
X103715000Y-95986260D01*
X103772068Y-96273158D01*
X103884010Y-96543411D01*
X104046525Y-96786632D01*
X104253368Y-96993475D01*
X104427760Y-97110000D01*
X104253368Y-97226525D01*
X104046525Y-97433368D01*
X103884010Y-97676589D01*
X103772068Y-97946842D01*
X103715000Y-98233740D01*
X103715000Y-98526260D01*
X103772068Y-98813158D01*
X103884010Y-99083411D01*
X104046525Y-99326632D01*
X104253368Y-99533475D01*
X104427760Y-99650000D01*
X104253368Y-99766525D01*
X104046525Y-99973368D01*
X103884010Y-100216589D01*
X103772068Y-100486842D01*
X103715000Y-100773740D01*
X103715000Y-101066260D01*
X103772068Y-101353158D01*
X103884010Y-101623411D01*
X104046525Y-101866632D01*
X104253368Y-102073475D01*
X104427760Y-102190000D01*
X104253368Y-102306525D01*
X104046525Y-102513368D01*
X103884010Y-102756589D01*
X103772068Y-103026842D01*
X103715000Y-103313740D01*
X103715000Y-103606260D01*
X103772068Y-103893158D01*
X103884010Y-104163411D01*
X104046525Y-104406632D01*
X104253368Y-104613475D01*
X104435534Y-104735195D01*
X104318645Y-104804822D01*
X104102412Y-104999731D01*
X103928359Y-105233080D01*
X103803175Y-105495901D01*
X103758524Y-105643110D01*
X103879845Y-105873000D01*
X105073000Y-105873000D01*
X105073000Y-105853000D01*
X105327000Y-105853000D01*
X105327000Y-105873000D01*
X105347000Y-105873000D01*
X105347000Y-106127000D01*
X105327000Y-106127000D01*
X105327000Y-107320814D01*
X105556891Y-107441481D01*
X105831252Y-107344157D01*
X106081355Y-107195178D01*
X106297588Y-107000269D01*
X106471641Y-106766920D01*
X106519471Y-106666501D01*
X109410700Y-109557730D01*
X109410701Y-124107967D01*
X109407014Y-124145400D01*
X109421727Y-124294778D01*
X109465299Y-124438415D01*
X109536055Y-124570792D01*
X109590680Y-124637352D01*
X109631279Y-124686822D01*
X109660349Y-124710679D01*
X110076096Y-125126426D01*
X110048815Y-125148815D01*
X109969463Y-125245506D01*
X109910498Y-125355820D01*
X109874188Y-125475518D01*
X109861928Y-125600000D01*
X109861928Y-127200000D01*
X109874188Y-127324482D01*
X109910498Y-127444180D01*
X109969463Y-127554494D01*
X110048815Y-127651185D01*
X110145506Y-127730537D01*
X110255820Y-127789502D01*
X110375518Y-127825812D01*
X110500000Y-127838072D01*
X112100000Y-127838072D01*
X112224482Y-127825812D01*
X112344180Y-127789502D01*
X112454494Y-127730537D01*
X112551185Y-127651185D01*
X112630537Y-127554494D01*
X112689502Y-127444180D01*
X112725812Y-127324482D01*
X112726643Y-127316039D01*
X112925241Y-127514637D01*
X113160273Y-127671680D01*
X113421426Y-127779853D01*
X113698665Y-127835000D01*
X113981335Y-127835000D01*
X114258574Y-127779853D01*
X114519727Y-127671680D01*
X114754759Y-127514637D01*
X114954637Y-127314759D01*
X115110000Y-127082241D01*
X115265363Y-127314759D01*
X115465241Y-127514637D01*
X115700273Y-127671680D01*
X115961426Y-127779853D01*
X116238665Y-127835000D01*
X116521335Y-127835000D01*
X116798574Y-127779853D01*
X117059727Y-127671680D01*
X117294759Y-127514637D01*
X117494637Y-127314759D01*
X117650000Y-127082241D01*
X117805363Y-127314759D01*
X118005241Y-127514637D01*
X118240273Y-127671680D01*
X118501426Y-127779853D01*
X118778665Y-127835000D01*
X119061335Y-127835000D01*
X119338574Y-127779853D01*
X119599727Y-127671680D01*
X119834759Y-127514637D01*
X120034637Y-127314759D01*
X120190000Y-127082241D01*
X120345363Y-127314759D01*
X120545241Y-127514637D01*
X120780273Y-127671680D01*
X121041426Y-127779853D01*
X121318665Y-127835000D01*
X121601335Y-127835000D01*
X121878574Y-127779853D01*
X122139727Y-127671680D01*
X122374759Y-127514637D01*
X122574637Y-127314759D01*
X122730000Y-127082241D01*
X122885363Y-127314759D01*
X123085241Y-127514637D01*
X123320273Y-127671680D01*
X123581426Y-127779853D01*
X123858665Y-127835000D01*
X124141335Y-127835000D01*
X124418574Y-127779853D01*
X124679727Y-127671680D01*
X124914759Y-127514637D01*
X125114637Y-127314759D01*
X125270000Y-127082241D01*
X125425363Y-127314759D01*
X125625241Y-127514637D01*
X125860273Y-127671680D01*
X126121426Y-127779853D01*
X126398665Y-127835000D01*
X126681335Y-127835000D01*
X126958574Y-127779853D01*
X127219727Y-127671680D01*
X127454759Y-127514637D01*
X127654637Y-127314759D01*
X127811680Y-127079727D01*
X127816067Y-127069135D01*
X127927615Y-127255131D01*
X128116586Y-127463519D01*
X128342580Y-127631037D01*
X128596913Y-127751246D01*
X128730961Y-127791904D01*
X128953000Y-127669915D01*
X128953000Y-126527000D01*
X128933000Y-126527000D01*
X128933000Y-126273000D01*
X128953000Y-126273000D01*
X128953000Y-125130085D01*
X128730961Y-125008096D01*
X128596913Y-125048754D01*
X128342580Y-125168963D01*
X128116586Y-125336481D01*
X127927615Y-125544869D01*
X127816067Y-125730865D01*
X127811680Y-125720273D01*
X127654637Y-125485241D01*
X127529863Y-125360467D01*
X132128001Y-120762330D01*
X132128001Y-121425267D01*
X132124314Y-121462700D01*
X132139027Y-121612078D01*
X132182599Y-121755715D01*
X132253355Y-121888092D01*
X132316701Y-121965279D01*
X132348579Y-122004122D01*
X132377649Y-122027979D01*
X135710137Y-125360467D01*
X135585363Y-125485241D01*
X135430000Y-125717759D01*
X135274637Y-125485241D01*
X135074759Y-125285363D01*
X134839727Y-125128320D01*
X134578574Y-125020147D01*
X134301335Y-124965000D01*
X134018665Y-124965000D01*
X133741426Y-125020147D01*
X133480273Y-125128320D01*
X133245241Y-125285363D01*
X133045363Y-125485241D01*
X132890000Y-125717759D01*
X132734637Y-125485241D01*
X132534759Y-125285363D01*
X132299727Y-125128320D01*
X132038574Y-125020147D01*
X131761335Y-124965000D01*
X131478665Y-124965000D01*
X131201426Y-125020147D01*
X130940273Y-125128320D01*
X130705241Y-125285363D01*
X130505363Y-125485241D01*
X130348320Y-125720273D01*
X130343933Y-125730865D01*
X130232385Y-125544869D01*
X130043414Y-125336481D01*
X129817420Y-125168963D01*
X129563087Y-125048754D01*
X129429039Y-125008096D01*
X129207000Y-125130085D01*
X129207000Y-126273000D01*
X129227000Y-126273000D01*
X129227000Y-126527000D01*
X129207000Y-126527000D01*
X129207000Y-127669915D01*
X129249245Y-127693125D01*
X128587649Y-128354721D01*
X128558579Y-128378578D01*
X128534722Y-128407648D01*
X128534721Y-128407649D01*
X128463355Y-128494608D01*
X128392599Y-128626985D01*
X128349027Y-128770622D01*
X128334314Y-128920000D01*
X128338001Y-128957433D01*
X128338001Y-129383292D01*
X128185241Y-129485363D01*
X127985363Y-129685241D01*
X127828320Y-129920273D01*
X127720147Y-130181426D01*
X127665000Y-130458665D01*
X127665000Y-130741335D01*
X127720147Y-131018574D01*
X127828320Y-131279727D01*
X127985363Y-131514759D01*
X128185241Y-131714637D01*
X128338000Y-131816707D01*
X128338001Y-133702567D01*
X128334314Y-133740000D01*
X128349027Y-133889378D01*
X128392599Y-134033015D01*
X128463355Y-134165392D01*
X128533764Y-134251185D01*
X128558579Y-134281422D01*
X128587649Y-134305279D01*
X129275000Y-134992631D01*
X129275000Y-135161788D01*
X129318617Y-135381067D01*
X129404176Y-135587624D01*
X129528388Y-135773520D01*
X129686480Y-135931612D01*
X129872376Y-136055824D01*
X130078933Y-136141383D01*
X130298212Y-136185000D01*
X130521788Y-136185000D01*
X130741067Y-136141383D01*
X130947624Y-136055824D01*
X131133520Y-135931612D01*
X131291612Y-135773520D01*
X131415824Y-135587624D01*
X131501383Y-135381067D01*
X131545000Y-135161788D01*
X131545000Y-134938212D01*
X131501383Y-134718933D01*
X131415824Y-134512376D01*
X131291612Y-134326480D01*
X131133520Y-134168388D01*
X130947624Y-134044176D01*
X130741067Y-133958617D01*
X130521788Y-133915000D01*
X130352631Y-133915000D01*
X129862000Y-133424370D01*
X129862000Y-131816707D01*
X130014759Y-131714637D01*
X130214637Y-131514759D01*
X130371680Y-131279727D01*
X130479853Y-131018574D01*
X130535000Y-130741335D01*
X130535000Y-130458665D01*
X130479853Y-130181426D01*
X130371680Y-129920273D01*
X130214637Y-129685241D01*
X130014759Y-129485363D01*
X129862000Y-129383293D01*
X129862000Y-129235630D01*
X131298473Y-127799157D01*
X131478665Y-127835000D01*
X131761335Y-127835000D01*
X132038574Y-127779853D01*
X132299727Y-127671680D01*
X132534759Y-127514637D01*
X132734637Y-127314759D01*
X132890000Y-127082241D01*
X133045363Y-127314759D01*
X133245241Y-127514637D01*
X133480273Y-127671680D01*
X133741426Y-127779853D01*
X134018665Y-127835000D01*
X134301335Y-127835000D01*
X134481527Y-127799157D01*
X135958001Y-129275631D01*
X135958001Y-129383292D01*
X135805241Y-129485363D01*
X135605363Y-129685241D01*
X135448320Y-129920273D01*
X135340147Y-130181426D01*
X135285000Y-130458665D01*
X135285000Y-130741335D01*
X135340147Y-131018574D01*
X135448320Y-131279727D01*
X135605363Y-131514759D01*
X135805241Y-131714637D01*
X135958000Y-131816707D01*
X135958001Y-133304368D01*
X135347370Y-133915000D01*
X135178212Y-133915000D01*
X134958933Y-133958617D01*
X134752376Y-134044176D01*
X134566480Y-134168388D01*
X134408388Y-134326480D01*
X134284176Y-134512376D01*
X134198617Y-134718933D01*
X134155000Y-134938212D01*
X134155000Y-135161788D01*
X134198617Y-135381067D01*
X134284176Y-135587624D01*
X134408388Y-135773520D01*
X134566480Y-135931612D01*
X134752376Y-136055824D01*
X134958933Y-136141383D01*
X135178212Y-136185000D01*
X135401788Y-136185000D01*
X135621067Y-136141383D01*
X135827624Y-136055824D01*
X136013520Y-135931612D01*
X136171612Y-135773520D01*
X136295824Y-135587624D01*
X136381383Y-135381067D01*
X136425000Y-135161788D01*
X136425000Y-134992630D01*
X137232352Y-134185279D01*
X137261422Y-134161422D01*
X137356645Y-134045392D01*
X137389679Y-133983589D01*
X160347450Y-133983589D01*
X160414431Y-134696482D01*
X160619204Y-135382609D01*
X160953898Y-136015603D01*
X160972132Y-136042894D01*
X161441314Y-136379081D01*
X163820395Y-134000000D01*
X164179605Y-134000000D01*
X166558686Y-136379081D01*
X167027868Y-136042894D01*
X167368237Y-135412932D01*
X167579166Y-134728673D01*
X167652550Y-134016411D01*
X167585569Y-133303518D01*
X167380796Y-132617391D01*
X167046102Y-131984397D01*
X167027868Y-131957106D01*
X166558686Y-131620919D01*
X164179605Y-134000000D01*
X163820395Y-134000000D01*
X161441314Y-131620919D01*
X160972132Y-131957106D01*
X160631763Y-132587068D01*
X160420834Y-133271327D01*
X160347450Y-133983589D01*
X137389679Y-133983589D01*
X137427402Y-133913015D01*
X137470974Y-133769378D01*
X137482000Y-133657426D01*
X137482000Y-133657424D01*
X137485686Y-133620001D01*
X137482000Y-133582578D01*
X137482000Y-131816707D01*
X137634759Y-131714637D01*
X137834637Y-131514759D01*
X137991680Y-131279727D01*
X138099853Y-131018574D01*
X138155000Y-130741335D01*
X138155000Y-130458665D01*
X138965000Y-130458665D01*
X138965000Y-130741335D01*
X139020147Y-131018574D01*
X139128320Y-131279727D01*
X139285363Y-131514759D01*
X139485241Y-131714637D01*
X139720273Y-131871680D01*
X139981426Y-131979853D01*
X140258665Y-132035000D01*
X140541335Y-132035000D01*
X140818574Y-131979853D01*
X141079727Y-131871680D01*
X141314759Y-131714637D01*
X141514637Y-131514759D01*
X141563711Y-131441314D01*
X161620919Y-131441314D01*
X164000000Y-133820395D01*
X166379081Y-131441314D01*
X166042894Y-130972132D01*
X165412932Y-130631763D01*
X164728673Y-130420834D01*
X164016411Y-130347450D01*
X163303518Y-130414431D01*
X162617391Y-130619204D01*
X161984397Y-130953898D01*
X161957106Y-130972132D01*
X161620919Y-131441314D01*
X141563711Y-131441314D01*
X141671680Y-131279727D01*
X141779853Y-131018574D01*
X141835000Y-130741335D01*
X141835000Y-130458665D01*
X141779853Y-130181426D01*
X141671680Y-129920273D01*
X141514637Y-129685241D01*
X141314759Y-129485363D01*
X141079727Y-129328320D01*
X140818574Y-129220147D01*
X140541335Y-129165000D01*
X140258665Y-129165000D01*
X139981426Y-129220147D01*
X139720273Y-129328320D01*
X139485241Y-129485363D01*
X139285363Y-129685241D01*
X139128320Y-129920273D01*
X139020147Y-130181426D01*
X138965000Y-130458665D01*
X138155000Y-130458665D01*
X138099853Y-130181426D01*
X137991680Y-129920273D01*
X137834637Y-129685241D01*
X137634759Y-129485363D01*
X137482000Y-129383293D01*
X137482000Y-128997423D01*
X137485686Y-128960000D01*
X137478060Y-128882574D01*
X137470974Y-128810622D01*
X137427402Y-128666985D01*
X137392264Y-128601246D01*
X137356645Y-128534607D01*
X137314717Y-128483519D01*
X137261422Y-128418578D01*
X137232346Y-128394716D01*
X136837630Y-128000000D01*
X159961928Y-128000000D01*
X159974188Y-128124482D01*
X160010498Y-128244180D01*
X160069463Y-128354494D01*
X160148815Y-128451185D01*
X160245506Y-128530537D01*
X160355820Y-128589502D01*
X160475518Y-128625812D01*
X160600000Y-128638072D01*
X161214250Y-128635000D01*
X161373000Y-128476250D01*
X161373000Y-127527000D01*
X161627000Y-127527000D01*
X161627000Y-128476250D01*
X161785750Y-128635000D01*
X162400000Y-128638072D01*
X162524482Y-128625812D01*
X162644180Y-128589502D01*
X162754494Y-128530537D01*
X162851185Y-128451185D01*
X162930537Y-128354494D01*
X162989502Y-128244180D01*
X163025812Y-128124482D01*
X163038072Y-128000000D01*
X163035000Y-127685750D01*
X162876250Y-127527000D01*
X161627000Y-127527000D01*
X161373000Y-127527000D01*
X160123750Y-127527000D01*
X159965000Y-127685750D01*
X159961928Y-128000000D01*
X136837630Y-128000000D01*
X136672630Y-127835000D01*
X136841335Y-127835000D01*
X137118574Y-127779853D01*
X137379727Y-127671680D01*
X137614759Y-127514637D01*
X137814637Y-127314759D01*
X137970000Y-127082241D01*
X138125363Y-127314759D01*
X138325241Y-127514637D01*
X138560273Y-127671680D01*
X138821426Y-127779853D01*
X139098665Y-127835000D01*
X139381335Y-127835000D01*
X139658574Y-127779853D01*
X139919727Y-127671680D01*
X140154759Y-127514637D01*
X140354637Y-127314759D01*
X140510000Y-127082241D01*
X140665363Y-127314759D01*
X140865241Y-127514637D01*
X141100273Y-127671680D01*
X141361426Y-127779853D01*
X141638665Y-127835000D01*
X141921335Y-127835000D01*
X142198574Y-127779853D01*
X142459727Y-127671680D01*
X142694759Y-127514637D01*
X142894637Y-127314759D01*
X143050000Y-127082241D01*
X143205363Y-127314759D01*
X143405241Y-127514637D01*
X143640273Y-127671680D01*
X143901426Y-127779853D01*
X144178665Y-127835000D01*
X144461335Y-127835000D01*
X144738574Y-127779853D01*
X144999727Y-127671680D01*
X145234759Y-127514637D01*
X145434637Y-127314759D01*
X145591680Y-127079727D01*
X145699853Y-126818574D01*
X145755000Y-126541335D01*
X145755000Y-126258665D01*
X145699853Y-125981426D01*
X145591680Y-125720273D01*
X145434637Y-125485241D01*
X145234759Y-125285363D01*
X145076520Y-125179631D01*
X145070974Y-125123322D01*
X145027402Y-124979685D01*
X144982871Y-124896374D01*
X144956645Y-124847307D01*
X144886343Y-124761645D01*
X144861422Y-124731278D01*
X144832346Y-124707416D01*
X141272000Y-121147070D01*
X141272000Y-120122812D01*
X141361426Y-120159853D01*
X141638665Y-120215000D01*
X141921335Y-120215000D01*
X142198574Y-120159853D01*
X142459727Y-120051680D01*
X142694759Y-119894637D01*
X142894637Y-119694759D01*
X143050000Y-119462241D01*
X143205363Y-119694759D01*
X143405241Y-119894637D01*
X143640273Y-120051680D01*
X143901426Y-120159853D01*
X144178665Y-120215000D01*
X144461335Y-120215000D01*
X144738574Y-120159853D01*
X144999727Y-120051680D01*
X145234759Y-119894637D01*
X145434637Y-119694759D01*
X145591680Y-119459727D01*
X145699853Y-119198574D01*
X145755000Y-118921335D01*
X145755000Y-118638665D01*
X145699853Y-118361426D01*
X145591680Y-118100273D01*
X145434637Y-117865241D01*
X145234759Y-117665363D01*
X145076520Y-117559631D01*
X145070974Y-117503322D01*
X145027402Y-117359685D01*
X144956645Y-117227308D01*
X144861422Y-117111278D01*
X144832352Y-117087421D01*
X141493971Y-113749040D01*
X141908091Y-113749040D01*
X142002930Y-114013881D01*
X142147615Y-114255131D01*
X142336586Y-114463519D01*
X142562580Y-114631037D01*
X142816913Y-114751246D01*
X142950961Y-114791904D01*
X143173000Y-114669915D01*
X143173000Y-113527000D01*
X143427000Y-113527000D01*
X143427000Y-114669915D01*
X143649039Y-114791904D01*
X143783087Y-114751246D01*
X144037420Y-114631037D01*
X144263414Y-114463519D01*
X144452385Y-114255131D01*
X144597070Y-114013881D01*
X144691909Y-113749040D01*
X144570624Y-113527000D01*
X143427000Y-113527000D01*
X143173000Y-113527000D01*
X142029376Y-113527000D01*
X141908091Y-113749040D01*
X141493971Y-113749040D01*
X140795891Y-113050960D01*
X141908091Y-113050960D01*
X142029376Y-113273000D01*
X143173000Y-113273000D01*
X143173000Y-112130085D01*
X143427000Y-112130085D01*
X143427000Y-113273000D01*
X144570624Y-113273000D01*
X144691909Y-113050960D01*
X144597070Y-112786119D01*
X144452385Y-112544869D01*
X144263414Y-112336481D01*
X144037420Y-112168963D01*
X143783087Y-112048754D01*
X143649039Y-112008096D01*
X143427000Y-112130085D01*
X143173000Y-112130085D01*
X142950961Y-112008096D01*
X142816913Y-112048754D01*
X142562580Y-112168963D01*
X142336586Y-112336481D01*
X142147615Y-112544869D01*
X142002930Y-112786119D01*
X141908091Y-113050960D01*
X140795891Y-113050960D01*
X136903596Y-109158665D01*
X146665000Y-109158665D01*
X146665000Y-109441335D01*
X146720147Y-109718574D01*
X146828320Y-109979727D01*
X146985363Y-110214759D01*
X147185241Y-110414637D01*
X147420273Y-110571680D01*
X147681426Y-110679853D01*
X147958665Y-110735000D01*
X148241335Y-110735000D01*
X148518574Y-110679853D01*
X148779727Y-110571680D01*
X149014759Y-110414637D01*
X149214637Y-110214759D01*
X149371680Y-109979727D01*
X149479853Y-109718574D01*
X149535000Y-109441335D01*
X149535000Y-109158665D01*
X154285000Y-109158665D01*
X154285000Y-109441335D01*
X154340147Y-109718574D01*
X154448320Y-109979727D01*
X154605363Y-110214759D01*
X154805241Y-110414637D01*
X155040273Y-110571680D01*
X155301426Y-110679853D01*
X155578665Y-110735000D01*
X155861335Y-110735000D01*
X156138574Y-110679853D01*
X156399727Y-110571680D01*
X156634759Y-110414637D01*
X156834637Y-110214759D01*
X156991680Y-109979727D01*
X157099853Y-109718574D01*
X157155000Y-109441335D01*
X157155000Y-109158665D01*
X157099853Y-108881426D01*
X156991680Y-108620273D01*
X156834637Y-108385241D01*
X156634759Y-108185363D01*
X156399727Y-108028320D01*
X156138574Y-107920147D01*
X155861335Y-107865000D01*
X155578665Y-107865000D01*
X155301426Y-107920147D01*
X155040273Y-108028320D01*
X154805241Y-108185363D01*
X154605363Y-108385241D01*
X154448320Y-108620273D01*
X154340147Y-108881426D01*
X154285000Y-109158665D01*
X149535000Y-109158665D01*
X149479853Y-108881426D01*
X149371680Y-108620273D01*
X149214637Y-108385241D01*
X149014759Y-108185363D01*
X148779727Y-108028320D01*
X148518574Y-107920147D01*
X148241335Y-107865000D01*
X147958665Y-107865000D01*
X147681426Y-107920147D01*
X147420273Y-108028320D01*
X147185241Y-108185363D01*
X146985363Y-108385241D01*
X146828320Y-108620273D01*
X146720147Y-108881426D01*
X146665000Y-109158665D01*
X136903596Y-109158665D01*
X133503596Y-105758665D01*
X141865000Y-105758665D01*
X141865000Y-106041335D01*
X141920147Y-106318574D01*
X142028320Y-106579727D01*
X142185363Y-106814759D01*
X142385241Y-107014637D01*
X142620273Y-107171680D01*
X142881426Y-107279853D01*
X143158665Y-107335000D01*
X143441335Y-107335000D01*
X143718574Y-107279853D01*
X143979727Y-107171680D01*
X144214759Y-107014637D01*
X144414637Y-106814759D01*
X144571680Y-106579727D01*
X144679853Y-106318574D01*
X144735000Y-106041335D01*
X144735000Y-105758665D01*
X144679853Y-105481426D01*
X144571680Y-105220273D01*
X144414637Y-104985241D01*
X144214759Y-104785363D01*
X143979727Y-104628320D01*
X143718574Y-104520147D01*
X143441335Y-104465000D01*
X143158665Y-104465000D01*
X142881426Y-104520147D01*
X142620273Y-104628320D01*
X142385241Y-104785363D01*
X142185363Y-104985241D01*
X142028320Y-105220273D01*
X141920147Y-105481426D01*
X141865000Y-105758665D01*
X133503596Y-105758665D01*
X133322000Y-105577070D01*
X133322000Y-85958665D01*
X138665000Y-85958665D01*
X138665000Y-86241335D01*
X138720147Y-86518574D01*
X138828320Y-86779727D01*
X138985363Y-87014759D01*
X139185241Y-87214637D01*
X139420273Y-87371680D01*
X139681426Y-87479853D01*
X139958665Y-87535000D01*
X140241335Y-87535000D01*
X140518574Y-87479853D01*
X140779727Y-87371680D01*
X141014759Y-87214637D01*
X141214637Y-87014759D01*
X141371680Y-86779727D01*
X141479853Y-86518574D01*
X141535000Y-86241335D01*
X141535000Y-85958665D01*
X141479853Y-85681426D01*
X141371680Y-85420273D01*
X141214637Y-85185241D01*
X141014759Y-84985363D01*
X140779727Y-84828320D01*
X140518574Y-84720147D01*
X140241335Y-84665000D01*
X139958665Y-84665000D01*
X139681426Y-84720147D01*
X139420273Y-84828320D01*
X139185241Y-84985363D01*
X138985363Y-85185241D01*
X138828320Y-85420273D01*
X138720147Y-85681426D01*
X138665000Y-85958665D01*
X133322000Y-85958665D01*
X133322000Y-83276842D01*
X133506632Y-83153475D01*
X133713475Y-82946632D01*
X133835195Y-82764466D01*
X133904822Y-82881355D01*
X134099731Y-83097588D01*
X134333080Y-83271641D01*
X134595901Y-83396825D01*
X134743110Y-83441476D01*
X134973000Y-83320155D01*
X134973000Y-82127000D01*
X135227000Y-82127000D01*
X135227000Y-83320155D01*
X135456890Y-83441476D01*
X135604099Y-83396825D01*
X135866920Y-83271641D01*
X136100269Y-83097588D01*
X136295178Y-82881355D01*
X136444157Y-82631252D01*
X136541481Y-82356891D01*
X136420814Y-82127000D01*
X135227000Y-82127000D01*
X134973000Y-82127000D01*
X134953000Y-82127000D01*
X134953000Y-81873000D01*
X134973000Y-81873000D01*
X134973000Y-80679845D01*
X135227000Y-80679845D01*
X135227000Y-81873000D01*
X136420814Y-81873000D01*
X136541481Y-81643109D01*
X136444157Y-81368748D01*
X136295178Y-81118645D01*
X136100269Y-80902412D01*
X135866920Y-80728359D01*
X135604099Y-80603175D01*
X135456890Y-80558524D01*
X135227000Y-80679845D01*
X134973000Y-80679845D01*
X134743110Y-80558524D01*
X134595901Y-80603175D01*
X134333080Y-80728359D01*
X134099731Y-80902412D01*
X133904822Y-81118645D01*
X133835195Y-81235534D01*
X133713475Y-81053368D01*
X133506632Y-80846525D01*
X133263411Y-80684010D01*
X132993158Y-80572068D01*
X132706260Y-80515000D01*
X132413740Y-80515000D01*
X132126842Y-80572068D01*
X131856589Y-80684010D01*
X131613368Y-80846525D01*
X131406525Y-81053368D01*
X131290000Y-81227760D01*
X131173475Y-81053368D01*
X130966632Y-80846525D01*
X130723411Y-80684010D01*
X130453158Y-80572068D01*
X130166260Y-80515000D01*
X129873740Y-80515000D01*
X129586842Y-80572068D01*
X129316589Y-80684010D01*
X129073368Y-80846525D01*
X128866525Y-81053368D01*
X128750000Y-81227760D01*
X128633475Y-81053368D01*
X128426632Y-80846525D01*
X128183411Y-80684010D01*
X127913158Y-80572068D01*
X127626260Y-80515000D01*
X127333740Y-80515000D01*
X127046842Y-80572068D01*
X126776589Y-80684010D01*
X126533368Y-80846525D01*
X126326525Y-81053368D01*
X126210000Y-81227760D01*
X126093475Y-81053368D01*
X125886632Y-80846525D01*
X125643411Y-80684010D01*
X125373158Y-80572068D01*
X125086260Y-80515000D01*
X124793740Y-80515000D01*
X124506842Y-80572068D01*
X124236589Y-80684010D01*
X123993368Y-80846525D01*
X123786525Y-81053368D01*
X123670000Y-81227760D01*
X123553475Y-81053368D01*
X123346632Y-80846525D01*
X123103411Y-80684010D01*
X122833158Y-80572068D01*
X122546260Y-80515000D01*
X122253740Y-80515000D01*
X121966842Y-80572068D01*
X121696589Y-80684010D01*
X121453368Y-80846525D01*
X121246525Y-81053368D01*
X121130000Y-81227760D01*
X121013475Y-81053368D01*
X120806632Y-80846525D01*
X120563411Y-80684010D01*
X120293158Y-80572068D01*
X120006260Y-80515000D01*
X119713740Y-80515000D01*
X119426842Y-80572068D01*
X119156589Y-80684010D01*
X118913368Y-80846525D01*
X118706525Y-81053368D01*
X118590000Y-81227760D01*
X118473475Y-81053368D01*
X118266632Y-80846525D01*
X118023411Y-80684010D01*
X117753158Y-80572068D01*
X117466260Y-80515000D01*
X117173740Y-80515000D01*
X116886842Y-80572068D01*
X116616589Y-80684010D01*
X116373368Y-80846525D01*
X116166525Y-81053368D01*
X116050000Y-81227760D01*
X115933475Y-81053368D01*
X115726632Y-80846525D01*
X115483411Y-80684010D01*
X115213158Y-80572068D01*
X114926260Y-80515000D01*
X114633740Y-80515000D01*
X114346842Y-80572068D01*
X114076589Y-80684010D01*
X113833368Y-80846525D01*
X113626525Y-81053368D01*
X113510000Y-81227760D01*
X113393475Y-81053368D01*
X113186632Y-80846525D01*
X112943411Y-80684010D01*
X112673158Y-80572068D01*
X112386260Y-80515000D01*
X112093740Y-80515000D01*
X111806842Y-80572068D01*
X111536589Y-80684010D01*
X111293368Y-80846525D01*
X111086525Y-81053368D01*
X110970000Y-81227760D01*
X110853475Y-81053368D01*
X110646632Y-80846525D01*
X110403411Y-80684010D01*
X110133158Y-80572068D01*
X109846260Y-80515000D01*
X109553740Y-80515000D01*
X109266842Y-80572068D01*
X108996589Y-80684010D01*
X108753368Y-80846525D01*
X108546525Y-81053368D01*
X108424805Y-81235534D01*
X108355178Y-81118645D01*
X108160269Y-80902412D01*
X107926920Y-80728359D01*
X107664099Y-80603175D01*
X107516890Y-80558524D01*
X107287000Y-80679845D01*
X107287000Y-81873000D01*
X107307000Y-81873000D01*
X107307000Y-82127000D01*
X107287000Y-82127000D01*
X107287000Y-83320155D01*
X107516890Y-83441476D01*
X107664099Y-83396825D01*
X107926920Y-83271641D01*
X108160269Y-83097588D01*
X108355178Y-82881355D01*
X108424805Y-82764466D01*
X108546525Y-82946632D01*
X108753368Y-83153475D01*
X108938001Y-83276843D01*
X108938000Y-86262577D01*
X108934314Y-86300000D01*
X108938000Y-86337423D01*
X108938000Y-86337425D01*
X108949026Y-86449377D01*
X108992598Y-86593014D01*
X108992599Y-86593015D01*
X109063355Y-86725392D01*
X109089003Y-86756644D01*
X109158578Y-86841422D01*
X109187654Y-86865284D01*
X109824770Y-87502400D01*
X107280031Y-87502400D01*
X105382000Y-85604370D01*
X105382000Y-83276842D01*
X105566632Y-83153475D01*
X105773475Y-82946632D01*
X105895195Y-82764466D01*
X105964822Y-82881355D01*
X106159731Y-83097588D01*
X106393080Y-83271641D01*
X106655901Y-83396825D01*
X106803110Y-83441476D01*
X107033000Y-83320155D01*
X107033000Y-82127000D01*
X107013000Y-82127000D01*
X107013000Y-81873000D01*
X107033000Y-81873000D01*
X107033000Y-80679845D01*
X106803110Y-80558524D01*
X106655901Y-80603175D01*
X106393080Y-80728359D01*
X106159731Y-80902412D01*
X105964822Y-81118645D01*
X105895195Y-81235534D01*
X105773475Y-81053368D01*
X105566632Y-80846525D01*
X105323411Y-80684010D01*
X105053158Y-80572068D01*
X104766260Y-80515000D01*
X104473740Y-80515000D01*
X104186842Y-80572068D01*
X103916589Y-80684010D01*
X103673368Y-80846525D01*
X103466525Y-81053368D01*
X103350000Y-81227760D01*
X103233475Y-81053368D01*
X103026632Y-80846525D01*
X102842000Y-80723158D01*
X102842000Y-78035630D01*
X103375631Y-77502000D01*
X105519508Y-77502000D01*
X105587503Y-77603762D01*
X105776238Y-77792497D01*
X105998167Y-77940785D01*
X106244761Y-78042928D01*
X106506544Y-78095000D01*
X106773456Y-78095000D01*
X107035239Y-78042928D01*
X107281833Y-77940785D01*
X107503762Y-77792497D01*
X107692497Y-77603762D01*
X107840785Y-77381833D01*
X107942928Y-77135239D01*
X107995000Y-76873456D01*
X107995000Y-76606544D01*
X107942928Y-76344761D01*
X107840785Y-76098167D01*
X107692497Y-75876238D01*
X107503762Y-75687503D01*
X107281833Y-75539215D01*
X107035239Y-75437072D01*
X106773456Y-75385000D01*
X106506544Y-75385000D01*
X106244761Y-75437072D01*
X105998167Y-75539215D01*
X105776238Y-75687503D01*
X105587503Y-75876238D01*
X105519508Y-75978000D01*
X103399631Y-75978000D01*
X103846508Y-75531123D01*
X103966544Y-75555000D01*
X104233456Y-75555000D01*
X104495239Y-75502928D01*
X104741833Y-75400785D01*
X104963762Y-75252497D01*
X105080699Y-75135560D01*
X108424045Y-75135560D01*
X108485932Y-75371368D01*
X108727790Y-75484266D01*
X108987027Y-75547811D01*
X109253680Y-75559561D01*
X109517501Y-75519063D01*
X109768353Y-75427875D01*
X109874068Y-75371368D01*
X109935955Y-75135560D01*
X109180000Y-74379605D01*
X108424045Y-75135560D01*
X105080699Y-75135560D01*
X105152497Y-75063762D01*
X105300785Y-74841833D01*
X105402928Y-74595239D01*
X105455000Y-74333456D01*
X105455000Y-74273680D01*
X107820439Y-74273680D01*
X107860937Y-74537501D01*
X107952125Y-74788353D01*
X108008632Y-74894068D01*
X108244440Y-74955955D01*
X109000395Y-74200000D01*
X109359605Y-74200000D01*
X110115560Y-74955955D01*
X110351368Y-74894068D01*
X110464266Y-74652210D01*
X110527811Y-74392973D01*
X110539561Y-74126320D01*
X110499063Y-73862499D01*
X110407875Y-73611647D01*
X110351368Y-73505932D01*
X110115560Y-73444045D01*
X109359605Y-74200000D01*
X109000395Y-74200000D01*
X108244440Y-73444045D01*
X108008632Y-73505932D01*
X107895734Y-73747790D01*
X107832189Y-74007027D01*
X107820439Y-74273680D01*
X105455000Y-74273680D01*
X105455000Y-74066544D01*
X105402928Y-73804761D01*
X105300785Y-73558167D01*
X105152497Y-73336238D01*
X105080699Y-73264440D01*
X108424045Y-73264440D01*
X109180000Y-74020395D01*
X109935955Y-73264440D01*
X109874068Y-73028632D01*
X109632210Y-72915734D01*
X109372973Y-72852189D01*
X109106320Y-72840439D01*
X108842499Y-72880937D01*
X108591647Y-72972125D01*
X108485932Y-73028632D01*
X108424045Y-73264440D01*
X105080699Y-73264440D01*
X104963762Y-73147503D01*
X104741833Y-72999215D01*
X104495239Y-72897072D01*
X104233456Y-72845000D01*
X103966544Y-72845000D01*
X103704761Y-72897072D01*
X103458167Y-72999215D01*
X103236238Y-73147503D01*
X103047503Y-73336238D01*
X102899215Y-73558167D01*
X102797072Y-73804761D01*
X102745000Y-74066544D01*
X102745000Y-74333456D01*
X102768877Y-74453492D01*
X99027649Y-78194721D01*
X98998579Y-78218578D01*
X98974722Y-78247648D01*
X98974721Y-78247649D01*
X98903355Y-78334608D01*
X98832599Y-78466985D01*
X98789027Y-78610622D01*
X98774314Y-78760000D01*
X98778001Y-78797433D01*
X98778000Y-80723158D01*
X98593368Y-80846525D01*
X98461513Y-80978380D01*
X98439502Y-80905820D01*
X98380537Y-80795506D01*
X98301185Y-80698815D01*
X98204494Y-80619463D01*
X98094180Y-80560498D01*
X97974482Y-80524188D01*
X97850000Y-80511928D01*
X97285750Y-80515000D01*
X97127000Y-80673750D01*
X96873000Y-80673750D01*
X96714250Y-80515000D01*
X96150000Y-80511928D01*
X96025518Y-80524188D01*
X95905820Y-80560498D01*
X95795506Y-80619463D01*
X95698815Y-80698815D01*
X95619463Y-80795506D01*
X95560498Y-80905820D01*
X95524188Y-81025518D01*
X95511928Y-81150000D01*
X87660000Y-81150000D01*
X87660000Y-76558686D01*
X90620919Y-76558686D01*
X90957106Y-77027868D01*
X91587068Y-77368237D01*
X92271327Y-77579166D01*
X92983589Y-77652550D01*
X93696482Y-77585569D01*
X94382609Y-77380796D01*
X95015603Y-77046102D01*
X95042894Y-77027868D01*
X95379081Y-76558686D01*
X93000000Y-74179605D01*
X90620919Y-76558686D01*
X87660000Y-76558686D01*
X87660000Y-73983589D01*
X89347450Y-73983589D01*
X89414431Y-74696482D01*
X89619204Y-75382609D01*
X89953898Y-76015603D01*
X89972132Y-76042894D01*
X90441314Y-76379081D01*
X92820395Y-74000000D01*
X93179605Y-74000000D01*
X95558686Y-76379081D01*
X96027868Y-76042894D01*
X96368237Y-75412932D01*
X96579166Y-74728673D01*
X96652550Y-74016411D01*
X96585569Y-73303518D01*
X96380796Y-72617391D01*
X96046102Y-71984397D01*
X96027868Y-71957106D01*
X95558686Y-71620919D01*
X93179605Y-74000000D01*
X92820395Y-74000000D01*
X90441314Y-71620919D01*
X89972132Y-71957106D01*
X89631763Y-72587068D01*
X89420834Y-73271327D01*
X89347450Y-73983589D01*
X87660000Y-73983589D01*
X87660000Y-71441314D01*
X90620919Y-71441314D01*
X93000000Y-73820395D01*
X95320395Y-71500000D01*
X133561928Y-71500000D01*
X133561928Y-73300000D01*
X133574188Y-73424482D01*
X133610498Y-73544180D01*
X133669463Y-73654494D01*
X133748815Y-73751185D01*
X133845506Y-73830537D01*
X133955820Y-73889502D01*
X134075518Y-73925812D01*
X134200000Y-73938072D01*
X136000000Y-73938072D01*
X136124482Y-73925812D01*
X136244180Y-73889502D01*
X136354494Y-73830537D01*
X136451185Y-73751185D01*
X136530537Y-73654494D01*
X136589502Y-73544180D01*
X136595056Y-73525873D01*
X136661495Y-73592312D01*
X136878000Y-73736977D01*
X136878000Y-74855277D01*
X136874314Y-74892700D01*
X136878000Y-74930123D01*
X136878000Y-74930125D01*
X136889026Y-75042077D01*
X136932598Y-75185714D01*
X136949133Y-75216649D01*
X137003355Y-75318092D01*
X137042983Y-75366378D01*
X137098578Y-75434122D01*
X137127654Y-75457984D01*
X139110137Y-77440467D01*
X138985363Y-77565241D01*
X138828320Y-77800273D01*
X138720147Y-78061426D01*
X138665000Y-78338665D01*
X138665000Y-78621335D01*
X138720147Y-78898574D01*
X138828320Y-79159727D01*
X138985363Y-79394759D01*
X139185241Y-79594637D01*
X139420273Y-79751680D01*
X139681426Y-79859853D01*
X139958665Y-79915000D01*
X140241335Y-79915000D01*
X140518574Y-79859853D01*
X140779727Y-79751680D01*
X141014759Y-79594637D01*
X141214637Y-79394759D01*
X141371680Y-79159727D01*
X141479853Y-78898574D01*
X141535000Y-78621335D01*
X141535000Y-78338665D01*
X141479853Y-78061426D01*
X141371680Y-77800273D01*
X141214637Y-77565241D01*
X141014759Y-77365363D01*
X140856520Y-77259631D01*
X140850974Y-77203322D01*
X140807402Y-77059685D01*
X140736645Y-76927308D01*
X140641422Y-76811278D01*
X140612352Y-76787421D01*
X138402000Y-74577070D01*
X138402000Y-73736976D01*
X138618505Y-73592312D01*
X138832312Y-73378505D01*
X139000299Y-73127095D01*
X139116011Y-72847743D01*
X139175000Y-72551184D01*
X139175000Y-72248816D01*
X139116011Y-71952257D01*
X139000299Y-71672905D01*
X138884768Y-71500000D01*
X139561928Y-71500000D01*
X139561928Y-73300000D01*
X139574188Y-73424482D01*
X139610498Y-73544180D01*
X139669463Y-73654494D01*
X139748815Y-73751185D01*
X139845506Y-73830537D01*
X139955820Y-73889502D01*
X140075518Y-73925812D01*
X140200000Y-73938072D01*
X140402090Y-73938072D01*
X140463355Y-74052692D01*
X140491000Y-74086377D01*
X140558578Y-74168722D01*
X140587654Y-74192584D01*
X141538001Y-75142932D01*
X141538000Y-87962577D01*
X141534314Y-88000000D01*
X141538000Y-88037423D01*
X141538000Y-88037425D01*
X141549026Y-88149377D01*
X141592598Y-88293014D01*
X141624026Y-88351811D01*
X141663355Y-88425392D01*
X141701280Y-88471603D01*
X141758578Y-88541422D01*
X141787654Y-88565284D01*
X144038001Y-90815632D01*
X144038000Y-94129669D01*
X143909744Y-94182795D01*
X143740226Y-94296063D01*
X143596063Y-94440226D01*
X143482795Y-94609744D01*
X143404774Y-94798102D01*
X143365000Y-94998061D01*
X143365000Y-95201939D01*
X143404774Y-95401898D01*
X143482795Y-95590256D01*
X143596063Y-95759774D01*
X143740226Y-95903937D01*
X143909744Y-96017205D01*
X144098102Y-96095226D01*
X144298061Y-96135000D01*
X144501939Y-96135000D01*
X144701898Y-96095226D01*
X144890256Y-96017205D01*
X145059774Y-95903937D01*
X145203937Y-95759774D01*
X145317205Y-95590256D01*
X145395226Y-95401898D01*
X145435000Y-95201939D01*
X145435000Y-95127396D01*
X145436645Y-95125392D01*
X145507402Y-94993015D01*
X145550974Y-94849378D01*
X145562000Y-94737426D01*
X145562000Y-94737424D01*
X145565686Y-94700001D01*
X145564565Y-94688614D01*
X145562000Y-94662577D01*
X145562000Y-90537423D01*
X145565686Y-90500000D01*
X145557666Y-90418574D01*
X145550974Y-90350622D01*
X145507402Y-90206985D01*
X145472311Y-90141335D01*
X145436645Y-90074607D01*
X145365279Y-89987648D01*
X145341422Y-89958578D01*
X145312352Y-89934721D01*
X143062000Y-87684370D01*
X143062000Y-86830133D01*
X143185363Y-87014759D01*
X143385241Y-87214637D01*
X143620273Y-87371680D01*
X143881426Y-87479853D01*
X144158665Y-87535000D01*
X144441335Y-87535000D01*
X144718574Y-87479853D01*
X144979727Y-87371680D01*
X145214759Y-87214637D01*
X145414637Y-87014759D01*
X145516707Y-86862000D01*
X147269929Y-86862000D01*
X147385363Y-87034759D01*
X147585241Y-87234637D01*
X147738000Y-87336707D01*
X147738001Y-98562567D01*
X147734314Y-98600000D01*
X147749027Y-98749378D01*
X147792599Y-98893015D01*
X147863355Y-99025392D01*
X147934721Y-99112351D01*
X147958579Y-99141422D01*
X147987649Y-99165279D01*
X151832994Y-103010625D01*
X151827832Y-103023088D01*
X151765000Y-103338967D01*
X151765000Y-103661033D01*
X151827832Y-103976912D01*
X151951082Y-104274463D01*
X152130013Y-104542252D01*
X152357748Y-104769987D01*
X152625537Y-104948918D01*
X152923088Y-105072168D01*
X153238967Y-105135000D01*
X153561033Y-105135000D01*
X153876912Y-105072168D01*
X153889375Y-105067005D01*
X159506001Y-110683632D01*
X159506000Y-111362574D01*
X159502314Y-111400000D01*
X159506001Y-111437436D01*
X159506000Y-121357877D01*
X159502314Y-121395300D01*
X159506000Y-121432723D01*
X159506000Y-121432725D01*
X159517026Y-121544677D01*
X159560598Y-121688314D01*
X159560599Y-121688315D01*
X159631355Y-121820692D01*
X159670983Y-121868978D01*
X159726578Y-121936722D01*
X159729159Y-121938841D01*
X159731278Y-121941422D01*
X159847308Y-122036645D01*
X159979685Y-122107402D01*
X160123322Y-122150974D01*
X160227043Y-122161189D01*
X160322498Y-122277502D01*
X160471762Y-122400000D01*
X160322498Y-122522498D01*
X160168167Y-122710551D01*
X160053489Y-122925099D01*
X159982870Y-123157898D01*
X159959025Y-123400000D01*
X159982870Y-123642102D01*
X160053489Y-123874901D01*
X160168167Y-124089449D01*
X160322498Y-124277502D01*
X160471762Y-124400000D01*
X160322498Y-124522498D01*
X160168167Y-124710551D01*
X160053489Y-124925099D01*
X159982870Y-125157898D01*
X159959025Y-125400000D01*
X159982870Y-125642102D01*
X160053489Y-125874901D01*
X160168167Y-126089449D01*
X160294436Y-126243309D01*
X160245506Y-126269463D01*
X160148815Y-126348815D01*
X160069463Y-126445506D01*
X160010498Y-126555820D01*
X159974188Y-126675518D01*
X159961928Y-126800000D01*
X159965000Y-127114250D01*
X160123750Y-127273000D01*
X161373000Y-127273000D01*
X161373000Y-127253000D01*
X161627000Y-127253000D01*
X161627000Y-127273000D01*
X162876250Y-127273000D01*
X163035000Y-127114250D01*
X163038072Y-126800000D01*
X163025812Y-126675518D01*
X162989502Y-126555820D01*
X162930537Y-126445506D01*
X162851185Y-126348815D01*
X162754494Y-126269463D01*
X162705564Y-126243309D01*
X162831833Y-126089449D01*
X162946511Y-125874901D01*
X163017130Y-125642102D01*
X163040975Y-125400000D01*
X163017130Y-125157898D01*
X162946511Y-124925099D01*
X162831833Y-124710551D01*
X162677502Y-124522498D01*
X162528238Y-124400000D01*
X162677502Y-124277502D01*
X162831833Y-124089449D01*
X162946511Y-123874901D01*
X163017130Y-123642102D01*
X163040975Y-123400000D01*
X163017130Y-123157898D01*
X162946511Y-122925099D01*
X162831833Y-122710551D01*
X162677502Y-122522498D01*
X162528238Y-122400000D01*
X162677502Y-122277502D01*
X162831833Y-122089449D01*
X162946511Y-121874901D01*
X163017130Y-121642102D01*
X163040975Y-121400000D01*
X163017130Y-121157898D01*
X162946511Y-120925099D01*
X162831833Y-120710551D01*
X162677502Y-120522498D01*
X162489449Y-120368167D01*
X162274901Y-120253489D01*
X162042102Y-120182870D01*
X161860665Y-120165000D01*
X161139335Y-120165000D01*
X161030000Y-120175769D01*
X161030000Y-116635921D01*
X161214250Y-116635000D01*
X161373000Y-116476250D01*
X161373000Y-115527000D01*
X161627000Y-115527000D01*
X161627000Y-116476250D01*
X161785750Y-116635000D01*
X162400000Y-116638072D01*
X162524482Y-116625812D01*
X162644180Y-116589502D01*
X162754494Y-116530537D01*
X162851185Y-116451185D01*
X162930537Y-116354494D01*
X162989502Y-116244180D01*
X163025812Y-116124482D01*
X163038072Y-116000000D01*
X163035000Y-115685750D01*
X162876250Y-115527000D01*
X161627000Y-115527000D01*
X161373000Y-115527000D01*
X161353000Y-115527000D01*
X161353000Y-115273000D01*
X161373000Y-115273000D01*
X161373000Y-115253000D01*
X161627000Y-115253000D01*
X161627000Y-115273000D01*
X162876250Y-115273000D01*
X163035000Y-115114250D01*
X163038072Y-114800000D01*
X163025812Y-114675518D01*
X162989502Y-114555820D01*
X162930537Y-114445506D01*
X162851185Y-114348815D01*
X162754494Y-114269463D01*
X162705564Y-114243309D01*
X162831833Y-114089449D01*
X162946511Y-113874901D01*
X163017130Y-113642102D01*
X163040975Y-113400000D01*
X163017130Y-113157898D01*
X162946511Y-112925099D01*
X162831833Y-112710551D01*
X162677502Y-112522498D01*
X162528238Y-112400000D01*
X162677502Y-112277502D01*
X162831833Y-112089449D01*
X162946511Y-111874901D01*
X163017130Y-111642102D01*
X163040975Y-111400000D01*
X163017130Y-111157898D01*
X162946511Y-110925099D01*
X162831833Y-110710551D01*
X162677502Y-110522498D01*
X162528238Y-110400000D01*
X162677502Y-110277502D01*
X162831833Y-110089449D01*
X162946511Y-109874901D01*
X163017130Y-109642102D01*
X163040975Y-109400000D01*
X163017130Y-109157898D01*
X162946511Y-108925099D01*
X162831833Y-108710551D01*
X162677502Y-108522498D01*
X162489449Y-108368167D01*
X162274901Y-108253489D01*
X162042102Y-108182870D01*
X161860665Y-108165000D01*
X161139335Y-108165000D01*
X160957898Y-108182870D01*
X160725099Y-108253489D01*
X160510551Y-108368167D01*
X160322498Y-108522498D01*
X160168167Y-108710551D01*
X160053489Y-108925099D01*
X160018401Y-109040770D01*
X154967005Y-103989375D01*
X154972168Y-103976912D01*
X155035000Y-103661033D01*
X155035000Y-103338967D01*
X154972168Y-103023088D01*
X154848918Y-102725537D01*
X154669987Y-102457748D01*
X154442252Y-102230013D01*
X154174463Y-102051082D01*
X153876912Y-101927832D01*
X153561033Y-101865000D01*
X153238967Y-101865000D01*
X152923088Y-101927832D01*
X152910625Y-101932994D01*
X149826670Y-98849039D01*
X153608096Y-98849039D01*
X153648754Y-98983087D01*
X153768963Y-99237420D01*
X153936481Y-99463414D01*
X154144869Y-99652385D01*
X154386119Y-99797070D01*
X154650960Y-99891909D01*
X154873000Y-99770624D01*
X154873000Y-98627000D01*
X155127000Y-98627000D01*
X155127000Y-99770624D01*
X155349040Y-99891909D01*
X155613881Y-99797070D01*
X155855131Y-99652385D01*
X156063519Y-99463414D01*
X156231037Y-99237420D01*
X156351246Y-98983087D01*
X156391904Y-98849039D01*
X156269915Y-98627000D01*
X155127000Y-98627000D01*
X154873000Y-98627000D01*
X153730085Y-98627000D01*
X153608096Y-98849039D01*
X149826670Y-98849039D01*
X149262000Y-98284370D01*
X149262000Y-98150961D01*
X153608096Y-98150961D01*
X153730085Y-98373000D01*
X154873000Y-98373000D01*
X154873000Y-97229376D01*
X155127000Y-97229376D01*
X155127000Y-98373000D01*
X156269915Y-98373000D01*
X156391904Y-98150961D01*
X156351246Y-98016913D01*
X156231037Y-97762580D01*
X156063519Y-97536586D01*
X155855131Y-97347615D01*
X155613881Y-97202930D01*
X155349040Y-97108091D01*
X155127000Y-97229376D01*
X154873000Y-97229376D01*
X154650960Y-97108091D01*
X154386119Y-97202930D01*
X154144869Y-97347615D01*
X153936481Y-97536586D01*
X153768963Y-97762580D01*
X153648754Y-98016913D01*
X153608096Y-98150961D01*
X149262000Y-98150961D01*
X149262000Y-88650000D01*
X152011928Y-88650000D01*
X152011928Y-90350000D01*
X152024188Y-90474482D01*
X152060498Y-90594180D01*
X152119463Y-90704494D01*
X152198815Y-90801185D01*
X152295506Y-90880537D01*
X152405820Y-90939502D01*
X152525518Y-90975812D01*
X152650000Y-90988072D01*
X152738001Y-90988072D01*
X152738000Y-92464377D01*
X152734314Y-92501800D01*
X152738000Y-92539223D01*
X152738000Y-92539225D01*
X152749026Y-92651177D01*
X152792598Y-92794814D01*
X152792599Y-92794815D01*
X152863355Y-92927192D01*
X152895264Y-92966073D01*
X152958578Y-93043222D01*
X152987654Y-93067084D01*
X158932920Y-99012351D01*
X158956778Y-99041422D01*
X158985848Y-99065279D01*
X159072807Y-99136645D01*
X159099589Y-99150960D01*
X159205185Y-99207402D01*
X159348822Y-99250974D01*
X159460774Y-99262000D01*
X159460777Y-99262000D01*
X159498200Y-99265686D01*
X159535623Y-99262000D01*
X161283293Y-99262000D01*
X161385363Y-99414759D01*
X161585241Y-99614637D01*
X161820273Y-99771680D01*
X162081426Y-99879853D01*
X162358665Y-99935000D01*
X162641335Y-99935000D01*
X162821527Y-99899157D01*
X164038001Y-101115632D01*
X164038001Y-102045919D01*
X164025537Y-102051082D01*
X163757748Y-102230013D01*
X163530013Y-102457748D01*
X163351082Y-102725537D01*
X163227832Y-103023088D01*
X163165000Y-103338967D01*
X163165000Y-103661033D01*
X163227832Y-103976912D01*
X163351082Y-104274463D01*
X163530013Y-104542252D01*
X163757748Y-104769987D01*
X164025537Y-104948918D01*
X164323088Y-105072168D01*
X164638967Y-105135000D01*
X164961033Y-105135000D01*
X165276912Y-105072168D01*
X165574463Y-104948918D01*
X165842252Y-104769987D01*
X166069987Y-104542252D01*
X166248918Y-104274463D01*
X166372168Y-103976912D01*
X166435000Y-103661033D01*
X166435000Y-103338967D01*
X166372168Y-103023088D01*
X166248918Y-102725537D01*
X166069987Y-102457748D01*
X165842252Y-102230013D01*
X165574463Y-102051082D01*
X165562000Y-102045920D01*
X165562000Y-100837422D01*
X165565686Y-100799999D01*
X165558894Y-100731037D01*
X165550974Y-100650622D01*
X165507402Y-100506985D01*
X165436645Y-100374608D01*
X165341422Y-100258578D01*
X165312352Y-100234721D01*
X163899157Y-98821527D01*
X163935000Y-98641335D01*
X163935000Y-98358665D01*
X163879853Y-98081426D01*
X163771680Y-97820273D01*
X163614637Y-97585241D01*
X163414759Y-97385363D01*
X163179727Y-97228320D01*
X162918574Y-97120147D01*
X162641335Y-97065000D01*
X162358665Y-97065000D01*
X162081426Y-97120147D01*
X161820273Y-97228320D01*
X161585241Y-97385363D01*
X161385363Y-97585241D01*
X161283293Y-97738000D01*
X159813831Y-97738000D01*
X158691707Y-96615877D01*
X158709811Y-96613842D01*
X159157468Y-96471297D01*
X159513927Y-96280766D01*
X159700003Y-95939609D01*
X158210000Y-94449605D01*
X158195858Y-94463748D01*
X158016252Y-94284142D01*
X158030395Y-94270000D01*
X158389605Y-94270000D01*
X159879609Y-95760003D01*
X160220766Y-95573927D01*
X160436513Y-95156591D01*
X160566696Y-94705185D01*
X160606313Y-94237054D01*
X160553842Y-93770189D01*
X160411297Y-93322532D01*
X160220766Y-92966073D01*
X159879609Y-92779997D01*
X158389605Y-94270000D01*
X158030395Y-94270000D01*
X156540391Y-92779997D01*
X156199234Y-92966073D01*
X155983487Y-93383409D01*
X155866139Y-93790309D01*
X154676221Y-92600391D01*
X156719997Y-92600391D01*
X158210000Y-94090395D01*
X159700003Y-92600391D01*
X159513927Y-92259234D01*
X159096591Y-92043487D01*
X158645185Y-91913304D01*
X158177054Y-91873687D01*
X157710189Y-91926158D01*
X157262532Y-92068703D01*
X156906073Y-92259234D01*
X156719997Y-92600391D01*
X154676221Y-92600391D01*
X154262000Y-92186170D01*
X154262000Y-90988072D01*
X154350000Y-90988072D01*
X154474482Y-90975812D01*
X154594180Y-90939502D01*
X154704494Y-90880537D01*
X154792876Y-90808004D01*
X154992883Y-90903371D01*
X155276411Y-90975339D01*
X155568531Y-90990611D01*
X155858019Y-90948599D01*
X156133747Y-90850919D01*
X156271157Y-90777472D01*
X156348792Y-90528397D01*
X155500000Y-89679605D01*
X155485858Y-89693748D01*
X155306253Y-89514143D01*
X155320395Y-89500000D01*
X155679605Y-89500000D01*
X156528397Y-90348792D01*
X156777472Y-90271157D01*
X156903371Y-90007117D01*
X156975339Y-89723589D01*
X156990611Y-89431469D01*
X156948599Y-89141981D01*
X156850919Y-88866253D01*
X156777472Y-88728843D01*
X156528397Y-88651208D01*
X155679605Y-89500000D01*
X155320395Y-89500000D01*
X155306253Y-89485858D01*
X155485858Y-89306253D01*
X155500000Y-89320395D01*
X156348792Y-88471603D01*
X156283590Y-88262416D01*
X156446632Y-88153475D01*
X156653475Y-87946632D01*
X156815990Y-87703411D01*
X156927932Y-87433158D01*
X156985000Y-87146260D01*
X156985000Y-86853740D01*
X156927932Y-86566842D01*
X156815990Y-86296589D01*
X156653475Y-86053368D01*
X156446632Y-85846525D01*
X156203411Y-85684010D01*
X155933158Y-85572068D01*
X155646260Y-85515000D01*
X155353740Y-85515000D01*
X155066842Y-85572068D01*
X154796589Y-85684010D01*
X154553368Y-85846525D01*
X154500000Y-85899893D01*
X154446632Y-85846525D01*
X154203411Y-85684010D01*
X153933158Y-85572068D01*
X153646260Y-85515000D01*
X153353740Y-85515000D01*
X153066842Y-85572068D01*
X152796589Y-85684010D01*
X152553368Y-85846525D01*
X152346525Y-86053368D01*
X152184010Y-86296589D01*
X152072068Y-86566842D01*
X152015000Y-86853740D01*
X152015000Y-87146260D01*
X152072068Y-87433158D01*
X152184010Y-87703411D01*
X152346525Y-87946632D01*
X152447690Y-88047797D01*
X152405820Y-88060498D01*
X152295506Y-88119463D01*
X152198815Y-88198815D01*
X152119463Y-88295506D01*
X152060498Y-88405820D01*
X152024188Y-88525518D01*
X152011928Y-88650000D01*
X149262000Y-88650000D01*
X149262000Y-87336707D01*
X149414759Y-87234637D01*
X149614637Y-87034759D01*
X149771680Y-86799727D01*
X149879853Y-86538574D01*
X149935000Y-86261335D01*
X149935000Y-85978665D01*
X149879853Y-85701426D01*
X149771680Y-85440273D01*
X149614637Y-85205241D01*
X149414759Y-85005363D01*
X149179727Y-84848320D01*
X148918574Y-84740147D01*
X148641335Y-84685000D01*
X148358665Y-84685000D01*
X148081426Y-84740147D01*
X147820273Y-84848320D01*
X147585241Y-85005363D01*
X147385363Y-85205241D01*
X147296656Y-85338000D01*
X145516707Y-85338000D01*
X145414637Y-85185241D01*
X145214759Y-84985363D01*
X144979727Y-84828320D01*
X144718574Y-84720147D01*
X144441335Y-84665000D01*
X144158665Y-84665000D01*
X143881426Y-84720147D01*
X143620273Y-84828320D01*
X143385241Y-84985363D01*
X143185363Y-85185241D01*
X143062000Y-85369867D01*
X143062000Y-83899609D01*
X156719997Y-83899609D01*
X156906073Y-84240766D01*
X157323409Y-84456513D01*
X157774815Y-84586696D01*
X158242946Y-84626313D01*
X158709811Y-84573842D01*
X159157468Y-84431297D01*
X159513927Y-84240766D01*
X159700003Y-83899609D01*
X158210000Y-82409605D01*
X156719997Y-83899609D01*
X143062000Y-83899609D01*
X143062000Y-82262946D01*
X155813687Y-82262946D01*
X155866158Y-82729811D01*
X156008703Y-83177468D01*
X156199234Y-83533927D01*
X156540391Y-83720003D01*
X158030395Y-82230000D01*
X158389605Y-82230000D01*
X159879609Y-83720003D01*
X160220766Y-83533927D01*
X160436513Y-83116591D01*
X160566696Y-82665185D01*
X160606313Y-82197054D01*
X160553842Y-81730189D01*
X160411297Y-81282532D01*
X160220766Y-80926073D01*
X159879609Y-80739997D01*
X158389605Y-82230000D01*
X158030395Y-82230000D01*
X156540391Y-80739997D01*
X156199234Y-80926073D01*
X155983487Y-81343409D01*
X155853304Y-81794815D01*
X155813687Y-82262946D01*
X143062000Y-82262946D01*
X143062000Y-80560391D01*
X156719997Y-80560391D01*
X158210000Y-82050395D01*
X159700003Y-80560391D01*
X159513927Y-80219234D01*
X159096591Y-80003487D01*
X158645185Y-79873304D01*
X158177054Y-79833687D01*
X157710189Y-79886158D01*
X157262532Y-80028703D01*
X156906073Y-80219234D01*
X156719997Y-80560391D01*
X143062000Y-80560391D01*
X143062000Y-79210133D01*
X143185363Y-79394759D01*
X143385241Y-79594637D01*
X143620273Y-79751680D01*
X143881426Y-79859853D01*
X144158665Y-79915000D01*
X144441335Y-79915000D01*
X144718574Y-79859853D01*
X144979727Y-79751680D01*
X145214759Y-79594637D01*
X145414637Y-79394759D01*
X145571680Y-79159727D01*
X145679853Y-78898574D01*
X145735000Y-78621335D01*
X145735000Y-78358665D01*
X147065000Y-78358665D01*
X147065000Y-78641335D01*
X147120147Y-78918574D01*
X147228320Y-79179727D01*
X147385363Y-79414759D01*
X147585241Y-79614637D01*
X147820273Y-79771680D01*
X148081426Y-79879853D01*
X148358665Y-79935000D01*
X148641335Y-79935000D01*
X148918574Y-79879853D01*
X149179727Y-79771680D01*
X149414759Y-79614637D01*
X149614637Y-79414759D01*
X149771680Y-79179727D01*
X149879853Y-78918574D01*
X149935000Y-78641335D01*
X149935000Y-78358665D01*
X149899157Y-78178474D01*
X150152353Y-77925278D01*
X150181422Y-77901422D01*
X150276645Y-77785392D01*
X150347402Y-77653015D01*
X150390974Y-77509378D01*
X150402000Y-77397426D01*
X150402000Y-77397424D01*
X150405686Y-77360001D01*
X150402000Y-77322578D01*
X150402000Y-76558686D01*
X161620919Y-76558686D01*
X161957106Y-77027868D01*
X162587068Y-77368237D01*
X163271327Y-77579166D01*
X163983589Y-77652550D01*
X164696482Y-77585569D01*
X165382609Y-77380796D01*
X166015603Y-77046102D01*
X166042894Y-77027868D01*
X166379081Y-76558686D01*
X164000000Y-74179605D01*
X161620919Y-76558686D01*
X150402000Y-76558686D01*
X150402000Y-73983589D01*
X160347450Y-73983589D01*
X160414431Y-74696482D01*
X160619204Y-75382609D01*
X160953898Y-76015603D01*
X160972132Y-76042894D01*
X161441314Y-76379081D01*
X163820395Y-74000000D01*
X164179605Y-74000000D01*
X166558686Y-76379081D01*
X167027868Y-76042894D01*
X167368237Y-75412932D01*
X167579166Y-74728673D01*
X167652550Y-74016411D01*
X167585569Y-73303518D01*
X167380796Y-72617391D01*
X167046102Y-71984397D01*
X167027868Y-71957106D01*
X166558686Y-71620919D01*
X164179605Y-74000000D01*
X163820395Y-74000000D01*
X161441314Y-71620919D01*
X160972132Y-71957106D01*
X160631763Y-72587068D01*
X160420834Y-73271327D01*
X160347450Y-73983589D01*
X150402000Y-73983589D01*
X150402000Y-73736976D01*
X150618505Y-73592312D01*
X150832312Y-73378505D01*
X151000299Y-73127095D01*
X151116011Y-72847743D01*
X151175000Y-72551184D01*
X151175000Y-72248816D01*
X151116011Y-71952257D01*
X151000299Y-71672905D01*
X150845555Y-71441314D01*
X161620919Y-71441314D01*
X164000000Y-73820395D01*
X166379081Y-71441314D01*
X166042894Y-70972132D01*
X165412932Y-70631763D01*
X164728673Y-70420834D01*
X164016411Y-70347450D01*
X163303518Y-70414431D01*
X162617391Y-70619204D01*
X161984397Y-70953898D01*
X161957106Y-70972132D01*
X161620919Y-71441314D01*
X150845555Y-71441314D01*
X150832312Y-71421495D01*
X150618505Y-71207688D01*
X150367095Y-71039701D01*
X150087743Y-70923989D01*
X149791184Y-70865000D01*
X149488816Y-70865000D01*
X149192257Y-70923989D01*
X148912905Y-71039701D01*
X148661495Y-71207688D01*
X148595056Y-71274127D01*
X148589502Y-71255820D01*
X148530537Y-71145506D01*
X148451185Y-71048815D01*
X148354494Y-70969463D01*
X148244180Y-70910498D01*
X148124482Y-70874188D01*
X148000000Y-70861928D01*
X147385750Y-70865000D01*
X147227000Y-71023750D01*
X147227000Y-72273000D01*
X147247000Y-72273000D01*
X147247000Y-72527000D01*
X147227000Y-72527000D01*
X147227000Y-73776250D01*
X147385750Y-73935000D01*
X148000000Y-73938072D01*
X148124482Y-73925812D01*
X148244180Y-73889502D01*
X148354494Y-73830537D01*
X148451185Y-73751185D01*
X148530537Y-73654494D01*
X148589502Y-73544180D01*
X148595056Y-73525873D01*
X148661495Y-73592312D01*
X148878001Y-73736977D01*
X148878000Y-77044369D01*
X148821526Y-77100843D01*
X148641335Y-77065000D01*
X148358665Y-77065000D01*
X148081426Y-77120147D01*
X147820273Y-77228320D01*
X147585241Y-77385363D01*
X147385363Y-77585241D01*
X147228320Y-77820273D01*
X147120147Y-78081426D01*
X147065000Y-78358665D01*
X145735000Y-78358665D01*
X145735000Y-78338665D01*
X145679853Y-78061426D01*
X145571680Y-77800273D01*
X145414637Y-77565241D01*
X145214759Y-77365363D01*
X145056520Y-77259631D01*
X145050974Y-77203322D01*
X145007402Y-77059685D01*
X144940547Y-76934608D01*
X144936645Y-76927307D01*
X144865279Y-76840348D01*
X144841422Y-76811278D01*
X144812351Y-76787420D01*
X144402000Y-76377070D01*
X144402000Y-73736976D01*
X144618505Y-73592312D01*
X144832312Y-73378505D01*
X144884767Y-73300000D01*
X145561928Y-73300000D01*
X145574188Y-73424482D01*
X145610498Y-73544180D01*
X145669463Y-73654494D01*
X145748815Y-73751185D01*
X145845506Y-73830537D01*
X145955820Y-73889502D01*
X146075518Y-73925812D01*
X146200000Y-73938072D01*
X146814250Y-73935000D01*
X146973000Y-73776250D01*
X146973000Y-72527000D01*
X145723750Y-72527000D01*
X145565000Y-72685750D01*
X145561928Y-73300000D01*
X144884767Y-73300000D01*
X145000299Y-73127095D01*
X145116011Y-72847743D01*
X145175000Y-72551184D01*
X145175000Y-72248816D01*
X145116011Y-71952257D01*
X145000299Y-71672905D01*
X144884768Y-71500000D01*
X145561928Y-71500000D01*
X145565000Y-72114250D01*
X145723750Y-72273000D01*
X146973000Y-72273000D01*
X146973000Y-71023750D01*
X146814250Y-70865000D01*
X146200000Y-70861928D01*
X146075518Y-70874188D01*
X145955820Y-70910498D01*
X145845506Y-70969463D01*
X145748815Y-71048815D01*
X145669463Y-71145506D01*
X145610498Y-71255820D01*
X145574188Y-71375518D01*
X145561928Y-71500000D01*
X144884768Y-71500000D01*
X144832312Y-71421495D01*
X144618505Y-71207688D01*
X144367095Y-71039701D01*
X144087743Y-70923989D01*
X143791184Y-70865000D01*
X143488816Y-70865000D01*
X143192257Y-70923989D01*
X142912905Y-71039701D01*
X142661495Y-71207688D01*
X142595056Y-71274127D01*
X142589502Y-71255820D01*
X142530537Y-71145506D01*
X142451185Y-71048815D01*
X142354494Y-70969463D01*
X142244180Y-70910498D01*
X142124482Y-70874188D01*
X142000000Y-70861928D01*
X140200000Y-70861928D01*
X140075518Y-70874188D01*
X139955820Y-70910498D01*
X139845506Y-70969463D01*
X139748815Y-71048815D01*
X139669463Y-71145506D01*
X139610498Y-71255820D01*
X139574188Y-71375518D01*
X139561928Y-71500000D01*
X138884768Y-71500000D01*
X138832312Y-71421495D01*
X138618505Y-71207688D01*
X138367095Y-71039701D01*
X138087743Y-70923989D01*
X137791184Y-70865000D01*
X137488816Y-70865000D01*
X137192257Y-70923989D01*
X136912905Y-71039701D01*
X136661495Y-71207688D01*
X136595056Y-71274127D01*
X136589502Y-71255820D01*
X136530537Y-71145506D01*
X136451185Y-71048815D01*
X136354494Y-70969463D01*
X136244180Y-70910498D01*
X136124482Y-70874188D01*
X136000000Y-70861928D01*
X134200000Y-70861928D01*
X134075518Y-70874188D01*
X133955820Y-70910498D01*
X133845506Y-70969463D01*
X133748815Y-71048815D01*
X133669463Y-71145506D01*
X133610498Y-71255820D01*
X133574188Y-71375518D01*
X133561928Y-71500000D01*
X95320395Y-71500000D01*
X95379081Y-71441314D01*
X95042894Y-70972132D01*
X94412932Y-70631763D01*
X93728673Y-70420834D01*
X93016411Y-70347450D01*
X92303518Y-70414431D01*
X91617391Y-70619204D01*
X90984397Y-70953898D01*
X90957106Y-70972132D01*
X90620919Y-71441314D01*
X87660000Y-71441314D01*
X87660000Y-68660000D01*
X169340000Y-68660000D01*
X169340001Y-134967581D01*
G36*
X117558665Y-108435000D02*
G01*
X117841335Y-108435000D01*
X118021527Y-108399157D01*
X127076250Y-117453881D01*
X127023087Y-117428754D01*
X126889039Y-117388096D01*
X126667000Y-117510085D01*
X126667000Y-118653000D01*
X126687000Y-118653000D01*
X126687000Y-118907000D01*
X126667000Y-118907000D01*
X126667000Y-120049915D01*
X126889039Y-120171904D01*
X127023087Y-120131246D01*
X127277420Y-120011037D01*
X127503414Y-119843519D01*
X127692385Y-119635131D01*
X127803933Y-119449135D01*
X127808320Y-119459727D01*
X127965363Y-119694759D01*
X128165241Y-119894637D01*
X128400273Y-120051680D01*
X128661426Y-120159853D01*
X128938665Y-120215000D01*
X129221335Y-120215000D01*
X129498574Y-120159853D01*
X129759727Y-120051680D01*
X129994759Y-119894637D01*
X130194637Y-119694759D01*
X130350000Y-119462241D01*
X130505363Y-119694759D01*
X130705241Y-119894637D01*
X130786282Y-119948787D01*
X126027649Y-124707421D01*
X125998579Y-124731278D01*
X125974722Y-124760348D01*
X125974721Y-124760349D01*
X125903355Y-124847308D01*
X125832599Y-124979685D01*
X125789027Y-125123322D01*
X125783481Y-125179631D01*
X125625241Y-125285363D01*
X125425363Y-125485241D01*
X125270000Y-125717759D01*
X125114637Y-125485241D01*
X124914759Y-125285363D01*
X124756520Y-125179631D01*
X124750974Y-125123322D01*
X124707402Y-124979685D01*
X124662871Y-124896374D01*
X124636645Y-124847307D01*
X124565279Y-124760348D01*
X124541422Y-124731278D01*
X124512352Y-124707421D01*
X123634700Y-123829770D01*
X123634700Y-120170450D01*
X123858665Y-120215000D01*
X124141335Y-120215000D01*
X124418574Y-120159853D01*
X124679727Y-120051680D01*
X124914759Y-119894637D01*
X125114637Y-119694759D01*
X125271680Y-119459727D01*
X125276067Y-119449135D01*
X125387615Y-119635131D01*
X125576586Y-119843519D01*
X125802580Y-120011037D01*
X126056913Y-120131246D01*
X126190961Y-120171904D01*
X126413000Y-120049915D01*
X126413000Y-118907000D01*
X126393000Y-118907000D01*
X126393000Y-118653000D01*
X126413000Y-118653000D01*
X126413000Y-117510085D01*
X126190961Y-117388096D01*
X126056913Y-117428754D01*
X125802580Y-117548963D01*
X125576586Y-117716481D01*
X125387615Y-117924869D01*
X125276067Y-118110865D01*
X125271680Y-118100273D01*
X125114637Y-117865241D01*
X124914759Y-117665363D01*
X124679727Y-117508320D01*
X124418574Y-117400147D01*
X124141335Y-117345000D01*
X123858665Y-117345000D01*
X123634700Y-117389550D01*
X123634700Y-115590423D01*
X123638386Y-115553000D01*
X123631410Y-115482174D01*
X123623674Y-115403622D01*
X123580102Y-115259985D01*
X123547165Y-115198364D01*
X123509345Y-115127607D01*
X123474557Y-115085219D01*
X123414122Y-115011578D01*
X123385046Y-114987716D01*
X117316400Y-108919070D01*
X117316400Y-108386810D01*
X117558665Y-108435000D01*
G37*
X117558665Y-108435000D02*
X117841335Y-108435000D01*
X118021527Y-108399157D01*
X127076250Y-117453881D01*
X127023087Y-117428754D01*
X126889039Y-117388096D01*
X126667000Y-117510085D01*
X126667000Y-118653000D01*
X126687000Y-118653000D01*
X126687000Y-118907000D01*
X126667000Y-118907000D01*
X126667000Y-120049915D01*
X126889039Y-120171904D01*
X127023087Y-120131246D01*
X127277420Y-120011037D01*
X127503414Y-119843519D01*
X127692385Y-119635131D01*
X127803933Y-119449135D01*
X127808320Y-119459727D01*
X127965363Y-119694759D01*
X128165241Y-119894637D01*
X128400273Y-120051680D01*
X128661426Y-120159853D01*
X128938665Y-120215000D01*
X129221335Y-120215000D01*
X129498574Y-120159853D01*
X129759727Y-120051680D01*
X129994759Y-119894637D01*
X130194637Y-119694759D01*
X130350000Y-119462241D01*
X130505363Y-119694759D01*
X130705241Y-119894637D01*
X130786282Y-119948787D01*
X126027649Y-124707421D01*
X125998579Y-124731278D01*
X125974722Y-124760348D01*
X125974721Y-124760349D01*
X125903355Y-124847308D01*
X125832599Y-124979685D01*
X125789027Y-125123322D01*
X125783481Y-125179631D01*
X125625241Y-125285363D01*
X125425363Y-125485241D01*
X125270000Y-125717759D01*
X125114637Y-125485241D01*
X124914759Y-125285363D01*
X124756520Y-125179631D01*
X124750974Y-125123322D01*
X124707402Y-124979685D01*
X124662871Y-124896374D01*
X124636645Y-124847307D01*
X124565279Y-124760348D01*
X124541422Y-124731278D01*
X124512352Y-124707421D01*
X123634700Y-123829770D01*
X123634700Y-120170450D01*
X123858665Y-120215000D01*
X124141335Y-120215000D01*
X124418574Y-120159853D01*
X124679727Y-120051680D01*
X124914759Y-119894637D01*
X125114637Y-119694759D01*
X125271680Y-119459727D01*
X125276067Y-119449135D01*
X125387615Y-119635131D01*
X125576586Y-119843519D01*
X125802580Y-120011037D01*
X126056913Y-120131246D01*
X126190961Y-120171904D01*
X126413000Y-120049915D01*
X126413000Y-118907000D01*
X126393000Y-118907000D01*
X126393000Y-118653000D01*
X126413000Y-118653000D01*
X126413000Y-117510085D01*
X126190961Y-117388096D01*
X126056913Y-117428754D01*
X125802580Y-117548963D01*
X125576586Y-117716481D01*
X125387615Y-117924869D01*
X125276067Y-118110865D01*
X125271680Y-118100273D01*
X125114637Y-117865241D01*
X124914759Y-117665363D01*
X124679727Y-117508320D01*
X124418574Y-117400147D01*
X124141335Y-117345000D01*
X123858665Y-117345000D01*
X123634700Y-117389550D01*
X123634700Y-115590423D01*
X123638386Y-115553000D01*
X123631410Y-115482174D01*
X123623674Y-115403622D01*
X123580102Y-115259985D01*
X123547165Y-115198364D01*
X123509345Y-115127607D01*
X123474557Y-115085219D01*
X123414122Y-115011578D01*
X123385046Y-114987716D01*
X117316400Y-108919070D01*
X117316400Y-108386810D01*
X117558665Y-108435000D01*
G36*
X121246525Y-82946632D02*
G01*
X121453368Y-83153475D01*
X121644549Y-83281218D01*
X121649027Y-83326678D01*
X121692599Y-83470315D01*
X121763355Y-83602692D01*
X121834721Y-83689651D01*
X121858579Y-83718722D01*
X121887649Y-83742579D01*
X124338800Y-86193731D01*
X124338800Y-88703083D01*
X124138574Y-88620147D01*
X123861335Y-88565000D01*
X123578665Y-88565000D01*
X123301426Y-88620147D01*
X123040273Y-88728320D01*
X122805241Y-88885363D01*
X122605363Y-89085241D01*
X122448320Y-89320273D01*
X122340147Y-89581426D01*
X122285000Y-89858665D01*
X122285000Y-90141335D01*
X122340147Y-90418574D01*
X122448320Y-90679727D01*
X122605363Y-90914759D01*
X122805241Y-91114637D01*
X123040273Y-91271680D01*
X123301426Y-91379853D01*
X123578665Y-91435000D01*
X123861335Y-91435000D01*
X124138574Y-91379853D01*
X124338800Y-91296917D01*
X124338800Y-93703083D01*
X124138574Y-93620147D01*
X123861335Y-93565000D01*
X123578665Y-93565000D01*
X123301426Y-93620147D01*
X123040273Y-93728320D01*
X122805241Y-93885363D01*
X122605363Y-94085241D01*
X122448320Y-94320273D01*
X122340147Y-94581426D01*
X122285000Y-94858665D01*
X122285000Y-95141335D01*
X122340147Y-95418574D01*
X122448320Y-95679727D01*
X122605363Y-95914759D01*
X122805241Y-96114637D01*
X123040273Y-96271680D01*
X123301426Y-96379853D01*
X123578665Y-96435000D01*
X123861335Y-96435000D01*
X124138574Y-96379853D01*
X124338800Y-96296917D01*
X124338801Y-108545167D01*
X124335114Y-108582600D01*
X124349827Y-108731978D01*
X124393399Y-108875615D01*
X124464155Y-109007992D01*
X124527619Y-109085322D01*
X124559379Y-109124022D01*
X124588449Y-109147879D01*
X132128000Y-116687431D01*
X132128000Y-117083069D01*
X123662000Y-108617070D01*
X123662000Y-108216707D01*
X123814759Y-108114637D01*
X124014637Y-107914759D01*
X124171680Y-107679727D01*
X124279853Y-107418574D01*
X124335000Y-107141335D01*
X124335000Y-106858665D01*
X124279853Y-106581426D01*
X124171680Y-106320273D01*
X124014637Y-106085241D01*
X123814759Y-105885363D01*
X123579727Y-105728320D01*
X123318574Y-105620147D01*
X123041335Y-105565000D01*
X122758665Y-105565000D01*
X122481426Y-105620147D01*
X122220273Y-105728320D01*
X121985241Y-105885363D01*
X121785363Y-106085241D01*
X121628320Y-106320273D01*
X121520147Y-106581426D01*
X121465000Y-106858665D01*
X121465000Y-107141335D01*
X121520147Y-107418574D01*
X121628320Y-107679727D01*
X121785363Y-107914759D01*
X121985241Y-108114637D01*
X122138001Y-108216707D01*
X122138001Y-108895267D01*
X122134314Y-108932700D01*
X122149027Y-109082078D01*
X122192599Y-109225715D01*
X122263355Y-109358092D01*
X122334498Y-109444779D01*
X122358579Y-109474122D01*
X122387649Y-109497979D01*
X130630137Y-117740467D01*
X130505363Y-117865241D01*
X130350000Y-118097759D01*
X130194637Y-117865241D01*
X129994759Y-117665363D01*
X129759727Y-117508320D01*
X129498574Y-117400147D01*
X129221335Y-117345000D01*
X129052253Y-117345000D01*
X129021259Y-117287014D01*
X128989345Y-117227307D01*
X128917979Y-117140348D01*
X128894122Y-117111278D01*
X128865053Y-117087422D01*
X119099157Y-107321527D01*
X119135000Y-107141335D01*
X119135000Y-106858665D01*
X119079853Y-106581426D01*
X118971680Y-106320273D01*
X118814637Y-106085241D01*
X118614759Y-105885363D01*
X118379727Y-105728320D01*
X118118574Y-105620147D01*
X117841335Y-105565000D01*
X117558665Y-105565000D01*
X117316400Y-105613190D01*
X117316400Y-100881421D01*
X117350961Y-100891904D01*
X117573000Y-100769915D01*
X117573000Y-99627000D01*
X117827000Y-99627000D01*
X117827000Y-100769915D01*
X118049039Y-100891904D01*
X118183087Y-100851246D01*
X118437420Y-100731037D01*
X118663414Y-100563519D01*
X118852385Y-100355131D01*
X118997070Y-100113881D01*
X119091909Y-99849040D01*
X121508091Y-99849040D01*
X121602930Y-100113881D01*
X121747615Y-100355131D01*
X121936586Y-100563519D01*
X122162580Y-100731037D01*
X122416913Y-100851246D01*
X122550961Y-100891904D01*
X122773000Y-100769915D01*
X122773000Y-99627000D01*
X123027000Y-99627000D01*
X123027000Y-100769915D01*
X123249039Y-100891904D01*
X123383087Y-100851246D01*
X123637420Y-100731037D01*
X123863414Y-100563519D01*
X124052385Y-100355131D01*
X124197070Y-100113881D01*
X124291909Y-99849040D01*
X124170624Y-99627000D01*
X123027000Y-99627000D01*
X122773000Y-99627000D01*
X121629376Y-99627000D01*
X121508091Y-99849040D01*
X119091909Y-99849040D01*
X118970624Y-99627000D01*
X117827000Y-99627000D01*
X117573000Y-99627000D01*
X117553000Y-99627000D01*
X117553000Y-99373000D01*
X117573000Y-99373000D01*
X117573000Y-98230085D01*
X117827000Y-98230085D01*
X117827000Y-99373000D01*
X118970624Y-99373000D01*
X119091909Y-99150960D01*
X121508091Y-99150960D01*
X121629376Y-99373000D01*
X122773000Y-99373000D01*
X122773000Y-98230085D01*
X123027000Y-98230085D01*
X123027000Y-99373000D01*
X124170624Y-99373000D01*
X124291909Y-99150960D01*
X124197070Y-98886119D01*
X124052385Y-98644869D01*
X123863414Y-98436481D01*
X123637420Y-98268963D01*
X123383087Y-98148754D01*
X123249039Y-98108096D01*
X123027000Y-98230085D01*
X122773000Y-98230085D01*
X122550961Y-98108096D01*
X122416913Y-98148754D01*
X122162580Y-98268963D01*
X121936586Y-98436481D01*
X121747615Y-98644869D01*
X121602930Y-98886119D01*
X121508091Y-99150960D01*
X119091909Y-99150960D01*
X118997070Y-98886119D01*
X118852385Y-98644869D01*
X118663414Y-98436481D01*
X118437420Y-98268963D01*
X118183087Y-98148754D01*
X118049039Y-98108096D01*
X117827000Y-98230085D01*
X117573000Y-98230085D01*
X117350961Y-98108096D01*
X117316400Y-98118579D01*
X117316400Y-97335930D01*
X118200353Y-96451978D01*
X118229422Y-96428122D01*
X118324645Y-96312092D01*
X118395402Y-96179715D01*
X118438974Y-96036078D01*
X118450000Y-95924126D01*
X118450000Y-95924117D01*
X118453685Y-95886701D01*
X118450000Y-95849285D01*
X118450000Y-89349422D01*
X118453686Y-89311999D01*
X118447484Y-89249027D01*
X118438974Y-89162622D01*
X118395402Y-89018985D01*
X118324645Y-88886608D01*
X118229422Y-88770578D01*
X118200352Y-88746721D01*
X116751674Y-87298044D01*
X116727812Y-87268968D01*
X116611782Y-87173745D01*
X116479405Y-87102988D01*
X116335768Y-87059416D01*
X116223816Y-87048390D01*
X116223813Y-87048390D01*
X116186390Y-87044704D01*
X116148967Y-87048390D01*
X111526021Y-87048390D01*
X110462000Y-85984370D01*
X110462000Y-83276842D01*
X110646632Y-83153475D01*
X110853475Y-82946632D01*
X110970000Y-82772240D01*
X111086525Y-82946632D01*
X111293368Y-83153475D01*
X111536589Y-83315990D01*
X111806842Y-83427932D01*
X112093740Y-83485000D01*
X112386260Y-83485000D01*
X112673158Y-83427932D01*
X112943411Y-83315990D01*
X113186632Y-83153475D01*
X113393475Y-82946632D01*
X113510000Y-82772240D01*
X113626525Y-82946632D01*
X113833368Y-83153475D01*
X114076589Y-83315990D01*
X114346842Y-83427932D01*
X114633740Y-83485000D01*
X114926260Y-83485000D01*
X115213158Y-83427932D01*
X115483411Y-83315990D01*
X115726632Y-83153475D01*
X115933475Y-82946632D01*
X116050000Y-82772240D01*
X116166525Y-82946632D01*
X116373368Y-83153475D01*
X116616589Y-83315990D01*
X116886842Y-83427932D01*
X117173740Y-83485000D01*
X117466260Y-83485000D01*
X117753158Y-83427932D01*
X118023411Y-83315990D01*
X118266632Y-83153475D01*
X118473475Y-82946632D01*
X118590000Y-82772240D01*
X118706525Y-82946632D01*
X118913368Y-83153475D01*
X119156589Y-83315990D01*
X119426842Y-83427932D01*
X119713740Y-83485000D01*
X120006260Y-83485000D01*
X120293158Y-83427932D01*
X120563411Y-83315990D01*
X120806632Y-83153475D01*
X121013475Y-82946632D01*
X121130000Y-82772240D01*
X121246525Y-82946632D01*
G37*
X121246525Y-82946632D02*
X121453368Y-83153475D01*
X121644549Y-83281218D01*
X121649027Y-83326678D01*
X121692599Y-83470315D01*
X121763355Y-83602692D01*
X121834721Y-83689651D01*
X121858579Y-83718722D01*
X121887649Y-83742579D01*
X124338800Y-86193731D01*
X124338800Y-88703083D01*
X124138574Y-88620147D01*
X123861335Y-88565000D01*
X123578665Y-88565000D01*
X123301426Y-88620147D01*
X123040273Y-88728320D01*
X122805241Y-88885363D01*
X122605363Y-89085241D01*
X122448320Y-89320273D01*
X122340147Y-89581426D01*
X122285000Y-89858665D01*
X122285000Y-90141335D01*
X122340147Y-90418574D01*
X122448320Y-90679727D01*
X122605363Y-90914759D01*
X122805241Y-91114637D01*
X123040273Y-91271680D01*
X123301426Y-91379853D01*
X123578665Y-91435000D01*
X123861335Y-91435000D01*
X124138574Y-91379853D01*
X124338800Y-91296917D01*
X124338800Y-93703083D01*
X124138574Y-93620147D01*
X123861335Y-93565000D01*
X123578665Y-93565000D01*
X123301426Y-93620147D01*
X123040273Y-93728320D01*
X122805241Y-93885363D01*
X122605363Y-94085241D01*
X122448320Y-94320273D01*
X122340147Y-94581426D01*
X122285000Y-94858665D01*
X122285000Y-95141335D01*
X122340147Y-95418574D01*
X122448320Y-95679727D01*
X122605363Y-95914759D01*
X122805241Y-96114637D01*
X123040273Y-96271680D01*
X123301426Y-96379853D01*
X123578665Y-96435000D01*
X123861335Y-96435000D01*
X124138574Y-96379853D01*
X124338800Y-96296917D01*
X124338801Y-108545167D01*
X124335114Y-108582600D01*
X124349827Y-108731978D01*
X124393399Y-108875615D01*
X124464155Y-109007992D01*
X124527619Y-109085322D01*
X124559379Y-109124022D01*
X124588449Y-109147879D01*
X132128000Y-116687431D01*
X132128000Y-117083069D01*
X123662000Y-108617070D01*
X123662000Y-108216707D01*
X123814759Y-108114637D01*
X124014637Y-107914759D01*
X124171680Y-107679727D01*
X124279853Y-107418574D01*
X124335000Y-107141335D01*
X124335000Y-106858665D01*
X124279853Y-106581426D01*
X124171680Y-106320273D01*
X124014637Y-106085241D01*
X123814759Y-105885363D01*
X123579727Y-105728320D01*
X123318574Y-105620147D01*
X123041335Y-105565000D01*
X122758665Y-105565000D01*
X122481426Y-105620147D01*
X122220273Y-105728320D01*
X121985241Y-105885363D01*
X121785363Y-106085241D01*
X121628320Y-106320273D01*
X121520147Y-106581426D01*
X121465000Y-106858665D01*
X121465000Y-107141335D01*
X121520147Y-107418574D01*
X121628320Y-107679727D01*
X121785363Y-107914759D01*
X121985241Y-108114637D01*
X122138001Y-108216707D01*
X122138001Y-108895267D01*
X122134314Y-108932700D01*
X122149027Y-109082078D01*
X122192599Y-109225715D01*
X122263355Y-109358092D01*
X122334498Y-109444779D01*
X122358579Y-109474122D01*
X122387649Y-109497979D01*
X130630137Y-117740467D01*
X130505363Y-117865241D01*
X130350000Y-118097759D01*
X130194637Y-117865241D01*
X129994759Y-117665363D01*
X129759727Y-117508320D01*
X129498574Y-117400147D01*
X129221335Y-117345000D01*
X129052253Y-117345000D01*
X129021259Y-117287014D01*
X128989345Y-117227307D01*
X128917979Y-117140348D01*
X128894122Y-117111278D01*
X128865053Y-117087422D01*
X119099157Y-107321527D01*
X119135000Y-107141335D01*
X119135000Y-106858665D01*
X119079853Y-106581426D01*
X118971680Y-106320273D01*
X118814637Y-106085241D01*
X118614759Y-105885363D01*
X118379727Y-105728320D01*
X118118574Y-105620147D01*
X117841335Y-105565000D01*
X117558665Y-105565000D01*
X117316400Y-105613190D01*
X117316400Y-100881421D01*
X117350961Y-100891904D01*
X117573000Y-100769915D01*
X117573000Y-99627000D01*
X117827000Y-99627000D01*
X117827000Y-100769915D01*
X118049039Y-100891904D01*
X118183087Y-100851246D01*
X118437420Y-100731037D01*
X118663414Y-100563519D01*
X118852385Y-100355131D01*
X118997070Y-100113881D01*
X119091909Y-99849040D01*
X121508091Y-99849040D01*
X121602930Y-100113881D01*
X121747615Y-100355131D01*
X121936586Y-100563519D01*
X122162580Y-100731037D01*
X122416913Y-100851246D01*
X122550961Y-100891904D01*
X122773000Y-100769915D01*
X122773000Y-99627000D01*
X123027000Y-99627000D01*
X123027000Y-100769915D01*
X123249039Y-100891904D01*
X123383087Y-100851246D01*
X123637420Y-100731037D01*
X123863414Y-100563519D01*
X124052385Y-100355131D01*
X124197070Y-100113881D01*
X124291909Y-99849040D01*
X124170624Y-99627000D01*
X123027000Y-99627000D01*
X122773000Y-99627000D01*
X121629376Y-99627000D01*
X121508091Y-99849040D01*
X119091909Y-99849040D01*
X118970624Y-99627000D01*
X117827000Y-99627000D01*
X117573000Y-99627000D01*
X117553000Y-99627000D01*
X117553000Y-99373000D01*
X117573000Y-99373000D01*
X117573000Y-98230085D01*
X117827000Y-98230085D01*
X117827000Y-99373000D01*
X118970624Y-99373000D01*
X119091909Y-99150960D01*
X121508091Y-99150960D01*
X121629376Y-99373000D01*
X122773000Y-99373000D01*
X122773000Y-98230085D01*
X123027000Y-98230085D01*
X123027000Y-99373000D01*
X124170624Y-99373000D01*
X124291909Y-99150960D01*
X124197070Y-98886119D01*
X124052385Y-98644869D01*
X123863414Y-98436481D01*
X123637420Y-98268963D01*
X123383087Y-98148754D01*
X123249039Y-98108096D01*
X123027000Y-98230085D01*
X122773000Y-98230085D01*
X122550961Y-98108096D01*
X122416913Y-98148754D01*
X122162580Y-98268963D01*
X121936586Y-98436481D01*
X121747615Y-98644869D01*
X121602930Y-98886119D01*
X121508091Y-99150960D01*
X119091909Y-99150960D01*
X118997070Y-98886119D01*
X118852385Y-98644869D01*
X118663414Y-98436481D01*
X118437420Y-98268963D01*
X118183087Y-98148754D01*
X118049039Y-98108096D01*
X117827000Y-98230085D01*
X117573000Y-98230085D01*
X117350961Y-98108096D01*
X117316400Y-98118579D01*
X117316400Y-97335930D01*
X118200353Y-96451978D01*
X118229422Y-96428122D01*
X118324645Y-96312092D01*
X118395402Y-96179715D01*
X118438974Y-96036078D01*
X118450000Y-95924126D01*
X118450000Y-95924117D01*
X118453685Y-95886701D01*
X118450000Y-95849285D01*
X118450000Y-89349422D01*
X118453686Y-89311999D01*
X118447484Y-89249027D01*
X118438974Y-89162622D01*
X118395402Y-89018985D01*
X118324645Y-88886608D01*
X118229422Y-88770578D01*
X118200352Y-88746721D01*
X116751674Y-87298044D01*
X116727812Y-87268968D01*
X116611782Y-87173745D01*
X116479405Y-87102988D01*
X116335768Y-87059416D01*
X116223816Y-87048390D01*
X116223813Y-87048390D01*
X116186390Y-87044704D01*
X116148967Y-87048390D01*
X111526021Y-87048390D01*
X110462000Y-85984370D01*
X110462000Y-83276842D01*
X110646632Y-83153475D01*
X110853475Y-82946632D01*
X110970000Y-82772240D01*
X111086525Y-82946632D01*
X111293368Y-83153475D01*
X111536589Y-83315990D01*
X111806842Y-83427932D01*
X112093740Y-83485000D01*
X112386260Y-83485000D01*
X112673158Y-83427932D01*
X112943411Y-83315990D01*
X113186632Y-83153475D01*
X113393475Y-82946632D01*
X113510000Y-82772240D01*
X113626525Y-82946632D01*
X113833368Y-83153475D01*
X114076589Y-83315990D01*
X114346842Y-83427932D01*
X114633740Y-83485000D01*
X114926260Y-83485000D01*
X115213158Y-83427932D01*
X115483411Y-83315990D01*
X115726632Y-83153475D01*
X115933475Y-82946632D01*
X116050000Y-82772240D01*
X116166525Y-82946632D01*
X116373368Y-83153475D01*
X116616589Y-83315990D01*
X116886842Y-83427932D01*
X117173740Y-83485000D01*
X117466260Y-83485000D01*
X117753158Y-83427932D01*
X118023411Y-83315990D01*
X118266632Y-83153475D01*
X118473475Y-82946632D01*
X118590000Y-82772240D01*
X118706525Y-82946632D01*
X118913368Y-83153475D01*
X119156589Y-83315990D01*
X119426842Y-83427932D01*
X119713740Y-83485000D01*
X120006260Y-83485000D01*
X120293158Y-83427932D01*
X120563411Y-83315990D01*
X120806632Y-83153475D01*
X121013475Y-82946632D01*
X121130000Y-82772240D01*
X121246525Y-82946632D01*
%TD*%
M02*
