%TF.GenerationSoftware,KiCad,Pcbnew,9.0.4*%
%TF.CreationDate,2025-08-23T15:54:27+02:00*%
%TF.ProjectId,livello_serbatoio_definitiva,6c697665-6c6c-46f5-9f73-65726261746f,D*%
%TF.SameCoordinates,Original*%
%TF.FileFunction,Soldermask,Top*%
%TF.FilePolarity,Negative*%
%FSLAX46Y46*%
G04 Gerber Fmt 4.6, Leading zero omitted, Abs format (unit mm)*
G04 Created by KiCad (PCBNEW 9.0.4) date 2025-08-23 15:54:27*
%MOMM*%
%LPD*%
G01*
G04 APERTURE LIST*
%ADD10C,1.600000*%
%ADD11R,1.500000X1.000000*%
%ADD12R,1.800000X1.800000*%
%ADD13C,1.800000*%
%ADD14C,2.000000*%
%ADD15C,0.800000*%
%ADD16C,6.000000*%
%ADD17R,1.600000X1.600000*%
%ADD18O,1.600000X1.600000*%
%ADD19R,1.700000X1.700000*%
%ADD20O,1.700000X1.700000*%
%ADD21R,2.100000X2.100000*%
%ADD22C,2.100000*%
%ADD23C,1.700000*%
%ADD24C,3.500000*%
G04 APERTURE END LIST*
D10*
%TO.C,C1*%
X158950000Y-94400000D03*
X156450000Y-94400000D03*
%TD*%
D11*
%TO.C,JP3*%
X117400000Y-92020000D03*
X117400000Y-93320000D03*
%TD*%
%TO.C,JP4*%
X119930000Y-92020000D03*
X119930000Y-93320000D03*
%TD*%
%TO.C,JP1*%
X112310000Y-92020000D03*
X112310000Y-93320000D03*
%TD*%
%TO.C,JP2*%
X114860000Y-92020000D03*
X114860000Y-93320000D03*
%TD*%
D12*
%TO.C,D4*%
X148600000Y-73400000D03*
D13*
X151140000Y-73400000D03*
%TD*%
D12*
%TO.C,D2*%
X141900000Y-73400000D03*
D13*
X144440000Y-73400000D03*
%TD*%
D12*
%TO.C,D1*%
X135200000Y-73400000D03*
D13*
X137740000Y-73400000D03*
%TD*%
D14*
%TO.C,RV1*%
X99500000Y-75900000D03*
X109500000Y-78400000D03*
X99500000Y-80900000D03*
%TD*%
D15*
%TO.C,H1*%
X90750000Y-74000000D03*
X91409010Y-72409010D03*
X91409010Y-75590990D03*
X93000000Y-71750000D03*
D16*
X93000000Y-74000000D03*
D15*
X93000000Y-76250000D03*
X94590990Y-72409010D03*
X94590990Y-75590990D03*
X95250000Y-74000000D03*
%TD*%
%TO.C,H2*%
X161750000Y-74000000D03*
X162409010Y-72409010D03*
X162409010Y-75590990D03*
X164000000Y-71750000D03*
D16*
X164000000Y-74000000D03*
D15*
X164000000Y-76250000D03*
X165590990Y-72409010D03*
X165590990Y-75590990D03*
X166250000Y-74000000D03*
%TD*%
%TO.C,H3*%
X161750000Y-134000000D03*
X162409010Y-132409010D03*
X162409010Y-135590990D03*
X164000000Y-131750000D03*
D16*
X164000000Y-134000000D03*
D15*
X164000000Y-136250000D03*
X165590990Y-132409010D03*
X165590990Y-135590990D03*
X166250000Y-134000000D03*
%TD*%
%TO.C,H4*%
X90750000Y-134000000D03*
X91409010Y-132409010D03*
X91409010Y-135590990D03*
X93000000Y-131750000D03*
D16*
X93000000Y-134000000D03*
D15*
X93000000Y-136250000D03*
X94590990Y-132409010D03*
X94590990Y-135590990D03*
X95250000Y-134000000D03*
%TD*%
D17*
%TO.C,U2*%
X99440000Y-119200000D03*
D18*
X101980000Y-119200000D03*
X104520000Y-119200000D03*
X107060000Y-119200000D03*
X109600000Y-119200000D03*
X112140000Y-119200000D03*
X114680000Y-119200000D03*
X117220000Y-119200000D03*
X119760000Y-119200000D03*
X122300000Y-119200000D03*
X124840000Y-119200000D03*
X127380000Y-119200000D03*
X129920000Y-119200000D03*
X132460000Y-119200000D03*
X132460000Y-111580000D03*
X129920000Y-111580000D03*
X127380000Y-111580000D03*
X124840000Y-111580000D03*
X122300000Y-111580000D03*
X119760000Y-111580000D03*
X117220000Y-111580000D03*
X114680000Y-111580000D03*
X112140000Y-111580000D03*
X109600000Y-111580000D03*
X107060000Y-111580000D03*
X104520000Y-111580000D03*
X101980000Y-111580000D03*
X99440000Y-111580000D03*
%TD*%
D13*
%TO.C,Y1*%
X123430000Y-123450000D03*
X118550000Y-123450000D03*
%TD*%
D10*
%TO.C,C3*%
X116850000Y-108900000D03*
X114350000Y-108900000D03*
%TD*%
%TO.C,C7*%
X116060000Y-128000000D03*
X118560000Y-128000000D03*
%TD*%
%TO.C,C8*%
X125940000Y-128000000D03*
X123440000Y-128000000D03*
%TD*%
%TO.C,R6*%
X91440000Y-86110000D03*
D18*
X91440000Y-98810000D03*
%TD*%
D10*
%TO.C,C6*%
X119950000Y-108900000D03*
X122450000Y-108900000D03*
%TD*%
%TO.C,R8*%
X137670000Y-124970000D03*
D18*
X150370000Y-124970000D03*
%TD*%
D10*
%TO.C,R4*%
X139030000Y-82610000D03*
D18*
X151730000Y-82610000D03*
%TD*%
D10*
%TO.C,R3*%
X139050000Y-86470000D03*
D18*
X151750000Y-86470000D03*
%TD*%
D10*
%TO.C,R9*%
X151750000Y-78800000D03*
D18*
X139050000Y-78800000D03*
%TD*%
D19*
%TO.C,J3*%
X97000000Y-88500000D03*
D20*
X99540000Y-88500000D03*
X102080000Y-88500000D03*
X104620000Y-88500000D03*
X107160000Y-88500000D03*
X109700000Y-88500000D03*
X112240000Y-88500000D03*
X114780000Y-88500000D03*
X117320000Y-88500000D03*
X119860000Y-88500000D03*
X122400000Y-88500000D03*
X124940000Y-88500000D03*
X127480000Y-88500000D03*
X130020000Y-88500000D03*
X132560000Y-88500000D03*
X135100000Y-88500000D03*
%TD*%
D10*
%TO.C,C4*%
X96200000Y-119250000D03*
X96200000Y-116750000D03*
%TD*%
D14*
%TO.C,SW1*%
X102700000Y-126840000D03*
X96200000Y-126840000D03*
X102700000Y-122340000D03*
X96200000Y-122340000D03*
%TD*%
D10*
%TO.C,R5*%
X137660000Y-128830000D03*
D18*
X150360000Y-128830000D03*
%TD*%
D21*
%TO.C,J8*%
X141770000Y-135390000D03*
D22*
X136770000Y-135390000D03*
X131770000Y-135390000D03*
X126770000Y-135390000D03*
X121770000Y-135390000D03*
X116770000Y-135390000D03*
X111770000Y-135390000D03*
X106770000Y-135390000D03*
%TD*%
D19*
%TO.C,J5*%
X92655000Y-117115000D03*
D20*
X90115000Y-117115000D03*
X92655000Y-119655000D03*
X90115000Y-119655000D03*
X92655000Y-122195000D03*
X90115000Y-122195000D03*
%TD*%
D19*
%TO.C,J1*%
X161600000Y-123030000D03*
D23*
X161600000Y-120530000D03*
X163600000Y-120530000D03*
X163600000Y-123030000D03*
D24*
X166310000Y-115760000D03*
X166310000Y-127800000D03*
%TD*%
D10*
%TO.C,C2*%
X158350000Y-109090000D03*
X155850000Y-109090000D03*
%TD*%
%TO.C,C5*%
X166760000Y-108220000D03*
X166760000Y-110720000D03*
%TD*%
D19*
%TO.C,J7*%
X91400000Y-101860000D03*
D20*
X91400000Y-104400000D03*
X91400000Y-106940000D03*
X91400000Y-109480000D03*
X91400000Y-112020000D03*
%TD*%
D17*
%TO.C,C9*%
X151120000Y-101520000D03*
D10*
X149120000Y-101520000D03*
%TD*%
D19*
%TO.C,J6*%
X112200000Y-97065000D03*
D20*
X114740000Y-97065000D03*
X117280000Y-97065000D03*
X119820000Y-97065000D03*
%TD*%
M02*
