%TF.GenerationSoftware,KiCad,Pcbnew,5.1.8*%
%TF.CreationDate,2020-12-04T19:14:15+01:00*%
%TF.ProjectId,livello_serbatoio_definitiva,6c697665-6c6c-46f5-9f73-65726261746f,rev?*%
%TF.SameCoordinates,Original*%
%TF.FileFunction,Legend,Top*%
%TF.FilePolarity,Positive*%
%FSLAX46Y46*%
G04 Gerber Fmt 4.6, Leading zero omitted, Abs format (unit mm)*
G04 Created by KiCad (PCBNEW 5.1.8) date 2020-12-04 19:14:15*
%MOMM*%
%LPD*%
G01*
G04 APERTURE LIST*
%ADD10C,0.120000*%
%ADD11C,0.150000*%
%ADD12C,0.010000*%
%ADD13C,0.100000*%
G04 APERTURE END LIST*
D10*
X110960000Y-83630000D02*
X110960000Y-80370000D01*
X121140000Y-83630000D02*
X110960000Y-83630000D01*
X121140000Y-80380000D02*
X121140000Y-83630000D01*
X110980000Y-80370000D02*
X121140000Y-80380000D01*
X91325000Y-116000000D02*
X94850000Y-116000000D01*
X121720000Y-116000000D02*
X115260000Y-116000000D01*
X121800000Y-116000000D02*
X95350000Y-116000000D01*
D11*
X117243388Y-112055714D02*
X117243388Y-111293809D01*
X117624340Y-111674761D02*
X116862436Y-111674761D01*
X116624340Y-110341428D02*
X116624340Y-110817619D01*
X117100531Y-110865238D01*
X117052912Y-110817619D01*
X117005293Y-110722380D01*
X117005293Y-110484285D01*
X117052912Y-110389047D01*
X117100531Y-110341428D01*
X117195769Y-110293809D01*
X117433864Y-110293809D01*
X117529102Y-110341428D01*
X117576721Y-110389047D01*
X117624340Y-110484285D01*
X117624340Y-110722380D01*
X117576721Y-110817619D01*
X117529102Y-110865238D01*
X116624340Y-110008095D02*
X117624340Y-109674761D01*
X116624340Y-109341428D01*
X114171960Y-111461904D02*
X114124340Y-111557142D01*
X114124340Y-111700000D01*
X114171960Y-111842857D01*
X114267198Y-111938095D01*
X114362436Y-111985714D01*
X114552912Y-112033333D01*
X114695769Y-112033333D01*
X114886245Y-111985714D01*
X114981483Y-111938095D01*
X115076721Y-111842857D01*
X115124340Y-111700000D01*
X115124340Y-111604761D01*
X115076721Y-111461904D01*
X115029102Y-111414285D01*
X114695769Y-111414285D01*
X114695769Y-111604761D01*
X115124340Y-110985714D02*
X114124340Y-110985714D01*
X115124340Y-110414285D01*
X114124340Y-110414285D01*
X115124340Y-109938095D02*
X114124340Y-109938095D01*
X114124340Y-109700000D01*
X114171960Y-109557142D01*
X114267198Y-109461904D01*
X114362436Y-109414285D01*
X114552912Y-109366666D01*
X114695769Y-109366666D01*
X114886245Y-109414285D01*
X114981483Y-109461904D01*
X115076721Y-109557142D01*
X115124340Y-109700000D01*
X115124340Y-109938095D01*
X91952380Y-100619047D02*
X92666666Y-100619047D01*
X92809523Y-100666666D01*
X92904761Y-100761904D01*
X92952380Y-100904761D01*
X92952380Y-101000000D01*
X92952380Y-99666666D02*
X92952380Y-100142857D01*
X91952380Y-100142857D01*
X92857142Y-98761904D02*
X92904761Y-98809523D01*
X92952380Y-98952380D01*
X92952380Y-99047619D01*
X92904761Y-99190476D01*
X92809523Y-99285714D01*
X92714285Y-99333333D01*
X92523809Y-99380952D01*
X92380952Y-99380952D01*
X92190476Y-99333333D01*
X92095238Y-99285714D01*
X92000000Y-99190476D01*
X91952380Y-99047619D01*
X91952380Y-98952380D01*
X92000000Y-98809523D01*
X92047619Y-98761904D01*
X91952380Y-98047619D02*
X92666666Y-98047619D01*
X92809523Y-98095238D01*
X92904761Y-98190476D01*
X92952380Y-98333333D01*
X92952380Y-98428571D01*
X92952380Y-97095238D02*
X92952380Y-97571428D01*
X91952380Y-97571428D01*
X92857142Y-96190476D02*
X92904761Y-96238095D01*
X92952380Y-96380952D01*
X92952380Y-96476190D01*
X92904761Y-96619047D01*
X92809523Y-96714285D01*
X92714285Y-96761904D01*
X92523809Y-96809523D01*
X92380952Y-96809523D01*
X92190476Y-96761904D01*
X92095238Y-96714285D01*
X92000000Y-96619047D01*
X91952380Y-96476190D01*
X91952380Y-96380952D01*
X92000000Y-96238095D01*
X92047619Y-96190476D01*
X91952380Y-95476190D02*
X92666666Y-95476190D01*
X92809523Y-95523809D01*
X92904761Y-95619047D01*
X92952380Y-95761904D01*
X92952380Y-95857142D01*
X92952380Y-94523809D02*
X92952380Y-95000000D01*
X91952380Y-95000000D01*
X92857142Y-93619047D02*
X92904761Y-93666666D01*
X92952380Y-93809523D01*
X92952380Y-93904761D01*
X92904761Y-94047619D01*
X92809523Y-94142857D01*
X92714285Y-94190476D01*
X92523809Y-94238095D01*
X92380952Y-94238095D01*
X92190476Y-94190476D01*
X92095238Y-94142857D01*
X92000000Y-94047619D01*
X91952380Y-93904761D01*
X91952380Y-93809523D01*
X92000000Y-93666666D01*
X92047619Y-93619047D01*
X91952380Y-92904761D02*
X92666666Y-92904761D01*
X92809523Y-92952380D01*
X92904761Y-93047619D01*
X92952380Y-93190476D01*
X92952380Y-93285714D01*
X92952380Y-91952380D02*
X92952380Y-92428571D01*
X91952380Y-92428571D01*
X92857142Y-91047619D02*
X92904761Y-91095238D01*
X92952380Y-91238095D01*
X92952380Y-91333333D01*
X92904761Y-91476190D01*
X92809523Y-91571428D01*
X92714285Y-91619047D01*
X92523809Y-91666666D01*
X92380952Y-91666666D01*
X92190476Y-91619047D01*
X92095238Y-91571428D01*
X92000000Y-91476190D01*
X91952380Y-91333333D01*
X91952380Y-91238095D01*
X92000000Y-91095238D01*
X92047619Y-91047619D01*
D10*
X99450000Y-128840000D02*
X99090000Y-128840000D01*
X100244144Y-128130000D02*
X100244144Y-129560000D01*
X100244144Y-128840000D02*
X100244144Y-128130000D01*
X100244144Y-128840000D02*
X100640000Y-128840000D01*
X99470000Y-129614144D02*
X100244144Y-128840000D01*
X99470000Y-128065856D02*
X100244144Y-128840000D01*
X99470000Y-129614144D02*
X99470000Y-128065856D01*
X127400000Y-116000000D02*
X127200000Y-116000000D01*
X157200000Y-116000000D02*
X132700000Y-116000000D01*
D11*
X96139047Y-130881428D02*
X96900952Y-130881428D01*
X96520000Y-131262380D02*
X96520000Y-130500476D01*
X119185714Y-79466666D02*
X119661904Y-79466666D01*
X119090476Y-79752380D02*
X119423809Y-78752380D01*
X119757142Y-79752380D01*
X120280952Y-78752380D02*
X120376190Y-78752380D01*
X120471428Y-78800000D01*
X120519047Y-78847619D01*
X120566666Y-78942857D01*
X120614285Y-79133333D01*
X120614285Y-79371428D01*
X120566666Y-79561904D01*
X120519047Y-79657142D01*
X120471428Y-79704761D01*
X120376190Y-79752380D01*
X120280952Y-79752380D01*
X120185714Y-79704761D01*
X120138095Y-79657142D01*
X120090476Y-79561904D01*
X120042857Y-79371428D01*
X120042857Y-79133333D01*
X120090476Y-78942857D01*
X120138095Y-78847619D01*
X120185714Y-78800000D01*
X120280952Y-78752380D01*
X116585714Y-79466666D02*
X117061904Y-79466666D01*
X116490476Y-79752380D02*
X116823809Y-78752380D01*
X117157142Y-79752380D01*
X118014285Y-79752380D02*
X117442857Y-79752380D01*
X117728571Y-79752380D02*
X117728571Y-78752380D01*
X117633333Y-78895238D01*
X117538095Y-78990476D01*
X117442857Y-79038095D01*
X114085714Y-79466666D02*
X114561904Y-79466666D01*
X113990476Y-79752380D02*
X114323809Y-78752380D01*
X114657142Y-79752380D01*
X114942857Y-78847619D02*
X114990476Y-78800000D01*
X115085714Y-78752380D01*
X115323809Y-78752380D01*
X115419047Y-78800000D01*
X115466666Y-78847619D01*
X115514285Y-78942857D01*
X115514285Y-79038095D01*
X115466666Y-79180952D01*
X114895238Y-79752380D01*
X115514285Y-79752380D01*
X111585714Y-79466666D02*
X112061904Y-79466666D01*
X111490476Y-79752380D02*
X111823809Y-78752380D01*
X112157142Y-79752380D01*
X112395238Y-78752380D02*
X113014285Y-78752380D01*
X112680952Y-79133333D01*
X112823809Y-79133333D01*
X112919047Y-79180952D01*
X112966666Y-79228571D01*
X113014285Y-79323809D01*
X113014285Y-79561904D01*
X112966666Y-79657142D01*
X112919047Y-79704761D01*
X112823809Y-79752380D01*
X112538095Y-79752380D01*
X112442857Y-79704761D01*
X112395238Y-79657142D01*
X112764340Y-112004285D02*
X111764340Y-112004285D01*
X111764340Y-111766190D01*
X111811960Y-111623333D01*
X111907198Y-111528095D01*
X112002436Y-111480476D01*
X112192912Y-111432857D01*
X112335769Y-111432857D01*
X112526245Y-111480476D01*
X112621483Y-111528095D01*
X112716721Y-111623333D01*
X112764340Y-111766190D01*
X112764340Y-112004285D01*
X112764340Y-110480476D02*
X112764340Y-111051904D01*
X112764340Y-110766190D02*
X111764340Y-110766190D01*
X111907198Y-110861428D01*
X112002436Y-110956666D01*
X112050055Y-111051904D01*
X111764340Y-109861428D02*
X111764340Y-109766190D01*
X111811960Y-109670952D01*
X111859579Y-109623333D01*
X111954817Y-109575714D01*
X112145293Y-109528095D01*
X112383388Y-109528095D01*
X112573864Y-109575714D01*
X112669102Y-109623333D01*
X112716721Y-109670952D01*
X112764340Y-109766190D01*
X112764340Y-109861428D01*
X112716721Y-109956666D01*
X112669102Y-110004285D01*
X112573864Y-110051904D01*
X112383388Y-110099523D01*
X112145293Y-110099523D01*
X111954817Y-110051904D01*
X111859579Y-110004285D01*
X111811960Y-109956666D01*
X111764340Y-109861428D01*
X110008626Y-111904285D02*
X110008626Y-111428095D01*
X110294340Y-111999523D02*
X109294340Y-111666190D01*
X110294340Y-111332857D01*
X109627674Y-110570952D02*
X110294340Y-110570952D01*
X109246721Y-110809047D02*
X109961007Y-111047142D01*
X109961007Y-110428095D01*
X107368626Y-111894285D02*
X107368626Y-111418095D01*
X107654340Y-111989523D02*
X106654340Y-111656190D01*
X107654340Y-111322857D01*
X106654340Y-110513333D02*
X106654340Y-110989523D01*
X107130531Y-111037142D01*
X107082912Y-110989523D01*
X107035293Y-110894285D01*
X107035293Y-110656190D01*
X107082912Y-110560952D01*
X107130531Y-110513333D01*
X107225769Y-110465714D01*
X107463864Y-110465714D01*
X107559102Y-110513333D01*
X107606721Y-110560952D01*
X107654340Y-110656190D01*
X107654340Y-110894285D01*
X107606721Y-110989523D01*
X107559102Y-111037142D01*
X125923824Y-76127380D02*
X126048824Y-75127380D01*
X126001205Y-75508333D02*
X126102395Y-75460714D01*
X126292872Y-75460714D01*
X126382157Y-75508333D01*
X126423824Y-75555952D01*
X126459538Y-75651190D01*
X126423824Y-75936904D01*
X126364300Y-76032142D01*
X126310729Y-76079761D01*
X126209538Y-76127380D01*
X126019062Y-76127380D01*
X125929776Y-76079761D01*
X126816681Y-75460714D02*
X126971443Y-76127380D01*
X127292872Y-75460714D02*
X126971443Y-76127380D01*
X126846443Y-76365476D01*
X126792872Y-76413095D01*
X126691681Y-76460714D01*
X128995252Y-75175000D02*
X128905967Y-75127380D01*
X128763110Y-75127380D01*
X128614300Y-75175000D01*
X128507157Y-75270238D01*
X128447633Y-75365476D01*
X128376205Y-75555952D01*
X128358348Y-75698809D01*
X128382157Y-75889285D01*
X128417872Y-75984523D01*
X128501205Y-76079761D01*
X128638110Y-76127380D01*
X128733348Y-76127380D01*
X128882157Y-76079761D01*
X128935729Y-76032142D01*
X128977395Y-75698809D01*
X128786919Y-75698809D01*
X129923824Y-76127380D02*
X129650014Y-75651190D01*
X129352395Y-76127380D02*
X129477395Y-75127380D01*
X129858348Y-75127380D01*
X129947633Y-75175000D01*
X129989300Y-75222619D01*
X130025014Y-75317857D01*
X130007157Y-75460714D01*
X129947633Y-75555952D01*
X129894062Y-75603571D01*
X129792872Y-75651190D01*
X129411919Y-75651190D01*
X126298824Y-76872619D02*
X126352395Y-76825000D01*
X126453586Y-76777380D01*
X126691681Y-76777380D01*
X126780967Y-76825000D01*
X126822633Y-76872619D01*
X126858348Y-76967857D01*
X126846443Y-77063095D01*
X126780967Y-77205952D01*
X126138110Y-77777380D01*
X126757157Y-77777380D01*
X127501205Y-76777380D02*
X127596443Y-76777380D01*
X127685729Y-76825000D01*
X127727395Y-76872619D01*
X127763110Y-76967857D01*
X127786919Y-77158333D01*
X127757157Y-77396428D01*
X127685729Y-77586904D01*
X127626205Y-77682142D01*
X127572633Y-77729761D01*
X127471443Y-77777380D01*
X127376205Y-77777380D01*
X127286919Y-77729761D01*
X127245252Y-77682142D01*
X127209538Y-77586904D01*
X127185729Y-77396428D01*
X127215491Y-77158333D01*
X127286919Y-76967857D01*
X127346443Y-76872619D01*
X127400014Y-76825000D01*
X127501205Y-76777380D01*
X128203586Y-76872619D02*
X128257157Y-76825000D01*
X128358348Y-76777380D01*
X128596443Y-76777380D01*
X128685729Y-76825000D01*
X128727395Y-76872619D01*
X128763110Y-76967857D01*
X128751205Y-77063095D01*
X128685729Y-77205952D01*
X128042872Y-77777380D01*
X128661919Y-77777380D01*
X129614300Y-77777380D02*
X129042872Y-77777380D01*
X129328586Y-77777380D02*
X129453586Y-76777380D01*
X129340491Y-76920238D01*
X129233348Y-77015476D01*
X129132157Y-77063095D01*
D10*
X169000000Y-116000000D02*
X166624000Y-116000000D01*
X160750000Y-116000000D02*
X164084000Y-116000000D01*
X138450000Y-80000000D02*
X169000000Y-80000000D01*
X157200000Y-116000000D02*
X160750000Y-116000000D01*
X95350000Y-116000000D02*
X94850000Y-116000000D01*
X90900000Y-116000000D02*
X91325000Y-116000000D01*
X146900000Y-80000000D02*
X145500000Y-80000000D01*
X94000000Y-80000000D02*
X138450000Y-80000000D01*
X151500000Y-80000000D02*
X149650000Y-80000000D01*
X89000000Y-116000000D02*
X90900000Y-116000000D01*
D11*
X152229047Y-70631428D02*
X152990952Y-70631428D01*
X152610000Y-71012380D02*
X152610000Y-70250476D01*
X138829047Y-70631428D02*
X139590952Y-70631428D01*
X139210000Y-71012380D02*
X139210000Y-70250476D01*
X145529047Y-70641428D02*
X146290952Y-70641428D01*
X145910000Y-71022380D02*
X145910000Y-70260476D01*
X115335595Y-72127380D02*
X115335595Y-71127380D01*
X115668928Y-71841666D01*
X116002261Y-71127380D01*
X116002261Y-72127380D01*
X116621309Y-72127380D02*
X116526071Y-72079761D01*
X116478452Y-72032142D01*
X116430833Y-71936904D01*
X116430833Y-71651190D01*
X116478452Y-71555952D01*
X116526071Y-71508333D01*
X116621309Y-71460714D01*
X116764166Y-71460714D01*
X116859404Y-71508333D01*
X116907023Y-71555952D01*
X116954642Y-71651190D01*
X116954642Y-71936904D01*
X116907023Y-72032142D01*
X116859404Y-72079761D01*
X116764166Y-72127380D01*
X116621309Y-72127380D01*
X117383214Y-71460714D02*
X117383214Y-72127380D01*
X117383214Y-71555952D02*
X117430833Y-71508333D01*
X117526071Y-71460714D01*
X117668928Y-71460714D01*
X117764166Y-71508333D01*
X117811785Y-71603571D01*
X117811785Y-72127380D01*
X118287976Y-72127380D02*
X118287976Y-71460714D01*
X118287976Y-71127380D02*
X118240357Y-71175000D01*
X118287976Y-71222619D01*
X118335595Y-71175000D01*
X118287976Y-71127380D01*
X118287976Y-71222619D01*
X118621309Y-71460714D02*
X119002261Y-71460714D01*
X118764166Y-71127380D02*
X118764166Y-71984523D01*
X118811785Y-72079761D01*
X118907023Y-72127380D01*
X119002261Y-72127380D01*
X119478452Y-72127380D02*
X119383214Y-72079761D01*
X119335595Y-72032142D01*
X119287976Y-71936904D01*
X119287976Y-71651190D01*
X119335595Y-71555952D01*
X119383214Y-71508333D01*
X119478452Y-71460714D01*
X119621309Y-71460714D01*
X119716547Y-71508333D01*
X119764166Y-71555952D01*
X119811785Y-71651190D01*
X119811785Y-71936904D01*
X119764166Y-72032142D01*
X119716547Y-72079761D01*
X119621309Y-72127380D01*
X119478452Y-72127380D01*
X120240357Y-72127380D02*
X120240357Y-71460714D01*
X120240357Y-71651190D02*
X120287976Y-71555952D01*
X120335595Y-71508333D01*
X120430833Y-71460714D01*
X120526071Y-71460714D01*
X121573690Y-72079761D02*
X121668928Y-72127380D01*
X121859404Y-72127380D01*
X121954642Y-72079761D01*
X122002261Y-71984523D01*
X122002261Y-71936904D01*
X121954642Y-71841666D01*
X121859404Y-71794047D01*
X121716547Y-71794047D01*
X121621309Y-71746428D01*
X121573690Y-71651190D01*
X121573690Y-71603571D01*
X121621309Y-71508333D01*
X121716547Y-71460714D01*
X121859404Y-71460714D01*
X121954642Y-71508333D01*
X122811785Y-72079761D02*
X122716547Y-72127380D01*
X122526071Y-72127380D01*
X122430833Y-72079761D01*
X122383214Y-71984523D01*
X122383214Y-71603571D01*
X122430833Y-71508333D01*
X122526071Y-71460714D01*
X122716547Y-71460714D01*
X122811785Y-71508333D01*
X122859404Y-71603571D01*
X122859404Y-71698809D01*
X122383214Y-71794047D01*
X123287976Y-72127380D02*
X123287976Y-71460714D01*
X123287976Y-71651190D02*
X123335595Y-71555952D01*
X123383214Y-71508333D01*
X123478452Y-71460714D01*
X123573690Y-71460714D01*
X123907023Y-72127380D02*
X123907023Y-71127380D01*
X123907023Y-71508333D02*
X124002261Y-71460714D01*
X124192738Y-71460714D01*
X124287976Y-71508333D01*
X124335595Y-71555952D01*
X124383214Y-71651190D01*
X124383214Y-71936904D01*
X124335595Y-72032142D01*
X124287976Y-72079761D01*
X124192738Y-72127380D01*
X124002261Y-72127380D01*
X123907023Y-72079761D01*
X125240357Y-72127380D02*
X125240357Y-71603571D01*
X125192738Y-71508333D01*
X125097500Y-71460714D01*
X124907023Y-71460714D01*
X124811785Y-71508333D01*
X125240357Y-72079761D02*
X125145119Y-72127380D01*
X124907023Y-72127380D01*
X124811785Y-72079761D01*
X124764166Y-71984523D01*
X124764166Y-71889285D01*
X124811785Y-71794047D01*
X124907023Y-71746428D01*
X125145119Y-71746428D01*
X125240357Y-71698809D01*
X125573690Y-71460714D02*
X125954642Y-71460714D01*
X125716547Y-71127380D02*
X125716547Y-71984523D01*
X125764166Y-72079761D01*
X125859404Y-72127380D01*
X125954642Y-72127380D01*
X126430833Y-72127380D02*
X126335595Y-72079761D01*
X126287976Y-72032142D01*
X126240357Y-71936904D01*
X126240357Y-71651190D01*
X126287976Y-71555952D01*
X126335595Y-71508333D01*
X126430833Y-71460714D01*
X126573690Y-71460714D01*
X126668928Y-71508333D01*
X126716547Y-71555952D01*
X126764166Y-71651190D01*
X126764166Y-71936904D01*
X126716547Y-72032142D01*
X126668928Y-72079761D01*
X126573690Y-72127380D01*
X126430833Y-72127380D01*
X127192738Y-72127380D02*
X127192738Y-71460714D01*
X127192738Y-71127380D02*
X127145119Y-71175000D01*
X127192738Y-71222619D01*
X127240357Y-71175000D01*
X127192738Y-71127380D01*
X127192738Y-71222619D01*
X127811785Y-72127380D02*
X127716547Y-72079761D01*
X127668928Y-72032142D01*
X127621309Y-71936904D01*
X127621309Y-71651190D01*
X127668928Y-71555952D01*
X127716547Y-71508333D01*
X127811785Y-71460714D01*
X127954642Y-71460714D01*
X128049880Y-71508333D01*
X128097500Y-71555952D01*
X128145119Y-71651190D01*
X128145119Y-71936904D01*
X128097500Y-72032142D01*
X128049880Y-72079761D01*
X127954642Y-72127380D01*
X127811785Y-72127380D01*
X115240357Y-73110714D02*
X115478452Y-73777380D01*
X115716547Y-73110714D01*
X116621309Y-73777380D02*
X116049880Y-73777380D01*
X116335595Y-73777380D02*
X116335595Y-72777380D01*
X116240357Y-72920238D01*
X116145119Y-73015476D01*
X116049880Y-73063095D01*
X117049880Y-73682142D02*
X117097500Y-73729761D01*
X117049880Y-73777380D01*
X117002261Y-73729761D01*
X117049880Y-73682142D01*
X117049880Y-73777380D01*
X117716547Y-72777380D02*
X117811785Y-72777380D01*
X117907023Y-72825000D01*
X117954642Y-72872619D01*
X118002261Y-72967857D01*
X118049880Y-73158333D01*
X118049880Y-73396428D01*
X118002261Y-73586904D01*
X117954642Y-73682142D01*
X117907023Y-73729761D01*
X117811785Y-73777380D01*
X117716547Y-73777380D01*
X117621309Y-73729761D01*
X117573690Y-73682142D01*
X117526071Y-73586904D01*
X117478452Y-73396428D01*
X117478452Y-73158333D01*
X117526071Y-72967857D01*
X117573690Y-72872619D01*
X117621309Y-72825000D01*
X117716547Y-72777380D01*
X119526071Y-74158333D02*
X119478452Y-74110714D01*
X119383214Y-73967857D01*
X119335595Y-73872619D01*
X119287976Y-73729761D01*
X119240357Y-73491666D01*
X119240357Y-73301190D01*
X119287976Y-73063095D01*
X119335595Y-72920238D01*
X119383214Y-72825000D01*
X119478452Y-72682142D01*
X119526071Y-72634523D01*
X120287976Y-73729761D02*
X120192738Y-73777380D01*
X120002261Y-73777380D01*
X119907023Y-73729761D01*
X119859404Y-73634523D01*
X119859404Y-73253571D01*
X119907023Y-73158333D01*
X120002261Y-73110714D01*
X120192738Y-73110714D01*
X120287976Y-73158333D01*
X120335595Y-73253571D01*
X120335595Y-73348809D01*
X119859404Y-73444047D01*
X120716547Y-73729761D02*
X120811785Y-73777380D01*
X121002261Y-73777380D01*
X121097500Y-73729761D01*
X121145119Y-73634523D01*
X121145119Y-73586904D01*
X121097500Y-73491666D01*
X121002261Y-73444047D01*
X120859404Y-73444047D01*
X120764166Y-73396428D01*
X120716547Y-73301190D01*
X120716547Y-73253571D01*
X120764166Y-73158333D01*
X120859404Y-73110714D01*
X121002261Y-73110714D01*
X121097500Y-73158333D01*
X121573690Y-73110714D02*
X121573690Y-74110714D01*
X121573690Y-73158333D02*
X121668928Y-73110714D01*
X121859404Y-73110714D01*
X121954642Y-73158333D01*
X122002261Y-73205952D01*
X122049880Y-73301190D01*
X122049880Y-73586904D01*
X122002261Y-73682142D01*
X121954642Y-73729761D01*
X121859404Y-73777380D01*
X121668928Y-73777380D01*
X121573690Y-73729761D01*
X122907023Y-73777380D02*
X122907023Y-73253571D01*
X122859404Y-73158333D01*
X122764166Y-73110714D01*
X122573690Y-73110714D01*
X122478452Y-73158333D01*
X122907023Y-73729761D02*
X122811785Y-73777380D01*
X122573690Y-73777380D01*
X122478452Y-73729761D01*
X122430833Y-73634523D01*
X122430833Y-73539285D01*
X122478452Y-73444047D01*
X122573690Y-73396428D01*
X122811785Y-73396428D01*
X122907023Y-73348809D01*
X123383214Y-73110714D02*
X123383214Y-73777380D01*
X123383214Y-73205952D02*
X123430833Y-73158333D01*
X123526071Y-73110714D01*
X123668928Y-73110714D01*
X123764166Y-73158333D01*
X123811785Y-73253571D01*
X123811785Y-73777380D01*
X124716547Y-73777380D02*
X124716547Y-72777380D01*
X124716547Y-73729761D02*
X124621309Y-73777380D01*
X124430833Y-73777380D01*
X124335595Y-73729761D01*
X124287976Y-73682142D01*
X124240357Y-73586904D01*
X124240357Y-73301190D01*
X124287976Y-73205952D01*
X124335595Y-73158333D01*
X124430833Y-73110714D01*
X124621309Y-73110714D01*
X124716547Y-73158333D01*
X125192738Y-73777380D02*
X125192738Y-73110714D01*
X125192738Y-72777380D02*
X125145119Y-72825000D01*
X125192738Y-72872619D01*
X125240357Y-72825000D01*
X125192738Y-72777380D01*
X125192738Y-72872619D01*
X125668928Y-73777380D02*
X125668928Y-72777380D01*
X125668928Y-73158333D02*
X125764166Y-73110714D01*
X125954642Y-73110714D01*
X126049880Y-73158333D01*
X126097500Y-73205952D01*
X126145119Y-73301190D01*
X126145119Y-73586904D01*
X126097500Y-73682142D01*
X126049880Y-73729761D01*
X125954642Y-73777380D01*
X125764166Y-73777380D01*
X125668928Y-73729761D01*
X126573690Y-73777380D02*
X126573690Y-73110714D01*
X126573690Y-72777380D02*
X126526071Y-72825000D01*
X126573690Y-72872619D01*
X126621309Y-72825000D01*
X126573690Y-72777380D01*
X126573690Y-72872619D01*
X127192738Y-73777380D02*
X127097500Y-73729761D01*
X127049880Y-73634523D01*
X127049880Y-72777380D01*
X127954642Y-73729761D02*
X127859404Y-73777380D01*
X127668928Y-73777380D01*
X127573690Y-73729761D01*
X127526071Y-73634523D01*
X127526071Y-73253571D01*
X127573690Y-73158333D01*
X127668928Y-73110714D01*
X127859404Y-73110714D01*
X127954642Y-73158333D01*
X128002261Y-73253571D01*
X128002261Y-73348809D01*
X127526071Y-73444047D01*
X128335595Y-74158333D02*
X128383214Y-74110714D01*
X128478452Y-73967857D01*
X128526071Y-73872619D01*
X128573690Y-73729761D01*
X128621309Y-73491666D01*
X128621309Y-73301190D01*
X128573690Y-73063095D01*
X128526071Y-72920238D01*
X128478452Y-72825000D01*
X128383214Y-72682142D01*
X128335595Y-72634523D01*
X101995238Y-69207142D02*
X101947619Y-69254761D01*
X101804761Y-69302380D01*
X101709523Y-69302380D01*
X101566666Y-69254761D01*
X101471428Y-69159523D01*
X101423809Y-69064285D01*
X101376190Y-68873809D01*
X101376190Y-68730952D01*
X101423809Y-68540476D01*
X101471428Y-68445238D01*
X101566666Y-68350000D01*
X101709523Y-68302380D01*
X101804761Y-68302380D01*
X101947619Y-68350000D01*
X101995238Y-68397619D01*
X102614285Y-68302380D02*
X102804761Y-68302380D01*
X102900000Y-68350000D01*
X102995238Y-68445238D01*
X103042857Y-68635714D01*
X103042857Y-68969047D01*
X102995238Y-69159523D01*
X102900000Y-69254761D01*
X102804761Y-69302380D01*
X102614285Y-69302380D01*
X102519047Y-69254761D01*
X102423809Y-69159523D01*
X102376190Y-68969047D01*
X102376190Y-68635714D01*
X102423809Y-68445238D01*
X102519047Y-68350000D01*
X102614285Y-68302380D01*
X103471428Y-69302380D02*
X103471428Y-68302380D01*
X104042857Y-69302380D01*
X104042857Y-68302380D01*
X104376190Y-68302380D02*
X104947619Y-68302380D01*
X104661904Y-69302380D02*
X104661904Y-68302380D01*
X105852380Y-69302380D02*
X105519047Y-68826190D01*
X105280952Y-69302380D02*
X105280952Y-68302380D01*
X105661904Y-68302380D01*
X105757142Y-68350000D01*
X105804761Y-68397619D01*
X105852380Y-68492857D01*
X105852380Y-68635714D01*
X105804761Y-68730952D01*
X105757142Y-68778571D01*
X105661904Y-68826190D01*
X105280952Y-68826190D01*
X106233333Y-69016666D02*
X106709523Y-69016666D01*
X106138095Y-69302380D02*
X106471428Y-68302380D01*
X106804761Y-69302380D01*
X107090476Y-69254761D02*
X107233333Y-69302380D01*
X107471428Y-69302380D01*
X107566666Y-69254761D01*
X107614285Y-69207142D01*
X107661904Y-69111904D01*
X107661904Y-69016666D01*
X107614285Y-68921428D01*
X107566666Y-68873809D01*
X107471428Y-68826190D01*
X107280952Y-68778571D01*
X107185714Y-68730952D01*
X107138095Y-68683333D01*
X107090476Y-68588095D01*
X107090476Y-68492857D01*
X107138095Y-68397619D01*
X107185714Y-68350000D01*
X107280952Y-68302380D01*
X107519047Y-68302380D01*
X107661904Y-68350000D01*
X107947619Y-68302380D02*
X108519047Y-68302380D01*
X108233333Y-69302380D02*
X108233333Y-68302380D01*
X108385714Y-128652380D02*
X107814285Y-128652380D01*
X108100000Y-128652380D02*
X108100000Y-127652380D01*
X108004761Y-127795238D01*
X107909523Y-127890476D01*
X107814285Y-127938095D01*
D10*
X169000000Y-80000000D02*
X169000000Y-96500000D01*
X151500000Y-80000000D02*
X169000000Y-80000000D01*
D11*
X129184523Y-139127380D02*
X128613095Y-139127380D01*
X128898809Y-139127380D02*
X128898809Y-138127380D01*
X128803571Y-138270238D01*
X128708333Y-138365476D01*
X128613095Y-138413095D01*
X130041666Y-138127380D02*
X129851190Y-138127380D01*
X129755952Y-138175000D01*
X129708333Y-138222619D01*
X129613095Y-138365476D01*
X129565476Y-138555952D01*
X129565476Y-138936904D01*
X129613095Y-139032142D01*
X129660714Y-139079761D01*
X129755952Y-139127380D01*
X129946428Y-139127380D01*
X130041666Y-139079761D01*
X130089285Y-139032142D01*
X130136904Y-138936904D01*
X130136904Y-138698809D01*
X130089285Y-138603571D01*
X130041666Y-138555952D01*
X129946428Y-138508333D01*
X129755952Y-138508333D01*
X129660714Y-138555952D01*
X129613095Y-138603571D01*
X129565476Y-138698809D01*
X130565476Y-139127380D02*
X130565476Y-138127380D01*
X130898809Y-138841666D01*
X131232142Y-138127380D01*
X131232142Y-139127380D01*
X131708333Y-139127380D02*
X131708333Y-138127380D01*
X131708333Y-138603571D02*
X132279761Y-138603571D01*
X132279761Y-139127380D02*
X132279761Y-138127380D01*
X132660714Y-138460714D02*
X133184523Y-138460714D01*
X132660714Y-139127380D01*
X133184523Y-139127380D01*
X98522619Y-118877380D02*
X98189285Y-118401190D01*
X97951190Y-118877380D02*
X97951190Y-117877380D01*
X98332142Y-117877380D01*
X98427380Y-117925000D01*
X98475000Y-117972619D01*
X98522619Y-118067857D01*
X98522619Y-118210714D01*
X98475000Y-118305952D01*
X98427380Y-118353571D01*
X98332142Y-118401190D01*
X97951190Y-118401190D01*
X98951190Y-118353571D02*
X99284523Y-118353571D01*
X99427380Y-118877380D02*
X98951190Y-118877380D01*
X98951190Y-117877380D01*
X99427380Y-117877380D01*
X99808333Y-118829761D02*
X99951190Y-118877380D01*
X100189285Y-118877380D01*
X100284523Y-118829761D01*
X100332142Y-118782142D01*
X100379761Y-118686904D01*
X100379761Y-118591666D01*
X100332142Y-118496428D01*
X100284523Y-118448809D01*
X100189285Y-118401190D01*
X99998809Y-118353571D01*
X99903571Y-118305952D01*
X99855952Y-118258333D01*
X99808333Y-118163095D01*
X99808333Y-118067857D01*
X99855952Y-117972619D01*
X99903571Y-117925000D01*
X99998809Y-117877380D01*
X100236904Y-117877380D01*
X100379761Y-117925000D01*
X100808333Y-118353571D02*
X101141666Y-118353571D01*
X101284523Y-118877380D02*
X100808333Y-118877380D01*
X100808333Y-117877380D01*
X101284523Y-117877380D01*
X101570238Y-117877380D02*
X102141666Y-117877380D01*
X101855952Y-118877380D02*
X101855952Y-117877380D01*
X149280952Y-68952380D02*
X149471428Y-68952380D01*
X149566666Y-69000000D01*
X149661904Y-69095238D01*
X149709523Y-69285714D01*
X149709523Y-69619047D01*
X149661904Y-69809523D01*
X149566666Y-69904761D01*
X149471428Y-69952380D01*
X149280952Y-69952380D01*
X149185714Y-69904761D01*
X149090476Y-69809523D01*
X149042857Y-69619047D01*
X149042857Y-69285714D01*
X149090476Y-69095238D01*
X149185714Y-69000000D01*
X149280952Y-68952380D01*
X150138095Y-69952380D02*
X150138095Y-68952380D01*
X150709523Y-69952380D01*
X150709523Y-68952380D01*
X142933333Y-69952380D02*
X142600000Y-69476190D01*
X142361904Y-69952380D02*
X142361904Y-68952380D01*
X142742857Y-68952380D01*
X142838095Y-69000000D01*
X142885714Y-69047619D01*
X142933333Y-69142857D01*
X142933333Y-69285714D01*
X142885714Y-69380952D01*
X142838095Y-69428571D01*
X142742857Y-69476190D01*
X142361904Y-69476190D01*
X143266666Y-68952380D02*
X143933333Y-69952380D01*
X143933333Y-68952380D02*
X143266666Y-69952380D01*
X135738095Y-68952380D02*
X136309523Y-68952380D01*
X136023809Y-69952380D02*
X136023809Y-68952380D01*
X136547619Y-68952380D02*
X137214285Y-69952380D01*
X137214285Y-68952380D02*
X136547619Y-69952380D01*
D10*
X169000000Y-80000000D02*
X169000000Y-116000000D01*
X163000000Y-80000000D02*
X169000000Y-80000000D01*
X89000000Y-80000000D02*
X89000000Y-116000000D01*
X94000000Y-80000000D02*
X89000000Y-80000000D01*
D11*
X89509523Y-79552380D02*
X89033333Y-79552380D01*
X89033333Y-78552380D01*
X90414285Y-79457142D02*
X90366666Y-79504761D01*
X90223809Y-79552380D01*
X90128571Y-79552380D01*
X89985714Y-79504761D01*
X89890476Y-79409523D01*
X89842857Y-79314285D01*
X89795238Y-79123809D01*
X89795238Y-78980952D01*
X89842857Y-78790476D01*
X89890476Y-78695238D01*
X89985714Y-78600000D01*
X90128571Y-78552380D01*
X90223809Y-78552380D01*
X90366666Y-78600000D01*
X90414285Y-78647619D01*
X90842857Y-79552380D02*
X90842857Y-78552380D01*
X91080952Y-78552380D01*
X91223809Y-78600000D01*
X91319047Y-78695238D01*
X91366666Y-78790476D01*
X91414285Y-78980952D01*
X91414285Y-79123809D01*
X91366666Y-79314285D01*
X91319047Y-79409523D01*
X91223809Y-79504761D01*
X91080952Y-79552380D01*
X90842857Y-79552380D01*
X97285714Y-85352380D02*
X96714285Y-85352380D01*
X97000000Y-85352380D02*
X97000000Y-84352380D01*
X96904761Y-84495238D01*
X96809523Y-84590476D01*
X96714285Y-84638095D01*
D12*
%TO.C,REF\u002A\u002A*%
G36*
X147073910Y-124372348D02*
G01*
X147152454Y-124372778D01*
X147209298Y-124373942D01*
X147248105Y-124376207D01*
X147272538Y-124379940D01*
X147286262Y-124385506D01*
X147292940Y-124393273D01*
X147296236Y-124403605D01*
X147296556Y-124404943D01*
X147301562Y-124429079D01*
X147310829Y-124476701D01*
X147323392Y-124542741D01*
X147338287Y-124622128D01*
X147354551Y-124709796D01*
X147355119Y-124712875D01*
X147371410Y-124798789D01*
X147386652Y-124874696D01*
X147399861Y-124936045D01*
X147410054Y-124978282D01*
X147416248Y-124996855D01*
X147416543Y-124997184D01*
X147434788Y-125006253D01*
X147472405Y-125021367D01*
X147521271Y-125039262D01*
X147521543Y-125039358D01*
X147583093Y-125062493D01*
X147655657Y-125091965D01*
X147724057Y-125121597D01*
X147727294Y-125123062D01*
X147838702Y-125173626D01*
X148085399Y-125005160D01*
X148161077Y-124953803D01*
X148229631Y-124907889D01*
X148287088Y-124870030D01*
X148329476Y-124842837D01*
X148352825Y-124828921D01*
X148355042Y-124827889D01*
X148372010Y-124832484D01*
X148403701Y-124854655D01*
X148451352Y-124895447D01*
X148516198Y-124955905D01*
X148582397Y-125020227D01*
X148646214Y-125083612D01*
X148703329Y-125141451D01*
X148750305Y-125190175D01*
X148783703Y-125226210D01*
X148800085Y-125245984D01*
X148800694Y-125247002D01*
X148802505Y-125260572D01*
X148795683Y-125282733D01*
X148778540Y-125316478D01*
X148749393Y-125364800D01*
X148706555Y-125430692D01*
X148649448Y-125515517D01*
X148598766Y-125590177D01*
X148553461Y-125657140D01*
X148516150Y-125712516D01*
X148489452Y-125752420D01*
X148475985Y-125772962D01*
X148475137Y-125774356D01*
X148476781Y-125794038D01*
X148489245Y-125832293D01*
X148510048Y-125881889D01*
X148517462Y-125897728D01*
X148549814Y-125968290D01*
X148584328Y-126048353D01*
X148612365Y-126117629D01*
X148632568Y-126169045D01*
X148648615Y-126208119D01*
X148657888Y-126228541D01*
X148659041Y-126230114D01*
X148676096Y-126232721D01*
X148716298Y-126239863D01*
X148774302Y-126250523D01*
X148844763Y-126263685D01*
X148922335Y-126278333D01*
X149001672Y-126293449D01*
X149077431Y-126308018D01*
X149144264Y-126321022D01*
X149196828Y-126331445D01*
X149229776Y-126338270D01*
X149237857Y-126340199D01*
X149246205Y-126344962D01*
X149252506Y-126355718D01*
X149257045Y-126376098D01*
X149260104Y-126409734D01*
X149261967Y-126460255D01*
X149262918Y-126531292D01*
X149263240Y-126626476D01*
X149263257Y-126665492D01*
X149263257Y-126982799D01*
X149187057Y-126997839D01*
X149144663Y-127005995D01*
X149081400Y-127017899D01*
X149004962Y-127032116D01*
X148923043Y-127047210D01*
X148900400Y-127051355D01*
X148824806Y-127066053D01*
X148758953Y-127080505D01*
X148708366Y-127093375D01*
X148678574Y-127103322D01*
X148673612Y-127106287D01*
X148661426Y-127127283D01*
X148643953Y-127167967D01*
X148624577Y-127220322D01*
X148620734Y-127231600D01*
X148595339Y-127301523D01*
X148563817Y-127380418D01*
X148532969Y-127451266D01*
X148532817Y-127451595D01*
X148481447Y-127562733D01*
X148650399Y-127811253D01*
X148819352Y-128059772D01*
X148602429Y-128277058D01*
X148536819Y-128341726D01*
X148476979Y-128398733D01*
X148426267Y-128445033D01*
X148388046Y-128477584D01*
X148365675Y-128493343D01*
X148362466Y-128494343D01*
X148343626Y-128486469D01*
X148305180Y-128464578D01*
X148251330Y-128431267D01*
X148186276Y-128389131D01*
X148115940Y-128341943D01*
X148044555Y-128293810D01*
X147980908Y-128251928D01*
X147929041Y-128218871D01*
X147892995Y-128197218D01*
X147876867Y-128189543D01*
X147857189Y-128196037D01*
X147819875Y-128213150D01*
X147772621Y-128237326D01*
X147767612Y-128240013D01*
X147703977Y-128271927D01*
X147660341Y-128287579D01*
X147633202Y-128287745D01*
X147619057Y-128273204D01*
X147618975Y-128273000D01*
X147611905Y-128255779D01*
X147595042Y-128214899D01*
X147569695Y-128153525D01*
X147537171Y-128074819D01*
X147498778Y-127981947D01*
X147455822Y-127878072D01*
X147414222Y-127777502D01*
X147368504Y-127666516D01*
X147326526Y-127563703D01*
X147289548Y-127472215D01*
X147258827Y-127395201D01*
X147235622Y-127335815D01*
X147221190Y-127297209D01*
X147216743Y-127282800D01*
X147227896Y-127266272D01*
X147257069Y-127239930D01*
X147295971Y-127210887D01*
X147406757Y-127119039D01*
X147493351Y-127013759D01*
X147554716Y-126897266D01*
X147589815Y-126771776D01*
X147597608Y-126639507D01*
X147591943Y-126578457D01*
X147561078Y-126451795D01*
X147507920Y-126339941D01*
X147435767Y-126244001D01*
X147347917Y-126165076D01*
X147247665Y-126104270D01*
X147138310Y-126062687D01*
X147023147Y-126041428D01*
X146905475Y-126041599D01*
X146788590Y-126064301D01*
X146675789Y-126110638D01*
X146570369Y-126181713D01*
X146526368Y-126221911D01*
X146441979Y-126325129D01*
X146383222Y-126437925D01*
X146349704Y-126557010D01*
X146341035Y-126679095D01*
X146356823Y-126800893D01*
X146396678Y-126919116D01*
X146460207Y-127030475D01*
X146547021Y-127131684D01*
X146644029Y-127210887D01*
X146684437Y-127241162D01*
X146712982Y-127267219D01*
X146723257Y-127282825D01*
X146717877Y-127299843D01*
X146702575Y-127340500D01*
X146678612Y-127401642D01*
X146647244Y-127480119D01*
X146609732Y-127572780D01*
X146567333Y-127676472D01*
X146525663Y-127777526D01*
X146479690Y-127888607D01*
X146437107Y-127991541D01*
X146399221Y-128083165D01*
X146367340Y-128160316D01*
X146342771Y-128219831D01*
X146326820Y-128258544D01*
X146320910Y-128273000D01*
X146306948Y-128287685D01*
X146279940Y-128287642D01*
X146236413Y-128272099D01*
X146172890Y-128240284D01*
X146172388Y-128240013D01*
X146124560Y-128215323D01*
X146085897Y-128197338D01*
X146064095Y-128189614D01*
X146063133Y-128189543D01*
X146046721Y-128197378D01*
X146010487Y-128219165D01*
X145958474Y-128252328D01*
X145894725Y-128294291D01*
X145824060Y-128341943D01*
X145752116Y-128390191D01*
X145687274Y-128432151D01*
X145633735Y-128465227D01*
X145595697Y-128486821D01*
X145577533Y-128494343D01*
X145560808Y-128484457D01*
X145527180Y-128456826D01*
X145480010Y-128414495D01*
X145422658Y-128360505D01*
X145358484Y-128297899D01*
X145337497Y-128276983D01*
X145120499Y-128059623D01*
X145285668Y-127817220D01*
X145335864Y-127742781D01*
X145379919Y-127675972D01*
X145415362Y-127620665D01*
X145439719Y-127580729D01*
X145450522Y-127560036D01*
X145450838Y-127558563D01*
X145445143Y-127539058D01*
X145429826Y-127499822D01*
X145407537Y-127447430D01*
X145391893Y-127412355D01*
X145362641Y-127345201D01*
X145335094Y-127277358D01*
X145313737Y-127220034D01*
X145307935Y-127202572D01*
X145291452Y-127155938D01*
X145275340Y-127119905D01*
X145266490Y-127106287D01*
X145246960Y-127097952D01*
X145204334Y-127086137D01*
X145144145Y-127072181D01*
X145071922Y-127057422D01*
X145039600Y-127051355D01*
X144957522Y-127036273D01*
X144878795Y-127021669D01*
X144811109Y-127008980D01*
X144762160Y-126999642D01*
X144752943Y-126997839D01*
X144676743Y-126982799D01*
X144676743Y-126665492D01*
X144676914Y-126561154D01*
X144677616Y-126482213D01*
X144679134Y-126425038D01*
X144681749Y-126385999D01*
X144685746Y-126361465D01*
X144691409Y-126347805D01*
X144699020Y-126341389D01*
X144702143Y-126340199D01*
X144720978Y-126335980D01*
X144762588Y-126327562D01*
X144821630Y-126315961D01*
X144892757Y-126302195D01*
X144970625Y-126287280D01*
X145049887Y-126272232D01*
X145125198Y-126258069D01*
X145191213Y-126245806D01*
X145242587Y-126236461D01*
X145273975Y-126231050D01*
X145280959Y-126230114D01*
X145287285Y-126217596D01*
X145301290Y-126184246D01*
X145320355Y-126136377D01*
X145327634Y-126117629D01*
X145356996Y-126045195D01*
X145391571Y-125965170D01*
X145422537Y-125897728D01*
X145445323Y-125846159D01*
X145460482Y-125803785D01*
X145465542Y-125777834D01*
X145464736Y-125774356D01*
X145454041Y-125757936D01*
X145429620Y-125721417D01*
X145394095Y-125668687D01*
X145350087Y-125603635D01*
X145300217Y-125530151D01*
X145290356Y-125515645D01*
X145232492Y-125429704D01*
X145189956Y-125364261D01*
X145161054Y-125316304D01*
X145144090Y-125282820D01*
X145137367Y-125260795D01*
X145139190Y-125247217D01*
X145139236Y-125247131D01*
X145153586Y-125229297D01*
X145185323Y-125194817D01*
X145231010Y-125147268D01*
X145287204Y-125090222D01*
X145350468Y-125027255D01*
X145357602Y-125020227D01*
X145437330Y-124943020D01*
X145498857Y-124886330D01*
X145543421Y-124849110D01*
X145572257Y-124830315D01*
X145584958Y-124827889D01*
X145603494Y-124838471D01*
X145641961Y-124862916D01*
X145696386Y-124898612D01*
X145762798Y-124942947D01*
X145837225Y-124993311D01*
X145854601Y-125005160D01*
X146101297Y-125173626D01*
X146212706Y-125123062D01*
X146280457Y-125093595D01*
X146353183Y-125063959D01*
X146415703Y-125040330D01*
X146418457Y-125039358D01*
X146467360Y-125021457D01*
X146505057Y-125006320D01*
X146523425Y-124997210D01*
X146523456Y-124997184D01*
X146529285Y-124980717D01*
X146539192Y-124940219D01*
X146552195Y-124880242D01*
X146567309Y-124805340D01*
X146583552Y-124720064D01*
X146584881Y-124712875D01*
X146601175Y-124625014D01*
X146616133Y-124545260D01*
X146628791Y-124478681D01*
X146638186Y-124430347D01*
X146643354Y-124405325D01*
X146643444Y-124404943D01*
X146646589Y-124394299D01*
X146652704Y-124386262D01*
X146665453Y-124380467D01*
X146688500Y-124376547D01*
X146725509Y-124374135D01*
X146780144Y-124372865D01*
X146856067Y-124372371D01*
X146956944Y-124372286D01*
X146970000Y-124372286D01*
X147073910Y-124372348D01*
G37*
X147073910Y-124372348D02*
X147152454Y-124372778D01*
X147209298Y-124373942D01*
X147248105Y-124376207D01*
X147272538Y-124379940D01*
X147286262Y-124385506D01*
X147292940Y-124393273D01*
X147296236Y-124403605D01*
X147296556Y-124404943D01*
X147301562Y-124429079D01*
X147310829Y-124476701D01*
X147323392Y-124542741D01*
X147338287Y-124622128D01*
X147354551Y-124709796D01*
X147355119Y-124712875D01*
X147371410Y-124798789D01*
X147386652Y-124874696D01*
X147399861Y-124936045D01*
X147410054Y-124978282D01*
X147416248Y-124996855D01*
X147416543Y-124997184D01*
X147434788Y-125006253D01*
X147472405Y-125021367D01*
X147521271Y-125039262D01*
X147521543Y-125039358D01*
X147583093Y-125062493D01*
X147655657Y-125091965D01*
X147724057Y-125121597D01*
X147727294Y-125123062D01*
X147838702Y-125173626D01*
X148085399Y-125005160D01*
X148161077Y-124953803D01*
X148229631Y-124907889D01*
X148287088Y-124870030D01*
X148329476Y-124842837D01*
X148352825Y-124828921D01*
X148355042Y-124827889D01*
X148372010Y-124832484D01*
X148403701Y-124854655D01*
X148451352Y-124895447D01*
X148516198Y-124955905D01*
X148582397Y-125020227D01*
X148646214Y-125083612D01*
X148703329Y-125141451D01*
X148750305Y-125190175D01*
X148783703Y-125226210D01*
X148800085Y-125245984D01*
X148800694Y-125247002D01*
X148802505Y-125260572D01*
X148795683Y-125282733D01*
X148778540Y-125316478D01*
X148749393Y-125364800D01*
X148706555Y-125430692D01*
X148649448Y-125515517D01*
X148598766Y-125590177D01*
X148553461Y-125657140D01*
X148516150Y-125712516D01*
X148489452Y-125752420D01*
X148475985Y-125772962D01*
X148475137Y-125774356D01*
X148476781Y-125794038D01*
X148489245Y-125832293D01*
X148510048Y-125881889D01*
X148517462Y-125897728D01*
X148549814Y-125968290D01*
X148584328Y-126048353D01*
X148612365Y-126117629D01*
X148632568Y-126169045D01*
X148648615Y-126208119D01*
X148657888Y-126228541D01*
X148659041Y-126230114D01*
X148676096Y-126232721D01*
X148716298Y-126239863D01*
X148774302Y-126250523D01*
X148844763Y-126263685D01*
X148922335Y-126278333D01*
X149001672Y-126293449D01*
X149077431Y-126308018D01*
X149144264Y-126321022D01*
X149196828Y-126331445D01*
X149229776Y-126338270D01*
X149237857Y-126340199D01*
X149246205Y-126344962D01*
X149252506Y-126355718D01*
X149257045Y-126376098D01*
X149260104Y-126409734D01*
X149261967Y-126460255D01*
X149262918Y-126531292D01*
X149263240Y-126626476D01*
X149263257Y-126665492D01*
X149263257Y-126982799D01*
X149187057Y-126997839D01*
X149144663Y-127005995D01*
X149081400Y-127017899D01*
X149004962Y-127032116D01*
X148923043Y-127047210D01*
X148900400Y-127051355D01*
X148824806Y-127066053D01*
X148758953Y-127080505D01*
X148708366Y-127093375D01*
X148678574Y-127103322D01*
X148673612Y-127106287D01*
X148661426Y-127127283D01*
X148643953Y-127167967D01*
X148624577Y-127220322D01*
X148620734Y-127231600D01*
X148595339Y-127301523D01*
X148563817Y-127380418D01*
X148532969Y-127451266D01*
X148532817Y-127451595D01*
X148481447Y-127562733D01*
X148650399Y-127811253D01*
X148819352Y-128059772D01*
X148602429Y-128277058D01*
X148536819Y-128341726D01*
X148476979Y-128398733D01*
X148426267Y-128445033D01*
X148388046Y-128477584D01*
X148365675Y-128493343D01*
X148362466Y-128494343D01*
X148343626Y-128486469D01*
X148305180Y-128464578D01*
X148251330Y-128431267D01*
X148186276Y-128389131D01*
X148115940Y-128341943D01*
X148044555Y-128293810D01*
X147980908Y-128251928D01*
X147929041Y-128218871D01*
X147892995Y-128197218D01*
X147876867Y-128189543D01*
X147857189Y-128196037D01*
X147819875Y-128213150D01*
X147772621Y-128237326D01*
X147767612Y-128240013D01*
X147703977Y-128271927D01*
X147660341Y-128287579D01*
X147633202Y-128287745D01*
X147619057Y-128273204D01*
X147618975Y-128273000D01*
X147611905Y-128255779D01*
X147595042Y-128214899D01*
X147569695Y-128153525D01*
X147537171Y-128074819D01*
X147498778Y-127981947D01*
X147455822Y-127878072D01*
X147414222Y-127777502D01*
X147368504Y-127666516D01*
X147326526Y-127563703D01*
X147289548Y-127472215D01*
X147258827Y-127395201D01*
X147235622Y-127335815D01*
X147221190Y-127297209D01*
X147216743Y-127282800D01*
X147227896Y-127266272D01*
X147257069Y-127239930D01*
X147295971Y-127210887D01*
X147406757Y-127119039D01*
X147493351Y-127013759D01*
X147554716Y-126897266D01*
X147589815Y-126771776D01*
X147597608Y-126639507D01*
X147591943Y-126578457D01*
X147561078Y-126451795D01*
X147507920Y-126339941D01*
X147435767Y-126244001D01*
X147347917Y-126165076D01*
X147247665Y-126104270D01*
X147138310Y-126062687D01*
X147023147Y-126041428D01*
X146905475Y-126041599D01*
X146788590Y-126064301D01*
X146675789Y-126110638D01*
X146570369Y-126181713D01*
X146526368Y-126221911D01*
X146441979Y-126325129D01*
X146383222Y-126437925D01*
X146349704Y-126557010D01*
X146341035Y-126679095D01*
X146356823Y-126800893D01*
X146396678Y-126919116D01*
X146460207Y-127030475D01*
X146547021Y-127131684D01*
X146644029Y-127210887D01*
X146684437Y-127241162D01*
X146712982Y-127267219D01*
X146723257Y-127282825D01*
X146717877Y-127299843D01*
X146702575Y-127340500D01*
X146678612Y-127401642D01*
X146647244Y-127480119D01*
X146609732Y-127572780D01*
X146567333Y-127676472D01*
X146525663Y-127777526D01*
X146479690Y-127888607D01*
X146437107Y-127991541D01*
X146399221Y-128083165D01*
X146367340Y-128160316D01*
X146342771Y-128219831D01*
X146326820Y-128258544D01*
X146320910Y-128273000D01*
X146306948Y-128287685D01*
X146279940Y-128287642D01*
X146236413Y-128272099D01*
X146172890Y-128240284D01*
X146172388Y-128240013D01*
X146124560Y-128215323D01*
X146085897Y-128197338D01*
X146064095Y-128189614D01*
X146063133Y-128189543D01*
X146046721Y-128197378D01*
X146010487Y-128219165D01*
X145958474Y-128252328D01*
X145894725Y-128294291D01*
X145824060Y-128341943D01*
X145752116Y-128390191D01*
X145687274Y-128432151D01*
X145633735Y-128465227D01*
X145595697Y-128486821D01*
X145577533Y-128494343D01*
X145560808Y-128484457D01*
X145527180Y-128456826D01*
X145480010Y-128414495D01*
X145422658Y-128360505D01*
X145358484Y-128297899D01*
X145337497Y-128276983D01*
X145120499Y-128059623D01*
X145285668Y-127817220D01*
X145335864Y-127742781D01*
X145379919Y-127675972D01*
X145415362Y-127620665D01*
X145439719Y-127580729D01*
X145450522Y-127560036D01*
X145450838Y-127558563D01*
X145445143Y-127539058D01*
X145429826Y-127499822D01*
X145407537Y-127447430D01*
X145391893Y-127412355D01*
X145362641Y-127345201D01*
X145335094Y-127277358D01*
X145313737Y-127220034D01*
X145307935Y-127202572D01*
X145291452Y-127155938D01*
X145275340Y-127119905D01*
X145266490Y-127106287D01*
X145246960Y-127097952D01*
X145204334Y-127086137D01*
X145144145Y-127072181D01*
X145071922Y-127057422D01*
X145039600Y-127051355D01*
X144957522Y-127036273D01*
X144878795Y-127021669D01*
X144811109Y-127008980D01*
X144762160Y-126999642D01*
X144752943Y-126997839D01*
X144676743Y-126982799D01*
X144676743Y-126665492D01*
X144676914Y-126561154D01*
X144677616Y-126482213D01*
X144679134Y-126425038D01*
X144681749Y-126385999D01*
X144685746Y-126361465D01*
X144691409Y-126347805D01*
X144699020Y-126341389D01*
X144702143Y-126340199D01*
X144720978Y-126335980D01*
X144762588Y-126327562D01*
X144821630Y-126315961D01*
X144892757Y-126302195D01*
X144970625Y-126287280D01*
X145049887Y-126272232D01*
X145125198Y-126258069D01*
X145191213Y-126245806D01*
X145242587Y-126236461D01*
X145273975Y-126231050D01*
X145280959Y-126230114D01*
X145287285Y-126217596D01*
X145301290Y-126184246D01*
X145320355Y-126136377D01*
X145327634Y-126117629D01*
X145356996Y-126045195D01*
X145391571Y-125965170D01*
X145422537Y-125897728D01*
X145445323Y-125846159D01*
X145460482Y-125803785D01*
X145465542Y-125777834D01*
X145464736Y-125774356D01*
X145454041Y-125757936D01*
X145429620Y-125721417D01*
X145394095Y-125668687D01*
X145350087Y-125603635D01*
X145300217Y-125530151D01*
X145290356Y-125515645D01*
X145232492Y-125429704D01*
X145189956Y-125364261D01*
X145161054Y-125316304D01*
X145144090Y-125282820D01*
X145137367Y-125260795D01*
X145139190Y-125247217D01*
X145139236Y-125247131D01*
X145153586Y-125229297D01*
X145185323Y-125194817D01*
X145231010Y-125147268D01*
X145287204Y-125090222D01*
X145350468Y-125027255D01*
X145357602Y-125020227D01*
X145437330Y-124943020D01*
X145498857Y-124886330D01*
X145543421Y-124849110D01*
X145572257Y-124830315D01*
X145584958Y-124827889D01*
X145603494Y-124838471D01*
X145641961Y-124862916D01*
X145696386Y-124898612D01*
X145762798Y-124942947D01*
X145837225Y-124993311D01*
X145854601Y-125005160D01*
X146101297Y-125173626D01*
X146212706Y-125123062D01*
X146280457Y-125093595D01*
X146353183Y-125063959D01*
X146415703Y-125040330D01*
X146418457Y-125039358D01*
X146467360Y-125021457D01*
X146505057Y-125006320D01*
X146523425Y-124997210D01*
X146523456Y-124997184D01*
X146529285Y-124980717D01*
X146539192Y-124940219D01*
X146552195Y-124880242D01*
X146567309Y-124805340D01*
X146583552Y-124720064D01*
X146584881Y-124712875D01*
X146601175Y-124625014D01*
X146616133Y-124545260D01*
X146628791Y-124478681D01*
X146638186Y-124430347D01*
X146643354Y-124405325D01*
X146643444Y-124404943D01*
X146646589Y-124394299D01*
X146652704Y-124386262D01*
X146665453Y-124380467D01*
X146688500Y-124376547D01*
X146725509Y-124374135D01*
X146780144Y-124372865D01*
X146856067Y-124372371D01*
X146956944Y-124372286D01*
X146970000Y-124372286D01*
X147073910Y-124372348D01*
G36*
X150123595Y-129096966D02*
G01*
X150181021Y-129134497D01*
X150208719Y-129168096D01*
X150230662Y-129229064D01*
X150232405Y-129277308D01*
X150228457Y-129341816D01*
X150079686Y-129406934D01*
X150007349Y-129440202D01*
X149960084Y-129466964D01*
X149935507Y-129490144D01*
X149931237Y-129512667D01*
X149944889Y-129537455D01*
X149959943Y-129553886D01*
X150003746Y-129580235D01*
X150051389Y-129582081D01*
X150095145Y-129561546D01*
X150127289Y-129520752D01*
X150133038Y-129506347D01*
X150160576Y-129461356D01*
X150192258Y-129442182D01*
X150235714Y-129425779D01*
X150235714Y-129487966D01*
X150231872Y-129530283D01*
X150216823Y-129565969D01*
X150185280Y-129606943D01*
X150180592Y-129612267D01*
X150145506Y-129648720D01*
X150115347Y-129668283D01*
X150077615Y-129677283D01*
X150046335Y-129680230D01*
X149990385Y-129680965D01*
X149950555Y-129671660D01*
X149925708Y-129657846D01*
X149886656Y-129627467D01*
X149859625Y-129594613D01*
X149842517Y-129553294D01*
X149833238Y-129497521D01*
X149829693Y-129421305D01*
X149829410Y-129382622D01*
X149830372Y-129336247D01*
X149918007Y-129336247D01*
X149919023Y-129361126D01*
X149921556Y-129365200D01*
X149938274Y-129359665D01*
X149974249Y-129345017D01*
X150022331Y-129324190D01*
X150032386Y-129319714D01*
X150093152Y-129288814D01*
X150126632Y-129261657D01*
X150133990Y-129236220D01*
X150116391Y-129210481D01*
X150101856Y-129199109D01*
X150049410Y-129176364D01*
X150000322Y-129180122D01*
X149959227Y-129207884D01*
X149930758Y-129257152D01*
X149921631Y-129296257D01*
X149918007Y-129336247D01*
X149830372Y-129336247D01*
X149831285Y-129292249D01*
X149838196Y-129225384D01*
X149851884Y-129176695D01*
X149874096Y-129140849D01*
X149906574Y-129112513D01*
X149920733Y-129103355D01*
X149985053Y-129079507D01*
X150055473Y-129078006D01*
X150123595Y-129096966D01*
G37*
X150123595Y-129096966D02*
X150181021Y-129134497D01*
X150208719Y-129168096D01*
X150230662Y-129229064D01*
X150232405Y-129277308D01*
X150228457Y-129341816D01*
X150079686Y-129406934D01*
X150007349Y-129440202D01*
X149960084Y-129466964D01*
X149935507Y-129490144D01*
X149931237Y-129512667D01*
X149944889Y-129537455D01*
X149959943Y-129553886D01*
X150003746Y-129580235D01*
X150051389Y-129582081D01*
X150095145Y-129561546D01*
X150127289Y-129520752D01*
X150133038Y-129506347D01*
X150160576Y-129461356D01*
X150192258Y-129442182D01*
X150235714Y-129425779D01*
X150235714Y-129487966D01*
X150231872Y-129530283D01*
X150216823Y-129565969D01*
X150185280Y-129606943D01*
X150180592Y-129612267D01*
X150145506Y-129648720D01*
X150115347Y-129668283D01*
X150077615Y-129677283D01*
X150046335Y-129680230D01*
X149990385Y-129680965D01*
X149950555Y-129671660D01*
X149925708Y-129657846D01*
X149886656Y-129627467D01*
X149859625Y-129594613D01*
X149842517Y-129553294D01*
X149833238Y-129497521D01*
X149829693Y-129421305D01*
X149829410Y-129382622D01*
X149830372Y-129336247D01*
X149918007Y-129336247D01*
X149919023Y-129361126D01*
X149921556Y-129365200D01*
X149938274Y-129359665D01*
X149974249Y-129345017D01*
X150022331Y-129324190D01*
X150032386Y-129319714D01*
X150093152Y-129288814D01*
X150126632Y-129261657D01*
X150133990Y-129236220D01*
X150116391Y-129210481D01*
X150101856Y-129199109D01*
X150049410Y-129176364D01*
X150000322Y-129180122D01*
X149959227Y-129207884D01*
X149930758Y-129257152D01*
X149921631Y-129296257D01*
X149918007Y-129336247D01*
X149830372Y-129336247D01*
X149831285Y-129292249D01*
X149838196Y-129225384D01*
X149851884Y-129176695D01*
X149874096Y-129140849D01*
X149906574Y-129112513D01*
X149920733Y-129103355D01*
X149985053Y-129079507D01*
X150055473Y-129078006D01*
X150123595Y-129096966D01*
G36*
X149622600Y-129088752D02*
G01*
X149639948Y-129096334D01*
X149681356Y-129129128D01*
X149716765Y-129176547D01*
X149738664Y-129227151D01*
X149742229Y-129252098D01*
X149730279Y-129286927D01*
X149704067Y-129305357D01*
X149675964Y-129316516D01*
X149663095Y-129318572D01*
X149656829Y-129303649D01*
X149644456Y-129271175D01*
X149639028Y-129256502D01*
X149608590Y-129205744D01*
X149564520Y-129180427D01*
X149508010Y-129181206D01*
X149503825Y-129182203D01*
X149473655Y-129196507D01*
X149451476Y-129224393D01*
X149436327Y-129269287D01*
X149427250Y-129334615D01*
X149423286Y-129423804D01*
X149422914Y-129471261D01*
X149422730Y-129546071D01*
X149421522Y-129597069D01*
X149418309Y-129629471D01*
X149412109Y-129648495D01*
X149401940Y-129659356D01*
X149386819Y-129667272D01*
X149385946Y-129667670D01*
X149356828Y-129679981D01*
X149342403Y-129684514D01*
X149340186Y-129670809D01*
X149338289Y-129632925D01*
X149336847Y-129575715D01*
X149335998Y-129504027D01*
X149335829Y-129451565D01*
X149336692Y-129350047D01*
X149340070Y-129273032D01*
X149347142Y-129216023D01*
X149359088Y-129174526D01*
X149377090Y-129144043D01*
X149402327Y-129120080D01*
X149427247Y-129103355D01*
X149487171Y-129081097D01*
X149556911Y-129076076D01*
X149622600Y-129088752D01*
G37*
X149622600Y-129088752D02*
X149639948Y-129096334D01*
X149681356Y-129129128D01*
X149716765Y-129176547D01*
X149738664Y-129227151D01*
X149742229Y-129252098D01*
X149730279Y-129286927D01*
X149704067Y-129305357D01*
X149675964Y-129316516D01*
X149663095Y-129318572D01*
X149656829Y-129303649D01*
X149644456Y-129271175D01*
X149639028Y-129256502D01*
X149608590Y-129205744D01*
X149564520Y-129180427D01*
X149508010Y-129181206D01*
X149503825Y-129182203D01*
X149473655Y-129196507D01*
X149451476Y-129224393D01*
X149436327Y-129269287D01*
X149427250Y-129334615D01*
X149423286Y-129423804D01*
X149422914Y-129471261D01*
X149422730Y-129546071D01*
X149421522Y-129597069D01*
X149418309Y-129629471D01*
X149412109Y-129648495D01*
X149401940Y-129659356D01*
X149386819Y-129667272D01*
X149385946Y-129667670D01*
X149356828Y-129679981D01*
X149342403Y-129684514D01*
X149340186Y-129670809D01*
X149338289Y-129632925D01*
X149336847Y-129575715D01*
X149335998Y-129504027D01*
X149335829Y-129451565D01*
X149336692Y-129350047D01*
X149340070Y-129273032D01*
X149347142Y-129216023D01*
X149359088Y-129174526D01*
X149377090Y-129144043D01*
X149402327Y-129120080D01*
X149427247Y-129103355D01*
X149487171Y-129081097D01*
X149556911Y-129076076D01*
X149622600Y-129088752D01*
G36*
X149114876Y-129086335D02*
G01*
X149156667Y-129105344D01*
X149189469Y-129128378D01*
X149213503Y-129154133D01*
X149230097Y-129187358D01*
X149240577Y-129232800D01*
X149246271Y-129295207D01*
X149248507Y-129379327D01*
X149248743Y-129434721D01*
X149248743Y-129650826D01*
X149211774Y-129667670D01*
X149182656Y-129679981D01*
X149168231Y-129684514D01*
X149165472Y-129671025D01*
X149163282Y-129634653D01*
X149161942Y-129581542D01*
X149161657Y-129539372D01*
X149160434Y-129478447D01*
X149157136Y-129430115D01*
X149152321Y-129400518D01*
X149148496Y-129394229D01*
X149122783Y-129400652D01*
X149082418Y-129417125D01*
X149035679Y-129439458D01*
X148990845Y-129463457D01*
X148956193Y-129484930D01*
X148940002Y-129499685D01*
X148939938Y-129499845D01*
X148941330Y-129527152D01*
X148953818Y-129553219D01*
X148975743Y-129574392D01*
X149007743Y-129581474D01*
X149035092Y-129580649D01*
X149073826Y-129580042D01*
X149094158Y-129589116D01*
X149106369Y-129613092D01*
X149107909Y-129617613D01*
X149113203Y-129651806D01*
X149099047Y-129672568D01*
X149062148Y-129682462D01*
X149022289Y-129684292D01*
X148950562Y-129670727D01*
X148913432Y-129651355D01*
X148867576Y-129605845D01*
X148843256Y-129549983D01*
X148841073Y-129490957D01*
X148861629Y-129435953D01*
X148892549Y-129401486D01*
X148923420Y-129382189D01*
X148971942Y-129357759D01*
X149028485Y-129332985D01*
X149037910Y-129329199D01*
X149100019Y-129301791D01*
X149135822Y-129277634D01*
X149147337Y-129253619D01*
X149136580Y-129226635D01*
X149118114Y-129205543D01*
X149074469Y-129179572D01*
X149026446Y-129177624D01*
X148982406Y-129197637D01*
X148950709Y-129237551D01*
X148946549Y-129247848D01*
X148922327Y-129285724D01*
X148886965Y-129313842D01*
X148842343Y-129336917D01*
X148842343Y-129271485D01*
X148844969Y-129231506D01*
X148856230Y-129199997D01*
X148881199Y-129166378D01*
X148905169Y-129140484D01*
X148942441Y-129103817D01*
X148971401Y-129084121D01*
X149002505Y-129076220D01*
X149037713Y-129074914D01*
X149114876Y-129086335D01*
G37*
X149114876Y-129086335D02*
X149156667Y-129105344D01*
X149189469Y-129128378D01*
X149213503Y-129154133D01*
X149230097Y-129187358D01*
X149240577Y-129232800D01*
X149246271Y-129295207D01*
X149248507Y-129379327D01*
X149248743Y-129434721D01*
X149248743Y-129650826D01*
X149211774Y-129667670D01*
X149182656Y-129679981D01*
X149168231Y-129684514D01*
X149165472Y-129671025D01*
X149163282Y-129634653D01*
X149161942Y-129581542D01*
X149161657Y-129539372D01*
X149160434Y-129478447D01*
X149157136Y-129430115D01*
X149152321Y-129400518D01*
X149148496Y-129394229D01*
X149122783Y-129400652D01*
X149082418Y-129417125D01*
X149035679Y-129439458D01*
X148990845Y-129463457D01*
X148956193Y-129484930D01*
X148940002Y-129499685D01*
X148939938Y-129499845D01*
X148941330Y-129527152D01*
X148953818Y-129553219D01*
X148975743Y-129574392D01*
X149007743Y-129581474D01*
X149035092Y-129580649D01*
X149073826Y-129580042D01*
X149094158Y-129589116D01*
X149106369Y-129613092D01*
X149107909Y-129617613D01*
X149113203Y-129651806D01*
X149099047Y-129672568D01*
X149062148Y-129682462D01*
X149022289Y-129684292D01*
X148950562Y-129670727D01*
X148913432Y-129651355D01*
X148867576Y-129605845D01*
X148843256Y-129549983D01*
X148841073Y-129490957D01*
X148861629Y-129435953D01*
X148892549Y-129401486D01*
X148923420Y-129382189D01*
X148971942Y-129357759D01*
X149028485Y-129332985D01*
X149037910Y-129329199D01*
X149100019Y-129301791D01*
X149135822Y-129277634D01*
X149147337Y-129253619D01*
X149136580Y-129226635D01*
X149118114Y-129205543D01*
X149074469Y-129179572D01*
X149026446Y-129177624D01*
X148982406Y-129197637D01*
X148950709Y-129237551D01*
X148946549Y-129247848D01*
X148922327Y-129285724D01*
X148886965Y-129313842D01*
X148842343Y-129336917D01*
X148842343Y-129271485D01*
X148844969Y-129231506D01*
X148856230Y-129199997D01*
X148881199Y-129166378D01*
X148905169Y-129140484D01*
X148942441Y-129103817D01*
X148971401Y-129084121D01*
X149002505Y-129076220D01*
X149037713Y-129074914D01*
X149114876Y-129086335D01*
G36*
X148749833Y-129088663D02*
G01*
X148752048Y-129126850D01*
X148753784Y-129184886D01*
X148754899Y-129258180D01*
X148755257Y-129335055D01*
X148755257Y-129595196D01*
X148709326Y-129641127D01*
X148677675Y-129669429D01*
X148649890Y-129680893D01*
X148611915Y-129680168D01*
X148596840Y-129678321D01*
X148549726Y-129672948D01*
X148510756Y-129669869D01*
X148501257Y-129669585D01*
X148469233Y-129671445D01*
X148423432Y-129676114D01*
X148405674Y-129678321D01*
X148362057Y-129681735D01*
X148332745Y-129674320D01*
X148303680Y-129651427D01*
X148293188Y-129641127D01*
X148247257Y-129595196D01*
X148247257Y-129108602D01*
X148284226Y-129091758D01*
X148316059Y-129079282D01*
X148334683Y-129074914D01*
X148339458Y-129088718D01*
X148343921Y-129127286D01*
X148347775Y-129186356D01*
X148350722Y-129261663D01*
X148352143Y-129325286D01*
X148356114Y-129575657D01*
X148390759Y-129580556D01*
X148422268Y-129577131D01*
X148437708Y-129566041D01*
X148442023Y-129545308D01*
X148445708Y-129501145D01*
X148448469Y-129439146D01*
X148450012Y-129364909D01*
X148450235Y-129326706D01*
X148450457Y-129106783D01*
X148496166Y-129090849D01*
X148528518Y-129080015D01*
X148546115Y-129074962D01*
X148546623Y-129074914D01*
X148548388Y-129088648D01*
X148550329Y-129126730D01*
X148552282Y-129184482D01*
X148554084Y-129257227D01*
X148555343Y-129325286D01*
X148559314Y-129575657D01*
X148646400Y-129575657D01*
X148650396Y-129347240D01*
X148654392Y-129118822D01*
X148696847Y-129096868D01*
X148728192Y-129081793D01*
X148746744Y-129074951D01*
X148747279Y-129074914D01*
X148749833Y-129088663D01*
G37*
X148749833Y-129088663D02*
X148752048Y-129126850D01*
X148753784Y-129184886D01*
X148754899Y-129258180D01*
X148755257Y-129335055D01*
X148755257Y-129595196D01*
X148709326Y-129641127D01*
X148677675Y-129669429D01*
X148649890Y-129680893D01*
X148611915Y-129680168D01*
X148596840Y-129678321D01*
X148549726Y-129672948D01*
X148510756Y-129669869D01*
X148501257Y-129669585D01*
X148469233Y-129671445D01*
X148423432Y-129676114D01*
X148405674Y-129678321D01*
X148362057Y-129681735D01*
X148332745Y-129674320D01*
X148303680Y-129651427D01*
X148293188Y-129641127D01*
X148247257Y-129595196D01*
X148247257Y-129108602D01*
X148284226Y-129091758D01*
X148316059Y-129079282D01*
X148334683Y-129074914D01*
X148339458Y-129088718D01*
X148343921Y-129127286D01*
X148347775Y-129186356D01*
X148350722Y-129261663D01*
X148352143Y-129325286D01*
X148356114Y-129575657D01*
X148390759Y-129580556D01*
X148422268Y-129577131D01*
X148437708Y-129566041D01*
X148442023Y-129545308D01*
X148445708Y-129501145D01*
X148448469Y-129439146D01*
X148450012Y-129364909D01*
X148450235Y-129326706D01*
X148450457Y-129106783D01*
X148496166Y-129090849D01*
X148528518Y-129080015D01*
X148546115Y-129074962D01*
X148546623Y-129074914D01*
X148548388Y-129088648D01*
X148550329Y-129126730D01*
X148552282Y-129184482D01*
X148554084Y-129257227D01*
X148555343Y-129325286D01*
X148559314Y-129575657D01*
X148646400Y-129575657D01*
X148650396Y-129347240D01*
X148654392Y-129118822D01*
X148696847Y-129096868D01*
X148728192Y-129081793D01*
X148746744Y-129074951D01*
X148747279Y-129074914D01*
X148749833Y-129088663D01*
G36*
X148160117Y-129195358D02*
G01*
X148159933Y-129303837D01*
X148159219Y-129387287D01*
X148157675Y-129449704D01*
X148155001Y-129495085D01*
X148150894Y-129527429D01*
X148145055Y-129550733D01*
X148137182Y-129568995D01*
X148131221Y-129579418D01*
X148081855Y-129635945D01*
X148019264Y-129671377D01*
X147950013Y-129684090D01*
X147880668Y-129672463D01*
X147839375Y-129651568D01*
X147796025Y-129615422D01*
X147766481Y-129571276D01*
X147748655Y-129513462D01*
X147740463Y-129436313D01*
X147739302Y-129379714D01*
X147739458Y-129375647D01*
X147840857Y-129375647D01*
X147841476Y-129440550D01*
X147844314Y-129483514D01*
X147850840Y-129511622D01*
X147862523Y-129531953D01*
X147876483Y-129547288D01*
X147923365Y-129576890D01*
X147973701Y-129579419D01*
X148021276Y-129554705D01*
X148024979Y-129551356D01*
X148040783Y-129533935D01*
X148050693Y-129513209D01*
X148056058Y-129482362D01*
X148058228Y-129434577D01*
X148058571Y-129381748D01*
X148057827Y-129315381D01*
X148054748Y-129271106D01*
X148048061Y-129242009D01*
X148036496Y-129221173D01*
X148027013Y-129210107D01*
X147982960Y-129182198D01*
X147932224Y-129178843D01*
X147883796Y-129200159D01*
X147874450Y-129208073D01*
X147858540Y-129225647D01*
X147848610Y-129246587D01*
X147843278Y-129277782D01*
X147841163Y-129326122D01*
X147840857Y-129375647D01*
X147739458Y-129375647D01*
X147742810Y-129288568D01*
X147754726Y-129220086D01*
X147777135Y-129168600D01*
X147812124Y-129128443D01*
X147839375Y-129107861D01*
X147888907Y-129085625D01*
X147946316Y-129075304D01*
X147999682Y-129078067D01*
X148029543Y-129089212D01*
X148041261Y-129092383D01*
X148049037Y-129080557D01*
X148054465Y-129048866D01*
X148058571Y-129000593D01*
X148063067Y-128946829D01*
X148069313Y-128914482D01*
X148080676Y-128895985D01*
X148100528Y-128883770D01*
X148113000Y-128878362D01*
X148160171Y-128858601D01*
X148160117Y-129195358D01*
G37*
X148160117Y-129195358D02*
X148159933Y-129303837D01*
X148159219Y-129387287D01*
X148157675Y-129449704D01*
X148155001Y-129495085D01*
X148150894Y-129527429D01*
X148145055Y-129550733D01*
X148137182Y-129568995D01*
X148131221Y-129579418D01*
X148081855Y-129635945D01*
X148019264Y-129671377D01*
X147950013Y-129684090D01*
X147880668Y-129672463D01*
X147839375Y-129651568D01*
X147796025Y-129615422D01*
X147766481Y-129571276D01*
X147748655Y-129513462D01*
X147740463Y-129436313D01*
X147739302Y-129379714D01*
X147739458Y-129375647D01*
X147840857Y-129375647D01*
X147841476Y-129440550D01*
X147844314Y-129483514D01*
X147850840Y-129511622D01*
X147862523Y-129531953D01*
X147876483Y-129547288D01*
X147923365Y-129576890D01*
X147973701Y-129579419D01*
X148021276Y-129554705D01*
X148024979Y-129551356D01*
X148040783Y-129533935D01*
X148050693Y-129513209D01*
X148056058Y-129482362D01*
X148058228Y-129434577D01*
X148058571Y-129381748D01*
X148057827Y-129315381D01*
X148054748Y-129271106D01*
X148048061Y-129242009D01*
X148036496Y-129221173D01*
X148027013Y-129210107D01*
X147982960Y-129182198D01*
X147932224Y-129178843D01*
X147883796Y-129200159D01*
X147874450Y-129208073D01*
X147858540Y-129225647D01*
X147848610Y-129246587D01*
X147843278Y-129277782D01*
X147841163Y-129326122D01*
X147840857Y-129375647D01*
X147739458Y-129375647D01*
X147742810Y-129288568D01*
X147754726Y-129220086D01*
X147777135Y-129168600D01*
X147812124Y-129128443D01*
X147839375Y-129107861D01*
X147888907Y-129085625D01*
X147946316Y-129075304D01*
X147999682Y-129078067D01*
X148029543Y-129089212D01*
X148041261Y-129092383D01*
X148049037Y-129080557D01*
X148054465Y-129048866D01*
X148058571Y-129000593D01*
X148063067Y-128946829D01*
X148069313Y-128914482D01*
X148080676Y-128895985D01*
X148100528Y-128883770D01*
X148113000Y-128878362D01*
X148160171Y-128858601D01*
X148160117Y-129195358D01*
G36*
X147499926Y-129079755D02*
G01*
X147565858Y-129104084D01*
X147619273Y-129147117D01*
X147640164Y-129177409D01*
X147662939Y-129232994D01*
X147662466Y-129273186D01*
X147638562Y-129300217D01*
X147629717Y-129304813D01*
X147591530Y-129319144D01*
X147572028Y-129315472D01*
X147565422Y-129291407D01*
X147565086Y-129278114D01*
X147552992Y-129229210D01*
X147521471Y-129194999D01*
X147477659Y-129178476D01*
X147428695Y-129182634D01*
X147388894Y-129204227D01*
X147375450Y-129216544D01*
X147365921Y-129231487D01*
X147359485Y-129254075D01*
X147355317Y-129289328D01*
X147352597Y-129342266D01*
X147350502Y-129417907D01*
X147349960Y-129441857D01*
X147347981Y-129523790D01*
X147345731Y-129581455D01*
X147342357Y-129619608D01*
X147337006Y-129643004D01*
X147328824Y-129656398D01*
X147316959Y-129664545D01*
X147309362Y-129668144D01*
X147277102Y-129680452D01*
X147258111Y-129684514D01*
X147251836Y-129670948D01*
X147248006Y-129629934D01*
X147246600Y-129560999D01*
X147247598Y-129463669D01*
X147247908Y-129448657D01*
X147250101Y-129359859D01*
X147252693Y-129295019D01*
X147256382Y-129249067D01*
X147261864Y-129216935D01*
X147269835Y-129193553D01*
X147280993Y-129173852D01*
X147286830Y-129165410D01*
X147320296Y-129128057D01*
X147357727Y-129099003D01*
X147362309Y-129096467D01*
X147429426Y-129076443D01*
X147499926Y-129079755D01*
G37*
X147499926Y-129079755D02*
X147565858Y-129104084D01*
X147619273Y-129147117D01*
X147640164Y-129177409D01*
X147662939Y-129232994D01*
X147662466Y-129273186D01*
X147638562Y-129300217D01*
X147629717Y-129304813D01*
X147591530Y-129319144D01*
X147572028Y-129315472D01*
X147565422Y-129291407D01*
X147565086Y-129278114D01*
X147552992Y-129229210D01*
X147521471Y-129194999D01*
X147477659Y-129178476D01*
X147428695Y-129182634D01*
X147388894Y-129204227D01*
X147375450Y-129216544D01*
X147365921Y-129231487D01*
X147359485Y-129254075D01*
X147355317Y-129289328D01*
X147352597Y-129342266D01*
X147350502Y-129417907D01*
X147349960Y-129441857D01*
X147347981Y-129523790D01*
X147345731Y-129581455D01*
X147342357Y-129619608D01*
X147337006Y-129643004D01*
X147328824Y-129656398D01*
X147316959Y-129664545D01*
X147309362Y-129668144D01*
X147277102Y-129680452D01*
X147258111Y-129684514D01*
X147251836Y-129670948D01*
X147248006Y-129629934D01*
X147246600Y-129560999D01*
X147247598Y-129463669D01*
X147247908Y-129448657D01*
X147250101Y-129359859D01*
X147252693Y-129295019D01*
X147256382Y-129249067D01*
X147261864Y-129216935D01*
X147269835Y-129193553D01*
X147280993Y-129173852D01*
X147286830Y-129165410D01*
X147320296Y-129128057D01*
X147357727Y-129099003D01*
X147362309Y-129096467D01*
X147429426Y-129076443D01*
X147499926Y-129079755D01*
G36*
X147009744Y-129080968D02*
G01*
X147066616Y-129102087D01*
X147067267Y-129102493D01*
X147102440Y-129128380D01*
X147128407Y-129158633D01*
X147146670Y-129198058D01*
X147158732Y-129251462D01*
X147166096Y-129323651D01*
X147170264Y-129419432D01*
X147170629Y-129433078D01*
X147175876Y-129638842D01*
X147131716Y-129661678D01*
X147099763Y-129677110D01*
X147080470Y-129684423D01*
X147079578Y-129684514D01*
X147076239Y-129671022D01*
X147073587Y-129634626D01*
X147071956Y-129581452D01*
X147071600Y-129538393D01*
X147071592Y-129468641D01*
X147068403Y-129424837D01*
X147057288Y-129403944D01*
X147033501Y-129402925D01*
X146992296Y-129418741D01*
X146930086Y-129447815D01*
X146884341Y-129471963D01*
X146860813Y-129492913D01*
X146853896Y-129515747D01*
X146853886Y-129516877D01*
X146865299Y-129556212D01*
X146899092Y-129577462D01*
X146950809Y-129580539D01*
X146988061Y-129580006D01*
X147007703Y-129590735D01*
X147019952Y-129616505D01*
X147027002Y-129649337D01*
X147016842Y-129667966D01*
X147013017Y-129670632D01*
X146977001Y-129681340D01*
X146926566Y-129682856D01*
X146874626Y-129675759D01*
X146837822Y-129662788D01*
X146786938Y-129619585D01*
X146758014Y-129559446D01*
X146752286Y-129512462D01*
X146756657Y-129470082D01*
X146772475Y-129435488D01*
X146803797Y-129404763D01*
X146854678Y-129373990D01*
X146929176Y-129339252D01*
X146933714Y-129337288D01*
X147000821Y-129306287D01*
X147042232Y-129280862D01*
X147059981Y-129258014D01*
X147056107Y-129234745D01*
X147032643Y-129208056D01*
X147025627Y-129201914D01*
X146978630Y-129178100D01*
X146929933Y-129179103D01*
X146887522Y-129202451D01*
X146859384Y-129245675D01*
X146856769Y-129254160D01*
X146831308Y-129295308D01*
X146799001Y-129315128D01*
X146752286Y-129334770D01*
X146752286Y-129283950D01*
X146766496Y-129210082D01*
X146808675Y-129142327D01*
X146830624Y-129119661D01*
X146880517Y-129090569D01*
X146943967Y-129077400D01*
X147009744Y-129080968D01*
G37*
X147009744Y-129080968D02*
X147066616Y-129102087D01*
X147067267Y-129102493D01*
X147102440Y-129128380D01*
X147128407Y-129158633D01*
X147146670Y-129198058D01*
X147158732Y-129251462D01*
X147166096Y-129323651D01*
X147170264Y-129419432D01*
X147170629Y-129433078D01*
X147175876Y-129638842D01*
X147131716Y-129661678D01*
X147099763Y-129677110D01*
X147080470Y-129684423D01*
X147079578Y-129684514D01*
X147076239Y-129671022D01*
X147073587Y-129634626D01*
X147071956Y-129581452D01*
X147071600Y-129538393D01*
X147071592Y-129468641D01*
X147068403Y-129424837D01*
X147057288Y-129403944D01*
X147033501Y-129402925D01*
X146992296Y-129418741D01*
X146930086Y-129447815D01*
X146884341Y-129471963D01*
X146860813Y-129492913D01*
X146853896Y-129515747D01*
X146853886Y-129516877D01*
X146865299Y-129556212D01*
X146899092Y-129577462D01*
X146950809Y-129580539D01*
X146988061Y-129580006D01*
X147007703Y-129590735D01*
X147019952Y-129616505D01*
X147027002Y-129649337D01*
X147016842Y-129667966D01*
X147013017Y-129670632D01*
X146977001Y-129681340D01*
X146926566Y-129682856D01*
X146874626Y-129675759D01*
X146837822Y-129662788D01*
X146786938Y-129619585D01*
X146758014Y-129559446D01*
X146752286Y-129512462D01*
X146756657Y-129470082D01*
X146772475Y-129435488D01*
X146803797Y-129404763D01*
X146854678Y-129373990D01*
X146929176Y-129339252D01*
X146933714Y-129337288D01*
X147000821Y-129306287D01*
X147042232Y-129280862D01*
X147059981Y-129258014D01*
X147056107Y-129234745D01*
X147032643Y-129208056D01*
X147025627Y-129201914D01*
X146978630Y-129178100D01*
X146929933Y-129179103D01*
X146887522Y-129202451D01*
X146859384Y-129245675D01*
X146856769Y-129254160D01*
X146831308Y-129295308D01*
X146799001Y-129315128D01*
X146752286Y-129334770D01*
X146752286Y-129283950D01*
X146766496Y-129210082D01*
X146808675Y-129142327D01*
X146830624Y-129119661D01*
X146880517Y-129090569D01*
X146943967Y-129077400D01*
X147009744Y-129080968D01*
G36*
X146345886Y-128981289D02*
G01*
X146350139Y-129040613D01*
X146355025Y-129075572D01*
X146361795Y-129090820D01*
X146371702Y-129091015D01*
X146374914Y-129089195D01*
X146417644Y-129076015D01*
X146473227Y-129076785D01*
X146529737Y-129090333D01*
X146565082Y-129107861D01*
X146601321Y-129135861D01*
X146627813Y-129167549D01*
X146645999Y-129207813D01*
X146657322Y-129261543D01*
X146663222Y-129333626D01*
X146665143Y-129428951D01*
X146665177Y-129447237D01*
X146665200Y-129652646D01*
X146619491Y-129668580D01*
X146587027Y-129679420D01*
X146569215Y-129684468D01*
X146568691Y-129684514D01*
X146566937Y-129670828D01*
X146565444Y-129633076D01*
X146564326Y-129576224D01*
X146563697Y-129505234D01*
X146563600Y-129462073D01*
X146563398Y-129376973D01*
X146562358Y-129315981D01*
X146559831Y-129274177D01*
X146555164Y-129246642D01*
X146547707Y-129228456D01*
X146536811Y-129214698D01*
X146530007Y-129208073D01*
X146483272Y-129181375D01*
X146432272Y-129179375D01*
X146386001Y-129201955D01*
X146377444Y-129210107D01*
X146364893Y-129225436D01*
X146356188Y-129243618D01*
X146350631Y-129269909D01*
X146347526Y-129309562D01*
X146346176Y-129367832D01*
X146345886Y-129448173D01*
X146345886Y-129652646D01*
X146300177Y-129668580D01*
X146267713Y-129679420D01*
X146249901Y-129684468D01*
X146249377Y-129684514D01*
X146248037Y-129670623D01*
X146246828Y-129631439D01*
X146245801Y-129570700D01*
X146245002Y-129492141D01*
X146244481Y-129399498D01*
X146244286Y-129296509D01*
X146244286Y-128899342D01*
X146291457Y-128879444D01*
X146338629Y-128859547D01*
X146345886Y-128981289D01*
G37*
X146345886Y-128981289D02*
X146350139Y-129040613D01*
X146355025Y-129075572D01*
X146361795Y-129090820D01*
X146371702Y-129091015D01*
X146374914Y-129089195D01*
X146417644Y-129076015D01*
X146473227Y-129076785D01*
X146529737Y-129090333D01*
X146565082Y-129107861D01*
X146601321Y-129135861D01*
X146627813Y-129167549D01*
X146645999Y-129207813D01*
X146657322Y-129261543D01*
X146663222Y-129333626D01*
X146665143Y-129428951D01*
X146665177Y-129447237D01*
X146665200Y-129652646D01*
X146619491Y-129668580D01*
X146587027Y-129679420D01*
X146569215Y-129684468D01*
X146568691Y-129684514D01*
X146566937Y-129670828D01*
X146565444Y-129633076D01*
X146564326Y-129576224D01*
X146563697Y-129505234D01*
X146563600Y-129462073D01*
X146563398Y-129376973D01*
X146562358Y-129315981D01*
X146559831Y-129274177D01*
X146555164Y-129246642D01*
X146547707Y-129228456D01*
X146536811Y-129214698D01*
X146530007Y-129208073D01*
X146483272Y-129181375D01*
X146432272Y-129179375D01*
X146386001Y-129201955D01*
X146377444Y-129210107D01*
X146364893Y-129225436D01*
X146356188Y-129243618D01*
X146350631Y-129269909D01*
X146347526Y-129309562D01*
X146346176Y-129367832D01*
X146345886Y-129448173D01*
X146345886Y-129652646D01*
X146300177Y-129668580D01*
X146267713Y-129679420D01*
X146249901Y-129684468D01*
X146249377Y-129684514D01*
X146248037Y-129670623D01*
X146246828Y-129631439D01*
X146245801Y-129570700D01*
X146245002Y-129492141D01*
X146244481Y-129399498D01*
X146244286Y-129296509D01*
X146244286Y-128899342D01*
X146291457Y-128879444D01*
X146338629Y-128859547D01*
X146345886Y-128981289D01*
G36*
X145138303Y-129061239D02*
G01*
X145195527Y-129099735D01*
X145239749Y-129155335D01*
X145266167Y-129226086D01*
X145271510Y-129278162D01*
X145270903Y-129299893D01*
X145265822Y-129316531D01*
X145251855Y-129331437D01*
X145224589Y-129347973D01*
X145179612Y-129369498D01*
X145112511Y-129399374D01*
X145112171Y-129399524D01*
X145050407Y-129427813D01*
X144999759Y-129452933D01*
X144965404Y-129472179D01*
X144952518Y-129482848D01*
X144952514Y-129482934D01*
X144963872Y-129506166D01*
X144990431Y-129531774D01*
X145020923Y-129550221D01*
X145036370Y-129553886D01*
X145078515Y-129541212D01*
X145114808Y-129509471D01*
X145132517Y-129474572D01*
X145149552Y-129448845D01*
X145182922Y-129419546D01*
X145222149Y-129394235D01*
X145256756Y-129380471D01*
X145263993Y-129379714D01*
X145272139Y-129392160D01*
X145272630Y-129423972D01*
X145266643Y-129466866D01*
X145255357Y-129512558D01*
X145239950Y-129552761D01*
X145239171Y-129554322D01*
X145192804Y-129619062D01*
X145132711Y-129663097D01*
X145064465Y-129684711D01*
X144993638Y-129682185D01*
X144925804Y-129653804D01*
X144922788Y-129651808D01*
X144869427Y-129603448D01*
X144834340Y-129540352D01*
X144814922Y-129457387D01*
X144812316Y-129434078D01*
X144807701Y-129324055D01*
X144813233Y-129272748D01*
X144952514Y-129272748D01*
X144954324Y-129304753D01*
X144964222Y-129314093D01*
X144988898Y-129307105D01*
X145027795Y-129290587D01*
X145071275Y-129269881D01*
X145072356Y-129269333D01*
X145109209Y-129249949D01*
X145124000Y-129237013D01*
X145120353Y-129223451D01*
X145104995Y-129205632D01*
X145065923Y-129179845D01*
X145023846Y-129177950D01*
X144986103Y-129196717D01*
X144960034Y-129232915D01*
X144952514Y-129272748D01*
X144813233Y-129272748D01*
X144817194Y-129236027D01*
X144841550Y-129166212D01*
X144875456Y-129117302D01*
X144936653Y-129067878D01*
X145004063Y-129043359D01*
X145072880Y-129041797D01*
X145138303Y-129061239D01*
G37*
X145138303Y-129061239D02*
X145195527Y-129099735D01*
X145239749Y-129155335D01*
X145266167Y-129226086D01*
X145271510Y-129278162D01*
X145270903Y-129299893D01*
X145265822Y-129316531D01*
X145251855Y-129331437D01*
X145224589Y-129347973D01*
X145179612Y-129369498D01*
X145112511Y-129399374D01*
X145112171Y-129399524D01*
X145050407Y-129427813D01*
X144999759Y-129452933D01*
X144965404Y-129472179D01*
X144952518Y-129482848D01*
X144952514Y-129482934D01*
X144963872Y-129506166D01*
X144990431Y-129531774D01*
X145020923Y-129550221D01*
X145036370Y-129553886D01*
X145078515Y-129541212D01*
X145114808Y-129509471D01*
X145132517Y-129474572D01*
X145149552Y-129448845D01*
X145182922Y-129419546D01*
X145222149Y-129394235D01*
X145256756Y-129380471D01*
X145263993Y-129379714D01*
X145272139Y-129392160D01*
X145272630Y-129423972D01*
X145266643Y-129466866D01*
X145255357Y-129512558D01*
X145239950Y-129552761D01*
X145239171Y-129554322D01*
X145192804Y-129619062D01*
X145132711Y-129663097D01*
X145064465Y-129684711D01*
X144993638Y-129682185D01*
X144925804Y-129653804D01*
X144922788Y-129651808D01*
X144869427Y-129603448D01*
X144834340Y-129540352D01*
X144814922Y-129457387D01*
X144812316Y-129434078D01*
X144807701Y-129324055D01*
X144813233Y-129272748D01*
X144952514Y-129272748D01*
X144954324Y-129304753D01*
X144964222Y-129314093D01*
X144988898Y-129307105D01*
X145027795Y-129290587D01*
X145071275Y-129269881D01*
X145072356Y-129269333D01*
X145109209Y-129249949D01*
X145124000Y-129237013D01*
X145120353Y-129223451D01*
X145104995Y-129205632D01*
X145065923Y-129179845D01*
X145023846Y-129177950D01*
X144986103Y-129196717D01*
X144960034Y-129232915D01*
X144952514Y-129272748D01*
X144813233Y-129272748D01*
X144817194Y-129236027D01*
X144841550Y-129166212D01*
X144875456Y-129117302D01*
X144936653Y-129067878D01*
X145004063Y-129043359D01*
X145072880Y-129041797D01*
X145138303Y-129061239D01*
G36*
X144011115Y-129051962D02*
G01*
X144079145Y-129087733D01*
X144129351Y-129145301D01*
X144147185Y-129182312D01*
X144161063Y-129237882D01*
X144168167Y-129308096D01*
X144168840Y-129384727D01*
X144163427Y-129459552D01*
X144152270Y-129524342D01*
X144135714Y-129570873D01*
X144130626Y-129578887D01*
X144070355Y-129638707D01*
X143998769Y-129674535D01*
X143921092Y-129685020D01*
X143842548Y-129668810D01*
X143820689Y-129659092D01*
X143778122Y-129629143D01*
X143740763Y-129589433D01*
X143737232Y-129584397D01*
X143722881Y-129560124D01*
X143713394Y-129534178D01*
X143707790Y-129500022D01*
X143705086Y-129451119D01*
X143704299Y-129380935D01*
X143704286Y-129365200D01*
X143704322Y-129360192D01*
X143849429Y-129360192D01*
X143850273Y-129426430D01*
X143853596Y-129470386D01*
X143860583Y-129498779D01*
X143872416Y-129518325D01*
X143878457Y-129524857D01*
X143913186Y-129549680D01*
X143946903Y-129548548D01*
X143980995Y-129527016D01*
X144001329Y-129504029D01*
X144013371Y-129470478D01*
X144020134Y-129417569D01*
X144020598Y-129411399D01*
X144021752Y-129315513D01*
X144009688Y-129244299D01*
X143984570Y-129198194D01*
X143946560Y-129177635D01*
X143932992Y-129176514D01*
X143897364Y-129182152D01*
X143872994Y-129201686D01*
X143858093Y-129239042D01*
X143850875Y-129298150D01*
X143849429Y-129360192D01*
X143704322Y-129360192D01*
X143704826Y-129290413D01*
X143707096Y-129238159D01*
X143712068Y-129201949D01*
X143720713Y-129175299D01*
X143734005Y-129151722D01*
X143736943Y-129147338D01*
X143786313Y-129088249D01*
X143840109Y-129053947D01*
X143905602Y-129040331D01*
X143927842Y-129039665D01*
X144011115Y-129051962D01*
G37*
X144011115Y-129051962D02*
X144079145Y-129087733D01*
X144129351Y-129145301D01*
X144147185Y-129182312D01*
X144161063Y-129237882D01*
X144168167Y-129308096D01*
X144168840Y-129384727D01*
X144163427Y-129459552D01*
X144152270Y-129524342D01*
X144135714Y-129570873D01*
X144130626Y-129578887D01*
X144070355Y-129638707D01*
X143998769Y-129674535D01*
X143921092Y-129685020D01*
X143842548Y-129668810D01*
X143820689Y-129659092D01*
X143778122Y-129629143D01*
X143740763Y-129589433D01*
X143737232Y-129584397D01*
X143722881Y-129560124D01*
X143713394Y-129534178D01*
X143707790Y-129500022D01*
X143705086Y-129451119D01*
X143704299Y-129380935D01*
X143704286Y-129365200D01*
X143704322Y-129360192D01*
X143849429Y-129360192D01*
X143850273Y-129426430D01*
X143853596Y-129470386D01*
X143860583Y-129498779D01*
X143872416Y-129518325D01*
X143878457Y-129524857D01*
X143913186Y-129549680D01*
X143946903Y-129548548D01*
X143980995Y-129527016D01*
X144001329Y-129504029D01*
X144013371Y-129470478D01*
X144020134Y-129417569D01*
X144020598Y-129411399D01*
X144021752Y-129315513D01*
X144009688Y-129244299D01*
X143984570Y-129198194D01*
X143946560Y-129177635D01*
X143932992Y-129176514D01*
X143897364Y-129182152D01*
X143872994Y-129201686D01*
X143858093Y-129239042D01*
X143850875Y-129298150D01*
X143849429Y-129360192D01*
X143704322Y-129360192D01*
X143704826Y-129290413D01*
X143707096Y-129238159D01*
X143712068Y-129201949D01*
X143720713Y-129175299D01*
X143734005Y-129151722D01*
X143736943Y-129147338D01*
X143786313Y-129088249D01*
X143840109Y-129053947D01*
X143905602Y-129040331D01*
X143927842Y-129039665D01*
X144011115Y-129051962D01*
G36*
X145686093Y-129057780D02*
G01*
X145732672Y-129084723D01*
X145765057Y-129111466D01*
X145788742Y-129139484D01*
X145805059Y-129173748D01*
X145815339Y-129219227D01*
X145820914Y-129280892D01*
X145823116Y-129363711D01*
X145823371Y-129423246D01*
X145823371Y-129642391D01*
X145761686Y-129670044D01*
X145700000Y-129697697D01*
X145692743Y-129457670D01*
X145689744Y-129368028D01*
X145686598Y-129302962D01*
X145682701Y-129258026D01*
X145677447Y-129228770D01*
X145670231Y-129210748D01*
X145660450Y-129199511D01*
X145657312Y-129197079D01*
X145609761Y-129178083D01*
X145561697Y-129185600D01*
X145533086Y-129205543D01*
X145521447Y-129219675D01*
X145513391Y-129238220D01*
X145508271Y-129266334D01*
X145505441Y-129309173D01*
X145504256Y-129371895D01*
X145504057Y-129437261D01*
X145504018Y-129519268D01*
X145502614Y-129577316D01*
X145497914Y-129616465D01*
X145487987Y-129641780D01*
X145470903Y-129658323D01*
X145444732Y-129671156D01*
X145409775Y-129684491D01*
X145371596Y-129699007D01*
X145376141Y-129441389D01*
X145377971Y-129348519D01*
X145380112Y-129279889D01*
X145383181Y-129230711D01*
X145387794Y-129196198D01*
X145394568Y-129171562D01*
X145404119Y-129152016D01*
X145415634Y-129134770D01*
X145471190Y-129079680D01*
X145538980Y-129047822D01*
X145612713Y-129040191D01*
X145686093Y-129057780D01*
G37*
X145686093Y-129057780D02*
X145732672Y-129084723D01*
X145765057Y-129111466D01*
X145788742Y-129139484D01*
X145805059Y-129173748D01*
X145815339Y-129219227D01*
X145820914Y-129280892D01*
X145823116Y-129363711D01*
X145823371Y-129423246D01*
X145823371Y-129642391D01*
X145761686Y-129670044D01*
X145700000Y-129697697D01*
X145692743Y-129457670D01*
X145689744Y-129368028D01*
X145686598Y-129302962D01*
X145682701Y-129258026D01*
X145677447Y-129228770D01*
X145670231Y-129210748D01*
X145660450Y-129199511D01*
X145657312Y-129197079D01*
X145609761Y-129178083D01*
X145561697Y-129185600D01*
X145533086Y-129205543D01*
X145521447Y-129219675D01*
X145513391Y-129238220D01*
X145508271Y-129266334D01*
X145505441Y-129309173D01*
X145504256Y-129371895D01*
X145504057Y-129437261D01*
X145504018Y-129519268D01*
X145502614Y-129577316D01*
X145497914Y-129616465D01*
X145487987Y-129641780D01*
X145470903Y-129658323D01*
X145444732Y-129671156D01*
X145409775Y-129684491D01*
X145371596Y-129699007D01*
X145376141Y-129441389D01*
X145377971Y-129348519D01*
X145380112Y-129279889D01*
X145383181Y-129230711D01*
X145387794Y-129196198D01*
X145394568Y-129171562D01*
X145404119Y-129152016D01*
X145415634Y-129134770D01*
X145471190Y-129079680D01*
X145538980Y-129047822D01*
X145612713Y-129040191D01*
X145686093Y-129057780D01*
G36*
X144569744Y-129049918D02*
G01*
X144625201Y-129077568D01*
X144674148Y-129128480D01*
X144687629Y-129147338D01*
X144702314Y-129172015D01*
X144711842Y-129198816D01*
X144717293Y-129234587D01*
X144719747Y-129286169D01*
X144720286Y-129354267D01*
X144717852Y-129447588D01*
X144709394Y-129517657D01*
X144693174Y-129569931D01*
X144667454Y-129609869D01*
X144630497Y-129642929D01*
X144627782Y-129644886D01*
X144591360Y-129664908D01*
X144547502Y-129674815D01*
X144491724Y-129677257D01*
X144401048Y-129677257D01*
X144401010Y-129765283D01*
X144400166Y-129814308D01*
X144395024Y-129843065D01*
X144381587Y-129860311D01*
X144355858Y-129874808D01*
X144349679Y-129877769D01*
X144320764Y-129891648D01*
X144298376Y-129900414D01*
X144281729Y-129901171D01*
X144270036Y-129891023D01*
X144262510Y-129867073D01*
X144258366Y-129826426D01*
X144256815Y-129766186D01*
X144257071Y-129683455D01*
X144258349Y-129575339D01*
X144258748Y-129543000D01*
X144260185Y-129431524D01*
X144261472Y-129358603D01*
X144400971Y-129358603D01*
X144401755Y-129420499D01*
X144405240Y-129460997D01*
X144413124Y-129487708D01*
X144427105Y-129508244D01*
X144436597Y-129518260D01*
X144475404Y-129547567D01*
X144509763Y-129549952D01*
X144545216Y-129525750D01*
X144546114Y-129524857D01*
X144560539Y-129506153D01*
X144569313Y-129480732D01*
X144573739Y-129441584D01*
X144575118Y-129381697D01*
X144575143Y-129368430D01*
X144571812Y-129285901D01*
X144560969Y-129228691D01*
X144541340Y-129193766D01*
X144511650Y-129178094D01*
X144494491Y-129176514D01*
X144453766Y-129183926D01*
X144425832Y-129208330D01*
X144409017Y-129252980D01*
X144401650Y-129321130D01*
X144400971Y-129358603D01*
X144261472Y-129358603D01*
X144261708Y-129345245D01*
X144263677Y-129280333D01*
X144266450Y-129232958D01*
X144270388Y-129199290D01*
X144275849Y-129175498D01*
X144283192Y-129157753D01*
X144292777Y-129142224D01*
X144296887Y-129136381D01*
X144351405Y-129081185D01*
X144420336Y-129049890D01*
X144500072Y-129041165D01*
X144569744Y-129049918D01*
G37*
X144569744Y-129049918D02*
X144625201Y-129077568D01*
X144674148Y-129128480D01*
X144687629Y-129147338D01*
X144702314Y-129172015D01*
X144711842Y-129198816D01*
X144717293Y-129234587D01*
X144719747Y-129286169D01*
X144720286Y-129354267D01*
X144717852Y-129447588D01*
X144709394Y-129517657D01*
X144693174Y-129569931D01*
X144667454Y-129609869D01*
X144630497Y-129642929D01*
X144627782Y-129644886D01*
X144591360Y-129664908D01*
X144547502Y-129674815D01*
X144491724Y-129677257D01*
X144401048Y-129677257D01*
X144401010Y-129765283D01*
X144400166Y-129814308D01*
X144395024Y-129843065D01*
X144381587Y-129860311D01*
X144355858Y-129874808D01*
X144349679Y-129877769D01*
X144320764Y-129891648D01*
X144298376Y-129900414D01*
X144281729Y-129901171D01*
X144270036Y-129891023D01*
X144262510Y-129867073D01*
X144258366Y-129826426D01*
X144256815Y-129766186D01*
X144257071Y-129683455D01*
X144258349Y-129575339D01*
X144258748Y-129543000D01*
X144260185Y-129431524D01*
X144261472Y-129358603D01*
X144400971Y-129358603D01*
X144401755Y-129420499D01*
X144405240Y-129460997D01*
X144413124Y-129487708D01*
X144427105Y-129508244D01*
X144436597Y-129518260D01*
X144475404Y-129547567D01*
X144509763Y-129549952D01*
X144545216Y-129525750D01*
X144546114Y-129524857D01*
X144560539Y-129506153D01*
X144569313Y-129480732D01*
X144573739Y-129441584D01*
X144575118Y-129381697D01*
X144575143Y-129368430D01*
X144571812Y-129285901D01*
X144560969Y-129228691D01*
X144541340Y-129193766D01*
X144511650Y-129178094D01*
X144494491Y-129176514D01*
X144453766Y-129183926D01*
X144425832Y-129208330D01*
X144409017Y-129252980D01*
X144401650Y-129321130D01*
X144400971Y-129358603D01*
X144261472Y-129358603D01*
X144261708Y-129345245D01*
X144263677Y-129280333D01*
X144266450Y-129232958D01*
X144270388Y-129199290D01*
X144275849Y-129175498D01*
X144283192Y-129157753D01*
X144292777Y-129142224D01*
X144296887Y-129136381D01*
X144351405Y-129081185D01*
X144420336Y-129049890D01*
X144500072Y-129041165D01*
X144569744Y-129049918D01*
G36*
X146914043Y-116585835D02*
G01*
X146937065Y-116623245D01*
X146972534Y-116682514D01*
X147018996Y-116761118D01*
X147074996Y-116856538D01*
X147139081Y-116966250D01*
X147209796Y-117087734D01*
X147285687Y-117218468D01*
X147365299Y-117355930D01*
X147447178Y-117497598D01*
X147529870Y-117640951D01*
X147611921Y-117783467D01*
X147691876Y-117922624D01*
X147768281Y-118055901D01*
X147839682Y-118180776D01*
X147904624Y-118294727D01*
X147961653Y-118395233D01*
X148009315Y-118479772D01*
X148046155Y-118545822D01*
X148070720Y-118590862D01*
X148081554Y-118612370D01*
X148081951Y-118613714D01*
X148068501Y-118631965D01*
X148031114Y-118659882D01*
X147974235Y-118694725D01*
X147902312Y-118733754D01*
X147827015Y-118770843D01*
X147724560Y-118815817D01*
X147616817Y-118856226D01*
X147500073Y-118892969D01*
X147370618Y-118926942D01*
X147224740Y-118959044D01*
X147058726Y-118990173D01*
X146868866Y-119021227D01*
X146672469Y-119050145D01*
X146501834Y-119075800D01*
X146358545Y-119101198D01*
X146239008Y-119127602D01*
X146139630Y-119156273D01*
X146056818Y-119188473D01*
X145986978Y-119225465D01*
X145926518Y-119268512D01*
X145871845Y-119318875D01*
X145854214Y-119337583D01*
X145816000Y-119381139D01*
X145787732Y-119416682D01*
X145774618Y-119437583D01*
X145774268Y-119439297D01*
X145769680Y-119449806D01*
X145753758Y-119449924D01*
X145723266Y-119438254D01*
X145674968Y-119413396D01*
X145605627Y-119373952D01*
X145557439Y-119345587D01*
X145485583Y-119301247D01*
X145429742Y-119263279D01*
X145393667Y-119234416D01*
X145381113Y-119217388D01*
X145381121Y-119217264D01*
X145388906Y-119201037D01*
X145410892Y-119160400D01*
X145445803Y-119097567D01*
X145492363Y-119014752D01*
X145549295Y-118914172D01*
X145615323Y-118798040D01*
X145689172Y-118668571D01*
X145769564Y-118527980D01*
X145855224Y-118378482D01*
X145944876Y-118222292D01*
X146037243Y-118061624D01*
X146131049Y-117898693D01*
X146225018Y-117735713D01*
X146317874Y-117574900D01*
X146408340Y-117418468D01*
X146495141Y-117268633D01*
X146577000Y-117127608D01*
X146652641Y-116997609D01*
X146720787Y-116880849D01*
X146780163Y-116779545D01*
X146829493Y-116695911D01*
X146867500Y-116632162D01*
X146892907Y-116590511D01*
X146904440Y-116573175D01*
X146904923Y-116572805D01*
X146914043Y-116585835D01*
G37*
X146914043Y-116585835D02*
X146937065Y-116623245D01*
X146972534Y-116682514D01*
X147018996Y-116761118D01*
X147074996Y-116856538D01*
X147139081Y-116966250D01*
X147209796Y-117087734D01*
X147285687Y-117218468D01*
X147365299Y-117355930D01*
X147447178Y-117497598D01*
X147529870Y-117640951D01*
X147611921Y-117783467D01*
X147691876Y-117922624D01*
X147768281Y-118055901D01*
X147839682Y-118180776D01*
X147904624Y-118294727D01*
X147961653Y-118395233D01*
X148009315Y-118479772D01*
X148046155Y-118545822D01*
X148070720Y-118590862D01*
X148081554Y-118612370D01*
X148081951Y-118613714D01*
X148068501Y-118631965D01*
X148031114Y-118659882D01*
X147974235Y-118694725D01*
X147902312Y-118733754D01*
X147827015Y-118770843D01*
X147724560Y-118815817D01*
X147616817Y-118856226D01*
X147500073Y-118892969D01*
X147370618Y-118926942D01*
X147224740Y-118959044D01*
X147058726Y-118990173D01*
X146868866Y-119021227D01*
X146672469Y-119050145D01*
X146501834Y-119075800D01*
X146358545Y-119101198D01*
X146239008Y-119127602D01*
X146139630Y-119156273D01*
X146056818Y-119188473D01*
X145986978Y-119225465D01*
X145926518Y-119268512D01*
X145871845Y-119318875D01*
X145854214Y-119337583D01*
X145816000Y-119381139D01*
X145787732Y-119416682D01*
X145774618Y-119437583D01*
X145774268Y-119439297D01*
X145769680Y-119449806D01*
X145753758Y-119449924D01*
X145723266Y-119438254D01*
X145674968Y-119413396D01*
X145605627Y-119373952D01*
X145557439Y-119345587D01*
X145485583Y-119301247D01*
X145429742Y-119263279D01*
X145393667Y-119234416D01*
X145381113Y-119217388D01*
X145381121Y-119217264D01*
X145388906Y-119201037D01*
X145410892Y-119160400D01*
X145445803Y-119097567D01*
X145492363Y-119014752D01*
X145549295Y-118914172D01*
X145615323Y-118798040D01*
X145689172Y-118668571D01*
X145769564Y-118527980D01*
X145855224Y-118378482D01*
X145944876Y-118222292D01*
X146037243Y-118061624D01*
X146131049Y-117898693D01*
X146225018Y-117735713D01*
X146317874Y-117574900D01*
X146408340Y-117418468D01*
X146495141Y-117268633D01*
X146577000Y-117127608D01*
X146652641Y-116997609D01*
X146720787Y-116880849D01*
X146780163Y-116779545D01*
X146829493Y-116695911D01*
X146867500Y-116632162D01*
X146892907Y-116590511D01*
X146904440Y-116573175D01*
X146904923Y-116572805D01*
X146914043Y-116585835D01*
G36*
X148737528Y-119734619D02*
G01*
X148748908Y-119753693D01*
X148774488Y-119797421D01*
X148813002Y-119863619D01*
X148863186Y-119950102D01*
X148923775Y-120054685D01*
X148993503Y-120175183D01*
X149071107Y-120309412D01*
X149155320Y-120455187D01*
X149244879Y-120610323D01*
X149336998Y-120770000D01*
X149431076Y-120933117D01*
X149521402Y-121089709D01*
X149606665Y-121237506D01*
X149685557Y-121374240D01*
X149756769Y-121497642D01*
X149818991Y-121605444D01*
X149870913Y-121695377D01*
X149911228Y-121765173D01*
X149938624Y-121812564D01*
X149951507Y-121834786D01*
X149972507Y-121872330D01*
X149983925Y-121895831D01*
X149984551Y-121899920D01*
X149970636Y-121892242D01*
X149931941Y-121870203D01*
X149870487Y-121834971D01*
X149788298Y-121787711D01*
X149687396Y-121729589D01*
X149569805Y-121661771D01*
X149437546Y-121585424D01*
X149292642Y-121501714D01*
X149137117Y-121411806D01*
X148972992Y-121316867D01*
X148910549Y-121280732D01*
X148743487Y-121184083D01*
X148584074Y-121091938D01*
X148434355Y-121005475D01*
X148296376Y-120925871D01*
X148172185Y-120854305D01*
X148063827Y-120791955D01*
X147973348Y-120739998D01*
X147902796Y-120699613D01*
X147854215Y-120671978D01*
X147829654Y-120658272D01*
X147827085Y-120656974D01*
X147834569Y-120645220D01*
X147860614Y-120613795D01*
X147902559Y-120565594D01*
X147957746Y-120503510D01*
X148023517Y-120430439D01*
X148097212Y-120349276D01*
X148176173Y-120262916D01*
X148257740Y-120174253D01*
X148339254Y-120086182D01*
X148418057Y-120001599D01*
X148491490Y-119923397D01*
X148556893Y-119854472D01*
X148611608Y-119797719D01*
X148652977Y-119756032D01*
X148667164Y-119742363D01*
X148714180Y-119698201D01*
X148737528Y-119734619D01*
G37*
X148737528Y-119734619D02*
X148748908Y-119753693D01*
X148774488Y-119797421D01*
X148813002Y-119863619D01*
X148863186Y-119950102D01*
X148923775Y-120054685D01*
X148993503Y-120175183D01*
X149071107Y-120309412D01*
X149155320Y-120455187D01*
X149244879Y-120610323D01*
X149336998Y-120770000D01*
X149431076Y-120933117D01*
X149521402Y-121089709D01*
X149606665Y-121237506D01*
X149685557Y-121374240D01*
X149756769Y-121497642D01*
X149818991Y-121605444D01*
X149870913Y-121695377D01*
X149911228Y-121765173D01*
X149938624Y-121812564D01*
X149951507Y-121834786D01*
X149972507Y-121872330D01*
X149983925Y-121895831D01*
X149984551Y-121899920D01*
X149970636Y-121892242D01*
X149931941Y-121870203D01*
X149870487Y-121834971D01*
X149788298Y-121787711D01*
X149687396Y-121729589D01*
X149569805Y-121661771D01*
X149437546Y-121585424D01*
X149292642Y-121501714D01*
X149137117Y-121411806D01*
X148972992Y-121316867D01*
X148910549Y-121280732D01*
X148743487Y-121184083D01*
X148584074Y-121091938D01*
X148434355Y-121005475D01*
X148296376Y-120925871D01*
X148172185Y-120854305D01*
X148063827Y-120791955D01*
X147973348Y-120739998D01*
X147902796Y-120699613D01*
X147854215Y-120671978D01*
X147829654Y-120658272D01*
X147827085Y-120656974D01*
X147834569Y-120645220D01*
X147860614Y-120613795D01*
X147902559Y-120565594D01*
X147957746Y-120503510D01*
X148023517Y-120430439D01*
X148097212Y-120349276D01*
X148176173Y-120262916D01*
X148257740Y-120174253D01*
X148339254Y-120086182D01*
X148418057Y-120001599D01*
X148491490Y-119923397D01*
X148556893Y-119854472D01*
X148611608Y-119797719D01*
X148652977Y-119756032D01*
X148667164Y-119742363D01*
X148714180Y-119698201D01*
X148737528Y-119734619D01*
G36*
X145072094Y-119791158D02*
G01*
X145104619Y-119803736D01*
X145154193Y-119828712D01*
X145225374Y-119867876D01*
X145230916Y-119870988D01*
X145296474Y-119908476D01*
X145351798Y-119941319D01*
X145391455Y-119966205D01*
X145410012Y-119979820D01*
X145410531Y-119980487D01*
X145406048Y-119999390D01*
X145385486Y-120041605D01*
X145350183Y-120104832D01*
X145301480Y-120186772D01*
X145240718Y-120285122D01*
X145169236Y-120397585D01*
X145151445Y-120425165D01*
X145105093Y-120501699D01*
X145071342Y-120567556D01*
X145053153Y-120616782D01*
X145051286Y-120626507D01*
X145052115Y-120669312D01*
X145061394Y-120737209D01*
X145077968Y-120825843D01*
X145100680Y-120930859D01*
X145128373Y-121047902D01*
X145159890Y-121172616D01*
X145194075Y-121300645D01*
X145229771Y-121427634D01*
X145265821Y-121549228D01*
X145301068Y-121661072D01*
X145334356Y-121758810D01*
X145364528Y-121838087D01*
X145385561Y-121885122D01*
X145410337Y-121935225D01*
X145433730Y-121983168D01*
X145434997Y-121985793D01*
X145473699Y-122034220D01*
X145530184Y-122066828D01*
X145595939Y-122082454D01*
X145662451Y-122079937D01*
X145721205Y-122058114D01*
X145754258Y-122029382D01*
X145801859Y-121950583D01*
X145836739Y-121852378D01*
X145855877Y-121744779D01*
X145858588Y-121683780D01*
X145847670Y-121569935D01*
X145815624Y-121475660D01*
X145760726Y-121396379D01*
X145743607Y-121378733D01*
X145692661Y-121329235D01*
X145689163Y-120979362D01*
X145685664Y-120629489D01*
X145774818Y-120494531D01*
X145816654Y-120433445D01*
X145856945Y-120378493D01*
X145889943Y-120337336D01*
X145904126Y-120322192D01*
X145944281Y-120284810D01*
X145998665Y-120314098D01*
X146033039Y-120335084D01*
X146051846Y-120351378D01*
X146053049Y-120354307D01*
X146065903Y-120366728D01*
X146087896Y-120375977D01*
X146109150Y-120384313D01*
X146141694Y-120400149D01*
X146188322Y-120425033D01*
X146251829Y-120460509D01*
X146335008Y-120508123D01*
X146440653Y-120569422D01*
X146498062Y-120602932D01*
X146565594Y-120643071D01*
X146609885Y-120671659D01*
X146634855Y-120692039D01*
X146644423Y-120707553D01*
X146642508Y-120721546D01*
X146640911Y-120724796D01*
X146625376Y-120745266D01*
X146592136Y-120783665D01*
X146545062Y-120835696D01*
X146488028Y-120897066D01*
X146438700Y-120949090D01*
X146325030Y-121072567D01*
X146236105Y-121179591D01*
X146171134Y-121271240D01*
X146129321Y-121348588D01*
X146115217Y-121387866D01*
X146109392Y-121422249D01*
X146103375Y-121480899D01*
X146097696Y-121557117D01*
X146092884Y-121644202D01*
X146090619Y-121699268D01*
X146087459Y-121794464D01*
X146086069Y-121864062D01*
X146086858Y-121913409D01*
X146090235Y-121947854D01*
X146096608Y-121972743D01*
X146106387Y-121993425D01*
X146114067Y-122006053D01*
X146158421Y-122054726D01*
X146215574Y-122088645D01*
X146275708Y-122103438D01*
X146320773Y-122098086D01*
X146361576Y-122074930D01*
X146412724Y-122033462D01*
X146467042Y-121980912D01*
X146517357Y-121924516D01*
X146556494Y-121871505D01*
X146570905Y-121845889D01*
X146592491Y-121810814D01*
X146631753Y-121757389D01*
X146685102Y-121689789D01*
X146748952Y-121612190D01*
X146819715Y-121528768D01*
X146893804Y-121443698D01*
X146967632Y-121361155D01*
X147037611Y-121285316D01*
X147100155Y-121220356D01*
X147149260Y-121172669D01*
X147203779Y-121125032D01*
X147249642Y-121089908D01*
X147281811Y-121070949D01*
X147292489Y-121068864D01*
X147308853Y-121077274D01*
X147349671Y-121099846D01*
X147412586Y-121135224D01*
X147495244Y-121182054D01*
X147595289Y-121238981D01*
X147710366Y-121304649D01*
X147838119Y-121377703D01*
X147976194Y-121456788D01*
X148122234Y-121540548D01*
X148273884Y-121627629D01*
X148428790Y-121716676D01*
X148584595Y-121806332D01*
X148738944Y-121895243D01*
X148889482Y-121982054D01*
X149033854Y-122065409D01*
X149169704Y-122143954D01*
X149294677Y-122216333D01*
X149406417Y-122281190D01*
X149502570Y-122337171D01*
X149580779Y-122382920D01*
X149638689Y-122417083D01*
X149673946Y-122438304D01*
X149684165Y-122444963D01*
X149670402Y-122446280D01*
X149627104Y-122447559D01*
X149555714Y-122448796D01*
X149457673Y-122449983D01*
X149334422Y-122451115D01*
X149187403Y-122452186D01*
X149018057Y-122453189D01*
X148827826Y-122454119D01*
X148618151Y-122454968D01*
X148390473Y-122455732D01*
X148146235Y-122456403D01*
X147886877Y-122456976D01*
X147613841Y-122457444D01*
X147328568Y-122457802D01*
X147032500Y-122458042D01*
X146727079Y-122458159D01*
X146598924Y-122458171D01*
X143498970Y-122458171D01*
X143720053Y-122074847D01*
X143766856Y-121993680D01*
X143827102Y-121889166D01*
X143898778Y-121764801D01*
X143979869Y-121624082D01*
X144068362Y-121470503D01*
X144162240Y-121307562D01*
X144259491Y-121138754D01*
X144358100Y-120967575D01*
X144456053Y-120797521D01*
X144480825Y-120754512D01*
X144571152Y-120597857D01*
X144657289Y-120448803D01*
X144737942Y-120309568D01*
X144811816Y-120182371D01*
X144877617Y-120069432D01*
X144934050Y-119972968D01*
X144979821Y-119895200D01*
X145013635Y-119838346D01*
X145034198Y-119804625D01*
X145039953Y-119796040D01*
X145052058Y-119789189D01*
X145072094Y-119791158D01*
G37*
X145072094Y-119791158D02*
X145104619Y-119803736D01*
X145154193Y-119828712D01*
X145225374Y-119867876D01*
X145230916Y-119870988D01*
X145296474Y-119908476D01*
X145351798Y-119941319D01*
X145391455Y-119966205D01*
X145410012Y-119979820D01*
X145410531Y-119980487D01*
X145406048Y-119999390D01*
X145385486Y-120041605D01*
X145350183Y-120104832D01*
X145301480Y-120186772D01*
X145240718Y-120285122D01*
X145169236Y-120397585D01*
X145151445Y-120425165D01*
X145105093Y-120501699D01*
X145071342Y-120567556D01*
X145053153Y-120616782D01*
X145051286Y-120626507D01*
X145052115Y-120669312D01*
X145061394Y-120737209D01*
X145077968Y-120825843D01*
X145100680Y-120930859D01*
X145128373Y-121047902D01*
X145159890Y-121172616D01*
X145194075Y-121300645D01*
X145229771Y-121427634D01*
X145265821Y-121549228D01*
X145301068Y-121661072D01*
X145334356Y-121758810D01*
X145364528Y-121838087D01*
X145385561Y-121885122D01*
X145410337Y-121935225D01*
X145433730Y-121983168D01*
X145434997Y-121985793D01*
X145473699Y-122034220D01*
X145530184Y-122066828D01*
X145595939Y-122082454D01*
X145662451Y-122079937D01*
X145721205Y-122058114D01*
X145754258Y-122029382D01*
X145801859Y-121950583D01*
X145836739Y-121852378D01*
X145855877Y-121744779D01*
X145858588Y-121683780D01*
X145847670Y-121569935D01*
X145815624Y-121475660D01*
X145760726Y-121396379D01*
X145743607Y-121378733D01*
X145692661Y-121329235D01*
X145689163Y-120979362D01*
X145685664Y-120629489D01*
X145774818Y-120494531D01*
X145816654Y-120433445D01*
X145856945Y-120378493D01*
X145889943Y-120337336D01*
X145904126Y-120322192D01*
X145944281Y-120284810D01*
X145998665Y-120314098D01*
X146033039Y-120335084D01*
X146051846Y-120351378D01*
X146053049Y-120354307D01*
X146065903Y-120366728D01*
X146087896Y-120375977D01*
X146109150Y-120384313D01*
X146141694Y-120400149D01*
X146188322Y-120425033D01*
X146251829Y-120460509D01*
X146335008Y-120508123D01*
X146440653Y-120569422D01*
X146498062Y-120602932D01*
X146565594Y-120643071D01*
X146609885Y-120671659D01*
X146634855Y-120692039D01*
X146644423Y-120707553D01*
X146642508Y-120721546D01*
X146640911Y-120724796D01*
X146625376Y-120745266D01*
X146592136Y-120783665D01*
X146545062Y-120835696D01*
X146488028Y-120897066D01*
X146438700Y-120949090D01*
X146325030Y-121072567D01*
X146236105Y-121179591D01*
X146171134Y-121271240D01*
X146129321Y-121348588D01*
X146115217Y-121387866D01*
X146109392Y-121422249D01*
X146103375Y-121480899D01*
X146097696Y-121557117D01*
X146092884Y-121644202D01*
X146090619Y-121699268D01*
X146087459Y-121794464D01*
X146086069Y-121864062D01*
X146086858Y-121913409D01*
X146090235Y-121947854D01*
X146096608Y-121972743D01*
X146106387Y-121993425D01*
X146114067Y-122006053D01*
X146158421Y-122054726D01*
X146215574Y-122088645D01*
X146275708Y-122103438D01*
X146320773Y-122098086D01*
X146361576Y-122074930D01*
X146412724Y-122033462D01*
X146467042Y-121980912D01*
X146517357Y-121924516D01*
X146556494Y-121871505D01*
X146570905Y-121845889D01*
X146592491Y-121810814D01*
X146631753Y-121757389D01*
X146685102Y-121689789D01*
X146748952Y-121612190D01*
X146819715Y-121528768D01*
X146893804Y-121443698D01*
X146967632Y-121361155D01*
X147037611Y-121285316D01*
X147100155Y-121220356D01*
X147149260Y-121172669D01*
X147203779Y-121125032D01*
X147249642Y-121089908D01*
X147281811Y-121070949D01*
X147292489Y-121068864D01*
X147308853Y-121077274D01*
X147349671Y-121099846D01*
X147412586Y-121135224D01*
X147495244Y-121182054D01*
X147595289Y-121238981D01*
X147710366Y-121304649D01*
X147838119Y-121377703D01*
X147976194Y-121456788D01*
X148122234Y-121540548D01*
X148273884Y-121627629D01*
X148428790Y-121716676D01*
X148584595Y-121806332D01*
X148738944Y-121895243D01*
X148889482Y-121982054D01*
X149033854Y-122065409D01*
X149169704Y-122143954D01*
X149294677Y-122216333D01*
X149406417Y-122281190D01*
X149502570Y-122337171D01*
X149580779Y-122382920D01*
X149638689Y-122417083D01*
X149673946Y-122438304D01*
X149684165Y-122444963D01*
X149670402Y-122446280D01*
X149627104Y-122447559D01*
X149555714Y-122448796D01*
X149457673Y-122449983D01*
X149334422Y-122451115D01*
X149187403Y-122452186D01*
X149018057Y-122453189D01*
X148827826Y-122454119D01*
X148618151Y-122454968D01*
X148390473Y-122455732D01*
X148146235Y-122456403D01*
X147886877Y-122456976D01*
X147613841Y-122457444D01*
X147328568Y-122457802D01*
X147032500Y-122458042D01*
X146727079Y-122458159D01*
X146598924Y-122458171D01*
X143498970Y-122458171D01*
X143720053Y-122074847D01*
X143766856Y-121993680D01*
X143827102Y-121889166D01*
X143898778Y-121764801D01*
X143979869Y-121624082D01*
X144068362Y-121470503D01*
X144162240Y-121307562D01*
X144259491Y-121138754D01*
X144358100Y-120967575D01*
X144456053Y-120797521D01*
X144480825Y-120754512D01*
X144571152Y-120597857D01*
X144657289Y-120448803D01*
X144737942Y-120309568D01*
X144811816Y-120182371D01*
X144877617Y-120069432D01*
X144934050Y-119972968D01*
X144979821Y-119895200D01*
X145013635Y-119838346D01*
X145034198Y-119804625D01*
X145039953Y-119796040D01*
X145052058Y-119789189D01*
X145072094Y-119791158D01*
D10*
%TO.C,SW1*%
X103250000Y-124000000D02*
X103250000Y-122500000D01*
X102000000Y-120000000D02*
X97500000Y-120000000D01*
X96250000Y-122500000D02*
X96250000Y-124000000D01*
X97500000Y-126500000D02*
X102000000Y-126500000D01*
%TO.C,J7*%
X116050000Y-112740000D02*
X116050000Y-115400000D01*
X116050000Y-112740000D02*
X105830000Y-112740000D01*
X105830000Y-112740000D02*
X105830000Y-115400000D01*
X116050000Y-115400000D02*
X105830000Y-115400000D01*
X118650000Y-115400000D02*
X117320000Y-115400000D01*
X118650000Y-114070000D02*
X118650000Y-115400000D01*
%TO.C,RV1*%
X109950000Y-79350000D02*
X109950000Y-75500000D01*
X109950000Y-69550000D02*
X109950000Y-73400000D01*
X99950000Y-79350000D02*
X99950000Y-78000000D01*
X99950000Y-73000000D02*
X99950000Y-75900000D01*
X99950000Y-69550000D02*
X99950000Y-70900000D01*
X99950000Y-79350000D02*
X109950000Y-79350000D01*
X109950000Y-69550000D02*
X99950000Y-69550000D01*
X106950000Y-74450000D02*
G75*
G03*
X106950000Y-74450000I-2000000J0D01*
G01*
X104550000Y-74450000D02*
X105750000Y-74450000D01*
X105350000Y-74250000D02*
X105750000Y-74450000D01*
X105750000Y-74450000D02*
X105350000Y-74650000D01*
%TO.C,D4*%
X147310000Y-71855000D02*
X147310000Y-74945000D01*
X152370000Y-73400000D02*
G75*
G03*
X152370000Y-73400000I-2500000J0D01*
G01*
X152860000Y-73400462D02*
G75*
G03*
X147310000Y-71855170I-2990000J462D01*
G01*
X152860000Y-73399538D02*
G75*
G02*
X147310000Y-74944830I-2990000J-462D01*
G01*
%TO.C,F1*%
X154080000Y-95536252D02*
X154080000Y-92763748D01*
X157500000Y-95536252D02*
X157500000Y-92763748D01*
%TO.C,D3*%
X103070000Y-130220000D02*
X103070000Y-130350000D01*
X103070000Y-130350000D02*
X97630000Y-130350000D01*
X97630000Y-130350000D02*
X97630000Y-130220000D01*
X103070000Y-127540000D02*
X103070000Y-127410000D01*
X103070000Y-127410000D02*
X97630000Y-127410000D01*
X97630000Y-127410000D02*
X97630000Y-127540000D01*
X102170000Y-130350000D02*
X102170000Y-127410000D01*
X102050000Y-130350000D02*
X102050000Y-127410000D01*
X102290000Y-130350000D02*
X102290000Y-127410000D01*
%TO.C,C5*%
X159410000Y-79790000D02*
X154170000Y-79790000D01*
X159410000Y-77050000D02*
X154170000Y-77050000D01*
X159410000Y-79790000D02*
X159410000Y-77050000D01*
X154170000Y-79790000D02*
X154170000Y-77050000D01*
D13*
%TO.C,Y1*%
X132660000Y-132270000D02*
X126260000Y-132270000D01*
X132660000Y-137270000D02*
X126260000Y-137270000D01*
X126260000Y-137270000D02*
G75*
G02*
X126260000Y-132270000I0J2500000D01*
G01*
X132660000Y-132270000D02*
G75*
G02*
X132660000Y-137270000I0J-2500000D01*
G01*
D10*
%TO.C,U2*%
X106670000Y-123590000D02*
X106670000Y-125240000D01*
X106670000Y-125240000D02*
X142350000Y-125240000D01*
X142350000Y-125240000D02*
X142350000Y-119940000D01*
X142350000Y-119940000D02*
X106670000Y-119940000D01*
X106670000Y-119940000D02*
X106670000Y-121590000D01*
X106670000Y-121590000D02*
G75*
G02*
X106670000Y-123590000I0J-1000000D01*
G01*
%TO.C,J3*%
X98270000Y-83330000D02*
X98270000Y-80670000D01*
X98270000Y-83330000D02*
X136430000Y-83330000D01*
X136430000Y-83330000D02*
X136430000Y-80670000D01*
X98270000Y-80670000D02*
X136430000Y-80670000D01*
X95670000Y-80670000D02*
X97000000Y-80670000D01*
X95670000Y-82000000D02*
X95670000Y-80670000D01*
%TO.C,C1*%
X154800000Y-84100000D02*
X157540000Y-84100000D01*
X154800000Y-89340000D02*
X157540000Y-89340000D01*
X157540000Y-89340000D02*
X157540000Y-84100000D01*
X154800000Y-89340000D02*
X154800000Y-84100000D01*
%TO.C,C2*%
X154070000Y-89350000D02*
X151330000Y-89350000D01*
X154070000Y-84110000D02*
X151330000Y-84110000D01*
X151330000Y-84110000D02*
X151330000Y-89350000D01*
X154070000Y-84110000D02*
X154070000Y-89350000D01*
%TO.C,C3*%
X121880000Y-117370000D02*
X121880000Y-114630000D01*
X127120000Y-117370000D02*
X127120000Y-114630000D01*
X127120000Y-114630000D02*
X121880000Y-114630000D01*
X127120000Y-117370000D02*
X121880000Y-117370000D01*
%TO.C,C4*%
X91690000Y-130170000D02*
X91690000Y-124930000D01*
X94430000Y-130170000D02*
X94430000Y-124930000D01*
X91690000Y-130170000D02*
X94430000Y-130170000D01*
X91690000Y-124930000D02*
X94430000Y-124930000D01*
%TO.C,C6*%
X127430000Y-114630000D02*
X132670000Y-114630000D01*
X127430000Y-117370000D02*
X132670000Y-117370000D01*
X127430000Y-114630000D02*
X127430000Y-117370000D01*
X132670000Y-114630000D02*
X132670000Y-117370000D01*
%TO.C,C7*%
X120430000Y-137670000D02*
X120430000Y-132430000D01*
X123170000Y-137670000D02*
X123170000Y-132430000D01*
X120430000Y-137670000D02*
X123170000Y-137670000D01*
X120430000Y-132430000D02*
X123170000Y-132430000D01*
%TO.C,C8*%
X135780000Y-132430000D02*
X138520000Y-132430000D01*
X135780000Y-137670000D02*
X138520000Y-137670000D01*
X138520000Y-137670000D02*
X138520000Y-132430000D01*
X135780000Y-137670000D02*
X135780000Y-132430000D01*
%TO.C,D1*%
X138970000Y-73400000D02*
G75*
G03*
X138970000Y-73400000I-2500000J0D01*
G01*
X133910000Y-71855000D02*
X133910000Y-74945000D01*
X139460000Y-73399538D02*
G75*
G02*
X133910000Y-74944830I-2990000J-462D01*
G01*
X139460000Y-73400462D02*
G75*
G03*
X133910000Y-71855170I-2990000J462D01*
G01*
%TO.C,D2*%
X140610000Y-71855000D02*
X140610000Y-74945000D01*
X145670000Y-73400000D02*
G75*
G03*
X145670000Y-73400000I-2500000J0D01*
G01*
X146160000Y-73400462D02*
G75*
G03*
X140610000Y-71855170I-2990000J462D01*
G01*
X146160000Y-73399538D02*
G75*
G02*
X140610000Y-74944830I-2990000J-462D01*
G01*
%TO.C,R1*%
X121560000Y-97115000D02*
X120870000Y-97115000D01*
X110940000Y-97115000D02*
X111630000Y-97115000D01*
X120870000Y-95395000D02*
X111630000Y-95395000D01*
X120870000Y-98835000D02*
X120870000Y-95395000D01*
X111630000Y-98835000D02*
X120870000Y-98835000D01*
X111630000Y-95395000D02*
X111630000Y-98835000D01*
%TO.C,R2*%
X111580000Y-91345000D02*
X111580000Y-94785000D01*
X111580000Y-94785000D02*
X120820000Y-94785000D01*
X120820000Y-94785000D02*
X120820000Y-91345000D01*
X120820000Y-91345000D02*
X111580000Y-91345000D01*
X110890000Y-93065000D02*
X111580000Y-93065000D01*
X121510000Y-93065000D02*
X120820000Y-93065000D01*
%TO.C,R3*%
X130035000Y-88105000D02*
X130035000Y-88795000D01*
X130035000Y-98725000D02*
X130035000Y-98035000D01*
X128315000Y-88795000D02*
X128315000Y-98035000D01*
X131755000Y-88795000D02*
X128315000Y-88795000D01*
X131755000Y-98035000D02*
X131755000Y-88795000D01*
X128315000Y-98035000D02*
X131755000Y-98035000D01*
%TO.C,R4*%
X132315000Y-98035000D02*
X135755000Y-98035000D01*
X135755000Y-98035000D02*
X135755000Y-88795000D01*
X135755000Y-88795000D02*
X132315000Y-88795000D01*
X132315000Y-88795000D02*
X132315000Y-98035000D01*
X134035000Y-98725000D02*
X134035000Y-98035000D01*
X134035000Y-88105000D02*
X134035000Y-88795000D01*
%TO.C,R6*%
X99640000Y-133700000D02*
X100330000Y-133700000D01*
X110260000Y-133700000D02*
X109570000Y-133700000D01*
X100330000Y-135420000D02*
X109570000Y-135420000D01*
X100330000Y-131980000D02*
X100330000Y-135420000D01*
X109570000Y-131980000D02*
X100330000Y-131980000D01*
X109570000Y-135420000D02*
X109570000Y-131980000D01*
%TO.C,R7*%
X124830000Y-128030000D02*
X124830000Y-131470000D01*
X124830000Y-131470000D02*
X134070000Y-131470000D01*
X134070000Y-131470000D02*
X134070000Y-128030000D01*
X134070000Y-128030000D02*
X124830000Y-128030000D01*
X124140000Y-129750000D02*
X124830000Y-129750000D01*
X134760000Y-129750000D02*
X134070000Y-129750000D01*
%TO.C,R8*%
X164010000Y-124075000D02*
X163320000Y-124075000D01*
X153390000Y-124075000D02*
X154080000Y-124075000D01*
X163320000Y-122355000D02*
X154080000Y-122355000D01*
X163320000Y-125795000D02*
X163320000Y-122355000D01*
X154080000Y-125795000D02*
X163320000Y-125795000D01*
X154080000Y-122355000D02*
X154080000Y-125795000D01*
%TO.C,R9*%
X139755000Y-88795000D02*
X136315000Y-88795000D01*
X136315000Y-88795000D02*
X136315000Y-98035000D01*
X136315000Y-98035000D02*
X139755000Y-98035000D01*
X139755000Y-98035000D02*
X139755000Y-88795000D01*
X138035000Y-88105000D02*
X138035000Y-88795000D01*
X138035000Y-98725000D02*
X138035000Y-98035000D01*
%TO.C,R11*%
X154080000Y-126355000D02*
X154080000Y-129795000D01*
X154080000Y-129795000D02*
X163320000Y-129795000D01*
X163320000Y-129795000D02*
X163320000Y-126355000D01*
X163320000Y-126355000D02*
X154080000Y-126355000D01*
X153390000Y-128075000D02*
X154080000Y-128075000D01*
X164010000Y-128075000D02*
X163320000Y-128075000D01*
%TO.C,SW1*%
D11*
X91866666Y-121329761D02*
X92009523Y-121377380D01*
X92247619Y-121377380D01*
X92342857Y-121329761D01*
X92390476Y-121282142D01*
X92438095Y-121186904D01*
X92438095Y-121091666D01*
X92390476Y-120996428D01*
X92342857Y-120948809D01*
X92247619Y-120901190D01*
X92057142Y-120853571D01*
X91961904Y-120805952D01*
X91914285Y-120758333D01*
X91866666Y-120663095D01*
X91866666Y-120567857D01*
X91914285Y-120472619D01*
X91961904Y-120425000D01*
X92057142Y-120377380D01*
X92295238Y-120377380D01*
X92438095Y-120425000D01*
X92771428Y-120377380D02*
X93009523Y-121377380D01*
X93200000Y-120663095D01*
X93390476Y-121377380D01*
X93628571Y-120377380D01*
X94533333Y-121377380D02*
X93961904Y-121377380D01*
X94247619Y-121377380D02*
X94247619Y-120377380D01*
X94152380Y-120520238D01*
X94057142Y-120615476D01*
X93961904Y-120663095D01*
%TO.C,J7*%
X103946666Y-113492380D02*
X103946666Y-114206666D01*
X103899047Y-114349523D01*
X103803809Y-114444761D01*
X103660952Y-114492380D01*
X103565714Y-114492380D01*
X104327619Y-113492380D02*
X104994285Y-113492380D01*
X104565714Y-114492380D01*
%TO.C,RV1*%
X96674761Y-70772380D02*
X96341428Y-70296190D01*
X96103333Y-70772380D02*
X96103333Y-69772380D01*
X96484285Y-69772380D01*
X96579523Y-69820000D01*
X96627142Y-69867619D01*
X96674761Y-69962857D01*
X96674761Y-70105714D01*
X96627142Y-70200952D01*
X96579523Y-70248571D01*
X96484285Y-70296190D01*
X96103333Y-70296190D01*
X96960476Y-69772380D02*
X97293809Y-70772380D01*
X97627142Y-69772380D01*
X98484285Y-70772380D02*
X97912857Y-70772380D01*
X98198571Y-70772380D02*
X98198571Y-69772380D01*
X98103333Y-69915238D01*
X98008095Y-70010476D01*
X97912857Y-70058095D01*
%TO.C,D4*%
X146361904Y-76652380D02*
X146361904Y-75652380D01*
X146600000Y-75652380D01*
X146742857Y-75700000D01*
X146838095Y-75795238D01*
X146885714Y-75890476D01*
X146933333Y-76080952D01*
X146933333Y-76223809D01*
X146885714Y-76414285D01*
X146838095Y-76509523D01*
X146742857Y-76604761D01*
X146600000Y-76652380D01*
X146361904Y-76652380D01*
X147790476Y-75985714D02*
X147790476Y-76652380D01*
X147552380Y-75604761D02*
X147314285Y-76319047D01*
X147933333Y-76319047D01*
%TO.C,F1*%
X155526666Y-98048571D02*
X155193333Y-98048571D01*
X155193333Y-98572380D02*
X155193333Y-97572380D01*
X155669523Y-97572380D01*
X156574285Y-98572380D02*
X156002857Y-98572380D01*
X156288571Y-98572380D02*
X156288571Y-97572380D01*
X156193333Y-97715238D01*
X156098095Y-97810476D01*
X156002857Y-97858095D01*
%TO.C,D3*%
X99131904Y-131592380D02*
X99131904Y-130592380D01*
X99370000Y-130592380D01*
X99512857Y-130640000D01*
X99608095Y-130735238D01*
X99655714Y-130830476D01*
X99703333Y-131020952D01*
X99703333Y-131163809D01*
X99655714Y-131354285D01*
X99608095Y-131449523D01*
X99512857Y-131544761D01*
X99370000Y-131592380D01*
X99131904Y-131592380D01*
X100036666Y-130592380D02*
X100655714Y-130592380D01*
X100322380Y-130973333D01*
X100465238Y-130973333D01*
X100560476Y-131020952D01*
X100608095Y-131068571D01*
X100655714Y-131163809D01*
X100655714Y-131401904D01*
X100608095Y-131497142D01*
X100560476Y-131544761D01*
X100465238Y-131592380D01*
X100179523Y-131592380D01*
X100084285Y-131544761D01*
X100036666Y-131497142D01*
%TO.C,C5*%
X156433333Y-76557142D02*
X156385714Y-76604761D01*
X156242857Y-76652380D01*
X156147619Y-76652380D01*
X156004761Y-76604761D01*
X155909523Y-76509523D01*
X155861904Y-76414285D01*
X155814285Y-76223809D01*
X155814285Y-76080952D01*
X155861904Y-75890476D01*
X155909523Y-75795238D01*
X156004761Y-75700000D01*
X156147619Y-75652380D01*
X156242857Y-75652380D01*
X156385714Y-75700000D01*
X156433333Y-75747619D01*
X157338095Y-75652380D02*
X156861904Y-75652380D01*
X156814285Y-76128571D01*
X156861904Y-76080952D01*
X156957142Y-76033333D01*
X157195238Y-76033333D01*
X157290476Y-76080952D01*
X157338095Y-76128571D01*
X157385714Y-76223809D01*
X157385714Y-76461904D01*
X157338095Y-76557142D01*
X157290476Y-76604761D01*
X157195238Y-76652380D01*
X156957142Y-76652380D01*
X156861904Y-76604761D01*
X156814285Y-76557142D01*
%TO.C,Y1*%
X126498809Y-138651190D02*
X126498809Y-139127380D01*
X126165476Y-138127380D02*
X126498809Y-138651190D01*
X126832142Y-138127380D01*
X127689285Y-139127380D02*
X127117857Y-139127380D01*
X127403571Y-139127380D02*
X127403571Y-138127380D01*
X127308333Y-138270238D01*
X127213095Y-138365476D01*
X127117857Y-138413095D01*
%TO.C,U2*%
X105038095Y-116952380D02*
X105038095Y-117761904D01*
X105085714Y-117857142D01*
X105133333Y-117904761D01*
X105228571Y-117952380D01*
X105419047Y-117952380D01*
X105514285Y-117904761D01*
X105561904Y-117857142D01*
X105609523Y-117761904D01*
X105609523Y-116952380D01*
X106038095Y-117047619D02*
X106085714Y-117000000D01*
X106180952Y-116952380D01*
X106419047Y-116952380D01*
X106514285Y-117000000D01*
X106561904Y-117047619D01*
X106609523Y-117142857D01*
X106609523Y-117238095D01*
X106561904Y-117380952D01*
X105990476Y-117952380D01*
X106609523Y-117952380D01*
%TO.C,J3*%
X93466666Y-81452380D02*
X93466666Y-82166666D01*
X93419047Y-82309523D01*
X93323809Y-82404761D01*
X93180952Y-82452380D01*
X93085714Y-82452380D01*
X93847619Y-81452380D02*
X94466666Y-81452380D01*
X94133333Y-81833333D01*
X94276190Y-81833333D01*
X94371428Y-81880952D01*
X94419047Y-81928571D01*
X94466666Y-82023809D01*
X94466666Y-82261904D01*
X94419047Y-82357142D01*
X94371428Y-82404761D01*
X94276190Y-82452380D01*
X93990476Y-82452380D01*
X93895238Y-82404761D01*
X93847619Y-82357142D01*
%TO.C,C1*%
X155943333Y-90697142D02*
X155895714Y-90744761D01*
X155752857Y-90792380D01*
X155657619Y-90792380D01*
X155514761Y-90744761D01*
X155419523Y-90649523D01*
X155371904Y-90554285D01*
X155324285Y-90363809D01*
X155324285Y-90220952D01*
X155371904Y-90030476D01*
X155419523Y-89935238D01*
X155514761Y-89840000D01*
X155657619Y-89792380D01*
X155752857Y-89792380D01*
X155895714Y-89840000D01*
X155943333Y-89887619D01*
X156895714Y-90792380D02*
X156324285Y-90792380D01*
X156610000Y-90792380D02*
X156610000Y-89792380D01*
X156514761Y-89935238D01*
X156419523Y-90030476D01*
X156324285Y-90078095D01*
%TO.C,C2*%
X152593333Y-90757142D02*
X152545714Y-90804761D01*
X152402857Y-90852380D01*
X152307619Y-90852380D01*
X152164761Y-90804761D01*
X152069523Y-90709523D01*
X152021904Y-90614285D01*
X151974285Y-90423809D01*
X151974285Y-90280952D01*
X152021904Y-90090476D01*
X152069523Y-89995238D01*
X152164761Y-89900000D01*
X152307619Y-89852380D01*
X152402857Y-89852380D01*
X152545714Y-89900000D01*
X152593333Y-89947619D01*
X152974285Y-89947619D02*
X153021904Y-89900000D01*
X153117142Y-89852380D01*
X153355238Y-89852380D01*
X153450476Y-89900000D01*
X153498095Y-89947619D01*
X153545714Y-90042857D01*
X153545714Y-90138095D01*
X153498095Y-90280952D01*
X152926666Y-90852380D01*
X153545714Y-90852380D01*
%TO.C,C3*%
X124333333Y-114057142D02*
X124285714Y-114104761D01*
X124142857Y-114152380D01*
X124047619Y-114152380D01*
X123904761Y-114104761D01*
X123809523Y-114009523D01*
X123761904Y-113914285D01*
X123714285Y-113723809D01*
X123714285Y-113580952D01*
X123761904Y-113390476D01*
X123809523Y-113295238D01*
X123904761Y-113200000D01*
X124047619Y-113152380D01*
X124142857Y-113152380D01*
X124285714Y-113200000D01*
X124333333Y-113247619D01*
X124666666Y-113152380D02*
X125285714Y-113152380D01*
X124952380Y-113533333D01*
X125095238Y-113533333D01*
X125190476Y-113580952D01*
X125238095Y-113628571D01*
X125285714Y-113723809D01*
X125285714Y-113961904D01*
X125238095Y-114057142D01*
X125190476Y-114104761D01*
X125095238Y-114152380D01*
X124809523Y-114152380D01*
X124714285Y-114104761D01*
X124666666Y-114057142D01*
%TO.C,C4*%
X90393333Y-127907142D02*
X90345714Y-127954761D01*
X90202857Y-128002380D01*
X90107619Y-128002380D01*
X89964761Y-127954761D01*
X89869523Y-127859523D01*
X89821904Y-127764285D01*
X89774285Y-127573809D01*
X89774285Y-127430952D01*
X89821904Y-127240476D01*
X89869523Y-127145238D01*
X89964761Y-127050000D01*
X90107619Y-127002380D01*
X90202857Y-127002380D01*
X90345714Y-127050000D01*
X90393333Y-127097619D01*
X91250476Y-127335714D02*
X91250476Y-128002380D01*
X91012380Y-126954761D02*
X90774285Y-127669047D01*
X91393333Y-127669047D01*
%TO.C,C6*%
X129833333Y-114057142D02*
X129785714Y-114104761D01*
X129642857Y-114152380D01*
X129547619Y-114152380D01*
X129404761Y-114104761D01*
X129309523Y-114009523D01*
X129261904Y-113914285D01*
X129214285Y-113723809D01*
X129214285Y-113580952D01*
X129261904Y-113390476D01*
X129309523Y-113295238D01*
X129404761Y-113200000D01*
X129547619Y-113152380D01*
X129642857Y-113152380D01*
X129785714Y-113200000D01*
X129833333Y-113247619D01*
X130690476Y-113152380D02*
X130500000Y-113152380D01*
X130404761Y-113200000D01*
X130357142Y-113247619D01*
X130261904Y-113390476D01*
X130214285Y-113580952D01*
X130214285Y-113961904D01*
X130261904Y-114057142D01*
X130309523Y-114104761D01*
X130404761Y-114152380D01*
X130595238Y-114152380D01*
X130690476Y-114104761D01*
X130738095Y-114057142D01*
X130785714Y-113961904D01*
X130785714Y-113723809D01*
X130738095Y-113628571D01*
X130690476Y-113580952D01*
X130595238Y-113533333D01*
X130404761Y-113533333D01*
X130309523Y-113580952D01*
X130261904Y-113628571D01*
X130214285Y-113723809D01*
%TO.C,C7*%
X121658333Y-138982142D02*
X121610714Y-139029761D01*
X121467857Y-139077380D01*
X121372619Y-139077380D01*
X121229761Y-139029761D01*
X121134523Y-138934523D01*
X121086904Y-138839285D01*
X121039285Y-138648809D01*
X121039285Y-138505952D01*
X121086904Y-138315476D01*
X121134523Y-138220238D01*
X121229761Y-138125000D01*
X121372619Y-138077380D01*
X121467857Y-138077380D01*
X121610714Y-138125000D01*
X121658333Y-138172619D01*
X121991666Y-138077380D02*
X122658333Y-138077380D01*
X122229761Y-139077380D01*
%TO.C,C8*%
X136983333Y-138957142D02*
X136935714Y-139004761D01*
X136792857Y-139052380D01*
X136697619Y-139052380D01*
X136554761Y-139004761D01*
X136459523Y-138909523D01*
X136411904Y-138814285D01*
X136364285Y-138623809D01*
X136364285Y-138480952D01*
X136411904Y-138290476D01*
X136459523Y-138195238D01*
X136554761Y-138100000D01*
X136697619Y-138052380D01*
X136792857Y-138052380D01*
X136935714Y-138100000D01*
X136983333Y-138147619D01*
X137554761Y-138480952D02*
X137459523Y-138433333D01*
X137411904Y-138385714D01*
X137364285Y-138290476D01*
X137364285Y-138242857D01*
X137411904Y-138147619D01*
X137459523Y-138100000D01*
X137554761Y-138052380D01*
X137745238Y-138052380D01*
X137840476Y-138100000D01*
X137888095Y-138147619D01*
X137935714Y-138242857D01*
X137935714Y-138290476D01*
X137888095Y-138385714D01*
X137840476Y-138433333D01*
X137745238Y-138480952D01*
X137554761Y-138480952D01*
X137459523Y-138528571D01*
X137411904Y-138576190D01*
X137364285Y-138671428D01*
X137364285Y-138861904D01*
X137411904Y-138957142D01*
X137459523Y-139004761D01*
X137554761Y-139052380D01*
X137745238Y-139052380D01*
X137840476Y-139004761D01*
X137888095Y-138957142D01*
X137935714Y-138861904D01*
X137935714Y-138671428D01*
X137888095Y-138576190D01*
X137840476Y-138528571D01*
X137745238Y-138480952D01*
%TO.C,D1*%
X133011904Y-76652380D02*
X133011904Y-75652380D01*
X133250000Y-75652380D01*
X133392857Y-75700000D01*
X133488095Y-75795238D01*
X133535714Y-75890476D01*
X133583333Y-76080952D01*
X133583333Y-76223809D01*
X133535714Y-76414285D01*
X133488095Y-76509523D01*
X133392857Y-76604761D01*
X133250000Y-76652380D01*
X133011904Y-76652380D01*
X134535714Y-76652380D02*
X133964285Y-76652380D01*
X134250000Y-76652380D02*
X134250000Y-75652380D01*
X134154761Y-75795238D01*
X134059523Y-75890476D01*
X133964285Y-75938095D01*
%TO.C,D2*%
X139561904Y-76652380D02*
X139561904Y-75652380D01*
X139800000Y-75652380D01*
X139942857Y-75700000D01*
X140038095Y-75795238D01*
X140085714Y-75890476D01*
X140133333Y-76080952D01*
X140133333Y-76223809D01*
X140085714Y-76414285D01*
X140038095Y-76509523D01*
X139942857Y-76604761D01*
X139800000Y-76652380D01*
X139561904Y-76652380D01*
X140514285Y-75747619D02*
X140561904Y-75700000D01*
X140657142Y-75652380D01*
X140895238Y-75652380D01*
X140990476Y-75700000D01*
X141038095Y-75747619D01*
X141085714Y-75842857D01*
X141085714Y-75938095D01*
X141038095Y-76080952D01*
X140466666Y-76652380D01*
X141085714Y-76652380D01*
%TO.C,R1*%
X107573333Y-97567380D02*
X107240000Y-97091190D01*
X107001904Y-97567380D02*
X107001904Y-96567380D01*
X107382857Y-96567380D01*
X107478095Y-96615000D01*
X107525714Y-96662619D01*
X107573333Y-96757857D01*
X107573333Y-96900714D01*
X107525714Y-96995952D01*
X107478095Y-97043571D01*
X107382857Y-97091190D01*
X107001904Y-97091190D01*
X108525714Y-97567380D02*
X107954285Y-97567380D01*
X108240000Y-97567380D02*
X108240000Y-96567380D01*
X108144761Y-96710238D01*
X108049523Y-96805476D01*
X107954285Y-96853095D01*
%TO.C,R2*%
X107523333Y-93607380D02*
X107190000Y-93131190D01*
X106951904Y-93607380D02*
X106951904Y-92607380D01*
X107332857Y-92607380D01*
X107428095Y-92655000D01*
X107475714Y-92702619D01*
X107523333Y-92797857D01*
X107523333Y-92940714D01*
X107475714Y-93035952D01*
X107428095Y-93083571D01*
X107332857Y-93131190D01*
X106951904Y-93131190D01*
X107904285Y-92702619D02*
X107951904Y-92655000D01*
X108047142Y-92607380D01*
X108285238Y-92607380D01*
X108380476Y-92655000D01*
X108428095Y-92702619D01*
X108475714Y-92797857D01*
X108475714Y-92893095D01*
X108428095Y-93035952D01*
X107856666Y-93607380D01*
X108475714Y-93607380D01*
%TO.C,R3*%
X129793333Y-102267380D02*
X129460000Y-101791190D01*
X129221904Y-102267380D02*
X129221904Y-101267380D01*
X129602857Y-101267380D01*
X129698095Y-101315000D01*
X129745714Y-101362619D01*
X129793333Y-101457857D01*
X129793333Y-101600714D01*
X129745714Y-101695952D01*
X129698095Y-101743571D01*
X129602857Y-101791190D01*
X129221904Y-101791190D01*
X130126666Y-101267380D02*
X130745714Y-101267380D01*
X130412380Y-101648333D01*
X130555238Y-101648333D01*
X130650476Y-101695952D01*
X130698095Y-101743571D01*
X130745714Y-101838809D01*
X130745714Y-102076904D01*
X130698095Y-102172142D01*
X130650476Y-102219761D01*
X130555238Y-102267380D01*
X130269523Y-102267380D01*
X130174285Y-102219761D01*
X130126666Y-102172142D01*
%TO.C,R4*%
X133868333Y-102242380D02*
X133535000Y-101766190D01*
X133296904Y-102242380D02*
X133296904Y-101242380D01*
X133677857Y-101242380D01*
X133773095Y-101290000D01*
X133820714Y-101337619D01*
X133868333Y-101432857D01*
X133868333Y-101575714D01*
X133820714Y-101670952D01*
X133773095Y-101718571D01*
X133677857Y-101766190D01*
X133296904Y-101766190D01*
X134725476Y-101575714D02*
X134725476Y-102242380D01*
X134487380Y-101194761D02*
X134249285Y-101909047D01*
X134868333Y-101909047D01*
%TO.C,R6*%
X104783333Y-136872380D02*
X104450000Y-136396190D01*
X104211904Y-136872380D02*
X104211904Y-135872380D01*
X104592857Y-135872380D01*
X104688095Y-135920000D01*
X104735714Y-135967619D01*
X104783333Y-136062857D01*
X104783333Y-136205714D01*
X104735714Y-136300952D01*
X104688095Y-136348571D01*
X104592857Y-136396190D01*
X104211904Y-136396190D01*
X105640476Y-135872380D02*
X105450000Y-135872380D01*
X105354761Y-135920000D01*
X105307142Y-135967619D01*
X105211904Y-136110476D01*
X105164285Y-136300952D01*
X105164285Y-136681904D01*
X105211904Y-136777142D01*
X105259523Y-136824761D01*
X105354761Y-136872380D01*
X105545238Y-136872380D01*
X105640476Y-136824761D01*
X105688095Y-136777142D01*
X105735714Y-136681904D01*
X105735714Y-136443809D01*
X105688095Y-136348571D01*
X105640476Y-136300952D01*
X105545238Y-136253333D01*
X105354761Y-136253333D01*
X105259523Y-136300952D01*
X105211904Y-136348571D01*
X105164285Y-136443809D01*
%TO.C,R7*%
X137633333Y-130277380D02*
X137300000Y-129801190D01*
X137061904Y-130277380D02*
X137061904Y-129277380D01*
X137442857Y-129277380D01*
X137538095Y-129325000D01*
X137585714Y-129372619D01*
X137633333Y-129467857D01*
X137633333Y-129610714D01*
X137585714Y-129705952D01*
X137538095Y-129753571D01*
X137442857Y-129801190D01*
X137061904Y-129801190D01*
X137966666Y-129277380D02*
X138633333Y-129277380D01*
X138204761Y-130277380D01*
%TO.C,R8*%
X167043333Y-124512380D02*
X166710000Y-124036190D01*
X166471904Y-124512380D02*
X166471904Y-123512380D01*
X166852857Y-123512380D01*
X166948095Y-123560000D01*
X166995714Y-123607619D01*
X167043333Y-123702857D01*
X167043333Y-123845714D01*
X166995714Y-123940952D01*
X166948095Y-123988571D01*
X166852857Y-124036190D01*
X166471904Y-124036190D01*
X167614761Y-123940952D02*
X167519523Y-123893333D01*
X167471904Y-123845714D01*
X167424285Y-123750476D01*
X167424285Y-123702857D01*
X167471904Y-123607619D01*
X167519523Y-123560000D01*
X167614761Y-123512380D01*
X167805238Y-123512380D01*
X167900476Y-123560000D01*
X167948095Y-123607619D01*
X167995714Y-123702857D01*
X167995714Y-123750476D01*
X167948095Y-123845714D01*
X167900476Y-123893333D01*
X167805238Y-123940952D01*
X167614761Y-123940952D01*
X167519523Y-123988571D01*
X167471904Y-124036190D01*
X167424285Y-124131428D01*
X167424285Y-124321904D01*
X167471904Y-124417142D01*
X167519523Y-124464761D01*
X167614761Y-124512380D01*
X167805238Y-124512380D01*
X167900476Y-124464761D01*
X167948095Y-124417142D01*
X167995714Y-124321904D01*
X167995714Y-124131428D01*
X167948095Y-124036190D01*
X167900476Y-123988571D01*
X167805238Y-123940952D01*
%TO.C,R9*%
X137818333Y-102217380D02*
X137485000Y-101741190D01*
X137246904Y-102217380D02*
X137246904Y-101217380D01*
X137627857Y-101217380D01*
X137723095Y-101265000D01*
X137770714Y-101312619D01*
X137818333Y-101407857D01*
X137818333Y-101550714D01*
X137770714Y-101645952D01*
X137723095Y-101693571D01*
X137627857Y-101741190D01*
X137246904Y-101741190D01*
X138294523Y-102217380D02*
X138485000Y-102217380D01*
X138580238Y-102169761D01*
X138627857Y-102122142D01*
X138723095Y-101979285D01*
X138770714Y-101788809D01*
X138770714Y-101407857D01*
X138723095Y-101312619D01*
X138675476Y-101265000D01*
X138580238Y-101217380D01*
X138389761Y-101217380D01*
X138294523Y-101265000D01*
X138246904Y-101312619D01*
X138199285Y-101407857D01*
X138199285Y-101645952D01*
X138246904Y-101741190D01*
X138294523Y-101788809D01*
X138389761Y-101836428D01*
X138580238Y-101836428D01*
X138675476Y-101788809D01*
X138723095Y-101741190D01*
X138770714Y-101645952D01*
%TO.C,R11*%
X167007142Y-128552380D02*
X166673809Y-128076190D01*
X166435714Y-128552380D02*
X166435714Y-127552380D01*
X166816666Y-127552380D01*
X166911904Y-127600000D01*
X166959523Y-127647619D01*
X167007142Y-127742857D01*
X167007142Y-127885714D01*
X166959523Y-127980952D01*
X166911904Y-128028571D01*
X166816666Y-128076190D01*
X166435714Y-128076190D01*
X167959523Y-128552380D02*
X167388095Y-128552380D01*
X167673809Y-128552380D02*
X167673809Y-127552380D01*
X167578571Y-127695238D01*
X167483333Y-127790476D01*
X167388095Y-127838095D01*
X168911904Y-128552380D02*
X168340476Y-128552380D01*
X168626190Y-128552380D02*
X168626190Y-127552380D01*
X168530952Y-127695238D01*
X168435714Y-127790476D01*
X168340476Y-127838095D01*
%TD*%
M02*
