M48
; DRILL file {KiCad 5.1.6} date Sat Aug 22 14:38:15 2020
; FORMAT={-:-/ absolute / inch / decimal}
; #@! TF.CreationDate,2020-08-22T14:38:15+02:00
; #@! TF.GenerationSoftware,Kicad,Pcbnew,5.1.6
; #@! TF.FileFunction,Plated,1,2,PTH
FMAT,2
INCH
T1C0.0157
T2C0.0197
T3C0.0315
T4C0.0354
T5C0.0362
T6C0.0394
T7C0.0433
T8C0.0917
T9C0.1181
%
G90
G05
T1
X5.685Y-3.7441
T2
X6.3681Y-2.9134
X6.3941Y-2.8507
X6.3941Y-2.976
X6.4567Y-2.8248
X6.4567Y-3.002
X6.5193Y-2.8507
X6.5193Y-2.976
X6.5453Y-2.9134
X3.5728Y-5.2756
X3.5988Y-5.213
X3.5988Y-5.3382
X3.6614Y-5.187
X3.6614Y-5.3642
X3.7241Y-5.213
X3.7241Y-5.3382
X3.75Y-5.2756
X6.3681Y-5.2756
X6.3941Y-5.213
X6.3941Y-5.3382
X6.4567Y-5.187
X6.4567Y-5.3642
X6.5193Y-5.213
X6.5193Y-5.3382
X6.5453Y-5.2756
X3.5728Y-2.9134
X3.5988Y-2.8507
X3.5988Y-2.976
X3.6614Y-2.8248
X3.6614Y-3.002
X3.7241Y-2.8507
X3.7241Y-2.976
X3.75Y-2.9134
X5.1343Y-5.3169
X5.3264Y-5.3169
T3
X4.6339Y-3.9173
X4.6339Y-4.2126
X4.5709Y-3.7402
X4.8709Y-3.7402
X3.8929Y-5.3543
X4.1929Y-5.3543
X6.3583Y-4.7795
X6.3583Y-4.8583
X6.3583Y-4.937
X6.3583Y-5.0157
X4.5709Y-3.5433
X4.8709Y-3.5433
X5.0827Y-5.1417
X5.3827Y-5.1417
X5.6417Y-4.1693
X5.6417Y-4.4646
X6.1024Y-3.878
X6.3976Y-3.878
X5.6811Y-3.0898
X5.6811Y-3.3898
X4.0984Y-2.9213
X4.1984Y-3.0213
X4.2984Y-2.9213
X4.3819Y-4.6764
X4.3819Y-4.9764
X4.4819Y-4.6764
X4.4819Y-4.9764
X4.5819Y-4.6764
X4.5819Y-4.9764
X4.6819Y-4.6764
X4.6819Y-4.9764
X4.7819Y-4.6764
X4.7819Y-4.9764
X4.8819Y-4.6764
X4.8819Y-4.9764
X4.9819Y-4.6764
X4.9819Y-4.9764
X5.0819Y-4.6764
X5.0819Y-4.9764
X5.1819Y-4.6764
X5.1819Y-4.9764
X5.2819Y-4.6764
X5.2819Y-4.9764
X5.3819Y-4.6764
X5.3819Y-4.9764
X5.4819Y-4.6764
X5.4819Y-4.9764
X5.5819Y-4.6764
X5.5819Y-4.9764
X5.6819Y-4.6764
X5.6819Y-4.9764
X3.8929Y-5.2362
X4.1929Y-5.2362
X4.9291Y-5.1417
X4.9291Y-5.437
X5.5276Y-5.1417
X5.5276Y-5.437
X5.8307Y-4.3031
X6.1307Y-4.3031
X4.8386Y-3.9173
X4.8386Y-4.2126
X3.5433Y-4.7165
X3.5433Y-5.0165
X5.8465Y-3.0906
X5.8465Y-3.3906
X5.5157Y-3.0898
X5.5157Y-3.3898
X4.2146Y-4.7098
X4.2146Y-5.0098
X6.3583Y-4.3071
X6.3583Y-4.3858
X6.3583Y-4.4646
X6.3583Y-4.5433
X3.6772Y-4.7205
X3.6772Y-5.0157
T4
X5.5551Y-2.8504
X5.6551Y-2.8504
X5.7913Y-2.8504
X5.8913Y-2.8504
X5.3189Y-2.8504
X5.4189Y-2.8504
T5
X6.0433Y-3.4252
X6.0433Y-3.5236
X6.122Y-3.4252
X6.122Y-3.5236
T6
X6.0394Y-4.0748
X6.4882Y-4.0748
X3.8189Y-3.2283
X3.9189Y-3.2283
X4.0189Y-3.2283
X4.1189Y-3.2283
X4.2189Y-3.2283
X4.3189Y-3.2283
X4.4189Y-3.2283
X4.5189Y-3.2283
X4.6189Y-3.2283
X4.7189Y-3.2283
X4.8189Y-3.2283
X4.9189Y-3.2283
X5.0189Y-3.2283
X5.1189Y-3.2283
X5.2189Y-3.2283
X5.3189Y-3.2283
X4.1417Y-3.6732
X4.1417Y-3.7732
X4.1417Y-3.8732
X4.1417Y-3.9732
X4.1417Y-4.0732
X4.1417Y-4.1732
T7
X3.8209Y-4.7638
X3.8209Y-4.9409
X4.0768Y-4.7638
X4.0768Y-4.9409
T8
X6.2287Y-3.2374
X6.2287Y-3.7114
T9
X6.4567Y-2.9134
X3.6614Y-5.2756
X6.4567Y-5.2756
X3.6614Y-2.9134
T0
M30
