M48
; DRILL file {KiCad 5.1.8} date Sun Nov  8 18:42:59 2020
; FORMAT={-:-/ absolute / inch / decimal}
; #@! TF.CreationDate,2020-11-08T18:42:59+01:00
; #@! TF.GenerationSoftware,Kicad,Pcbnew,5.1.8
; #@! TF.FileFunction,Plated,1,2,PTH
FMAT,2
INCH
T1C0.0157
T2C0.0197
T3C0.0315
T4C0.0354
T5C0.0362
T6C0.0394
T7C0.0433
T8C0.0512
T9C0.0917
T10C0.1181
%
G90
G05
T1
X3.8189Y-3.1398
X3.8209Y-4.874
X4.0768Y-4.1654
X4.0768Y-4.874
X4.1673Y-4.438
X4.2185Y-3.1407
X4.2785Y-4.063
X4.6929Y-5.3661
X4.7953Y-4.5669
X4.8051Y-4.8494
X4.9528Y-4.9124
X5.1663Y-3.561
X5.1693Y-4.5079
X5.247Y-4.878
X5.314Y-4.3583
X5.3199Y-3.1407
X5.503Y-5.3661
X5.5541Y-4.5531
X5.6929Y-3.5089
X5.6929Y-3.5502
X5.7028Y-3.3819
X5.8317Y-3.4577
X5.8514Y-2.9508
X5.9459Y-3.4114
X5.9793Y-3.3809
X5.9803Y-3.2677
X6.1142Y-3.3573
X6.1181Y-3.4695
X6.1309Y-3.688
X6.1988Y-5.2539
X6.251Y-3.688
X6.2687Y-5.3287
X6.4183Y-3.5846
X6.4301Y-3.7116
X6.4311Y-3.2372
X6.4567Y-5.125
X6.4783Y-3.5246
X6.498Y-5.0994
X6.5256Y-3.3327
X6.5256Y-3.6171
X6.5256Y-3.8061
X6.5266Y-3.1388
X6.6211Y-3.2372
X6.6211Y-3.7116
T2
X3.5728Y-2.9134
X3.5988Y-2.8507
X3.5988Y-2.976
X3.6614Y-2.8248
X3.6614Y-3.002
X3.7241Y-2.8507
X3.7241Y-2.976
X3.75Y-2.9134
X6.3681Y-2.9134
X6.3941Y-2.8507
X6.3941Y-2.976
X6.4567Y-2.8248
X6.4567Y-3.002
X6.5193Y-2.8507
X6.5193Y-2.976
X6.5453Y-2.9134
X3.5728Y-5.2756
X3.5988Y-5.213
X3.5988Y-5.3382
X3.6614Y-5.187
X3.6614Y-5.3642
X3.7241Y-5.213
X3.7241Y-5.3382
X3.75Y-5.2756
X5.0008Y-5.3059
X5.1929Y-5.3059
X6.3681Y-5.2756
X6.3941Y-5.213
X6.3941Y-5.3382
X6.4567Y-5.187
X6.4567Y-5.3642
X6.5193Y-5.213
X6.5193Y-5.3382
X6.5453Y-5.2756
T3
X3.7984Y-5.0748
X4.0984Y-5.0748
X5.998Y-4.8848
X6.498Y-4.8848
X5.6073Y-3.4222
X5.6073Y-3.9222
X6.19Y-3.5896
X6.19Y-3.688
X4.3514Y-3.5571
X4.8514Y-3.5571
X5.998Y-5.0423
X6.498Y-5.0423
X4.7953Y-5.2677
X4.7953Y-5.3661
X6.19Y-3.3583
X6.19Y-3.4567
X5.4498Y-3.4222
X5.4498Y-3.9222
X5.2923Y-3.4222
X5.2923Y-3.9222
X5.3996Y-5.2677
X5.3996Y-5.3661
X4.252Y-4.6764
X4.252Y-4.9764
X4.352Y-4.6764
X4.352Y-4.9764
X4.452Y-4.6764
X4.452Y-4.9764
X4.552Y-4.6764
X4.552Y-4.9764
X4.652Y-4.6764
X4.652Y-4.9764
X4.752Y-4.6764
X4.752Y-4.9764
X4.852Y-4.6764
X4.852Y-4.9764
X4.952Y-4.6764
X4.952Y-4.9764
X5.052Y-4.6764
X5.052Y-4.9764
X5.152Y-4.6764
X5.152Y-4.9764
X5.252Y-4.6764
X5.252Y-4.9764
X5.352Y-4.6764
X5.352Y-4.9764
X5.452Y-4.6764
X5.452Y-4.9764
X5.552Y-4.6764
X5.552Y-4.9764
X5.0709Y-4.5669
X5.1693Y-4.5669
X3.6634Y-4.2638
X3.6634Y-4.7638
X3.685Y-4.9665
X3.685Y-5.065
X4.3533Y-3.7165
X4.8533Y-3.7165
X4.8524Y-4.5669
X4.9508Y-4.5669
X3.8819Y-5.2638
X4.3819Y-5.2638
X4.8465Y-5.1083
X5.3465Y-5.1083
T4
X5.3228Y-2.8898
X5.4228Y-2.8898
X5.5866Y-2.8898
X5.6866Y-2.8898
X5.8504Y-2.8898
X5.9504Y-2.8898
T5
X6.3406Y-3.4252
X6.3406Y-3.5236
X6.4193Y-3.4252
X6.4193Y-3.5236
T6
X3.8189Y-3.2283
X3.9189Y-3.2283
X4.0189Y-3.2283
X4.1189Y-3.2283
X4.2189Y-3.2283
X4.3189Y-3.2283
X4.4189Y-3.2283
X4.5189Y-3.2283
X4.6189Y-3.2283
X4.7189Y-3.2283
X4.8189Y-3.2283
X4.9189Y-3.2283
X5.0189Y-3.2283
X5.1189Y-3.2283
X5.2189Y-3.2283
X5.3189Y-3.2283
X4.7274Y-4.0638
X4.7274Y-4.1638
X4.7274Y-4.2638
X4.8274Y-4.0638
X4.8274Y-4.1638
X4.8274Y-4.2638
T7
X6.5089Y-3.9646
X6.5089Y-4.1614
X6.5089Y-4.3583
X6.5089Y-4.5551
X3.8209Y-4.7638
X3.8209Y-4.9409
X4.0768Y-4.7638
X4.0768Y-4.9409
X5.6083Y-5.3287
X5.8051Y-5.3287
X6.002Y-5.3287
X6.1988Y-5.3287
T8
X3.935Y-2.8327
X3.935Y-3.0295
X4.3287Y-2.9311
T9
X6.526Y-3.2374
X6.526Y-3.7114
T10
X6.4567Y-5.2756
X3.6614Y-2.9134
X6.4567Y-2.9134
X3.6614Y-5.2756
T0
M30
