%TF.GenerationSoftware,KiCad,Pcbnew,5.1.8*%
%TF.CreationDate,2020-11-22T18:44:30+01:00*%
%TF.ProjectId,livello_serbatoio_definitiva,6c697665-6c6c-46f5-9f73-65726261746f,rev?*%
%TF.SameCoordinates,Original*%
%TF.FileFunction,Legend,Top*%
%TF.FilePolarity,Positive*%
%FSLAX46Y46*%
G04 Gerber Fmt 4.6, Leading zero omitted, Abs format (unit mm)*
G04 Created by KiCad (PCBNEW 5.1.8) date 2020-11-22 18:44:30*
%MOMM*%
%LPD*%
G01*
G04 APERTURE LIST*
%ADD10C,0.120000*%
%ADD11C,0.150000*%
%ADD12C,0.125000*%
%ADD13C,0.010000*%
%ADD14C,0.100000*%
G04 APERTURE END LIST*
D10*
X121800000Y-116000000D02*
X95350000Y-116000000D01*
X127400000Y-116000000D02*
X127200000Y-116000000D01*
X157200000Y-116000000D02*
X132700000Y-116000000D01*
D11*
X96219047Y-130771428D02*
X96980952Y-130771428D01*
X96600000Y-131152380D02*
X96600000Y-130390476D01*
D12*
X119611047Y-111402000D02*
X119563428Y-111378190D01*
X119492000Y-111378190D01*
X119420571Y-111402000D01*
X119372952Y-111449619D01*
X119349142Y-111497238D01*
X119325333Y-111592476D01*
X119325333Y-111663904D01*
X119349142Y-111759142D01*
X119372952Y-111806761D01*
X119420571Y-111854380D01*
X119492000Y-111878190D01*
X119539619Y-111878190D01*
X119611047Y-111854380D01*
X119634857Y-111830571D01*
X119634857Y-111663904D01*
X119539619Y-111663904D01*
X119849142Y-111878190D02*
X119849142Y-111378190D01*
X120134857Y-111878190D01*
X120134857Y-111378190D01*
X120372952Y-111878190D02*
X120372952Y-111378190D01*
X120492000Y-111378190D01*
X120563428Y-111402000D01*
X120611047Y-111449619D01*
X120634857Y-111497238D01*
X120658666Y-111592476D01*
X120658666Y-111663904D01*
X120634857Y-111759142D01*
X120611047Y-111806761D01*
X120563428Y-111854380D01*
X120492000Y-111878190D01*
X120372952Y-111878190D01*
D10*
X121250000Y-80250000D02*
X111250000Y-80250000D01*
X121250000Y-83500000D02*
X121250000Y-80250000D01*
X111250000Y-83500000D02*
X121250000Y-83500000D01*
X111250000Y-80250000D02*
X111250000Y-83500000D01*
D11*
X119185714Y-79466666D02*
X119661904Y-79466666D01*
X119090476Y-79752380D02*
X119423809Y-78752380D01*
X119757142Y-79752380D01*
X120280952Y-78752380D02*
X120376190Y-78752380D01*
X120471428Y-78800000D01*
X120519047Y-78847619D01*
X120566666Y-78942857D01*
X120614285Y-79133333D01*
X120614285Y-79371428D01*
X120566666Y-79561904D01*
X120519047Y-79657142D01*
X120471428Y-79704761D01*
X120376190Y-79752380D01*
X120280952Y-79752380D01*
X120185714Y-79704761D01*
X120138095Y-79657142D01*
X120090476Y-79561904D01*
X120042857Y-79371428D01*
X120042857Y-79133333D01*
X120090476Y-78942857D01*
X120138095Y-78847619D01*
X120185714Y-78800000D01*
X120280952Y-78752380D01*
X116585714Y-79466666D02*
X117061904Y-79466666D01*
X116490476Y-79752380D02*
X116823809Y-78752380D01*
X117157142Y-79752380D01*
X118014285Y-79752380D02*
X117442857Y-79752380D01*
X117728571Y-79752380D02*
X117728571Y-78752380D01*
X117633333Y-78895238D01*
X117538095Y-78990476D01*
X117442857Y-79038095D01*
X114085714Y-79466666D02*
X114561904Y-79466666D01*
X113990476Y-79752380D02*
X114323809Y-78752380D01*
X114657142Y-79752380D01*
X114942857Y-78847619D02*
X114990476Y-78800000D01*
X115085714Y-78752380D01*
X115323809Y-78752380D01*
X115419047Y-78800000D01*
X115466666Y-78847619D01*
X115514285Y-78942857D01*
X115514285Y-79038095D01*
X115466666Y-79180952D01*
X114895238Y-79752380D01*
X115514285Y-79752380D01*
X111585714Y-79466666D02*
X112061904Y-79466666D01*
X111490476Y-79752380D02*
X111823809Y-78752380D01*
X112157142Y-79752380D01*
X112395238Y-78752380D02*
X113014285Y-78752380D01*
X112680952Y-79133333D01*
X112823809Y-79133333D01*
X112919047Y-79180952D01*
X112966666Y-79228571D01*
X113014285Y-79323809D01*
X113014285Y-79561904D01*
X112966666Y-79657142D01*
X112919047Y-79704761D01*
X112823809Y-79752380D01*
X112538095Y-79752380D01*
X112442857Y-79704761D01*
X112395238Y-79657142D01*
X112285714Y-112052380D02*
X112285714Y-111052380D01*
X112523809Y-111052380D01*
X112666666Y-111100000D01*
X112761904Y-111195238D01*
X112809523Y-111290476D01*
X112857142Y-111480952D01*
X112857142Y-111623809D01*
X112809523Y-111814285D01*
X112761904Y-111909523D01*
X112666666Y-112004761D01*
X112523809Y-112052380D01*
X112285714Y-112052380D01*
X113809523Y-112052380D02*
X113238095Y-112052380D01*
X113523809Y-112052380D02*
X113523809Y-111052380D01*
X113428571Y-111195238D01*
X113333333Y-111290476D01*
X113238095Y-111338095D01*
X114428571Y-111052380D02*
X114523809Y-111052380D01*
X114619047Y-111100000D01*
X114666666Y-111147619D01*
X114714285Y-111242857D01*
X114761904Y-111433333D01*
X114761904Y-111671428D01*
X114714285Y-111861904D01*
X114666666Y-111957142D01*
X114619047Y-112004761D01*
X114523809Y-112052380D01*
X114428571Y-112052380D01*
X114333333Y-112004761D01*
X114285714Y-111957142D01*
X114238095Y-111861904D01*
X114190476Y-111671428D01*
X114190476Y-111433333D01*
X114238095Y-111242857D01*
X114285714Y-111147619D01*
X114333333Y-111100000D01*
X114428571Y-111052380D01*
X109885714Y-111766666D02*
X110361904Y-111766666D01*
X109790476Y-112052380D02*
X110123809Y-111052380D01*
X110457142Y-112052380D01*
X111219047Y-111385714D02*
X111219047Y-112052380D01*
X110980952Y-111004761D02*
X110742857Y-111719047D01*
X111361904Y-111719047D01*
X107285714Y-111766666D02*
X107761904Y-111766666D01*
X107190476Y-112052380D02*
X107523809Y-111052380D01*
X107857142Y-112052380D01*
X108666666Y-111052380D02*
X108190476Y-111052380D01*
X108142857Y-111528571D01*
X108190476Y-111480952D01*
X108285714Y-111433333D01*
X108523809Y-111433333D01*
X108619047Y-111480952D01*
X108666666Y-111528571D01*
X108714285Y-111623809D01*
X108714285Y-111861904D01*
X108666666Y-111957142D01*
X108619047Y-112004761D01*
X108523809Y-112052380D01*
X108285714Y-112052380D01*
X108190476Y-112004761D01*
X108142857Y-111957142D01*
D12*
X116449142Y-111693714D02*
X116830095Y-111693714D01*
X116639619Y-111884190D02*
X116639619Y-111503238D01*
X117306285Y-111384190D02*
X117068190Y-111384190D01*
X117044380Y-111622285D01*
X117068190Y-111598476D01*
X117115809Y-111574666D01*
X117234857Y-111574666D01*
X117282476Y-111598476D01*
X117306285Y-111622285D01*
X117330095Y-111669904D01*
X117330095Y-111788952D01*
X117306285Y-111836571D01*
X117282476Y-111860380D01*
X117234857Y-111884190D01*
X117115809Y-111884190D01*
X117068190Y-111860380D01*
X117044380Y-111836571D01*
X117472952Y-111384190D02*
X117639619Y-111884190D01*
X117806285Y-111384190D01*
D11*
X125404761Y-78172380D02*
X125404761Y-77172380D01*
X125404761Y-77553333D02*
X125500000Y-77505714D01*
X125690476Y-77505714D01*
X125785714Y-77553333D01*
X125833333Y-77600952D01*
X125880952Y-77696190D01*
X125880952Y-77981904D01*
X125833333Y-78077142D01*
X125785714Y-78124761D01*
X125690476Y-78172380D01*
X125500000Y-78172380D01*
X125404761Y-78124761D01*
X126214285Y-77505714D02*
X126452380Y-78172380D01*
X126690476Y-77505714D02*
X126452380Y-78172380D01*
X126357142Y-78410476D01*
X126309523Y-78458095D01*
X126214285Y-78505714D01*
D10*
X169000000Y-116000000D02*
X166624000Y-116000000D01*
X160750000Y-116000000D02*
X164084000Y-116000000D01*
X138450000Y-80000000D02*
X169000000Y-80000000D01*
X157200000Y-116000000D02*
X160750000Y-116000000D01*
X95350000Y-116000000D02*
X94850000Y-116000000D01*
X90900000Y-116000000D02*
X91325000Y-116000000D01*
X146900000Y-80000000D02*
X145500000Y-80000000D01*
X94000000Y-80000000D02*
X138450000Y-80000000D01*
X151500000Y-80000000D02*
X149650000Y-80000000D01*
X89000000Y-116000000D02*
X90900000Y-116000000D01*
D11*
X152229047Y-70631428D02*
X152990952Y-70631428D01*
X152610000Y-71012380D02*
X152610000Y-70250476D01*
X138829047Y-70631428D02*
X139590952Y-70631428D01*
X139210000Y-71012380D02*
X139210000Y-70250476D01*
X145529047Y-70641428D02*
X146290952Y-70641428D01*
X145910000Y-71022380D02*
X145910000Y-70260476D01*
X112585595Y-71627380D02*
X112585595Y-70627380D01*
X112918928Y-71341666D01*
X113252261Y-70627380D01*
X113252261Y-71627380D01*
X113871309Y-71627380D02*
X113776071Y-71579761D01*
X113728452Y-71532142D01*
X113680833Y-71436904D01*
X113680833Y-71151190D01*
X113728452Y-71055952D01*
X113776071Y-71008333D01*
X113871309Y-70960714D01*
X114014166Y-70960714D01*
X114109404Y-71008333D01*
X114157023Y-71055952D01*
X114204642Y-71151190D01*
X114204642Y-71436904D01*
X114157023Y-71532142D01*
X114109404Y-71579761D01*
X114014166Y-71627380D01*
X113871309Y-71627380D01*
X114633214Y-70960714D02*
X114633214Y-71627380D01*
X114633214Y-71055952D02*
X114680833Y-71008333D01*
X114776071Y-70960714D01*
X114918928Y-70960714D01*
X115014166Y-71008333D01*
X115061785Y-71103571D01*
X115061785Y-71627380D01*
X115537976Y-71627380D02*
X115537976Y-70960714D01*
X115537976Y-70627380D02*
X115490357Y-70675000D01*
X115537976Y-70722619D01*
X115585595Y-70675000D01*
X115537976Y-70627380D01*
X115537976Y-70722619D01*
X115871309Y-70960714D02*
X116252261Y-70960714D01*
X116014166Y-70627380D02*
X116014166Y-71484523D01*
X116061785Y-71579761D01*
X116157023Y-71627380D01*
X116252261Y-71627380D01*
X116728452Y-71627380D02*
X116633214Y-71579761D01*
X116585595Y-71532142D01*
X116537976Y-71436904D01*
X116537976Y-71151190D01*
X116585595Y-71055952D01*
X116633214Y-71008333D01*
X116728452Y-70960714D01*
X116871309Y-70960714D01*
X116966547Y-71008333D01*
X117014166Y-71055952D01*
X117061785Y-71151190D01*
X117061785Y-71436904D01*
X117014166Y-71532142D01*
X116966547Y-71579761D01*
X116871309Y-71627380D01*
X116728452Y-71627380D01*
X117490357Y-71627380D02*
X117490357Y-70960714D01*
X117490357Y-71151190D02*
X117537976Y-71055952D01*
X117585595Y-71008333D01*
X117680833Y-70960714D01*
X117776071Y-70960714D01*
X118823690Y-71579761D02*
X118918928Y-71627380D01*
X119109404Y-71627380D01*
X119204642Y-71579761D01*
X119252261Y-71484523D01*
X119252261Y-71436904D01*
X119204642Y-71341666D01*
X119109404Y-71294047D01*
X118966547Y-71294047D01*
X118871309Y-71246428D01*
X118823690Y-71151190D01*
X118823690Y-71103571D01*
X118871309Y-71008333D01*
X118966547Y-70960714D01*
X119109404Y-70960714D01*
X119204642Y-71008333D01*
X120061785Y-71579761D02*
X119966547Y-71627380D01*
X119776071Y-71627380D01*
X119680833Y-71579761D01*
X119633214Y-71484523D01*
X119633214Y-71103571D01*
X119680833Y-71008333D01*
X119776071Y-70960714D01*
X119966547Y-70960714D01*
X120061785Y-71008333D01*
X120109404Y-71103571D01*
X120109404Y-71198809D01*
X119633214Y-71294047D01*
X120537976Y-71627380D02*
X120537976Y-70960714D01*
X120537976Y-71151190D02*
X120585595Y-71055952D01*
X120633214Y-71008333D01*
X120728452Y-70960714D01*
X120823690Y-70960714D01*
X121157023Y-71627380D02*
X121157023Y-70627380D01*
X121157023Y-71008333D02*
X121252261Y-70960714D01*
X121442738Y-70960714D01*
X121537976Y-71008333D01*
X121585595Y-71055952D01*
X121633214Y-71151190D01*
X121633214Y-71436904D01*
X121585595Y-71532142D01*
X121537976Y-71579761D01*
X121442738Y-71627380D01*
X121252261Y-71627380D01*
X121157023Y-71579761D01*
X122490357Y-71627380D02*
X122490357Y-71103571D01*
X122442738Y-71008333D01*
X122347500Y-70960714D01*
X122157023Y-70960714D01*
X122061785Y-71008333D01*
X122490357Y-71579761D02*
X122395119Y-71627380D01*
X122157023Y-71627380D01*
X122061785Y-71579761D01*
X122014166Y-71484523D01*
X122014166Y-71389285D01*
X122061785Y-71294047D01*
X122157023Y-71246428D01*
X122395119Y-71246428D01*
X122490357Y-71198809D01*
X122823690Y-70960714D02*
X123204642Y-70960714D01*
X122966547Y-70627380D02*
X122966547Y-71484523D01*
X123014166Y-71579761D01*
X123109404Y-71627380D01*
X123204642Y-71627380D01*
X123680833Y-71627380D02*
X123585595Y-71579761D01*
X123537976Y-71532142D01*
X123490357Y-71436904D01*
X123490357Y-71151190D01*
X123537976Y-71055952D01*
X123585595Y-71008333D01*
X123680833Y-70960714D01*
X123823690Y-70960714D01*
X123918928Y-71008333D01*
X123966547Y-71055952D01*
X124014166Y-71151190D01*
X124014166Y-71436904D01*
X123966547Y-71532142D01*
X123918928Y-71579761D01*
X123823690Y-71627380D01*
X123680833Y-71627380D01*
X124442738Y-71627380D02*
X124442738Y-70960714D01*
X124442738Y-70627380D02*
X124395119Y-70675000D01*
X124442738Y-70722619D01*
X124490357Y-70675000D01*
X124442738Y-70627380D01*
X124442738Y-70722619D01*
X125061785Y-71627380D02*
X124966547Y-71579761D01*
X124918928Y-71532142D01*
X124871309Y-71436904D01*
X124871309Y-71151190D01*
X124918928Y-71055952D01*
X124966547Y-71008333D01*
X125061785Y-70960714D01*
X125204642Y-70960714D01*
X125299880Y-71008333D01*
X125347500Y-71055952D01*
X125395119Y-71151190D01*
X125395119Y-71436904D01*
X125347500Y-71532142D01*
X125299880Y-71579761D01*
X125204642Y-71627380D01*
X125061785Y-71627380D01*
X112490357Y-72610714D02*
X112728452Y-73277380D01*
X112966547Y-72610714D01*
X113871309Y-73277380D02*
X113299880Y-73277380D01*
X113585595Y-73277380D02*
X113585595Y-72277380D01*
X113490357Y-72420238D01*
X113395119Y-72515476D01*
X113299880Y-72563095D01*
X114299880Y-73182142D02*
X114347500Y-73229761D01*
X114299880Y-73277380D01*
X114252261Y-73229761D01*
X114299880Y-73182142D01*
X114299880Y-73277380D01*
X114966547Y-72277380D02*
X115061785Y-72277380D01*
X115157023Y-72325000D01*
X115204642Y-72372619D01*
X115252261Y-72467857D01*
X115299880Y-72658333D01*
X115299880Y-72896428D01*
X115252261Y-73086904D01*
X115204642Y-73182142D01*
X115157023Y-73229761D01*
X115061785Y-73277380D01*
X114966547Y-73277380D01*
X114871309Y-73229761D01*
X114823690Y-73182142D01*
X114776071Y-73086904D01*
X114728452Y-72896428D01*
X114728452Y-72658333D01*
X114776071Y-72467857D01*
X114823690Y-72372619D01*
X114871309Y-72325000D01*
X114966547Y-72277380D01*
X116776071Y-73658333D02*
X116728452Y-73610714D01*
X116633214Y-73467857D01*
X116585595Y-73372619D01*
X116537976Y-73229761D01*
X116490357Y-72991666D01*
X116490357Y-72801190D01*
X116537976Y-72563095D01*
X116585595Y-72420238D01*
X116633214Y-72325000D01*
X116728452Y-72182142D01*
X116776071Y-72134523D01*
X117537976Y-73229761D02*
X117442738Y-73277380D01*
X117252261Y-73277380D01*
X117157023Y-73229761D01*
X117109404Y-73134523D01*
X117109404Y-72753571D01*
X117157023Y-72658333D01*
X117252261Y-72610714D01*
X117442738Y-72610714D01*
X117537976Y-72658333D01*
X117585595Y-72753571D01*
X117585595Y-72848809D01*
X117109404Y-72944047D01*
X117966547Y-73229761D02*
X118061785Y-73277380D01*
X118252261Y-73277380D01*
X118347500Y-73229761D01*
X118395119Y-73134523D01*
X118395119Y-73086904D01*
X118347500Y-72991666D01*
X118252261Y-72944047D01*
X118109404Y-72944047D01*
X118014166Y-72896428D01*
X117966547Y-72801190D01*
X117966547Y-72753571D01*
X118014166Y-72658333D01*
X118109404Y-72610714D01*
X118252261Y-72610714D01*
X118347500Y-72658333D01*
X118823690Y-72610714D02*
X118823690Y-73610714D01*
X118823690Y-72658333D02*
X118918928Y-72610714D01*
X119109404Y-72610714D01*
X119204642Y-72658333D01*
X119252261Y-72705952D01*
X119299880Y-72801190D01*
X119299880Y-73086904D01*
X119252261Y-73182142D01*
X119204642Y-73229761D01*
X119109404Y-73277380D01*
X118918928Y-73277380D01*
X118823690Y-73229761D01*
X120157023Y-73277380D02*
X120157023Y-72753571D01*
X120109404Y-72658333D01*
X120014166Y-72610714D01*
X119823690Y-72610714D01*
X119728452Y-72658333D01*
X120157023Y-73229761D02*
X120061785Y-73277380D01*
X119823690Y-73277380D01*
X119728452Y-73229761D01*
X119680833Y-73134523D01*
X119680833Y-73039285D01*
X119728452Y-72944047D01*
X119823690Y-72896428D01*
X120061785Y-72896428D01*
X120157023Y-72848809D01*
X120633214Y-72610714D02*
X120633214Y-73277380D01*
X120633214Y-72705952D02*
X120680833Y-72658333D01*
X120776071Y-72610714D01*
X120918928Y-72610714D01*
X121014166Y-72658333D01*
X121061785Y-72753571D01*
X121061785Y-73277380D01*
X121966547Y-73277380D02*
X121966547Y-72277380D01*
X121966547Y-73229761D02*
X121871309Y-73277380D01*
X121680833Y-73277380D01*
X121585595Y-73229761D01*
X121537976Y-73182142D01*
X121490357Y-73086904D01*
X121490357Y-72801190D01*
X121537976Y-72705952D01*
X121585595Y-72658333D01*
X121680833Y-72610714D01*
X121871309Y-72610714D01*
X121966547Y-72658333D01*
X122442738Y-73277380D02*
X122442738Y-72610714D01*
X122442738Y-72277380D02*
X122395119Y-72325000D01*
X122442738Y-72372619D01*
X122490357Y-72325000D01*
X122442738Y-72277380D01*
X122442738Y-72372619D01*
X122918928Y-73277380D02*
X122918928Y-72277380D01*
X122918928Y-72658333D02*
X123014166Y-72610714D01*
X123204642Y-72610714D01*
X123299880Y-72658333D01*
X123347500Y-72705952D01*
X123395119Y-72801190D01*
X123395119Y-73086904D01*
X123347500Y-73182142D01*
X123299880Y-73229761D01*
X123204642Y-73277380D01*
X123014166Y-73277380D01*
X122918928Y-73229761D01*
X123823690Y-73277380D02*
X123823690Y-72610714D01*
X123823690Y-72277380D02*
X123776071Y-72325000D01*
X123823690Y-72372619D01*
X123871309Y-72325000D01*
X123823690Y-72277380D01*
X123823690Y-72372619D01*
X124442738Y-73277380D02*
X124347500Y-73229761D01*
X124299880Y-73134523D01*
X124299880Y-72277380D01*
X125204642Y-73229761D02*
X125109404Y-73277380D01*
X124918928Y-73277380D01*
X124823690Y-73229761D01*
X124776071Y-73134523D01*
X124776071Y-72753571D01*
X124823690Y-72658333D01*
X124918928Y-72610714D01*
X125109404Y-72610714D01*
X125204642Y-72658333D01*
X125252261Y-72753571D01*
X125252261Y-72848809D01*
X124776071Y-72944047D01*
X125585595Y-73658333D02*
X125633214Y-73610714D01*
X125728452Y-73467857D01*
X125776071Y-73372619D01*
X125823690Y-73229761D01*
X125871309Y-72991666D01*
X125871309Y-72801190D01*
X125823690Y-72563095D01*
X125776071Y-72420238D01*
X125728452Y-72325000D01*
X125633214Y-72182142D01*
X125585595Y-72134523D01*
X101995238Y-69207142D02*
X101947619Y-69254761D01*
X101804761Y-69302380D01*
X101709523Y-69302380D01*
X101566666Y-69254761D01*
X101471428Y-69159523D01*
X101423809Y-69064285D01*
X101376190Y-68873809D01*
X101376190Y-68730952D01*
X101423809Y-68540476D01*
X101471428Y-68445238D01*
X101566666Y-68350000D01*
X101709523Y-68302380D01*
X101804761Y-68302380D01*
X101947619Y-68350000D01*
X101995238Y-68397619D01*
X102614285Y-68302380D02*
X102804761Y-68302380D01*
X102900000Y-68350000D01*
X102995238Y-68445238D01*
X103042857Y-68635714D01*
X103042857Y-68969047D01*
X102995238Y-69159523D01*
X102900000Y-69254761D01*
X102804761Y-69302380D01*
X102614285Y-69302380D01*
X102519047Y-69254761D01*
X102423809Y-69159523D01*
X102376190Y-68969047D01*
X102376190Y-68635714D01*
X102423809Y-68445238D01*
X102519047Y-68350000D01*
X102614285Y-68302380D01*
X103471428Y-69302380D02*
X103471428Y-68302380D01*
X104042857Y-69302380D01*
X104042857Y-68302380D01*
X104376190Y-68302380D02*
X104947619Y-68302380D01*
X104661904Y-69302380D02*
X104661904Y-68302380D01*
X105852380Y-69302380D02*
X105519047Y-68826190D01*
X105280952Y-69302380D02*
X105280952Y-68302380D01*
X105661904Y-68302380D01*
X105757142Y-68350000D01*
X105804761Y-68397619D01*
X105852380Y-68492857D01*
X105852380Y-68635714D01*
X105804761Y-68730952D01*
X105757142Y-68778571D01*
X105661904Y-68826190D01*
X105280952Y-68826190D01*
X106233333Y-69016666D02*
X106709523Y-69016666D01*
X106138095Y-69302380D02*
X106471428Y-68302380D01*
X106804761Y-69302380D01*
X107090476Y-69254761D02*
X107233333Y-69302380D01*
X107471428Y-69302380D01*
X107566666Y-69254761D01*
X107614285Y-69207142D01*
X107661904Y-69111904D01*
X107661904Y-69016666D01*
X107614285Y-68921428D01*
X107566666Y-68873809D01*
X107471428Y-68826190D01*
X107280952Y-68778571D01*
X107185714Y-68730952D01*
X107138095Y-68683333D01*
X107090476Y-68588095D01*
X107090476Y-68492857D01*
X107138095Y-68397619D01*
X107185714Y-68350000D01*
X107280952Y-68302380D01*
X107519047Y-68302380D01*
X107661904Y-68350000D01*
X107947619Y-68302380D02*
X108519047Y-68302380D01*
X108233333Y-69302380D02*
X108233333Y-68302380D01*
X108385714Y-128652380D02*
X107814285Y-128652380D01*
X108100000Y-128652380D02*
X108100000Y-127652380D01*
X108004761Y-127795238D01*
X107909523Y-127890476D01*
X107814285Y-127938095D01*
D10*
X169000000Y-80000000D02*
X169000000Y-96500000D01*
X151500000Y-80000000D02*
X169000000Y-80000000D01*
D11*
X129184523Y-139127380D02*
X128613095Y-139127380D01*
X128898809Y-139127380D02*
X128898809Y-138127380D01*
X128803571Y-138270238D01*
X128708333Y-138365476D01*
X128613095Y-138413095D01*
X130041666Y-138127380D02*
X129851190Y-138127380D01*
X129755952Y-138175000D01*
X129708333Y-138222619D01*
X129613095Y-138365476D01*
X129565476Y-138555952D01*
X129565476Y-138936904D01*
X129613095Y-139032142D01*
X129660714Y-139079761D01*
X129755952Y-139127380D01*
X129946428Y-139127380D01*
X130041666Y-139079761D01*
X130089285Y-139032142D01*
X130136904Y-138936904D01*
X130136904Y-138698809D01*
X130089285Y-138603571D01*
X130041666Y-138555952D01*
X129946428Y-138508333D01*
X129755952Y-138508333D01*
X129660714Y-138555952D01*
X129613095Y-138603571D01*
X129565476Y-138698809D01*
X130565476Y-139127380D02*
X130565476Y-138127380D01*
X130898809Y-138841666D01*
X131232142Y-138127380D01*
X131232142Y-139127380D01*
X131708333Y-139127380D02*
X131708333Y-138127380D01*
X131708333Y-138603571D02*
X132279761Y-138603571D01*
X132279761Y-139127380D02*
X132279761Y-138127380D01*
X132660714Y-138460714D02*
X133184523Y-138460714D01*
X132660714Y-139127380D01*
X133184523Y-139127380D01*
X98847619Y-118852380D02*
X98514285Y-118376190D01*
X98276190Y-118852380D02*
X98276190Y-117852380D01*
X98657142Y-117852380D01*
X98752380Y-117900000D01*
X98800000Y-117947619D01*
X98847619Y-118042857D01*
X98847619Y-118185714D01*
X98800000Y-118280952D01*
X98752380Y-118328571D01*
X98657142Y-118376190D01*
X98276190Y-118376190D01*
X99276190Y-118328571D02*
X99609523Y-118328571D01*
X99752380Y-118852380D02*
X99276190Y-118852380D01*
X99276190Y-117852380D01*
X99752380Y-117852380D01*
X100133333Y-118804761D02*
X100276190Y-118852380D01*
X100514285Y-118852380D01*
X100609523Y-118804761D01*
X100657142Y-118757142D01*
X100704761Y-118661904D01*
X100704761Y-118566666D01*
X100657142Y-118471428D01*
X100609523Y-118423809D01*
X100514285Y-118376190D01*
X100323809Y-118328571D01*
X100228571Y-118280952D01*
X100180952Y-118233333D01*
X100133333Y-118138095D01*
X100133333Y-118042857D01*
X100180952Y-117947619D01*
X100228571Y-117900000D01*
X100323809Y-117852380D01*
X100561904Y-117852380D01*
X100704761Y-117900000D01*
X101133333Y-118328571D02*
X101466666Y-118328571D01*
X101609523Y-118852380D02*
X101133333Y-118852380D01*
X101133333Y-117852380D01*
X101609523Y-117852380D01*
X101895238Y-117852380D02*
X102466666Y-117852380D01*
X102180952Y-118852380D02*
X102180952Y-117852380D01*
X149280952Y-68952380D02*
X149471428Y-68952380D01*
X149566666Y-69000000D01*
X149661904Y-69095238D01*
X149709523Y-69285714D01*
X149709523Y-69619047D01*
X149661904Y-69809523D01*
X149566666Y-69904761D01*
X149471428Y-69952380D01*
X149280952Y-69952380D01*
X149185714Y-69904761D01*
X149090476Y-69809523D01*
X149042857Y-69619047D01*
X149042857Y-69285714D01*
X149090476Y-69095238D01*
X149185714Y-69000000D01*
X149280952Y-68952380D01*
X150138095Y-69952380D02*
X150138095Y-68952380D01*
X150709523Y-69952380D01*
X150709523Y-68952380D01*
X142933333Y-69952380D02*
X142600000Y-69476190D01*
X142361904Y-69952380D02*
X142361904Y-68952380D01*
X142742857Y-68952380D01*
X142838095Y-69000000D01*
X142885714Y-69047619D01*
X142933333Y-69142857D01*
X142933333Y-69285714D01*
X142885714Y-69380952D01*
X142838095Y-69428571D01*
X142742857Y-69476190D01*
X142361904Y-69476190D01*
X143266666Y-68952380D02*
X143933333Y-69952380D01*
X143933333Y-68952380D02*
X143266666Y-69952380D01*
X135738095Y-68952380D02*
X136309523Y-68952380D01*
X136023809Y-69952380D02*
X136023809Y-68952380D01*
X136547619Y-68952380D02*
X137214285Y-69952380D01*
X137214285Y-68952380D02*
X136547619Y-69952380D01*
D10*
X169000000Y-80000000D02*
X169000000Y-116000000D01*
X163000000Y-80000000D02*
X169000000Y-80000000D01*
X89000000Y-80000000D02*
X89000000Y-116000000D01*
X94000000Y-80000000D02*
X89000000Y-80000000D01*
D11*
X89509523Y-79552380D02*
X89033333Y-79552380D01*
X89033333Y-78552380D01*
X90414285Y-79457142D02*
X90366666Y-79504761D01*
X90223809Y-79552380D01*
X90128571Y-79552380D01*
X89985714Y-79504761D01*
X89890476Y-79409523D01*
X89842857Y-79314285D01*
X89795238Y-79123809D01*
X89795238Y-78980952D01*
X89842857Y-78790476D01*
X89890476Y-78695238D01*
X89985714Y-78600000D01*
X90128571Y-78552380D01*
X90223809Y-78552380D01*
X90366666Y-78600000D01*
X90414285Y-78647619D01*
X90842857Y-79552380D02*
X90842857Y-78552380D01*
X91080952Y-78552380D01*
X91223809Y-78600000D01*
X91319047Y-78695238D01*
X91366666Y-78790476D01*
X91414285Y-78980952D01*
X91414285Y-79123809D01*
X91366666Y-79314285D01*
X91319047Y-79409523D01*
X91223809Y-79504761D01*
X91080952Y-79552380D01*
X90842857Y-79552380D01*
X97285714Y-85352380D02*
X96714285Y-85352380D01*
X97000000Y-85352380D02*
X97000000Y-84352380D01*
X96904761Y-84495238D01*
X96809523Y-84590476D01*
X96714285Y-84638095D01*
D10*
%TO.C,J7*%
X114420000Y-114180000D02*
X114420000Y-115510000D01*
X114420000Y-115510000D02*
X113090000Y-115510000D01*
X111820000Y-115510000D02*
X106680000Y-115510000D01*
X106680000Y-112850000D02*
X106680000Y-115510000D01*
X111820000Y-112850000D02*
X106680000Y-112850000D01*
X111820000Y-112850000D02*
X111820000Y-115510000D01*
%TO.C,J8*%
X116070000Y-114180000D02*
X116070000Y-112850000D01*
X116070000Y-112850000D02*
X117400000Y-112850000D01*
X118670000Y-112850000D02*
X121270000Y-112850000D01*
X121270000Y-115510000D02*
X121270000Y-112850000D01*
X118670000Y-115510000D02*
X121270000Y-115510000D01*
X118670000Y-115510000D02*
X118670000Y-112850000D01*
%TO.C,D4*%
X147310000Y-71855000D02*
X147310000Y-74945000D01*
X152370000Y-73400000D02*
G75*
G03*
X152370000Y-73400000I-2500000J0D01*
G01*
X152860000Y-73400462D02*
G75*
G03*
X147310000Y-71855170I-2990000J462D01*
G01*
X152860000Y-73399538D02*
G75*
G02*
X147310000Y-74944830I-2990000J-462D01*
G01*
D13*
%TO.C,G\u002A\u002A\u002A*%
G36*
X129911171Y-72542484D02*
G01*
X130008000Y-72544660D01*
X130175671Y-72549568D01*
X130328083Y-72555412D01*
X130457272Y-72561775D01*
X130555274Y-72568240D01*
X130614126Y-72574390D01*
X130625885Y-72577009D01*
X130643174Y-72591055D01*
X130631405Y-72613713D01*
X130585229Y-72650949D01*
X130519785Y-72695329D01*
X130367299Y-72795538D01*
X130125631Y-72765119D01*
X129988446Y-72753135D01*
X129809858Y-72745885D01*
X129599061Y-72743597D01*
X129368131Y-72746432D01*
X129187901Y-72751034D01*
X129049009Y-72756235D01*
X128941994Y-72763053D01*
X128857396Y-72772503D01*
X128785755Y-72785604D01*
X128717610Y-72803372D01*
X128654737Y-72823110D01*
X128384371Y-72938211D01*
X128124869Y-73101406D01*
X127878890Y-73310656D01*
X127649096Y-73563924D01*
X127591358Y-73638017D01*
X127467317Y-73812838D01*
X127374632Y-73972146D01*
X127306616Y-74132009D01*
X127256579Y-74308492D01*
X127217835Y-74517665D01*
X127213687Y-74545316D01*
X127172906Y-74915660D01*
X127164821Y-75257386D01*
X127189532Y-75580838D01*
X127225620Y-75798108D01*
X127292901Y-76104005D01*
X127362146Y-76363297D01*
X127435463Y-76580180D01*
X127514962Y-76758850D01*
X127602754Y-76903501D01*
X127700946Y-77018331D01*
X127811651Y-77107533D01*
X127912500Y-77164146D01*
X127978151Y-77193782D01*
X128035681Y-77213980D01*
X128097265Y-77226539D01*
X128175077Y-77233258D01*
X128281289Y-77235936D01*
X128401268Y-77236379D01*
X128737636Y-77236400D01*
X128873157Y-77052250D01*
X129060307Y-76774415D01*
X129205461Y-76502623D01*
X129312798Y-76225242D01*
X129383494Y-75942657D01*
X129804800Y-75942657D01*
X129804800Y-76192831D01*
X129950850Y-76106484D01*
X130058236Y-76048824D01*
X130178129Y-75992923D01*
X130249300Y-75964177D01*
X130330641Y-75925922D01*
X130437855Y-75863958D01*
X130558803Y-75786591D01*
X130681347Y-75702127D01*
X130793348Y-75618875D01*
X130882669Y-75545139D01*
X130929613Y-75498615D01*
X130991256Y-75417841D01*
X131033112Y-75336873D01*
X131058650Y-75243078D01*
X131071339Y-75123823D01*
X131074652Y-74970461D01*
X131068619Y-74741632D01*
X131051108Y-74551440D01*
X131022624Y-74403907D01*
X130993373Y-74321578D01*
X130944998Y-74268257D01*
X130862225Y-74243191D01*
X130741817Y-74245861D01*
X130633957Y-74263840D01*
X130551494Y-74286706D01*
X130483395Y-74322928D01*
X130411564Y-74383532D01*
X130370774Y-74424183D01*
X130250879Y-74558221D01*
X130151404Y-74696549D01*
X130067333Y-74849149D01*
X129993647Y-75026001D01*
X129925328Y-75237087D01*
X129881323Y-75397762D01*
X129842367Y-75560766D01*
X129818640Y-75697550D01*
X129807163Y-75829319D01*
X129804800Y-75942657D01*
X129383494Y-75942657D01*
X129386501Y-75930639D01*
X129430750Y-75607181D01*
X129440789Y-75473003D01*
X129457470Y-75195506D01*
X129370785Y-75258359D01*
X129285255Y-75302772D01*
X129159834Y-75344739D01*
X129005429Y-75382102D01*
X128832949Y-75412704D01*
X128653300Y-75434388D01*
X128477392Y-75444996D01*
X128423601Y-75445700D01*
X128147302Y-75445700D01*
X128077245Y-75318700D01*
X128033737Y-75225174D01*
X128000951Y-75128402D01*
X127991370Y-75084228D01*
X127975552Y-74976757D01*
X128134526Y-74893910D01*
X128215450Y-74851825D01*
X128277807Y-74819557D01*
X128308706Y-74803775D01*
X128309221Y-74803525D01*
X128320362Y-74821729D01*
X128331582Y-74876539D01*
X128336938Y-74920818D01*
X128356694Y-75018115D01*
X128391776Y-75111862D01*
X128405838Y-75137725D01*
X128462743Y-75229800D01*
X128695621Y-75229343D01*
X128964028Y-75209926D01*
X129195200Y-75166300D01*
X129310666Y-75140347D01*
X129412438Y-75119555D01*
X129487464Y-75106473D01*
X129517854Y-75103256D01*
X129599554Y-75089234D01*
X129672719Y-75044318D01*
X129745181Y-74962061D01*
X129808483Y-74864068D01*
X129976920Y-74628413D01*
X130184739Y-74422776D01*
X130427774Y-74251018D01*
X130532026Y-74193628D01*
X130706660Y-74113968D01*
X130874061Y-74055382D01*
X131024767Y-74020323D01*
X131149316Y-74011248D01*
X131205755Y-74018835D01*
X131272025Y-74059534D01*
X131324677Y-74145493D01*
X131363928Y-74277585D01*
X131389995Y-74456684D01*
X131403094Y-74683661D01*
X131404852Y-74819962D01*
X131402197Y-74979405D01*
X131390490Y-75105800D01*
X131364374Y-75208888D01*
X131318492Y-75298411D01*
X131247486Y-75384110D01*
X131145998Y-75475725D01*
X131008670Y-75582999D01*
X130968699Y-75612966D01*
X130856047Y-75696224D01*
X130751485Y-75772007D01*
X130664799Y-75833327D01*
X130605775Y-75873196D01*
X130594497Y-75880183D01*
X130516895Y-75926023D01*
X130598699Y-75952561D01*
X130665104Y-75989892D01*
X130717545Y-76058548D01*
X130761502Y-76166727D01*
X130776910Y-76219129D01*
X130783479Y-76266291D01*
X130790432Y-76357316D01*
X130797455Y-76485271D01*
X130804232Y-76643226D01*
X130810448Y-76824247D01*
X130815788Y-77021403D01*
X130817995Y-77122100D01*
X130822709Y-77347858D01*
X130827057Y-77528712D01*
X130831499Y-77670551D01*
X130836498Y-77779266D01*
X130842517Y-77860744D01*
X130850016Y-77920876D01*
X130859459Y-77965550D01*
X130871307Y-78000656D01*
X130886023Y-78032084D01*
X130889991Y-78039654D01*
X130988050Y-78172596D01*
X131121372Y-78269846D01*
X131288228Y-78330529D01*
X131486886Y-78353767D01*
X131510624Y-78354000D01*
X131597202Y-78351266D01*
X131649307Y-78339376D01*
X131683135Y-78312797D01*
X131700284Y-78289204D01*
X131750871Y-78190595D01*
X131790603Y-78063193D01*
X131820440Y-77901705D01*
X131841342Y-77700839D01*
X131854269Y-77455301D01*
X131854879Y-77436958D01*
X131869271Y-76989816D01*
X132030835Y-76910145D01*
X132192400Y-76830474D01*
X132192191Y-77115987D01*
X132182894Y-77432582D01*
X132155633Y-77705462D01*
X132110610Y-77933616D01*
X132048029Y-78116035D01*
X131968093Y-78251710D01*
X131962189Y-78259022D01*
X131902287Y-78315854D01*
X131811765Y-78383157D01*
X131705986Y-78449803D01*
X131674106Y-78467714D01*
X131570643Y-78522444D01*
X131494415Y-78556191D01*
X131428893Y-78573766D01*
X131357548Y-78579980D01*
X131288123Y-78580048D01*
X131181758Y-78575328D01*
X131080980Y-78565611D01*
X131017255Y-78554963D01*
X130848665Y-78493897D01*
X130706831Y-78399298D01*
X130644727Y-78335687D01*
X130602222Y-78280215D01*
X130568249Y-78223458D01*
X130541866Y-78159101D01*
X130522127Y-78080833D01*
X130508088Y-77982340D01*
X130498805Y-77857309D01*
X130493334Y-77699428D01*
X130490731Y-77502384D01*
X130490070Y-77301639D01*
X130488620Y-77045690D01*
X130484330Y-76835045D01*
X130476641Y-76664256D01*
X130464992Y-76527879D01*
X130448825Y-76420468D01*
X130427580Y-76336578D01*
X130400699Y-76270761D01*
X130380653Y-76236179D01*
X130319253Y-76182026D01*
X130231687Y-76168474D01*
X130116618Y-76195611D01*
X129973247Y-76263225D01*
X129804800Y-76356851D01*
X129804206Y-76714075D01*
X129800630Y-76909055D01*
X129789174Y-77076629D01*
X129767659Y-77239873D01*
X129740566Y-77388800D01*
X129710990Y-77546338D01*
X129680934Y-77720916D01*
X129654499Y-77888005D01*
X129640019Y-77989846D01*
X129618569Y-78141324D01*
X129597669Y-78250957D01*
X129572943Y-78327458D01*
X129540012Y-78379543D01*
X129494499Y-78415926D01*
X129432027Y-78445321D01*
X129406234Y-78455238D01*
X129325533Y-78483331D01*
X129261383Y-78501914D01*
X129235522Y-78506400D01*
X129215586Y-78498587D01*
X129199963Y-78471780D01*
X129188176Y-78420926D01*
X129179748Y-78340971D01*
X129174204Y-78226862D01*
X129171065Y-78073546D01*
X129169857Y-77875968D01*
X129169800Y-77809508D01*
X129170445Y-77619817D01*
X129172818Y-77471656D01*
X129177570Y-77355768D01*
X129185355Y-77262895D01*
X129196827Y-77183779D01*
X129212637Y-77109163D01*
X129221755Y-77073006D01*
X129244792Y-76979884D01*
X129260102Y-76907685D01*
X129265173Y-76868663D01*
X129264372Y-76865305D01*
X129246538Y-76879718D01*
X129208481Y-76926440D01*
X129158235Y-76995564D01*
X129155266Y-76999835D01*
X129019942Y-77153165D01*
X128842662Y-77286412D01*
X128629912Y-77394781D01*
X128609626Y-77403000D01*
X128538165Y-77429952D01*
X128475898Y-77448036D01*
X128410378Y-77458665D01*
X128329160Y-77463250D01*
X128219797Y-77463202D01*
X128100897Y-77460710D01*
X127960709Y-77456666D01*
X127858973Y-77451090D01*
X127783346Y-77441760D01*
X127721484Y-77426454D01*
X127661044Y-77402950D01*
X127589683Y-77369026D01*
X127588585Y-77368485D01*
X127420794Y-77257967D01*
X127278466Y-77106333D01*
X127165238Y-76918342D01*
X127089425Y-76715700D01*
X127064800Y-76621329D01*
X127033247Y-76489829D01*
X126997549Y-76333931D01*
X126960491Y-76166369D01*
X126924857Y-75999875D01*
X126893432Y-75847183D01*
X126869000Y-75721024D01*
X126857583Y-75655528D01*
X126840334Y-75486528D01*
X126836016Y-75288627D01*
X126843467Y-75073720D01*
X126861528Y-74853704D01*
X126889034Y-74640474D01*
X126924826Y-74445927D01*
X126967741Y-74281958D01*
X127000284Y-74194258D01*
X127127156Y-73958703D01*
X127298124Y-73722486D01*
X127506917Y-73491583D01*
X127747265Y-73271971D01*
X128012900Y-73069626D01*
X128297550Y-72890523D01*
X128457401Y-72805356D01*
X128621955Y-72727137D01*
X128774311Y-72664754D01*
X128923021Y-72616768D01*
X129076636Y-72581742D01*
X129243707Y-72558238D01*
X129432786Y-72544819D01*
X129652423Y-72540047D01*
X129911171Y-72542484D01*
G37*
X129911171Y-72542484D02*
X130008000Y-72544660D01*
X130175671Y-72549568D01*
X130328083Y-72555412D01*
X130457272Y-72561775D01*
X130555274Y-72568240D01*
X130614126Y-72574390D01*
X130625885Y-72577009D01*
X130643174Y-72591055D01*
X130631405Y-72613713D01*
X130585229Y-72650949D01*
X130519785Y-72695329D01*
X130367299Y-72795538D01*
X130125631Y-72765119D01*
X129988446Y-72753135D01*
X129809858Y-72745885D01*
X129599061Y-72743597D01*
X129368131Y-72746432D01*
X129187901Y-72751034D01*
X129049009Y-72756235D01*
X128941994Y-72763053D01*
X128857396Y-72772503D01*
X128785755Y-72785604D01*
X128717610Y-72803372D01*
X128654737Y-72823110D01*
X128384371Y-72938211D01*
X128124869Y-73101406D01*
X127878890Y-73310656D01*
X127649096Y-73563924D01*
X127591358Y-73638017D01*
X127467317Y-73812838D01*
X127374632Y-73972146D01*
X127306616Y-74132009D01*
X127256579Y-74308492D01*
X127217835Y-74517665D01*
X127213687Y-74545316D01*
X127172906Y-74915660D01*
X127164821Y-75257386D01*
X127189532Y-75580838D01*
X127225620Y-75798108D01*
X127292901Y-76104005D01*
X127362146Y-76363297D01*
X127435463Y-76580180D01*
X127514962Y-76758850D01*
X127602754Y-76903501D01*
X127700946Y-77018331D01*
X127811651Y-77107533D01*
X127912500Y-77164146D01*
X127978151Y-77193782D01*
X128035681Y-77213980D01*
X128097265Y-77226539D01*
X128175077Y-77233258D01*
X128281289Y-77235936D01*
X128401268Y-77236379D01*
X128737636Y-77236400D01*
X128873157Y-77052250D01*
X129060307Y-76774415D01*
X129205461Y-76502623D01*
X129312798Y-76225242D01*
X129383494Y-75942657D01*
X129804800Y-75942657D01*
X129804800Y-76192831D01*
X129950850Y-76106484D01*
X130058236Y-76048824D01*
X130178129Y-75992923D01*
X130249300Y-75964177D01*
X130330641Y-75925922D01*
X130437855Y-75863958D01*
X130558803Y-75786591D01*
X130681347Y-75702127D01*
X130793348Y-75618875D01*
X130882669Y-75545139D01*
X130929613Y-75498615D01*
X130991256Y-75417841D01*
X131033112Y-75336873D01*
X131058650Y-75243078D01*
X131071339Y-75123823D01*
X131074652Y-74970461D01*
X131068619Y-74741632D01*
X131051108Y-74551440D01*
X131022624Y-74403907D01*
X130993373Y-74321578D01*
X130944998Y-74268257D01*
X130862225Y-74243191D01*
X130741817Y-74245861D01*
X130633957Y-74263840D01*
X130551494Y-74286706D01*
X130483395Y-74322928D01*
X130411564Y-74383532D01*
X130370774Y-74424183D01*
X130250879Y-74558221D01*
X130151404Y-74696549D01*
X130067333Y-74849149D01*
X129993647Y-75026001D01*
X129925328Y-75237087D01*
X129881323Y-75397762D01*
X129842367Y-75560766D01*
X129818640Y-75697550D01*
X129807163Y-75829319D01*
X129804800Y-75942657D01*
X129383494Y-75942657D01*
X129386501Y-75930639D01*
X129430750Y-75607181D01*
X129440789Y-75473003D01*
X129457470Y-75195506D01*
X129370785Y-75258359D01*
X129285255Y-75302772D01*
X129159834Y-75344739D01*
X129005429Y-75382102D01*
X128832949Y-75412704D01*
X128653300Y-75434388D01*
X128477392Y-75444996D01*
X128423601Y-75445700D01*
X128147302Y-75445700D01*
X128077245Y-75318700D01*
X128033737Y-75225174D01*
X128000951Y-75128402D01*
X127991370Y-75084228D01*
X127975552Y-74976757D01*
X128134526Y-74893910D01*
X128215450Y-74851825D01*
X128277807Y-74819557D01*
X128308706Y-74803775D01*
X128309221Y-74803525D01*
X128320362Y-74821729D01*
X128331582Y-74876539D01*
X128336938Y-74920818D01*
X128356694Y-75018115D01*
X128391776Y-75111862D01*
X128405838Y-75137725D01*
X128462743Y-75229800D01*
X128695621Y-75229343D01*
X128964028Y-75209926D01*
X129195200Y-75166300D01*
X129310666Y-75140347D01*
X129412438Y-75119555D01*
X129487464Y-75106473D01*
X129517854Y-75103256D01*
X129599554Y-75089234D01*
X129672719Y-75044318D01*
X129745181Y-74962061D01*
X129808483Y-74864068D01*
X129976920Y-74628413D01*
X130184739Y-74422776D01*
X130427774Y-74251018D01*
X130532026Y-74193628D01*
X130706660Y-74113968D01*
X130874061Y-74055382D01*
X131024767Y-74020323D01*
X131149316Y-74011248D01*
X131205755Y-74018835D01*
X131272025Y-74059534D01*
X131324677Y-74145493D01*
X131363928Y-74277585D01*
X131389995Y-74456684D01*
X131403094Y-74683661D01*
X131404852Y-74819962D01*
X131402197Y-74979405D01*
X131390490Y-75105800D01*
X131364374Y-75208888D01*
X131318492Y-75298411D01*
X131247486Y-75384110D01*
X131145998Y-75475725D01*
X131008670Y-75582999D01*
X130968699Y-75612966D01*
X130856047Y-75696224D01*
X130751485Y-75772007D01*
X130664799Y-75833327D01*
X130605775Y-75873196D01*
X130594497Y-75880183D01*
X130516895Y-75926023D01*
X130598699Y-75952561D01*
X130665104Y-75989892D01*
X130717545Y-76058548D01*
X130761502Y-76166727D01*
X130776910Y-76219129D01*
X130783479Y-76266291D01*
X130790432Y-76357316D01*
X130797455Y-76485271D01*
X130804232Y-76643226D01*
X130810448Y-76824247D01*
X130815788Y-77021403D01*
X130817995Y-77122100D01*
X130822709Y-77347858D01*
X130827057Y-77528712D01*
X130831499Y-77670551D01*
X130836498Y-77779266D01*
X130842517Y-77860744D01*
X130850016Y-77920876D01*
X130859459Y-77965550D01*
X130871307Y-78000656D01*
X130886023Y-78032084D01*
X130889991Y-78039654D01*
X130988050Y-78172596D01*
X131121372Y-78269846D01*
X131288228Y-78330529D01*
X131486886Y-78353767D01*
X131510624Y-78354000D01*
X131597202Y-78351266D01*
X131649307Y-78339376D01*
X131683135Y-78312797D01*
X131700284Y-78289204D01*
X131750871Y-78190595D01*
X131790603Y-78063193D01*
X131820440Y-77901705D01*
X131841342Y-77700839D01*
X131854269Y-77455301D01*
X131854879Y-77436958D01*
X131869271Y-76989816D01*
X132030835Y-76910145D01*
X132192400Y-76830474D01*
X132192191Y-77115987D01*
X132182894Y-77432582D01*
X132155633Y-77705462D01*
X132110610Y-77933616D01*
X132048029Y-78116035D01*
X131968093Y-78251710D01*
X131962189Y-78259022D01*
X131902287Y-78315854D01*
X131811765Y-78383157D01*
X131705986Y-78449803D01*
X131674106Y-78467714D01*
X131570643Y-78522444D01*
X131494415Y-78556191D01*
X131428893Y-78573766D01*
X131357548Y-78579980D01*
X131288123Y-78580048D01*
X131181758Y-78575328D01*
X131080980Y-78565611D01*
X131017255Y-78554963D01*
X130848665Y-78493897D01*
X130706831Y-78399298D01*
X130644727Y-78335687D01*
X130602222Y-78280215D01*
X130568249Y-78223458D01*
X130541866Y-78159101D01*
X130522127Y-78080833D01*
X130508088Y-77982340D01*
X130498805Y-77857309D01*
X130493334Y-77699428D01*
X130490731Y-77502384D01*
X130490070Y-77301639D01*
X130488620Y-77045690D01*
X130484330Y-76835045D01*
X130476641Y-76664256D01*
X130464992Y-76527879D01*
X130448825Y-76420468D01*
X130427580Y-76336578D01*
X130400699Y-76270761D01*
X130380653Y-76236179D01*
X130319253Y-76182026D01*
X130231687Y-76168474D01*
X130116618Y-76195611D01*
X129973247Y-76263225D01*
X129804800Y-76356851D01*
X129804206Y-76714075D01*
X129800630Y-76909055D01*
X129789174Y-77076629D01*
X129767659Y-77239873D01*
X129740566Y-77388800D01*
X129710990Y-77546338D01*
X129680934Y-77720916D01*
X129654499Y-77888005D01*
X129640019Y-77989846D01*
X129618569Y-78141324D01*
X129597669Y-78250957D01*
X129572943Y-78327458D01*
X129540012Y-78379543D01*
X129494499Y-78415926D01*
X129432027Y-78445321D01*
X129406234Y-78455238D01*
X129325533Y-78483331D01*
X129261383Y-78501914D01*
X129235522Y-78506400D01*
X129215586Y-78498587D01*
X129199963Y-78471780D01*
X129188176Y-78420926D01*
X129179748Y-78340971D01*
X129174204Y-78226862D01*
X129171065Y-78073546D01*
X129169857Y-77875968D01*
X129169800Y-77809508D01*
X129170445Y-77619817D01*
X129172818Y-77471656D01*
X129177570Y-77355768D01*
X129185355Y-77262895D01*
X129196827Y-77183779D01*
X129212637Y-77109163D01*
X129221755Y-77073006D01*
X129244792Y-76979884D01*
X129260102Y-76907685D01*
X129265173Y-76868663D01*
X129264372Y-76865305D01*
X129246538Y-76879718D01*
X129208481Y-76926440D01*
X129158235Y-76995564D01*
X129155266Y-76999835D01*
X129019942Y-77153165D01*
X128842662Y-77286412D01*
X128629912Y-77394781D01*
X128609626Y-77403000D01*
X128538165Y-77429952D01*
X128475898Y-77448036D01*
X128410378Y-77458665D01*
X128329160Y-77463250D01*
X128219797Y-77463202D01*
X128100897Y-77460710D01*
X127960709Y-77456666D01*
X127858973Y-77451090D01*
X127783346Y-77441760D01*
X127721484Y-77426454D01*
X127661044Y-77402950D01*
X127589683Y-77369026D01*
X127588585Y-77368485D01*
X127420794Y-77257967D01*
X127278466Y-77106333D01*
X127165238Y-76918342D01*
X127089425Y-76715700D01*
X127064800Y-76621329D01*
X127033247Y-76489829D01*
X126997549Y-76333931D01*
X126960491Y-76166369D01*
X126924857Y-75999875D01*
X126893432Y-75847183D01*
X126869000Y-75721024D01*
X126857583Y-75655528D01*
X126840334Y-75486528D01*
X126836016Y-75288627D01*
X126843467Y-75073720D01*
X126861528Y-74853704D01*
X126889034Y-74640474D01*
X126924826Y-74445927D01*
X126967741Y-74281958D01*
X127000284Y-74194258D01*
X127127156Y-73958703D01*
X127298124Y-73722486D01*
X127506917Y-73491583D01*
X127747265Y-73271971D01*
X128012900Y-73069626D01*
X128297550Y-72890523D01*
X128457401Y-72805356D01*
X128621955Y-72727137D01*
X128774311Y-72664754D01*
X128923021Y-72616768D01*
X129076636Y-72581742D01*
X129243707Y-72558238D01*
X129432786Y-72544819D01*
X129652423Y-72540047D01*
X129911171Y-72542484D01*
%TO.C,REF\u002A\u002A*%
G36*
X147103910Y-125242348D02*
G01*
X147182454Y-125242778D01*
X147239298Y-125243942D01*
X147278105Y-125246207D01*
X147302538Y-125249940D01*
X147316262Y-125255506D01*
X147322940Y-125263273D01*
X147326236Y-125273605D01*
X147326556Y-125274943D01*
X147331562Y-125299079D01*
X147340829Y-125346701D01*
X147353392Y-125412741D01*
X147368287Y-125492128D01*
X147384551Y-125579796D01*
X147385119Y-125582875D01*
X147401410Y-125668789D01*
X147416652Y-125744696D01*
X147429861Y-125806045D01*
X147440054Y-125848282D01*
X147446248Y-125866855D01*
X147446543Y-125867184D01*
X147464788Y-125876253D01*
X147502405Y-125891367D01*
X147551271Y-125909262D01*
X147551543Y-125909358D01*
X147613093Y-125932493D01*
X147685657Y-125961965D01*
X147754057Y-125991597D01*
X147757294Y-125993062D01*
X147868702Y-126043626D01*
X148115399Y-125875160D01*
X148191077Y-125823803D01*
X148259631Y-125777889D01*
X148317088Y-125740030D01*
X148359476Y-125712837D01*
X148382825Y-125698921D01*
X148385042Y-125697889D01*
X148402010Y-125702484D01*
X148433701Y-125724655D01*
X148481352Y-125765447D01*
X148546198Y-125825905D01*
X148612397Y-125890227D01*
X148676214Y-125953612D01*
X148733329Y-126011451D01*
X148780305Y-126060175D01*
X148813703Y-126096210D01*
X148830085Y-126115984D01*
X148830694Y-126117002D01*
X148832505Y-126130572D01*
X148825683Y-126152733D01*
X148808540Y-126186478D01*
X148779393Y-126234800D01*
X148736555Y-126300692D01*
X148679448Y-126385517D01*
X148628766Y-126460177D01*
X148583461Y-126527140D01*
X148546150Y-126582516D01*
X148519452Y-126622420D01*
X148505985Y-126642962D01*
X148505137Y-126644356D01*
X148506781Y-126664038D01*
X148519245Y-126702293D01*
X148540048Y-126751889D01*
X148547462Y-126767728D01*
X148579814Y-126838290D01*
X148614328Y-126918353D01*
X148642365Y-126987629D01*
X148662568Y-127039045D01*
X148678615Y-127078119D01*
X148687888Y-127098541D01*
X148689041Y-127100114D01*
X148706096Y-127102721D01*
X148746298Y-127109863D01*
X148804302Y-127120523D01*
X148874763Y-127133685D01*
X148952335Y-127148333D01*
X149031672Y-127163449D01*
X149107431Y-127178018D01*
X149174264Y-127191022D01*
X149226828Y-127201445D01*
X149259776Y-127208270D01*
X149267857Y-127210199D01*
X149276205Y-127214962D01*
X149282506Y-127225718D01*
X149287045Y-127246098D01*
X149290104Y-127279734D01*
X149291967Y-127330255D01*
X149292918Y-127401292D01*
X149293240Y-127496476D01*
X149293257Y-127535492D01*
X149293257Y-127852799D01*
X149217057Y-127867839D01*
X149174663Y-127875995D01*
X149111400Y-127887899D01*
X149034962Y-127902116D01*
X148953043Y-127917210D01*
X148930400Y-127921355D01*
X148854806Y-127936053D01*
X148788953Y-127950505D01*
X148738366Y-127963375D01*
X148708574Y-127973322D01*
X148703612Y-127976287D01*
X148691426Y-127997283D01*
X148673953Y-128037967D01*
X148654577Y-128090322D01*
X148650734Y-128101600D01*
X148625339Y-128171523D01*
X148593817Y-128250418D01*
X148562969Y-128321266D01*
X148562817Y-128321595D01*
X148511447Y-128432733D01*
X148680399Y-128681253D01*
X148849352Y-128929772D01*
X148632429Y-129147058D01*
X148566819Y-129211726D01*
X148506979Y-129268733D01*
X148456267Y-129315033D01*
X148418046Y-129347584D01*
X148395675Y-129363343D01*
X148392466Y-129364343D01*
X148373626Y-129356469D01*
X148335180Y-129334578D01*
X148281330Y-129301267D01*
X148216276Y-129259131D01*
X148145940Y-129211943D01*
X148074555Y-129163810D01*
X148010908Y-129121928D01*
X147959041Y-129088871D01*
X147922995Y-129067218D01*
X147906867Y-129059543D01*
X147887189Y-129066037D01*
X147849875Y-129083150D01*
X147802621Y-129107326D01*
X147797612Y-129110013D01*
X147733977Y-129141927D01*
X147690341Y-129157579D01*
X147663202Y-129157745D01*
X147649057Y-129143204D01*
X147648975Y-129143000D01*
X147641905Y-129125779D01*
X147625042Y-129084899D01*
X147599695Y-129023525D01*
X147567171Y-128944819D01*
X147528778Y-128851947D01*
X147485822Y-128748072D01*
X147444222Y-128647502D01*
X147398504Y-128536516D01*
X147356526Y-128433703D01*
X147319548Y-128342215D01*
X147288827Y-128265201D01*
X147265622Y-128205815D01*
X147251190Y-128167209D01*
X147246743Y-128152800D01*
X147257896Y-128136272D01*
X147287069Y-128109930D01*
X147325971Y-128080887D01*
X147436757Y-127989039D01*
X147523351Y-127883759D01*
X147584716Y-127767266D01*
X147619815Y-127641776D01*
X147627608Y-127509507D01*
X147621943Y-127448457D01*
X147591078Y-127321795D01*
X147537920Y-127209941D01*
X147465767Y-127114001D01*
X147377917Y-127035076D01*
X147277665Y-126974270D01*
X147168310Y-126932687D01*
X147053147Y-126911428D01*
X146935475Y-126911599D01*
X146818590Y-126934301D01*
X146705789Y-126980638D01*
X146600369Y-127051713D01*
X146556368Y-127091911D01*
X146471979Y-127195129D01*
X146413222Y-127307925D01*
X146379704Y-127427010D01*
X146371035Y-127549095D01*
X146386823Y-127670893D01*
X146426678Y-127789116D01*
X146490207Y-127900475D01*
X146577021Y-128001684D01*
X146674029Y-128080887D01*
X146714437Y-128111162D01*
X146742982Y-128137219D01*
X146753257Y-128152825D01*
X146747877Y-128169843D01*
X146732575Y-128210500D01*
X146708612Y-128271642D01*
X146677244Y-128350119D01*
X146639732Y-128442780D01*
X146597333Y-128546472D01*
X146555663Y-128647526D01*
X146509690Y-128758607D01*
X146467107Y-128861541D01*
X146429221Y-128953165D01*
X146397340Y-129030316D01*
X146372771Y-129089831D01*
X146356820Y-129128544D01*
X146350910Y-129143000D01*
X146336948Y-129157685D01*
X146309940Y-129157642D01*
X146266413Y-129142099D01*
X146202890Y-129110284D01*
X146202388Y-129110013D01*
X146154560Y-129085323D01*
X146115897Y-129067338D01*
X146094095Y-129059614D01*
X146093133Y-129059543D01*
X146076721Y-129067378D01*
X146040487Y-129089165D01*
X145988474Y-129122328D01*
X145924725Y-129164291D01*
X145854060Y-129211943D01*
X145782116Y-129260191D01*
X145717274Y-129302151D01*
X145663735Y-129335227D01*
X145625697Y-129356821D01*
X145607533Y-129364343D01*
X145590808Y-129354457D01*
X145557180Y-129326826D01*
X145510010Y-129284495D01*
X145452658Y-129230505D01*
X145388484Y-129167899D01*
X145367497Y-129146983D01*
X145150499Y-128929623D01*
X145315668Y-128687220D01*
X145365864Y-128612781D01*
X145409919Y-128545972D01*
X145445362Y-128490665D01*
X145469719Y-128450729D01*
X145480522Y-128430036D01*
X145480838Y-128428563D01*
X145475143Y-128409058D01*
X145459826Y-128369822D01*
X145437537Y-128317430D01*
X145421893Y-128282355D01*
X145392641Y-128215201D01*
X145365094Y-128147358D01*
X145343737Y-128090034D01*
X145337935Y-128072572D01*
X145321452Y-128025938D01*
X145305340Y-127989905D01*
X145296490Y-127976287D01*
X145276960Y-127967952D01*
X145234334Y-127956137D01*
X145174145Y-127942181D01*
X145101922Y-127927422D01*
X145069600Y-127921355D01*
X144987522Y-127906273D01*
X144908795Y-127891669D01*
X144841109Y-127878980D01*
X144792160Y-127869642D01*
X144782943Y-127867839D01*
X144706743Y-127852799D01*
X144706743Y-127535492D01*
X144706914Y-127431154D01*
X144707616Y-127352213D01*
X144709134Y-127295038D01*
X144711749Y-127255999D01*
X144715746Y-127231465D01*
X144721409Y-127217805D01*
X144729020Y-127211389D01*
X144732143Y-127210199D01*
X144750978Y-127205980D01*
X144792588Y-127197562D01*
X144851630Y-127185961D01*
X144922757Y-127172195D01*
X145000625Y-127157280D01*
X145079887Y-127142232D01*
X145155198Y-127128069D01*
X145221213Y-127115806D01*
X145272587Y-127106461D01*
X145303975Y-127101050D01*
X145310959Y-127100114D01*
X145317285Y-127087596D01*
X145331290Y-127054246D01*
X145350355Y-127006377D01*
X145357634Y-126987629D01*
X145386996Y-126915195D01*
X145421571Y-126835170D01*
X145452537Y-126767728D01*
X145475323Y-126716159D01*
X145490482Y-126673785D01*
X145495542Y-126647834D01*
X145494736Y-126644356D01*
X145484041Y-126627936D01*
X145459620Y-126591417D01*
X145424095Y-126538687D01*
X145380087Y-126473635D01*
X145330217Y-126400151D01*
X145320356Y-126385645D01*
X145262492Y-126299704D01*
X145219956Y-126234261D01*
X145191054Y-126186304D01*
X145174090Y-126152820D01*
X145167367Y-126130795D01*
X145169190Y-126117217D01*
X145169236Y-126117131D01*
X145183586Y-126099297D01*
X145215323Y-126064817D01*
X145261010Y-126017268D01*
X145317204Y-125960222D01*
X145380468Y-125897255D01*
X145387602Y-125890227D01*
X145467330Y-125813020D01*
X145528857Y-125756330D01*
X145573421Y-125719110D01*
X145602257Y-125700315D01*
X145614958Y-125697889D01*
X145633494Y-125708471D01*
X145671961Y-125732916D01*
X145726386Y-125768612D01*
X145792798Y-125812947D01*
X145867225Y-125863311D01*
X145884601Y-125875160D01*
X146131297Y-126043626D01*
X146242706Y-125993062D01*
X146310457Y-125963595D01*
X146383183Y-125933959D01*
X146445703Y-125910330D01*
X146448457Y-125909358D01*
X146497360Y-125891457D01*
X146535057Y-125876320D01*
X146553425Y-125867210D01*
X146553456Y-125867184D01*
X146559285Y-125850717D01*
X146569192Y-125810219D01*
X146582195Y-125750242D01*
X146597309Y-125675340D01*
X146613552Y-125590064D01*
X146614881Y-125582875D01*
X146631175Y-125495014D01*
X146646133Y-125415260D01*
X146658791Y-125348681D01*
X146668186Y-125300347D01*
X146673354Y-125275325D01*
X146673444Y-125274943D01*
X146676589Y-125264299D01*
X146682704Y-125256262D01*
X146695453Y-125250467D01*
X146718500Y-125246547D01*
X146755509Y-125244135D01*
X146810144Y-125242865D01*
X146886067Y-125242371D01*
X146986944Y-125242286D01*
X147000000Y-125242286D01*
X147103910Y-125242348D01*
G37*
X147103910Y-125242348D02*
X147182454Y-125242778D01*
X147239298Y-125243942D01*
X147278105Y-125246207D01*
X147302538Y-125249940D01*
X147316262Y-125255506D01*
X147322940Y-125263273D01*
X147326236Y-125273605D01*
X147326556Y-125274943D01*
X147331562Y-125299079D01*
X147340829Y-125346701D01*
X147353392Y-125412741D01*
X147368287Y-125492128D01*
X147384551Y-125579796D01*
X147385119Y-125582875D01*
X147401410Y-125668789D01*
X147416652Y-125744696D01*
X147429861Y-125806045D01*
X147440054Y-125848282D01*
X147446248Y-125866855D01*
X147446543Y-125867184D01*
X147464788Y-125876253D01*
X147502405Y-125891367D01*
X147551271Y-125909262D01*
X147551543Y-125909358D01*
X147613093Y-125932493D01*
X147685657Y-125961965D01*
X147754057Y-125991597D01*
X147757294Y-125993062D01*
X147868702Y-126043626D01*
X148115399Y-125875160D01*
X148191077Y-125823803D01*
X148259631Y-125777889D01*
X148317088Y-125740030D01*
X148359476Y-125712837D01*
X148382825Y-125698921D01*
X148385042Y-125697889D01*
X148402010Y-125702484D01*
X148433701Y-125724655D01*
X148481352Y-125765447D01*
X148546198Y-125825905D01*
X148612397Y-125890227D01*
X148676214Y-125953612D01*
X148733329Y-126011451D01*
X148780305Y-126060175D01*
X148813703Y-126096210D01*
X148830085Y-126115984D01*
X148830694Y-126117002D01*
X148832505Y-126130572D01*
X148825683Y-126152733D01*
X148808540Y-126186478D01*
X148779393Y-126234800D01*
X148736555Y-126300692D01*
X148679448Y-126385517D01*
X148628766Y-126460177D01*
X148583461Y-126527140D01*
X148546150Y-126582516D01*
X148519452Y-126622420D01*
X148505985Y-126642962D01*
X148505137Y-126644356D01*
X148506781Y-126664038D01*
X148519245Y-126702293D01*
X148540048Y-126751889D01*
X148547462Y-126767728D01*
X148579814Y-126838290D01*
X148614328Y-126918353D01*
X148642365Y-126987629D01*
X148662568Y-127039045D01*
X148678615Y-127078119D01*
X148687888Y-127098541D01*
X148689041Y-127100114D01*
X148706096Y-127102721D01*
X148746298Y-127109863D01*
X148804302Y-127120523D01*
X148874763Y-127133685D01*
X148952335Y-127148333D01*
X149031672Y-127163449D01*
X149107431Y-127178018D01*
X149174264Y-127191022D01*
X149226828Y-127201445D01*
X149259776Y-127208270D01*
X149267857Y-127210199D01*
X149276205Y-127214962D01*
X149282506Y-127225718D01*
X149287045Y-127246098D01*
X149290104Y-127279734D01*
X149291967Y-127330255D01*
X149292918Y-127401292D01*
X149293240Y-127496476D01*
X149293257Y-127535492D01*
X149293257Y-127852799D01*
X149217057Y-127867839D01*
X149174663Y-127875995D01*
X149111400Y-127887899D01*
X149034962Y-127902116D01*
X148953043Y-127917210D01*
X148930400Y-127921355D01*
X148854806Y-127936053D01*
X148788953Y-127950505D01*
X148738366Y-127963375D01*
X148708574Y-127973322D01*
X148703612Y-127976287D01*
X148691426Y-127997283D01*
X148673953Y-128037967D01*
X148654577Y-128090322D01*
X148650734Y-128101600D01*
X148625339Y-128171523D01*
X148593817Y-128250418D01*
X148562969Y-128321266D01*
X148562817Y-128321595D01*
X148511447Y-128432733D01*
X148680399Y-128681253D01*
X148849352Y-128929772D01*
X148632429Y-129147058D01*
X148566819Y-129211726D01*
X148506979Y-129268733D01*
X148456267Y-129315033D01*
X148418046Y-129347584D01*
X148395675Y-129363343D01*
X148392466Y-129364343D01*
X148373626Y-129356469D01*
X148335180Y-129334578D01*
X148281330Y-129301267D01*
X148216276Y-129259131D01*
X148145940Y-129211943D01*
X148074555Y-129163810D01*
X148010908Y-129121928D01*
X147959041Y-129088871D01*
X147922995Y-129067218D01*
X147906867Y-129059543D01*
X147887189Y-129066037D01*
X147849875Y-129083150D01*
X147802621Y-129107326D01*
X147797612Y-129110013D01*
X147733977Y-129141927D01*
X147690341Y-129157579D01*
X147663202Y-129157745D01*
X147649057Y-129143204D01*
X147648975Y-129143000D01*
X147641905Y-129125779D01*
X147625042Y-129084899D01*
X147599695Y-129023525D01*
X147567171Y-128944819D01*
X147528778Y-128851947D01*
X147485822Y-128748072D01*
X147444222Y-128647502D01*
X147398504Y-128536516D01*
X147356526Y-128433703D01*
X147319548Y-128342215D01*
X147288827Y-128265201D01*
X147265622Y-128205815D01*
X147251190Y-128167209D01*
X147246743Y-128152800D01*
X147257896Y-128136272D01*
X147287069Y-128109930D01*
X147325971Y-128080887D01*
X147436757Y-127989039D01*
X147523351Y-127883759D01*
X147584716Y-127767266D01*
X147619815Y-127641776D01*
X147627608Y-127509507D01*
X147621943Y-127448457D01*
X147591078Y-127321795D01*
X147537920Y-127209941D01*
X147465767Y-127114001D01*
X147377917Y-127035076D01*
X147277665Y-126974270D01*
X147168310Y-126932687D01*
X147053147Y-126911428D01*
X146935475Y-126911599D01*
X146818590Y-126934301D01*
X146705789Y-126980638D01*
X146600369Y-127051713D01*
X146556368Y-127091911D01*
X146471979Y-127195129D01*
X146413222Y-127307925D01*
X146379704Y-127427010D01*
X146371035Y-127549095D01*
X146386823Y-127670893D01*
X146426678Y-127789116D01*
X146490207Y-127900475D01*
X146577021Y-128001684D01*
X146674029Y-128080887D01*
X146714437Y-128111162D01*
X146742982Y-128137219D01*
X146753257Y-128152825D01*
X146747877Y-128169843D01*
X146732575Y-128210500D01*
X146708612Y-128271642D01*
X146677244Y-128350119D01*
X146639732Y-128442780D01*
X146597333Y-128546472D01*
X146555663Y-128647526D01*
X146509690Y-128758607D01*
X146467107Y-128861541D01*
X146429221Y-128953165D01*
X146397340Y-129030316D01*
X146372771Y-129089831D01*
X146356820Y-129128544D01*
X146350910Y-129143000D01*
X146336948Y-129157685D01*
X146309940Y-129157642D01*
X146266413Y-129142099D01*
X146202890Y-129110284D01*
X146202388Y-129110013D01*
X146154560Y-129085323D01*
X146115897Y-129067338D01*
X146094095Y-129059614D01*
X146093133Y-129059543D01*
X146076721Y-129067378D01*
X146040487Y-129089165D01*
X145988474Y-129122328D01*
X145924725Y-129164291D01*
X145854060Y-129211943D01*
X145782116Y-129260191D01*
X145717274Y-129302151D01*
X145663735Y-129335227D01*
X145625697Y-129356821D01*
X145607533Y-129364343D01*
X145590808Y-129354457D01*
X145557180Y-129326826D01*
X145510010Y-129284495D01*
X145452658Y-129230505D01*
X145388484Y-129167899D01*
X145367497Y-129146983D01*
X145150499Y-128929623D01*
X145315668Y-128687220D01*
X145365864Y-128612781D01*
X145409919Y-128545972D01*
X145445362Y-128490665D01*
X145469719Y-128450729D01*
X145480522Y-128430036D01*
X145480838Y-128428563D01*
X145475143Y-128409058D01*
X145459826Y-128369822D01*
X145437537Y-128317430D01*
X145421893Y-128282355D01*
X145392641Y-128215201D01*
X145365094Y-128147358D01*
X145343737Y-128090034D01*
X145337935Y-128072572D01*
X145321452Y-128025938D01*
X145305340Y-127989905D01*
X145296490Y-127976287D01*
X145276960Y-127967952D01*
X145234334Y-127956137D01*
X145174145Y-127942181D01*
X145101922Y-127927422D01*
X145069600Y-127921355D01*
X144987522Y-127906273D01*
X144908795Y-127891669D01*
X144841109Y-127878980D01*
X144792160Y-127869642D01*
X144782943Y-127867839D01*
X144706743Y-127852799D01*
X144706743Y-127535492D01*
X144706914Y-127431154D01*
X144707616Y-127352213D01*
X144709134Y-127295038D01*
X144711749Y-127255999D01*
X144715746Y-127231465D01*
X144721409Y-127217805D01*
X144729020Y-127211389D01*
X144732143Y-127210199D01*
X144750978Y-127205980D01*
X144792588Y-127197562D01*
X144851630Y-127185961D01*
X144922757Y-127172195D01*
X145000625Y-127157280D01*
X145079887Y-127142232D01*
X145155198Y-127128069D01*
X145221213Y-127115806D01*
X145272587Y-127106461D01*
X145303975Y-127101050D01*
X145310959Y-127100114D01*
X145317285Y-127087596D01*
X145331290Y-127054246D01*
X145350355Y-127006377D01*
X145357634Y-126987629D01*
X145386996Y-126915195D01*
X145421571Y-126835170D01*
X145452537Y-126767728D01*
X145475323Y-126716159D01*
X145490482Y-126673785D01*
X145495542Y-126647834D01*
X145494736Y-126644356D01*
X145484041Y-126627936D01*
X145459620Y-126591417D01*
X145424095Y-126538687D01*
X145380087Y-126473635D01*
X145330217Y-126400151D01*
X145320356Y-126385645D01*
X145262492Y-126299704D01*
X145219956Y-126234261D01*
X145191054Y-126186304D01*
X145174090Y-126152820D01*
X145167367Y-126130795D01*
X145169190Y-126117217D01*
X145169236Y-126117131D01*
X145183586Y-126099297D01*
X145215323Y-126064817D01*
X145261010Y-126017268D01*
X145317204Y-125960222D01*
X145380468Y-125897255D01*
X145387602Y-125890227D01*
X145467330Y-125813020D01*
X145528857Y-125756330D01*
X145573421Y-125719110D01*
X145602257Y-125700315D01*
X145614958Y-125697889D01*
X145633494Y-125708471D01*
X145671961Y-125732916D01*
X145726386Y-125768612D01*
X145792798Y-125812947D01*
X145867225Y-125863311D01*
X145884601Y-125875160D01*
X146131297Y-126043626D01*
X146242706Y-125993062D01*
X146310457Y-125963595D01*
X146383183Y-125933959D01*
X146445703Y-125910330D01*
X146448457Y-125909358D01*
X146497360Y-125891457D01*
X146535057Y-125876320D01*
X146553425Y-125867210D01*
X146553456Y-125867184D01*
X146559285Y-125850717D01*
X146569192Y-125810219D01*
X146582195Y-125750242D01*
X146597309Y-125675340D01*
X146613552Y-125590064D01*
X146614881Y-125582875D01*
X146631175Y-125495014D01*
X146646133Y-125415260D01*
X146658791Y-125348681D01*
X146668186Y-125300347D01*
X146673354Y-125275325D01*
X146673444Y-125274943D01*
X146676589Y-125264299D01*
X146682704Y-125256262D01*
X146695453Y-125250467D01*
X146718500Y-125246547D01*
X146755509Y-125244135D01*
X146810144Y-125242865D01*
X146886067Y-125242371D01*
X146986944Y-125242286D01*
X147000000Y-125242286D01*
X147103910Y-125242348D01*
G36*
X150153595Y-129966966D02*
G01*
X150211021Y-130004497D01*
X150238719Y-130038096D01*
X150260662Y-130099064D01*
X150262405Y-130147308D01*
X150258457Y-130211816D01*
X150109686Y-130276934D01*
X150037349Y-130310202D01*
X149990084Y-130336964D01*
X149965507Y-130360144D01*
X149961237Y-130382667D01*
X149974889Y-130407455D01*
X149989943Y-130423886D01*
X150033746Y-130450235D01*
X150081389Y-130452081D01*
X150125145Y-130431546D01*
X150157289Y-130390752D01*
X150163038Y-130376347D01*
X150190576Y-130331356D01*
X150222258Y-130312182D01*
X150265714Y-130295779D01*
X150265714Y-130357966D01*
X150261872Y-130400283D01*
X150246823Y-130435969D01*
X150215280Y-130476943D01*
X150210592Y-130482267D01*
X150175506Y-130518720D01*
X150145347Y-130538283D01*
X150107615Y-130547283D01*
X150076335Y-130550230D01*
X150020385Y-130550965D01*
X149980555Y-130541660D01*
X149955708Y-130527846D01*
X149916656Y-130497467D01*
X149889625Y-130464613D01*
X149872517Y-130423294D01*
X149863238Y-130367521D01*
X149859693Y-130291305D01*
X149859410Y-130252622D01*
X149860372Y-130206247D01*
X149948007Y-130206247D01*
X149949023Y-130231126D01*
X149951556Y-130235200D01*
X149968274Y-130229665D01*
X150004249Y-130215017D01*
X150052331Y-130194190D01*
X150062386Y-130189714D01*
X150123152Y-130158814D01*
X150156632Y-130131657D01*
X150163990Y-130106220D01*
X150146391Y-130080481D01*
X150131856Y-130069109D01*
X150079410Y-130046364D01*
X150030322Y-130050122D01*
X149989227Y-130077884D01*
X149960758Y-130127152D01*
X149951631Y-130166257D01*
X149948007Y-130206247D01*
X149860372Y-130206247D01*
X149861285Y-130162249D01*
X149868196Y-130095384D01*
X149881884Y-130046695D01*
X149904096Y-130010849D01*
X149936574Y-129982513D01*
X149950733Y-129973355D01*
X150015053Y-129949507D01*
X150085473Y-129948006D01*
X150153595Y-129966966D01*
G37*
X150153595Y-129966966D02*
X150211021Y-130004497D01*
X150238719Y-130038096D01*
X150260662Y-130099064D01*
X150262405Y-130147308D01*
X150258457Y-130211816D01*
X150109686Y-130276934D01*
X150037349Y-130310202D01*
X149990084Y-130336964D01*
X149965507Y-130360144D01*
X149961237Y-130382667D01*
X149974889Y-130407455D01*
X149989943Y-130423886D01*
X150033746Y-130450235D01*
X150081389Y-130452081D01*
X150125145Y-130431546D01*
X150157289Y-130390752D01*
X150163038Y-130376347D01*
X150190576Y-130331356D01*
X150222258Y-130312182D01*
X150265714Y-130295779D01*
X150265714Y-130357966D01*
X150261872Y-130400283D01*
X150246823Y-130435969D01*
X150215280Y-130476943D01*
X150210592Y-130482267D01*
X150175506Y-130518720D01*
X150145347Y-130538283D01*
X150107615Y-130547283D01*
X150076335Y-130550230D01*
X150020385Y-130550965D01*
X149980555Y-130541660D01*
X149955708Y-130527846D01*
X149916656Y-130497467D01*
X149889625Y-130464613D01*
X149872517Y-130423294D01*
X149863238Y-130367521D01*
X149859693Y-130291305D01*
X149859410Y-130252622D01*
X149860372Y-130206247D01*
X149948007Y-130206247D01*
X149949023Y-130231126D01*
X149951556Y-130235200D01*
X149968274Y-130229665D01*
X150004249Y-130215017D01*
X150052331Y-130194190D01*
X150062386Y-130189714D01*
X150123152Y-130158814D01*
X150156632Y-130131657D01*
X150163990Y-130106220D01*
X150146391Y-130080481D01*
X150131856Y-130069109D01*
X150079410Y-130046364D01*
X150030322Y-130050122D01*
X149989227Y-130077884D01*
X149960758Y-130127152D01*
X149951631Y-130166257D01*
X149948007Y-130206247D01*
X149860372Y-130206247D01*
X149861285Y-130162249D01*
X149868196Y-130095384D01*
X149881884Y-130046695D01*
X149904096Y-130010849D01*
X149936574Y-129982513D01*
X149950733Y-129973355D01*
X150015053Y-129949507D01*
X150085473Y-129948006D01*
X150153595Y-129966966D01*
G36*
X149652600Y-129958752D02*
G01*
X149669948Y-129966334D01*
X149711356Y-129999128D01*
X149746765Y-130046547D01*
X149768664Y-130097151D01*
X149772229Y-130122098D01*
X149760279Y-130156927D01*
X149734067Y-130175357D01*
X149705964Y-130186516D01*
X149693095Y-130188572D01*
X149686829Y-130173649D01*
X149674456Y-130141175D01*
X149669028Y-130126502D01*
X149638590Y-130075744D01*
X149594520Y-130050427D01*
X149538010Y-130051206D01*
X149533825Y-130052203D01*
X149503655Y-130066507D01*
X149481476Y-130094393D01*
X149466327Y-130139287D01*
X149457250Y-130204615D01*
X149453286Y-130293804D01*
X149452914Y-130341261D01*
X149452730Y-130416071D01*
X149451522Y-130467069D01*
X149448309Y-130499471D01*
X149442109Y-130518495D01*
X149431940Y-130529356D01*
X149416819Y-130537272D01*
X149415946Y-130537670D01*
X149386828Y-130549981D01*
X149372403Y-130554514D01*
X149370186Y-130540809D01*
X149368289Y-130502925D01*
X149366847Y-130445715D01*
X149365998Y-130374027D01*
X149365829Y-130321565D01*
X149366692Y-130220047D01*
X149370070Y-130143032D01*
X149377142Y-130086023D01*
X149389088Y-130044526D01*
X149407090Y-130014043D01*
X149432327Y-129990080D01*
X149457247Y-129973355D01*
X149517171Y-129951097D01*
X149586911Y-129946076D01*
X149652600Y-129958752D01*
G37*
X149652600Y-129958752D02*
X149669948Y-129966334D01*
X149711356Y-129999128D01*
X149746765Y-130046547D01*
X149768664Y-130097151D01*
X149772229Y-130122098D01*
X149760279Y-130156927D01*
X149734067Y-130175357D01*
X149705964Y-130186516D01*
X149693095Y-130188572D01*
X149686829Y-130173649D01*
X149674456Y-130141175D01*
X149669028Y-130126502D01*
X149638590Y-130075744D01*
X149594520Y-130050427D01*
X149538010Y-130051206D01*
X149533825Y-130052203D01*
X149503655Y-130066507D01*
X149481476Y-130094393D01*
X149466327Y-130139287D01*
X149457250Y-130204615D01*
X149453286Y-130293804D01*
X149452914Y-130341261D01*
X149452730Y-130416071D01*
X149451522Y-130467069D01*
X149448309Y-130499471D01*
X149442109Y-130518495D01*
X149431940Y-130529356D01*
X149416819Y-130537272D01*
X149415946Y-130537670D01*
X149386828Y-130549981D01*
X149372403Y-130554514D01*
X149370186Y-130540809D01*
X149368289Y-130502925D01*
X149366847Y-130445715D01*
X149365998Y-130374027D01*
X149365829Y-130321565D01*
X149366692Y-130220047D01*
X149370070Y-130143032D01*
X149377142Y-130086023D01*
X149389088Y-130044526D01*
X149407090Y-130014043D01*
X149432327Y-129990080D01*
X149457247Y-129973355D01*
X149517171Y-129951097D01*
X149586911Y-129946076D01*
X149652600Y-129958752D01*
G36*
X149144876Y-129956335D02*
G01*
X149186667Y-129975344D01*
X149219469Y-129998378D01*
X149243503Y-130024133D01*
X149260097Y-130057358D01*
X149270577Y-130102800D01*
X149276271Y-130165207D01*
X149278507Y-130249327D01*
X149278743Y-130304721D01*
X149278743Y-130520826D01*
X149241774Y-130537670D01*
X149212656Y-130549981D01*
X149198231Y-130554514D01*
X149195472Y-130541025D01*
X149193282Y-130504653D01*
X149191942Y-130451542D01*
X149191657Y-130409372D01*
X149190434Y-130348447D01*
X149187136Y-130300115D01*
X149182321Y-130270518D01*
X149178496Y-130264229D01*
X149152783Y-130270652D01*
X149112418Y-130287125D01*
X149065679Y-130309458D01*
X149020845Y-130333457D01*
X148986193Y-130354930D01*
X148970002Y-130369685D01*
X148969938Y-130369845D01*
X148971330Y-130397152D01*
X148983818Y-130423219D01*
X149005743Y-130444392D01*
X149037743Y-130451474D01*
X149065092Y-130450649D01*
X149103826Y-130450042D01*
X149124158Y-130459116D01*
X149136369Y-130483092D01*
X149137909Y-130487613D01*
X149143203Y-130521806D01*
X149129047Y-130542568D01*
X149092148Y-130552462D01*
X149052289Y-130554292D01*
X148980562Y-130540727D01*
X148943432Y-130521355D01*
X148897576Y-130475845D01*
X148873256Y-130419983D01*
X148871073Y-130360957D01*
X148891629Y-130305953D01*
X148922549Y-130271486D01*
X148953420Y-130252189D01*
X149001942Y-130227759D01*
X149058485Y-130202985D01*
X149067910Y-130199199D01*
X149130019Y-130171791D01*
X149165822Y-130147634D01*
X149177337Y-130123619D01*
X149166580Y-130096635D01*
X149148114Y-130075543D01*
X149104469Y-130049572D01*
X149056446Y-130047624D01*
X149012406Y-130067637D01*
X148980709Y-130107551D01*
X148976549Y-130117848D01*
X148952327Y-130155724D01*
X148916965Y-130183842D01*
X148872343Y-130206917D01*
X148872343Y-130141485D01*
X148874969Y-130101506D01*
X148886230Y-130069997D01*
X148911199Y-130036378D01*
X148935169Y-130010484D01*
X148972441Y-129973817D01*
X149001401Y-129954121D01*
X149032505Y-129946220D01*
X149067713Y-129944914D01*
X149144876Y-129956335D01*
G37*
X149144876Y-129956335D02*
X149186667Y-129975344D01*
X149219469Y-129998378D01*
X149243503Y-130024133D01*
X149260097Y-130057358D01*
X149270577Y-130102800D01*
X149276271Y-130165207D01*
X149278507Y-130249327D01*
X149278743Y-130304721D01*
X149278743Y-130520826D01*
X149241774Y-130537670D01*
X149212656Y-130549981D01*
X149198231Y-130554514D01*
X149195472Y-130541025D01*
X149193282Y-130504653D01*
X149191942Y-130451542D01*
X149191657Y-130409372D01*
X149190434Y-130348447D01*
X149187136Y-130300115D01*
X149182321Y-130270518D01*
X149178496Y-130264229D01*
X149152783Y-130270652D01*
X149112418Y-130287125D01*
X149065679Y-130309458D01*
X149020845Y-130333457D01*
X148986193Y-130354930D01*
X148970002Y-130369685D01*
X148969938Y-130369845D01*
X148971330Y-130397152D01*
X148983818Y-130423219D01*
X149005743Y-130444392D01*
X149037743Y-130451474D01*
X149065092Y-130450649D01*
X149103826Y-130450042D01*
X149124158Y-130459116D01*
X149136369Y-130483092D01*
X149137909Y-130487613D01*
X149143203Y-130521806D01*
X149129047Y-130542568D01*
X149092148Y-130552462D01*
X149052289Y-130554292D01*
X148980562Y-130540727D01*
X148943432Y-130521355D01*
X148897576Y-130475845D01*
X148873256Y-130419983D01*
X148871073Y-130360957D01*
X148891629Y-130305953D01*
X148922549Y-130271486D01*
X148953420Y-130252189D01*
X149001942Y-130227759D01*
X149058485Y-130202985D01*
X149067910Y-130199199D01*
X149130019Y-130171791D01*
X149165822Y-130147634D01*
X149177337Y-130123619D01*
X149166580Y-130096635D01*
X149148114Y-130075543D01*
X149104469Y-130049572D01*
X149056446Y-130047624D01*
X149012406Y-130067637D01*
X148980709Y-130107551D01*
X148976549Y-130117848D01*
X148952327Y-130155724D01*
X148916965Y-130183842D01*
X148872343Y-130206917D01*
X148872343Y-130141485D01*
X148874969Y-130101506D01*
X148886230Y-130069997D01*
X148911199Y-130036378D01*
X148935169Y-130010484D01*
X148972441Y-129973817D01*
X149001401Y-129954121D01*
X149032505Y-129946220D01*
X149067713Y-129944914D01*
X149144876Y-129956335D01*
G36*
X148779833Y-129958663D02*
G01*
X148782048Y-129996850D01*
X148783784Y-130054886D01*
X148784899Y-130128180D01*
X148785257Y-130205055D01*
X148785257Y-130465196D01*
X148739326Y-130511127D01*
X148707675Y-130539429D01*
X148679890Y-130550893D01*
X148641915Y-130550168D01*
X148626840Y-130548321D01*
X148579726Y-130542948D01*
X148540756Y-130539869D01*
X148531257Y-130539585D01*
X148499233Y-130541445D01*
X148453432Y-130546114D01*
X148435674Y-130548321D01*
X148392057Y-130551735D01*
X148362745Y-130544320D01*
X148333680Y-130521427D01*
X148323188Y-130511127D01*
X148277257Y-130465196D01*
X148277257Y-129978602D01*
X148314226Y-129961758D01*
X148346059Y-129949282D01*
X148364683Y-129944914D01*
X148369458Y-129958718D01*
X148373921Y-129997286D01*
X148377775Y-130056356D01*
X148380722Y-130131663D01*
X148382143Y-130195286D01*
X148386114Y-130445657D01*
X148420759Y-130450556D01*
X148452268Y-130447131D01*
X148467708Y-130436041D01*
X148472023Y-130415308D01*
X148475708Y-130371145D01*
X148478469Y-130309146D01*
X148480012Y-130234909D01*
X148480235Y-130196706D01*
X148480457Y-129976783D01*
X148526166Y-129960849D01*
X148558518Y-129950015D01*
X148576115Y-129944962D01*
X148576623Y-129944914D01*
X148578388Y-129958648D01*
X148580329Y-129996730D01*
X148582282Y-130054482D01*
X148584084Y-130127227D01*
X148585343Y-130195286D01*
X148589314Y-130445657D01*
X148676400Y-130445657D01*
X148680396Y-130217240D01*
X148684392Y-129988822D01*
X148726847Y-129966868D01*
X148758192Y-129951793D01*
X148776744Y-129944951D01*
X148777279Y-129944914D01*
X148779833Y-129958663D01*
G37*
X148779833Y-129958663D02*
X148782048Y-129996850D01*
X148783784Y-130054886D01*
X148784899Y-130128180D01*
X148785257Y-130205055D01*
X148785257Y-130465196D01*
X148739326Y-130511127D01*
X148707675Y-130539429D01*
X148679890Y-130550893D01*
X148641915Y-130550168D01*
X148626840Y-130548321D01*
X148579726Y-130542948D01*
X148540756Y-130539869D01*
X148531257Y-130539585D01*
X148499233Y-130541445D01*
X148453432Y-130546114D01*
X148435674Y-130548321D01*
X148392057Y-130551735D01*
X148362745Y-130544320D01*
X148333680Y-130521427D01*
X148323188Y-130511127D01*
X148277257Y-130465196D01*
X148277257Y-129978602D01*
X148314226Y-129961758D01*
X148346059Y-129949282D01*
X148364683Y-129944914D01*
X148369458Y-129958718D01*
X148373921Y-129997286D01*
X148377775Y-130056356D01*
X148380722Y-130131663D01*
X148382143Y-130195286D01*
X148386114Y-130445657D01*
X148420759Y-130450556D01*
X148452268Y-130447131D01*
X148467708Y-130436041D01*
X148472023Y-130415308D01*
X148475708Y-130371145D01*
X148478469Y-130309146D01*
X148480012Y-130234909D01*
X148480235Y-130196706D01*
X148480457Y-129976783D01*
X148526166Y-129960849D01*
X148558518Y-129950015D01*
X148576115Y-129944962D01*
X148576623Y-129944914D01*
X148578388Y-129958648D01*
X148580329Y-129996730D01*
X148582282Y-130054482D01*
X148584084Y-130127227D01*
X148585343Y-130195286D01*
X148589314Y-130445657D01*
X148676400Y-130445657D01*
X148680396Y-130217240D01*
X148684392Y-129988822D01*
X148726847Y-129966868D01*
X148758192Y-129951793D01*
X148776744Y-129944951D01*
X148777279Y-129944914D01*
X148779833Y-129958663D01*
G36*
X148190117Y-130065358D02*
G01*
X148189933Y-130173837D01*
X148189219Y-130257287D01*
X148187675Y-130319704D01*
X148185001Y-130365085D01*
X148180894Y-130397429D01*
X148175055Y-130420733D01*
X148167182Y-130438995D01*
X148161221Y-130449418D01*
X148111855Y-130505945D01*
X148049264Y-130541377D01*
X147980013Y-130554090D01*
X147910668Y-130542463D01*
X147869375Y-130521568D01*
X147826025Y-130485422D01*
X147796481Y-130441276D01*
X147778655Y-130383462D01*
X147770463Y-130306313D01*
X147769302Y-130249714D01*
X147769458Y-130245647D01*
X147870857Y-130245647D01*
X147871476Y-130310550D01*
X147874314Y-130353514D01*
X147880840Y-130381622D01*
X147892523Y-130401953D01*
X147906483Y-130417288D01*
X147953365Y-130446890D01*
X148003701Y-130449419D01*
X148051276Y-130424705D01*
X148054979Y-130421356D01*
X148070783Y-130403935D01*
X148080693Y-130383209D01*
X148086058Y-130352362D01*
X148088228Y-130304577D01*
X148088571Y-130251748D01*
X148087827Y-130185381D01*
X148084748Y-130141106D01*
X148078061Y-130112009D01*
X148066496Y-130091173D01*
X148057013Y-130080107D01*
X148012960Y-130052198D01*
X147962224Y-130048843D01*
X147913796Y-130070159D01*
X147904450Y-130078073D01*
X147888540Y-130095647D01*
X147878610Y-130116587D01*
X147873278Y-130147782D01*
X147871163Y-130196122D01*
X147870857Y-130245647D01*
X147769458Y-130245647D01*
X147772810Y-130158568D01*
X147784726Y-130090086D01*
X147807135Y-130038600D01*
X147842124Y-129998443D01*
X147869375Y-129977861D01*
X147918907Y-129955625D01*
X147976316Y-129945304D01*
X148029682Y-129948067D01*
X148059543Y-129959212D01*
X148071261Y-129962383D01*
X148079037Y-129950557D01*
X148084465Y-129918866D01*
X148088571Y-129870593D01*
X148093067Y-129816829D01*
X148099313Y-129784482D01*
X148110676Y-129765985D01*
X148130528Y-129753770D01*
X148143000Y-129748362D01*
X148190171Y-129728601D01*
X148190117Y-130065358D01*
G37*
X148190117Y-130065358D02*
X148189933Y-130173837D01*
X148189219Y-130257287D01*
X148187675Y-130319704D01*
X148185001Y-130365085D01*
X148180894Y-130397429D01*
X148175055Y-130420733D01*
X148167182Y-130438995D01*
X148161221Y-130449418D01*
X148111855Y-130505945D01*
X148049264Y-130541377D01*
X147980013Y-130554090D01*
X147910668Y-130542463D01*
X147869375Y-130521568D01*
X147826025Y-130485422D01*
X147796481Y-130441276D01*
X147778655Y-130383462D01*
X147770463Y-130306313D01*
X147769302Y-130249714D01*
X147769458Y-130245647D01*
X147870857Y-130245647D01*
X147871476Y-130310550D01*
X147874314Y-130353514D01*
X147880840Y-130381622D01*
X147892523Y-130401953D01*
X147906483Y-130417288D01*
X147953365Y-130446890D01*
X148003701Y-130449419D01*
X148051276Y-130424705D01*
X148054979Y-130421356D01*
X148070783Y-130403935D01*
X148080693Y-130383209D01*
X148086058Y-130352362D01*
X148088228Y-130304577D01*
X148088571Y-130251748D01*
X148087827Y-130185381D01*
X148084748Y-130141106D01*
X148078061Y-130112009D01*
X148066496Y-130091173D01*
X148057013Y-130080107D01*
X148012960Y-130052198D01*
X147962224Y-130048843D01*
X147913796Y-130070159D01*
X147904450Y-130078073D01*
X147888540Y-130095647D01*
X147878610Y-130116587D01*
X147873278Y-130147782D01*
X147871163Y-130196122D01*
X147870857Y-130245647D01*
X147769458Y-130245647D01*
X147772810Y-130158568D01*
X147784726Y-130090086D01*
X147807135Y-130038600D01*
X147842124Y-129998443D01*
X147869375Y-129977861D01*
X147918907Y-129955625D01*
X147976316Y-129945304D01*
X148029682Y-129948067D01*
X148059543Y-129959212D01*
X148071261Y-129962383D01*
X148079037Y-129950557D01*
X148084465Y-129918866D01*
X148088571Y-129870593D01*
X148093067Y-129816829D01*
X148099313Y-129784482D01*
X148110676Y-129765985D01*
X148130528Y-129753770D01*
X148143000Y-129748362D01*
X148190171Y-129728601D01*
X148190117Y-130065358D01*
G36*
X147529926Y-129949755D02*
G01*
X147595858Y-129974084D01*
X147649273Y-130017117D01*
X147670164Y-130047409D01*
X147692939Y-130102994D01*
X147692466Y-130143186D01*
X147668562Y-130170217D01*
X147659717Y-130174813D01*
X147621530Y-130189144D01*
X147602028Y-130185472D01*
X147595422Y-130161407D01*
X147595086Y-130148114D01*
X147582992Y-130099210D01*
X147551471Y-130064999D01*
X147507659Y-130048476D01*
X147458695Y-130052634D01*
X147418894Y-130074227D01*
X147405450Y-130086544D01*
X147395921Y-130101487D01*
X147389485Y-130124075D01*
X147385317Y-130159328D01*
X147382597Y-130212266D01*
X147380502Y-130287907D01*
X147379960Y-130311857D01*
X147377981Y-130393790D01*
X147375731Y-130451455D01*
X147372357Y-130489608D01*
X147367006Y-130513004D01*
X147358824Y-130526398D01*
X147346959Y-130534545D01*
X147339362Y-130538144D01*
X147307102Y-130550452D01*
X147288111Y-130554514D01*
X147281836Y-130540948D01*
X147278006Y-130499934D01*
X147276600Y-130430999D01*
X147277598Y-130333669D01*
X147277908Y-130318657D01*
X147280101Y-130229859D01*
X147282693Y-130165019D01*
X147286382Y-130119067D01*
X147291864Y-130086935D01*
X147299835Y-130063553D01*
X147310993Y-130043852D01*
X147316830Y-130035410D01*
X147350296Y-129998057D01*
X147387727Y-129969003D01*
X147392309Y-129966467D01*
X147459426Y-129946443D01*
X147529926Y-129949755D01*
G37*
X147529926Y-129949755D02*
X147595858Y-129974084D01*
X147649273Y-130017117D01*
X147670164Y-130047409D01*
X147692939Y-130102994D01*
X147692466Y-130143186D01*
X147668562Y-130170217D01*
X147659717Y-130174813D01*
X147621530Y-130189144D01*
X147602028Y-130185472D01*
X147595422Y-130161407D01*
X147595086Y-130148114D01*
X147582992Y-130099210D01*
X147551471Y-130064999D01*
X147507659Y-130048476D01*
X147458695Y-130052634D01*
X147418894Y-130074227D01*
X147405450Y-130086544D01*
X147395921Y-130101487D01*
X147389485Y-130124075D01*
X147385317Y-130159328D01*
X147382597Y-130212266D01*
X147380502Y-130287907D01*
X147379960Y-130311857D01*
X147377981Y-130393790D01*
X147375731Y-130451455D01*
X147372357Y-130489608D01*
X147367006Y-130513004D01*
X147358824Y-130526398D01*
X147346959Y-130534545D01*
X147339362Y-130538144D01*
X147307102Y-130550452D01*
X147288111Y-130554514D01*
X147281836Y-130540948D01*
X147278006Y-130499934D01*
X147276600Y-130430999D01*
X147277598Y-130333669D01*
X147277908Y-130318657D01*
X147280101Y-130229859D01*
X147282693Y-130165019D01*
X147286382Y-130119067D01*
X147291864Y-130086935D01*
X147299835Y-130063553D01*
X147310993Y-130043852D01*
X147316830Y-130035410D01*
X147350296Y-129998057D01*
X147387727Y-129969003D01*
X147392309Y-129966467D01*
X147459426Y-129946443D01*
X147529926Y-129949755D01*
G36*
X147039744Y-129950968D02*
G01*
X147096616Y-129972087D01*
X147097267Y-129972493D01*
X147132440Y-129998380D01*
X147158407Y-130028633D01*
X147176670Y-130068058D01*
X147188732Y-130121462D01*
X147196096Y-130193651D01*
X147200264Y-130289432D01*
X147200629Y-130303078D01*
X147205876Y-130508842D01*
X147161716Y-130531678D01*
X147129763Y-130547110D01*
X147110470Y-130554423D01*
X147109578Y-130554514D01*
X147106239Y-130541022D01*
X147103587Y-130504626D01*
X147101956Y-130451452D01*
X147101600Y-130408393D01*
X147101592Y-130338641D01*
X147098403Y-130294837D01*
X147087288Y-130273944D01*
X147063501Y-130272925D01*
X147022296Y-130288741D01*
X146960086Y-130317815D01*
X146914341Y-130341963D01*
X146890813Y-130362913D01*
X146883896Y-130385747D01*
X146883886Y-130386877D01*
X146895299Y-130426212D01*
X146929092Y-130447462D01*
X146980809Y-130450539D01*
X147018061Y-130450006D01*
X147037703Y-130460735D01*
X147049952Y-130486505D01*
X147057002Y-130519337D01*
X147046842Y-130537966D01*
X147043017Y-130540632D01*
X147007001Y-130551340D01*
X146956566Y-130552856D01*
X146904626Y-130545759D01*
X146867822Y-130532788D01*
X146816938Y-130489585D01*
X146788014Y-130429446D01*
X146782286Y-130382462D01*
X146786657Y-130340082D01*
X146802475Y-130305488D01*
X146833797Y-130274763D01*
X146884678Y-130243990D01*
X146959176Y-130209252D01*
X146963714Y-130207288D01*
X147030821Y-130176287D01*
X147072232Y-130150862D01*
X147089981Y-130128014D01*
X147086107Y-130104745D01*
X147062643Y-130078056D01*
X147055627Y-130071914D01*
X147008630Y-130048100D01*
X146959933Y-130049103D01*
X146917522Y-130072451D01*
X146889384Y-130115675D01*
X146886769Y-130124160D01*
X146861308Y-130165308D01*
X146829001Y-130185128D01*
X146782286Y-130204770D01*
X146782286Y-130153950D01*
X146796496Y-130080082D01*
X146838675Y-130012327D01*
X146860624Y-129989661D01*
X146910517Y-129960569D01*
X146973967Y-129947400D01*
X147039744Y-129950968D01*
G37*
X147039744Y-129950968D02*
X147096616Y-129972087D01*
X147097267Y-129972493D01*
X147132440Y-129998380D01*
X147158407Y-130028633D01*
X147176670Y-130068058D01*
X147188732Y-130121462D01*
X147196096Y-130193651D01*
X147200264Y-130289432D01*
X147200629Y-130303078D01*
X147205876Y-130508842D01*
X147161716Y-130531678D01*
X147129763Y-130547110D01*
X147110470Y-130554423D01*
X147109578Y-130554514D01*
X147106239Y-130541022D01*
X147103587Y-130504626D01*
X147101956Y-130451452D01*
X147101600Y-130408393D01*
X147101592Y-130338641D01*
X147098403Y-130294837D01*
X147087288Y-130273944D01*
X147063501Y-130272925D01*
X147022296Y-130288741D01*
X146960086Y-130317815D01*
X146914341Y-130341963D01*
X146890813Y-130362913D01*
X146883896Y-130385747D01*
X146883886Y-130386877D01*
X146895299Y-130426212D01*
X146929092Y-130447462D01*
X146980809Y-130450539D01*
X147018061Y-130450006D01*
X147037703Y-130460735D01*
X147049952Y-130486505D01*
X147057002Y-130519337D01*
X147046842Y-130537966D01*
X147043017Y-130540632D01*
X147007001Y-130551340D01*
X146956566Y-130552856D01*
X146904626Y-130545759D01*
X146867822Y-130532788D01*
X146816938Y-130489585D01*
X146788014Y-130429446D01*
X146782286Y-130382462D01*
X146786657Y-130340082D01*
X146802475Y-130305488D01*
X146833797Y-130274763D01*
X146884678Y-130243990D01*
X146959176Y-130209252D01*
X146963714Y-130207288D01*
X147030821Y-130176287D01*
X147072232Y-130150862D01*
X147089981Y-130128014D01*
X147086107Y-130104745D01*
X147062643Y-130078056D01*
X147055627Y-130071914D01*
X147008630Y-130048100D01*
X146959933Y-130049103D01*
X146917522Y-130072451D01*
X146889384Y-130115675D01*
X146886769Y-130124160D01*
X146861308Y-130165308D01*
X146829001Y-130185128D01*
X146782286Y-130204770D01*
X146782286Y-130153950D01*
X146796496Y-130080082D01*
X146838675Y-130012327D01*
X146860624Y-129989661D01*
X146910517Y-129960569D01*
X146973967Y-129947400D01*
X147039744Y-129950968D01*
G36*
X146375886Y-129851289D02*
G01*
X146380139Y-129910613D01*
X146385025Y-129945572D01*
X146391795Y-129960820D01*
X146401702Y-129961015D01*
X146404914Y-129959195D01*
X146447644Y-129946015D01*
X146503227Y-129946785D01*
X146559737Y-129960333D01*
X146595082Y-129977861D01*
X146631321Y-130005861D01*
X146657813Y-130037549D01*
X146675999Y-130077813D01*
X146687322Y-130131543D01*
X146693222Y-130203626D01*
X146695143Y-130298951D01*
X146695177Y-130317237D01*
X146695200Y-130522646D01*
X146649491Y-130538580D01*
X146617027Y-130549420D01*
X146599215Y-130554468D01*
X146598691Y-130554514D01*
X146596937Y-130540828D01*
X146595444Y-130503076D01*
X146594326Y-130446224D01*
X146593697Y-130375234D01*
X146593600Y-130332073D01*
X146593398Y-130246973D01*
X146592358Y-130185981D01*
X146589831Y-130144177D01*
X146585164Y-130116642D01*
X146577707Y-130098456D01*
X146566811Y-130084698D01*
X146560007Y-130078073D01*
X146513272Y-130051375D01*
X146462272Y-130049375D01*
X146416001Y-130071955D01*
X146407444Y-130080107D01*
X146394893Y-130095436D01*
X146386188Y-130113618D01*
X146380631Y-130139909D01*
X146377526Y-130179562D01*
X146376176Y-130237832D01*
X146375886Y-130318173D01*
X146375886Y-130522646D01*
X146330177Y-130538580D01*
X146297713Y-130549420D01*
X146279901Y-130554468D01*
X146279377Y-130554514D01*
X146278037Y-130540623D01*
X146276828Y-130501439D01*
X146275801Y-130440700D01*
X146275002Y-130362141D01*
X146274481Y-130269498D01*
X146274286Y-130166509D01*
X146274286Y-129769342D01*
X146321457Y-129749444D01*
X146368629Y-129729547D01*
X146375886Y-129851289D01*
G37*
X146375886Y-129851289D02*
X146380139Y-129910613D01*
X146385025Y-129945572D01*
X146391795Y-129960820D01*
X146401702Y-129961015D01*
X146404914Y-129959195D01*
X146447644Y-129946015D01*
X146503227Y-129946785D01*
X146559737Y-129960333D01*
X146595082Y-129977861D01*
X146631321Y-130005861D01*
X146657813Y-130037549D01*
X146675999Y-130077813D01*
X146687322Y-130131543D01*
X146693222Y-130203626D01*
X146695143Y-130298951D01*
X146695177Y-130317237D01*
X146695200Y-130522646D01*
X146649491Y-130538580D01*
X146617027Y-130549420D01*
X146599215Y-130554468D01*
X146598691Y-130554514D01*
X146596937Y-130540828D01*
X146595444Y-130503076D01*
X146594326Y-130446224D01*
X146593697Y-130375234D01*
X146593600Y-130332073D01*
X146593398Y-130246973D01*
X146592358Y-130185981D01*
X146589831Y-130144177D01*
X146585164Y-130116642D01*
X146577707Y-130098456D01*
X146566811Y-130084698D01*
X146560007Y-130078073D01*
X146513272Y-130051375D01*
X146462272Y-130049375D01*
X146416001Y-130071955D01*
X146407444Y-130080107D01*
X146394893Y-130095436D01*
X146386188Y-130113618D01*
X146380631Y-130139909D01*
X146377526Y-130179562D01*
X146376176Y-130237832D01*
X146375886Y-130318173D01*
X146375886Y-130522646D01*
X146330177Y-130538580D01*
X146297713Y-130549420D01*
X146279901Y-130554468D01*
X146279377Y-130554514D01*
X146278037Y-130540623D01*
X146276828Y-130501439D01*
X146275801Y-130440700D01*
X146275002Y-130362141D01*
X146274481Y-130269498D01*
X146274286Y-130166509D01*
X146274286Y-129769342D01*
X146321457Y-129749444D01*
X146368629Y-129729547D01*
X146375886Y-129851289D01*
G36*
X145168303Y-129931239D02*
G01*
X145225527Y-129969735D01*
X145269749Y-130025335D01*
X145296167Y-130096086D01*
X145301510Y-130148162D01*
X145300903Y-130169893D01*
X145295822Y-130186531D01*
X145281855Y-130201437D01*
X145254589Y-130217973D01*
X145209612Y-130239498D01*
X145142511Y-130269374D01*
X145142171Y-130269524D01*
X145080407Y-130297813D01*
X145029759Y-130322933D01*
X144995404Y-130342179D01*
X144982518Y-130352848D01*
X144982514Y-130352934D01*
X144993872Y-130376166D01*
X145020431Y-130401774D01*
X145050923Y-130420221D01*
X145066370Y-130423886D01*
X145108515Y-130411212D01*
X145144808Y-130379471D01*
X145162517Y-130344572D01*
X145179552Y-130318845D01*
X145212922Y-130289546D01*
X145252149Y-130264235D01*
X145286756Y-130250471D01*
X145293993Y-130249714D01*
X145302139Y-130262160D01*
X145302630Y-130293972D01*
X145296643Y-130336866D01*
X145285357Y-130382558D01*
X145269950Y-130422761D01*
X145269171Y-130424322D01*
X145222804Y-130489062D01*
X145162711Y-130533097D01*
X145094465Y-130554711D01*
X145023638Y-130552185D01*
X144955804Y-130523804D01*
X144952788Y-130521808D01*
X144899427Y-130473448D01*
X144864340Y-130410352D01*
X144844922Y-130327387D01*
X144842316Y-130304078D01*
X144837701Y-130194055D01*
X144843233Y-130142748D01*
X144982514Y-130142748D01*
X144984324Y-130174753D01*
X144994222Y-130184093D01*
X145018898Y-130177105D01*
X145057795Y-130160587D01*
X145101275Y-130139881D01*
X145102356Y-130139333D01*
X145139209Y-130119949D01*
X145154000Y-130107013D01*
X145150353Y-130093451D01*
X145134995Y-130075632D01*
X145095923Y-130049845D01*
X145053846Y-130047950D01*
X145016103Y-130066717D01*
X144990034Y-130102915D01*
X144982514Y-130142748D01*
X144843233Y-130142748D01*
X144847194Y-130106027D01*
X144871550Y-130036212D01*
X144905456Y-129987302D01*
X144966653Y-129937878D01*
X145034063Y-129913359D01*
X145102880Y-129911797D01*
X145168303Y-129931239D01*
G37*
X145168303Y-129931239D02*
X145225527Y-129969735D01*
X145269749Y-130025335D01*
X145296167Y-130096086D01*
X145301510Y-130148162D01*
X145300903Y-130169893D01*
X145295822Y-130186531D01*
X145281855Y-130201437D01*
X145254589Y-130217973D01*
X145209612Y-130239498D01*
X145142511Y-130269374D01*
X145142171Y-130269524D01*
X145080407Y-130297813D01*
X145029759Y-130322933D01*
X144995404Y-130342179D01*
X144982518Y-130352848D01*
X144982514Y-130352934D01*
X144993872Y-130376166D01*
X145020431Y-130401774D01*
X145050923Y-130420221D01*
X145066370Y-130423886D01*
X145108515Y-130411212D01*
X145144808Y-130379471D01*
X145162517Y-130344572D01*
X145179552Y-130318845D01*
X145212922Y-130289546D01*
X145252149Y-130264235D01*
X145286756Y-130250471D01*
X145293993Y-130249714D01*
X145302139Y-130262160D01*
X145302630Y-130293972D01*
X145296643Y-130336866D01*
X145285357Y-130382558D01*
X145269950Y-130422761D01*
X145269171Y-130424322D01*
X145222804Y-130489062D01*
X145162711Y-130533097D01*
X145094465Y-130554711D01*
X145023638Y-130552185D01*
X144955804Y-130523804D01*
X144952788Y-130521808D01*
X144899427Y-130473448D01*
X144864340Y-130410352D01*
X144844922Y-130327387D01*
X144842316Y-130304078D01*
X144837701Y-130194055D01*
X144843233Y-130142748D01*
X144982514Y-130142748D01*
X144984324Y-130174753D01*
X144994222Y-130184093D01*
X145018898Y-130177105D01*
X145057795Y-130160587D01*
X145101275Y-130139881D01*
X145102356Y-130139333D01*
X145139209Y-130119949D01*
X145154000Y-130107013D01*
X145150353Y-130093451D01*
X145134995Y-130075632D01*
X145095923Y-130049845D01*
X145053846Y-130047950D01*
X145016103Y-130066717D01*
X144990034Y-130102915D01*
X144982514Y-130142748D01*
X144843233Y-130142748D01*
X144847194Y-130106027D01*
X144871550Y-130036212D01*
X144905456Y-129987302D01*
X144966653Y-129937878D01*
X145034063Y-129913359D01*
X145102880Y-129911797D01*
X145168303Y-129931239D01*
G36*
X144041115Y-129921962D02*
G01*
X144109145Y-129957733D01*
X144159351Y-130015301D01*
X144177185Y-130052312D01*
X144191063Y-130107882D01*
X144198167Y-130178096D01*
X144198840Y-130254727D01*
X144193427Y-130329552D01*
X144182270Y-130394342D01*
X144165714Y-130440873D01*
X144160626Y-130448887D01*
X144100355Y-130508707D01*
X144028769Y-130544535D01*
X143951092Y-130555020D01*
X143872548Y-130538810D01*
X143850689Y-130529092D01*
X143808122Y-130499143D01*
X143770763Y-130459433D01*
X143767232Y-130454397D01*
X143752881Y-130430124D01*
X143743394Y-130404178D01*
X143737790Y-130370022D01*
X143735086Y-130321119D01*
X143734299Y-130250935D01*
X143734286Y-130235200D01*
X143734322Y-130230192D01*
X143879429Y-130230192D01*
X143880273Y-130296430D01*
X143883596Y-130340386D01*
X143890583Y-130368779D01*
X143902416Y-130388325D01*
X143908457Y-130394857D01*
X143943186Y-130419680D01*
X143976903Y-130418548D01*
X144010995Y-130397016D01*
X144031329Y-130374029D01*
X144043371Y-130340478D01*
X144050134Y-130287569D01*
X144050598Y-130281399D01*
X144051752Y-130185513D01*
X144039688Y-130114299D01*
X144014570Y-130068194D01*
X143976560Y-130047635D01*
X143962992Y-130046514D01*
X143927364Y-130052152D01*
X143902994Y-130071686D01*
X143888093Y-130109042D01*
X143880875Y-130168150D01*
X143879429Y-130230192D01*
X143734322Y-130230192D01*
X143734826Y-130160413D01*
X143737096Y-130108159D01*
X143742068Y-130071949D01*
X143750713Y-130045299D01*
X143764005Y-130021722D01*
X143766943Y-130017338D01*
X143816313Y-129958249D01*
X143870109Y-129923947D01*
X143935602Y-129910331D01*
X143957842Y-129909665D01*
X144041115Y-129921962D01*
G37*
X144041115Y-129921962D02*
X144109145Y-129957733D01*
X144159351Y-130015301D01*
X144177185Y-130052312D01*
X144191063Y-130107882D01*
X144198167Y-130178096D01*
X144198840Y-130254727D01*
X144193427Y-130329552D01*
X144182270Y-130394342D01*
X144165714Y-130440873D01*
X144160626Y-130448887D01*
X144100355Y-130508707D01*
X144028769Y-130544535D01*
X143951092Y-130555020D01*
X143872548Y-130538810D01*
X143850689Y-130529092D01*
X143808122Y-130499143D01*
X143770763Y-130459433D01*
X143767232Y-130454397D01*
X143752881Y-130430124D01*
X143743394Y-130404178D01*
X143737790Y-130370022D01*
X143735086Y-130321119D01*
X143734299Y-130250935D01*
X143734286Y-130235200D01*
X143734322Y-130230192D01*
X143879429Y-130230192D01*
X143880273Y-130296430D01*
X143883596Y-130340386D01*
X143890583Y-130368779D01*
X143902416Y-130388325D01*
X143908457Y-130394857D01*
X143943186Y-130419680D01*
X143976903Y-130418548D01*
X144010995Y-130397016D01*
X144031329Y-130374029D01*
X144043371Y-130340478D01*
X144050134Y-130287569D01*
X144050598Y-130281399D01*
X144051752Y-130185513D01*
X144039688Y-130114299D01*
X144014570Y-130068194D01*
X143976560Y-130047635D01*
X143962992Y-130046514D01*
X143927364Y-130052152D01*
X143902994Y-130071686D01*
X143888093Y-130109042D01*
X143880875Y-130168150D01*
X143879429Y-130230192D01*
X143734322Y-130230192D01*
X143734826Y-130160413D01*
X143737096Y-130108159D01*
X143742068Y-130071949D01*
X143750713Y-130045299D01*
X143764005Y-130021722D01*
X143766943Y-130017338D01*
X143816313Y-129958249D01*
X143870109Y-129923947D01*
X143935602Y-129910331D01*
X143957842Y-129909665D01*
X144041115Y-129921962D01*
G36*
X145716093Y-129927780D02*
G01*
X145762672Y-129954723D01*
X145795057Y-129981466D01*
X145818742Y-130009484D01*
X145835059Y-130043748D01*
X145845339Y-130089227D01*
X145850914Y-130150892D01*
X145853116Y-130233711D01*
X145853371Y-130293246D01*
X145853371Y-130512391D01*
X145791686Y-130540044D01*
X145730000Y-130567697D01*
X145722743Y-130327670D01*
X145719744Y-130238028D01*
X145716598Y-130172962D01*
X145712701Y-130128026D01*
X145707447Y-130098770D01*
X145700231Y-130080748D01*
X145690450Y-130069511D01*
X145687312Y-130067079D01*
X145639761Y-130048083D01*
X145591697Y-130055600D01*
X145563086Y-130075543D01*
X145551447Y-130089675D01*
X145543391Y-130108220D01*
X145538271Y-130136334D01*
X145535441Y-130179173D01*
X145534256Y-130241895D01*
X145534057Y-130307261D01*
X145534018Y-130389268D01*
X145532614Y-130447316D01*
X145527914Y-130486465D01*
X145517987Y-130511780D01*
X145500903Y-130528323D01*
X145474732Y-130541156D01*
X145439775Y-130554491D01*
X145401596Y-130569007D01*
X145406141Y-130311389D01*
X145407971Y-130218519D01*
X145410112Y-130149889D01*
X145413181Y-130100711D01*
X145417794Y-130066198D01*
X145424568Y-130041562D01*
X145434119Y-130022016D01*
X145445634Y-130004770D01*
X145501190Y-129949680D01*
X145568980Y-129917822D01*
X145642713Y-129910191D01*
X145716093Y-129927780D01*
G37*
X145716093Y-129927780D02*
X145762672Y-129954723D01*
X145795057Y-129981466D01*
X145818742Y-130009484D01*
X145835059Y-130043748D01*
X145845339Y-130089227D01*
X145850914Y-130150892D01*
X145853116Y-130233711D01*
X145853371Y-130293246D01*
X145853371Y-130512391D01*
X145791686Y-130540044D01*
X145730000Y-130567697D01*
X145722743Y-130327670D01*
X145719744Y-130238028D01*
X145716598Y-130172962D01*
X145712701Y-130128026D01*
X145707447Y-130098770D01*
X145700231Y-130080748D01*
X145690450Y-130069511D01*
X145687312Y-130067079D01*
X145639761Y-130048083D01*
X145591697Y-130055600D01*
X145563086Y-130075543D01*
X145551447Y-130089675D01*
X145543391Y-130108220D01*
X145538271Y-130136334D01*
X145535441Y-130179173D01*
X145534256Y-130241895D01*
X145534057Y-130307261D01*
X145534018Y-130389268D01*
X145532614Y-130447316D01*
X145527914Y-130486465D01*
X145517987Y-130511780D01*
X145500903Y-130528323D01*
X145474732Y-130541156D01*
X145439775Y-130554491D01*
X145401596Y-130569007D01*
X145406141Y-130311389D01*
X145407971Y-130218519D01*
X145410112Y-130149889D01*
X145413181Y-130100711D01*
X145417794Y-130066198D01*
X145424568Y-130041562D01*
X145434119Y-130022016D01*
X145445634Y-130004770D01*
X145501190Y-129949680D01*
X145568980Y-129917822D01*
X145642713Y-129910191D01*
X145716093Y-129927780D01*
G36*
X144599744Y-129919918D02*
G01*
X144655201Y-129947568D01*
X144704148Y-129998480D01*
X144717629Y-130017338D01*
X144732314Y-130042015D01*
X144741842Y-130068816D01*
X144747293Y-130104587D01*
X144749747Y-130156169D01*
X144750286Y-130224267D01*
X144747852Y-130317588D01*
X144739394Y-130387657D01*
X144723174Y-130439931D01*
X144697454Y-130479869D01*
X144660497Y-130512929D01*
X144657782Y-130514886D01*
X144621360Y-130534908D01*
X144577502Y-130544815D01*
X144521724Y-130547257D01*
X144431048Y-130547257D01*
X144431010Y-130635283D01*
X144430166Y-130684308D01*
X144425024Y-130713065D01*
X144411587Y-130730311D01*
X144385858Y-130744808D01*
X144379679Y-130747769D01*
X144350764Y-130761648D01*
X144328376Y-130770414D01*
X144311729Y-130771171D01*
X144300036Y-130761023D01*
X144292510Y-130737073D01*
X144288366Y-130696426D01*
X144286815Y-130636186D01*
X144287071Y-130553455D01*
X144288349Y-130445339D01*
X144288748Y-130413000D01*
X144290185Y-130301524D01*
X144291472Y-130228603D01*
X144430971Y-130228603D01*
X144431755Y-130290499D01*
X144435240Y-130330997D01*
X144443124Y-130357708D01*
X144457105Y-130378244D01*
X144466597Y-130388260D01*
X144505404Y-130417567D01*
X144539763Y-130419952D01*
X144575216Y-130395750D01*
X144576114Y-130394857D01*
X144590539Y-130376153D01*
X144599313Y-130350732D01*
X144603739Y-130311584D01*
X144605118Y-130251697D01*
X144605143Y-130238430D01*
X144601812Y-130155901D01*
X144590969Y-130098691D01*
X144571340Y-130063766D01*
X144541650Y-130048094D01*
X144524491Y-130046514D01*
X144483766Y-130053926D01*
X144455832Y-130078330D01*
X144439017Y-130122980D01*
X144431650Y-130191130D01*
X144430971Y-130228603D01*
X144291472Y-130228603D01*
X144291708Y-130215245D01*
X144293677Y-130150333D01*
X144296450Y-130102958D01*
X144300388Y-130069290D01*
X144305849Y-130045498D01*
X144313192Y-130027753D01*
X144322777Y-130012224D01*
X144326887Y-130006381D01*
X144381405Y-129951185D01*
X144450336Y-129919890D01*
X144530072Y-129911165D01*
X144599744Y-129919918D01*
G37*
X144599744Y-129919918D02*
X144655201Y-129947568D01*
X144704148Y-129998480D01*
X144717629Y-130017338D01*
X144732314Y-130042015D01*
X144741842Y-130068816D01*
X144747293Y-130104587D01*
X144749747Y-130156169D01*
X144750286Y-130224267D01*
X144747852Y-130317588D01*
X144739394Y-130387657D01*
X144723174Y-130439931D01*
X144697454Y-130479869D01*
X144660497Y-130512929D01*
X144657782Y-130514886D01*
X144621360Y-130534908D01*
X144577502Y-130544815D01*
X144521724Y-130547257D01*
X144431048Y-130547257D01*
X144431010Y-130635283D01*
X144430166Y-130684308D01*
X144425024Y-130713065D01*
X144411587Y-130730311D01*
X144385858Y-130744808D01*
X144379679Y-130747769D01*
X144350764Y-130761648D01*
X144328376Y-130770414D01*
X144311729Y-130771171D01*
X144300036Y-130761023D01*
X144292510Y-130737073D01*
X144288366Y-130696426D01*
X144286815Y-130636186D01*
X144287071Y-130553455D01*
X144288349Y-130445339D01*
X144288748Y-130413000D01*
X144290185Y-130301524D01*
X144291472Y-130228603D01*
X144430971Y-130228603D01*
X144431755Y-130290499D01*
X144435240Y-130330997D01*
X144443124Y-130357708D01*
X144457105Y-130378244D01*
X144466597Y-130388260D01*
X144505404Y-130417567D01*
X144539763Y-130419952D01*
X144575216Y-130395750D01*
X144576114Y-130394857D01*
X144590539Y-130376153D01*
X144599313Y-130350732D01*
X144603739Y-130311584D01*
X144605118Y-130251697D01*
X144605143Y-130238430D01*
X144601812Y-130155901D01*
X144590969Y-130098691D01*
X144571340Y-130063766D01*
X144541650Y-130048094D01*
X144524491Y-130046514D01*
X144483766Y-130053926D01*
X144455832Y-130078330D01*
X144439017Y-130122980D01*
X144431650Y-130191130D01*
X144430971Y-130228603D01*
X144291472Y-130228603D01*
X144291708Y-130215245D01*
X144293677Y-130150333D01*
X144296450Y-130102958D01*
X144300388Y-130069290D01*
X144305849Y-130045498D01*
X144313192Y-130027753D01*
X144322777Y-130012224D01*
X144326887Y-130006381D01*
X144381405Y-129951185D01*
X144450336Y-129919890D01*
X144530072Y-129911165D01*
X144599744Y-129919918D01*
G36*
X146914043Y-116585835D02*
G01*
X146937065Y-116623245D01*
X146972534Y-116682514D01*
X147018996Y-116761118D01*
X147074996Y-116856538D01*
X147139081Y-116966250D01*
X147209796Y-117087734D01*
X147285687Y-117218468D01*
X147365299Y-117355930D01*
X147447178Y-117497598D01*
X147529870Y-117640951D01*
X147611921Y-117783467D01*
X147691876Y-117922624D01*
X147768281Y-118055901D01*
X147839682Y-118180776D01*
X147904624Y-118294727D01*
X147961653Y-118395233D01*
X148009315Y-118479772D01*
X148046155Y-118545822D01*
X148070720Y-118590862D01*
X148081554Y-118612370D01*
X148081951Y-118613714D01*
X148068501Y-118631965D01*
X148031114Y-118659882D01*
X147974235Y-118694725D01*
X147902312Y-118733754D01*
X147827015Y-118770843D01*
X147724560Y-118815817D01*
X147616817Y-118856226D01*
X147500073Y-118892969D01*
X147370618Y-118926942D01*
X147224740Y-118959044D01*
X147058726Y-118990173D01*
X146868866Y-119021227D01*
X146672469Y-119050145D01*
X146501834Y-119075800D01*
X146358545Y-119101198D01*
X146239008Y-119127602D01*
X146139630Y-119156273D01*
X146056818Y-119188473D01*
X145986978Y-119225465D01*
X145926518Y-119268512D01*
X145871845Y-119318875D01*
X145854214Y-119337583D01*
X145816000Y-119381139D01*
X145787732Y-119416682D01*
X145774618Y-119437583D01*
X145774268Y-119439297D01*
X145769680Y-119449806D01*
X145753758Y-119449924D01*
X145723266Y-119438254D01*
X145674968Y-119413396D01*
X145605627Y-119373952D01*
X145557439Y-119345587D01*
X145485583Y-119301247D01*
X145429742Y-119263279D01*
X145393667Y-119234416D01*
X145381113Y-119217388D01*
X145381121Y-119217264D01*
X145388906Y-119201037D01*
X145410892Y-119160400D01*
X145445803Y-119097567D01*
X145492363Y-119014752D01*
X145549295Y-118914172D01*
X145615323Y-118798040D01*
X145689172Y-118668571D01*
X145769564Y-118527980D01*
X145855224Y-118378482D01*
X145944876Y-118222292D01*
X146037243Y-118061624D01*
X146131049Y-117898693D01*
X146225018Y-117735713D01*
X146317874Y-117574900D01*
X146408340Y-117418468D01*
X146495141Y-117268633D01*
X146577000Y-117127608D01*
X146652641Y-116997609D01*
X146720787Y-116880849D01*
X146780163Y-116779545D01*
X146829493Y-116695911D01*
X146867500Y-116632162D01*
X146892907Y-116590511D01*
X146904440Y-116573175D01*
X146904923Y-116572805D01*
X146914043Y-116585835D01*
G37*
X146914043Y-116585835D02*
X146937065Y-116623245D01*
X146972534Y-116682514D01*
X147018996Y-116761118D01*
X147074996Y-116856538D01*
X147139081Y-116966250D01*
X147209796Y-117087734D01*
X147285687Y-117218468D01*
X147365299Y-117355930D01*
X147447178Y-117497598D01*
X147529870Y-117640951D01*
X147611921Y-117783467D01*
X147691876Y-117922624D01*
X147768281Y-118055901D01*
X147839682Y-118180776D01*
X147904624Y-118294727D01*
X147961653Y-118395233D01*
X148009315Y-118479772D01*
X148046155Y-118545822D01*
X148070720Y-118590862D01*
X148081554Y-118612370D01*
X148081951Y-118613714D01*
X148068501Y-118631965D01*
X148031114Y-118659882D01*
X147974235Y-118694725D01*
X147902312Y-118733754D01*
X147827015Y-118770843D01*
X147724560Y-118815817D01*
X147616817Y-118856226D01*
X147500073Y-118892969D01*
X147370618Y-118926942D01*
X147224740Y-118959044D01*
X147058726Y-118990173D01*
X146868866Y-119021227D01*
X146672469Y-119050145D01*
X146501834Y-119075800D01*
X146358545Y-119101198D01*
X146239008Y-119127602D01*
X146139630Y-119156273D01*
X146056818Y-119188473D01*
X145986978Y-119225465D01*
X145926518Y-119268512D01*
X145871845Y-119318875D01*
X145854214Y-119337583D01*
X145816000Y-119381139D01*
X145787732Y-119416682D01*
X145774618Y-119437583D01*
X145774268Y-119439297D01*
X145769680Y-119449806D01*
X145753758Y-119449924D01*
X145723266Y-119438254D01*
X145674968Y-119413396D01*
X145605627Y-119373952D01*
X145557439Y-119345587D01*
X145485583Y-119301247D01*
X145429742Y-119263279D01*
X145393667Y-119234416D01*
X145381113Y-119217388D01*
X145381121Y-119217264D01*
X145388906Y-119201037D01*
X145410892Y-119160400D01*
X145445803Y-119097567D01*
X145492363Y-119014752D01*
X145549295Y-118914172D01*
X145615323Y-118798040D01*
X145689172Y-118668571D01*
X145769564Y-118527980D01*
X145855224Y-118378482D01*
X145944876Y-118222292D01*
X146037243Y-118061624D01*
X146131049Y-117898693D01*
X146225018Y-117735713D01*
X146317874Y-117574900D01*
X146408340Y-117418468D01*
X146495141Y-117268633D01*
X146577000Y-117127608D01*
X146652641Y-116997609D01*
X146720787Y-116880849D01*
X146780163Y-116779545D01*
X146829493Y-116695911D01*
X146867500Y-116632162D01*
X146892907Y-116590511D01*
X146904440Y-116573175D01*
X146904923Y-116572805D01*
X146914043Y-116585835D01*
G36*
X148737528Y-119734619D02*
G01*
X148748908Y-119753693D01*
X148774488Y-119797421D01*
X148813002Y-119863619D01*
X148863186Y-119950102D01*
X148923775Y-120054685D01*
X148993503Y-120175183D01*
X149071107Y-120309412D01*
X149155320Y-120455187D01*
X149244879Y-120610323D01*
X149336998Y-120770000D01*
X149431076Y-120933117D01*
X149521402Y-121089709D01*
X149606665Y-121237506D01*
X149685557Y-121374240D01*
X149756769Y-121497642D01*
X149818991Y-121605444D01*
X149870913Y-121695377D01*
X149911228Y-121765173D01*
X149938624Y-121812564D01*
X149951507Y-121834786D01*
X149972507Y-121872330D01*
X149983925Y-121895831D01*
X149984551Y-121899920D01*
X149970636Y-121892242D01*
X149931941Y-121870203D01*
X149870487Y-121834971D01*
X149788298Y-121787711D01*
X149687396Y-121729589D01*
X149569805Y-121661771D01*
X149437546Y-121585424D01*
X149292642Y-121501714D01*
X149137117Y-121411806D01*
X148972992Y-121316867D01*
X148910549Y-121280732D01*
X148743487Y-121184083D01*
X148584074Y-121091938D01*
X148434355Y-121005475D01*
X148296376Y-120925871D01*
X148172185Y-120854305D01*
X148063827Y-120791955D01*
X147973348Y-120739998D01*
X147902796Y-120699613D01*
X147854215Y-120671978D01*
X147829654Y-120658272D01*
X147827085Y-120656974D01*
X147834569Y-120645220D01*
X147860614Y-120613795D01*
X147902559Y-120565594D01*
X147957746Y-120503510D01*
X148023517Y-120430439D01*
X148097212Y-120349276D01*
X148176173Y-120262916D01*
X148257740Y-120174253D01*
X148339254Y-120086182D01*
X148418057Y-120001599D01*
X148491490Y-119923397D01*
X148556893Y-119854472D01*
X148611608Y-119797719D01*
X148652977Y-119756032D01*
X148667164Y-119742363D01*
X148714180Y-119698201D01*
X148737528Y-119734619D01*
G37*
X148737528Y-119734619D02*
X148748908Y-119753693D01*
X148774488Y-119797421D01*
X148813002Y-119863619D01*
X148863186Y-119950102D01*
X148923775Y-120054685D01*
X148993503Y-120175183D01*
X149071107Y-120309412D01*
X149155320Y-120455187D01*
X149244879Y-120610323D01*
X149336998Y-120770000D01*
X149431076Y-120933117D01*
X149521402Y-121089709D01*
X149606665Y-121237506D01*
X149685557Y-121374240D01*
X149756769Y-121497642D01*
X149818991Y-121605444D01*
X149870913Y-121695377D01*
X149911228Y-121765173D01*
X149938624Y-121812564D01*
X149951507Y-121834786D01*
X149972507Y-121872330D01*
X149983925Y-121895831D01*
X149984551Y-121899920D01*
X149970636Y-121892242D01*
X149931941Y-121870203D01*
X149870487Y-121834971D01*
X149788298Y-121787711D01*
X149687396Y-121729589D01*
X149569805Y-121661771D01*
X149437546Y-121585424D01*
X149292642Y-121501714D01*
X149137117Y-121411806D01*
X148972992Y-121316867D01*
X148910549Y-121280732D01*
X148743487Y-121184083D01*
X148584074Y-121091938D01*
X148434355Y-121005475D01*
X148296376Y-120925871D01*
X148172185Y-120854305D01*
X148063827Y-120791955D01*
X147973348Y-120739998D01*
X147902796Y-120699613D01*
X147854215Y-120671978D01*
X147829654Y-120658272D01*
X147827085Y-120656974D01*
X147834569Y-120645220D01*
X147860614Y-120613795D01*
X147902559Y-120565594D01*
X147957746Y-120503510D01*
X148023517Y-120430439D01*
X148097212Y-120349276D01*
X148176173Y-120262916D01*
X148257740Y-120174253D01*
X148339254Y-120086182D01*
X148418057Y-120001599D01*
X148491490Y-119923397D01*
X148556893Y-119854472D01*
X148611608Y-119797719D01*
X148652977Y-119756032D01*
X148667164Y-119742363D01*
X148714180Y-119698201D01*
X148737528Y-119734619D01*
G36*
X145072094Y-119791158D02*
G01*
X145104619Y-119803736D01*
X145154193Y-119828712D01*
X145225374Y-119867876D01*
X145230916Y-119870988D01*
X145296474Y-119908476D01*
X145351798Y-119941319D01*
X145391455Y-119966205D01*
X145410012Y-119979820D01*
X145410531Y-119980487D01*
X145406048Y-119999390D01*
X145385486Y-120041605D01*
X145350183Y-120104832D01*
X145301480Y-120186772D01*
X145240718Y-120285122D01*
X145169236Y-120397585D01*
X145151445Y-120425165D01*
X145105093Y-120501699D01*
X145071342Y-120567556D01*
X145053153Y-120616782D01*
X145051286Y-120626507D01*
X145052115Y-120669312D01*
X145061394Y-120737209D01*
X145077968Y-120825843D01*
X145100680Y-120930859D01*
X145128373Y-121047902D01*
X145159890Y-121172616D01*
X145194075Y-121300645D01*
X145229771Y-121427634D01*
X145265821Y-121549228D01*
X145301068Y-121661072D01*
X145334356Y-121758810D01*
X145364528Y-121838087D01*
X145385561Y-121885122D01*
X145410337Y-121935225D01*
X145433730Y-121983168D01*
X145434997Y-121985793D01*
X145473699Y-122034220D01*
X145530184Y-122066828D01*
X145595939Y-122082454D01*
X145662451Y-122079937D01*
X145721205Y-122058114D01*
X145754258Y-122029382D01*
X145801859Y-121950583D01*
X145836739Y-121852378D01*
X145855877Y-121744779D01*
X145858588Y-121683780D01*
X145847670Y-121569935D01*
X145815624Y-121475660D01*
X145760726Y-121396379D01*
X145743607Y-121378733D01*
X145692661Y-121329235D01*
X145689163Y-120979362D01*
X145685664Y-120629489D01*
X145774818Y-120494531D01*
X145816654Y-120433445D01*
X145856945Y-120378493D01*
X145889943Y-120337336D01*
X145904126Y-120322192D01*
X145944281Y-120284810D01*
X145998665Y-120314098D01*
X146033039Y-120335084D01*
X146051846Y-120351378D01*
X146053049Y-120354307D01*
X146065903Y-120366728D01*
X146087896Y-120375977D01*
X146109150Y-120384313D01*
X146141694Y-120400149D01*
X146188322Y-120425033D01*
X146251829Y-120460509D01*
X146335008Y-120508123D01*
X146440653Y-120569422D01*
X146498062Y-120602932D01*
X146565594Y-120643071D01*
X146609885Y-120671659D01*
X146634855Y-120692039D01*
X146644423Y-120707553D01*
X146642508Y-120721546D01*
X146640911Y-120724796D01*
X146625376Y-120745266D01*
X146592136Y-120783665D01*
X146545062Y-120835696D01*
X146488028Y-120897066D01*
X146438700Y-120949090D01*
X146325030Y-121072567D01*
X146236105Y-121179591D01*
X146171134Y-121271240D01*
X146129321Y-121348588D01*
X146115217Y-121387866D01*
X146109392Y-121422249D01*
X146103375Y-121480899D01*
X146097696Y-121557117D01*
X146092884Y-121644202D01*
X146090619Y-121699268D01*
X146087459Y-121794464D01*
X146086069Y-121864062D01*
X146086858Y-121913409D01*
X146090235Y-121947854D01*
X146096608Y-121972743D01*
X146106387Y-121993425D01*
X146114067Y-122006053D01*
X146158421Y-122054726D01*
X146215574Y-122088645D01*
X146275708Y-122103438D01*
X146320773Y-122098086D01*
X146361576Y-122074930D01*
X146412724Y-122033462D01*
X146467042Y-121980912D01*
X146517357Y-121924516D01*
X146556494Y-121871505D01*
X146570905Y-121845889D01*
X146592491Y-121810814D01*
X146631753Y-121757389D01*
X146685102Y-121689789D01*
X146748952Y-121612190D01*
X146819715Y-121528768D01*
X146893804Y-121443698D01*
X146967632Y-121361155D01*
X147037611Y-121285316D01*
X147100155Y-121220356D01*
X147149260Y-121172669D01*
X147203779Y-121125032D01*
X147249642Y-121089908D01*
X147281811Y-121070949D01*
X147292489Y-121068864D01*
X147308853Y-121077274D01*
X147349671Y-121099846D01*
X147412586Y-121135224D01*
X147495244Y-121182054D01*
X147595289Y-121238981D01*
X147710366Y-121304649D01*
X147838119Y-121377703D01*
X147976194Y-121456788D01*
X148122234Y-121540548D01*
X148273884Y-121627629D01*
X148428790Y-121716676D01*
X148584595Y-121806332D01*
X148738944Y-121895243D01*
X148889482Y-121982054D01*
X149033854Y-122065409D01*
X149169704Y-122143954D01*
X149294677Y-122216333D01*
X149406417Y-122281190D01*
X149502570Y-122337171D01*
X149580779Y-122382920D01*
X149638689Y-122417083D01*
X149673946Y-122438304D01*
X149684165Y-122444963D01*
X149670402Y-122446280D01*
X149627104Y-122447559D01*
X149555714Y-122448796D01*
X149457673Y-122449983D01*
X149334422Y-122451115D01*
X149187403Y-122452186D01*
X149018057Y-122453189D01*
X148827826Y-122454119D01*
X148618151Y-122454968D01*
X148390473Y-122455732D01*
X148146235Y-122456403D01*
X147886877Y-122456976D01*
X147613841Y-122457444D01*
X147328568Y-122457802D01*
X147032500Y-122458042D01*
X146727079Y-122458159D01*
X146598924Y-122458171D01*
X143498970Y-122458171D01*
X143720053Y-122074847D01*
X143766856Y-121993680D01*
X143827102Y-121889166D01*
X143898778Y-121764801D01*
X143979869Y-121624082D01*
X144068362Y-121470503D01*
X144162240Y-121307562D01*
X144259491Y-121138754D01*
X144358100Y-120967575D01*
X144456053Y-120797521D01*
X144480825Y-120754512D01*
X144571152Y-120597857D01*
X144657289Y-120448803D01*
X144737942Y-120309568D01*
X144811816Y-120182371D01*
X144877617Y-120069432D01*
X144934050Y-119972968D01*
X144979821Y-119895200D01*
X145013635Y-119838346D01*
X145034198Y-119804625D01*
X145039953Y-119796040D01*
X145052058Y-119789189D01*
X145072094Y-119791158D01*
G37*
X145072094Y-119791158D02*
X145104619Y-119803736D01*
X145154193Y-119828712D01*
X145225374Y-119867876D01*
X145230916Y-119870988D01*
X145296474Y-119908476D01*
X145351798Y-119941319D01*
X145391455Y-119966205D01*
X145410012Y-119979820D01*
X145410531Y-119980487D01*
X145406048Y-119999390D01*
X145385486Y-120041605D01*
X145350183Y-120104832D01*
X145301480Y-120186772D01*
X145240718Y-120285122D01*
X145169236Y-120397585D01*
X145151445Y-120425165D01*
X145105093Y-120501699D01*
X145071342Y-120567556D01*
X145053153Y-120616782D01*
X145051286Y-120626507D01*
X145052115Y-120669312D01*
X145061394Y-120737209D01*
X145077968Y-120825843D01*
X145100680Y-120930859D01*
X145128373Y-121047902D01*
X145159890Y-121172616D01*
X145194075Y-121300645D01*
X145229771Y-121427634D01*
X145265821Y-121549228D01*
X145301068Y-121661072D01*
X145334356Y-121758810D01*
X145364528Y-121838087D01*
X145385561Y-121885122D01*
X145410337Y-121935225D01*
X145433730Y-121983168D01*
X145434997Y-121985793D01*
X145473699Y-122034220D01*
X145530184Y-122066828D01*
X145595939Y-122082454D01*
X145662451Y-122079937D01*
X145721205Y-122058114D01*
X145754258Y-122029382D01*
X145801859Y-121950583D01*
X145836739Y-121852378D01*
X145855877Y-121744779D01*
X145858588Y-121683780D01*
X145847670Y-121569935D01*
X145815624Y-121475660D01*
X145760726Y-121396379D01*
X145743607Y-121378733D01*
X145692661Y-121329235D01*
X145689163Y-120979362D01*
X145685664Y-120629489D01*
X145774818Y-120494531D01*
X145816654Y-120433445D01*
X145856945Y-120378493D01*
X145889943Y-120337336D01*
X145904126Y-120322192D01*
X145944281Y-120284810D01*
X145998665Y-120314098D01*
X146033039Y-120335084D01*
X146051846Y-120351378D01*
X146053049Y-120354307D01*
X146065903Y-120366728D01*
X146087896Y-120375977D01*
X146109150Y-120384313D01*
X146141694Y-120400149D01*
X146188322Y-120425033D01*
X146251829Y-120460509D01*
X146335008Y-120508123D01*
X146440653Y-120569422D01*
X146498062Y-120602932D01*
X146565594Y-120643071D01*
X146609885Y-120671659D01*
X146634855Y-120692039D01*
X146644423Y-120707553D01*
X146642508Y-120721546D01*
X146640911Y-120724796D01*
X146625376Y-120745266D01*
X146592136Y-120783665D01*
X146545062Y-120835696D01*
X146488028Y-120897066D01*
X146438700Y-120949090D01*
X146325030Y-121072567D01*
X146236105Y-121179591D01*
X146171134Y-121271240D01*
X146129321Y-121348588D01*
X146115217Y-121387866D01*
X146109392Y-121422249D01*
X146103375Y-121480899D01*
X146097696Y-121557117D01*
X146092884Y-121644202D01*
X146090619Y-121699268D01*
X146087459Y-121794464D01*
X146086069Y-121864062D01*
X146086858Y-121913409D01*
X146090235Y-121947854D01*
X146096608Y-121972743D01*
X146106387Y-121993425D01*
X146114067Y-122006053D01*
X146158421Y-122054726D01*
X146215574Y-122088645D01*
X146275708Y-122103438D01*
X146320773Y-122098086D01*
X146361576Y-122074930D01*
X146412724Y-122033462D01*
X146467042Y-121980912D01*
X146517357Y-121924516D01*
X146556494Y-121871505D01*
X146570905Y-121845889D01*
X146592491Y-121810814D01*
X146631753Y-121757389D01*
X146685102Y-121689789D01*
X146748952Y-121612190D01*
X146819715Y-121528768D01*
X146893804Y-121443698D01*
X146967632Y-121361155D01*
X147037611Y-121285316D01*
X147100155Y-121220356D01*
X147149260Y-121172669D01*
X147203779Y-121125032D01*
X147249642Y-121089908D01*
X147281811Y-121070949D01*
X147292489Y-121068864D01*
X147308853Y-121077274D01*
X147349671Y-121099846D01*
X147412586Y-121135224D01*
X147495244Y-121182054D01*
X147595289Y-121238981D01*
X147710366Y-121304649D01*
X147838119Y-121377703D01*
X147976194Y-121456788D01*
X148122234Y-121540548D01*
X148273884Y-121627629D01*
X148428790Y-121716676D01*
X148584595Y-121806332D01*
X148738944Y-121895243D01*
X148889482Y-121982054D01*
X149033854Y-122065409D01*
X149169704Y-122143954D01*
X149294677Y-122216333D01*
X149406417Y-122281190D01*
X149502570Y-122337171D01*
X149580779Y-122382920D01*
X149638689Y-122417083D01*
X149673946Y-122438304D01*
X149684165Y-122444963D01*
X149670402Y-122446280D01*
X149627104Y-122447559D01*
X149555714Y-122448796D01*
X149457673Y-122449983D01*
X149334422Y-122451115D01*
X149187403Y-122452186D01*
X149018057Y-122453189D01*
X148827826Y-122454119D01*
X148618151Y-122454968D01*
X148390473Y-122455732D01*
X148146235Y-122456403D01*
X147886877Y-122456976D01*
X147613841Y-122457444D01*
X147328568Y-122457802D01*
X147032500Y-122458042D01*
X146727079Y-122458159D01*
X146598924Y-122458171D01*
X143498970Y-122458171D01*
X143720053Y-122074847D01*
X143766856Y-121993680D01*
X143827102Y-121889166D01*
X143898778Y-121764801D01*
X143979869Y-121624082D01*
X144068362Y-121470503D01*
X144162240Y-121307562D01*
X144259491Y-121138754D01*
X144358100Y-120967575D01*
X144456053Y-120797521D01*
X144480825Y-120754512D01*
X144571152Y-120597857D01*
X144657289Y-120448803D01*
X144737942Y-120309568D01*
X144811816Y-120182371D01*
X144877617Y-120069432D01*
X144934050Y-119972968D01*
X144979821Y-119895200D01*
X145013635Y-119838346D01*
X145034198Y-119804625D01*
X145039953Y-119796040D01*
X145052058Y-119789189D01*
X145072094Y-119791158D01*
D10*
%TO.C,F1*%
X154080000Y-95536252D02*
X154080000Y-92763748D01*
X157500000Y-95536252D02*
X157500000Y-92763748D01*
%TO.C,RV1*%
X105750000Y-74450000D02*
X105350000Y-74650000D01*
X105350000Y-74250000D02*
X105750000Y-74450000D01*
X104550000Y-74450000D02*
X105750000Y-74450000D01*
X106950000Y-74450000D02*
G75*
G03*
X106950000Y-74450000I-2000000J0D01*
G01*
X109950000Y-69550000D02*
X99950000Y-69550000D01*
X99950000Y-79350000D02*
X109950000Y-79350000D01*
X99950000Y-69550000D02*
X99950000Y-70900000D01*
X99950000Y-73000000D02*
X99950000Y-75900000D01*
X99950000Y-79350000D02*
X99950000Y-78000000D01*
X109950000Y-69550000D02*
X109950000Y-73400000D01*
X109950000Y-79350000D02*
X109950000Y-75500000D01*
%TO.C,D3*%
X103070000Y-130220000D02*
X103070000Y-130350000D01*
X103070000Y-130350000D02*
X97630000Y-130350000D01*
X97630000Y-130350000D02*
X97630000Y-130220000D01*
X103070000Y-127540000D02*
X103070000Y-127410000D01*
X103070000Y-127410000D02*
X97630000Y-127410000D01*
X97630000Y-127410000D02*
X97630000Y-127540000D01*
X102170000Y-130350000D02*
X102170000Y-127410000D01*
X102050000Y-130350000D02*
X102050000Y-127410000D01*
X102290000Y-130350000D02*
X102290000Y-127410000D01*
%TO.C,C5*%
X159410000Y-79790000D02*
X154170000Y-79790000D01*
X159410000Y-77050000D02*
X154170000Y-77050000D01*
X159410000Y-79790000D02*
X159410000Y-77050000D01*
X154170000Y-79790000D02*
X154170000Y-77050000D01*
D14*
%TO.C,Y1*%
X132660000Y-132270000D02*
X126260000Y-132270000D01*
X132660000Y-137270000D02*
X126260000Y-137270000D01*
X126260000Y-137270000D02*
G75*
G02*
X126260000Y-132270000I0J2500000D01*
G01*
X132660000Y-132270000D02*
G75*
G02*
X132660000Y-137270000I0J-2500000D01*
G01*
D10*
%TO.C,U2*%
X106670000Y-123590000D02*
X106670000Y-125240000D01*
X106670000Y-125240000D02*
X142350000Y-125240000D01*
X142350000Y-125240000D02*
X142350000Y-119940000D01*
X142350000Y-119940000D02*
X106670000Y-119940000D01*
X106670000Y-119940000D02*
X106670000Y-121590000D01*
X106670000Y-121590000D02*
G75*
G02*
X106670000Y-123590000I0J-1000000D01*
G01*
%TO.C,J3*%
X98270000Y-83330000D02*
X98270000Y-80670000D01*
X98270000Y-83330000D02*
X136430000Y-83330000D01*
X136430000Y-83330000D02*
X136430000Y-80670000D01*
X98270000Y-80670000D02*
X136430000Y-80670000D01*
X95670000Y-80670000D02*
X97000000Y-80670000D01*
X95670000Y-82000000D02*
X95670000Y-80670000D01*
%TO.C,C1*%
X154800000Y-84100000D02*
X157540000Y-84100000D01*
X154800000Y-89340000D02*
X157540000Y-89340000D01*
X157540000Y-89340000D02*
X157540000Y-84100000D01*
X154800000Y-89340000D02*
X154800000Y-84100000D01*
%TO.C,C2*%
X154070000Y-89350000D02*
X151330000Y-89350000D01*
X154070000Y-84110000D02*
X151330000Y-84110000D01*
X151330000Y-84110000D02*
X151330000Y-89350000D01*
X154070000Y-84110000D02*
X154070000Y-89350000D01*
%TO.C,C3*%
X121880000Y-117370000D02*
X121880000Y-114630000D01*
X127120000Y-117370000D02*
X127120000Y-114630000D01*
X127120000Y-114630000D02*
X121880000Y-114630000D01*
X127120000Y-117370000D02*
X121880000Y-117370000D01*
%TO.C,C4*%
X92230000Y-130020000D02*
X92230000Y-124780000D01*
X94970000Y-130020000D02*
X94970000Y-124780000D01*
X92230000Y-130020000D02*
X94970000Y-130020000D01*
X92230000Y-124780000D02*
X94970000Y-124780000D01*
%TO.C,C6*%
X127430000Y-114630000D02*
X132670000Y-114630000D01*
X127430000Y-117370000D02*
X132670000Y-117370000D01*
X127430000Y-114630000D02*
X127430000Y-117370000D01*
X132670000Y-114630000D02*
X132670000Y-117370000D01*
%TO.C,C7*%
X120430000Y-137670000D02*
X120430000Y-132430000D01*
X123170000Y-137670000D02*
X123170000Y-132430000D01*
X120430000Y-137670000D02*
X123170000Y-137670000D01*
X120430000Y-132430000D02*
X123170000Y-132430000D01*
%TO.C,C8*%
X135780000Y-132430000D02*
X138520000Y-132430000D01*
X135780000Y-137670000D02*
X138520000Y-137670000D01*
X138520000Y-137670000D02*
X138520000Y-132430000D01*
X135780000Y-137670000D02*
X135780000Y-132430000D01*
%TO.C,D1*%
X138970000Y-73400000D02*
G75*
G03*
X138970000Y-73400000I-2500000J0D01*
G01*
X133910000Y-71855000D02*
X133910000Y-74945000D01*
X139460000Y-73399538D02*
G75*
G02*
X133910000Y-74944830I-2990000J-462D01*
G01*
X139460000Y-73400462D02*
G75*
G03*
X133910000Y-71855170I-2990000J462D01*
G01*
%TO.C,D2*%
X140610000Y-71855000D02*
X140610000Y-74945000D01*
X145670000Y-73400000D02*
G75*
G03*
X145670000Y-73400000I-2500000J0D01*
G01*
X146160000Y-73400462D02*
G75*
G03*
X140610000Y-71855170I-2990000J462D01*
G01*
X146160000Y-73399538D02*
G75*
G02*
X140610000Y-74944830I-2990000J-462D01*
G01*
%TO.C,R1*%
X122285000Y-94940000D02*
X121595000Y-94940000D01*
X111665000Y-94940000D02*
X112355000Y-94940000D01*
X121595000Y-93220000D02*
X112355000Y-93220000D01*
X121595000Y-96660000D02*
X121595000Y-93220000D01*
X112355000Y-96660000D02*
X121595000Y-96660000D01*
X112355000Y-93220000D02*
X112355000Y-96660000D01*
%TO.C,R2*%
X112305000Y-89170000D02*
X112305000Y-92610000D01*
X112305000Y-92610000D02*
X121545000Y-92610000D01*
X121545000Y-92610000D02*
X121545000Y-89170000D01*
X121545000Y-89170000D02*
X112305000Y-89170000D01*
X111615000Y-90890000D02*
X112305000Y-90890000D01*
X122235000Y-90890000D02*
X121545000Y-90890000D01*
%TO.C,R3*%
X130035000Y-88105000D02*
X130035000Y-88795000D01*
X130035000Y-98725000D02*
X130035000Y-98035000D01*
X128315000Y-88795000D02*
X128315000Y-98035000D01*
X131755000Y-88795000D02*
X128315000Y-88795000D01*
X131755000Y-98035000D02*
X131755000Y-88795000D01*
X128315000Y-98035000D02*
X131755000Y-98035000D01*
%TO.C,R4*%
X132315000Y-98035000D02*
X135755000Y-98035000D01*
X135755000Y-98035000D02*
X135755000Y-88795000D01*
X135755000Y-88795000D02*
X132315000Y-88795000D01*
X132315000Y-88795000D02*
X132315000Y-98035000D01*
X134035000Y-98725000D02*
X134035000Y-98035000D01*
X134035000Y-88105000D02*
X134035000Y-88795000D01*
%TO.C,R5*%
X93050000Y-109340000D02*
X93050000Y-110030000D01*
X93050000Y-119960000D02*
X93050000Y-119270000D01*
X91330000Y-110030000D02*
X91330000Y-119270000D01*
X94770000Y-110030000D02*
X91330000Y-110030000D01*
X94770000Y-119270000D02*
X94770000Y-110030000D01*
X91330000Y-119270000D02*
X94770000Y-119270000D01*
%TO.C,R6*%
X99640000Y-133700000D02*
X100330000Y-133700000D01*
X110260000Y-133700000D02*
X109570000Y-133700000D01*
X100330000Y-135420000D02*
X109570000Y-135420000D01*
X100330000Y-131980000D02*
X100330000Y-135420000D01*
X109570000Y-131980000D02*
X100330000Y-131980000D01*
X109570000Y-135420000D02*
X109570000Y-131980000D01*
%TO.C,R7*%
X124830000Y-128030000D02*
X124830000Y-131470000D01*
X124830000Y-131470000D02*
X134070000Y-131470000D01*
X134070000Y-131470000D02*
X134070000Y-128030000D01*
X134070000Y-128030000D02*
X124830000Y-128030000D01*
X124140000Y-129750000D02*
X124830000Y-129750000D01*
X134760000Y-129750000D02*
X134070000Y-129750000D01*
%TO.C,R8*%
X164010000Y-124075000D02*
X163320000Y-124075000D01*
X153390000Y-124075000D02*
X154080000Y-124075000D01*
X163320000Y-122355000D02*
X154080000Y-122355000D01*
X163320000Y-125795000D02*
X163320000Y-122355000D01*
X154080000Y-125795000D02*
X163320000Y-125795000D01*
X154080000Y-122355000D02*
X154080000Y-125795000D01*
%TO.C,R9*%
X139755000Y-88795000D02*
X136315000Y-88795000D01*
X136315000Y-88795000D02*
X136315000Y-98035000D01*
X136315000Y-98035000D02*
X139755000Y-98035000D01*
X139755000Y-98035000D02*
X139755000Y-88795000D01*
X138035000Y-88105000D02*
X138035000Y-88795000D01*
X138035000Y-98725000D02*
X138035000Y-98035000D01*
%TO.C,R11*%
X154080000Y-126355000D02*
X154080000Y-129795000D01*
X154080000Y-129795000D02*
X163320000Y-129795000D01*
X163320000Y-129795000D02*
X163320000Y-126355000D01*
X163320000Y-126355000D02*
X154080000Y-126355000D01*
X153390000Y-128075000D02*
X154080000Y-128075000D01*
X164010000Y-128075000D02*
X163320000Y-128075000D01*
%TO.C,SW1*%
X103800000Y-124000000D02*
X103800000Y-122500000D01*
X102550000Y-120000000D02*
X98050000Y-120000000D01*
X96800000Y-122500000D02*
X96800000Y-124000000D01*
X98050000Y-126500000D02*
X102550000Y-126500000D01*
%TO.C,D4*%
D11*
X146361904Y-76652380D02*
X146361904Y-75652380D01*
X146600000Y-75652380D01*
X146742857Y-75700000D01*
X146838095Y-75795238D01*
X146885714Y-75890476D01*
X146933333Y-76080952D01*
X146933333Y-76223809D01*
X146885714Y-76414285D01*
X146838095Y-76509523D01*
X146742857Y-76604761D01*
X146600000Y-76652380D01*
X146361904Y-76652380D01*
X147790476Y-75985714D02*
X147790476Y-76652380D01*
X147552380Y-75604761D02*
X147314285Y-76319047D01*
X147933333Y-76319047D01*
%TO.C,F1*%
X155526666Y-98048571D02*
X155193333Y-98048571D01*
X155193333Y-98572380D02*
X155193333Y-97572380D01*
X155669523Y-97572380D01*
X156574285Y-98572380D02*
X156002857Y-98572380D01*
X156288571Y-98572380D02*
X156288571Y-97572380D01*
X156193333Y-97715238D01*
X156098095Y-97810476D01*
X156002857Y-97858095D01*
%TO.C,RV1*%
X96674761Y-70772380D02*
X96341428Y-70296190D01*
X96103333Y-70772380D02*
X96103333Y-69772380D01*
X96484285Y-69772380D01*
X96579523Y-69820000D01*
X96627142Y-69867619D01*
X96674761Y-69962857D01*
X96674761Y-70105714D01*
X96627142Y-70200952D01*
X96579523Y-70248571D01*
X96484285Y-70296190D01*
X96103333Y-70296190D01*
X96960476Y-69772380D02*
X97293809Y-70772380D01*
X97627142Y-69772380D01*
X98484285Y-70772380D02*
X97912857Y-70772380D01*
X98198571Y-70772380D02*
X98198571Y-69772380D01*
X98103333Y-69915238D01*
X98008095Y-70010476D01*
X97912857Y-70058095D01*
%TO.C,D3*%
X99011904Y-131692380D02*
X99011904Y-130692380D01*
X99250000Y-130692380D01*
X99392857Y-130740000D01*
X99488095Y-130835238D01*
X99535714Y-130930476D01*
X99583333Y-131120952D01*
X99583333Y-131263809D01*
X99535714Y-131454285D01*
X99488095Y-131549523D01*
X99392857Y-131644761D01*
X99250000Y-131692380D01*
X99011904Y-131692380D01*
X99916666Y-130692380D02*
X100535714Y-130692380D01*
X100202380Y-131073333D01*
X100345238Y-131073333D01*
X100440476Y-131120952D01*
X100488095Y-131168571D01*
X100535714Y-131263809D01*
X100535714Y-131501904D01*
X100488095Y-131597142D01*
X100440476Y-131644761D01*
X100345238Y-131692380D01*
X100059523Y-131692380D01*
X99964285Y-131644761D01*
X99916666Y-131597142D01*
%TO.C,C5*%
X156433333Y-76557142D02*
X156385714Y-76604761D01*
X156242857Y-76652380D01*
X156147619Y-76652380D01*
X156004761Y-76604761D01*
X155909523Y-76509523D01*
X155861904Y-76414285D01*
X155814285Y-76223809D01*
X155814285Y-76080952D01*
X155861904Y-75890476D01*
X155909523Y-75795238D01*
X156004761Y-75700000D01*
X156147619Y-75652380D01*
X156242857Y-75652380D01*
X156385714Y-75700000D01*
X156433333Y-75747619D01*
X157338095Y-75652380D02*
X156861904Y-75652380D01*
X156814285Y-76128571D01*
X156861904Y-76080952D01*
X156957142Y-76033333D01*
X157195238Y-76033333D01*
X157290476Y-76080952D01*
X157338095Y-76128571D01*
X157385714Y-76223809D01*
X157385714Y-76461904D01*
X157338095Y-76557142D01*
X157290476Y-76604761D01*
X157195238Y-76652380D01*
X156957142Y-76652380D01*
X156861904Y-76604761D01*
X156814285Y-76557142D01*
%TO.C,Y1*%
X126498809Y-138651190D02*
X126498809Y-139127380D01*
X126165476Y-138127380D02*
X126498809Y-138651190D01*
X126832142Y-138127380D01*
X127689285Y-139127380D02*
X127117857Y-139127380D01*
X127403571Y-139127380D02*
X127403571Y-138127380D01*
X127308333Y-138270238D01*
X127213095Y-138365476D01*
X127117857Y-138413095D01*
%TO.C,U2*%
X104394095Y-117562380D02*
X104394095Y-118371904D01*
X104441714Y-118467142D01*
X104489333Y-118514761D01*
X104584571Y-118562380D01*
X104775047Y-118562380D01*
X104870285Y-118514761D01*
X104917904Y-118467142D01*
X104965523Y-118371904D01*
X104965523Y-117562380D01*
X105394095Y-117657619D02*
X105441714Y-117610000D01*
X105536952Y-117562380D01*
X105775047Y-117562380D01*
X105870285Y-117610000D01*
X105917904Y-117657619D01*
X105965523Y-117752857D01*
X105965523Y-117848095D01*
X105917904Y-117990952D01*
X105346476Y-118562380D01*
X105965523Y-118562380D01*
%TO.C,J3*%
X93606666Y-82692380D02*
X93606666Y-83406666D01*
X93559047Y-83549523D01*
X93463809Y-83644761D01*
X93320952Y-83692380D01*
X93225714Y-83692380D01*
X93987619Y-82692380D02*
X94606666Y-82692380D01*
X94273333Y-83073333D01*
X94416190Y-83073333D01*
X94511428Y-83120952D01*
X94559047Y-83168571D01*
X94606666Y-83263809D01*
X94606666Y-83501904D01*
X94559047Y-83597142D01*
X94511428Y-83644761D01*
X94416190Y-83692380D01*
X94130476Y-83692380D01*
X94035238Y-83644761D01*
X93987619Y-83597142D01*
%TO.C,C1*%
X155943333Y-90697142D02*
X155895714Y-90744761D01*
X155752857Y-90792380D01*
X155657619Y-90792380D01*
X155514761Y-90744761D01*
X155419523Y-90649523D01*
X155371904Y-90554285D01*
X155324285Y-90363809D01*
X155324285Y-90220952D01*
X155371904Y-90030476D01*
X155419523Y-89935238D01*
X155514761Y-89840000D01*
X155657619Y-89792380D01*
X155752857Y-89792380D01*
X155895714Y-89840000D01*
X155943333Y-89887619D01*
X156895714Y-90792380D02*
X156324285Y-90792380D01*
X156610000Y-90792380D02*
X156610000Y-89792380D01*
X156514761Y-89935238D01*
X156419523Y-90030476D01*
X156324285Y-90078095D01*
%TO.C,C2*%
X152593333Y-90757142D02*
X152545714Y-90804761D01*
X152402857Y-90852380D01*
X152307619Y-90852380D01*
X152164761Y-90804761D01*
X152069523Y-90709523D01*
X152021904Y-90614285D01*
X151974285Y-90423809D01*
X151974285Y-90280952D01*
X152021904Y-90090476D01*
X152069523Y-89995238D01*
X152164761Y-89900000D01*
X152307619Y-89852380D01*
X152402857Y-89852380D01*
X152545714Y-89900000D01*
X152593333Y-89947619D01*
X152974285Y-89947619D02*
X153021904Y-89900000D01*
X153117142Y-89852380D01*
X153355238Y-89852380D01*
X153450476Y-89900000D01*
X153498095Y-89947619D01*
X153545714Y-90042857D01*
X153545714Y-90138095D01*
X153498095Y-90280952D01*
X152926666Y-90852380D01*
X153545714Y-90852380D01*
%TO.C,C3*%
X124333333Y-114057142D02*
X124285714Y-114104761D01*
X124142857Y-114152380D01*
X124047619Y-114152380D01*
X123904761Y-114104761D01*
X123809523Y-114009523D01*
X123761904Y-113914285D01*
X123714285Y-113723809D01*
X123714285Y-113580952D01*
X123761904Y-113390476D01*
X123809523Y-113295238D01*
X123904761Y-113200000D01*
X124047619Y-113152380D01*
X124142857Y-113152380D01*
X124285714Y-113200000D01*
X124333333Y-113247619D01*
X124666666Y-113152380D02*
X125285714Y-113152380D01*
X124952380Y-113533333D01*
X125095238Y-113533333D01*
X125190476Y-113580952D01*
X125238095Y-113628571D01*
X125285714Y-113723809D01*
X125285714Y-113961904D01*
X125238095Y-114057142D01*
X125190476Y-114104761D01*
X125095238Y-114152380D01*
X124809523Y-114152380D01*
X124714285Y-114104761D01*
X124666666Y-114057142D01*
%TO.C,C4*%
X90933333Y-127757142D02*
X90885714Y-127804761D01*
X90742857Y-127852380D01*
X90647619Y-127852380D01*
X90504761Y-127804761D01*
X90409523Y-127709523D01*
X90361904Y-127614285D01*
X90314285Y-127423809D01*
X90314285Y-127280952D01*
X90361904Y-127090476D01*
X90409523Y-126995238D01*
X90504761Y-126900000D01*
X90647619Y-126852380D01*
X90742857Y-126852380D01*
X90885714Y-126900000D01*
X90933333Y-126947619D01*
X91790476Y-127185714D02*
X91790476Y-127852380D01*
X91552380Y-126804761D02*
X91314285Y-127519047D01*
X91933333Y-127519047D01*
%TO.C,C6*%
X129833333Y-114057142D02*
X129785714Y-114104761D01*
X129642857Y-114152380D01*
X129547619Y-114152380D01*
X129404761Y-114104761D01*
X129309523Y-114009523D01*
X129261904Y-113914285D01*
X129214285Y-113723809D01*
X129214285Y-113580952D01*
X129261904Y-113390476D01*
X129309523Y-113295238D01*
X129404761Y-113200000D01*
X129547619Y-113152380D01*
X129642857Y-113152380D01*
X129785714Y-113200000D01*
X129833333Y-113247619D01*
X130690476Y-113152380D02*
X130500000Y-113152380D01*
X130404761Y-113200000D01*
X130357142Y-113247619D01*
X130261904Y-113390476D01*
X130214285Y-113580952D01*
X130214285Y-113961904D01*
X130261904Y-114057142D01*
X130309523Y-114104761D01*
X130404761Y-114152380D01*
X130595238Y-114152380D01*
X130690476Y-114104761D01*
X130738095Y-114057142D01*
X130785714Y-113961904D01*
X130785714Y-113723809D01*
X130738095Y-113628571D01*
X130690476Y-113580952D01*
X130595238Y-113533333D01*
X130404761Y-113533333D01*
X130309523Y-113580952D01*
X130261904Y-113628571D01*
X130214285Y-113723809D01*
%TO.C,C7*%
X121658333Y-138982142D02*
X121610714Y-139029761D01*
X121467857Y-139077380D01*
X121372619Y-139077380D01*
X121229761Y-139029761D01*
X121134523Y-138934523D01*
X121086904Y-138839285D01*
X121039285Y-138648809D01*
X121039285Y-138505952D01*
X121086904Y-138315476D01*
X121134523Y-138220238D01*
X121229761Y-138125000D01*
X121372619Y-138077380D01*
X121467857Y-138077380D01*
X121610714Y-138125000D01*
X121658333Y-138172619D01*
X121991666Y-138077380D02*
X122658333Y-138077380D01*
X122229761Y-139077380D01*
%TO.C,C8*%
X136983333Y-138957142D02*
X136935714Y-139004761D01*
X136792857Y-139052380D01*
X136697619Y-139052380D01*
X136554761Y-139004761D01*
X136459523Y-138909523D01*
X136411904Y-138814285D01*
X136364285Y-138623809D01*
X136364285Y-138480952D01*
X136411904Y-138290476D01*
X136459523Y-138195238D01*
X136554761Y-138100000D01*
X136697619Y-138052380D01*
X136792857Y-138052380D01*
X136935714Y-138100000D01*
X136983333Y-138147619D01*
X137554761Y-138480952D02*
X137459523Y-138433333D01*
X137411904Y-138385714D01*
X137364285Y-138290476D01*
X137364285Y-138242857D01*
X137411904Y-138147619D01*
X137459523Y-138100000D01*
X137554761Y-138052380D01*
X137745238Y-138052380D01*
X137840476Y-138100000D01*
X137888095Y-138147619D01*
X137935714Y-138242857D01*
X137935714Y-138290476D01*
X137888095Y-138385714D01*
X137840476Y-138433333D01*
X137745238Y-138480952D01*
X137554761Y-138480952D01*
X137459523Y-138528571D01*
X137411904Y-138576190D01*
X137364285Y-138671428D01*
X137364285Y-138861904D01*
X137411904Y-138957142D01*
X137459523Y-139004761D01*
X137554761Y-139052380D01*
X137745238Y-139052380D01*
X137840476Y-139004761D01*
X137888095Y-138957142D01*
X137935714Y-138861904D01*
X137935714Y-138671428D01*
X137888095Y-138576190D01*
X137840476Y-138528571D01*
X137745238Y-138480952D01*
%TO.C,D1*%
X133011904Y-76652380D02*
X133011904Y-75652380D01*
X133250000Y-75652380D01*
X133392857Y-75700000D01*
X133488095Y-75795238D01*
X133535714Y-75890476D01*
X133583333Y-76080952D01*
X133583333Y-76223809D01*
X133535714Y-76414285D01*
X133488095Y-76509523D01*
X133392857Y-76604761D01*
X133250000Y-76652380D01*
X133011904Y-76652380D01*
X134535714Y-76652380D02*
X133964285Y-76652380D01*
X134250000Y-76652380D02*
X134250000Y-75652380D01*
X134154761Y-75795238D01*
X134059523Y-75890476D01*
X133964285Y-75938095D01*
%TO.C,D2*%
X139561904Y-76652380D02*
X139561904Y-75652380D01*
X139800000Y-75652380D01*
X139942857Y-75700000D01*
X140038095Y-75795238D01*
X140085714Y-75890476D01*
X140133333Y-76080952D01*
X140133333Y-76223809D01*
X140085714Y-76414285D01*
X140038095Y-76509523D01*
X139942857Y-76604761D01*
X139800000Y-76652380D01*
X139561904Y-76652380D01*
X140514285Y-75747619D02*
X140561904Y-75700000D01*
X140657142Y-75652380D01*
X140895238Y-75652380D01*
X140990476Y-75700000D01*
X141038095Y-75747619D01*
X141085714Y-75842857D01*
X141085714Y-75938095D01*
X141038095Y-76080952D01*
X140466666Y-76652380D01*
X141085714Y-76652380D01*
%TO.C,R1*%
X108298333Y-95392380D02*
X107965000Y-94916190D01*
X107726904Y-95392380D02*
X107726904Y-94392380D01*
X108107857Y-94392380D01*
X108203095Y-94440000D01*
X108250714Y-94487619D01*
X108298333Y-94582857D01*
X108298333Y-94725714D01*
X108250714Y-94820952D01*
X108203095Y-94868571D01*
X108107857Y-94916190D01*
X107726904Y-94916190D01*
X109250714Y-95392380D02*
X108679285Y-95392380D01*
X108965000Y-95392380D02*
X108965000Y-94392380D01*
X108869761Y-94535238D01*
X108774523Y-94630476D01*
X108679285Y-94678095D01*
%TO.C,R2*%
X108248333Y-91432380D02*
X107915000Y-90956190D01*
X107676904Y-91432380D02*
X107676904Y-90432380D01*
X108057857Y-90432380D01*
X108153095Y-90480000D01*
X108200714Y-90527619D01*
X108248333Y-90622857D01*
X108248333Y-90765714D01*
X108200714Y-90860952D01*
X108153095Y-90908571D01*
X108057857Y-90956190D01*
X107676904Y-90956190D01*
X108629285Y-90527619D02*
X108676904Y-90480000D01*
X108772142Y-90432380D01*
X109010238Y-90432380D01*
X109105476Y-90480000D01*
X109153095Y-90527619D01*
X109200714Y-90622857D01*
X109200714Y-90718095D01*
X109153095Y-90860952D01*
X108581666Y-91432380D01*
X109200714Y-91432380D01*
%TO.C,R3*%
X129793333Y-102267380D02*
X129460000Y-101791190D01*
X129221904Y-102267380D02*
X129221904Y-101267380D01*
X129602857Y-101267380D01*
X129698095Y-101315000D01*
X129745714Y-101362619D01*
X129793333Y-101457857D01*
X129793333Y-101600714D01*
X129745714Y-101695952D01*
X129698095Y-101743571D01*
X129602857Y-101791190D01*
X129221904Y-101791190D01*
X130126666Y-101267380D02*
X130745714Y-101267380D01*
X130412380Y-101648333D01*
X130555238Y-101648333D01*
X130650476Y-101695952D01*
X130698095Y-101743571D01*
X130745714Y-101838809D01*
X130745714Y-102076904D01*
X130698095Y-102172142D01*
X130650476Y-102219761D01*
X130555238Y-102267380D01*
X130269523Y-102267380D01*
X130174285Y-102219761D01*
X130126666Y-102172142D01*
%TO.C,R4*%
X133868333Y-102242380D02*
X133535000Y-101766190D01*
X133296904Y-102242380D02*
X133296904Y-101242380D01*
X133677857Y-101242380D01*
X133773095Y-101290000D01*
X133820714Y-101337619D01*
X133868333Y-101432857D01*
X133868333Y-101575714D01*
X133820714Y-101670952D01*
X133773095Y-101718571D01*
X133677857Y-101766190D01*
X133296904Y-101766190D01*
X134725476Y-101575714D02*
X134725476Y-102242380D01*
X134487380Y-101194761D02*
X134249285Y-101909047D01*
X134868333Y-101909047D01*
%TO.C,R5*%
X95708333Y-114527380D02*
X95375000Y-114051190D01*
X95136904Y-114527380D02*
X95136904Y-113527380D01*
X95517857Y-113527380D01*
X95613095Y-113575000D01*
X95660714Y-113622619D01*
X95708333Y-113717857D01*
X95708333Y-113860714D01*
X95660714Y-113955952D01*
X95613095Y-114003571D01*
X95517857Y-114051190D01*
X95136904Y-114051190D01*
X96613095Y-113527380D02*
X96136904Y-113527380D01*
X96089285Y-114003571D01*
X96136904Y-113955952D01*
X96232142Y-113908333D01*
X96470238Y-113908333D01*
X96565476Y-113955952D01*
X96613095Y-114003571D01*
X96660714Y-114098809D01*
X96660714Y-114336904D01*
X96613095Y-114432142D01*
X96565476Y-114479761D01*
X96470238Y-114527380D01*
X96232142Y-114527380D01*
X96136904Y-114479761D01*
X96089285Y-114432142D01*
%TO.C,R6*%
X104783333Y-136872380D02*
X104450000Y-136396190D01*
X104211904Y-136872380D02*
X104211904Y-135872380D01*
X104592857Y-135872380D01*
X104688095Y-135920000D01*
X104735714Y-135967619D01*
X104783333Y-136062857D01*
X104783333Y-136205714D01*
X104735714Y-136300952D01*
X104688095Y-136348571D01*
X104592857Y-136396190D01*
X104211904Y-136396190D01*
X105640476Y-135872380D02*
X105450000Y-135872380D01*
X105354761Y-135920000D01*
X105307142Y-135967619D01*
X105211904Y-136110476D01*
X105164285Y-136300952D01*
X105164285Y-136681904D01*
X105211904Y-136777142D01*
X105259523Y-136824761D01*
X105354761Y-136872380D01*
X105545238Y-136872380D01*
X105640476Y-136824761D01*
X105688095Y-136777142D01*
X105735714Y-136681904D01*
X105735714Y-136443809D01*
X105688095Y-136348571D01*
X105640476Y-136300952D01*
X105545238Y-136253333D01*
X105354761Y-136253333D01*
X105259523Y-136300952D01*
X105211904Y-136348571D01*
X105164285Y-136443809D01*
%TO.C,R7*%
X137633333Y-130277380D02*
X137300000Y-129801190D01*
X137061904Y-130277380D02*
X137061904Y-129277380D01*
X137442857Y-129277380D01*
X137538095Y-129325000D01*
X137585714Y-129372619D01*
X137633333Y-129467857D01*
X137633333Y-129610714D01*
X137585714Y-129705952D01*
X137538095Y-129753571D01*
X137442857Y-129801190D01*
X137061904Y-129801190D01*
X137966666Y-129277380D02*
X138633333Y-129277380D01*
X138204761Y-130277380D01*
%TO.C,R8*%
X167043333Y-124512380D02*
X166710000Y-124036190D01*
X166471904Y-124512380D02*
X166471904Y-123512380D01*
X166852857Y-123512380D01*
X166948095Y-123560000D01*
X166995714Y-123607619D01*
X167043333Y-123702857D01*
X167043333Y-123845714D01*
X166995714Y-123940952D01*
X166948095Y-123988571D01*
X166852857Y-124036190D01*
X166471904Y-124036190D01*
X167614761Y-123940952D02*
X167519523Y-123893333D01*
X167471904Y-123845714D01*
X167424285Y-123750476D01*
X167424285Y-123702857D01*
X167471904Y-123607619D01*
X167519523Y-123560000D01*
X167614761Y-123512380D01*
X167805238Y-123512380D01*
X167900476Y-123560000D01*
X167948095Y-123607619D01*
X167995714Y-123702857D01*
X167995714Y-123750476D01*
X167948095Y-123845714D01*
X167900476Y-123893333D01*
X167805238Y-123940952D01*
X167614761Y-123940952D01*
X167519523Y-123988571D01*
X167471904Y-124036190D01*
X167424285Y-124131428D01*
X167424285Y-124321904D01*
X167471904Y-124417142D01*
X167519523Y-124464761D01*
X167614761Y-124512380D01*
X167805238Y-124512380D01*
X167900476Y-124464761D01*
X167948095Y-124417142D01*
X167995714Y-124321904D01*
X167995714Y-124131428D01*
X167948095Y-124036190D01*
X167900476Y-123988571D01*
X167805238Y-123940952D01*
%TO.C,R9*%
X137818333Y-102217380D02*
X137485000Y-101741190D01*
X137246904Y-102217380D02*
X137246904Y-101217380D01*
X137627857Y-101217380D01*
X137723095Y-101265000D01*
X137770714Y-101312619D01*
X137818333Y-101407857D01*
X137818333Y-101550714D01*
X137770714Y-101645952D01*
X137723095Y-101693571D01*
X137627857Y-101741190D01*
X137246904Y-101741190D01*
X138294523Y-102217380D02*
X138485000Y-102217380D01*
X138580238Y-102169761D01*
X138627857Y-102122142D01*
X138723095Y-101979285D01*
X138770714Y-101788809D01*
X138770714Y-101407857D01*
X138723095Y-101312619D01*
X138675476Y-101265000D01*
X138580238Y-101217380D01*
X138389761Y-101217380D01*
X138294523Y-101265000D01*
X138246904Y-101312619D01*
X138199285Y-101407857D01*
X138199285Y-101645952D01*
X138246904Y-101741190D01*
X138294523Y-101788809D01*
X138389761Y-101836428D01*
X138580238Y-101836428D01*
X138675476Y-101788809D01*
X138723095Y-101741190D01*
X138770714Y-101645952D01*
%TO.C,R11*%
X167007142Y-128552380D02*
X166673809Y-128076190D01*
X166435714Y-128552380D02*
X166435714Y-127552380D01*
X166816666Y-127552380D01*
X166911904Y-127600000D01*
X166959523Y-127647619D01*
X167007142Y-127742857D01*
X167007142Y-127885714D01*
X166959523Y-127980952D01*
X166911904Y-128028571D01*
X166816666Y-128076190D01*
X166435714Y-128076190D01*
X167959523Y-128552380D02*
X167388095Y-128552380D01*
X167673809Y-128552380D02*
X167673809Y-127552380D01*
X167578571Y-127695238D01*
X167483333Y-127790476D01*
X167388095Y-127838095D01*
X168911904Y-128552380D02*
X168340476Y-128552380D01*
X168626190Y-128552380D02*
X168626190Y-127552380D01*
X168530952Y-127695238D01*
X168435714Y-127790476D01*
X168340476Y-127838095D01*
%TO.C,SW1*%
X92766666Y-123804761D02*
X92909523Y-123852380D01*
X93147619Y-123852380D01*
X93242857Y-123804761D01*
X93290476Y-123757142D01*
X93338095Y-123661904D01*
X93338095Y-123566666D01*
X93290476Y-123471428D01*
X93242857Y-123423809D01*
X93147619Y-123376190D01*
X92957142Y-123328571D01*
X92861904Y-123280952D01*
X92814285Y-123233333D01*
X92766666Y-123138095D01*
X92766666Y-123042857D01*
X92814285Y-122947619D01*
X92861904Y-122900000D01*
X92957142Y-122852380D01*
X93195238Y-122852380D01*
X93338095Y-122900000D01*
X93671428Y-122852380D02*
X93909523Y-123852380D01*
X94100000Y-123138095D01*
X94290476Y-123852380D01*
X94528571Y-122852380D01*
X95433333Y-123852380D02*
X94861904Y-123852380D01*
X95147619Y-123852380D02*
X95147619Y-122852380D01*
X95052380Y-122995238D01*
X94957142Y-123090476D01*
X94861904Y-123138095D01*
%TD*%
M02*
