%TF.GenerationSoftware,KiCad,Pcbnew,5.1.8*%
%TF.CreationDate,2020-12-06T15:25:50+01:00*%
%TF.ProjectId,livello_serbatoio_definitiva,6c697665-6c6c-46f5-9f73-65726261746f,rev?*%
%TF.SameCoordinates,Original*%
%TF.FileFunction,Soldermask,Top*%
%TF.FilePolarity,Negative*%
%FSLAX46Y46*%
G04 Gerber Fmt 4.6, Leading zero omitted, Abs format (unit mm)*
G04 Created by KiCad (PCBNEW 5.1.8) date 2020-12-06 15:25:50*
%MOMM*%
%LPD*%
G01*
G04 APERTURE LIST*
%ADD10O,1.700000X1.700000*%
%ADD11R,1.700000X1.700000*%
%ADD12C,2.000000*%
%ADD13R,1.800000X1.800000*%
%ADD14C,1.800000*%
%ADD15O,2.200000X2.200000*%
%ADD16R,2.200000X2.200000*%
%ADD17C,1.600000*%
%ADD18C,2.100000*%
%ADD19R,2.100000X2.100000*%
%ADD20C,1.700000*%
%ADD21C,3.500000*%
%ADD22C,1.000000*%
%ADD23O,1.600000X1.600000*%
%ADD24R,1.600000X1.600000*%
%ADD25C,0.800000*%
%ADD26C,6.000000*%
G04 APERTURE END LIST*
D10*
%TO.C,J6*%
X119845000Y-89420000D03*
X117305000Y-89420000D03*
X114765000Y-89420000D03*
D11*
X112225000Y-89420000D03*
%TD*%
D12*
%TO.C,SW1*%
X96500000Y-125500000D03*
X96500000Y-121000000D03*
X103000000Y-125500000D03*
X103000000Y-121000000D03*
%TD*%
D10*
%TO.C,J7*%
X107160000Y-114070000D03*
X109700000Y-114070000D03*
X112240000Y-114070000D03*
X114780000Y-114070000D03*
D11*
X117320000Y-114070000D03*
%TD*%
D12*
%TO.C,RV1*%
X109950000Y-74450000D03*
X99950000Y-76950000D03*
X99950000Y-71950000D03*
%TD*%
D13*
%TO.C,D4*%
X148600000Y-73400000D03*
D14*
X151140000Y-73400000D03*
%TD*%
%TO.C,F1*%
G36*
G01*
X157240001Y-92575000D02*
X154339999Y-92575000D01*
G75*
G02*
X154090000Y-92325001I0J249999D01*
G01*
X154090000Y-91524999D01*
G75*
G02*
X154339999Y-91275000I249999J0D01*
G01*
X157240001Y-91275000D01*
G75*
G02*
X157490000Y-91524999I0J-249999D01*
G01*
X157490000Y-92325001D01*
G75*
G02*
X157240001Y-92575000I-249999J0D01*
G01*
G37*
G36*
G01*
X157240001Y-97025000D02*
X154339999Y-97025000D01*
G75*
G02*
X154090000Y-96775001I0J249999D01*
G01*
X154090000Y-95974999D01*
G75*
G02*
X154339999Y-95725000I249999J0D01*
G01*
X157240001Y-95725000D01*
G75*
G02*
X157490000Y-95974999I0J-249999D01*
G01*
X157490000Y-96775001D01*
G75*
G02*
X157240001Y-97025000I-249999J0D01*
G01*
G37*
%TD*%
D15*
%TO.C,D3*%
X96540000Y-128880000D03*
D16*
X104160000Y-128880000D03*
%TD*%
D17*
%TO.C,C5*%
X155540000Y-78420000D03*
X158040000Y-78420000D03*
%TD*%
D18*
%TO.C,J2*%
X157210000Y-135360000D03*
X152210000Y-135360000D03*
X147210000Y-135360000D03*
D19*
X142210000Y-135360000D03*
%TD*%
D18*
%TO.C,J4*%
X165325000Y-100700000D03*
X165325000Y-105700000D03*
X165325000Y-110700000D03*
D19*
X165325000Y-115700000D03*
%TD*%
D11*
%TO.C,J1*%
X161050000Y-89500000D03*
D20*
X161050000Y-87000000D03*
X163050000Y-87000000D03*
X163050000Y-89500000D03*
D21*
X165760000Y-94270000D03*
X165760000Y-82230000D03*
%TD*%
D22*
%TO.C,Y1*%
X131900000Y-134770000D03*
X127020000Y-134770000D03*
%TD*%
D23*
%TO.C,U2*%
X108000000Y-118780000D03*
X141020000Y-126400000D03*
X110540000Y-118780000D03*
X138480000Y-126400000D03*
X113080000Y-118780000D03*
X135940000Y-126400000D03*
X115620000Y-118780000D03*
X133400000Y-126400000D03*
X118160000Y-118780000D03*
X130860000Y-126400000D03*
X120700000Y-118780000D03*
X128320000Y-126400000D03*
X123240000Y-118780000D03*
X125780000Y-126400000D03*
X125780000Y-118780000D03*
X123240000Y-126400000D03*
X128320000Y-118780000D03*
X120700000Y-126400000D03*
X130860000Y-118780000D03*
X118160000Y-126400000D03*
X133400000Y-118780000D03*
X115620000Y-126400000D03*
X135940000Y-118780000D03*
X113080000Y-126400000D03*
X138480000Y-118780000D03*
X110540000Y-126400000D03*
X141020000Y-118780000D03*
D24*
X108000000Y-126400000D03*
%TD*%
D25*
%TO.C,H4*%
X94590990Y-132409010D03*
X93000000Y-131750000D03*
X91409010Y-132409010D03*
X90750000Y-134000000D03*
X91409010Y-135590990D03*
X93000000Y-136250000D03*
X94590990Y-135590990D03*
X95250000Y-134000000D03*
D26*
X93000000Y-134000000D03*
%TD*%
D10*
%TO.C,J3*%
X135100000Y-82500000D03*
X132560000Y-82500000D03*
X130020000Y-82500000D03*
X127480000Y-82500000D03*
X124940000Y-82500000D03*
X122400000Y-82500000D03*
X119860000Y-82500000D03*
X117320000Y-82500000D03*
X114780000Y-82500000D03*
X112240000Y-82500000D03*
X109700000Y-82500000D03*
X107160000Y-82500000D03*
X104620000Y-82500000D03*
X102080000Y-82500000D03*
X99540000Y-82500000D03*
D11*
X97000000Y-82500000D03*
%TD*%
D25*
%TO.C,H1*%
X94590990Y-72409010D03*
X93000000Y-71750000D03*
X91409010Y-72409010D03*
X90750000Y-74000000D03*
X91409010Y-75590990D03*
X93000000Y-76250000D03*
X94590990Y-75590990D03*
X95250000Y-74000000D03*
D26*
X93000000Y-74000000D03*
%TD*%
D25*
%TO.C,H2*%
X165590990Y-72409010D03*
X164000000Y-71750000D03*
X162409010Y-72409010D03*
X161750000Y-74000000D03*
X162409010Y-75590990D03*
X164000000Y-76250000D03*
X165590990Y-75590990D03*
X166250000Y-74000000D03*
D26*
X164000000Y-74000000D03*
%TD*%
D25*
%TO.C,H3*%
X165590990Y-132409010D03*
X164000000Y-131750000D03*
X162409010Y-132409010D03*
X161750000Y-134000000D03*
X162409010Y-135590990D03*
X164000000Y-136250000D03*
X165590990Y-135590990D03*
X166250000Y-134000000D03*
D26*
X164000000Y-134000000D03*
%TD*%
D10*
%TO.C,J5*%
X122615000Y-103220000D03*
X120075000Y-103220000D03*
X122615000Y-105760000D03*
X120075000Y-105760000D03*
X122615000Y-108300000D03*
D11*
X120075000Y-108300000D03*
%TD*%
D17*
%TO.C,C1*%
X156150000Y-88020000D03*
X156150000Y-85520000D03*
%TD*%
%TO.C,C2*%
X152680000Y-85530000D03*
X152680000Y-88030000D03*
%TD*%
%TO.C,C3*%
X125750000Y-116000000D03*
X123250000Y-116000000D03*
%TD*%
%TO.C,C4*%
X93060000Y-126300000D03*
X93060000Y-128800000D03*
%TD*%
%TO.C,C6*%
X131300000Y-116000000D03*
X128800000Y-116000000D03*
%TD*%
%TO.C,C7*%
X121800000Y-133800000D03*
X121800000Y-136300000D03*
%TD*%
%TO.C,C8*%
X137150000Y-136300000D03*
X137150000Y-133800000D03*
%TD*%
D14*
%TO.C,D1*%
X137740000Y-73400000D03*
D13*
X135200000Y-73400000D03*
%TD*%
%TO.C,D2*%
X141900000Y-73400000D03*
D14*
X144440000Y-73400000D03*
%TD*%
D17*
%TO.C,R1*%
X109900000Y-97115000D03*
D23*
X122600000Y-97115000D03*
%TD*%
%TO.C,R2*%
X122550000Y-93065000D03*
D17*
X109850000Y-93065000D03*
%TD*%
%TO.C,R3*%
X130035000Y-99765000D03*
D23*
X130035000Y-87065000D03*
%TD*%
%TO.C,R4*%
X134035000Y-87065000D03*
D17*
X134035000Y-99765000D03*
%TD*%
%TO.C,R6*%
X111300000Y-133700000D03*
D23*
X98600000Y-133700000D03*
%TD*%
%TO.C,R7*%
X135800000Y-129750000D03*
D17*
X123100000Y-129750000D03*
%TD*%
%TO.C,R8*%
X147310000Y-122925000D03*
D23*
X160010000Y-122925000D03*
%TD*%
%TO.C,R9*%
X138035000Y-99765000D03*
D17*
X138035000Y-87065000D03*
%TD*%
D23*
%TO.C,R11*%
X147310000Y-126730000D03*
D17*
X160010000Y-126730000D03*
%TD*%
M02*
