%TF.GenerationSoftware,KiCad,Pcbnew,5.1.8*%
%TF.CreationDate,2020-11-08T18:43:05+01:00*%
%TF.ProjectId,livello_serbatoio_definitiva,6c697665-6c6c-46f5-9f73-65726261746f,rev?*%
%TF.SameCoordinates,Original*%
%TF.FileFunction,Copper,L1,Top*%
%TF.FilePolarity,Positive*%
%FSLAX46Y46*%
G04 Gerber Fmt 4.6, Leading zero omitted, Abs format (unit mm)*
G04 Created by KiCad (PCBNEW 5.1.8) date 2020-11-08 18:43:05*
%MOMM*%
%LPD*%
G01*
G04 APERTURE LIST*
%TA.AperFunction,ComponentPad*%
%ADD10C,2.100000*%
%TD*%
%TA.AperFunction,ComponentPad*%
%ADD11R,2.100000X2.100000*%
%TD*%
%TA.AperFunction,ComponentPad*%
%ADD12C,2.000000*%
%TD*%
%TA.AperFunction,ComponentPad*%
%ADD13R,1.700000X1.700000*%
%TD*%
%TA.AperFunction,ComponentPad*%
%ADD14C,1.700000*%
%TD*%
%TA.AperFunction,ComponentPad*%
%ADD15C,3.500000*%
%TD*%
%TA.AperFunction,ComponentPad*%
%ADD16C,1.000000*%
%TD*%
%TA.AperFunction,ComponentPad*%
%ADD17O,1.600000X1.600000*%
%TD*%
%TA.AperFunction,ComponentPad*%
%ADD18R,1.600000X1.600000*%
%TD*%
%TA.AperFunction,ComponentPad*%
%ADD19C,0.800000*%
%TD*%
%TA.AperFunction,ComponentPad*%
%ADD20C,6.000000*%
%TD*%
%TA.AperFunction,ComponentPad*%
%ADD21O,1.700000X1.700000*%
%TD*%
%TA.AperFunction,ComponentPad*%
%ADD22C,1.600000*%
%TD*%
%TA.AperFunction,ComponentPad*%
%ADD23C,1.800000*%
%TD*%
%TA.AperFunction,ComponentPad*%
%ADD24R,1.800000X1.800000*%
%TD*%
%TA.AperFunction,ViaPad*%
%ADD25C,0.800000*%
%TD*%
%TA.AperFunction,Conductor*%
%ADD26C,0.762000*%
%TD*%
%TA.AperFunction,Conductor*%
%ADD27C,0.508000*%
%TD*%
%TA.AperFunction,Conductor*%
%ADD28C,0.254000*%
%TD*%
%TA.AperFunction,Conductor*%
%ADD29C,0.100000*%
%TD*%
G04 APERTURE END LIST*
D10*
%TO.P,J2,4*%
%TO.N,GND*%
X157450000Y-135350000D03*
%TO.P,J2,3*%
%TO.N,D2*%
X152450000Y-135350000D03*
%TO.P,J2,2*%
%TO.N,VDD*%
X147450000Y-135350000D03*
D11*
%TO.P,J2,1*%
%TO.N,Net-(J2-Pad1)*%
X142450000Y-135350000D03*
%TD*%
D10*
%TO.P,J4,4*%
%TO.N,GND*%
X165325000Y-100700000D03*
%TO.P,J4,3*%
%TO.N,D12*%
X165325000Y-105700000D03*
%TO.P,J4,2*%
%TO.N,D11*%
X165325000Y-110700000D03*
D11*
%TO.P,J4,1*%
%TO.N,VDD*%
X165325000Y-115700000D03*
%TD*%
D12*
%TO.P,RV1,3*%
%TO.N,GND*%
X109950000Y-74450000D03*
%TO.P,RV1,2*%
%TO.N,V0*%
X99950000Y-76950000D03*
%TO.P,RV1,1*%
%TO.N,VDD*%
X99950000Y-71950000D03*
%TD*%
D13*
%TO.P,J1,1*%
%TO.N,Net-(C1-Pad1)*%
X161050000Y-89500000D03*
D14*
%TO.P,J1,2*%
%TO.N,/D-*%
X161050000Y-87000000D03*
%TO.P,J1,3*%
%TO.N,/D+*%
X163050000Y-87000000D03*
%TO.P,J1,4*%
%TO.N,GND*%
X163050000Y-89500000D03*
D15*
%TO.P,J1,5*%
X165760000Y-94270000D03*
X165760000Y-82230000D03*
%TD*%
D16*
%TO.P,Y1,1*%
%TO.N,/X2*%
X131900000Y-134770000D03*
%TO.P,Y1,2*%
%TO.N,/X1*%
X127020000Y-134770000D03*
%TD*%
D17*
%TO.P,U2,28*%
%TO.N,Net-(U2-Pad28)*%
X108000000Y-118780000D03*
%TO.P,U2,14*%
%TO.N,D8*%
X141020000Y-126400000D03*
%TO.P,U2,27*%
%TO.N,Net-(U2-Pad27)*%
X110540000Y-118780000D03*
%TO.P,U2,13*%
%TO.N,D7*%
X138480000Y-126400000D03*
%TO.P,U2,26*%
%TO.N,Net-(U2-Pad26)*%
X113080000Y-118780000D03*
%TO.P,U2,12*%
%TO.N,D6*%
X135940000Y-126400000D03*
%TO.P,U2,25*%
%TO.N,Net-(U2-Pad25)*%
X115620000Y-118780000D03*
%TO.P,U2,11*%
%TO.N,D5*%
X133400000Y-126400000D03*
%TO.P,U2,24*%
%TO.N,Net-(U2-Pad24)*%
X118160000Y-118780000D03*
%TO.P,U2,10*%
%TO.N,/X2*%
X130860000Y-126400000D03*
%TO.P,U2,23*%
%TO.N,Net-(U2-Pad23)*%
X120700000Y-118780000D03*
%TO.P,U2,9*%
%TO.N,/X1*%
X128320000Y-126400000D03*
%TO.P,U2,22*%
%TO.N,GND*%
X123240000Y-118780000D03*
%TO.P,U2,8*%
X125780000Y-126400000D03*
%TO.P,U2,21*%
%TO.N,Net-(C3-Pad1)*%
X125780000Y-118780000D03*
%TO.P,U2,7*%
%TO.N,VDD*%
X123240000Y-126400000D03*
%TO.P,U2,20*%
X128320000Y-118780000D03*
%TO.P,U2,6*%
%TO.N,D4*%
X120700000Y-126400000D03*
%TO.P,U2,19*%
%TO.N,D13*%
X130860000Y-118780000D03*
%TO.P,U2,5*%
%TO.N,D3*%
X118160000Y-126400000D03*
%TO.P,U2,18*%
%TO.N,D12*%
X133400000Y-118780000D03*
%TO.P,U2,4*%
%TO.N,D2*%
X115620000Y-126400000D03*
%TO.P,U2,17*%
%TO.N,D11*%
X135940000Y-118780000D03*
%TO.P,U2,3*%
%TO.N,RX*%
X113080000Y-126400000D03*
%TO.P,U2,16*%
%TO.N,Net-(U2-Pad16)*%
X138480000Y-118780000D03*
%TO.P,U2,2*%
%TO.N,TX*%
X110540000Y-126400000D03*
%TO.P,U2,15*%
%TO.N,BLA*%
X141020000Y-118780000D03*
D18*
%TO.P,U2,1*%
%TO.N,ICSP_RST*%
X108000000Y-126400000D03*
%TD*%
D19*
%TO.P,H4,1*%
%TO.N,GND*%
X94590990Y-132409010D03*
X93000000Y-131750000D03*
X91409010Y-132409010D03*
X90750000Y-134000000D03*
X91409010Y-135590990D03*
X93000000Y-136250000D03*
X94590990Y-135590990D03*
X95250000Y-134000000D03*
D20*
X93000000Y-134000000D03*
%TD*%
D17*
%TO.P,D3,2*%
%TO.N,ICSP_RST*%
X96480000Y-128900000D03*
D18*
%TO.P,D3,1*%
%TO.N,VDD*%
X104100000Y-128900000D03*
%TD*%
D21*
%TO.P,J3,16*%
%TO.N,GND*%
X135100000Y-82000000D03*
%TO.P,J3,15*%
%TO.N,BLA*%
X132560000Y-82000000D03*
%TO.P,J3,14*%
%TO.N,D8*%
X130020000Y-82000000D03*
%TO.P,J3,13*%
%TO.N,D7*%
X127480000Y-82000000D03*
%TO.P,J3,12*%
%TO.N,D6*%
X124940000Y-82000000D03*
%TO.P,J3,11*%
%TO.N,D5*%
X122400000Y-82000000D03*
%TO.P,J3,10*%
%TO.N,DB3*%
X119860000Y-82000000D03*
%TO.P,J3,9*%
%TO.N,DB2*%
X117320000Y-82000000D03*
%TO.P,J3,8*%
%TO.N,DB1*%
X114780000Y-82000000D03*
%TO.P,J3,7*%
%TO.N,DB0*%
X112240000Y-82000000D03*
%TO.P,J3,6*%
%TO.N,D4*%
X109700000Y-82000000D03*
%TO.P,J3,5*%
%TO.N,GND*%
X107160000Y-82000000D03*
%TO.P,J3,4*%
%TO.N,D3*%
X104620000Y-82000000D03*
%TO.P,J3,3*%
%TO.N,V0*%
X102080000Y-82000000D03*
%TO.P,J3,2*%
%TO.N,VDD*%
X99540000Y-82000000D03*
D13*
%TO.P,J3,1*%
%TO.N,GND*%
X97000000Y-82000000D03*
%TD*%
D19*
%TO.P,H1,1*%
%TO.N,GND*%
X94590990Y-72409010D03*
X93000000Y-71750000D03*
X91409010Y-72409010D03*
X90750000Y-74000000D03*
X91409010Y-75590990D03*
X93000000Y-76250000D03*
X94590990Y-75590990D03*
X95250000Y-74000000D03*
D20*
X93000000Y-74000000D03*
%TD*%
D19*
%TO.P,H2,1*%
%TO.N,GND*%
X165590990Y-72409010D03*
X164000000Y-71750000D03*
X162409010Y-72409010D03*
X161750000Y-74000000D03*
X162409010Y-75590990D03*
X164000000Y-76250000D03*
X165590990Y-75590990D03*
X166250000Y-74000000D03*
D20*
X164000000Y-74000000D03*
%TD*%
D19*
%TO.P,H3,1*%
%TO.N,GND*%
X165590990Y-132409010D03*
X164000000Y-131750000D03*
X162409010Y-132409010D03*
X161750000Y-134000000D03*
X162409010Y-135590990D03*
X164000000Y-136250000D03*
X165590990Y-135590990D03*
X166250000Y-134000000D03*
D20*
X164000000Y-134000000D03*
%TD*%
%TO.P,FB1,2*%
%TO.N,Net-(C1-Pad1)*%
%TA.AperFunction,SMDPad,CuDef*%
G36*
G01*
X154250001Y-92950000D02*
X151349999Y-92950000D01*
G75*
G02*
X151100000Y-92700001I0J249999D01*
G01*
X151100000Y-91899999D01*
G75*
G02*
X151349999Y-91650000I249999J0D01*
G01*
X154250001Y-91650000D01*
G75*
G02*
X154500000Y-91899999I0J-249999D01*
G01*
X154500000Y-92700001D01*
G75*
G02*
X154250001Y-92950000I-249999J0D01*
G01*
G37*
%TD.AperFunction*%
%TO.P,FB1,1*%
%TO.N,VDD*%
%TA.AperFunction,SMDPad,CuDef*%
G36*
G01*
X154250001Y-97400000D02*
X151349999Y-97400000D01*
G75*
G02*
X151100000Y-97150001I0J249999D01*
G01*
X151100000Y-96349999D01*
G75*
G02*
X151349999Y-96100000I249999J0D01*
G01*
X154250001Y-96100000D01*
G75*
G02*
X154500000Y-96349999I0J-249999D01*
G01*
X154500000Y-97150001D01*
G75*
G02*
X154250001Y-97400000I-249999J0D01*
G01*
G37*
%TD.AperFunction*%
%TD*%
D21*
%TO.P,J5,6*%
%TO.N,GND*%
X122615000Y-103220000D03*
%TO.P,J5,5*%
%TO.N,ICSP_RST*%
X120075000Y-103220000D03*
%TO.P,J5,4*%
%TO.N,D11*%
X122615000Y-105760000D03*
%TO.P,J5,3*%
%TO.N,D13*%
X120075000Y-105760000D03*
%TO.P,J5,2*%
%TO.N,VDD*%
X122615000Y-108300000D03*
D13*
%TO.P,J5,1*%
%TO.N,D12*%
X120075000Y-108300000D03*
%TD*%
D22*
%TO.P,C1,1*%
%TO.N,Net-(C1-Pad1)*%
X157225000Y-91175000D03*
%TO.P,C1,2*%
%TO.N,GND*%
X157225000Y-93675000D03*
%TD*%
%TO.P,C2,1*%
%TO.N,Net-(C2-Pad1)*%
X157225000Y-85300000D03*
%TO.P,C2,2*%
%TO.N,GND*%
X157225000Y-87800000D03*
%TD*%
%TO.P,C3,1*%
%TO.N,Net-(C3-Pad1)*%
X125750000Y-116000000D03*
%TO.P,C3,2*%
%TO.N,GND*%
X123250000Y-116000000D03*
%TD*%
%TO.P,C4,2*%
%TO.N,DTR*%
X93600000Y-126150000D03*
%TO.P,C4,1*%
%TO.N,ICSP_RST*%
X93600000Y-128650000D03*
%TD*%
%TO.P,C6,2*%
%TO.N,GND*%
X131300000Y-116000000D03*
%TO.P,C6,1*%
%TO.N,VDD*%
X128800000Y-116000000D03*
%TD*%
%TO.P,C7,2*%
%TO.N,/X1*%
X121800000Y-133800000D03*
%TO.P,C7,1*%
%TO.N,GND*%
X121800000Y-136300000D03*
%TD*%
%TO.P,C8,1*%
%TO.N,GND*%
X137150000Y-136300000D03*
%TO.P,C8,2*%
%TO.N,/X2*%
X137150000Y-133800000D03*
%TD*%
D23*
%TO.P,D1,2*%
%TO.N,Net-(D1-Pad2)*%
X137740000Y-73400000D03*
D24*
%TO.P,D1,1*%
%TO.N,Net-(D1-Pad1)*%
X135200000Y-73400000D03*
%TD*%
%TO.P,D2,1*%
%TO.N,Net-(D2-Pad1)*%
X141900000Y-73400000D03*
D23*
%TO.P,D2,2*%
%TO.N,Net-(D2-Pad2)*%
X144440000Y-73400000D03*
%TD*%
D24*
%TO.P,D4,1*%
%TO.N,GND*%
X148600000Y-73400000D03*
D23*
%TO.P,D4,2*%
%TO.N,Net-(D4-Pad2)*%
X151140000Y-73400000D03*
%TD*%
D22*
%TO.P,R1,1*%
%TO.N,TX*%
X110575000Y-94400000D03*
D17*
%TO.P,R1,2*%
%TO.N,Net-(R1-Pad2)*%
X123275000Y-94400000D03*
%TD*%
%TO.P,R2,2*%
%TO.N,Net-(R2-Pad2)*%
X123225000Y-90350000D03*
D22*
%TO.P,R2,1*%
%TO.N,RX*%
X110525000Y-90350000D03*
%TD*%
%TO.P,R3,1*%
%TO.N,VDD*%
X134425000Y-99625000D03*
D17*
%TO.P,R3,2*%
%TO.N,Net-(D1-Pad2)*%
X134425000Y-86925000D03*
%TD*%
%TO.P,R4,2*%
%TO.N,Net-(D2-Pad2)*%
X138425000Y-86925000D03*
D22*
%TO.P,R4,1*%
%TO.N,VDD*%
X138425000Y-99625000D03*
%TD*%
%TO.P,R5,1*%
%TO.N,DTR*%
X93050000Y-121000000D03*
D17*
%TO.P,R5,2*%
%TO.N,GND*%
X93050000Y-108300000D03*
%TD*%
D22*
%TO.P,R6,1*%
%TO.N,VDD*%
X111300000Y-133700000D03*
D17*
%TO.P,R6,2*%
%TO.N,ICSP_RST*%
X98600000Y-133700000D03*
%TD*%
%TO.P,R7,2*%
%TO.N,/X2*%
X135800000Y-129750000D03*
D22*
%TO.P,R7,1*%
%TO.N,/X1*%
X123100000Y-129750000D03*
%TD*%
%TO.P,R8,1*%
%TO.N,D13*%
X152350000Y-124075000D03*
D17*
%TO.P,R8,2*%
%TO.N,Net-(J2-Pad1)*%
X165050000Y-124075000D03*
%TD*%
%TO.P,R9,2*%
%TO.N,VDD*%
X142425000Y-99625000D03*
D22*
%TO.P,R9,1*%
%TO.N,Net-(D4-Pad2)*%
X142425000Y-86925000D03*
%TD*%
D17*
%TO.P,R11,2*%
%TO.N,GND*%
X165050000Y-128075000D03*
D22*
%TO.P,R11,1*%
%TO.N,D2*%
X152350000Y-128075000D03*
%TD*%
D12*
%TO.P,SW1,2*%
%TO.N,GND*%
X97050000Y-125500000D03*
%TO.P,SW1,1*%
%TO.N,DTR*%
X97050000Y-121000000D03*
%TO.P,SW1,2*%
%TO.N,GND*%
X103550000Y-125500000D03*
%TO.P,SW1,1*%
%TO.N,DTR*%
X103550000Y-121000000D03*
%TD*%
D25*
%TO.N,DTR*%
X144600000Y-89125000D03*
X103550000Y-105800000D03*
%TO.N,VDD*%
X148125000Y-87825000D03*
%TO.N,Net-(D1-Pad1)*%
X151025000Y-86650000D03*
%TO.N,Net-(D2-Pad1)*%
X151875000Y-85875000D03*
%TO.N,BLA*%
X141075000Y-115650000D03*
%TO.N,D2*%
X122050000Y-123175000D03*
X133275000Y-123900000D03*
%TO.N,Net-(R1-Pad2)*%
X144600000Y-90175000D03*
%TO.N,Net-(R2-Pad2)*%
X131225000Y-90450000D03*
%TO.N,ICSP_RST*%
X105850000Y-112725000D03*
X108675000Y-103200000D03*
%TO.N,GND*%
X155400000Y-88125000D03*
X164550000Y-89525000D03*
X163025000Y-91050000D03*
X165750000Y-91875000D03*
X168175000Y-94275000D03*
X163325000Y-94275000D03*
X165750000Y-96675000D03*
X165750000Y-84650000D03*
X168175000Y-82225000D03*
X165775000Y-79725000D03*
X163350000Y-82225000D03*
X155725000Y-93675000D03*
X158775000Y-93675000D03*
X155300000Y-85275000D03*
X144850000Y-85900000D03*
X148625000Y-74950000D03*
X157450000Y-133450000D03*
X159225000Y-135350000D03*
X164000000Y-130175000D03*
X165050000Y-129525000D03*
X97050000Y-123800000D03*
X103550000Y-123800000D03*
X131300000Y-114500000D03*
X121800000Y-116000000D03*
X135125000Y-79775000D03*
X107150000Y-79775000D03*
X97000000Y-79750000D03*
X151900000Y-83000000D03*
X139775000Y-136300000D03*
X125800000Y-124775000D03*
X119200000Y-136300000D03*
X134975000Y-110700000D03*
%TD*%
D26*
%TO.N,Net-(C1-Pad1)*%
X161050000Y-89500000D02*
X161050000Y-89700000D01*
X159575000Y-91175000D02*
X157225000Y-91175000D01*
X161050000Y-89700000D02*
X159575000Y-91175000D01*
X157225000Y-91175000D02*
X155925000Y-91175000D01*
X154800000Y-92300000D02*
X152800000Y-92300000D01*
X155925000Y-91175000D02*
X154800000Y-92300000D01*
%TO.N,Net-(C3-Pad1)*%
X125750000Y-118750000D02*
X125780000Y-118780000D01*
X125750000Y-116000000D02*
X125750000Y-118750000D01*
D27*
%TO.N,DTR*%
X93050000Y-125600000D02*
X93600000Y-126150000D01*
X93050000Y-121000000D02*
X93050000Y-125600000D01*
X93050000Y-121000000D02*
X97050000Y-121000000D01*
X97050000Y-121000000D02*
X103550000Y-121000000D01*
D28*
X108775000Y-100575000D02*
X103550000Y-105800000D01*
X115525000Y-100575000D02*
X108775000Y-100575000D01*
X116925000Y-99175000D02*
X115525000Y-100575000D01*
X124150000Y-85550000D02*
X116925000Y-92775000D01*
X116925000Y-92775000D02*
X116925000Y-99175000D01*
X142925000Y-85550000D02*
X124150000Y-85550000D01*
X144600000Y-87225000D02*
X142925000Y-85550000D01*
X144600000Y-89125000D02*
X144600000Y-87225000D01*
%TO.N,VDD*%
X148125000Y-87825000D02*
X148125000Y-93000000D01*
X148125000Y-93000000D02*
X150525000Y-95400000D01*
X150525000Y-95400000D02*
X152425000Y-95400000D01*
X152800000Y-95775000D02*
X152800000Y-96750000D01*
X152425000Y-95400000D02*
X152800000Y-95775000D01*
D27*
X152800000Y-96750000D02*
X152800000Y-97450000D01*
X150625000Y-99625000D02*
X142425000Y-99625000D01*
X152800000Y-97450000D02*
X150625000Y-99625000D01*
X142425000Y-99625000D02*
X138425000Y-99625000D01*
X138425000Y-99625000D02*
X134425000Y-99625000D01*
X152800000Y-96750000D02*
X158950000Y-96750000D01*
X158950000Y-96750000D02*
X160275000Y-98075000D01*
X160275000Y-98075000D02*
X167500000Y-98075000D01*
X167500000Y-98075000D02*
X168125000Y-98700000D01*
X168125000Y-98700000D02*
X168125000Y-114650000D01*
X167075000Y-115700000D02*
X165325000Y-115700000D01*
X168125000Y-114650000D02*
X167075000Y-115700000D01*
X134425000Y-99625000D02*
X131375000Y-99625000D01*
X131375000Y-99625000D02*
X125775000Y-105225000D01*
X125775000Y-105225000D02*
X125775000Y-107725000D01*
X125200000Y-108300000D02*
X122615000Y-108300000D01*
X125775000Y-107725000D02*
X125200000Y-108300000D01*
X122615000Y-108300000D02*
X122615000Y-111290000D01*
X122615000Y-111290000D02*
X124100000Y-112775000D01*
X124100000Y-112775000D02*
X127050000Y-112775000D01*
X128800000Y-114525000D02*
X128800000Y-116000000D01*
X127050000Y-112775000D02*
X128800000Y-114525000D01*
X148700000Y-138150000D02*
X147450000Y-136900000D01*
X154100000Y-138150000D02*
X148700000Y-138150000D01*
X154825000Y-137425000D02*
X154100000Y-138150000D01*
X154825000Y-130750000D02*
X154825000Y-137425000D01*
X159350000Y-126225000D02*
X154825000Y-130750000D01*
X165725000Y-126225000D02*
X159350000Y-126225000D01*
X147450000Y-136900000D02*
X147450000Y-135350000D01*
X166925000Y-125025000D02*
X165725000Y-126225000D01*
X166925000Y-121875000D02*
X166925000Y-125025000D01*
X165325000Y-120275000D02*
X166925000Y-121875000D01*
X165325000Y-115700000D02*
X165325000Y-120275000D01*
X128320000Y-116480000D02*
X128800000Y-116000000D01*
X128320000Y-118780000D02*
X128320000Y-116480000D01*
X123240000Y-123860000D02*
X128320000Y-118780000D01*
X123240000Y-126400000D02*
X123240000Y-123860000D01*
X106500000Y-128900000D02*
X111300000Y-133700000D01*
X104100000Y-128900000D02*
X106500000Y-128900000D01*
X111300000Y-133700000D02*
X113350000Y-133700000D01*
X113350000Y-133700000D02*
X118775000Y-128275000D01*
X121365000Y-128275000D02*
X123240000Y-126400000D01*
X118775000Y-128275000D02*
X121365000Y-128275000D01*
X122615000Y-108300000D02*
X119665000Y-111250000D01*
X119665000Y-111250000D02*
X106300000Y-111250000D01*
X99540000Y-104490000D02*
X99540000Y-82000000D01*
X106300000Y-111250000D02*
X99540000Y-104490000D01*
X99540000Y-82000000D02*
X99540000Y-80365000D01*
X99540000Y-80365000D02*
X97550000Y-78375000D01*
X97550000Y-78375000D02*
X97550000Y-73125000D01*
X98725000Y-71950000D02*
X99950000Y-71950000D01*
X97550000Y-73125000D02*
X98725000Y-71950000D01*
D28*
%TO.N,Net-(D1-Pad1)*%
X151025000Y-86650000D02*
X149270991Y-84895991D01*
X135200000Y-73400000D02*
X135200000Y-72550000D01*
X135200000Y-72550000D02*
X136400000Y-71350000D01*
X136400000Y-71350000D02*
X138875000Y-71350000D01*
X138875000Y-71350000D02*
X139975000Y-72450000D01*
X139975000Y-72450000D02*
X139975000Y-75075000D01*
X139975000Y-75075000D02*
X142950000Y-78050000D01*
X142950000Y-78050000D02*
X147875000Y-78050000D01*
X149270991Y-79445991D02*
X149270991Y-83304009D01*
X147875000Y-78050000D02*
X149270991Y-79445991D01*
X149270991Y-83304009D02*
X149270991Y-83104009D01*
X149270991Y-84895991D02*
X149270991Y-83304009D01*
%TO.N,Net-(D2-Pad1)*%
X153600000Y-71925000D02*
X152400000Y-70725000D01*
X144575000Y-70725000D02*
X141900000Y-73400000D01*
X152400000Y-70725000D02*
X144575000Y-70725000D01*
X153600000Y-75500000D02*
X153600000Y-73675000D01*
X149725001Y-79374999D02*
X153600000Y-75500000D01*
X149725001Y-84500001D02*
X149725001Y-79374999D01*
X151875000Y-85875000D02*
X151100000Y-85875000D01*
X151100000Y-85875000D02*
X149725001Y-84500001D01*
X153600000Y-73675000D02*
X153600000Y-71925000D01*
X153600000Y-74725000D02*
X153600000Y-73675000D01*
%TO.N,D12*%
X165325000Y-105700000D02*
X154175000Y-105700000D01*
X154175000Y-105700000D02*
X145800000Y-114075000D01*
X138105000Y-114075000D02*
X133400000Y-118780000D01*
X145800000Y-114075000D02*
X138105000Y-114075000D01*
%TO.N,D11*%
X165325000Y-110700000D02*
X163275000Y-110700000D01*
X163275000Y-110700000D02*
X153500000Y-120475000D01*
X137635000Y-120475000D02*
X135940000Y-118780000D01*
X153500000Y-120475000D02*
X137635000Y-120475000D01*
D27*
%TO.N,V0*%
X102080000Y-79080000D02*
X102080000Y-82000000D01*
X99950000Y-76950000D02*
X102080000Y-79080000D01*
D28*
%TO.N,BLA*%
X141075000Y-118725000D02*
X141020000Y-118780000D01*
X141075000Y-115650000D02*
X141075000Y-118725000D01*
D27*
%TO.N,D2*%
X152350000Y-135250000D02*
X152450000Y-135350000D01*
D28*
X115620000Y-126400000D02*
X115620000Y-124155000D01*
X116600000Y-123175000D02*
X122050000Y-123175000D01*
X115620000Y-124155000D02*
X116600000Y-123175000D01*
X149000000Y-124725000D02*
X152350000Y-128075000D01*
X134100000Y-124725000D02*
X149000000Y-124725000D01*
X133275000Y-123900000D02*
X134100000Y-124725000D01*
%TO.N,Net-(R1-Pad2)*%
X140375000Y-94400000D02*
X123275000Y-94400000D01*
X144600000Y-90175000D02*
X140375000Y-94400000D01*
%TO.N,Net-(R2-Pad2)*%
X123325000Y-90450000D02*
X123225000Y-90350000D01*
X131225000Y-90450000D02*
X123325000Y-90450000D01*
%TO.N,D13*%
X136155000Y-124075000D02*
X152350000Y-124075000D01*
X130860000Y-118780000D02*
X136155000Y-124075000D01*
D27*
%TO.N,ICSP_RST*%
X96230000Y-128650000D02*
X96480000Y-128900000D01*
X93600000Y-128650000D02*
X96230000Y-128650000D01*
X96480000Y-128900000D02*
X98250000Y-130670000D01*
X98250000Y-133350000D02*
X98600000Y-133700000D01*
X98250000Y-130670000D02*
X98250000Y-133350000D01*
X96480000Y-128900000D02*
X98155000Y-127225000D01*
X107175000Y-127225000D02*
X108000000Y-126400000D01*
X98155000Y-127225000D02*
X107175000Y-127225000D01*
D28*
X108000000Y-126400000D02*
X108000000Y-123100000D01*
X105850000Y-120950000D02*
X105850000Y-112725000D01*
X108000000Y-123100000D02*
X105850000Y-120950000D01*
X120055000Y-103200000D02*
X120075000Y-103220000D01*
X108675000Y-103200000D02*
X120055000Y-103200000D01*
D26*
%TO.N,/X1*%
X124970000Y-129750000D02*
X128320000Y-126400000D01*
X123100000Y-129750000D02*
X124970000Y-129750000D01*
X121800000Y-131050000D02*
X123100000Y-129750000D01*
X121800000Y-133800000D02*
X121800000Y-131050000D01*
X126050000Y-133800000D02*
X127020000Y-134770000D01*
X121800000Y-133800000D02*
X126050000Y-133800000D01*
%TO.N,/X2*%
X134210000Y-129750000D02*
X135800000Y-129750000D01*
X130860000Y-126400000D02*
X134210000Y-129750000D01*
X137150000Y-133800000D02*
X137150000Y-131000000D01*
X135900000Y-129750000D02*
X135800000Y-129750000D01*
X137150000Y-131000000D02*
X135900000Y-129750000D01*
X132870000Y-133800000D02*
X131900000Y-134770000D01*
X137150000Y-133800000D02*
X132870000Y-133800000D01*
%TO.N,GND*%
X155725000Y-87800000D02*
X155400000Y-88125000D01*
X157225000Y-87800000D02*
X155725000Y-87800000D01*
X164525000Y-89500000D02*
X164550000Y-89525000D01*
X163050000Y-89500000D02*
X164525000Y-89500000D01*
X163050000Y-91025000D02*
X163025000Y-91050000D01*
X163050000Y-89500000D02*
X163050000Y-91025000D01*
X165750000Y-94260000D02*
X165760000Y-94270000D01*
X165750000Y-91875000D02*
X165750000Y-94260000D01*
X165755000Y-94275000D02*
X165760000Y-94270000D01*
X163325000Y-94275000D02*
X165755000Y-94275000D01*
X168170000Y-94270000D02*
X168175000Y-94275000D01*
X165760000Y-94270000D02*
X168170000Y-94270000D01*
X165760000Y-96665000D02*
X165750000Y-96675000D01*
X165760000Y-94270000D02*
X165760000Y-96665000D01*
X165760000Y-79740000D02*
X165775000Y-79725000D01*
X165760000Y-82230000D02*
X165760000Y-79740000D01*
X163355000Y-82230000D02*
X163350000Y-82225000D01*
X165760000Y-82230000D02*
X163355000Y-82230000D01*
X168170000Y-82230000D02*
X168175000Y-82225000D01*
X165760000Y-82230000D02*
X168170000Y-82230000D01*
X165760000Y-84640000D02*
X165750000Y-84650000D01*
X165760000Y-82230000D02*
X165760000Y-84640000D01*
X157225000Y-93675000D02*
X158775000Y-93675000D01*
X157225000Y-93675000D02*
X155725000Y-93675000D01*
X148600000Y-74925000D02*
X148625000Y-74950000D01*
X148600000Y-73400000D02*
X148600000Y-74925000D01*
X157450000Y-135350000D02*
X157450000Y-133450000D01*
X157450000Y-135350000D02*
X159225000Y-135350000D01*
X164000000Y-130175000D02*
X164000000Y-134000000D01*
X165050000Y-128075000D02*
X165050000Y-129525000D01*
X97050000Y-125500000D02*
X97050000Y-123800000D01*
X103550000Y-125500000D02*
X103550000Y-123800000D01*
X123250000Y-116000000D02*
X121800000Y-116000000D01*
X131300000Y-116000000D02*
X131300000Y-114500000D01*
X97000000Y-79750000D02*
X97000000Y-82000000D01*
X107150000Y-81990000D02*
X107160000Y-82000000D01*
X107150000Y-79775000D02*
X107150000Y-81990000D01*
X135125000Y-81975000D02*
X135100000Y-82000000D01*
X135125000Y-79775000D02*
X135125000Y-81975000D01*
X164400000Y-130175000D02*
X165050000Y-129525000D01*
X164000000Y-130175000D02*
X164400000Y-130175000D01*
X131300000Y-114375000D02*
X134975000Y-110700000D01*
X131300000Y-114500000D02*
X131300000Y-114375000D01*
D27*
%TO.N,Net-(J2-Pad1)*%
X159700000Y-124075000D02*
X165050000Y-124075000D01*
X157600000Y-126175000D02*
X159700000Y-124075000D01*
X157275000Y-126175000D02*
X157600000Y-126175000D01*
X144900000Y-132100000D02*
X151350000Y-132100000D01*
X142450000Y-134550000D02*
X144900000Y-132100000D01*
X151350000Y-132100000D02*
X157275000Y-126175000D01*
X142450000Y-135350000D02*
X142450000Y-134550000D01*
%TD*%
D28*
%TO.N,GND*%
X168798000Y-97017047D02*
X160087777Y-97066119D01*
X159381017Y-96359360D01*
X159362817Y-96337183D01*
X159274348Y-96264579D01*
X159173415Y-96210629D01*
X159063896Y-96177407D01*
X158978540Y-96169000D01*
X158950000Y-96166189D01*
X158921460Y-96169000D01*
X154796800Y-96169000D01*
X154784540Y-96128586D01*
X154731074Y-96028557D01*
X154659120Y-95940880D01*
X154657572Y-95939609D01*
X164269997Y-95939609D01*
X164456073Y-96280766D01*
X164873409Y-96496513D01*
X165324815Y-96626696D01*
X165792946Y-96666313D01*
X166259811Y-96613842D01*
X166707468Y-96471297D01*
X167063927Y-96280766D01*
X167250003Y-95939609D01*
X165760000Y-94449605D01*
X164269997Y-95939609D01*
X154657572Y-95939609D01*
X154571443Y-95868926D01*
X154471414Y-95815460D01*
X154362877Y-95782535D01*
X154250001Y-95771418D01*
X153255842Y-95771418D01*
X153254000Y-95752711D01*
X153254000Y-95752705D01*
X153247430Y-95686001D01*
X153221470Y-95600421D01*
X153179313Y-95521551D01*
X153122579Y-95452421D01*
X153105264Y-95438211D01*
X152761794Y-95094742D01*
X152747579Y-95077421D01*
X152678449Y-95020687D01*
X152599579Y-94978530D01*
X152513999Y-94952570D01*
X152447295Y-94946000D01*
X152447288Y-94946000D01*
X152425000Y-94943805D01*
X152402712Y-94946000D01*
X151302000Y-94946000D01*
X151302000Y-94667702D01*
X156411903Y-94667702D01*
X156483486Y-94911671D01*
X156738996Y-95032571D01*
X157013184Y-95101300D01*
X157295512Y-95115217D01*
X157575130Y-95073787D01*
X157841292Y-94978603D01*
X157966514Y-94911671D01*
X158038097Y-94667702D01*
X157225000Y-93854605D01*
X156411903Y-94667702D01*
X151302000Y-94667702D01*
X151302000Y-93745512D01*
X155784783Y-93745512D01*
X155826213Y-94025130D01*
X155921397Y-94291292D01*
X155988329Y-94416514D01*
X156232298Y-94488097D01*
X157045395Y-93675000D01*
X157404605Y-93675000D01*
X158217702Y-94488097D01*
X158461671Y-94416514D01*
X158515408Y-94302946D01*
X163363687Y-94302946D01*
X163416158Y-94769811D01*
X163558703Y-95217468D01*
X163749234Y-95573927D01*
X164090391Y-95760003D01*
X165580395Y-94270000D01*
X165939605Y-94270000D01*
X167429609Y-95760003D01*
X167770766Y-95573927D01*
X167986513Y-95156591D01*
X168116696Y-94705185D01*
X168156313Y-94237054D01*
X168103842Y-93770189D01*
X167961297Y-93322532D01*
X167770766Y-92966073D01*
X167429609Y-92779997D01*
X165939605Y-94270000D01*
X165580395Y-94270000D01*
X164090391Y-92779997D01*
X163749234Y-92966073D01*
X163533487Y-93383409D01*
X163403304Y-93834815D01*
X163363687Y-94302946D01*
X158515408Y-94302946D01*
X158582571Y-94161004D01*
X158651300Y-93886816D01*
X158665217Y-93604488D01*
X158623787Y-93324870D01*
X158528603Y-93058708D01*
X158461671Y-92933486D01*
X158217702Y-92861903D01*
X157404605Y-93675000D01*
X157045395Y-93675000D01*
X156232298Y-92861903D01*
X155988329Y-92933486D01*
X155867429Y-93188996D01*
X155798700Y-93463184D01*
X155784783Y-93745512D01*
X151302000Y-93745512D01*
X151302000Y-93273855D01*
X151349999Y-93278582D01*
X154250001Y-93278582D01*
X154362877Y-93267465D01*
X154471414Y-93234540D01*
X154571443Y-93181074D01*
X154659120Y-93109120D01*
X154731074Y-93021443D01*
X154738259Y-93008000D01*
X154765234Y-93008000D01*
X154800000Y-93011424D01*
X154834766Y-93008000D01*
X154834774Y-93008000D01*
X154938792Y-92997755D01*
X155072251Y-92957271D01*
X155195247Y-92891528D01*
X155303053Y-92803053D01*
X155325223Y-92776039D01*
X156218263Y-91883000D01*
X156342639Y-91883000D01*
X156349602Y-91893421D01*
X156506579Y-92050398D01*
X156691165Y-92173734D01*
X156896266Y-92258690D01*
X156937619Y-92266916D01*
X156874870Y-92276213D01*
X156608708Y-92371397D01*
X156483486Y-92438329D01*
X156411903Y-92682298D01*
X157225000Y-93495395D01*
X158038097Y-92682298D01*
X158014065Y-92600391D01*
X164269997Y-92600391D01*
X165760000Y-94090395D01*
X167250003Y-92600391D01*
X167063927Y-92259234D01*
X166646591Y-92043487D01*
X166195185Y-91913304D01*
X165727054Y-91873687D01*
X165260189Y-91926158D01*
X164812532Y-92068703D01*
X164456073Y-92259234D01*
X164269997Y-92600391D01*
X158014065Y-92600391D01*
X157966514Y-92438329D01*
X157711004Y-92317429D01*
X157510767Y-92267237D01*
X157553734Y-92258690D01*
X157758835Y-92173734D01*
X157943421Y-92050398D01*
X158100398Y-91893421D01*
X158107361Y-91883000D01*
X159540234Y-91883000D01*
X159575000Y-91886424D01*
X159609766Y-91883000D01*
X159609774Y-91883000D01*
X159713792Y-91872755D01*
X159847251Y-91832271D01*
X159970247Y-91766528D01*
X160078053Y-91678053D01*
X160100223Y-91651039D01*
X161072681Y-90678582D01*
X161900000Y-90678582D01*
X161964103Y-90672268D01*
X162025743Y-90653570D01*
X162070335Y-90629735D01*
X162085104Y-90644504D01*
X162201209Y-90528399D01*
X162278843Y-90777472D01*
X162542883Y-90903371D01*
X162826411Y-90975339D01*
X163118531Y-90990611D01*
X163408019Y-90948599D01*
X163683747Y-90850919D01*
X163821157Y-90777472D01*
X163898792Y-90528397D01*
X163050000Y-89679605D01*
X163035858Y-89693748D01*
X162856253Y-89514143D01*
X162870395Y-89500000D01*
X163229605Y-89500000D01*
X164078397Y-90348792D01*
X164327472Y-90271157D01*
X164453371Y-90007117D01*
X164525339Y-89723589D01*
X164540611Y-89431469D01*
X164498599Y-89141981D01*
X164400919Y-88866253D01*
X164327472Y-88728843D01*
X164078397Y-88651208D01*
X163229605Y-89500000D01*
X162870395Y-89500000D01*
X162856253Y-89485858D01*
X163035858Y-89306253D01*
X163050000Y-89320395D01*
X163898792Y-88471603D01*
X163821157Y-88222528D01*
X163557117Y-88096629D01*
X163508156Y-88084201D01*
X163607519Y-88043044D01*
X163800294Y-87914236D01*
X163964236Y-87750294D01*
X164093044Y-87557519D01*
X164181769Y-87343318D01*
X164227000Y-87115924D01*
X164227000Y-86884076D01*
X164181769Y-86656682D01*
X164093044Y-86442481D01*
X163964236Y-86249706D01*
X163800294Y-86085764D01*
X163607519Y-85956956D01*
X163393318Y-85868231D01*
X163165924Y-85823000D01*
X162934076Y-85823000D01*
X162706682Y-85868231D01*
X162492481Y-85956956D01*
X162299706Y-86085764D01*
X162135764Y-86249706D01*
X162050000Y-86378061D01*
X161964236Y-86249706D01*
X161800294Y-86085764D01*
X161607519Y-85956956D01*
X161393318Y-85868231D01*
X161165924Y-85823000D01*
X160934076Y-85823000D01*
X160706682Y-85868231D01*
X160492481Y-85956956D01*
X160299706Y-86085764D01*
X160135764Y-86249706D01*
X160006956Y-86442481D01*
X159918231Y-86656682D01*
X159873000Y-86884076D01*
X159873000Y-87115924D01*
X159918231Y-87343318D01*
X160006956Y-87557519D01*
X160135764Y-87750294D01*
X160299706Y-87914236D01*
X160492481Y-88043044D01*
X160706682Y-88131769D01*
X160934076Y-88177000D01*
X161165924Y-88177000D01*
X161393318Y-88131769D01*
X161607519Y-88043044D01*
X161800294Y-87914236D01*
X161964236Y-87750294D01*
X162050000Y-87621939D01*
X162135764Y-87750294D01*
X162299706Y-87914236D01*
X162492481Y-88043044D01*
X162595324Y-88085643D01*
X162416253Y-88149081D01*
X162278843Y-88222528D01*
X162201209Y-88471601D01*
X162085104Y-88355496D01*
X162070335Y-88370265D01*
X162025743Y-88346430D01*
X161964103Y-88327732D01*
X161900000Y-88321418D01*
X160200000Y-88321418D01*
X160135897Y-88327732D01*
X160074257Y-88346430D01*
X160017450Y-88376794D01*
X159967657Y-88417657D01*
X159926794Y-88467450D01*
X159896430Y-88524257D01*
X159877732Y-88585897D01*
X159871418Y-88650000D01*
X159871418Y-89877319D01*
X159281738Y-90467000D01*
X158107361Y-90467000D01*
X158100398Y-90456579D01*
X157943421Y-90299602D01*
X157758835Y-90176266D01*
X157553734Y-90091310D01*
X157336000Y-90048000D01*
X157114000Y-90048000D01*
X156896266Y-90091310D01*
X156691165Y-90176266D01*
X156506579Y-90299602D01*
X156349602Y-90456579D01*
X156342639Y-90467000D01*
X155959766Y-90467000D01*
X155924999Y-90463576D01*
X155890233Y-90467000D01*
X155890226Y-90467000D01*
X155786208Y-90477245D01*
X155652749Y-90517729D01*
X155529753Y-90583472D01*
X155464584Y-90636955D01*
X155459455Y-90641165D01*
X155421947Y-90671947D01*
X155399781Y-90698956D01*
X154630964Y-91467773D01*
X154571443Y-91418926D01*
X154471414Y-91365460D01*
X154362877Y-91332535D01*
X154250001Y-91321418D01*
X151349999Y-91321418D01*
X151302000Y-91326145D01*
X151302000Y-88792702D01*
X156411903Y-88792702D01*
X156483486Y-89036671D01*
X156738996Y-89157571D01*
X157013184Y-89226300D01*
X157295512Y-89240217D01*
X157575130Y-89198787D01*
X157841292Y-89103603D01*
X157966514Y-89036671D01*
X158038097Y-88792702D01*
X157225000Y-87979605D01*
X156411903Y-88792702D01*
X151302000Y-88792702D01*
X151302000Y-87870512D01*
X155784783Y-87870512D01*
X155826213Y-88150130D01*
X155921397Y-88416292D01*
X155988329Y-88541514D01*
X156232298Y-88613097D01*
X157045395Y-87800000D01*
X157404605Y-87800000D01*
X158217702Y-88613097D01*
X158461671Y-88541514D01*
X158582571Y-88286004D01*
X158651300Y-88011816D01*
X158665217Y-87729488D01*
X158623787Y-87449870D01*
X158528603Y-87183708D01*
X158461671Y-87058486D01*
X158217702Y-86986903D01*
X157404605Y-87800000D01*
X157045395Y-87800000D01*
X156232298Y-86986903D01*
X155988329Y-87058486D01*
X155867429Y-87313996D01*
X155798700Y-87588184D01*
X155784783Y-87870512D01*
X151302000Y-87870512D01*
X151302000Y-87322162D01*
X151369364Y-87294259D01*
X151488436Y-87214698D01*
X151589698Y-87113436D01*
X151669259Y-86994364D01*
X151724062Y-86862058D01*
X151752000Y-86721603D01*
X151752000Y-86591777D01*
X151803397Y-86602000D01*
X151946603Y-86602000D01*
X152087058Y-86574062D01*
X152219364Y-86519259D01*
X152338436Y-86439698D01*
X152439698Y-86338436D01*
X152519259Y-86219364D01*
X152574062Y-86087058D01*
X152602000Y-85946603D01*
X152602000Y-85803397D01*
X152574062Y-85662942D01*
X152519259Y-85530636D01*
X152439698Y-85411564D01*
X152338436Y-85310302D01*
X152219364Y-85230741D01*
X152118593Y-85189000D01*
X156098000Y-85189000D01*
X156098000Y-85411000D01*
X156141310Y-85628734D01*
X156226266Y-85833835D01*
X156349602Y-86018421D01*
X156506579Y-86175398D01*
X156691165Y-86298734D01*
X156896266Y-86383690D01*
X156937619Y-86391916D01*
X156874870Y-86401213D01*
X156608708Y-86496397D01*
X156483486Y-86563329D01*
X156411903Y-86807298D01*
X157225000Y-87620395D01*
X158038097Y-86807298D01*
X157966514Y-86563329D01*
X157711004Y-86442429D01*
X157510767Y-86392237D01*
X157553734Y-86383690D01*
X157758835Y-86298734D01*
X157943421Y-86175398D01*
X158100398Y-86018421D01*
X158223734Y-85833835D01*
X158308690Y-85628734D01*
X158352000Y-85411000D01*
X158352000Y-85189000D01*
X158308690Y-84971266D01*
X158223734Y-84766165D01*
X158100398Y-84581579D01*
X157943421Y-84424602D01*
X157758835Y-84301266D01*
X157553734Y-84216310D01*
X157336000Y-84173000D01*
X157114000Y-84173000D01*
X156896266Y-84216310D01*
X156691165Y-84301266D01*
X156506579Y-84424602D01*
X156349602Y-84581579D01*
X156226266Y-84766165D01*
X156141310Y-84971266D01*
X156098000Y-85189000D01*
X152118593Y-85189000D01*
X152087058Y-85175938D01*
X151946603Y-85148000D01*
X151803397Y-85148000D01*
X151662942Y-85175938D01*
X151530636Y-85230741D01*
X151411564Y-85310302D01*
X151310302Y-85411564D01*
X151303997Y-85421000D01*
X151302000Y-85421000D01*
X151302000Y-83899609D01*
X164269997Y-83899609D01*
X164456073Y-84240766D01*
X164873409Y-84456513D01*
X165324815Y-84586696D01*
X165792946Y-84626313D01*
X166259811Y-84573842D01*
X166707468Y-84431297D01*
X167063927Y-84240766D01*
X167250003Y-83899609D01*
X165760000Y-82409605D01*
X164269997Y-83899609D01*
X151302000Y-83899609D01*
X151302000Y-82262946D01*
X163363687Y-82262946D01*
X163416158Y-82729811D01*
X163558703Y-83177468D01*
X163749234Y-83533927D01*
X164090391Y-83720003D01*
X165580395Y-82230000D01*
X165939605Y-82230000D01*
X167429609Y-83720003D01*
X167770766Y-83533927D01*
X167986513Y-83116591D01*
X168116696Y-82665185D01*
X168156313Y-82197054D01*
X168103842Y-81730189D01*
X167961297Y-81282532D01*
X167770766Y-80926073D01*
X167429609Y-80739997D01*
X165939605Y-82230000D01*
X165580395Y-82230000D01*
X164090391Y-80739997D01*
X163749234Y-80926073D01*
X163533487Y-81343409D01*
X163403304Y-81794815D01*
X163363687Y-82262946D01*
X151302000Y-82262946D01*
X151302000Y-80560391D01*
X164269997Y-80560391D01*
X165760000Y-82050395D01*
X167250003Y-80560391D01*
X167063927Y-80219234D01*
X166646591Y-80003487D01*
X166195185Y-79873304D01*
X165727054Y-79833687D01*
X165260189Y-79886158D01*
X164812532Y-80028703D01*
X164456073Y-80219234D01*
X164269997Y-80560391D01*
X151302000Y-80560391D01*
X151302000Y-79020334D01*
X168798000Y-79020334D01*
X168798000Y-97017047D01*
%TA.AperFunction,Conductor*%
D29*
G36*
X168798000Y-97017047D02*
G01*
X160087777Y-97066119D01*
X159381017Y-96359360D01*
X159362817Y-96337183D01*
X159274348Y-96264579D01*
X159173415Y-96210629D01*
X159063896Y-96177407D01*
X158978540Y-96169000D01*
X158950000Y-96166189D01*
X158921460Y-96169000D01*
X154796800Y-96169000D01*
X154784540Y-96128586D01*
X154731074Y-96028557D01*
X154659120Y-95940880D01*
X154657572Y-95939609D01*
X164269997Y-95939609D01*
X164456073Y-96280766D01*
X164873409Y-96496513D01*
X165324815Y-96626696D01*
X165792946Y-96666313D01*
X166259811Y-96613842D01*
X166707468Y-96471297D01*
X167063927Y-96280766D01*
X167250003Y-95939609D01*
X165760000Y-94449605D01*
X164269997Y-95939609D01*
X154657572Y-95939609D01*
X154571443Y-95868926D01*
X154471414Y-95815460D01*
X154362877Y-95782535D01*
X154250001Y-95771418D01*
X153255842Y-95771418D01*
X153254000Y-95752711D01*
X153254000Y-95752705D01*
X153247430Y-95686001D01*
X153221470Y-95600421D01*
X153179313Y-95521551D01*
X153122579Y-95452421D01*
X153105264Y-95438211D01*
X152761794Y-95094742D01*
X152747579Y-95077421D01*
X152678449Y-95020687D01*
X152599579Y-94978530D01*
X152513999Y-94952570D01*
X152447295Y-94946000D01*
X152447288Y-94946000D01*
X152425000Y-94943805D01*
X152402712Y-94946000D01*
X151302000Y-94946000D01*
X151302000Y-94667702D01*
X156411903Y-94667702D01*
X156483486Y-94911671D01*
X156738996Y-95032571D01*
X157013184Y-95101300D01*
X157295512Y-95115217D01*
X157575130Y-95073787D01*
X157841292Y-94978603D01*
X157966514Y-94911671D01*
X158038097Y-94667702D01*
X157225000Y-93854605D01*
X156411903Y-94667702D01*
X151302000Y-94667702D01*
X151302000Y-93745512D01*
X155784783Y-93745512D01*
X155826213Y-94025130D01*
X155921397Y-94291292D01*
X155988329Y-94416514D01*
X156232298Y-94488097D01*
X157045395Y-93675000D01*
X157404605Y-93675000D01*
X158217702Y-94488097D01*
X158461671Y-94416514D01*
X158515408Y-94302946D01*
X163363687Y-94302946D01*
X163416158Y-94769811D01*
X163558703Y-95217468D01*
X163749234Y-95573927D01*
X164090391Y-95760003D01*
X165580395Y-94270000D01*
X165939605Y-94270000D01*
X167429609Y-95760003D01*
X167770766Y-95573927D01*
X167986513Y-95156591D01*
X168116696Y-94705185D01*
X168156313Y-94237054D01*
X168103842Y-93770189D01*
X167961297Y-93322532D01*
X167770766Y-92966073D01*
X167429609Y-92779997D01*
X165939605Y-94270000D01*
X165580395Y-94270000D01*
X164090391Y-92779997D01*
X163749234Y-92966073D01*
X163533487Y-93383409D01*
X163403304Y-93834815D01*
X163363687Y-94302946D01*
X158515408Y-94302946D01*
X158582571Y-94161004D01*
X158651300Y-93886816D01*
X158665217Y-93604488D01*
X158623787Y-93324870D01*
X158528603Y-93058708D01*
X158461671Y-92933486D01*
X158217702Y-92861903D01*
X157404605Y-93675000D01*
X157045395Y-93675000D01*
X156232298Y-92861903D01*
X155988329Y-92933486D01*
X155867429Y-93188996D01*
X155798700Y-93463184D01*
X155784783Y-93745512D01*
X151302000Y-93745512D01*
X151302000Y-93273855D01*
X151349999Y-93278582D01*
X154250001Y-93278582D01*
X154362877Y-93267465D01*
X154471414Y-93234540D01*
X154571443Y-93181074D01*
X154659120Y-93109120D01*
X154731074Y-93021443D01*
X154738259Y-93008000D01*
X154765234Y-93008000D01*
X154800000Y-93011424D01*
X154834766Y-93008000D01*
X154834774Y-93008000D01*
X154938792Y-92997755D01*
X155072251Y-92957271D01*
X155195247Y-92891528D01*
X155303053Y-92803053D01*
X155325223Y-92776039D01*
X156218263Y-91883000D01*
X156342639Y-91883000D01*
X156349602Y-91893421D01*
X156506579Y-92050398D01*
X156691165Y-92173734D01*
X156896266Y-92258690D01*
X156937619Y-92266916D01*
X156874870Y-92276213D01*
X156608708Y-92371397D01*
X156483486Y-92438329D01*
X156411903Y-92682298D01*
X157225000Y-93495395D01*
X158038097Y-92682298D01*
X158014065Y-92600391D01*
X164269997Y-92600391D01*
X165760000Y-94090395D01*
X167250003Y-92600391D01*
X167063927Y-92259234D01*
X166646591Y-92043487D01*
X166195185Y-91913304D01*
X165727054Y-91873687D01*
X165260189Y-91926158D01*
X164812532Y-92068703D01*
X164456073Y-92259234D01*
X164269997Y-92600391D01*
X158014065Y-92600391D01*
X157966514Y-92438329D01*
X157711004Y-92317429D01*
X157510767Y-92267237D01*
X157553734Y-92258690D01*
X157758835Y-92173734D01*
X157943421Y-92050398D01*
X158100398Y-91893421D01*
X158107361Y-91883000D01*
X159540234Y-91883000D01*
X159575000Y-91886424D01*
X159609766Y-91883000D01*
X159609774Y-91883000D01*
X159713792Y-91872755D01*
X159847251Y-91832271D01*
X159970247Y-91766528D01*
X160078053Y-91678053D01*
X160100223Y-91651039D01*
X161072681Y-90678582D01*
X161900000Y-90678582D01*
X161964103Y-90672268D01*
X162025743Y-90653570D01*
X162070335Y-90629735D01*
X162085104Y-90644504D01*
X162201209Y-90528399D01*
X162278843Y-90777472D01*
X162542883Y-90903371D01*
X162826411Y-90975339D01*
X163118531Y-90990611D01*
X163408019Y-90948599D01*
X163683747Y-90850919D01*
X163821157Y-90777472D01*
X163898792Y-90528397D01*
X163050000Y-89679605D01*
X163035858Y-89693748D01*
X162856253Y-89514143D01*
X162870395Y-89500000D01*
X163229605Y-89500000D01*
X164078397Y-90348792D01*
X164327472Y-90271157D01*
X164453371Y-90007117D01*
X164525339Y-89723589D01*
X164540611Y-89431469D01*
X164498599Y-89141981D01*
X164400919Y-88866253D01*
X164327472Y-88728843D01*
X164078397Y-88651208D01*
X163229605Y-89500000D01*
X162870395Y-89500000D01*
X162856253Y-89485858D01*
X163035858Y-89306253D01*
X163050000Y-89320395D01*
X163898792Y-88471603D01*
X163821157Y-88222528D01*
X163557117Y-88096629D01*
X163508156Y-88084201D01*
X163607519Y-88043044D01*
X163800294Y-87914236D01*
X163964236Y-87750294D01*
X164093044Y-87557519D01*
X164181769Y-87343318D01*
X164227000Y-87115924D01*
X164227000Y-86884076D01*
X164181769Y-86656682D01*
X164093044Y-86442481D01*
X163964236Y-86249706D01*
X163800294Y-86085764D01*
X163607519Y-85956956D01*
X163393318Y-85868231D01*
X163165924Y-85823000D01*
X162934076Y-85823000D01*
X162706682Y-85868231D01*
X162492481Y-85956956D01*
X162299706Y-86085764D01*
X162135764Y-86249706D01*
X162050000Y-86378061D01*
X161964236Y-86249706D01*
X161800294Y-86085764D01*
X161607519Y-85956956D01*
X161393318Y-85868231D01*
X161165924Y-85823000D01*
X160934076Y-85823000D01*
X160706682Y-85868231D01*
X160492481Y-85956956D01*
X160299706Y-86085764D01*
X160135764Y-86249706D01*
X160006956Y-86442481D01*
X159918231Y-86656682D01*
X159873000Y-86884076D01*
X159873000Y-87115924D01*
X159918231Y-87343318D01*
X160006956Y-87557519D01*
X160135764Y-87750294D01*
X160299706Y-87914236D01*
X160492481Y-88043044D01*
X160706682Y-88131769D01*
X160934076Y-88177000D01*
X161165924Y-88177000D01*
X161393318Y-88131769D01*
X161607519Y-88043044D01*
X161800294Y-87914236D01*
X161964236Y-87750294D01*
X162050000Y-87621939D01*
X162135764Y-87750294D01*
X162299706Y-87914236D01*
X162492481Y-88043044D01*
X162595324Y-88085643D01*
X162416253Y-88149081D01*
X162278843Y-88222528D01*
X162201209Y-88471601D01*
X162085104Y-88355496D01*
X162070335Y-88370265D01*
X162025743Y-88346430D01*
X161964103Y-88327732D01*
X161900000Y-88321418D01*
X160200000Y-88321418D01*
X160135897Y-88327732D01*
X160074257Y-88346430D01*
X160017450Y-88376794D01*
X159967657Y-88417657D01*
X159926794Y-88467450D01*
X159896430Y-88524257D01*
X159877732Y-88585897D01*
X159871418Y-88650000D01*
X159871418Y-89877319D01*
X159281738Y-90467000D01*
X158107361Y-90467000D01*
X158100398Y-90456579D01*
X157943421Y-90299602D01*
X157758835Y-90176266D01*
X157553734Y-90091310D01*
X157336000Y-90048000D01*
X157114000Y-90048000D01*
X156896266Y-90091310D01*
X156691165Y-90176266D01*
X156506579Y-90299602D01*
X156349602Y-90456579D01*
X156342639Y-90467000D01*
X155959766Y-90467000D01*
X155924999Y-90463576D01*
X155890233Y-90467000D01*
X155890226Y-90467000D01*
X155786208Y-90477245D01*
X155652749Y-90517729D01*
X155529753Y-90583472D01*
X155464584Y-90636955D01*
X155459455Y-90641165D01*
X155421947Y-90671947D01*
X155399781Y-90698956D01*
X154630964Y-91467773D01*
X154571443Y-91418926D01*
X154471414Y-91365460D01*
X154362877Y-91332535D01*
X154250001Y-91321418D01*
X151349999Y-91321418D01*
X151302000Y-91326145D01*
X151302000Y-88792702D01*
X156411903Y-88792702D01*
X156483486Y-89036671D01*
X156738996Y-89157571D01*
X157013184Y-89226300D01*
X157295512Y-89240217D01*
X157575130Y-89198787D01*
X157841292Y-89103603D01*
X157966514Y-89036671D01*
X158038097Y-88792702D01*
X157225000Y-87979605D01*
X156411903Y-88792702D01*
X151302000Y-88792702D01*
X151302000Y-87870512D01*
X155784783Y-87870512D01*
X155826213Y-88150130D01*
X155921397Y-88416292D01*
X155988329Y-88541514D01*
X156232298Y-88613097D01*
X157045395Y-87800000D01*
X157404605Y-87800000D01*
X158217702Y-88613097D01*
X158461671Y-88541514D01*
X158582571Y-88286004D01*
X158651300Y-88011816D01*
X158665217Y-87729488D01*
X158623787Y-87449870D01*
X158528603Y-87183708D01*
X158461671Y-87058486D01*
X158217702Y-86986903D01*
X157404605Y-87800000D01*
X157045395Y-87800000D01*
X156232298Y-86986903D01*
X155988329Y-87058486D01*
X155867429Y-87313996D01*
X155798700Y-87588184D01*
X155784783Y-87870512D01*
X151302000Y-87870512D01*
X151302000Y-87322162D01*
X151369364Y-87294259D01*
X151488436Y-87214698D01*
X151589698Y-87113436D01*
X151669259Y-86994364D01*
X151724062Y-86862058D01*
X151752000Y-86721603D01*
X151752000Y-86591777D01*
X151803397Y-86602000D01*
X151946603Y-86602000D01*
X152087058Y-86574062D01*
X152219364Y-86519259D01*
X152338436Y-86439698D01*
X152439698Y-86338436D01*
X152519259Y-86219364D01*
X152574062Y-86087058D01*
X152602000Y-85946603D01*
X152602000Y-85803397D01*
X152574062Y-85662942D01*
X152519259Y-85530636D01*
X152439698Y-85411564D01*
X152338436Y-85310302D01*
X152219364Y-85230741D01*
X152118593Y-85189000D01*
X156098000Y-85189000D01*
X156098000Y-85411000D01*
X156141310Y-85628734D01*
X156226266Y-85833835D01*
X156349602Y-86018421D01*
X156506579Y-86175398D01*
X156691165Y-86298734D01*
X156896266Y-86383690D01*
X156937619Y-86391916D01*
X156874870Y-86401213D01*
X156608708Y-86496397D01*
X156483486Y-86563329D01*
X156411903Y-86807298D01*
X157225000Y-87620395D01*
X158038097Y-86807298D01*
X157966514Y-86563329D01*
X157711004Y-86442429D01*
X157510767Y-86392237D01*
X157553734Y-86383690D01*
X157758835Y-86298734D01*
X157943421Y-86175398D01*
X158100398Y-86018421D01*
X158223734Y-85833835D01*
X158308690Y-85628734D01*
X158352000Y-85411000D01*
X158352000Y-85189000D01*
X158308690Y-84971266D01*
X158223734Y-84766165D01*
X158100398Y-84581579D01*
X157943421Y-84424602D01*
X157758835Y-84301266D01*
X157553734Y-84216310D01*
X157336000Y-84173000D01*
X157114000Y-84173000D01*
X156896266Y-84216310D01*
X156691165Y-84301266D01*
X156506579Y-84424602D01*
X156349602Y-84581579D01*
X156226266Y-84766165D01*
X156141310Y-84971266D01*
X156098000Y-85189000D01*
X152118593Y-85189000D01*
X152087058Y-85175938D01*
X151946603Y-85148000D01*
X151803397Y-85148000D01*
X151662942Y-85175938D01*
X151530636Y-85230741D01*
X151411564Y-85310302D01*
X151310302Y-85411564D01*
X151303997Y-85421000D01*
X151302000Y-85421000D01*
X151302000Y-83899609D01*
X164269997Y-83899609D01*
X164456073Y-84240766D01*
X164873409Y-84456513D01*
X165324815Y-84586696D01*
X165792946Y-84626313D01*
X166259811Y-84573842D01*
X166707468Y-84431297D01*
X167063927Y-84240766D01*
X167250003Y-83899609D01*
X165760000Y-82409605D01*
X164269997Y-83899609D01*
X151302000Y-83899609D01*
X151302000Y-82262946D01*
X163363687Y-82262946D01*
X163416158Y-82729811D01*
X163558703Y-83177468D01*
X163749234Y-83533927D01*
X164090391Y-83720003D01*
X165580395Y-82230000D01*
X165939605Y-82230000D01*
X167429609Y-83720003D01*
X167770766Y-83533927D01*
X167986513Y-83116591D01*
X168116696Y-82665185D01*
X168156313Y-82197054D01*
X168103842Y-81730189D01*
X167961297Y-81282532D01*
X167770766Y-80926073D01*
X167429609Y-80739997D01*
X165939605Y-82230000D01*
X165580395Y-82230000D01*
X164090391Y-80739997D01*
X163749234Y-80926073D01*
X163533487Y-81343409D01*
X163403304Y-81794815D01*
X163363687Y-82262946D01*
X151302000Y-82262946D01*
X151302000Y-80560391D01*
X164269997Y-80560391D01*
X165760000Y-82050395D01*
X167250003Y-80560391D01*
X167063927Y-80219234D01*
X166646591Y-80003487D01*
X166195185Y-79873304D01*
X165727054Y-79833687D01*
X165260189Y-79886158D01*
X164812532Y-80028703D01*
X164456073Y-80219234D01*
X164269997Y-80560391D01*
X151302000Y-80560391D01*
X151302000Y-79020334D01*
X168798000Y-79020334D01*
X168798000Y-97017047D01*
G37*
%TD.AperFunction*%
%TD*%
M02*
