%TF.GenerationSoftware,KiCad,Pcbnew,5.1.8*%
%TF.CreationDate,2020-11-21T16:41:21+01:00*%
%TF.ProjectId,livello_serbatoio_definitiva,6c697665-6c6c-46f5-9f73-65726261746f,rev?*%
%TF.SameCoordinates,Original*%
%TF.FileFunction,Legend,Bot*%
%TF.FilePolarity,Positive*%
%FSLAX46Y46*%
G04 Gerber Fmt 4.6, Leading zero omitted, Abs format (unit mm)*
G04 Created by KiCad (PCBNEW 5.1.8) date 2020-11-21 16:41:21*
%MOMM*%
%LPD*%
G01*
G04 APERTURE LIST*
%ADD10C,0.125000*%
%ADD11C,0.150000*%
%ADD12C,0.120000*%
G04 APERTURE END LIST*
D10*
X140787142Y-90126190D02*
X141072857Y-90126190D01*
X140930000Y-90126190D02*
X140930000Y-89626190D01*
X140977619Y-89697619D01*
X141025238Y-89745238D01*
X141072857Y-89769047D01*
X158107142Y-81066190D02*
X158392857Y-81066190D01*
X158250000Y-81066190D02*
X158250000Y-80566190D01*
X158297619Y-80637619D01*
X158345238Y-80685238D01*
X158392857Y-80709047D01*
D11*
X157709523Y-130277380D02*
X158185714Y-130277380D01*
X158185714Y-129277380D01*
X157376190Y-129896428D02*
X156614285Y-129896428D01*
X153022619Y-129778571D02*
X152879761Y-129826190D01*
X152832142Y-129873809D01*
X152784523Y-129969047D01*
X152784523Y-130111904D01*
X152832142Y-130207142D01*
X152879761Y-130254761D01*
X152975000Y-130302380D01*
X153355952Y-130302380D01*
X153355952Y-129302380D01*
X153022619Y-129302380D01*
X152927380Y-129350000D01*
X152879761Y-129397619D01*
X152832142Y-129492857D01*
X152832142Y-129588095D01*
X152879761Y-129683333D01*
X152927380Y-129730952D01*
X153022619Y-129778571D01*
X153355952Y-129778571D01*
X152355952Y-129921428D02*
X151594047Y-129921428D01*
X147972619Y-129728571D02*
X147829761Y-129776190D01*
X147782142Y-129823809D01*
X147734523Y-129919047D01*
X147734523Y-130061904D01*
X147782142Y-130157142D01*
X147829761Y-130204761D01*
X147925000Y-130252380D01*
X148305952Y-130252380D01*
X148305952Y-129252380D01*
X147972619Y-129252380D01*
X147877380Y-129300000D01*
X147829761Y-129347619D01*
X147782142Y-129442857D01*
X147782142Y-129538095D01*
X147829761Y-129633333D01*
X147877380Y-129680952D01*
X147972619Y-129728571D01*
X148305952Y-129728571D01*
X147305952Y-129871428D02*
X146544047Y-129871428D01*
X146925000Y-130252380D02*
X146925000Y-129490476D01*
X142759523Y-130252380D02*
X143235714Y-130252380D01*
X143235714Y-129252380D01*
X142426190Y-129871428D02*
X141664285Y-129871428D01*
X142045238Y-130252380D02*
X142045238Y-129490476D01*
X160260714Y-115771428D02*
X159498809Y-115771428D01*
X159879761Y-116152380D02*
X159879761Y-115390476D01*
X158546428Y-115152380D02*
X159022619Y-115152380D01*
X159070238Y-115628571D01*
X159022619Y-115580952D01*
X158927380Y-115533333D01*
X158689285Y-115533333D01*
X158594047Y-115580952D01*
X158546428Y-115628571D01*
X158498809Y-115723809D01*
X158498809Y-115961904D01*
X158546428Y-116057142D01*
X158594047Y-116104761D01*
X158689285Y-116152380D01*
X158927380Y-116152380D01*
X159022619Y-116104761D01*
X159070238Y-116057142D01*
X158213095Y-115152380D02*
X157879761Y-116152380D01*
X157546428Y-115152380D01*
X160210714Y-110152380D02*
X159639285Y-110152380D01*
X159925000Y-111152380D02*
X159925000Y-110152380D01*
X160139285Y-105628571D02*
X159805952Y-105628571D01*
X159663095Y-106152380D02*
X160139285Y-106152380D01*
X160139285Y-105152380D01*
X159663095Y-105152380D01*
X159636904Y-100200000D02*
X159732142Y-100152380D01*
X159875000Y-100152380D01*
X160017857Y-100200000D01*
X160113095Y-100295238D01*
X160160714Y-100390476D01*
X160208333Y-100580952D01*
X160208333Y-100723809D01*
X160160714Y-100914285D01*
X160113095Y-101009523D01*
X160017857Y-101104761D01*
X159875000Y-101152380D01*
X159779761Y-101152380D01*
X159636904Y-101104761D01*
X159589285Y-101057142D01*
X159589285Y-100723809D01*
X159779761Y-100723809D01*
X159160714Y-101152380D02*
X159160714Y-100152380D01*
X158589285Y-101152380D01*
X158589285Y-100152380D01*
X158113095Y-101152380D02*
X158113095Y-100152380D01*
X157875000Y-100152380D01*
X157732142Y-100200000D01*
X157636904Y-100295238D01*
X157589285Y-100390476D01*
X157541666Y-100580952D01*
X157541666Y-100723809D01*
X157589285Y-100914285D01*
X157636904Y-101009523D01*
X157732142Y-101104761D01*
X157875000Y-101152380D01*
X158113095Y-101152380D01*
X163133333Y-138503571D02*
X162990476Y-138551190D01*
X162942857Y-138598809D01*
X162895238Y-138694047D01*
X162895238Y-138836904D01*
X162942857Y-138932142D01*
X162990476Y-138979761D01*
X163085714Y-139027380D01*
X163466666Y-139027380D01*
X163466666Y-138027380D01*
X163133333Y-138027380D01*
X163038095Y-138075000D01*
X162990476Y-138122619D01*
X162942857Y-138217857D01*
X162942857Y-138313095D01*
X162990476Y-138408333D01*
X163038095Y-138455952D01*
X163133333Y-138503571D01*
X163466666Y-138503571D01*
X162609523Y-138027380D02*
X162038095Y-138027380D01*
X162323809Y-139027380D02*
X162323809Y-138027380D01*
X161704761Y-139027380D02*
X161704761Y-138027380D01*
X161133333Y-139027380D01*
X161133333Y-138027380D01*
X166813095Y-120204761D02*
X166670238Y-120252380D01*
X166432142Y-120252380D01*
X166336904Y-120204761D01*
X166289285Y-120157142D01*
X166241666Y-120061904D01*
X166241666Y-119966666D01*
X166289285Y-119871428D01*
X166336904Y-119823809D01*
X166432142Y-119776190D01*
X166622619Y-119728571D01*
X166717857Y-119680952D01*
X166765476Y-119633333D01*
X166813095Y-119538095D01*
X166813095Y-119442857D01*
X166765476Y-119347619D01*
X166717857Y-119300000D01*
X166622619Y-119252380D01*
X166384523Y-119252380D01*
X166241666Y-119300000D01*
X165813095Y-119728571D02*
X165479761Y-119728571D01*
X165336904Y-120252380D02*
X165813095Y-120252380D01*
X165813095Y-119252380D01*
X165336904Y-119252380D01*
X164908333Y-120252380D02*
X164908333Y-119252380D01*
X164336904Y-120252380D01*
X164336904Y-119252380D01*
X163908333Y-120204761D02*
X163765476Y-120252380D01*
X163527380Y-120252380D01*
X163432142Y-120204761D01*
X163384523Y-120157142D01*
X163336904Y-120061904D01*
X163336904Y-119966666D01*
X163384523Y-119871428D01*
X163432142Y-119823809D01*
X163527380Y-119776190D01*
X163717857Y-119728571D01*
X163813095Y-119680952D01*
X163860714Y-119633333D01*
X163908333Y-119538095D01*
X163908333Y-119442857D01*
X163860714Y-119347619D01*
X163813095Y-119300000D01*
X163717857Y-119252380D01*
X163479761Y-119252380D01*
X163336904Y-119300000D01*
D10*
X125630952Y-102975000D02*
X125678571Y-102951190D01*
X125750000Y-102951190D01*
X125821428Y-102975000D01*
X125869047Y-103022619D01*
X125892857Y-103070238D01*
X125916666Y-103165476D01*
X125916666Y-103236904D01*
X125892857Y-103332142D01*
X125869047Y-103379761D01*
X125821428Y-103427380D01*
X125750000Y-103451190D01*
X125702380Y-103451190D01*
X125630952Y-103427380D01*
X125607142Y-103403571D01*
X125607142Y-103236904D01*
X125702380Y-103236904D01*
X125392857Y-103451190D02*
X125392857Y-102951190D01*
X125107142Y-103451190D01*
X125107142Y-102951190D01*
X124869047Y-103451190D02*
X124869047Y-102951190D01*
X124750000Y-102951190D01*
X124678571Y-102975000D01*
X124630952Y-103022619D01*
X124607142Y-103070238D01*
X124583333Y-103165476D01*
X124583333Y-103236904D01*
X124607142Y-103332142D01*
X124630952Y-103379761D01*
X124678571Y-103427380D01*
X124750000Y-103451190D01*
X124869047Y-103451190D01*
X126160714Y-105976190D02*
X126160714Y-105476190D01*
X125994047Y-105833333D01*
X125827380Y-105476190D01*
X125827380Y-105976190D01*
X125494047Y-105476190D02*
X125398809Y-105476190D01*
X125351190Y-105500000D01*
X125303571Y-105547619D01*
X125279761Y-105642857D01*
X125279761Y-105809523D01*
X125303571Y-105904761D01*
X125351190Y-105952380D01*
X125398809Y-105976190D01*
X125494047Y-105976190D01*
X125541666Y-105952380D01*
X125589285Y-105904761D01*
X125613095Y-105809523D01*
X125613095Y-105642857D01*
X125589285Y-105547619D01*
X125541666Y-105500000D01*
X125494047Y-105476190D01*
X125089285Y-105952380D02*
X125017857Y-105976190D01*
X124898809Y-105976190D01*
X124851190Y-105952380D01*
X124827380Y-105928571D01*
X124803571Y-105880952D01*
X124803571Y-105833333D01*
X124827380Y-105785714D01*
X124851190Y-105761904D01*
X124898809Y-105738095D01*
X124994047Y-105714285D01*
X125041666Y-105690476D01*
X125065476Y-105666666D01*
X125089285Y-105619047D01*
X125089285Y-105571428D01*
X125065476Y-105523809D01*
X125041666Y-105500000D01*
X124994047Y-105476190D01*
X124875000Y-105476190D01*
X124803571Y-105500000D01*
X124589285Y-105976190D02*
X124589285Y-105476190D01*
X117723809Y-103451190D02*
X117890476Y-103213095D01*
X118009523Y-103451190D02*
X118009523Y-102951190D01*
X117819047Y-102951190D01*
X117771428Y-102975000D01*
X117747619Y-102998809D01*
X117723809Y-103046428D01*
X117723809Y-103117857D01*
X117747619Y-103165476D01*
X117771428Y-103189285D01*
X117819047Y-103213095D01*
X118009523Y-103213095D01*
X117533333Y-103427380D02*
X117461904Y-103451190D01*
X117342857Y-103451190D01*
X117295238Y-103427380D01*
X117271428Y-103403571D01*
X117247619Y-103355952D01*
X117247619Y-103308333D01*
X117271428Y-103260714D01*
X117295238Y-103236904D01*
X117342857Y-103213095D01*
X117438095Y-103189285D01*
X117485714Y-103165476D01*
X117509523Y-103141666D01*
X117533333Y-103094047D01*
X117533333Y-103046428D01*
X117509523Y-102998809D01*
X117485714Y-102975000D01*
X117438095Y-102951190D01*
X117319047Y-102951190D01*
X117247619Y-102975000D01*
X117104761Y-102951190D02*
X116819047Y-102951190D01*
X116961904Y-103451190D02*
X116961904Y-102951190D01*
X118042857Y-105977380D02*
X117971428Y-106001190D01*
X117852380Y-106001190D01*
X117804761Y-105977380D01*
X117780952Y-105953571D01*
X117757142Y-105905952D01*
X117757142Y-105858333D01*
X117780952Y-105810714D01*
X117804761Y-105786904D01*
X117852380Y-105763095D01*
X117947619Y-105739285D01*
X117995238Y-105715476D01*
X118019047Y-105691666D01*
X118042857Y-105644047D01*
X118042857Y-105596428D01*
X118019047Y-105548809D01*
X117995238Y-105525000D01*
X117947619Y-105501190D01*
X117828571Y-105501190D01*
X117757142Y-105525000D01*
X117257142Y-105953571D02*
X117280952Y-105977380D01*
X117352380Y-106001190D01*
X117400000Y-106001190D01*
X117471428Y-105977380D01*
X117519047Y-105929761D01*
X117542857Y-105882142D01*
X117566666Y-105786904D01*
X117566666Y-105715476D01*
X117542857Y-105620238D01*
X117519047Y-105572619D01*
X117471428Y-105525000D01*
X117400000Y-105501190D01*
X117352380Y-105501190D01*
X117280952Y-105525000D01*
X117257142Y-105548809D01*
X117042857Y-106001190D02*
X117042857Y-105501190D01*
X116757142Y-106001190D02*
X116971428Y-105715476D01*
X116757142Y-105501190D02*
X117042857Y-105786904D01*
X125992857Y-108335714D02*
X125611904Y-108335714D01*
X125802380Y-108526190D02*
X125802380Y-108145238D01*
X125135714Y-108026190D02*
X125373809Y-108026190D01*
X125397619Y-108264285D01*
X125373809Y-108240476D01*
X125326190Y-108216666D01*
X125207142Y-108216666D01*
X125159523Y-108240476D01*
X125135714Y-108264285D01*
X125111904Y-108311904D01*
X125111904Y-108430952D01*
X125135714Y-108478571D01*
X125159523Y-108502380D01*
X125207142Y-108526190D01*
X125326190Y-108526190D01*
X125373809Y-108502380D01*
X125397619Y-108478571D01*
X124969047Y-108026190D02*
X124802380Y-108526190D01*
X124635714Y-108026190D01*
X118060714Y-108526190D02*
X118060714Y-108026190D01*
X117894047Y-108383333D01*
X117727380Y-108026190D01*
X117727380Y-108526190D01*
X117489285Y-108526190D02*
X117489285Y-108026190D01*
X117275000Y-108502380D02*
X117203571Y-108526190D01*
X117084523Y-108526190D01*
X117036904Y-108502380D01*
X117013095Y-108478571D01*
X116989285Y-108430952D01*
X116989285Y-108383333D01*
X117013095Y-108335714D01*
X117036904Y-108311904D01*
X117084523Y-108288095D01*
X117179761Y-108264285D01*
X117227380Y-108240476D01*
X117251190Y-108216666D01*
X117275000Y-108169047D01*
X117275000Y-108121428D01*
X117251190Y-108073809D01*
X117227380Y-108050000D01*
X117179761Y-108026190D01*
X117060714Y-108026190D01*
X116989285Y-108050000D01*
X116679761Y-108026190D02*
X116584523Y-108026190D01*
X116536904Y-108050000D01*
X116489285Y-108097619D01*
X116465476Y-108192857D01*
X116465476Y-108359523D01*
X116489285Y-108454761D01*
X116536904Y-108502380D01*
X116584523Y-108526190D01*
X116679761Y-108526190D01*
X116727380Y-108502380D01*
X116775000Y-108454761D01*
X116798809Y-108359523D01*
X116798809Y-108192857D01*
X116775000Y-108097619D01*
X116727380Y-108050000D01*
X116679761Y-108026190D01*
D12*
%TO.C,U3*%
X156430000Y-83380000D02*
X154630000Y-83380000D01*
X154630000Y-80160000D02*
X157580000Y-80160000D01*
%TO.C,J2*%
X139410000Y-131010000D02*
X140010000Y-131010000D01*
X139410000Y-131850000D02*
X139410000Y-131010000D01*
X158460000Y-139410000D02*
X158460000Y-138410000D01*
X155960000Y-139410000D02*
X155960000Y-138410000D01*
X155960000Y-138410000D02*
X158460000Y-138410000D01*
X155960000Y-139410000D02*
X158460000Y-139410000D01*
X156182000Y-134537000D02*
X155936000Y-134291000D01*
X158280000Y-136635000D02*
X158069000Y-136424000D01*
X156340000Y-134285000D02*
X156141000Y-134086000D01*
X158485000Y-136429000D02*
X158239000Y-136183000D01*
X153460000Y-139410000D02*
X153460000Y-138410000D01*
X150960000Y-139410000D02*
X150960000Y-138410000D01*
X150960000Y-138410000D02*
X153460000Y-138410000D01*
X150960000Y-139410000D02*
X153460000Y-139410000D01*
X151182000Y-134537000D02*
X150936000Y-134291000D01*
X153280000Y-136635000D02*
X153069000Y-136424000D01*
X151340000Y-134285000D02*
X151141000Y-134086000D01*
X153485000Y-136429000D02*
X153239000Y-136183000D01*
X148460000Y-139410000D02*
X148460000Y-138410000D01*
X145960000Y-139410000D02*
X145960000Y-138410000D01*
X145960000Y-138410000D02*
X148460000Y-138410000D01*
X145960000Y-139410000D02*
X148460000Y-139410000D01*
X146182000Y-134537000D02*
X145936000Y-134291000D01*
X148280000Y-136635000D02*
X148069000Y-136424000D01*
X146340000Y-134285000D02*
X146141000Y-134086000D01*
X148485000Y-136429000D02*
X148239000Y-136183000D01*
X143460000Y-139410000D02*
X143460000Y-138410000D01*
X140960000Y-139410000D02*
X140960000Y-138410000D01*
X140960000Y-138410000D02*
X143460000Y-138410000D01*
X140960000Y-139410000D02*
X143460000Y-139410000D01*
X159771000Y-139470000D02*
X159771000Y-131250000D01*
X139650000Y-139470000D02*
X139650000Y-131250000D01*
X139650000Y-131250000D02*
X159771000Y-131250000D01*
X139650000Y-139470000D02*
X159771000Y-139470000D01*
X139650000Y-137410000D02*
X159771000Y-137410000D01*
X139650000Y-132510000D02*
X159771000Y-132510000D01*
X139650000Y-131910000D02*
X159771000Y-131910000D01*
X158890000Y-135360000D02*
G75*
G03*
X158890000Y-135360000I-1680000J0D01*
G01*
X153890000Y-135360000D02*
G75*
G03*
X153890000Y-135360000I-1680000J0D01*
G01*
X148890000Y-135360000D02*
G75*
G03*
X148890000Y-135360000I-1680000J0D01*
G01*
X142238507Y-133679489D02*
G75*
G03*
X141129000Y-134073000I-28507J-1680511D01*
G01*
X140921937Y-134280266D02*
G75*
G03*
X140923000Y-136441000I1288063J-1079734D01*
G01*
X141130092Y-136647078D02*
G75*
G03*
X143290000Y-136647000I1079908J1287078D01*
G01*
X143497078Y-136439908D02*
G75*
G03*
X143497000Y-134280000I-1287078J1079908D01*
G01*
X143289883Y-134073045D02*
G75*
G03*
X142210000Y-133680000I-1079883J-1286955D01*
G01*
%TO.C,J4*%
X160975000Y-118500000D02*
X160975000Y-117900000D01*
X161815000Y-118500000D02*
X160975000Y-118500000D01*
X169375000Y-99450000D02*
X168375000Y-99450000D01*
X169375000Y-101950000D02*
X168375000Y-101950000D01*
X168375000Y-101950000D02*
X168375000Y-99450000D01*
X169375000Y-101950000D02*
X169375000Y-99450000D01*
X164502000Y-101728000D02*
X164256000Y-101974000D01*
X166600000Y-99630000D02*
X166389000Y-99841000D01*
X164250000Y-101570000D02*
X164051000Y-101769000D01*
X166394000Y-99425000D02*
X166148000Y-99671000D01*
X169375000Y-104450000D02*
X168375000Y-104450000D01*
X169375000Y-106950000D02*
X168375000Y-106950000D01*
X168375000Y-106950000D02*
X168375000Y-104450000D01*
X169375000Y-106950000D02*
X169375000Y-104450000D01*
X164502000Y-106728000D02*
X164256000Y-106974000D01*
X166600000Y-104630000D02*
X166389000Y-104841000D01*
X164250000Y-106570000D02*
X164051000Y-106769000D01*
X166394000Y-104425000D02*
X166148000Y-104671000D01*
X169375000Y-109450000D02*
X168375000Y-109450000D01*
X169375000Y-111950000D02*
X168375000Y-111950000D01*
X168375000Y-111950000D02*
X168375000Y-109450000D01*
X169375000Y-111950000D02*
X169375000Y-109450000D01*
X164502000Y-111728000D02*
X164256000Y-111974000D01*
X166600000Y-109630000D02*
X166389000Y-109841000D01*
X164250000Y-111570000D02*
X164051000Y-111769000D01*
X166394000Y-109425000D02*
X166148000Y-109671000D01*
X169375000Y-114450000D02*
X168375000Y-114450000D01*
X169375000Y-116950000D02*
X168375000Y-116950000D01*
X168375000Y-116950000D02*
X168375000Y-114450000D01*
X169375000Y-116950000D02*
X169375000Y-114450000D01*
X169435000Y-98139000D02*
X161215000Y-98139000D01*
X169435000Y-118260000D02*
X161215000Y-118260000D01*
X161215000Y-118260000D02*
X161215000Y-98139000D01*
X169435000Y-118260000D02*
X169435000Y-98139000D01*
X167375000Y-118260000D02*
X167375000Y-98139000D01*
X162475000Y-118260000D02*
X162475000Y-98139000D01*
X161875000Y-118260000D02*
X161875000Y-98139000D01*
X167005000Y-100700000D02*
G75*
G03*
X167005000Y-100700000I-1680000J0D01*
G01*
X167005000Y-105700000D02*
G75*
G03*
X167005000Y-105700000I-1680000J0D01*
G01*
X167005000Y-110700000D02*
G75*
G03*
X167005000Y-110700000I-1680000J0D01*
G01*
X163644489Y-115671493D02*
G75*
G03*
X164038000Y-116781000I1680511J-28507D01*
G01*
X164245266Y-116988063D02*
G75*
G03*
X166406000Y-116987000I1079734J1288063D01*
G01*
X166612078Y-116779908D02*
G75*
G03*
X166612000Y-114620000I-1287078J1079908D01*
G01*
X166404908Y-114412922D02*
G75*
G03*
X164245000Y-114413000I-1079908J-1287078D01*
G01*
X164038045Y-114620117D02*
G75*
G03*
X163645000Y-115700000I1286955J-1079883D01*
G01*
%TO.C,J1*%
X158730000Y-89000000D02*
X159230000Y-89500000D01*
X158730000Y-90000000D02*
X158730000Y-89000000D01*
X159230000Y-89500000D02*
X158730000Y-90000000D01*
X176170000Y-82090000D02*
X167810000Y-82090000D01*
X176170000Y-94410000D02*
X176170000Y-82090000D01*
X167810000Y-94410000D02*
X176170000Y-94410000D01*
X159450000Y-82090000D02*
X163710000Y-82090000D01*
X159450000Y-94410000D02*
X159450000Y-82090000D01*
X163710000Y-94410000D02*
X159450000Y-94410000D01*
D11*
%TO.C,U1*%
X143035000Y-91005000D02*
X143035000Y-90430000D01*
X148785000Y-91005000D02*
X148785000Y-90355000D01*
X148785000Y-80355000D02*
X148785000Y-81005000D01*
X143035000Y-80355000D02*
X143035000Y-81005000D01*
X143035000Y-91005000D02*
X148785000Y-91005000D01*
X143035000Y-80355000D02*
X148785000Y-80355000D01*
X143035000Y-90430000D02*
X141435000Y-90430000D01*
D12*
%TO.C,J5*%
X118745000Y-101890000D02*
X123945000Y-101890000D01*
X118745000Y-107030000D02*
X118745000Y-101890000D01*
X123945000Y-109630000D02*
X123945000Y-101890000D01*
X118745000Y-107030000D02*
X121345000Y-107030000D01*
X121345000Y-107030000D02*
X121345000Y-109630000D01*
X121345000Y-109630000D02*
X123945000Y-109630000D01*
X118745000Y-108300000D02*
X118745000Y-109630000D01*
X118745000Y-109630000D02*
X120075000Y-109630000D01*
%TO.C,U3*%
D11*
X153731904Y-78802380D02*
X153731904Y-79611904D01*
X153684285Y-79707142D01*
X153636666Y-79754761D01*
X153541428Y-79802380D01*
X153350952Y-79802380D01*
X153255714Y-79754761D01*
X153208095Y-79707142D01*
X153160476Y-79611904D01*
X153160476Y-78802380D01*
X152779523Y-78802380D02*
X152160476Y-78802380D01*
X152493809Y-79183333D01*
X152350952Y-79183333D01*
X152255714Y-79230952D01*
X152208095Y-79278571D01*
X152160476Y-79373809D01*
X152160476Y-79611904D01*
X152208095Y-79707142D01*
X152255714Y-79754761D01*
X152350952Y-79802380D01*
X152636666Y-79802380D01*
X152731904Y-79754761D01*
X152779523Y-79707142D01*
%TO.C,J2*%
X161637333Y-129256380D02*
X161637333Y-129970666D01*
X161684952Y-130113523D01*
X161780190Y-130208761D01*
X161923047Y-130256380D01*
X162018285Y-130256380D01*
X161208761Y-129351619D02*
X161161142Y-129304000D01*
X161065904Y-129256380D01*
X160827809Y-129256380D01*
X160732571Y-129304000D01*
X160684952Y-129351619D01*
X160637333Y-129446857D01*
X160637333Y-129542095D01*
X160684952Y-129684952D01*
X161256380Y-130256380D01*
X160637333Y-130256380D01*
%TO.C,J4*%
X161115333Y-119340380D02*
X161115333Y-120054666D01*
X161162952Y-120197523D01*
X161258190Y-120292761D01*
X161401047Y-120340380D01*
X161496285Y-120340380D01*
X160210571Y-119673714D02*
X160210571Y-120340380D01*
X160448666Y-119292761D02*
X160686761Y-120007047D01*
X160067714Y-120007047D01*
%TO.C,J1*%
X160353333Y-94956380D02*
X160353333Y-95670666D01*
X160400952Y-95813523D01*
X160496190Y-95908761D01*
X160639047Y-95956380D01*
X160734285Y-95956380D01*
X159353333Y-95956380D02*
X159924761Y-95956380D01*
X159639047Y-95956380D02*
X159639047Y-94956380D01*
X159734285Y-95099238D01*
X159829523Y-95194476D01*
X159924761Y-95242095D01*
%TO.C,U1*%
X146821904Y-78907380D02*
X146821904Y-79716904D01*
X146774285Y-79812142D01*
X146726666Y-79859761D01*
X146631428Y-79907380D01*
X146440952Y-79907380D01*
X146345714Y-79859761D01*
X146298095Y-79812142D01*
X146250476Y-79716904D01*
X146250476Y-78907380D01*
X145250476Y-79907380D02*
X145821904Y-79907380D01*
X145536190Y-79907380D02*
X145536190Y-78907380D01*
X145631428Y-79050238D01*
X145726666Y-79145476D01*
X145821904Y-79193095D01*
%TO.C,J5*%
X121783333Y-110552380D02*
X121783333Y-111266666D01*
X121830952Y-111409523D01*
X121926190Y-111504761D01*
X122069047Y-111552380D01*
X122164285Y-111552380D01*
X120830952Y-110552380D02*
X121307142Y-110552380D01*
X121354761Y-111028571D01*
X121307142Y-110980952D01*
X121211904Y-110933333D01*
X120973809Y-110933333D01*
X120878571Y-110980952D01*
X120830952Y-111028571D01*
X120783333Y-111123809D01*
X120783333Y-111361904D01*
X120830952Y-111457142D01*
X120878571Y-111504761D01*
X120973809Y-111552380D01*
X121211904Y-111552380D01*
X121307142Y-111504761D01*
X121354761Y-111457142D01*
%TD*%
M02*
