%TF.GenerationSoftware,KiCad,Pcbnew,5.1.8*%
%TF.CreationDate,2020-12-22T17:08:40+01:00*%
%TF.ProjectId,livello_serbatoio_definitiva,6c697665-6c6c-46f5-9f73-65726261746f,rev?*%
%TF.SameCoordinates,Original*%
%TF.FileFunction,Legend,Top*%
%TF.FilePolarity,Positive*%
%FSLAX46Y46*%
G04 Gerber Fmt 4.6, Leading zero omitted, Abs format (unit mm)*
G04 Created by KiCad (PCBNEW 5.1.8) date 2020-12-22 17:08:40*
%MOMM*%
%LPD*%
G01*
G04 APERTURE LIST*
%ADD10C,0.120000*%
%ADD11C,0.150000*%
%ADD12C,0.010000*%
%ADD13C,0.100000*%
G04 APERTURE END LIST*
D10*
X148200000Y-86000000D02*
X151300000Y-86000000D01*
X141000000Y-86000000D02*
X147200000Y-86000000D01*
X154700000Y-86000000D02*
X154100000Y-86000000D01*
X163800000Y-86000000D02*
X169000000Y-86000000D01*
X157600000Y-86000000D02*
X160300000Y-86000000D01*
X89000000Y-86000000D02*
X139900000Y-86000000D01*
X161100000Y-122000000D02*
X169000000Y-122000000D01*
X142600000Y-122000000D02*
X146100000Y-122000000D01*
X103400000Y-122000000D02*
X106300000Y-122000000D01*
X89000000Y-122000000D02*
X93700000Y-122000000D01*
X110960000Y-90130000D02*
X110960000Y-86870000D01*
X121140000Y-90130000D02*
X110960000Y-90130000D01*
X121140000Y-86880000D02*
X121140000Y-90130000D01*
X110980000Y-86870000D02*
X121140000Y-86880000D01*
D11*
X114703388Y-112055714D02*
X114703388Y-111293809D01*
X115084340Y-111674761D02*
X114322436Y-111674761D01*
X114084340Y-110341428D02*
X114084340Y-110817619D01*
X114560531Y-110865238D01*
X114512912Y-110817619D01*
X114465293Y-110722380D01*
X114465293Y-110484285D01*
X114512912Y-110389047D01*
X114560531Y-110341428D01*
X114655769Y-110293809D01*
X114893864Y-110293809D01*
X114989102Y-110341428D01*
X115036721Y-110389047D01*
X115084340Y-110484285D01*
X115084340Y-110722380D01*
X115036721Y-110817619D01*
X114989102Y-110865238D01*
X114084340Y-110008095D02*
X115084340Y-109674761D01*
X114084340Y-109341428D01*
X111631960Y-111461904D02*
X111584340Y-111557142D01*
X111584340Y-111700000D01*
X111631960Y-111842857D01*
X111727198Y-111938095D01*
X111822436Y-111985714D01*
X112012912Y-112033333D01*
X112155769Y-112033333D01*
X112346245Y-111985714D01*
X112441483Y-111938095D01*
X112536721Y-111842857D01*
X112584340Y-111700000D01*
X112584340Y-111604761D01*
X112536721Y-111461904D01*
X112489102Y-111414285D01*
X112155769Y-111414285D01*
X112155769Y-111604761D01*
X112584340Y-110985714D02*
X111584340Y-110985714D01*
X112584340Y-110414285D01*
X111584340Y-110414285D01*
X112584340Y-109938095D02*
X111584340Y-109938095D01*
X111584340Y-109700000D01*
X111631960Y-109557142D01*
X111727198Y-109461904D01*
X111822436Y-109414285D01*
X112012912Y-109366666D01*
X112155769Y-109366666D01*
X112346245Y-109414285D01*
X112441483Y-109461904D01*
X112536721Y-109557142D01*
X112584340Y-109700000D01*
X112584340Y-109938095D01*
X91952380Y-106619047D02*
X92666666Y-106619047D01*
X92809523Y-106666666D01*
X92904761Y-106761904D01*
X92952380Y-106904761D01*
X92952380Y-107000000D01*
X92952380Y-105666666D02*
X92952380Y-106142857D01*
X91952380Y-106142857D01*
X92857142Y-104761904D02*
X92904761Y-104809523D01*
X92952380Y-104952380D01*
X92952380Y-105047619D01*
X92904761Y-105190476D01*
X92809523Y-105285714D01*
X92714285Y-105333333D01*
X92523809Y-105380952D01*
X92380952Y-105380952D01*
X92190476Y-105333333D01*
X92095238Y-105285714D01*
X92000000Y-105190476D01*
X91952380Y-105047619D01*
X91952380Y-104952380D01*
X92000000Y-104809523D01*
X92047619Y-104761904D01*
X91952380Y-104047619D02*
X92666666Y-104047619D01*
X92809523Y-104095238D01*
X92904761Y-104190476D01*
X92952380Y-104333333D01*
X92952380Y-104428571D01*
X92952380Y-103095238D02*
X92952380Y-103571428D01*
X91952380Y-103571428D01*
X92857142Y-102190476D02*
X92904761Y-102238095D01*
X92952380Y-102380952D01*
X92952380Y-102476190D01*
X92904761Y-102619047D01*
X92809523Y-102714285D01*
X92714285Y-102761904D01*
X92523809Y-102809523D01*
X92380952Y-102809523D01*
X92190476Y-102761904D01*
X92095238Y-102714285D01*
X92000000Y-102619047D01*
X91952380Y-102476190D01*
X91952380Y-102380952D01*
X92000000Y-102238095D01*
X92047619Y-102190476D01*
X91952380Y-101476190D02*
X92666666Y-101476190D01*
X92809523Y-101523809D01*
X92904761Y-101619047D01*
X92952380Y-101761904D01*
X92952380Y-101857142D01*
X92952380Y-100523809D02*
X92952380Y-101000000D01*
X91952380Y-101000000D01*
X92857142Y-99619047D02*
X92904761Y-99666666D01*
X92952380Y-99809523D01*
X92952380Y-99904761D01*
X92904761Y-100047619D01*
X92809523Y-100142857D01*
X92714285Y-100190476D01*
X92523809Y-100238095D01*
X92380952Y-100238095D01*
X92190476Y-100190476D01*
X92095238Y-100142857D01*
X92000000Y-100047619D01*
X91952380Y-99904761D01*
X91952380Y-99809523D01*
X92000000Y-99666666D01*
X92047619Y-99619047D01*
X91952380Y-98904761D02*
X92666666Y-98904761D01*
X92809523Y-98952380D01*
X92904761Y-99047619D01*
X92952380Y-99190476D01*
X92952380Y-99285714D01*
X92952380Y-97952380D02*
X92952380Y-98428571D01*
X91952380Y-98428571D01*
X92857142Y-97047619D02*
X92904761Y-97095238D01*
X92952380Y-97238095D01*
X92952380Y-97333333D01*
X92904761Y-97476190D01*
X92809523Y-97571428D01*
X92714285Y-97619047D01*
X92523809Y-97666666D01*
X92380952Y-97666666D01*
X92190476Y-97619047D01*
X92095238Y-97571428D01*
X92000000Y-97476190D01*
X91952380Y-97333333D01*
X91952380Y-97238095D01*
X92000000Y-97095238D01*
X92047619Y-97047619D01*
D10*
X98180000Y-128520000D02*
X97820000Y-128520000D01*
X98974144Y-127810000D02*
X98974144Y-129240000D01*
X98974144Y-128520000D02*
X98974144Y-127810000D01*
X98974144Y-128520000D02*
X99370000Y-128520000D01*
X98200000Y-129294144D02*
X98974144Y-128520000D01*
X98200000Y-127745856D02*
X98974144Y-128520000D01*
X98200000Y-129294144D02*
X98200000Y-127745856D01*
D11*
X94869047Y-130561428D02*
X95630952Y-130561428D01*
X95250000Y-130942380D02*
X95250000Y-130180476D01*
X119265714Y-85466666D02*
X119741904Y-85466666D01*
X119170476Y-85752380D02*
X119503809Y-84752380D01*
X119837142Y-85752380D01*
X120360952Y-84752380D02*
X120456190Y-84752380D01*
X120551428Y-84800000D01*
X120599047Y-84847619D01*
X120646666Y-84942857D01*
X120694285Y-85133333D01*
X120694285Y-85371428D01*
X120646666Y-85561904D01*
X120599047Y-85657142D01*
X120551428Y-85704761D01*
X120456190Y-85752380D01*
X120360952Y-85752380D01*
X120265714Y-85704761D01*
X120218095Y-85657142D01*
X120170476Y-85561904D01*
X120122857Y-85371428D01*
X120122857Y-85133333D01*
X120170476Y-84942857D01*
X120218095Y-84847619D01*
X120265714Y-84800000D01*
X120360952Y-84752380D01*
X116665714Y-85466666D02*
X117141904Y-85466666D01*
X116570476Y-85752380D02*
X116903809Y-84752380D01*
X117237142Y-85752380D01*
X118094285Y-85752380D02*
X117522857Y-85752380D01*
X117808571Y-85752380D02*
X117808571Y-84752380D01*
X117713333Y-84895238D01*
X117618095Y-84990476D01*
X117522857Y-85038095D01*
X114165714Y-85466666D02*
X114641904Y-85466666D01*
X114070476Y-85752380D02*
X114403809Y-84752380D01*
X114737142Y-85752380D01*
X115022857Y-84847619D02*
X115070476Y-84800000D01*
X115165714Y-84752380D01*
X115403809Y-84752380D01*
X115499047Y-84800000D01*
X115546666Y-84847619D01*
X115594285Y-84942857D01*
X115594285Y-85038095D01*
X115546666Y-85180952D01*
X114975238Y-85752380D01*
X115594285Y-85752380D01*
X111665714Y-85466666D02*
X112141904Y-85466666D01*
X111570476Y-85752380D02*
X111903809Y-84752380D01*
X112237142Y-85752380D01*
X112475238Y-84752380D02*
X113094285Y-84752380D01*
X112760952Y-85133333D01*
X112903809Y-85133333D01*
X112999047Y-85180952D01*
X113046666Y-85228571D01*
X113094285Y-85323809D01*
X113094285Y-85561904D01*
X113046666Y-85657142D01*
X112999047Y-85704761D01*
X112903809Y-85752380D01*
X112618095Y-85752380D01*
X112522857Y-85704761D01*
X112475238Y-85657142D01*
X110224340Y-112004285D02*
X109224340Y-112004285D01*
X109224340Y-111766190D01*
X109271960Y-111623333D01*
X109367198Y-111528095D01*
X109462436Y-111480476D01*
X109652912Y-111432857D01*
X109795769Y-111432857D01*
X109986245Y-111480476D01*
X110081483Y-111528095D01*
X110176721Y-111623333D01*
X110224340Y-111766190D01*
X110224340Y-112004285D01*
X110224340Y-110480476D02*
X110224340Y-111051904D01*
X110224340Y-110766190D02*
X109224340Y-110766190D01*
X109367198Y-110861428D01*
X109462436Y-110956666D01*
X109510055Y-111051904D01*
X109224340Y-109861428D02*
X109224340Y-109766190D01*
X109271960Y-109670952D01*
X109319579Y-109623333D01*
X109414817Y-109575714D01*
X109605293Y-109528095D01*
X109843388Y-109528095D01*
X110033864Y-109575714D01*
X110129102Y-109623333D01*
X110176721Y-109670952D01*
X110224340Y-109766190D01*
X110224340Y-109861428D01*
X110176721Y-109956666D01*
X110129102Y-110004285D01*
X110033864Y-110051904D01*
X109843388Y-110099523D01*
X109605293Y-110099523D01*
X109414817Y-110051904D01*
X109319579Y-110004285D01*
X109271960Y-109956666D01*
X109224340Y-109861428D01*
X107468626Y-111904285D02*
X107468626Y-111428095D01*
X107754340Y-111999523D02*
X106754340Y-111666190D01*
X107754340Y-111332857D01*
X107087674Y-110570952D02*
X107754340Y-110570952D01*
X106706721Y-110809047D02*
X107421007Y-111047142D01*
X107421007Y-110428095D01*
X104828626Y-111894285D02*
X104828626Y-111418095D01*
X105114340Y-111989523D02*
X104114340Y-111656190D01*
X105114340Y-111322857D01*
X104114340Y-110513333D02*
X104114340Y-110989523D01*
X104590531Y-111037142D01*
X104542912Y-110989523D01*
X104495293Y-110894285D01*
X104495293Y-110656190D01*
X104542912Y-110560952D01*
X104590531Y-110513333D01*
X104685769Y-110465714D01*
X104923864Y-110465714D01*
X105019102Y-110513333D01*
X105066721Y-110560952D01*
X105114340Y-110656190D01*
X105114340Y-110894285D01*
X105066721Y-110989523D01*
X105019102Y-111037142D01*
X126823824Y-79727380D02*
X126948824Y-78727380D01*
X126901205Y-79108333D02*
X127002395Y-79060714D01*
X127192872Y-79060714D01*
X127282157Y-79108333D01*
X127323824Y-79155952D01*
X127359538Y-79251190D01*
X127323824Y-79536904D01*
X127264300Y-79632142D01*
X127210729Y-79679761D01*
X127109538Y-79727380D01*
X126919062Y-79727380D01*
X126829776Y-79679761D01*
X127716681Y-79060714D02*
X127871443Y-79727380D01*
X128192872Y-79060714D02*
X127871443Y-79727380D01*
X127746443Y-79965476D01*
X127692872Y-80013095D01*
X127591681Y-80060714D01*
X129895252Y-78775000D02*
X129805967Y-78727380D01*
X129663110Y-78727380D01*
X129514300Y-78775000D01*
X129407157Y-78870238D01*
X129347633Y-78965476D01*
X129276205Y-79155952D01*
X129258348Y-79298809D01*
X129282157Y-79489285D01*
X129317872Y-79584523D01*
X129401205Y-79679761D01*
X129538110Y-79727380D01*
X129633348Y-79727380D01*
X129782157Y-79679761D01*
X129835729Y-79632142D01*
X129877395Y-79298809D01*
X129686919Y-79298809D01*
X130823824Y-79727380D02*
X130550014Y-79251190D01*
X130252395Y-79727380D02*
X130377395Y-78727380D01*
X130758348Y-78727380D01*
X130847633Y-78775000D01*
X130889300Y-78822619D01*
X130925014Y-78917857D01*
X130907157Y-79060714D01*
X130847633Y-79155952D01*
X130794062Y-79203571D01*
X130692872Y-79251190D01*
X130311919Y-79251190D01*
X127198824Y-80472619D02*
X127252395Y-80425000D01*
X127353586Y-80377380D01*
X127591681Y-80377380D01*
X127680967Y-80425000D01*
X127722633Y-80472619D01*
X127758348Y-80567857D01*
X127746443Y-80663095D01*
X127680967Y-80805952D01*
X127038110Y-81377380D01*
X127657157Y-81377380D01*
X128401205Y-80377380D02*
X128496443Y-80377380D01*
X128585729Y-80425000D01*
X128627395Y-80472619D01*
X128663110Y-80567857D01*
X128686919Y-80758333D01*
X128657157Y-80996428D01*
X128585729Y-81186904D01*
X128526205Y-81282142D01*
X128472633Y-81329761D01*
X128371443Y-81377380D01*
X128276205Y-81377380D01*
X128186919Y-81329761D01*
X128145252Y-81282142D01*
X128109538Y-81186904D01*
X128085729Y-80996428D01*
X128115491Y-80758333D01*
X128186919Y-80567857D01*
X128246443Y-80472619D01*
X128300014Y-80425000D01*
X128401205Y-80377380D01*
X129103586Y-80472619D02*
X129157157Y-80425000D01*
X129258348Y-80377380D01*
X129496443Y-80377380D01*
X129585729Y-80425000D01*
X129627395Y-80472619D01*
X129663110Y-80567857D01*
X129651205Y-80663095D01*
X129585729Y-80805952D01*
X128942872Y-81377380D01*
X129561919Y-81377380D01*
X130514300Y-81377380D02*
X129942872Y-81377380D01*
X130228586Y-81377380D02*
X130353586Y-80377380D01*
X130240491Y-80520238D01*
X130133348Y-80615476D01*
X130032157Y-80663095D01*
X152229047Y-70631428D02*
X152990952Y-70631428D01*
X152610000Y-71012380D02*
X152610000Y-70250476D01*
X138829047Y-70631428D02*
X139590952Y-70631428D01*
X139210000Y-71012380D02*
X139210000Y-70250476D01*
X145529047Y-70641428D02*
X146290952Y-70641428D01*
X145910000Y-71022380D02*
X145910000Y-70260476D01*
X114283214Y-72317857D02*
X114283214Y-71117857D01*
X114683214Y-71975000D01*
X115083214Y-71117857D01*
X115083214Y-72317857D01*
X115826071Y-72317857D02*
X115711785Y-72260714D01*
X115654642Y-72203571D01*
X115597500Y-72089285D01*
X115597500Y-71746428D01*
X115654642Y-71632142D01*
X115711785Y-71575000D01*
X115826071Y-71517857D01*
X115997500Y-71517857D01*
X116111785Y-71575000D01*
X116168928Y-71632142D01*
X116226071Y-71746428D01*
X116226071Y-72089285D01*
X116168928Y-72203571D01*
X116111785Y-72260714D01*
X115997500Y-72317857D01*
X115826071Y-72317857D01*
X116740357Y-71517857D02*
X116740357Y-72317857D01*
X116740357Y-71632142D02*
X116797500Y-71575000D01*
X116911785Y-71517857D01*
X117083214Y-71517857D01*
X117197500Y-71575000D01*
X117254642Y-71689285D01*
X117254642Y-72317857D01*
X117826071Y-72317857D02*
X117826071Y-71517857D01*
X117826071Y-71117857D02*
X117768928Y-71175000D01*
X117826071Y-71232142D01*
X117883214Y-71175000D01*
X117826071Y-71117857D01*
X117826071Y-71232142D01*
X118226071Y-71517857D02*
X118683214Y-71517857D01*
X118397500Y-71117857D02*
X118397500Y-72146428D01*
X118454642Y-72260714D01*
X118568928Y-72317857D01*
X118683214Y-72317857D01*
X119254642Y-72317857D02*
X119140357Y-72260714D01*
X119083214Y-72203571D01*
X119026071Y-72089285D01*
X119026071Y-71746428D01*
X119083214Y-71632142D01*
X119140357Y-71575000D01*
X119254642Y-71517857D01*
X119426071Y-71517857D01*
X119540357Y-71575000D01*
X119597500Y-71632142D01*
X119654642Y-71746428D01*
X119654642Y-72089285D01*
X119597500Y-72203571D01*
X119540357Y-72260714D01*
X119426071Y-72317857D01*
X119254642Y-72317857D01*
X120168928Y-72317857D02*
X120168928Y-71517857D01*
X120168928Y-71746428D02*
X120226071Y-71632142D01*
X120283214Y-71575000D01*
X120397500Y-71517857D01*
X120511785Y-71517857D01*
X121768928Y-72260714D02*
X121883214Y-72317857D01*
X122111785Y-72317857D01*
X122226071Y-72260714D01*
X122283214Y-72146428D01*
X122283214Y-72089285D01*
X122226071Y-71975000D01*
X122111785Y-71917857D01*
X121940357Y-71917857D01*
X121826071Y-71860714D01*
X121768928Y-71746428D01*
X121768928Y-71689285D01*
X121826071Y-71575000D01*
X121940357Y-71517857D01*
X122111785Y-71517857D01*
X122226071Y-71575000D01*
X123254642Y-72260714D02*
X123140357Y-72317857D01*
X122911785Y-72317857D01*
X122797500Y-72260714D01*
X122740357Y-72146428D01*
X122740357Y-71689285D01*
X122797500Y-71575000D01*
X122911785Y-71517857D01*
X123140357Y-71517857D01*
X123254642Y-71575000D01*
X123311785Y-71689285D01*
X123311785Y-71803571D01*
X122740357Y-71917857D01*
X123826071Y-72317857D02*
X123826071Y-71517857D01*
X123826071Y-71746428D02*
X123883214Y-71632142D01*
X123940357Y-71575000D01*
X124054642Y-71517857D01*
X124168928Y-71517857D01*
X124568928Y-72317857D02*
X124568928Y-71117857D01*
X124568928Y-71575000D02*
X124683214Y-71517857D01*
X124911785Y-71517857D01*
X125026071Y-71575000D01*
X125083214Y-71632142D01*
X125140357Y-71746428D01*
X125140357Y-72089285D01*
X125083214Y-72203571D01*
X125026071Y-72260714D01*
X124911785Y-72317857D01*
X124683214Y-72317857D01*
X124568928Y-72260714D01*
X126168928Y-72317857D02*
X126168928Y-71689285D01*
X126111785Y-71575000D01*
X125997500Y-71517857D01*
X125768928Y-71517857D01*
X125654642Y-71575000D01*
X126168928Y-72260714D02*
X126054642Y-72317857D01*
X125768928Y-72317857D01*
X125654642Y-72260714D01*
X125597500Y-72146428D01*
X125597500Y-72032142D01*
X125654642Y-71917857D01*
X125768928Y-71860714D01*
X126054642Y-71860714D01*
X126168928Y-71803571D01*
X126568928Y-71517857D02*
X127026071Y-71517857D01*
X126740357Y-71117857D02*
X126740357Y-72146428D01*
X126797500Y-72260714D01*
X126911785Y-72317857D01*
X127026071Y-72317857D01*
X127597500Y-72317857D02*
X127483214Y-72260714D01*
X127426071Y-72203571D01*
X127368928Y-72089285D01*
X127368928Y-71746428D01*
X127426071Y-71632142D01*
X127483214Y-71575000D01*
X127597500Y-71517857D01*
X127768928Y-71517857D01*
X127883214Y-71575000D01*
X127940357Y-71632142D01*
X127997500Y-71746428D01*
X127997500Y-72089285D01*
X127940357Y-72203571D01*
X127883214Y-72260714D01*
X127768928Y-72317857D01*
X127597500Y-72317857D01*
X128511785Y-72317857D02*
X128511785Y-71517857D01*
X128511785Y-71117857D02*
X128454642Y-71175000D01*
X128511785Y-71232142D01*
X128568928Y-71175000D01*
X128511785Y-71117857D01*
X128511785Y-71232142D01*
X129254642Y-72317857D02*
X129140357Y-72260714D01*
X129083214Y-72203571D01*
X129026071Y-72089285D01*
X129026071Y-71746428D01*
X129083214Y-71632142D01*
X129140357Y-71575000D01*
X129254642Y-71517857D01*
X129426071Y-71517857D01*
X129540357Y-71575000D01*
X129597500Y-71632142D01*
X129654642Y-71746428D01*
X129654642Y-72089285D01*
X129597500Y-72203571D01*
X129540357Y-72260714D01*
X129426071Y-72317857D01*
X129254642Y-72317857D01*
X114168928Y-73467857D02*
X114454642Y-74267857D01*
X114740357Y-73467857D01*
X115826071Y-74267857D02*
X115140357Y-74267857D01*
X115483214Y-74267857D02*
X115483214Y-73067857D01*
X115368928Y-73239285D01*
X115254642Y-73353571D01*
X115140357Y-73410714D01*
X116340357Y-74153571D02*
X116397500Y-74210714D01*
X116340357Y-74267857D01*
X116283214Y-74210714D01*
X116340357Y-74153571D01*
X116340357Y-74267857D01*
X117140357Y-73067857D02*
X117254642Y-73067857D01*
X117368928Y-73125000D01*
X117426071Y-73182142D01*
X117483214Y-73296428D01*
X117540357Y-73525000D01*
X117540357Y-73810714D01*
X117483214Y-74039285D01*
X117426071Y-74153571D01*
X117368928Y-74210714D01*
X117254642Y-74267857D01*
X117140357Y-74267857D01*
X117026071Y-74210714D01*
X116968928Y-74153571D01*
X116911785Y-74039285D01*
X116854642Y-73810714D01*
X116854642Y-73525000D01*
X116911785Y-73296428D01*
X116968928Y-73182142D01*
X117026071Y-73125000D01*
X117140357Y-73067857D01*
X117768928Y-74382142D02*
X118683214Y-74382142D01*
X119654642Y-74267857D02*
X119254642Y-73696428D01*
X118968928Y-74267857D02*
X118968928Y-73067857D01*
X119426071Y-73067857D01*
X119540357Y-73125000D01*
X119597500Y-73182142D01*
X119654642Y-73296428D01*
X119654642Y-73467857D01*
X119597500Y-73582142D01*
X119540357Y-73639285D01*
X119426071Y-73696428D01*
X118968928Y-73696428D01*
X120626071Y-74210714D02*
X120511785Y-74267857D01*
X120283214Y-74267857D01*
X120168928Y-74210714D01*
X120111785Y-74096428D01*
X120111785Y-73639285D01*
X120168928Y-73525000D01*
X120283214Y-73467857D01*
X120511785Y-73467857D01*
X120626071Y-73525000D01*
X120683214Y-73639285D01*
X120683214Y-73753571D01*
X120111785Y-73867857D01*
X121083214Y-73467857D02*
X121368928Y-74267857D01*
X121654642Y-73467857D01*
X122111785Y-74153571D02*
X122168928Y-74210714D01*
X122111785Y-74267857D01*
X122054642Y-74210714D01*
X122111785Y-74153571D01*
X122111785Y-74267857D01*
X122626071Y-73925000D02*
X123197500Y-73925000D01*
X122511785Y-74267857D02*
X122911785Y-73067857D01*
X123311785Y-74267857D01*
X114283214Y-77539285D02*
X114683214Y-77539285D01*
X114854642Y-78167857D02*
X114283214Y-78167857D01*
X114283214Y-76967857D01*
X114854642Y-76967857D01*
X115311785Y-78110714D02*
X115426071Y-78167857D01*
X115654642Y-78167857D01*
X115768928Y-78110714D01*
X115826071Y-77996428D01*
X115826071Y-77939285D01*
X115768928Y-77825000D01*
X115654642Y-77767857D01*
X115483214Y-77767857D01*
X115368928Y-77710714D01*
X115311785Y-77596428D01*
X115311785Y-77539285D01*
X115368928Y-77425000D01*
X115483214Y-77367857D01*
X115654642Y-77367857D01*
X115768928Y-77425000D01*
X116340357Y-77367857D02*
X116340357Y-78567857D01*
X116340357Y-77425000D02*
X116454642Y-77367857D01*
X116683214Y-77367857D01*
X116797500Y-77425000D01*
X116854642Y-77482142D01*
X116911785Y-77596428D01*
X116911785Y-77939285D01*
X116854642Y-78053571D01*
X116797500Y-78110714D01*
X116683214Y-78167857D01*
X116454642Y-78167857D01*
X116340357Y-78110714D01*
X117940357Y-78167857D02*
X117940357Y-77539285D01*
X117883214Y-77425000D01*
X117768928Y-77367857D01*
X117540357Y-77367857D01*
X117426071Y-77425000D01*
X117940357Y-78110714D02*
X117826071Y-78167857D01*
X117540357Y-78167857D01*
X117426071Y-78110714D01*
X117368928Y-77996428D01*
X117368928Y-77882142D01*
X117426071Y-77767857D01*
X117540357Y-77710714D01*
X117826071Y-77710714D01*
X117940357Y-77653571D01*
X118511785Y-77367857D02*
X118511785Y-78167857D01*
X118511785Y-77482142D02*
X118568928Y-77425000D01*
X118683214Y-77367857D01*
X118854642Y-77367857D01*
X118968928Y-77425000D01*
X119026071Y-77539285D01*
X119026071Y-78167857D01*
X120111785Y-78167857D02*
X120111785Y-76967857D01*
X120111785Y-78110714D02*
X119997500Y-78167857D01*
X119768928Y-78167857D01*
X119654642Y-78110714D01*
X119597500Y-78053571D01*
X119540357Y-77939285D01*
X119540357Y-77596428D01*
X119597500Y-77482142D01*
X119654642Y-77425000D01*
X119768928Y-77367857D01*
X119997500Y-77367857D01*
X120111785Y-77425000D01*
X120683214Y-78167857D02*
X120683214Y-77367857D01*
X120683214Y-76967857D02*
X120626071Y-77025000D01*
X120683214Y-77082142D01*
X120740357Y-77025000D01*
X120683214Y-76967857D01*
X120683214Y-77082142D01*
X121254642Y-78167857D02*
X121254642Y-76967857D01*
X121254642Y-77425000D02*
X121368928Y-77367857D01*
X121597500Y-77367857D01*
X121711785Y-77425000D01*
X121768928Y-77482142D01*
X121826071Y-77596428D01*
X121826071Y-77939285D01*
X121768928Y-78053571D01*
X121711785Y-78110714D01*
X121597500Y-78167857D01*
X121368928Y-78167857D01*
X121254642Y-78110714D01*
X122340357Y-78167857D02*
X122340357Y-77367857D01*
X122340357Y-76967857D02*
X122283214Y-77025000D01*
X122340357Y-77082142D01*
X122397500Y-77025000D01*
X122340357Y-76967857D01*
X122340357Y-77082142D01*
X123083214Y-78167857D02*
X122968928Y-78110714D01*
X122911785Y-77996428D01*
X122911785Y-76967857D01*
X123997500Y-78110714D02*
X123883214Y-78167857D01*
X123654642Y-78167857D01*
X123540357Y-78110714D01*
X123483214Y-77996428D01*
X123483214Y-77539285D01*
X123540357Y-77425000D01*
X123654642Y-77367857D01*
X123883214Y-77367857D01*
X123997500Y-77425000D01*
X124054642Y-77539285D01*
X124054642Y-77653571D01*
X123483214Y-77767857D01*
X101595238Y-72457142D02*
X101547619Y-72504761D01*
X101404761Y-72552380D01*
X101309523Y-72552380D01*
X101166666Y-72504761D01*
X101071428Y-72409523D01*
X101023809Y-72314285D01*
X100976190Y-72123809D01*
X100976190Y-71980952D01*
X101023809Y-71790476D01*
X101071428Y-71695238D01*
X101166666Y-71600000D01*
X101309523Y-71552380D01*
X101404761Y-71552380D01*
X101547619Y-71600000D01*
X101595238Y-71647619D01*
X102214285Y-71552380D02*
X102404761Y-71552380D01*
X102500000Y-71600000D01*
X102595238Y-71695238D01*
X102642857Y-71885714D01*
X102642857Y-72219047D01*
X102595238Y-72409523D01*
X102500000Y-72504761D01*
X102404761Y-72552380D01*
X102214285Y-72552380D01*
X102119047Y-72504761D01*
X102023809Y-72409523D01*
X101976190Y-72219047D01*
X101976190Y-71885714D01*
X102023809Y-71695238D01*
X102119047Y-71600000D01*
X102214285Y-71552380D01*
X103071428Y-72552380D02*
X103071428Y-71552380D01*
X103642857Y-72552380D01*
X103642857Y-71552380D01*
X103976190Y-71552380D02*
X104547619Y-71552380D01*
X104261904Y-72552380D02*
X104261904Y-71552380D01*
X105452380Y-72552380D02*
X105119047Y-72076190D01*
X104880952Y-72552380D02*
X104880952Y-71552380D01*
X105261904Y-71552380D01*
X105357142Y-71600000D01*
X105404761Y-71647619D01*
X105452380Y-71742857D01*
X105452380Y-71885714D01*
X105404761Y-71980952D01*
X105357142Y-72028571D01*
X105261904Y-72076190D01*
X104880952Y-72076190D01*
X105833333Y-72266666D02*
X106309523Y-72266666D01*
X105738095Y-72552380D02*
X106071428Y-71552380D01*
X106404761Y-72552380D01*
X106690476Y-72504761D02*
X106833333Y-72552380D01*
X107071428Y-72552380D01*
X107166666Y-72504761D01*
X107214285Y-72457142D01*
X107261904Y-72361904D01*
X107261904Y-72266666D01*
X107214285Y-72171428D01*
X107166666Y-72123809D01*
X107071428Y-72076190D01*
X106880952Y-72028571D01*
X106785714Y-71980952D01*
X106738095Y-71933333D01*
X106690476Y-71838095D01*
X106690476Y-71742857D01*
X106738095Y-71647619D01*
X106785714Y-71600000D01*
X106880952Y-71552380D01*
X107119047Y-71552380D01*
X107261904Y-71600000D01*
X107547619Y-71552380D02*
X108119047Y-71552380D01*
X107833333Y-72552380D02*
X107833333Y-71552380D01*
X108385714Y-128762380D02*
X107814285Y-128762380D01*
X108100000Y-128762380D02*
X108100000Y-127762380D01*
X108004761Y-127905238D01*
X107909523Y-128000476D01*
X107814285Y-128048095D01*
D10*
X169000000Y-86000000D02*
X169000000Y-102500000D01*
D11*
X129184523Y-139127380D02*
X128613095Y-139127380D01*
X128898809Y-139127380D02*
X128898809Y-138127380D01*
X128803571Y-138270238D01*
X128708333Y-138365476D01*
X128613095Y-138413095D01*
X130041666Y-138127380D02*
X129851190Y-138127380D01*
X129755952Y-138175000D01*
X129708333Y-138222619D01*
X129613095Y-138365476D01*
X129565476Y-138555952D01*
X129565476Y-138936904D01*
X129613095Y-139032142D01*
X129660714Y-139079761D01*
X129755952Y-139127380D01*
X129946428Y-139127380D01*
X130041666Y-139079761D01*
X130089285Y-139032142D01*
X130136904Y-138936904D01*
X130136904Y-138698809D01*
X130089285Y-138603571D01*
X130041666Y-138555952D01*
X129946428Y-138508333D01*
X129755952Y-138508333D01*
X129660714Y-138555952D01*
X129613095Y-138603571D01*
X129565476Y-138698809D01*
X130565476Y-139127380D02*
X130565476Y-138127380D01*
X130898809Y-138841666D01*
X131232142Y-138127380D01*
X131232142Y-139127380D01*
X131708333Y-139127380D02*
X131708333Y-138127380D01*
X131708333Y-138603571D02*
X132279761Y-138603571D01*
X132279761Y-139127380D02*
X132279761Y-138127380D01*
X132660714Y-138460714D02*
X133184523Y-138460714D01*
X132660714Y-139127380D01*
X133184523Y-139127380D01*
X97312619Y-118652380D02*
X96979285Y-118176190D01*
X96741190Y-118652380D02*
X96741190Y-117652380D01*
X97122142Y-117652380D01*
X97217380Y-117700000D01*
X97265000Y-117747619D01*
X97312619Y-117842857D01*
X97312619Y-117985714D01*
X97265000Y-118080952D01*
X97217380Y-118128571D01*
X97122142Y-118176190D01*
X96741190Y-118176190D01*
X97741190Y-118128571D02*
X98074523Y-118128571D01*
X98217380Y-118652380D02*
X97741190Y-118652380D01*
X97741190Y-117652380D01*
X98217380Y-117652380D01*
X98598333Y-118604761D02*
X98741190Y-118652380D01*
X98979285Y-118652380D01*
X99074523Y-118604761D01*
X99122142Y-118557142D01*
X99169761Y-118461904D01*
X99169761Y-118366666D01*
X99122142Y-118271428D01*
X99074523Y-118223809D01*
X98979285Y-118176190D01*
X98788809Y-118128571D01*
X98693571Y-118080952D01*
X98645952Y-118033333D01*
X98598333Y-117938095D01*
X98598333Y-117842857D01*
X98645952Y-117747619D01*
X98693571Y-117700000D01*
X98788809Y-117652380D01*
X99026904Y-117652380D01*
X99169761Y-117700000D01*
X99598333Y-118128571D02*
X99931666Y-118128571D01*
X100074523Y-118652380D02*
X99598333Y-118652380D01*
X99598333Y-117652380D01*
X100074523Y-117652380D01*
X100360238Y-117652380D02*
X100931666Y-117652380D01*
X100645952Y-118652380D02*
X100645952Y-117652380D01*
X149280952Y-68952380D02*
X149471428Y-68952380D01*
X149566666Y-69000000D01*
X149661904Y-69095238D01*
X149709523Y-69285714D01*
X149709523Y-69619047D01*
X149661904Y-69809523D01*
X149566666Y-69904761D01*
X149471428Y-69952380D01*
X149280952Y-69952380D01*
X149185714Y-69904761D01*
X149090476Y-69809523D01*
X149042857Y-69619047D01*
X149042857Y-69285714D01*
X149090476Y-69095238D01*
X149185714Y-69000000D01*
X149280952Y-68952380D01*
X150138095Y-69952380D02*
X150138095Y-68952380D01*
X150709523Y-69952380D01*
X150709523Y-68952380D01*
X142933333Y-69952380D02*
X142600000Y-69476190D01*
X142361904Y-69952380D02*
X142361904Y-68952380D01*
X142742857Y-68952380D01*
X142838095Y-69000000D01*
X142885714Y-69047619D01*
X142933333Y-69142857D01*
X142933333Y-69285714D01*
X142885714Y-69380952D01*
X142838095Y-69428571D01*
X142742857Y-69476190D01*
X142361904Y-69476190D01*
X143266666Y-68952380D02*
X143933333Y-69952380D01*
X143933333Y-68952380D02*
X143266666Y-69952380D01*
X135738095Y-68952380D02*
X136309523Y-68952380D01*
X136023809Y-69952380D02*
X136023809Y-68952380D01*
X136547619Y-68952380D02*
X137214285Y-69952380D01*
X137214285Y-68952380D02*
X136547619Y-69952380D01*
D10*
X169000000Y-86000000D02*
X169000000Y-122000000D01*
X89000000Y-86000000D02*
X89000000Y-122000000D01*
D11*
X89509523Y-85552380D02*
X89033333Y-85552380D01*
X89033333Y-84552380D01*
X90414285Y-85457142D02*
X90366666Y-85504761D01*
X90223809Y-85552380D01*
X90128571Y-85552380D01*
X89985714Y-85504761D01*
X89890476Y-85409523D01*
X89842857Y-85314285D01*
X89795238Y-85123809D01*
X89795238Y-84980952D01*
X89842857Y-84790476D01*
X89890476Y-84695238D01*
X89985714Y-84600000D01*
X90128571Y-84552380D01*
X90223809Y-84552380D01*
X90366666Y-84600000D01*
X90414285Y-84647619D01*
X90842857Y-85552380D02*
X90842857Y-84552380D01*
X91080952Y-84552380D01*
X91223809Y-84600000D01*
X91319047Y-84695238D01*
X91366666Y-84790476D01*
X91414285Y-84980952D01*
X91414285Y-85123809D01*
X91366666Y-85314285D01*
X91319047Y-85409523D01*
X91223809Y-85504761D01*
X91080952Y-85552380D01*
X90842857Y-85552380D01*
X97285714Y-91352380D02*
X96714285Y-91352380D01*
X97000000Y-91352380D02*
X97000000Y-90352380D01*
X96904761Y-90495238D01*
X96809523Y-90590476D01*
X96714285Y-90638095D01*
D12*
%TO.C,REF\u002A\u002A*%
G36*
X143319744Y-108289918D02*
G01*
X143375201Y-108317568D01*
X143424148Y-108368480D01*
X143437629Y-108387338D01*
X143452314Y-108412015D01*
X143461842Y-108438816D01*
X143467293Y-108474587D01*
X143469747Y-108526169D01*
X143470286Y-108594267D01*
X143467852Y-108687588D01*
X143459394Y-108757657D01*
X143443174Y-108809931D01*
X143417454Y-108849869D01*
X143380497Y-108882929D01*
X143377782Y-108884886D01*
X143341360Y-108904908D01*
X143297502Y-108914815D01*
X143241724Y-108917257D01*
X143151048Y-108917257D01*
X143151010Y-109005283D01*
X143150166Y-109054308D01*
X143145024Y-109083065D01*
X143131587Y-109100311D01*
X143105858Y-109114808D01*
X143099679Y-109117769D01*
X143070764Y-109131648D01*
X143048376Y-109140414D01*
X143031729Y-109141171D01*
X143020036Y-109131023D01*
X143012510Y-109107073D01*
X143008366Y-109066426D01*
X143006815Y-109006186D01*
X143007071Y-108923455D01*
X143008349Y-108815339D01*
X143008748Y-108783000D01*
X143010185Y-108671524D01*
X143011472Y-108598603D01*
X143150971Y-108598603D01*
X143151755Y-108660499D01*
X143155240Y-108700997D01*
X143163124Y-108727708D01*
X143177105Y-108748244D01*
X143186597Y-108758260D01*
X143225404Y-108787567D01*
X143259763Y-108789952D01*
X143295216Y-108765750D01*
X143296114Y-108764857D01*
X143310539Y-108746153D01*
X143319313Y-108720732D01*
X143323739Y-108681584D01*
X143325118Y-108621697D01*
X143325143Y-108608430D01*
X143321812Y-108525901D01*
X143310969Y-108468691D01*
X143291340Y-108433766D01*
X143261650Y-108418094D01*
X143244491Y-108416514D01*
X143203766Y-108423926D01*
X143175832Y-108448330D01*
X143159017Y-108492980D01*
X143151650Y-108561130D01*
X143150971Y-108598603D01*
X143011472Y-108598603D01*
X143011708Y-108585245D01*
X143013677Y-108520333D01*
X143016450Y-108472958D01*
X143020388Y-108439290D01*
X143025849Y-108415498D01*
X143033192Y-108397753D01*
X143042777Y-108382224D01*
X143046887Y-108376381D01*
X143101405Y-108321185D01*
X143170336Y-108289890D01*
X143250072Y-108281165D01*
X143319744Y-108289918D01*
G37*
X143319744Y-108289918D02*
X143375201Y-108317568D01*
X143424148Y-108368480D01*
X143437629Y-108387338D01*
X143452314Y-108412015D01*
X143461842Y-108438816D01*
X143467293Y-108474587D01*
X143469747Y-108526169D01*
X143470286Y-108594267D01*
X143467852Y-108687588D01*
X143459394Y-108757657D01*
X143443174Y-108809931D01*
X143417454Y-108849869D01*
X143380497Y-108882929D01*
X143377782Y-108884886D01*
X143341360Y-108904908D01*
X143297502Y-108914815D01*
X143241724Y-108917257D01*
X143151048Y-108917257D01*
X143151010Y-109005283D01*
X143150166Y-109054308D01*
X143145024Y-109083065D01*
X143131587Y-109100311D01*
X143105858Y-109114808D01*
X143099679Y-109117769D01*
X143070764Y-109131648D01*
X143048376Y-109140414D01*
X143031729Y-109141171D01*
X143020036Y-109131023D01*
X143012510Y-109107073D01*
X143008366Y-109066426D01*
X143006815Y-109006186D01*
X143007071Y-108923455D01*
X143008349Y-108815339D01*
X143008748Y-108783000D01*
X143010185Y-108671524D01*
X143011472Y-108598603D01*
X143150971Y-108598603D01*
X143151755Y-108660499D01*
X143155240Y-108700997D01*
X143163124Y-108727708D01*
X143177105Y-108748244D01*
X143186597Y-108758260D01*
X143225404Y-108787567D01*
X143259763Y-108789952D01*
X143295216Y-108765750D01*
X143296114Y-108764857D01*
X143310539Y-108746153D01*
X143319313Y-108720732D01*
X143323739Y-108681584D01*
X143325118Y-108621697D01*
X143325143Y-108608430D01*
X143321812Y-108525901D01*
X143310969Y-108468691D01*
X143291340Y-108433766D01*
X143261650Y-108418094D01*
X143244491Y-108416514D01*
X143203766Y-108423926D01*
X143175832Y-108448330D01*
X143159017Y-108492980D01*
X143151650Y-108561130D01*
X143150971Y-108598603D01*
X143011472Y-108598603D01*
X143011708Y-108585245D01*
X143013677Y-108520333D01*
X143016450Y-108472958D01*
X143020388Y-108439290D01*
X143025849Y-108415498D01*
X143033192Y-108397753D01*
X143042777Y-108382224D01*
X143046887Y-108376381D01*
X143101405Y-108321185D01*
X143170336Y-108289890D01*
X143250072Y-108281165D01*
X143319744Y-108289918D01*
G36*
X144436093Y-108297780D02*
G01*
X144482672Y-108324723D01*
X144515057Y-108351466D01*
X144538742Y-108379484D01*
X144555059Y-108413748D01*
X144565339Y-108459227D01*
X144570914Y-108520892D01*
X144573116Y-108603711D01*
X144573371Y-108663246D01*
X144573371Y-108882391D01*
X144511686Y-108910044D01*
X144450000Y-108937697D01*
X144442743Y-108697670D01*
X144439744Y-108608028D01*
X144436598Y-108542962D01*
X144432701Y-108498026D01*
X144427447Y-108468770D01*
X144420231Y-108450748D01*
X144410450Y-108439511D01*
X144407312Y-108437079D01*
X144359761Y-108418083D01*
X144311697Y-108425600D01*
X144283086Y-108445543D01*
X144271447Y-108459675D01*
X144263391Y-108478220D01*
X144258271Y-108506334D01*
X144255441Y-108549173D01*
X144254256Y-108611895D01*
X144254057Y-108677261D01*
X144254018Y-108759268D01*
X144252614Y-108817316D01*
X144247914Y-108856465D01*
X144237987Y-108881780D01*
X144220903Y-108898323D01*
X144194732Y-108911156D01*
X144159775Y-108924491D01*
X144121596Y-108939007D01*
X144126141Y-108681389D01*
X144127971Y-108588519D01*
X144130112Y-108519889D01*
X144133181Y-108470711D01*
X144137794Y-108436198D01*
X144144568Y-108411562D01*
X144154119Y-108392016D01*
X144165634Y-108374770D01*
X144221190Y-108319680D01*
X144288980Y-108287822D01*
X144362713Y-108280191D01*
X144436093Y-108297780D01*
G37*
X144436093Y-108297780D02*
X144482672Y-108324723D01*
X144515057Y-108351466D01*
X144538742Y-108379484D01*
X144555059Y-108413748D01*
X144565339Y-108459227D01*
X144570914Y-108520892D01*
X144573116Y-108603711D01*
X144573371Y-108663246D01*
X144573371Y-108882391D01*
X144511686Y-108910044D01*
X144450000Y-108937697D01*
X144442743Y-108697670D01*
X144439744Y-108608028D01*
X144436598Y-108542962D01*
X144432701Y-108498026D01*
X144427447Y-108468770D01*
X144420231Y-108450748D01*
X144410450Y-108439511D01*
X144407312Y-108437079D01*
X144359761Y-108418083D01*
X144311697Y-108425600D01*
X144283086Y-108445543D01*
X144271447Y-108459675D01*
X144263391Y-108478220D01*
X144258271Y-108506334D01*
X144255441Y-108549173D01*
X144254256Y-108611895D01*
X144254057Y-108677261D01*
X144254018Y-108759268D01*
X144252614Y-108817316D01*
X144247914Y-108856465D01*
X144237987Y-108881780D01*
X144220903Y-108898323D01*
X144194732Y-108911156D01*
X144159775Y-108924491D01*
X144121596Y-108939007D01*
X144126141Y-108681389D01*
X144127971Y-108588519D01*
X144130112Y-108519889D01*
X144133181Y-108470711D01*
X144137794Y-108436198D01*
X144144568Y-108411562D01*
X144154119Y-108392016D01*
X144165634Y-108374770D01*
X144221190Y-108319680D01*
X144288980Y-108287822D01*
X144362713Y-108280191D01*
X144436093Y-108297780D01*
G36*
X142761115Y-108291962D02*
G01*
X142829145Y-108327733D01*
X142879351Y-108385301D01*
X142897185Y-108422312D01*
X142911063Y-108477882D01*
X142918167Y-108548096D01*
X142918840Y-108624727D01*
X142913427Y-108699552D01*
X142902270Y-108764342D01*
X142885714Y-108810873D01*
X142880626Y-108818887D01*
X142820355Y-108878707D01*
X142748769Y-108914535D01*
X142671092Y-108925020D01*
X142592548Y-108908810D01*
X142570689Y-108899092D01*
X142528122Y-108869143D01*
X142490763Y-108829433D01*
X142487232Y-108824397D01*
X142472881Y-108800124D01*
X142463394Y-108774178D01*
X142457790Y-108740022D01*
X142455086Y-108691119D01*
X142454299Y-108620935D01*
X142454286Y-108605200D01*
X142454322Y-108600192D01*
X142599429Y-108600192D01*
X142600273Y-108666430D01*
X142603596Y-108710386D01*
X142610583Y-108738779D01*
X142622416Y-108758325D01*
X142628457Y-108764857D01*
X142663186Y-108789680D01*
X142696903Y-108788548D01*
X142730995Y-108767016D01*
X142751329Y-108744029D01*
X142763371Y-108710478D01*
X142770134Y-108657569D01*
X142770598Y-108651399D01*
X142771752Y-108555513D01*
X142759688Y-108484299D01*
X142734570Y-108438194D01*
X142696560Y-108417635D01*
X142682992Y-108416514D01*
X142647364Y-108422152D01*
X142622994Y-108441686D01*
X142608093Y-108479042D01*
X142600875Y-108538150D01*
X142599429Y-108600192D01*
X142454322Y-108600192D01*
X142454826Y-108530413D01*
X142457096Y-108478159D01*
X142462068Y-108441949D01*
X142470713Y-108415299D01*
X142484005Y-108391722D01*
X142486943Y-108387338D01*
X142536313Y-108328249D01*
X142590109Y-108293947D01*
X142655602Y-108280331D01*
X142677842Y-108279665D01*
X142761115Y-108291962D01*
G37*
X142761115Y-108291962D02*
X142829145Y-108327733D01*
X142879351Y-108385301D01*
X142897185Y-108422312D01*
X142911063Y-108477882D01*
X142918167Y-108548096D01*
X142918840Y-108624727D01*
X142913427Y-108699552D01*
X142902270Y-108764342D01*
X142885714Y-108810873D01*
X142880626Y-108818887D01*
X142820355Y-108878707D01*
X142748769Y-108914535D01*
X142671092Y-108925020D01*
X142592548Y-108908810D01*
X142570689Y-108899092D01*
X142528122Y-108869143D01*
X142490763Y-108829433D01*
X142487232Y-108824397D01*
X142472881Y-108800124D01*
X142463394Y-108774178D01*
X142457790Y-108740022D01*
X142455086Y-108691119D01*
X142454299Y-108620935D01*
X142454286Y-108605200D01*
X142454322Y-108600192D01*
X142599429Y-108600192D01*
X142600273Y-108666430D01*
X142603596Y-108710386D01*
X142610583Y-108738779D01*
X142622416Y-108758325D01*
X142628457Y-108764857D01*
X142663186Y-108789680D01*
X142696903Y-108788548D01*
X142730995Y-108767016D01*
X142751329Y-108744029D01*
X142763371Y-108710478D01*
X142770134Y-108657569D01*
X142770598Y-108651399D01*
X142771752Y-108555513D01*
X142759688Y-108484299D01*
X142734570Y-108438194D01*
X142696560Y-108417635D01*
X142682992Y-108416514D01*
X142647364Y-108422152D01*
X142622994Y-108441686D01*
X142608093Y-108479042D01*
X142600875Y-108538150D01*
X142599429Y-108600192D01*
X142454322Y-108600192D01*
X142454826Y-108530413D01*
X142457096Y-108478159D01*
X142462068Y-108441949D01*
X142470713Y-108415299D01*
X142484005Y-108391722D01*
X142486943Y-108387338D01*
X142536313Y-108328249D01*
X142590109Y-108293947D01*
X142655602Y-108280331D01*
X142677842Y-108279665D01*
X142761115Y-108291962D01*
G36*
X143888303Y-108301239D02*
G01*
X143945527Y-108339735D01*
X143989749Y-108395335D01*
X144016167Y-108466086D01*
X144021510Y-108518162D01*
X144020903Y-108539893D01*
X144015822Y-108556531D01*
X144001855Y-108571437D01*
X143974589Y-108587973D01*
X143929612Y-108609498D01*
X143862511Y-108639374D01*
X143862171Y-108639524D01*
X143800407Y-108667813D01*
X143749759Y-108692933D01*
X143715404Y-108712179D01*
X143702518Y-108722848D01*
X143702514Y-108722934D01*
X143713872Y-108746166D01*
X143740431Y-108771774D01*
X143770923Y-108790221D01*
X143786370Y-108793886D01*
X143828515Y-108781212D01*
X143864808Y-108749471D01*
X143882517Y-108714572D01*
X143899552Y-108688845D01*
X143932922Y-108659546D01*
X143972149Y-108634235D01*
X144006756Y-108620471D01*
X144013993Y-108619714D01*
X144022139Y-108632160D01*
X144022630Y-108663972D01*
X144016643Y-108706866D01*
X144005357Y-108752558D01*
X143989950Y-108792761D01*
X143989171Y-108794322D01*
X143942804Y-108859062D01*
X143882711Y-108903097D01*
X143814465Y-108924711D01*
X143743638Y-108922185D01*
X143675804Y-108893804D01*
X143672788Y-108891808D01*
X143619427Y-108843448D01*
X143584340Y-108780352D01*
X143564922Y-108697387D01*
X143562316Y-108674078D01*
X143557701Y-108564055D01*
X143563233Y-108512748D01*
X143702514Y-108512748D01*
X143704324Y-108544753D01*
X143714222Y-108554093D01*
X143738898Y-108547105D01*
X143777795Y-108530587D01*
X143821275Y-108509881D01*
X143822356Y-108509333D01*
X143859209Y-108489949D01*
X143874000Y-108477013D01*
X143870353Y-108463451D01*
X143854995Y-108445632D01*
X143815923Y-108419845D01*
X143773846Y-108417950D01*
X143736103Y-108436717D01*
X143710034Y-108472915D01*
X143702514Y-108512748D01*
X143563233Y-108512748D01*
X143567194Y-108476027D01*
X143591550Y-108406212D01*
X143625456Y-108357302D01*
X143686653Y-108307878D01*
X143754063Y-108283359D01*
X143822880Y-108281797D01*
X143888303Y-108301239D01*
G37*
X143888303Y-108301239D02*
X143945527Y-108339735D01*
X143989749Y-108395335D01*
X144016167Y-108466086D01*
X144021510Y-108518162D01*
X144020903Y-108539893D01*
X144015822Y-108556531D01*
X144001855Y-108571437D01*
X143974589Y-108587973D01*
X143929612Y-108609498D01*
X143862511Y-108639374D01*
X143862171Y-108639524D01*
X143800407Y-108667813D01*
X143749759Y-108692933D01*
X143715404Y-108712179D01*
X143702518Y-108722848D01*
X143702514Y-108722934D01*
X143713872Y-108746166D01*
X143740431Y-108771774D01*
X143770923Y-108790221D01*
X143786370Y-108793886D01*
X143828515Y-108781212D01*
X143864808Y-108749471D01*
X143882517Y-108714572D01*
X143899552Y-108688845D01*
X143932922Y-108659546D01*
X143972149Y-108634235D01*
X144006756Y-108620471D01*
X144013993Y-108619714D01*
X144022139Y-108632160D01*
X144022630Y-108663972D01*
X144016643Y-108706866D01*
X144005357Y-108752558D01*
X143989950Y-108792761D01*
X143989171Y-108794322D01*
X143942804Y-108859062D01*
X143882711Y-108903097D01*
X143814465Y-108924711D01*
X143743638Y-108922185D01*
X143675804Y-108893804D01*
X143672788Y-108891808D01*
X143619427Y-108843448D01*
X143584340Y-108780352D01*
X143564922Y-108697387D01*
X143562316Y-108674078D01*
X143557701Y-108564055D01*
X143563233Y-108512748D01*
X143702514Y-108512748D01*
X143704324Y-108544753D01*
X143714222Y-108554093D01*
X143738898Y-108547105D01*
X143777795Y-108530587D01*
X143821275Y-108509881D01*
X143822356Y-108509333D01*
X143859209Y-108489949D01*
X143874000Y-108477013D01*
X143870353Y-108463451D01*
X143854995Y-108445632D01*
X143815923Y-108419845D01*
X143773846Y-108417950D01*
X143736103Y-108436717D01*
X143710034Y-108472915D01*
X143702514Y-108512748D01*
X143563233Y-108512748D01*
X143567194Y-108476027D01*
X143591550Y-108406212D01*
X143625456Y-108357302D01*
X143686653Y-108307878D01*
X143754063Y-108283359D01*
X143822880Y-108281797D01*
X143888303Y-108301239D01*
G36*
X145095886Y-108221289D02*
G01*
X145100139Y-108280613D01*
X145105025Y-108315572D01*
X145111795Y-108330820D01*
X145121702Y-108331015D01*
X145124914Y-108329195D01*
X145167644Y-108316015D01*
X145223227Y-108316785D01*
X145279737Y-108330333D01*
X145315082Y-108347861D01*
X145351321Y-108375861D01*
X145377813Y-108407549D01*
X145395999Y-108447813D01*
X145407322Y-108501543D01*
X145413222Y-108573626D01*
X145415143Y-108668951D01*
X145415177Y-108687237D01*
X145415200Y-108892646D01*
X145369491Y-108908580D01*
X145337027Y-108919420D01*
X145319215Y-108924468D01*
X145318691Y-108924514D01*
X145316937Y-108910828D01*
X145315444Y-108873076D01*
X145314326Y-108816224D01*
X145313697Y-108745234D01*
X145313600Y-108702073D01*
X145313398Y-108616973D01*
X145312358Y-108555981D01*
X145309831Y-108514177D01*
X145305164Y-108486642D01*
X145297707Y-108468456D01*
X145286811Y-108454698D01*
X145280007Y-108448073D01*
X145233272Y-108421375D01*
X145182272Y-108419375D01*
X145136001Y-108441955D01*
X145127444Y-108450107D01*
X145114893Y-108465436D01*
X145106188Y-108483618D01*
X145100631Y-108509909D01*
X145097526Y-108549562D01*
X145096176Y-108607832D01*
X145095886Y-108688173D01*
X145095886Y-108892646D01*
X145050177Y-108908580D01*
X145017713Y-108919420D01*
X144999901Y-108924468D01*
X144999377Y-108924514D01*
X144998037Y-108910623D01*
X144996828Y-108871439D01*
X144995801Y-108810700D01*
X144995002Y-108732141D01*
X144994481Y-108639498D01*
X144994286Y-108536509D01*
X144994286Y-108139342D01*
X145041457Y-108119444D01*
X145088629Y-108099547D01*
X145095886Y-108221289D01*
G37*
X145095886Y-108221289D02*
X145100139Y-108280613D01*
X145105025Y-108315572D01*
X145111795Y-108330820D01*
X145121702Y-108331015D01*
X145124914Y-108329195D01*
X145167644Y-108316015D01*
X145223227Y-108316785D01*
X145279737Y-108330333D01*
X145315082Y-108347861D01*
X145351321Y-108375861D01*
X145377813Y-108407549D01*
X145395999Y-108447813D01*
X145407322Y-108501543D01*
X145413222Y-108573626D01*
X145415143Y-108668951D01*
X145415177Y-108687237D01*
X145415200Y-108892646D01*
X145369491Y-108908580D01*
X145337027Y-108919420D01*
X145319215Y-108924468D01*
X145318691Y-108924514D01*
X145316937Y-108910828D01*
X145315444Y-108873076D01*
X145314326Y-108816224D01*
X145313697Y-108745234D01*
X145313600Y-108702073D01*
X145313398Y-108616973D01*
X145312358Y-108555981D01*
X145309831Y-108514177D01*
X145305164Y-108486642D01*
X145297707Y-108468456D01*
X145286811Y-108454698D01*
X145280007Y-108448073D01*
X145233272Y-108421375D01*
X145182272Y-108419375D01*
X145136001Y-108441955D01*
X145127444Y-108450107D01*
X145114893Y-108465436D01*
X145106188Y-108483618D01*
X145100631Y-108509909D01*
X145097526Y-108549562D01*
X145096176Y-108607832D01*
X145095886Y-108688173D01*
X145095886Y-108892646D01*
X145050177Y-108908580D01*
X145017713Y-108919420D01*
X144999901Y-108924468D01*
X144999377Y-108924514D01*
X144998037Y-108910623D01*
X144996828Y-108871439D01*
X144995801Y-108810700D01*
X144995002Y-108732141D01*
X144994481Y-108639498D01*
X144994286Y-108536509D01*
X144994286Y-108139342D01*
X145041457Y-108119444D01*
X145088629Y-108099547D01*
X145095886Y-108221289D01*
G36*
X145759744Y-108320968D02*
G01*
X145816616Y-108342087D01*
X145817267Y-108342493D01*
X145852440Y-108368380D01*
X145878407Y-108398633D01*
X145896670Y-108438058D01*
X145908732Y-108491462D01*
X145916096Y-108563651D01*
X145920264Y-108659432D01*
X145920629Y-108673078D01*
X145925876Y-108878842D01*
X145881716Y-108901678D01*
X145849763Y-108917110D01*
X145830470Y-108924423D01*
X145829578Y-108924514D01*
X145826239Y-108911022D01*
X145823587Y-108874626D01*
X145821956Y-108821452D01*
X145821600Y-108778393D01*
X145821592Y-108708641D01*
X145818403Y-108664837D01*
X145807288Y-108643944D01*
X145783501Y-108642925D01*
X145742296Y-108658741D01*
X145680086Y-108687815D01*
X145634341Y-108711963D01*
X145610813Y-108732913D01*
X145603896Y-108755747D01*
X145603886Y-108756877D01*
X145615299Y-108796212D01*
X145649092Y-108817462D01*
X145700809Y-108820539D01*
X145738061Y-108820006D01*
X145757703Y-108830735D01*
X145769952Y-108856505D01*
X145777002Y-108889337D01*
X145766842Y-108907966D01*
X145763017Y-108910632D01*
X145727001Y-108921340D01*
X145676566Y-108922856D01*
X145624626Y-108915759D01*
X145587822Y-108902788D01*
X145536938Y-108859585D01*
X145508014Y-108799446D01*
X145502286Y-108752462D01*
X145506657Y-108710082D01*
X145522475Y-108675488D01*
X145553797Y-108644763D01*
X145604678Y-108613990D01*
X145679176Y-108579252D01*
X145683714Y-108577288D01*
X145750821Y-108546287D01*
X145792232Y-108520862D01*
X145809981Y-108498014D01*
X145806107Y-108474745D01*
X145782643Y-108448056D01*
X145775627Y-108441914D01*
X145728630Y-108418100D01*
X145679933Y-108419103D01*
X145637522Y-108442451D01*
X145609384Y-108485675D01*
X145606769Y-108494160D01*
X145581308Y-108535308D01*
X145549001Y-108555128D01*
X145502286Y-108574770D01*
X145502286Y-108523950D01*
X145516496Y-108450082D01*
X145558675Y-108382327D01*
X145580624Y-108359661D01*
X145630517Y-108330569D01*
X145693967Y-108317400D01*
X145759744Y-108320968D01*
G37*
X145759744Y-108320968D02*
X145816616Y-108342087D01*
X145817267Y-108342493D01*
X145852440Y-108368380D01*
X145878407Y-108398633D01*
X145896670Y-108438058D01*
X145908732Y-108491462D01*
X145916096Y-108563651D01*
X145920264Y-108659432D01*
X145920629Y-108673078D01*
X145925876Y-108878842D01*
X145881716Y-108901678D01*
X145849763Y-108917110D01*
X145830470Y-108924423D01*
X145829578Y-108924514D01*
X145826239Y-108911022D01*
X145823587Y-108874626D01*
X145821956Y-108821452D01*
X145821600Y-108778393D01*
X145821592Y-108708641D01*
X145818403Y-108664837D01*
X145807288Y-108643944D01*
X145783501Y-108642925D01*
X145742296Y-108658741D01*
X145680086Y-108687815D01*
X145634341Y-108711963D01*
X145610813Y-108732913D01*
X145603896Y-108755747D01*
X145603886Y-108756877D01*
X145615299Y-108796212D01*
X145649092Y-108817462D01*
X145700809Y-108820539D01*
X145738061Y-108820006D01*
X145757703Y-108830735D01*
X145769952Y-108856505D01*
X145777002Y-108889337D01*
X145766842Y-108907966D01*
X145763017Y-108910632D01*
X145727001Y-108921340D01*
X145676566Y-108922856D01*
X145624626Y-108915759D01*
X145587822Y-108902788D01*
X145536938Y-108859585D01*
X145508014Y-108799446D01*
X145502286Y-108752462D01*
X145506657Y-108710082D01*
X145522475Y-108675488D01*
X145553797Y-108644763D01*
X145604678Y-108613990D01*
X145679176Y-108579252D01*
X145683714Y-108577288D01*
X145750821Y-108546287D01*
X145792232Y-108520862D01*
X145809981Y-108498014D01*
X145806107Y-108474745D01*
X145782643Y-108448056D01*
X145775627Y-108441914D01*
X145728630Y-108418100D01*
X145679933Y-108419103D01*
X145637522Y-108442451D01*
X145609384Y-108485675D01*
X145606769Y-108494160D01*
X145581308Y-108535308D01*
X145549001Y-108555128D01*
X145502286Y-108574770D01*
X145502286Y-108523950D01*
X145516496Y-108450082D01*
X145558675Y-108382327D01*
X145580624Y-108359661D01*
X145630517Y-108330569D01*
X145693967Y-108317400D01*
X145759744Y-108320968D01*
G36*
X146249926Y-108319755D02*
G01*
X146315858Y-108344084D01*
X146369273Y-108387117D01*
X146390164Y-108417409D01*
X146412939Y-108472994D01*
X146412466Y-108513186D01*
X146388562Y-108540217D01*
X146379717Y-108544813D01*
X146341530Y-108559144D01*
X146322028Y-108555472D01*
X146315422Y-108531407D01*
X146315086Y-108518114D01*
X146302992Y-108469210D01*
X146271471Y-108434999D01*
X146227659Y-108418476D01*
X146178695Y-108422634D01*
X146138894Y-108444227D01*
X146125450Y-108456544D01*
X146115921Y-108471487D01*
X146109485Y-108494075D01*
X146105317Y-108529328D01*
X146102597Y-108582266D01*
X146100502Y-108657907D01*
X146099960Y-108681857D01*
X146097981Y-108763790D01*
X146095731Y-108821455D01*
X146092357Y-108859608D01*
X146087006Y-108883004D01*
X146078824Y-108896398D01*
X146066959Y-108904545D01*
X146059362Y-108908144D01*
X146027102Y-108920452D01*
X146008111Y-108924514D01*
X146001836Y-108910948D01*
X145998006Y-108869934D01*
X145996600Y-108800999D01*
X145997598Y-108703669D01*
X145997908Y-108688657D01*
X146000101Y-108599859D01*
X146002693Y-108535019D01*
X146006382Y-108489067D01*
X146011864Y-108456935D01*
X146019835Y-108433553D01*
X146030993Y-108413852D01*
X146036830Y-108405410D01*
X146070296Y-108368057D01*
X146107727Y-108339003D01*
X146112309Y-108336467D01*
X146179426Y-108316443D01*
X146249926Y-108319755D01*
G37*
X146249926Y-108319755D02*
X146315858Y-108344084D01*
X146369273Y-108387117D01*
X146390164Y-108417409D01*
X146412939Y-108472994D01*
X146412466Y-108513186D01*
X146388562Y-108540217D01*
X146379717Y-108544813D01*
X146341530Y-108559144D01*
X146322028Y-108555472D01*
X146315422Y-108531407D01*
X146315086Y-108518114D01*
X146302992Y-108469210D01*
X146271471Y-108434999D01*
X146227659Y-108418476D01*
X146178695Y-108422634D01*
X146138894Y-108444227D01*
X146125450Y-108456544D01*
X146115921Y-108471487D01*
X146109485Y-108494075D01*
X146105317Y-108529328D01*
X146102597Y-108582266D01*
X146100502Y-108657907D01*
X146099960Y-108681857D01*
X146097981Y-108763790D01*
X146095731Y-108821455D01*
X146092357Y-108859608D01*
X146087006Y-108883004D01*
X146078824Y-108896398D01*
X146066959Y-108904545D01*
X146059362Y-108908144D01*
X146027102Y-108920452D01*
X146008111Y-108924514D01*
X146001836Y-108910948D01*
X145998006Y-108869934D01*
X145996600Y-108800999D01*
X145997598Y-108703669D01*
X145997908Y-108688657D01*
X146000101Y-108599859D01*
X146002693Y-108535019D01*
X146006382Y-108489067D01*
X146011864Y-108456935D01*
X146019835Y-108433553D01*
X146030993Y-108413852D01*
X146036830Y-108405410D01*
X146070296Y-108368057D01*
X146107727Y-108339003D01*
X146112309Y-108336467D01*
X146179426Y-108316443D01*
X146249926Y-108319755D01*
G36*
X146910117Y-108435358D02*
G01*
X146909933Y-108543837D01*
X146909219Y-108627287D01*
X146907675Y-108689704D01*
X146905001Y-108735085D01*
X146900894Y-108767429D01*
X146895055Y-108790733D01*
X146887182Y-108808995D01*
X146881221Y-108819418D01*
X146831855Y-108875945D01*
X146769264Y-108911377D01*
X146700013Y-108924090D01*
X146630668Y-108912463D01*
X146589375Y-108891568D01*
X146546025Y-108855422D01*
X146516481Y-108811276D01*
X146498655Y-108753462D01*
X146490463Y-108676313D01*
X146489302Y-108619714D01*
X146489458Y-108615647D01*
X146590857Y-108615647D01*
X146591476Y-108680550D01*
X146594314Y-108723514D01*
X146600840Y-108751622D01*
X146612523Y-108771953D01*
X146626483Y-108787288D01*
X146673365Y-108816890D01*
X146723701Y-108819419D01*
X146771276Y-108794705D01*
X146774979Y-108791356D01*
X146790783Y-108773935D01*
X146800693Y-108753209D01*
X146806058Y-108722362D01*
X146808228Y-108674577D01*
X146808571Y-108621748D01*
X146807827Y-108555381D01*
X146804748Y-108511106D01*
X146798061Y-108482009D01*
X146786496Y-108461173D01*
X146777013Y-108450107D01*
X146732960Y-108422198D01*
X146682224Y-108418843D01*
X146633796Y-108440159D01*
X146624450Y-108448073D01*
X146608540Y-108465647D01*
X146598610Y-108486587D01*
X146593278Y-108517782D01*
X146591163Y-108566122D01*
X146590857Y-108615647D01*
X146489458Y-108615647D01*
X146492810Y-108528568D01*
X146504726Y-108460086D01*
X146527135Y-108408600D01*
X146562124Y-108368443D01*
X146589375Y-108347861D01*
X146638907Y-108325625D01*
X146696316Y-108315304D01*
X146749682Y-108318067D01*
X146779543Y-108329212D01*
X146791261Y-108332383D01*
X146799037Y-108320557D01*
X146804465Y-108288866D01*
X146808571Y-108240593D01*
X146813067Y-108186829D01*
X146819313Y-108154482D01*
X146830676Y-108135985D01*
X146850528Y-108123770D01*
X146863000Y-108118362D01*
X146910171Y-108098601D01*
X146910117Y-108435358D01*
G37*
X146910117Y-108435358D02*
X146909933Y-108543837D01*
X146909219Y-108627287D01*
X146907675Y-108689704D01*
X146905001Y-108735085D01*
X146900894Y-108767429D01*
X146895055Y-108790733D01*
X146887182Y-108808995D01*
X146881221Y-108819418D01*
X146831855Y-108875945D01*
X146769264Y-108911377D01*
X146700013Y-108924090D01*
X146630668Y-108912463D01*
X146589375Y-108891568D01*
X146546025Y-108855422D01*
X146516481Y-108811276D01*
X146498655Y-108753462D01*
X146490463Y-108676313D01*
X146489302Y-108619714D01*
X146489458Y-108615647D01*
X146590857Y-108615647D01*
X146591476Y-108680550D01*
X146594314Y-108723514D01*
X146600840Y-108751622D01*
X146612523Y-108771953D01*
X146626483Y-108787288D01*
X146673365Y-108816890D01*
X146723701Y-108819419D01*
X146771276Y-108794705D01*
X146774979Y-108791356D01*
X146790783Y-108773935D01*
X146800693Y-108753209D01*
X146806058Y-108722362D01*
X146808228Y-108674577D01*
X146808571Y-108621748D01*
X146807827Y-108555381D01*
X146804748Y-108511106D01*
X146798061Y-108482009D01*
X146786496Y-108461173D01*
X146777013Y-108450107D01*
X146732960Y-108422198D01*
X146682224Y-108418843D01*
X146633796Y-108440159D01*
X146624450Y-108448073D01*
X146608540Y-108465647D01*
X146598610Y-108486587D01*
X146593278Y-108517782D01*
X146591163Y-108566122D01*
X146590857Y-108615647D01*
X146489458Y-108615647D01*
X146492810Y-108528568D01*
X146504726Y-108460086D01*
X146527135Y-108408600D01*
X146562124Y-108368443D01*
X146589375Y-108347861D01*
X146638907Y-108325625D01*
X146696316Y-108315304D01*
X146749682Y-108318067D01*
X146779543Y-108329212D01*
X146791261Y-108332383D01*
X146799037Y-108320557D01*
X146804465Y-108288866D01*
X146808571Y-108240593D01*
X146813067Y-108186829D01*
X146819313Y-108154482D01*
X146830676Y-108135985D01*
X146850528Y-108123770D01*
X146863000Y-108118362D01*
X146910171Y-108098601D01*
X146910117Y-108435358D01*
G36*
X147499833Y-108328663D02*
G01*
X147502048Y-108366850D01*
X147503784Y-108424886D01*
X147504899Y-108498180D01*
X147505257Y-108575055D01*
X147505257Y-108835196D01*
X147459326Y-108881127D01*
X147427675Y-108909429D01*
X147399890Y-108920893D01*
X147361915Y-108920168D01*
X147346840Y-108918321D01*
X147299726Y-108912948D01*
X147260756Y-108909869D01*
X147251257Y-108909585D01*
X147219233Y-108911445D01*
X147173432Y-108916114D01*
X147155674Y-108918321D01*
X147112057Y-108921735D01*
X147082745Y-108914320D01*
X147053680Y-108891427D01*
X147043188Y-108881127D01*
X146997257Y-108835196D01*
X146997257Y-108348602D01*
X147034226Y-108331758D01*
X147066059Y-108319282D01*
X147084683Y-108314914D01*
X147089458Y-108328718D01*
X147093921Y-108367286D01*
X147097775Y-108426356D01*
X147100722Y-108501663D01*
X147102143Y-108565286D01*
X147106114Y-108815657D01*
X147140759Y-108820556D01*
X147172268Y-108817131D01*
X147187708Y-108806041D01*
X147192023Y-108785308D01*
X147195708Y-108741145D01*
X147198469Y-108679146D01*
X147200012Y-108604909D01*
X147200235Y-108566706D01*
X147200457Y-108346783D01*
X147246166Y-108330849D01*
X147278518Y-108320015D01*
X147296115Y-108314962D01*
X147296623Y-108314914D01*
X147298388Y-108328648D01*
X147300329Y-108366730D01*
X147302282Y-108424482D01*
X147304084Y-108497227D01*
X147305343Y-108565286D01*
X147309314Y-108815657D01*
X147396400Y-108815657D01*
X147400396Y-108587240D01*
X147404392Y-108358822D01*
X147446847Y-108336868D01*
X147478192Y-108321793D01*
X147496744Y-108314951D01*
X147497279Y-108314914D01*
X147499833Y-108328663D01*
G37*
X147499833Y-108328663D02*
X147502048Y-108366850D01*
X147503784Y-108424886D01*
X147504899Y-108498180D01*
X147505257Y-108575055D01*
X147505257Y-108835196D01*
X147459326Y-108881127D01*
X147427675Y-108909429D01*
X147399890Y-108920893D01*
X147361915Y-108920168D01*
X147346840Y-108918321D01*
X147299726Y-108912948D01*
X147260756Y-108909869D01*
X147251257Y-108909585D01*
X147219233Y-108911445D01*
X147173432Y-108916114D01*
X147155674Y-108918321D01*
X147112057Y-108921735D01*
X147082745Y-108914320D01*
X147053680Y-108891427D01*
X147043188Y-108881127D01*
X146997257Y-108835196D01*
X146997257Y-108348602D01*
X147034226Y-108331758D01*
X147066059Y-108319282D01*
X147084683Y-108314914D01*
X147089458Y-108328718D01*
X147093921Y-108367286D01*
X147097775Y-108426356D01*
X147100722Y-108501663D01*
X147102143Y-108565286D01*
X147106114Y-108815657D01*
X147140759Y-108820556D01*
X147172268Y-108817131D01*
X147187708Y-108806041D01*
X147192023Y-108785308D01*
X147195708Y-108741145D01*
X147198469Y-108679146D01*
X147200012Y-108604909D01*
X147200235Y-108566706D01*
X147200457Y-108346783D01*
X147246166Y-108330849D01*
X147278518Y-108320015D01*
X147296115Y-108314962D01*
X147296623Y-108314914D01*
X147298388Y-108328648D01*
X147300329Y-108366730D01*
X147302282Y-108424482D01*
X147304084Y-108497227D01*
X147305343Y-108565286D01*
X147309314Y-108815657D01*
X147396400Y-108815657D01*
X147400396Y-108587240D01*
X147404392Y-108358822D01*
X147446847Y-108336868D01*
X147478192Y-108321793D01*
X147496744Y-108314951D01*
X147497279Y-108314914D01*
X147499833Y-108328663D01*
G36*
X147864876Y-108326335D02*
G01*
X147906667Y-108345344D01*
X147939469Y-108368378D01*
X147963503Y-108394133D01*
X147980097Y-108427358D01*
X147990577Y-108472800D01*
X147996271Y-108535207D01*
X147998507Y-108619327D01*
X147998743Y-108674721D01*
X147998743Y-108890826D01*
X147961774Y-108907670D01*
X147932656Y-108919981D01*
X147918231Y-108924514D01*
X147915472Y-108911025D01*
X147913282Y-108874653D01*
X147911942Y-108821542D01*
X147911657Y-108779372D01*
X147910434Y-108718447D01*
X147907136Y-108670115D01*
X147902321Y-108640518D01*
X147898496Y-108634229D01*
X147872783Y-108640652D01*
X147832418Y-108657125D01*
X147785679Y-108679458D01*
X147740845Y-108703457D01*
X147706193Y-108724930D01*
X147690002Y-108739685D01*
X147689938Y-108739845D01*
X147691330Y-108767152D01*
X147703818Y-108793219D01*
X147725743Y-108814392D01*
X147757743Y-108821474D01*
X147785092Y-108820649D01*
X147823826Y-108820042D01*
X147844158Y-108829116D01*
X147856369Y-108853092D01*
X147857909Y-108857613D01*
X147863203Y-108891806D01*
X147849047Y-108912568D01*
X147812148Y-108922462D01*
X147772289Y-108924292D01*
X147700562Y-108910727D01*
X147663432Y-108891355D01*
X147617576Y-108845845D01*
X147593256Y-108789983D01*
X147591073Y-108730957D01*
X147611629Y-108675953D01*
X147642549Y-108641486D01*
X147673420Y-108622189D01*
X147721942Y-108597759D01*
X147778485Y-108572985D01*
X147787910Y-108569199D01*
X147850019Y-108541791D01*
X147885822Y-108517634D01*
X147897337Y-108493619D01*
X147886580Y-108466635D01*
X147868114Y-108445543D01*
X147824469Y-108419572D01*
X147776446Y-108417624D01*
X147732406Y-108437637D01*
X147700709Y-108477551D01*
X147696549Y-108487848D01*
X147672327Y-108525724D01*
X147636965Y-108553842D01*
X147592343Y-108576917D01*
X147592343Y-108511485D01*
X147594969Y-108471506D01*
X147606230Y-108439997D01*
X147631199Y-108406378D01*
X147655169Y-108380484D01*
X147692441Y-108343817D01*
X147721401Y-108324121D01*
X147752505Y-108316220D01*
X147787713Y-108314914D01*
X147864876Y-108326335D01*
G37*
X147864876Y-108326335D02*
X147906667Y-108345344D01*
X147939469Y-108368378D01*
X147963503Y-108394133D01*
X147980097Y-108427358D01*
X147990577Y-108472800D01*
X147996271Y-108535207D01*
X147998507Y-108619327D01*
X147998743Y-108674721D01*
X147998743Y-108890826D01*
X147961774Y-108907670D01*
X147932656Y-108919981D01*
X147918231Y-108924514D01*
X147915472Y-108911025D01*
X147913282Y-108874653D01*
X147911942Y-108821542D01*
X147911657Y-108779372D01*
X147910434Y-108718447D01*
X147907136Y-108670115D01*
X147902321Y-108640518D01*
X147898496Y-108634229D01*
X147872783Y-108640652D01*
X147832418Y-108657125D01*
X147785679Y-108679458D01*
X147740845Y-108703457D01*
X147706193Y-108724930D01*
X147690002Y-108739685D01*
X147689938Y-108739845D01*
X147691330Y-108767152D01*
X147703818Y-108793219D01*
X147725743Y-108814392D01*
X147757743Y-108821474D01*
X147785092Y-108820649D01*
X147823826Y-108820042D01*
X147844158Y-108829116D01*
X147856369Y-108853092D01*
X147857909Y-108857613D01*
X147863203Y-108891806D01*
X147849047Y-108912568D01*
X147812148Y-108922462D01*
X147772289Y-108924292D01*
X147700562Y-108910727D01*
X147663432Y-108891355D01*
X147617576Y-108845845D01*
X147593256Y-108789983D01*
X147591073Y-108730957D01*
X147611629Y-108675953D01*
X147642549Y-108641486D01*
X147673420Y-108622189D01*
X147721942Y-108597759D01*
X147778485Y-108572985D01*
X147787910Y-108569199D01*
X147850019Y-108541791D01*
X147885822Y-108517634D01*
X147897337Y-108493619D01*
X147886580Y-108466635D01*
X147868114Y-108445543D01*
X147824469Y-108419572D01*
X147776446Y-108417624D01*
X147732406Y-108437637D01*
X147700709Y-108477551D01*
X147696549Y-108487848D01*
X147672327Y-108525724D01*
X147636965Y-108553842D01*
X147592343Y-108576917D01*
X147592343Y-108511485D01*
X147594969Y-108471506D01*
X147606230Y-108439997D01*
X147631199Y-108406378D01*
X147655169Y-108380484D01*
X147692441Y-108343817D01*
X147721401Y-108324121D01*
X147752505Y-108316220D01*
X147787713Y-108314914D01*
X147864876Y-108326335D01*
G36*
X148372600Y-108328752D02*
G01*
X148389948Y-108336334D01*
X148431356Y-108369128D01*
X148466765Y-108416547D01*
X148488664Y-108467151D01*
X148492229Y-108492098D01*
X148480279Y-108526927D01*
X148454067Y-108545357D01*
X148425964Y-108556516D01*
X148413095Y-108558572D01*
X148406829Y-108543649D01*
X148394456Y-108511175D01*
X148389028Y-108496502D01*
X148358590Y-108445744D01*
X148314520Y-108420427D01*
X148258010Y-108421206D01*
X148253825Y-108422203D01*
X148223655Y-108436507D01*
X148201476Y-108464393D01*
X148186327Y-108509287D01*
X148177250Y-108574615D01*
X148173286Y-108663804D01*
X148172914Y-108711261D01*
X148172730Y-108786071D01*
X148171522Y-108837069D01*
X148168309Y-108869471D01*
X148162109Y-108888495D01*
X148151940Y-108899356D01*
X148136819Y-108907272D01*
X148135946Y-108907670D01*
X148106828Y-108919981D01*
X148092403Y-108924514D01*
X148090186Y-108910809D01*
X148088289Y-108872925D01*
X148086847Y-108815715D01*
X148085998Y-108744027D01*
X148085829Y-108691565D01*
X148086692Y-108590047D01*
X148090070Y-108513032D01*
X148097142Y-108456023D01*
X148109088Y-108414526D01*
X148127090Y-108384043D01*
X148152327Y-108360080D01*
X148177247Y-108343355D01*
X148237171Y-108321097D01*
X148306911Y-108316076D01*
X148372600Y-108328752D01*
G37*
X148372600Y-108328752D02*
X148389948Y-108336334D01*
X148431356Y-108369128D01*
X148466765Y-108416547D01*
X148488664Y-108467151D01*
X148492229Y-108492098D01*
X148480279Y-108526927D01*
X148454067Y-108545357D01*
X148425964Y-108556516D01*
X148413095Y-108558572D01*
X148406829Y-108543649D01*
X148394456Y-108511175D01*
X148389028Y-108496502D01*
X148358590Y-108445744D01*
X148314520Y-108420427D01*
X148258010Y-108421206D01*
X148253825Y-108422203D01*
X148223655Y-108436507D01*
X148201476Y-108464393D01*
X148186327Y-108509287D01*
X148177250Y-108574615D01*
X148173286Y-108663804D01*
X148172914Y-108711261D01*
X148172730Y-108786071D01*
X148171522Y-108837069D01*
X148168309Y-108869471D01*
X148162109Y-108888495D01*
X148151940Y-108899356D01*
X148136819Y-108907272D01*
X148135946Y-108907670D01*
X148106828Y-108919981D01*
X148092403Y-108924514D01*
X148090186Y-108910809D01*
X148088289Y-108872925D01*
X148086847Y-108815715D01*
X148085998Y-108744027D01*
X148085829Y-108691565D01*
X148086692Y-108590047D01*
X148090070Y-108513032D01*
X148097142Y-108456023D01*
X148109088Y-108414526D01*
X148127090Y-108384043D01*
X148152327Y-108360080D01*
X148177247Y-108343355D01*
X148237171Y-108321097D01*
X148306911Y-108316076D01*
X148372600Y-108328752D01*
G36*
X148873595Y-108336966D02*
G01*
X148931021Y-108374497D01*
X148958719Y-108408096D01*
X148980662Y-108469064D01*
X148982405Y-108517308D01*
X148978457Y-108581816D01*
X148829686Y-108646934D01*
X148757349Y-108680202D01*
X148710084Y-108706964D01*
X148685507Y-108730144D01*
X148681237Y-108752667D01*
X148694889Y-108777455D01*
X148709943Y-108793886D01*
X148753746Y-108820235D01*
X148801389Y-108822081D01*
X148845145Y-108801546D01*
X148877289Y-108760752D01*
X148883038Y-108746347D01*
X148910576Y-108701356D01*
X148942258Y-108682182D01*
X148985714Y-108665779D01*
X148985714Y-108727966D01*
X148981872Y-108770283D01*
X148966823Y-108805969D01*
X148935280Y-108846943D01*
X148930592Y-108852267D01*
X148895506Y-108888720D01*
X148865347Y-108908283D01*
X148827615Y-108917283D01*
X148796335Y-108920230D01*
X148740385Y-108920965D01*
X148700555Y-108911660D01*
X148675708Y-108897846D01*
X148636656Y-108867467D01*
X148609625Y-108834613D01*
X148592517Y-108793294D01*
X148583238Y-108737521D01*
X148579693Y-108661305D01*
X148579410Y-108622622D01*
X148580372Y-108576247D01*
X148668007Y-108576247D01*
X148669023Y-108601126D01*
X148671556Y-108605200D01*
X148688274Y-108599665D01*
X148724249Y-108585017D01*
X148772331Y-108564190D01*
X148782386Y-108559714D01*
X148843152Y-108528814D01*
X148876632Y-108501657D01*
X148883990Y-108476220D01*
X148866391Y-108450481D01*
X148851856Y-108439109D01*
X148799410Y-108416364D01*
X148750322Y-108420122D01*
X148709227Y-108447884D01*
X148680758Y-108497152D01*
X148671631Y-108536257D01*
X148668007Y-108576247D01*
X148580372Y-108576247D01*
X148581285Y-108532249D01*
X148588196Y-108465384D01*
X148601884Y-108416695D01*
X148624096Y-108380849D01*
X148656574Y-108352513D01*
X148670733Y-108343355D01*
X148735053Y-108319507D01*
X148805473Y-108318006D01*
X148873595Y-108336966D01*
G37*
X148873595Y-108336966D02*
X148931021Y-108374497D01*
X148958719Y-108408096D01*
X148980662Y-108469064D01*
X148982405Y-108517308D01*
X148978457Y-108581816D01*
X148829686Y-108646934D01*
X148757349Y-108680202D01*
X148710084Y-108706964D01*
X148685507Y-108730144D01*
X148681237Y-108752667D01*
X148694889Y-108777455D01*
X148709943Y-108793886D01*
X148753746Y-108820235D01*
X148801389Y-108822081D01*
X148845145Y-108801546D01*
X148877289Y-108760752D01*
X148883038Y-108746347D01*
X148910576Y-108701356D01*
X148942258Y-108682182D01*
X148985714Y-108665779D01*
X148985714Y-108727966D01*
X148981872Y-108770283D01*
X148966823Y-108805969D01*
X148935280Y-108846943D01*
X148930592Y-108852267D01*
X148895506Y-108888720D01*
X148865347Y-108908283D01*
X148827615Y-108917283D01*
X148796335Y-108920230D01*
X148740385Y-108920965D01*
X148700555Y-108911660D01*
X148675708Y-108897846D01*
X148636656Y-108867467D01*
X148609625Y-108834613D01*
X148592517Y-108793294D01*
X148583238Y-108737521D01*
X148579693Y-108661305D01*
X148579410Y-108622622D01*
X148580372Y-108576247D01*
X148668007Y-108576247D01*
X148669023Y-108601126D01*
X148671556Y-108605200D01*
X148688274Y-108599665D01*
X148724249Y-108585017D01*
X148772331Y-108564190D01*
X148782386Y-108559714D01*
X148843152Y-108528814D01*
X148876632Y-108501657D01*
X148883990Y-108476220D01*
X148866391Y-108450481D01*
X148851856Y-108439109D01*
X148799410Y-108416364D01*
X148750322Y-108420122D01*
X148709227Y-108447884D01*
X148680758Y-108497152D01*
X148671631Y-108536257D01*
X148668007Y-108576247D01*
X148580372Y-108576247D01*
X148581285Y-108532249D01*
X148588196Y-108465384D01*
X148601884Y-108416695D01*
X148624096Y-108380849D01*
X148656574Y-108352513D01*
X148670733Y-108343355D01*
X148735053Y-108319507D01*
X148805473Y-108318006D01*
X148873595Y-108336966D01*
G36*
X145823910Y-103612348D02*
G01*
X145902454Y-103612778D01*
X145959298Y-103613942D01*
X145998105Y-103616207D01*
X146022538Y-103619940D01*
X146036262Y-103625506D01*
X146042940Y-103633273D01*
X146046236Y-103643605D01*
X146046556Y-103644943D01*
X146051562Y-103669079D01*
X146060829Y-103716701D01*
X146073392Y-103782741D01*
X146088287Y-103862128D01*
X146104551Y-103949796D01*
X146105119Y-103952875D01*
X146121410Y-104038789D01*
X146136652Y-104114696D01*
X146149861Y-104176045D01*
X146160054Y-104218282D01*
X146166248Y-104236855D01*
X146166543Y-104237184D01*
X146184788Y-104246253D01*
X146222405Y-104261367D01*
X146271271Y-104279262D01*
X146271543Y-104279358D01*
X146333093Y-104302493D01*
X146405657Y-104331965D01*
X146474057Y-104361597D01*
X146477294Y-104363062D01*
X146588702Y-104413626D01*
X146835399Y-104245160D01*
X146911077Y-104193803D01*
X146979631Y-104147889D01*
X147037088Y-104110030D01*
X147079476Y-104082837D01*
X147102825Y-104068921D01*
X147105042Y-104067889D01*
X147122010Y-104072484D01*
X147153701Y-104094655D01*
X147201352Y-104135447D01*
X147266198Y-104195905D01*
X147332397Y-104260227D01*
X147396214Y-104323612D01*
X147453329Y-104381451D01*
X147500305Y-104430175D01*
X147533703Y-104466210D01*
X147550085Y-104485984D01*
X147550694Y-104487002D01*
X147552505Y-104500572D01*
X147545683Y-104522733D01*
X147528540Y-104556478D01*
X147499393Y-104604800D01*
X147456555Y-104670692D01*
X147399448Y-104755517D01*
X147348766Y-104830177D01*
X147303461Y-104897140D01*
X147266150Y-104952516D01*
X147239452Y-104992420D01*
X147225985Y-105012962D01*
X147225137Y-105014356D01*
X147226781Y-105034038D01*
X147239245Y-105072293D01*
X147260048Y-105121889D01*
X147267462Y-105137728D01*
X147299814Y-105208290D01*
X147334328Y-105288353D01*
X147362365Y-105357629D01*
X147382568Y-105409045D01*
X147398615Y-105448119D01*
X147407888Y-105468541D01*
X147409041Y-105470114D01*
X147426096Y-105472721D01*
X147466298Y-105479863D01*
X147524302Y-105490523D01*
X147594763Y-105503685D01*
X147672335Y-105518333D01*
X147751672Y-105533449D01*
X147827431Y-105548018D01*
X147894264Y-105561022D01*
X147946828Y-105571445D01*
X147979776Y-105578270D01*
X147987857Y-105580199D01*
X147996205Y-105584962D01*
X148002506Y-105595718D01*
X148007045Y-105616098D01*
X148010104Y-105649734D01*
X148011967Y-105700255D01*
X148012918Y-105771292D01*
X148013240Y-105866476D01*
X148013257Y-105905492D01*
X148013257Y-106222799D01*
X147937057Y-106237839D01*
X147894663Y-106245995D01*
X147831400Y-106257899D01*
X147754962Y-106272116D01*
X147673043Y-106287210D01*
X147650400Y-106291355D01*
X147574806Y-106306053D01*
X147508953Y-106320505D01*
X147458366Y-106333375D01*
X147428574Y-106343322D01*
X147423612Y-106346287D01*
X147411426Y-106367283D01*
X147393953Y-106407967D01*
X147374577Y-106460322D01*
X147370734Y-106471600D01*
X147345339Y-106541523D01*
X147313817Y-106620418D01*
X147282969Y-106691266D01*
X147282817Y-106691595D01*
X147231447Y-106802733D01*
X147400399Y-107051253D01*
X147569352Y-107299772D01*
X147352429Y-107517058D01*
X147286819Y-107581726D01*
X147226979Y-107638733D01*
X147176267Y-107685033D01*
X147138046Y-107717584D01*
X147115675Y-107733343D01*
X147112466Y-107734343D01*
X147093626Y-107726469D01*
X147055180Y-107704578D01*
X147001330Y-107671267D01*
X146936276Y-107629131D01*
X146865940Y-107581943D01*
X146794555Y-107533810D01*
X146730908Y-107491928D01*
X146679041Y-107458871D01*
X146642995Y-107437218D01*
X146626867Y-107429543D01*
X146607189Y-107436037D01*
X146569875Y-107453150D01*
X146522621Y-107477326D01*
X146517612Y-107480013D01*
X146453977Y-107511927D01*
X146410341Y-107527579D01*
X146383202Y-107527745D01*
X146369057Y-107513204D01*
X146368975Y-107513000D01*
X146361905Y-107495779D01*
X146345042Y-107454899D01*
X146319695Y-107393525D01*
X146287171Y-107314819D01*
X146248778Y-107221947D01*
X146205822Y-107118072D01*
X146164222Y-107017502D01*
X146118504Y-106906516D01*
X146076526Y-106803703D01*
X146039548Y-106712215D01*
X146008827Y-106635201D01*
X145985622Y-106575815D01*
X145971190Y-106537209D01*
X145966743Y-106522800D01*
X145977896Y-106506272D01*
X146007069Y-106479930D01*
X146045971Y-106450887D01*
X146156757Y-106359039D01*
X146243351Y-106253759D01*
X146304716Y-106137266D01*
X146339815Y-106011776D01*
X146347608Y-105879507D01*
X146341943Y-105818457D01*
X146311078Y-105691795D01*
X146257920Y-105579941D01*
X146185767Y-105484001D01*
X146097917Y-105405076D01*
X145997665Y-105344270D01*
X145888310Y-105302687D01*
X145773147Y-105281428D01*
X145655475Y-105281599D01*
X145538590Y-105304301D01*
X145425789Y-105350638D01*
X145320369Y-105421713D01*
X145276368Y-105461911D01*
X145191979Y-105565129D01*
X145133222Y-105677925D01*
X145099704Y-105797010D01*
X145091035Y-105919095D01*
X145106823Y-106040893D01*
X145146678Y-106159116D01*
X145210207Y-106270475D01*
X145297021Y-106371684D01*
X145394029Y-106450887D01*
X145434437Y-106481162D01*
X145462982Y-106507219D01*
X145473257Y-106522825D01*
X145467877Y-106539843D01*
X145452575Y-106580500D01*
X145428612Y-106641642D01*
X145397244Y-106720119D01*
X145359732Y-106812780D01*
X145317333Y-106916472D01*
X145275663Y-107017526D01*
X145229690Y-107128607D01*
X145187107Y-107231541D01*
X145149221Y-107323165D01*
X145117340Y-107400316D01*
X145092771Y-107459831D01*
X145076820Y-107498544D01*
X145070910Y-107513000D01*
X145056948Y-107527685D01*
X145029940Y-107527642D01*
X144986413Y-107512099D01*
X144922890Y-107480284D01*
X144922388Y-107480013D01*
X144874560Y-107455323D01*
X144835897Y-107437338D01*
X144814095Y-107429614D01*
X144813133Y-107429543D01*
X144796721Y-107437378D01*
X144760487Y-107459165D01*
X144708474Y-107492328D01*
X144644725Y-107534291D01*
X144574060Y-107581943D01*
X144502116Y-107630191D01*
X144437274Y-107672151D01*
X144383735Y-107705227D01*
X144345697Y-107726821D01*
X144327533Y-107734343D01*
X144310808Y-107724457D01*
X144277180Y-107696826D01*
X144230010Y-107654495D01*
X144172658Y-107600505D01*
X144108484Y-107537899D01*
X144087497Y-107516983D01*
X143870499Y-107299623D01*
X144035668Y-107057220D01*
X144085864Y-106982781D01*
X144129919Y-106915972D01*
X144165362Y-106860665D01*
X144189719Y-106820729D01*
X144200522Y-106800036D01*
X144200838Y-106798563D01*
X144195143Y-106779058D01*
X144179826Y-106739822D01*
X144157537Y-106687430D01*
X144141893Y-106652355D01*
X144112641Y-106585201D01*
X144085094Y-106517358D01*
X144063737Y-106460034D01*
X144057935Y-106442572D01*
X144041452Y-106395938D01*
X144025340Y-106359905D01*
X144016490Y-106346287D01*
X143996960Y-106337952D01*
X143954334Y-106326137D01*
X143894145Y-106312181D01*
X143821922Y-106297422D01*
X143789600Y-106291355D01*
X143707522Y-106276273D01*
X143628795Y-106261669D01*
X143561109Y-106248980D01*
X143512160Y-106239642D01*
X143502943Y-106237839D01*
X143426743Y-106222799D01*
X143426743Y-105905492D01*
X143426914Y-105801154D01*
X143427616Y-105722213D01*
X143429134Y-105665038D01*
X143431749Y-105625999D01*
X143435746Y-105601465D01*
X143441409Y-105587805D01*
X143449020Y-105581389D01*
X143452143Y-105580199D01*
X143470978Y-105575980D01*
X143512588Y-105567562D01*
X143571630Y-105555961D01*
X143642757Y-105542195D01*
X143720625Y-105527280D01*
X143799887Y-105512232D01*
X143875198Y-105498069D01*
X143941213Y-105485806D01*
X143992587Y-105476461D01*
X144023975Y-105471050D01*
X144030959Y-105470114D01*
X144037285Y-105457596D01*
X144051290Y-105424246D01*
X144070355Y-105376377D01*
X144077634Y-105357629D01*
X144106996Y-105285195D01*
X144141571Y-105205170D01*
X144172537Y-105137728D01*
X144195323Y-105086159D01*
X144210482Y-105043785D01*
X144215542Y-105017834D01*
X144214736Y-105014356D01*
X144204041Y-104997936D01*
X144179620Y-104961417D01*
X144144095Y-104908687D01*
X144100087Y-104843635D01*
X144050217Y-104770151D01*
X144040356Y-104755645D01*
X143982492Y-104669704D01*
X143939956Y-104604261D01*
X143911054Y-104556304D01*
X143894090Y-104522820D01*
X143887367Y-104500795D01*
X143889190Y-104487217D01*
X143889236Y-104487131D01*
X143903586Y-104469297D01*
X143935323Y-104434817D01*
X143981010Y-104387268D01*
X144037204Y-104330222D01*
X144100468Y-104267255D01*
X144107602Y-104260227D01*
X144187330Y-104183020D01*
X144248857Y-104126330D01*
X144293421Y-104089110D01*
X144322257Y-104070315D01*
X144334958Y-104067889D01*
X144353494Y-104078471D01*
X144391961Y-104102916D01*
X144446386Y-104138612D01*
X144512798Y-104182947D01*
X144587225Y-104233311D01*
X144604601Y-104245160D01*
X144851297Y-104413626D01*
X144962706Y-104363062D01*
X145030457Y-104333595D01*
X145103183Y-104303959D01*
X145165703Y-104280330D01*
X145168457Y-104279358D01*
X145217360Y-104261457D01*
X145255057Y-104246320D01*
X145273425Y-104237210D01*
X145273456Y-104237184D01*
X145279285Y-104220717D01*
X145289192Y-104180219D01*
X145302195Y-104120242D01*
X145317309Y-104045340D01*
X145333552Y-103960064D01*
X145334881Y-103952875D01*
X145351175Y-103865014D01*
X145366133Y-103785260D01*
X145378791Y-103718681D01*
X145388186Y-103670347D01*
X145393354Y-103645325D01*
X145393444Y-103644943D01*
X145396589Y-103634299D01*
X145402704Y-103626262D01*
X145415453Y-103620467D01*
X145438500Y-103616547D01*
X145475509Y-103614135D01*
X145530144Y-103612865D01*
X145606067Y-103612371D01*
X145706944Y-103612286D01*
X145720000Y-103612286D01*
X145823910Y-103612348D01*
G37*
X145823910Y-103612348D02*
X145902454Y-103612778D01*
X145959298Y-103613942D01*
X145998105Y-103616207D01*
X146022538Y-103619940D01*
X146036262Y-103625506D01*
X146042940Y-103633273D01*
X146046236Y-103643605D01*
X146046556Y-103644943D01*
X146051562Y-103669079D01*
X146060829Y-103716701D01*
X146073392Y-103782741D01*
X146088287Y-103862128D01*
X146104551Y-103949796D01*
X146105119Y-103952875D01*
X146121410Y-104038789D01*
X146136652Y-104114696D01*
X146149861Y-104176045D01*
X146160054Y-104218282D01*
X146166248Y-104236855D01*
X146166543Y-104237184D01*
X146184788Y-104246253D01*
X146222405Y-104261367D01*
X146271271Y-104279262D01*
X146271543Y-104279358D01*
X146333093Y-104302493D01*
X146405657Y-104331965D01*
X146474057Y-104361597D01*
X146477294Y-104363062D01*
X146588702Y-104413626D01*
X146835399Y-104245160D01*
X146911077Y-104193803D01*
X146979631Y-104147889D01*
X147037088Y-104110030D01*
X147079476Y-104082837D01*
X147102825Y-104068921D01*
X147105042Y-104067889D01*
X147122010Y-104072484D01*
X147153701Y-104094655D01*
X147201352Y-104135447D01*
X147266198Y-104195905D01*
X147332397Y-104260227D01*
X147396214Y-104323612D01*
X147453329Y-104381451D01*
X147500305Y-104430175D01*
X147533703Y-104466210D01*
X147550085Y-104485984D01*
X147550694Y-104487002D01*
X147552505Y-104500572D01*
X147545683Y-104522733D01*
X147528540Y-104556478D01*
X147499393Y-104604800D01*
X147456555Y-104670692D01*
X147399448Y-104755517D01*
X147348766Y-104830177D01*
X147303461Y-104897140D01*
X147266150Y-104952516D01*
X147239452Y-104992420D01*
X147225985Y-105012962D01*
X147225137Y-105014356D01*
X147226781Y-105034038D01*
X147239245Y-105072293D01*
X147260048Y-105121889D01*
X147267462Y-105137728D01*
X147299814Y-105208290D01*
X147334328Y-105288353D01*
X147362365Y-105357629D01*
X147382568Y-105409045D01*
X147398615Y-105448119D01*
X147407888Y-105468541D01*
X147409041Y-105470114D01*
X147426096Y-105472721D01*
X147466298Y-105479863D01*
X147524302Y-105490523D01*
X147594763Y-105503685D01*
X147672335Y-105518333D01*
X147751672Y-105533449D01*
X147827431Y-105548018D01*
X147894264Y-105561022D01*
X147946828Y-105571445D01*
X147979776Y-105578270D01*
X147987857Y-105580199D01*
X147996205Y-105584962D01*
X148002506Y-105595718D01*
X148007045Y-105616098D01*
X148010104Y-105649734D01*
X148011967Y-105700255D01*
X148012918Y-105771292D01*
X148013240Y-105866476D01*
X148013257Y-105905492D01*
X148013257Y-106222799D01*
X147937057Y-106237839D01*
X147894663Y-106245995D01*
X147831400Y-106257899D01*
X147754962Y-106272116D01*
X147673043Y-106287210D01*
X147650400Y-106291355D01*
X147574806Y-106306053D01*
X147508953Y-106320505D01*
X147458366Y-106333375D01*
X147428574Y-106343322D01*
X147423612Y-106346287D01*
X147411426Y-106367283D01*
X147393953Y-106407967D01*
X147374577Y-106460322D01*
X147370734Y-106471600D01*
X147345339Y-106541523D01*
X147313817Y-106620418D01*
X147282969Y-106691266D01*
X147282817Y-106691595D01*
X147231447Y-106802733D01*
X147400399Y-107051253D01*
X147569352Y-107299772D01*
X147352429Y-107517058D01*
X147286819Y-107581726D01*
X147226979Y-107638733D01*
X147176267Y-107685033D01*
X147138046Y-107717584D01*
X147115675Y-107733343D01*
X147112466Y-107734343D01*
X147093626Y-107726469D01*
X147055180Y-107704578D01*
X147001330Y-107671267D01*
X146936276Y-107629131D01*
X146865940Y-107581943D01*
X146794555Y-107533810D01*
X146730908Y-107491928D01*
X146679041Y-107458871D01*
X146642995Y-107437218D01*
X146626867Y-107429543D01*
X146607189Y-107436037D01*
X146569875Y-107453150D01*
X146522621Y-107477326D01*
X146517612Y-107480013D01*
X146453977Y-107511927D01*
X146410341Y-107527579D01*
X146383202Y-107527745D01*
X146369057Y-107513204D01*
X146368975Y-107513000D01*
X146361905Y-107495779D01*
X146345042Y-107454899D01*
X146319695Y-107393525D01*
X146287171Y-107314819D01*
X146248778Y-107221947D01*
X146205822Y-107118072D01*
X146164222Y-107017502D01*
X146118504Y-106906516D01*
X146076526Y-106803703D01*
X146039548Y-106712215D01*
X146008827Y-106635201D01*
X145985622Y-106575815D01*
X145971190Y-106537209D01*
X145966743Y-106522800D01*
X145977896Y-106506272D01*
X146007069Y-106479930D01*
X146045971Y-106450887D01*
X146156757Y-106359039D01*
X146243351Y-106253759D01*
X146304716Y-106137266D01*
X146339815Y-106011776D01*
X146347608Y-105879507D01*
X146341943Y-105818457D01*
X146311078Y-105691795D01*
X146257920Y-105579941D01*
X146185767Y-105484001D01*
X146097917Y-105405076D01*
X145997665Y-105344270D01*
X145888310Y-105302687D01*
X145773147Y-105281428D01*
X145655475Y-105281599D01*
X145538590Y-105304301D01*
X145425789Y-105350638D01*
X145320369Y-105421713D01*
X145276368Y-105461911D01*
X145191979Y-105565129D01*
X145133222Y-105677925D01*
X145099704Y-105797010D01*
X145091035Y-105919095D01*
X145106823Y-106040893D01*
X145146678Y-106159116D01*
X145210207Y-106270475D01*
X145297021Y-106371684D01*
X145394029Y-106450887D01*
X145434437Y-106481162D01*
X145462982Y-106507219D01*
X145473257Y-106522825D01*
X145467877Y-106539843D01*
X145452575Y-106580500D01*
X145428612Y-106641642D01*
X145397244Y-106720119D01*
X145359732Y-106812780D01*
X145317333Y-106916472D01*
X145275663Y-107017526D01*
X145229690Y-107128607D01*
X145187107Y-107231541D01*
X145149221Y-107323165D01*
X145117340Y-107400316D01*
X145092771Y-107459831D01*
X145076820Y-107498544D01*
X145070910Y-107513000D01*
X145056948Y-107527685D01*
X145029940Y-107527642D01*
X144986413Y-107512099D01*
X144922890Y-107480284D01*
X144922388Y-107480013D01*
X144874560Y-107455323D01*
X144835897Y-107437338D01*
X144814095Y-107429614D01*
X144813133Y-107429543D01*
X144796721Y-107437378D01*
X144760487Y-107459165D01*
X144708474Y-107492328D01*
X144644725Y-107534291D01*
X144574060Y-107581943D01*
X144502116Y-107630191D01*
X144437274Y-107672151D01*
X144383735Y-107705227D01*
X144345697Y-107726821D01*
X144327533Y-107734343D01*
X144310808Y-107724457D01*
X144277180Y-107696826D01*
X144230010Y-107654495D01*
X144172658Y-107600505D01*
X144108484Y-107537899D01*
X144087497Y-107516983D01*
X143870499Y-107299623D01*
X144035668Y-107057220D01*
X144085864Y-106982781D01*
X144129919Y-106915972D01*
X144165362Y-106860665D01*
X144189719Y-106820729D01*
X144200522Y-106800036D01*
X144200838Y-106798563D01*
X144195143Y-106779058D01*
X144179826Y-106739822D01*
X144157537Y-106687430D01*
X144141893Y-106652355D01*
X144112641Y-106585201D01*
X144085094Y-106517358D01*
X144063737Y-106460034D01*
X144057935Y-106442572D01*
X144041452Y-106395938D01*
X144025340Y-106359905D01*
X144016490Y-106346287D01*
X143996960Y-106337952D01*
X143954334Y-106326137D01*
X143894145Y-106312181D01*
X143821922Y-106297422D01*
X143789600Y-106291355D01*
X143707522Y-106276273D01*
X143628795Y-106261669D01*
X143561109Y-106248980D01*
X143512160Y-106239642D01*
X143502943Y-106237839D01*
X143426743Y-106222799D01*
X143426743Y-105905492D01*
X143426914Y-105801154D01*
X143427616Y-105722213D01*
X143429134Y-105665038D01*
X143431749Y-105625999D01*
X143435746Y-105601465D01*
X143441409Y-105587805D01*
X143449020Y-105581389D01*
X143452143Y-105580199D01*
X143470978Y-105575980D01*
X143512588Y-105567562D01*
X143571630Y-105555961D01*
X143642757Y-105542195D01*
X143720625Y-105527280D01*
X143799887Y-105512232D01*
X143875198Y-105498069D01*
X143941213Y-105485806D01*
X143992587Y-105476461D01*
X144023975Y-105471050D01*
X144030959Y-105470114D01*
X144037285Y-105457596D01*
X144051290Y-105424246D01*
X144070355Y-105376377D01*
X144077634Y-105357629D01*
X144106996Y-105285195D01*
X144141571Y-105205170D01*
X144172537Y-105137728D01*
X144195323Y-105086159D01*
X144210482Y-105043785D01*
X144215542Y-105017834D01*
X144214736Y-105014356D01*
X144204041Y-104997936D01*
X144179620Y-104961417D01*
X144144095Y-104908687D01*
X144100087Y-104843635D01*
X144050217Y-104770151D01*
X144040356Y-104755645D01*
X143982492Y-104669704D01*
X143939956Y-104604261D01*
X143911054Y-104556304D01*
X143894090Y-104522820D01*
X143887367Y-104500795D01*
X143889190Y-104487217D01*
X143889236Y-104487131D01*
X143903586Y-104469297D01*
X143935323Y-104434817D01*
X143981010Y-104387268D01*
X144037204Y-104330222D01*
X144100468Y-104267255D01*
X144107602Y-104260227D01*
X144187330Y-104183020D01*
X144248857Y-104126330D01*
X144293421Y-104089110D01*
X144322257Y-104070315D01*
X144334958Y-104067889D01*
X144353494Y-104078471D01*
X144391961Y-104102916D01*
X144446386Y-104138612D01*
X144512798Y-104182947D01*
X144587225Y-104233311D01*
X144604601Y-104245160D01*
X144851297Y-104413626D01*
X144962706Y-104363062D01*
X145030457Y-104333595D01*
X145103183Y-104303959D01*
X145165703Y-104280330D01*
X145168457Y-104279358D01*
X145217360Y-104261457D01*
X145255057Y-104246320D01*
X145273425Y-104237210D01*
X145273456Y-104237184D01*
X145279285Y-104220717D01*
X145289192Y-104180219D01*
X145302195Y-104120242D01*
X145317309Y-104045340D01*
X145333552Y-103960064D01*
X145334881Y-103952875D01*
X145351175Y-103865014D01*
X145366133Y-103785260D01*
X145378791Y-103718681D01*
X145388186Y-103670347D01*
X145393354Y-103645325D01*
X145393444Y-103644943D01*
X145396589Y-103634299D01*
X145402704Y-103626262D01*
X145415453Y-103620467D01*
X145438500Y-103616547D01*
X145475509Y-103614135D01*
X145530144Y-103612865D01*
X145606067Y-103612371D01*
X145706944Y-103612286D01*
X145720000Y-103612286D01*
X145823910Y-103612348D01*
G36*
X152792094Y-106331158D02*
G01*
X152824619Y-106343736D01*
X152874193Y-106368712D01*
X152945374Y-106407876D01*
X152950916Y-106410988D01*
X153016474Y-106448476D01*
X153071798Y-106481319D01*
X153111455Y-106506205D01*
X153130012Y-106519820D01*
X153130531Y-106520487D01*
X153126048Y-106539390D01*
X153105486Y-106581605D01*
X153070183Y-106644832D01*
X153021480Y-106726772D01*
X152960718Y-106825122D01*
X152889236Y-106937585D01*
X152871445Y-106965165D01*
X152825093Y-107041699D01*
X152791342Y-107107556D01*
X152773153Y-107156782D01*
X152771286Y-107166507D01*
X152772115Y-107209312D01*
X152781394Y-107277209D01*
X152797968Y-107365843D01*
X152820680Y-107470859D01*
X152848373Y-107587902D01*
X152879890Y-107712616D01*
X152914075Y-107840645D01*
X152949771Y-107967634D01*
X152985821Y-108089228D01*
X153021068Y-108201072D01*
X153054356Y-108298810D01*
X153084528Y-108378087D01*
X153105561Y-108425122D01*
X153130337Y-108475225D01*
X153153730Y-108523168D01*
X153154997Y-108525793D01*
X153193699Y-108574220D01*
X153250184Y-108606828D01*
X153315939Y-108622454D01*
X153382451Y-108619937D01*
X153441205Y-108598114D01*
X153474258Y-108569382D01*
X153521859Y-108490583D01*
X153556739Y-108392378D01*
X153575877Y-108284779D01*
X153578588Y-108223780D01*
X153567670Y-108109935D01*
X153535624Y-108015660D01*
X153480726Y-107936379D01*
X153463607Y-107918733D01*
X153412661Y-107869235D01*
X153409163Y-107519362D01*
X153405664Y-107169489D01*
X153494818Y-107034531D01*
X153536654Y-106973445D01*
X153576945Y-106918493D01*
X153609943Y-106877336D01*
X153624126Y-106862192D01*
X153664281Y-106824810D01*
X153718665Y-106854098D01*
X153753039Y-106875084D01*
X153771846Y-106891378D01*
X153773049Y-106894307D01*
X153785903Y-106906728D01*
X153807896Y-106915977D01*
X153829150Y-106924313D01*
X153861694Y-106940149D01*
X153908322Y-106965033D01*
X153971829Y-107000509D01*
X154055008Y-107048123D01*
X154160653Y-107109422D01*
X154218062Y-107142932D01*
X154285594Y-107183071D01*
X154329885Y-107211659D01*
X154354855Y-107232039D01*
X154364423Y-107247553D01*
X154362508Y-107261546D01*
X154360911Y-107264796D01*
X154345376Y-107285266D01*
X154312136Y-107323665D01*
X154265062Y-107375696D01*
X154208028Y-107437066D01*
X154158700Y-107489090D01*
X154045030Y-107612567D01*
X153956105Y-107719591D01*
X153891134Y-107811240D01*
X153849321Y-107888588D01*
X153835217Y-107927866D01*
X153829392Y-107962249D01*
X153823375Y-108020899D01*
X153817696Y-108097117D01*
X153812884Y-108184202D01*
X153810619Y-108239268D01*
X153807459Y-108334464D01*
X153806069Y-108404062D01*
X153806858Y-108453409D01*
X153810235Y-108487854D01*
X153816608Y-108512743D01*
X153826387Y-108533425D01*
X153834067Y-108546053D01*
X153878421Y-108594726D01*
X153935574Y-108628645D01*
X153995708Y-108643438D01*
X154040773Y-108638086D01*
X154081576Y-108614930D01*
X154132724Y-108573462D01*
X154187042Y-108520912D01*
X154237357Y-108464516D01*
X154276494Y-108411505D01*
X154290905Y-108385889D01*
X154312491Y-108350814D01*
X154351753Y-108297389D01*
X154405102Y-108229789D01*
X154468952Y-108152190D01*
X154539715Y-108068768D01*
X154613804Y-107983698D01*
X154687632Y-107901155D01*
X154757611Y-107825316D01*
X154820155Y-107760356D01*
X154869260Y-107712669D01*
X154923779Y-107665032D01*
X154969642Y-107629908D01*
X155001811Y-107610949D01*
X155012489Y-107608864D01*
X155028853Y-107617274D01*
X155069671Y-107639846D01*
X155132586Y-107675224D01*
X155215244Y-107722054D01*
X155315289Y-107778981D01*
X155430366Y-107844649D01*
X155558119Y-107917703D01*
X155696194Y-107996788D01*
X155842234Y-108080548D01*
X155993884Y-108167629D01*
X156148790Y-108256676D01*
X156304595Y-108346332D01*
X156458944Y-108435243D01*
X156609482Y-108522054D01*
X156753854Y-108605409D01*
X156889704Y-108683954D01*
X157014677Y-108756333D01*
X157126417Y-108821190D01*
X157222570Y-108877171D01*
X157300779Y-108922920D01*
X157358689Y-108957083D01*
X157393946Y-108978304D01*
X157404165Y-108984963D01*
X157390402Y-108986280D01*
X157347104Y-108987559D01*
X157275714Y-108988796D01*
X157177673Y-108989983D01*
X157054422Y-108991115D01*
X156907403Y-108992186D01*
X156738057Y-108993189D01*
X156547826Y-108994119D01*
X156338151Y-108994968D01*
X156110473Y-108995732D01*
X155866235Y-108996403D01*
X155606877Y-108996976D01*
X155333841Y-108997444D01*
X155048568Y-108997802D01*
X154752500Y-108998042D01*
X154447079Y-108998159D01*
X154318924Y-108998171D01*
X151218970Y-108998171D01*
X151440053Y-108614847D01*
X151486856Y-108533680D01*
X151547102Y-108429166D01*
X151618778Y-108304801D01*
X151699869Y-108164082D01*
X151788362Y-108010503D01*
X151882240Y-107847562D01*
X151979491Y-107678754D01*
X152078100Y-107507575D01*
X152176053Y-107337521D01*
X152200825Y-107294512D01*
X152291152Y-107137857D01*
X152377289Y-106988803D01*
X152457942Y-106849568D01*
X152531816Y-106722371D01*
X152597617Y-106609432D01*
X152654050Y-106512968D01*
X152699821Y-106435200D01*
X152733635Y-106378346D01*
X152754198Y-106344625D01*
X152759953Y-106336040D01*
X152772058Y-106329189D01*
X152792094Y-106331158D01*
G37*
X152792094Y-106331158D02*
X152824619Y-106343736D01*
X152874193Y-106368712D01*
X152945374Y-106407876D01*
X152950916Y-106410988D01*
X153016474Y-106448476D01*
X153071798Y-106481319D01*
X153111455Y-106506205D01*
X153130012Y-106519820D01*
X153130531Y-106520487D01*
X153126048Y-106539390D01*
X153105486Y-106581605D01*
X153070183Y-106644832D01*
X153021480Y-106726772D01*
X152960718Y-106825122D01*
X152889236Y-106937585D01*
X152871445Y-106965165D01*
X152825093Y-107041699D01*
X152791342Y-107107556D01*
X152773153Y-107156782D01*
X152771286Y-107166507D01*
X152772115Y-107209312D01*
X152781394Y-107277209D01*
X152797968Y-107365843D01*
X152820680Y-107470859D01*
X152848373Y-107587902D01*
X152879890Y-107712616D01*
X152914075Y-107840645D01*
X152949771Y-107967634D01*
X152985821Y-108089228D01*
X153021068Y-108201072D01*
X153054356Y-108298810D01*
X153084528Y-108378087D01*
X153105561Y-108425122D01*
X153130337Y-108475225D01*
X153153730Y-108523168D01*
X153154997Y-108525793D01*
X153193699Y-108574220D01*
X153250184Y-108606828D01*
X153315939Y-108622454D01*
X153382451Y-108619937D01*
X153441205Y-108598114D01*
X153474258Y-108569382D01*
X153521859Y-108490583D01*
X153556739Y-108392378D01*
X153575877Y-108284779D01*
X153578588Y-108223780D01*
X153567670Y-108109935D01*
X153535624Y-108015660D01*
X153480726Y-107936379D01*
X153463607Y-107918733D01*
X153412661Y-107869235D01*
X153409163Y-107519362D01*
X153405664Y-107169489D01*
X153494818Y-107034531D01*
X153536654Y-106973445D01*
X153576945Y-106918493D01*
X153609943Y-106877336D01*
X153624126Y-106862192D01*
X153664281Y-106824810D01*
X153718665Y-106854098D01*
X153753039Y-106875084D01*
X153771846Y-106891378D01*
X153773049Y-106894307D01*
X153785903Y-106906728D01*
X153807896Y-106915977D01*
X153829150Y-106924313D01*
X153861694Y-106940149D01*
X153908322Y-106965033D01*
X153971829Y-107000509D01*
X154055008Y-107048123D01*
X154160653Y-107109422D01*
X154218062Y-107142932D01*
X154285594Y-107183071D01*
X154329885Y-107211659D01*
X154354855Y-107232039D01*
X154364423Y-107247553D01*
X154362508Y-107261546D01*
X154360911Y-107264796D01*
X154345376Y-107285266D01*
X154312136Y-107323665D01*
X154265062Y-107375696D01*
X154208028Y-107437066D01*
X154158700Y-107489090D01*
X154045030Y-107612567D01*
X153956105Y-107719591D01*
X153891134Y-107811240D01*
X153849321Y-107888588D01*
X153835217Y-107927866D01*
X153829392Y-107962249D01*
X153823375Y-108020899D01*
X153817696Y-108097117D01*
X153812884Y-108184202D01*
X153810619Y-108239268D01*
X153807459Y-108334464D01*
X153806069Y-108404062D01*
X153806858Y-108453409D01*
X153810235Y-108487854D01*
X153816608Y-108512743D01*
X153826387Y-108533425D01*
X153834067Y-108546053D01*
X153878421Y-108594726D01*
X153935574Y-108628645D01*
X153995708Y-108643438D01*
X154040773Y-108638086D01*
X154081576Y-108614930D01*
X154132724Y-108573462D01*
X154187042Y-108520912D01*
X154237357Y-108464516D01*
X154276494Y-108411505D01*
X154290905Y-108385889D01*
X154312491Y-108350814D01*
X154351753Y-108297389D01*
X154405102Y-108229789D01*
X154468952Y-108152190D01*
X154539715Y-108068768D01*
X154613804Y-107983698D01*
X154687632Y-107901155D01*
X154757611Y-107825316D01*
X154820155Y-107760356D01*
X154869260Y-107712669D01*
X154923779Y-107665032D01*
X154969642Y-107629908D01*
X155001811Y-107610949D01*
X155012489Y-107608864D01*
X155028853Y-107617274D01*
X155069671Y-107639846D01*
X155132586Y-107675224D01*
X155215244Y-107722054D01*
X155315289Y-107778981D01*
X155430366Y-107844649D01*
X155558119Y-107917703D01*
X155696194Y-107996788D01*
X155842234Y-108080548D01*
X155993884Y-108167629D01*
X156148790Y-108256676D01*
X156304595Y-108346332D01*
X156458944Y-108435243D01*
X156609482Y-108522054D01*
X156753854Y-108605409D01*
X156889704Y-108683954D01*
X157014677Y-108756333D01*
X157126417Y-108821190D01*
X157222570Y-108877171D01*
X157300779Y-108922920D01*
X157358689Y-108957083D01*
X157393946Y-108978304D01*
X157404165Y-108984963D01*
X157390402Y-108986280D01*
X157347104Y-108987559D01*
X157275714Y-108988796D01*
X157177673Y-108989983D01*
X157054422Y-108991115D01*
X156907403Y-108992186D01*
X156738057Y-108993189D01*
X156547826Y-108994119D01*
X156338151Y-108994968D01*
X156110473Y-108995732D01*
X155866235Y-108996403D01*
X155606877Y-108996976D01*
X155333841Y-108997444D01*
X155048568Y-108997802D01*
X154752500Y-108998042D01*
X154447079Y-108998159D01*
X154318924Y-108998171D01*
X151218970Y-108998171D01*
X151440053Y-108614847D01*
X151486856Y-108533680D01*
X151547102Y-108429166D01*
X151618778Y-108304801D01*
X151699869Y-108164082D01*
X151788362Y-108010503D01*
X151882240Y-107847562D01*
X151979491Y-107678754D01*
X152078100Y-107507575D01*
X152176053Y-107337521D01*
X152200825Y-107294512D01*
X152291152Y-107137857D01*
X152377289Y-106988803D01*
X152457942Y-106849568D01*
X152531816Y-106722371D01*
X152597617Y-106609432D01*
X152654050Y-106512968D01*
X152699821Y-106435200D01*
X152733635Y-106378346D01*
X152754198Y-106344625D01*
X152759953Y-106336040D01*
X152772058Y-106329189D01*
X152792094Y-106331158D01*
G36*
X156457528Y-106274619D02*
G01*
X156468908Y-106293693D01*
X156494488Y-106337421D01*
X156533002Y-106403619D01*
X156583186Y-106490102D01*
X156643775Y-106594685D01*
X156713503Y-106715183D01*
X156791107Y-106849412D01*
X156875320Y-106995187D01*
X156964879Y-107150323D01*
X157056998Y-107310000D01*
X157151076Y-107473117D01*
X157241402Y-107629709D01*
X157326665Y-107777506D01*
X157405557Y-107914240D01*
X157476769Y-108037642D01*
X157538991Y-108145444D01*
X157590913Y-108235377D01*
X157631228Y-108305173D01*
X157658624Y-108352564D01*
X157671507Y-108374786D01*
X157692507Y-108412330D01*
X157703925Y-108435831D01*
X157704551Y-108439920D01*
X157690636Y-108432242D01*
X157651941Y-108410203D01*
X157590487Y-108374971D01*
X157508298Y-108327711D01*
X157407396Y-108269589D01*
X157289805Y-108201771D01*
X157157546Y-108125424D01*
X157012642Y-108041714D01*
X156857117Y-107951806D01*
X156692992Y-107856867D01*
X156630549Y-107820732D01*
X156463487Y-107724083D01*
X156304074Y-107631938D01*
X156154355Y-107545475D01*
X156016376Y-107465871D01*
X155892185Y-107394305D01*
X155783827Y-107331955D01*
X155693348Y-107279998D01*
X155622796Y-107239613D01*
X155574215Y-107211978D01*
X155549654Y-107198272D01*
X155547085Y-107196974D01*
X155554569Y-107185220D01*
X155580614Y-107153795D01*
X155622559Y-107105594D01*
X155677746Y-107043510D01*
X155743517Y-106970439D01*
X155817212Y-106889276D01*
X155896173Y-106802916D01*
X155977740Y-106714253D01*
X156059254Y-106626182D01*
X156138057Y-106541599D01*
X156211490Y-106463397D01*
X156276893Y-106394472D01*
X156331608Y-106337719D01*
X156372977Y-106296032D01*
X156387164Y-106282363D01*
X156434180Y-106238201D01*
X156457528Y-106274619D01*
G37*
X156457528Y-106274619D02*
X156468908Y-106293693D01*
X156494488Y-106337421D01*
X156533002Y-106403619D01*
X156583186Y-106490102D01*
X156643775Y-106594685D01*
X156713503Y-106715183D01*
X156791107Y-106849412D01*
X156875320Y-106995187D01*
X156964879Y-107150323D01*
X157056998Y-107310000D01*
X157151076Y-107473117D01*
X157241402Y-107629709D01*
X157326665Y-107777506D01*
X157405557Y-107914240D01*
X157476769Y-108037642D01*
X157538991Y-108145444D01*
X157590913Y-108235377D01*
X157631228Y-108305173D01*
X157658624Y-108352564D01*
X157671507Y-108374786D01*
X157692507Y-108412330D01*
X157703925Y-108435831D01*
X157704551Y-108439920D01*
X157690636Y-108432242D01*
X157651941Y-108410203D01*
X157590487Y-108374971D01*
X157508298Y-108327711D01*
X157407396Y-108269589D01*
X157289805Y-108201771D01*
X157157546Y-108125424D01*
X157012642Y-108041714D01*
X156857117Y-107951806D01*
X156692992Y-107856867D01*
X156630549Y-107820732D01*
X156463487Y-107724083D01*
X156304074Y-107631938D01*
X156154355Y-107545475D01*
X156016376Y-107465871D01*
X155892185Y-107394305D01*
X155783827Y-107331955D01*
X155693348Y-107279998D01*
X155622796Y-107239613D01*
X155574215Y-107211978D01*
X155549654Y-107198272D01*
X155547085Y-107196974D01*
X155554569Y-107185220D01*
X155580614Y-107153795D01*
X155622559Y-107105594D01*
X155677746Y-107043510D01*
X155743517Y-106970439D01*
X155817212Y-106889276D01*
X155896173Y-106802916D01*
X155977740Y-106714253D01*
X156059254Y-106626182D01*
X156138057Y-106541599D01*
X156211490Y-106463397D01*
X156276893Y-106394472D01*
X156331608Y-106337719D01*
X156372977Y-106296032D01*
X156387164Y-106282363D01*
X156434180Y-106238201D01*
X156457528Y-106274619D01*
G36*
X154634043Y-103125835D02*
G01*
X154657065Y-103163245D01*
X154692534Y-103222514D01*
X154738996Y-103301118D01*
X154794996Y-103396538D01*
X154859081Y-103506250D01*
X154929796Y-103627734D01*
X155005687Y-103758468D01*
X155085299Y-103895930D01*
X155167178Y-104037598D01*
X155249870Y-104180951D01*
X155331921Y-104323467D01*
X155411876Y-104462624D01*
X155488281Y-104595901D01*
X155559682Y-104720776D01*
X155624624Y-104834727D01*
X155681653Y-104935233D01*
X155729315Y-105019772D01*
X155766155Y-105085822D01*
X155790720Y-105130862D01*
X155801554Y-105152370D01*
X155801951Y-105153714D01*
X155788501Y-105171965D01*
X155751114Y-105199882D01*
X155694235Y-105234725D01*
X155622312Y-105273754D01*
X155547015Y-105310843D01*
X155444560Y-105355817D01*
X155336817Y-105396226D01*
X155220073Y-105432969D01*
X155090618Y-105466942D01*
X154944740Y-105499044D01*
X154778726Y-105530173D01*
X154588866Y-105561227D01*
X154392469Y-105590145D01*
X154221834Y-105615800D01*
X154078545Y-105641198D01*
X153959008Y-105667602D01*
X153859630Y-105696273D01*
X153776818Y-105728473D01*
X153706978Y-105765465D01*
X153646518Y-105808512D01*
X153591845Y-105858875D01*
X153574214Y-105877583D01*
X153536000Y-105921139D01*
X153507732Y-105956682D01*
X153494618Y-105977583D01*
X153494268Y-105979297D01*
X153489680Y-105989806D01*
X153473758Y-105989924D01*
X153443266Y-105978254D01*
X153394968Y-105953396D01*
X153325627Y-105913952D01*
X153277439Y-105885587D01*
X153205583Y-105841247D01*
X153149742Y-105803279D01*
X153113667Y-105774416D01*
X153101113Y-105757388D01*
X153101121Y-105757264D01*
X153108906Y-105741037D01*
X153130892Y-105700400D01*
X153165803Y-105637567D01*
X153212363Y-105554752D01*
X153269295Y-105454172D01*
X153335323Y-105338040D01*
X153409172Y-105208571D01*
X153489564Y-105067980D01*
X153575224Y-104918482D01*
X153664876Y-104762292D01*
X153757243Y-104601624D01*
X153851049Y-104438693D01*
X153945018Y-104275713D01*
X154037874Y-104114900D01*
X154128340Y-103958468D01*
X154215141Y-103808633D01*
X154297000Y-103667608D01*
X154372641Y-103537609D01*
X154440787Y-103420849D01*
X154500163Y-103319545D01*
X154549493Y-103235911D01*
X154587500Y-103172162D01*
X154612907Y-103130511D01*
X154624440Y-103113175D01*
X154624923Y-103112805D01*
X154634043Y-103125835D01*
G37*
X154634043Y-103125835D02*
X154657065Y-103163245D01*
X154692534Y-103222514D01*
X154738996Y-103301118D01*
X154794996Y-103396538D01*
X154859081Y-103506250D01*
X154929796Y-103627734D01*
X155005687Y-103758468D01*
X155085299Y-103895930D01*
X155167178Y-104037598D01*
X155249870Y-104180951D01*
X155331921Y-104323467D01*
X155411876Y-104462624D01*
X155488281Y-104595901D01*
X155559682Y-104720776D01*
X155624624Y-104834727D01*
X155681653Y-104935233D01*
X155729315Y-105019772D01*
X155766155Y-105085822D01*
X155790720Y-105130862D01*
X155801554Y-105152370D01*
X155801951Y-105153714D01*
X155788501Y-105171965D01*
X155751114Y-105199882D01*
X155694235Y-105234725D01*
X155622312Y-105273754D01*
X155547015Y-105310843D01*
X155444560Y-105355817D01*
X155336817Y-105396226D01*
X155220073Y-105432969D01*
X155090618Y-105466942D01*
X154944740Y-105499044D01*
X154778726Y-105530173D01*
X154588866Y-105561227D01*
X154392469Y-105590145D01*
X154221834Y-105615800D01*
X154078545Y-105641198D01*
X153959008Y-105667602D01*
X153859630Y-105696273D01*
X153776818Y-105728473D01*
X153706978Y-105765465D01*
X153646518Y-105808512D01*
X153591845Y-105858875D01*
X153574214Y-105877583D01*
X153536000Y-105921139D01*
X153507732Y-105956682D01*
X153494618Y-105977583D01*
X153494268Y-105979297D01*
X153489680Y-105989806D01*
X153473758Y-105989924D01*
X153443266Y-105978254D01*
X153394968Y-105953396D01*
X153325627Y-105913952D01*
X153277439Y-105885587D01*
X153205583Y-105841247D01*
X153149742Y-105803279D01*
X153113667Y-105774416D01*
X153101113Y-105757388D01*
X153101121Y-105757264D01*
X153108906Y-105741037D01*
X153130892Y-105700400D01*
X153165803Y-105637567D01*
X153212363Y-105554752D01*
X153269295Y-105454172D01*
X153335323Y-105338040D01*
X153409172Y-105208571D01*
X153489564Y-105067980D01*
X153575224Y-104918482D01*
X153664876Y-104762292D01*
X153757243Y-104601624D01*
X153851049Y-104438693D01*
X153945018Y-104275713D01*
X154037874Y-104114900D01*
X154128340Y-103958468D01*
X154215141Y-103808633D01*
X154297000Y-103667608D01*
X154372641Y-103537609D01*
X154440787Y-103420849D01*
X154500163Y-103319545D01*
X154549493Y-103235911D01*
X154587500Y-103172162D01*
X154612907Y-103130511D01*
X154624440Y-103113175D01*
X154624923Y-103112805D01*
X154634043Y-103125835D01*
D10*
%TO.C,SW1*%
X102040000Y-123640000D02*
X102040000Y-122140000D01*
X100790000Y-119640000D02*
X96290000Y-119640000D01*
X95040000Y-122140000D02*
X95040000Y-123640000D01*
X96290000Y-126140000D02*
X100790000Y-126140000D01*
%TO.C,RV1*%
X105300000Y-78400000D02*
X104900000Y-78600000D01*
X104900000Y-78200000D02*
X105300000Y-78400000D01*
X104100000Y-78400000D02*
X105300000Y-78400000D01*
X106500000Y-78400000D02*
G75*
G03*
X106500000Y-78400000I-2000000J0D01*
G01*
X109500000Y-73500000D02*
X99500000Y-73500000D01*
X99500000Y-83300000D02*
X109500000Y-83300000D01*
X99500000Y-73500000D02*
X99500000Y-74850000D01*
X99500000Y-76950000D02*
X99500000Y-79850000D01*
X99500000Y-83300000D02*
X99500000Y-81950000D01*
X109500000Y-73500000D02*
X109500000Y-77350000D01*
X109500000Y-83300000D02*
X109500000Y-79450000D01*
%TO.C,D4*%
X152370000Y-73400000D02*
G75*
G03*
X152370000Y-73400000I-2500000J0D01*
G01*
X147310000Y-71855000D02*
X147310000Y-74945000D01*
X152860000Y-73400462D02*
G75*
G03*
X147310000Y-71855170I-2990000J462D01*
G01*
X152860000Y-73399538D02*
G75*
G02*
X147310000Y-74944830I-2990000J-462D01*
G01*
%TO.C,F1*%
X157500000Y-95536252D02*
X157500000Y-92763748D01*
X154080000Y-95536252D02*
X154080000Y-92763748D01*
%TO.C,D3*%
X101800000Y-129900000D02*
X101800000Y-130030000D01*
X101800000Y-130030000D02*
X96360000Y-130030000D01*
X96360000Y-130030000D02*
X96360000Y-129900000D01*
X101800000Y-127220000D02*
X101800000Y-127090000D01*
X101800000Y-127090000D02*
X96360000Y-127090000D01*
X96360000Y-127090000D02*
X96360000Y-127220000D01*
X100900000Y-130030000D02*
X100900000Y-127090000D01*
X100780000Y-130030000D02*
X100780000Y-127090000D01*
X101020000Y-130030000D02*
X101020000Y-127090000D01*
%TO.C,C5*%
X154170000Y-79790000D02*
X154170000Y-77050000D01*
X159410000Y-79790000D02*
X159410000Y-77050000D01*
X159410000Y-77050000D02*
X154170000Y-77050000D01*
X159410000Y-79790000D02*
X154170000Y-79790000D01*
D13*
%TO.C,Y1*%
X132660000Y-137270000D02*
X126260000Y-137270000D01*
X132660000Y-132270000D02*
X126260000Y-132270000D01*
X126260000Y-137270000D02*
G75*
G02*
X126260000Y-132270000I0J2500000D01*
G01*
X132660000Y-132270000D02*
G75*
G02*
X132660000Y-137270000I0J-2500000D01*
G01*
D10*
%TO.C,U2*%
X106670000Y-119940000D02*
X106670000Y-121590000D01*
X142350000Y-119940000D02*
X106670000Y-119940000D01*
X142350000Y-125240000D02*
X142350000Y-119940000D01*
X106670000Y-125240000D02*
X142350000Y-125240000D01*
X106670000Y-123590000D02*
X106670000Y-125240000D01*
X106670000Y-121590000D02*
G75*
G02*
X106670000Y-123590000I0J-1000000D01*
G01*
%TO.C,J3*%
X95670000Y-88500000D02*
X95670000Y-87170000D01*
X95670000Y-87170000D02*
X97000000Y-87170000D01*
X98270000Y-87170000D02*
X136430000Y-87170000D01*
X136430000Y-89830000D02*
X136430000Y-87170000D01*
X98270000Y-89830000D02*
X136430000Y-89830000D01*
X98270000Y-89830000D02*
X98270000Y-87170000D01*
%TO.C,C1*%
X154780000Y-89390000D02*
X154780000Y-84150000D01*
X157520000Y-89390000D02*
X157520000Y-84150000D01*
X154780000Y-89390000D02*
X157520000Y-89390000D01*
X154780000Y-84150000D02*
X157520000Y-84150000D01*
%TO.C,C2*%
X154050000Y-84160000D02*
X154050000Y-89400000D01*
X151310000Y-84160000D02*
X151310000Y-89400000D01*
X154050000Y-84160000D02*
X151310000Y-84160000D01*
X154050000Y-89400000D02*
X151310000Y-89400000D01*
%TO.C,C3*%
X126990000Y-117370000D02*
X121750000Y-117370000D01*
X126990000Y-114630000D02*
X121750000Y-114630000D01*
X126990000Y-117370000D02*
X126990000Y-114630000D01*
X121750000Y-117370000D02*
X121750000Y-114630000D01*
%TO.C,C4*%
X90740000Y-129930000D02*
X90740000Y-124690000D01*
X93480000Y-129930000D02*
X93480000Y-124690000D01*
X90740000Y-129930000D02*
X93480000Y-129930000D01*
X90740000Y-124690000D02*
X93480000Y-124690000D01*
%TO.C,C6*%
X132540000Y-114630000D02*
X132540000Y-117370000D01*
X127300000Y-114630000D02*
X127300000Y-117370000D01*
X127300000Y-117370000D02*
X132540000Y-117370000D01*
X127300000Y-114630000D02*
X132540000Y-114630000D01*
%TO.C,C7*%
X120430000Y-132430000D02*
X123170000Y-132430000D01*
X120430000Y-137670000D02*
X123170000Y-137670000D01*
X123170000Y-137670000D02*
X123170000Y-132430000D01*
X120430000Y-137670000D02*
X120430000Y-132430000D01*
%TO.C,C8*%
X135780000Y-137670000D02*
X135780000Y-132430000D01*
X138520000Y-137670000D02*
X138520000Y-132430000D01*
X135780000Y-137670000D02*
X138520000Y-137670000D01*
X135780000Y-132430000D02*
X138520000Y-132430000D01*
%TO.C,D1*%
X133910000Y-71855000D02*
X133910000Y-74945000D01*
X138970000Y-73400000D02*
G75*
G03*
X138970000Y-73400000I-2500000J0D01*
G01*
X139460000Y-73399538D02*
G75*
G02*
X133910000Y-74944830I-2990000J-462D01*
G01*
X139460000Y-73400462D02*
G75*
G03*
X133910000Y-71855170I-2990000J462D01*
G01*
%TO.C,D2*%
X145670000Y-73400000D02*
G75*
G03*
X145670000Y-73400000I-2500000J0D01*
G01*
X140610000Y-71855000D02*
X140610000Y-74945000D01*
X146160000Y-73400462D02*
G75*
G03*
X140610000Y-71855170I-2990000J462D01*
G01*
X146160000Y-73399538D02*
G75*
G02*
X140610000Y-74944830I-2990000J-462D01*
G01*
%TO.C,R1*%
X111580000Y-101390000D02*
X111580000Y-104830000D01*
X111580000Y-104830000D02*
X120820000Y-104830000D01*
X120820000Y-104830000D02*
X120820000Y-101390000D01*
X120820000Y-101390000D02*
X111580000Y-101390000D01*
X110890000Y-103110000D02*
X111580000Y-103110000D01*
X121510000Y-103110000D02*
X120820000Y-103110000D01*
%TO.C,R2*%
X121510000Y-99065000D02*
X120820000Y-99065000D01*
X110890000Y-99065000D02*
X111580000Y-99065000D01*
X120820000Y-97345000D02*
X111580000Y-97345000D01*
X120820000Y-100785000D02*
X120820000Y-97345000D01*
X111580000Y-100785000D02*
X120820000Y-100785000D01*
X111580000Y-97345000D02*
X111580000Y-100785000D01*
%TO.C,R3*%
X129155000Y-104035000D02*
X132595000Y-104035000D01*
X132595000Y-104035000D02*
X132595000Y-94795000D01*
X132595000Y-94795000D02*
X129155000Y-94795000D01*
X129155000Y-94795000D02*
X129155000Y-104035000D01*
X130875000Y-104725000D02*
X130875000Y-104035000D01*
X130875000Y-94105000D02*
X130875000Y-94795000D01*
%TO.C,R4*%
X134875000Y-94105000D02*
X134875000Y-94795000D01*
X134875000Y-104725000D02*
X134875000Y-104035000D01*
X133155000Y-94795000D02*
X133155000Y-104035000D01*
X136595000Y-94795000D02*
X133155000Y-94795000D01*
X136595000Y-104035000D02*
X136595000Y-94795000D01*
X133155000Y-104035000D02*
X136595000Y-104035000D01*
%TO.C,R6*%
X109570000Y-135420000D02*
X109570000Y-131980000D01*
X109570000Y-131980000D02*
X100330000Y-131980000D01*
X100330000Y-131980000D02*
X100330000Y-135420000D01*
X100330000Y-135420000D02*
X109570000Y-135420000D01*
X110260000Y-133700000D02*
X109570000Y-133700000D01*
X99640000Y-133700000D02*
X100330000Y-133700000D01*
%TO.C,R7*%
X134760000Y-129750000D02*
X134070000Y-129750000D01*
X124140000Y-129750000D02*
X124830000Y-129750000D01*
X134070000Y-128030000D02*
X124830000Y-128030000D01*
X134070000Y-131470000D02*
X134070000Y-128030000D01*
X124830000Y-131470000D02*
X134070000Y-131470000D01*
X124830000Y-128030000D02*
X124830000Y-131470000D01*
%TO.C,R8*%
X149040000Y-121205000D02*
X149040000Y-124645000D01*
X149040000Y-124645000D02*
X158280000Y-124645000D01*
X158280000Y-124645000D02*
X158280000Y-121205000D01*
X158280000Y-121205000D02*
X149040000Y-121205000D01*
X148350000Y-122925000D02*
X149040000Y-122925000D01*
X158970000Y-122925000D02*
X158280000Y-122925000D01*
%TO.C,R9*%
X138875000Y-104725000D02*
X138875000Y-104035000D01*
X138875000Y-94105000D02*
X138875000Y-94795000D01*
X140595000Y-104035000D02*
X140595000Y-94795000D01*
X137155000Y-104035000D02*
X140595000Y-104035000D01*
X137155000Y-94795000D02*
X137155000Y-104035000D01*
X140595000Y-94795000D02*
X137155000Y-94795000D01*
%TO.C,R11*%
X148350000Y-126730000D02*
X149040000Y-126730000D01*
X158970000Y-126730000D02*
X158280000Y-126730000D01*
X149040000Y-128450000D02*
X158280000Y-128450000D01*
X149040000Y-125010000D02*
X149040000Y-128450000D01*
X158280000Y-125010000D02*
X149040000Y-125010000D01*
X158280000Y-128450000D02*
X158280000Y-125010000D01*
%TO.C,SW1*%
D11*
X90766666Y-120204761D02*
X90909523Y-120252380D01*
X91147619Y-120252380D01*
X91242857Y-120204761D01*
X91290476Y-120157142D01*
X91338095Y-120061904D01*
X91338095Y-119966666D01*
X91290476Y-119871428D01*
X91242857Y-119823809D01*
X91147619Y-119776190D01*
X90957142Y-119728571D01*
X90861904Y-119680952D01*
X90814285Y-119633333D01*
X90766666Y-119538095D01*
X90766666Y-119442857D01*
X90814285Y-119347619D01*
X90861904Y-119300000D01*
X90957142Y-119252380D01*
X91195238Y-119252380D01*
X91338095Y-119300000D01*
X91671428Y-119252380D02*
X91909523Y-120252380D01*
X92100000Y-119538095D01*
X92290476Y-120252380D01*
X92528571Y-119252380D01*
X93433333Y-120252380D02*
X92861904Y-120252380D01*
X93147619Y-120252380D02*
X93147619Y-119252380D01*
X93052380Y-119395238D01*
X92957142Y-119490476D01*
X92861904Y-119538095D01*
%TO.C,RV1*%
X96004761Y-83552380D02*
X95671428Y-83076190D01*
X95433333Y-83552380D02*
X95433333Y-82552380D01*
X95814285Y-82552380D01*
X95909523Y-82600000D01*
X95957142Y-82647619D01*
X96004761Y-82742857D01*
X96004761Y-82885714D01*
X95957142Y-82980952D01*
X95909523Y-83028571D01*
X95814285Y-83076190D01*
X95433333Y-83076190D01*
X96290476Y-82552380D02*
X96623809Y-83552380D01*
X96957142Y-82552380D01*
X97814285Y-83552380D02*
X97242857Y-83552380D01*
X97528571Y-83552380D02*
X97528571Y-82552380D01*
X97433333Y-82695238D01*
X97338095Y-82790476D01*
X97242857Y-82838095D01*
%TO.C,D4*%
X146361904Y-76652380D02*
X146361904Y-75652380D01*
X146600000Y-75652380D01*
X146742857Y-75700000D01*
X146838095Y-75795238D01*
X146885714Y-75890476D01*
X146933333Y-76080952D01*
X146933333Y-76223809D01*
X146885714Y-76414285D01*
X146838095Y-76509523D01*
X146742857Y-76604761D01*
X146600000Y-76652380D01*
X146361904Y-76652380D01*
X147790476Y-75985714D02*
X147790476Y-76652380D01*
X147552380Y-75604761D02*
X147314285Y-76319047D01*
X147933333Y-76319047D01*
%TO.C,F1*%
X155526666Y-98048571D02*
X155193333Y-98048571D01*
X155193333Y-98572380D02*
X155193333Y-97572380D01*
X155669523Y-97572380D01*
X156574285Y-98572380D02*
X156002857Y-98572380D01*
X156288571Y-98572380D02*
X156288571Y-97572380D01*
X156193333Y-97715238D01*
X156098095Y-97810476D01*
X156002857Y-97858095D01*
%TO.C,D3*%
X97861904Y-131272380D02*
X97861904Y-130272380D01*
X98100000Y-130272380D01*
X98242857Y-130320000D01*
X98338095Y-130415238D01*
X98385714Y-130510476D01*
X98433333Y-130700952D01*
X98433333Y-130843809D01*
X98385714Y-131034285D01*
X98338095Y-131129523D01*
X98242857Y-131224761D01*
X98100000Y-131272380D01*
X97861904Y-131272380D01*
X98766666Y-130272380D02*
X99385714Y-130272380D01*
X99052380Y-130653333D01*
X99195238Y-130653333D01*
X99290476Y-130700952D01*
X99338095Y-130748571D01*
X99385714Y-130843809D01*
X99385714Y-131081904D01*
X99338095Y-131177142D01*
X99290476Y-131224761D01*
X99195238Y-131272380D01*
X98909523Y-131272380D01*
X98814285Y-131224761D01*
X98766666Y-131177142D01*
%TO.C,C5*%
X156433333Y-76557142D02*
X156385714Y-76604761D01*
X156242857Y-76652380D01*
X156147619Y-76652380D01*
X156004761Y-76604761D01*
X155909523Y-76509523D01*
X155861904Y-76414285D01*
X155814285Y-76223809D01*
X155814285Y-76080952D01*
X155861904Y-75890476D01*
X155909523Y-75795238D01*
X156004761Y-75700000D01*
X156147619Y-75652380D01*
X156242857Y-75652380D01*
X156385714Y-75700000D01*
X156433333Y-75747619D01*
X157338095Y-75652380D02*
X156861904Y-75652380D01*
X156814285Y-76128571D01*
X156861904Y-76080952D01*
X156957142Y-76033333D01*
X157195238Y-76033333D01*
X157290476Y-76080952D01*
X157338095Y-76128571D01*
X157385714Y-76223809D01*
X157385714Y-76461904D01*
X157338095Y-76557142D01*
X157290476Y-76604761D01*
X157195238Y-76652380D01*
X156957142Y-76652380D01*
X156861904Y-76604761D01*
X156814285Y-76557142D01*
%TO.C,Y1*%
X126498809Y-138651190D02*
X126498809Y-139127380D01*
X126165476Y-138127380D02*
X126498809Y-138651190D01*
X126832142Y-138127380D01*
X127689285Y-139127380D02*
X127117857Y-139127380D01*
X127403571Y-139127380D02*
X127403571Y-138127380D01*
X127308333Y-138270238D01*
X127213095Y-138365476D01*
X127117857Y-138413095D01*
%TO.C,U2*%
X105038095Y-116952380D02*
X105038095Y-117761904D01*
X105085714Y-117857142D01*
X105133333Y-117904761D01*
X105228571Y-117952380D01*
X105419047Y-117952380D01*
X105514285Y-117904761D01*
X105561904Y-117857142D01*
X105609523Y-117761904D01*
X105609523Y-116952380D01*
X106038095Y-117047619D02*
X106085714Y-117000000D01*
X106180952Y-116952380D01*
X106419047Y-116952380D01*
X106514285Y-117000000D01*
X106561904Y-117047619D01*
X106609523Y-117142857D01*
X106609523Y-117238095D01*
X106561904Y-117380952D01*
X105990476Y-117952380D01*
X106609523Y-117952380D01*
%TO.C,J3*%
X93466666Y-87952380D02*
X93466666Y-88666666D01*
X93419047Y-88809523D01*
X93323809Y-88904761D01*
X93180952Y-88952380D01*
X93085714Y-88952380D01*
X93847619Y-87952380D02*
X94466666Y-87952380D01*
X94133333Y-88333333D01*
X94276190Y-88333333D01*
X94371428Y-88380952D01*
X94419047Y-88428571D01*
X94466666Y-88523809D01*
X94466666Y-88761904D01*
X94419047Y-88857142D01*
X94371428Y-88904761D01*
X94276190Y-88952380D01*
X93990476Y-88952380D01*
X93895238Y-88904761D01*
X93847619Y-88857142D01*
%TO.C,C1*%
X155923333Y-90627142D02*
X155875714Y-90674761D01*
X155732857Y-90722380D01*
X155637619Y-90722380D01*
X155494761Y-90674761D01*
X155399523Y-90579523D01*
X155351904Y-90484285D01*
X155304285Y-90293809D01*
X155304285Y-90150952D01*
X155351904Y-89960476D01*
X155399523Y-89865238D01*
X155494761Y-89770000D01*
X155637619Y-89722380D01*
X155732857Y-89722380D01*
X155875714Y-89770000D01*
X155923333Y-89817619D01*
X156875714Y-90722380D02*
X156304285Y-90722380D01*
X156590000Y-90722380D02*
X156590000Y-89722380D01*
X156494761Y-89865238D01*
X156399523Y-89960476D01*
X156304285Y-90008095D01*
%TO.C,C2*%
X152573333Y-90627142D02*
X152525714Y-90674761D01*
X152382857Y-90722380D01*
X152287619Y-90722380D01*
X152144761Y-90674761D01*
X152049523Y-90579523D01*
X152001904Y-90484285D01*
X151954285Y-90293809D01*
X151954285Y-90150952D01*
X152001904Y-89960476D01*
X152049523Y-89865238D01*
X152144761Y-89770000D01*
X152287619Y-89722380D01*
X152382857Y-89722380D01*
X152525714Y-89770000D01*
X152573333Y-89817619D01*
X152954285Y-89817619D02*
X153001904Y-89770000D01*
X153097142Y-89722380D01*
X153335238Y-89722380D01*
X153430476Y-89770000D01*
X153478095Y-89817619D01*
X153525714Y-89912857D01*
X153525714Y-90008095D01*
X153478095Y-90150952D01*
X152906666Y-90722380D01*
X153525714Y-90722380D01*
%TO.C,C3*%
X124203333Y-114057142D02*
X124155714Y-114104761D01*
X124012857Y-114152380D01*
X123917619Y-114152380D01*
X123774761Y-114104761D01*
X123679523Y-114009523D01*
X123631904Y-113914285D01*
X123584285Y-113723809D01*
X123584285Y-113580952D01*
X123631904Y-113390476D01*
X123679523Y-113295238D01*
X123774761Y-113200000D01*
X123917619Y-113152380D01*
X124012857Y-113152380D01*
X124155714Y-113200000D01*
X124203333Y-113247619D01*
X124536666Y-113152380D02*
X125155714Y-113152380D01*
X124822380Y-113533333D01*
X124965238Y-113533333D01*
X125060476Y-113580952D01*
X125108095Y-113628571D01*
X125155714Y-113723809D01*
X125155714Y-113961904D01*
X125108095Y-114057142D01*
X125060476Y-114104761D01*
X124965238Y-114152380D01*
X124679523Y-114152380D01*
X124584285Y-114104761D01*
X124536666Y-114057142D01*
%TO.C,C4*%
X89443333Y-127667142D02*
X89395714Y-127714761D01*
X89252857Y-127762380D01*
X89157619Y-127762380D01*
X89014761Y-127714761D01*
X88919523Y-127619523D01*
X88871904Y-127524285D01*
X88824285Y-127333809D01*
X88824285Y-127190952D01*
X88871904Y-127000476D01*
X88919523Y-126905238D01*
X89014761Y-126810000D01*
X89157619Y-126762380D01*
X89252857Y-126762380D01*
X89395714Y-126810000D01*
X89443333Y-126857619D01*
X90300476Y-127095714D02*
X90300476Y-127762380D01*
X90062380Y-126714761D02*
X89824285Y-127429047D01*
X90443333Y-127429047D01*
%TO.C,C6*%
X129703333Y-114057142D02*
X129655714Y-114104761D01*
X129512857Y-114152380D01*
X129417619Y-114152380D01*
X129274761Y-114104761D01*
X129179523Y-114009523D01*
X129131904Y-113914285D01*
X129084285Y-113723809D01*
X129084285Y-113580952D01*
X129131904Y-113390476D01*
X129179523Y-113295238D01*
X129274761Y-113200000D01*
X129417619Y-113152380D01*
X129512857Y-113152380D01*
X129655714Y-113200000D01*
X129703333Y-113247619D01*
X130560476Y-113152380D02*
X130370000Y-113152380D01*
X130274761Y-113200000D01*
X130227142Y-113247619D01*
X130131904Y-113390476D01*
X130084285Y-113580952D01*
X130084285Y-113961904D01*
X130131904Y-114057142D01*
X130179523Y-114104761D01*
X130274761Y-114152380D01*
X130465238Y-114152380D01*
X130560476Y-114104761D01*
X130608095Y-114057142D01*
X130655714Y-113961904D01*
X130655714Y-113723809D01*
X130608095Y-113628571D01*
X130560476Y-113580952D01*
X130465238Y-113533333D01*
X130274761Y-113533333D01*
X130179523Y-113580952D01*
X130131904Y-113628571D01*
X130084285Y-113723809D01*
%TO.C,C7*%
X121658333Y-138982142D02*
X121610714Y-139029761D01*
X121467857Y-139077380D01*
X121372619Y-139077380D01*
X121229761Y-139029761D01*
X121134523Y-138934523D01*
X121086904Y-138839285D01*
X121039285Y-138648809D01*
X121039285Y-138505952D01*
X121086904Y-138315476D01*
X121134523Y-138220238D01*
X121229761Y-138125000D01*
X121372619Y-138077380D01*
X121467857Y-138077380D01*
X121610714Y-138125000D01*
X121658333Y-138172619D01*
X121991666Y-138077380D02*
X122658333Y-138077380D01*
X122229761Y-139077380D01*
%TO.C,C8*%
X136983333Y-138957142D02*
X136935714Y-139004761D01*
X136792857Y-139052380D01*
X136697619Y-139052380D01*
X136554761Y-139004761D01*
X136459523Y-138909523D01*
X136411904Y-138814285D01*
X136364285Y-138623809D01*
X136364285Y-138480952D01*
X136411904Y-138290476D01*
X136459523Y-138195238D01*
X136554761Y-138100000D01*
X136697619Y-138052380D01*
X136792857Y-138052380D01*
X136935714Y-138100000D01*
X136983333Y-138147619D01*
X137554761Y-138480952D02*
X137459523Y-138433333D01*
X137411904Y-138385714D01*
X137364285Y-138290476D01*
X137364285Y-138242857D01*
X137411904Y-138147619D01*
X137459523Y-138100000D01*
X137554761Y-138052380D01*
X137745238Y-138052380D01*
X137840476Y-138100000D01*
X137888095Y-138147619D01*
X137935714Y-138242857D01*
X137935714Y-138290476D01*
X137888095Y-138385714D01*
X137840476Y-138433333D01*
X137745238Y-138480952D01*
X137554761Y-138480952D01*
X137459523Y-138528571D01*
X137411904Y-138576190D01*
X137364285Y-138671428D01*
X137364285Y-138861904D01*
X137411904Y-138957142D01*
X137459523Y-139004761D01*
X137554761Y-139052380D01*
X137745238Y-139052380D01*
X137840476Y-139004761D01*
X137888095Y-138957142D01*
X137935714Y-138861904D01*
X137935714Y-138671428D01*
X137888095Y-138576190D01*
X137840476Y-138528571D01*
X137745238Y-138480952D01*
%TO.C,D1*%
X133011904Y-76652380D02*
X133011904Y-75652380D01*
X133250000Y-75652380D01*
X133392857Y-75700000D01*
X133488095Y-75795238D01*
X133535714Y-75890476D01*
X133583333Y-76080952D01*
X133583333Y-76223809D01*
X133535714Y-76414285D01*
X133488095Y-76509523D01*
X133392857Y-76604761D01*
X133250000Y-76652380D01*
X133011904Y-76652380D01*
X134535714Y-76652380D02*
X133964285Y-76652380D01*
X134250000Y-76652380D02*
X134250000Y-75652380D01*
X134154761Y-75795238D01*
X134059523Y-75890476D01*
X133964285Y-75938095D01*
%TO.C,D2*%
X139561904Y-76652380D02*
X139561904Y-75652380D01*
X139800000Y-75652380D01*
X139942857Y-75700000D01*
X140038095Y-75795238D01*
X140085714Y-75890476D01*
X140133333Y-76080952D01*
X140133333Y-76223809D01*
X140085714Y-76414285D01*
X140038095Y-76509523D01*
X139942857Y-76604761D01*
X139800000Y-76652380D01*
X139561904Y-76652380D01*
X140514285Y-75747619D02*
X140561904Y-75700000D01*
X140657142Y-75652380D01*
X140895238Y-75652380D01*
X140990476Y-75700000D01*
X141038095Y-75747619D01*
X141085714Y-75842857D01*
X141085714Y-75938095D01*
X141038095Y-76080952D01*
X140466666Y-76652380D01*
X141085714Y-76652380D01*
%TO.C,R1*%
X107523333Y-103562380D02*
X107190000Y-103086190D01*
X106951904Y-103562380D02*
X106951904Y-102562380D01*
X107332857Y-102562380D01*
X107428095Y-102610000D01*
X107475714Y-102657619D01*
X107523333Y-102752857D01*
X107523333Y-102895714D01*
X107475714Y-102990952D01*
X107428095Y-103038571D01*
X107332857Y-103086190D01*
X106951904Y-103086190D01*
X108475714Y-103562380D02*
X107904285Y-103562380D01*
X108190000Y-103562380D02*
X108190000Y-102562380D01*
X108094761Y-102705238D01*
X107999523Y-102800476D01*
X107904285Y-102848095D01*
%TO.C,R2*%
X107523333Y-99607380D02*
X107190000Y-99131190D01*
X106951904Y-99607380D02*
X106951904Y-98607380D01*
X107332857Y-98607380D01*
X107428095Y-98655000D01*
X107475714Y-98702619D01*
X107523333Y-98797857D01*
X107523333Y-98940714D01*
X107475714Y-99035952D01*
X107428095Y-99083571D01*
X107332857Y-99131190D01*
X106951904Y-99131190D01*
X107904285Y-98702619D02*
X107951904Y-98655000D01*
X108047142Y-98607380D01*
X108285238Y-98607380D01*
X108380476Y-98655000D01*
X108428095Y-98702619D01*
X108475714Y-98797857D01*
X108475714Y-98893095D01*
X108428095Y-99035952D01*
X107856666Y-99607380D01*
X108475714Y-99607380D01*
%TO.C,R3*%
X130633333Y-108267380D02*
X130300000Y-107791190D01*
X130061904Y-108267380D02*
X130061904Y-107267380D01*
X130442857Y-107267380D01*
X130538095Y-107315000D01*
X130585714Y-107362619D01*
X130633333Y-107457857D01*
X130633333Y-107600714D01*
X130585714Y-107695952D01*
X130538095Y-107743571D01*
X130442857Y-107791190D01*
X130061904Y-107791190D01*
X130966666Y-107267380D02*
X131585714Y-107267380D01*
X131252380Y-107648333D01*
X131395238Y-107648333D01*
X131490476Y-107695952D01*
X131538095Y-107743571D01*
X131585714Y-107838809D01*
X131585714Y-108076904D01*
X131538095Y-108172142D01*
X131490476Y-108219761D01*
X131395238Y-108267380D01*
X131109523Y-108267380D01*
X131014285Y-108219761D01*
X130966666Y-108172142D01*
%TO.C,R4*%
X134708333Y-108242380D02*
X134375000Y-107766190D01*
X134136904Y-108242380D02*
X134136904Y-107242380D01*
X134517857Y-107242380D01*
X134613095Y-107290000D01*
X134660714Y-107337619D01*
X134708333Y-107432857D01*
X134708333Y-107575714D01*
X134660714Y-107670952D01*
X134613095Y-107718571D01*
X134517857Y-107766190D01*
X134136904Y-107766190D01*
X135565476Y-107575714D02*
X135565476Y-108242380D01*
X135327380Y-107194761D02*
X135089285Y-107909047D01*
X135708333Y-107909047D01*
%TO.C,R6*%
X104783333Y-136872380D02*
X104450000Y-136396190D01*
X104211904Y-136872380D02*
X104211904Y-135872380D01*
X104592857Y-135872380D01*
X104688095Y-135920000D01*
X104735714Y-135967619D01*
X104783333Y-136062857D01*
X104783333Y-136205714D01*
X104735714Y-136300952D01*
X104688095Y-136348571D01*
X104592857Y-136396190D01*
X104211904Y-136396190D01*
X105640476Y-135872380D02*
X105450000Y-135872380D01*
X105354761Y-135920000D01*
X105307142Y-135967619D01*
X105211904Y-136110476D01*
X105164285Y-136300952D01*
X105164285Y-136681904D01*
X105211904Y-136777142D01*
X105259523Y-136824761D01*
X105354761Y-136872380D01*
X105545238Y-136872380D01*
X105640476Y-136824761D01*
X105688095Y-136777142D01*
X105735714Y-136681904D01*
X105735714Y-136443809D01*
X105688095Y-136348571D01*
X105640476Y-136300952D01*
X105545238Y-136253333D01*
X105354761Y-136253333D01*
X105259523Y-136300952D01*
X105211904Y-136348571D01*
X105164285Y-136443809D01*
%TO.C,R7*%
X138043333Y-130277380D02*
X137710000Y-129801190D01*
X137471904Y-130277380D02*
X137471904Y-129277380D01*
X137852857Y-129277380D01*
X137948095Y-129325000D01*
X137995714Y-129372619D01*
X138043333Y-129467857D01*
X138043333Y-129610714D01*
X137995714Y-129705952D01*
X137948095Y-129753571D01*
X137852857Y-129801190D01*
X137471904Y-129801190D01*
X138376666Y-129277380D02*
X139043333Y-129277380D01*
X138614761Y-130277380D01*
%TO.C,R8*%
X162003333Y-123362380D02*
X161670000Y-122886190D01*
X161431904Y-123362380D02*
X161431904Y-122362380D01*
X161812857Y-122362380D01*
X161908095Y-122410000D01*
X161955714Y-122457619D01*
X162003333Y-122552857D01*
X162003333Y-122695714D01*
X161955714Y-122790952D01*
X161908095Y-122838571D01*
X161812857Y-122886190D01*
X161431904Y-122886190D01*
X162574761Y-122790952D02*
X162479523Y-122743333D01*
X162431904Y-122695714D01*
X162384285Y-122600476D01*
X162384285Y-122552857D01*
X162431904Y-122457619D01*
X162479523Y-122410000D01*
X162574761Y-122362380D01*
X162765238Y-122362380D01*
X162860476Y-122410000D01*
X162908095Y-122457619D01*
X162955714Y-122552857D01*
X162955714Y-122600476D01*
X162908095Y-122695714D01*
X162860476Y-122743333D01*
X162765238Y-122790952D01*
X162574761Y-122790952D01*
X162479523Y-122838571D01*
X162431904Y-122886190D01*
X162384285Y-122981428D01*
X162384285Y-123171904D01*
X162431904Y-123267142D01*
X162479523Y-123314761D01*
X162574761Y-123362380D01*
X162765238Y-123362380D01*
X162860476Y-123314761D01*
X162908095Y-123267142D01*
X162955714Y-123171904D01*
X162955714Y-122981428D01*
X162908095Y-122886190D01*
X162860476Y-122838571D01*
X162765238Y-122790952D01*
%TO.C,R9*%
X138658333Y-108217380D02*
X138325000Y-107741190D01*
X138086904Y-108217380D02*
X138086904Y-107217380D01*
X138467857Y-107217380D01*
X138563095Y-107265000D01*
X138610714Y-107312619D01*
X138658333Y-107407857D01*
X138658333Y-107550714D01*
X138610714Y-107645952D01*
X138563095Y-107693571D01*
X138467857Y-107741190D01*
X138086904Y-107741190D01*
X139134523Y-108217380D02*
X139325000Y-108217380D01*
X139420238Y-108169761D01*
X139467857Y-108122142D01*
X139563095Y-107979285D01*
X139610714Y-107788809D01*
X139610714Y-107407857D01*
X139563095Y-107312619D01*
X139515476Y-107265000D01*
X139420238Y-107217380D01*
X139229761Y-107217380D01*
X139134523Y-107265000D01*
X139086904Y-107312619D01*
X139039285Y-107407857D01*
X139039285Y-107645952D01*
X139086904Y-107741190D01*
X139134523Y-107788809D01*
X139229761Y-107836428D01*
X139420238Y-107836428D01*
X139515476Y-107788809D01*
X139563095Y-107741190D01*
X139610714Y-107645952D01*
%TO.C,R11*%
X162027142Y-127182380D02*
X161693809Y-126706190D01*
X161455714Y-127182380D02*
X161455714Y-126182380D01*
X161836666Y-126182380D01*
X161931904Y-126230000D01*
X161979523Y-126277619D01*
X162027142Y-126372857D01*
X162027142Y-126515714D01*
X161979523Y-126610952D01*
X161931904Y-126658571D01*
X161836666Y-126706190D01*
X161455714Y-126706190D01*
X162979523Y-127182380D02*
X162408095Y-127182380D01*
X162693809Y-127182380D02*
X162693809Y-126182380D01*
X162598571Y-126325238D01*
X162503333Y-126420476D01*
X162408095Y-126468095D01*
X163931904Y-127182380D02*
X163360476Y-127182380D01*
X163646190Y-127182380D02*
X163646190Y-126182380D01*
X163550952Y-126325238D01*
X163455714Y-126420476D01*
X163360476Y-126468095D01*
%TD*%
M02*
