%TF.GenerationSoftware,KiCad,Pcbnew,5.1.8*%
%TF.CreationDate,2020-11-08T18:43:05+01:00*%
%TF.ProjectId,livello_serbatoio_definitiva,6c697665-6c6c-46f5-9f73-65726261746f,rev?*%
%TF.SameCoordinates,Original*%
%TF.FileFunction,Soldermask,Top*%
%TF.FilePolarity,Negative*%
%FSLAX46Y46*%
G04 Gerber Fmt 4.6, Leading zero omitted, Abs format (unit mm)*
G04 Created by KiCad (PCBNEW 5.1.8) date 2020-11-08 18:43:05*
%MOMM*%
%LPD*%
G01*
G04 APERTURE LIST*
%ADD10C,2.100000*%
%ADD11R,2.100000X2.100000*%
%ADD12C,2.000000*%
%ADD13R,1.700000X1.700000*%
%ADD14C,1.700000*%
%ADD15C,3.500000*%
%ADD16C,1.000000*%
%ADD17O,1.600000X1.600000*%
%ADD18R,1.600000X1.600000*%
%ADD19C,0.800000*%
%ADD20C,6.000000*%
%ADD21O,1.700000X1.700000*%
%ADD22C,1.600000*%
%ADD23C,1.800000*%
%ADD24R,1.800000X1.800000*%
G04 APERTURE END LIST*
D10*
%TO.C,J2*%
X157450000Y-135350000D03*
X152450000Y-135350000D03*
X147450000Y-135350000D03*
D11*
X142450000Y-135350000D03*
%TD*%
D10*
%TO.C,J4*%
X165325000Y-100700000D03*
X165325000Y-105700000D03*
X165325000Y-110700000D03*
D11*
X165325000Y-115700000D03*
%TD*%
D12*
%TO.C,RV1*%
X109950000Y-74450000D03*
X99950000Y-76950000D03*
X99950000Y-71950000D03*
%TD*%
D13*
%TO.C,J1*%
X161050000Y-89500000D03*
D14*
X161050000Y-87000000D03*
X163050000Y-87000000D03*
X163050000Y-89500000D03*
D15*
X165760000Y-94270000D03*
X165760000Y-82230000D03*
%TD*%
D16*
%TO.C,Y1*%
X131900000Y-134770000D03*
X127020000Y-134770000D03*
%TD*%
D17*
%TO.C,U2*%
X108000000Y-118780000D03*
X141020000Y-126400000D03*
X110540000Y-118780000D03*
X138480000Y-126400000D03*
X113080000Y-118780000D03*
X135940000Y-126400000D03*
X115620000Y-118780000D03*
X133400000Y-126400000D03*
X118160000Y-118780000D03*
X130860000Y-126400000D03*
X120700000Y-118780000D03*
X128320000Y-126400000D03*
X123240000Y-118780000D03*
X125780000Y-126400000D03*
X125780000Y-118780000D03*
X123240000Y-126400000D03*
X128320000Y-118780000D03*
X120700000Y-126400000D03*
X130860000Y-118780000D03*
X118160000Y-126400000D03*
X133400000Y-118780000D03*
X115620000Y-126400000D03*
X135940000Y-118780000D03*
X113080000Y-126400000D03*
X138480000Y-118780000D03*
X110540000Y-126400000D03*
X141020000Y-118780000D03*
D18*
X108000000Y-126400000D03*
%TD*%
D19*
%TO.C,H4*%
X94590990Y-132409010D03*
X93000000Y-131750000D03*
X91409010Y-132409010D03*
X90750000Y-134000000D03*
X91409010Y-135590990D03*
X93000000Y-136250000D03*
X94590990Y-135590990D03*
X95250000Y-134000000D03*
D20*
X93000000Y-134000000D03*
%TD*%
D17*
%TO.C,D3*%
X96480000Y-128900000D03*
D18*
X104100000Y-128900000D03*
%TD*%
D21*
%TO.C,J3*%
X135100000Y-82000000D03*
X132560000Y-82000000D03*
X130020000Y-82000000D03*
X127480000Y-82000000D03*
X124940000Y-82000000D03*
X122400000Y-82000000D03*
X119860000Y-82000000D03*
X117320000Y-82000000D03*
X114780000Y-82000000D03*
X112240000Y-82000000D03*
X109700000Y-82000000D03*
X107160000Y-82000000D03*
X104620000Y-82000000D03*
X102080000Y-82000000D03*
X99540000Y-82000000D03*
D13*
X97000000Y-82000000D03*
%TD*%
D19*
%TO.C,H1*%
X94590990Y-72409010D03*
X93000000Y-71750000D03*
X91409010Y-72409010D03*
X90750000Y-74000000D03*
X91409010Y-75590990D03*
X93000000Y-76250000D03*
X94590990Y-75590990D03*
X95250000Y-74000000D03*
D20*
X93000000Y-74000000D03*
%TD*%
D19*
%TO.C,H2*%
X165590990Y-72409010D03*
X164000000Y-71750000D03*
X162409010Y-72409010D03*
X161750000Y-74000000D03*
X162409010Y-75590990D03*
X164000000Y-76250000D03*
X165590990Y-75590990D03*
X166250000Y-74000000D03*
D20*
X164000000Y-74000000D03*
%TD*%
D19*
%TO.C,H3*%
X165590990Y-132409010D03*
X164000000Y-131750000D03*
X162409010Y-132409010D03*
X161750000Y-134000000D03*
X162409010Y-135590990D03*
X164000000Y-136250000D03*
X165590990Y-135590990D03*
X166250000Y-134000000D03*
D20*
X164000000Y-134000000D03*
%TD*%
%TO.C,FB1*%
G36*
G01*
X154250001Y-92950000D02*
X151349999Y-92950000D01*
G75*
G02*
X151100000Y-92700001I0J249999D01*
G01*
X151100000Y-91899999D01*
G75*
G02*
X151349999Y-91650000I249999J0D01*
G01*
X154250001Y-91650000D01*
G75*
G02*
X154500000Y-91899999I0J-249999D01*
G01*
X154500000Y-92700001D01*
G75*
G02*
X154250001Y-92950000I-249999J0D01*
G01*
G37*
G36*
G01*
X154250001Y-97400000D02*
X151349999Y-97400000D01*
G75*
G02*
X151100000Y-97150001I0J249999D01*
G01*
X151100000Y-96349999D01*
G75*
G02*
X151349999Y-96100000I249999J0D01*
G01*
X154250001Y-96100000D01*
G75*
G02*
X154500000Y-96349999I0J-249999D01*
G01*
X154500000Y-97150001D01*
G75*
G02*
X154250001Y-97400000I-249999J0D01*
G01*
G37*
%TD*%
D21*
%TO.C,J5*%
X122615000Y-103220000D03*
X120075000Y-103220000D03*
X122615000Y-105760000D03*
X120075000Y-105760000D03*
X122615000Y-108300000D03*
D13*
X120075000Y-108300000D03*
%TD*%
D22*
%TO.C,C1*%
X157225000Y-91175000D03*
X157225000Y-93675000D03*
%TD*%
%TO.C,C2*%
X157225000Y-85300000D03*
X157225000Y-87800000D03*
%TD*%
%TO.C,C3*%
X125750000Y-116000000D03*
X123250000Y-116000000D03*
%TD*%
%TO.C,C4*%
X93600000Y-126150000D03*
X93600000Y-128650000D03*
%TD*%
%TO.C,C6*%
X131300000Y-116000000D03*
X128800000Y-116000000D03*
%TD*%
%TO.C,C7*%
X121800000Y-133800000D03*
X121800000Y-136300000D03*
%TD*%
%TO.C,C8*%
X137150000Y-136300000D03*
X137150000Y-133800000D03*
%TD*%
D23*
%TO.C,D1*%
X137740000Y-73400000D03*
D24*
X135200000Y-73400000D03*
%TD*%
%TO.C,D2*%
X141900000Y-73400000D03*
D23*
X144440000Y-73400000D03*
%TD*%
D24*
%TO.C,D4*%
X148600000Y-73400000D03*
D23*
X151140000Y-73400000D03*
%TD*%
D22*
%TO.C,R1*%
X110575000Y-94400000D03*
D17*
X123275000Y-94400000D03*
%TD*%
%TO.C,R2*%
X123225000Y-90350000D03*
D22*
X110525000Y-90350000D03*
%TD*%
%TO.C,R3*%
X134425000Y-99625000D03*
D17*
X134425000Y-86925000D03*
%TD*%
%TO.C,R4*%
X138425000Y-86925000D03*
D22*
X138425000Y-99625000D03*
%TD*%
%TO.C,R5*%
X93050000Y-121000000D03*
D17*
X93050000Y-108300000D03*
%TD*%
D22*
%TO.C,R6*%
X111300000Y-133700000D03*
D17*
X98600000Y-133700000D03*
%TD*%
%TO.C,R7*%
X135800000Y-129750000D03*
D22*
X123100000Y-129750000D03*
%TD*%
%TO.C,R8*%
X152350000Y-124075000D03*
D17*
X165050000Y-124075000D03*
%TD*%
%TO.C,R9*%
X142425000Y-99625000D03*
D22*
X142425000Y-86925000D03*
%TD*%
D17*
%TO.C,R11*%
X165050000Y-128075000D03*
D22*
X152350000Y-128075000D03*
%TD*%
D12*
%TO.C,SW1*%
X97050000Y-125500000D03*
X97050000Y-121000000D03*
X103550000Y-125500000D03*
X103550000Y-121000000D03*
%TD*%
M02*
