%TF.GenerationSoftware,KiCad,Pcbnew,5.1.7*%
%TF.CreationDate,2020-10-11T15:33:19+02:00*%
%TF.ProjectId,livello_serbatoio_definitiva,6c697665-6c6c-46f5-9f73-65726261746f,rev?*%
%TF.SameCoordinates,Original*%
%TF.FileFunction,Soldermask,Bot*%
%TF.FilePolarity,Negative*%
%FSLAX46Y46*%
G04 Gerber Fmt 4.6, Leading zero omitted, Abs format (unit mm)*
G04 Created by KiCad (PCBNEW 5.1.7) date 2020-10-11 15:33:19*
%MOMM*%
%LPD*%
G01*
G04 APERTURE LIST*
%ADD10C,1.800000*%
%ADD11C,3.600000*%
%ADD12O,1.700000X1.700000*%
%ADD13C,6.100000*%
%ADD14C,0.900000*%
%ADD15C,1.100000*%
%ADD16C,2.100000*%
%ADD17C,1.700000*%
%ADD18C,1.900000*%
%ADD19O,1.900000X1.300000*%
%ADD20C,1.540000*%
%ADD21O,1.800000X1.800000*%
G04 APERTURE END LIST*
%TO.C,J1*%
G36*
G01*
X152600000Y-90350000D02*
X152600000Y-88650000D01*
G75*
G02*
X152650000Y-88600000I50000J0D01*
G01*
X154350000Y-88600000D01*
G75*
G02*
X154400000Y-88650000I0J-50000D01*
G01*
X154400000Y-90350000D01*
G75*
G02*
X154350000Y-90400000I-50000J0D01*
G01*
X152650000Y-90400000D01*
G75*
G02*
X152600000Y-90350000I0J50000D01*
G01*
G37*
D10*
X153500000Y-87000000D03*
X155500000Y-87000000D03*
X155500000Y-89500000D03*
D11*
X158210000Y-94270000D03*
X158210000Y-82230000D03*
%TD*%
%TO.C,U2*%
G36*
G01*
X112100000Y-127250000D02*
X110500000Y-127250000D01*
G75*
G02*
X110450000Y-127200000I0J50000D01*
G01*
X110450000Y-125600000D01*
G75*
G02*
X110500000Y-125550000I50000J0D01*
G01*
X112100000Y-125550000D01*
G75*
G02*
X112150000Y-125600000I0J-50000D01*
G01*
X112150000Y-127200000D01*
G75*
G02*
X112100000Y-127250000I-50000J0D01*
G01*
G37*
D12*
X144320000Y-118780000D03*
X113840000Y-126400000D03*
X141780000Y-118780000D03*
X116380000Y-126400000D03*
X139240000Y-118780000D03*
X118920000Y-126400000D03*
X136700000Y-118780000D03*
X121460000Y-126400000D03*
X134160000Y-118780000D03*
X124000000Y-126400000D03*
X131620000Y-118780000D03*
X126540000Y-126400000D03*
X129080000Y-118780000D03*
X129080000Y-126400000D03*
X126540000Y-118780000D03*
X131620000Y-126400000D03*
X124000000Y-118780000D03*
X134160000Y-126400000D03*
X121460000Y-118780000D03*
X136700000Y-126400000D03*
X118920000Y-118780000D03*
X139240000Y-126400000D03*
X116380000Y-118780000D03*
X141780000Y-126400000D03*
X113840000Y-118780000D03*
X144320000Y-126400000D03*
X111300000Y-118780000D03*
%TD*%
D13*
%TO.C,H4*%
X93000000Y-134000000D03*
D14*
X95250000Y-134000000D03*
X94590990Y-135590990D03*
X93000000Y-136250000D03*
X91409010Y-135590990D03*
X90750000Y-134000000D03*
X91409010Y-132409010D03*
X93000000Y-131750000D03*
X94590990Y-132409010D03*
%TD*%
D15*
%TO.C,Y1*%
X135290000Y-135050000D03*
X130410000Y-135050000D03*
%TD*%
D16*
%TO.C,F1*%
X153400000Y-103500000D03*
X164800000Y-103500000D03*
%TD*%
D17*
%TO.C,C3*%
X117700000Y-107000000D03*
D12*
X117700000Y-99500000D03*
%TD*%
D17*
%TO.C,C2*%
X143300000Y-105900000D03*
D12*
X143300000Y-113400000D03*
%TD*%
%TO.C,C4*%
X93400000Y-119900000D03*
D17*
X93400000Y-127400000D03*
%TD*%
D12*
%TO.C,C6*%
X122900000Y-99500000D03*
D17*
X122900000Y-107000000D03*
%TD*%
%TO.C,C7*%
X125200000Y-138100000D03*
D12*
X125200000Y-130600000D03*
%TD*%
%TO.C,C8*%
X140400000Y-130600000D03*
D17*
X140400000Y-138100000D03*
%TD*%
D18*
%TO.C,D1*%
X137640000Y-72400000D03*
G36*
G01*
X134150000Y-73300000D02*
X134150000Y-71500000D01*
G75*
G02*
X134200000Y-71450000I50000J0D01*
G01*
X136000000Y-71450000D01*
G75*
G02*
X136050000Y-71500000I0J-50000D01*
G01*
X136050000Y-73300000D01*
G75*
G02*
X136000000Y-73350000I-50000J0D01*
G01*
X134200000Y-73350000D01*
G75*
G02*
X134150000Y-73300000I0J50000D01*
G01*
G37*
%TD*%
%TO.C,D2*%
G36*
G01*
X140150000Y-73300000D02*
X140150000Y-71500000D01*
G75*
G02*
X140200000Y-71450000I50000J0D01*
G01*
X142000000Y-71450000D01*
G75*
G02*
X142050000Y-71500000I0J-50000D01*
G01*
X142050000Y-73300000D01*
G75*
G02*
X142000000Y-73350000I-50000J0D01*
G01*
X140200000Y-73350000D01*
G75*
G02*
X140150000Y-73300000I0J50000D01*
G01*
G37*
X143640000Y-72400000D03*
%TD*%
%TO.C,D3*%
G36*
G01*
X107350000Y-132200000D02*
X107350000Y-133800000D01*
G75*
G02*
X107300000Y-133850000I-50000J0D01*
G01*
X105700000Y-133850000D01*
G75*
G02*
X105650000Y-133800000I0J50000D01*
G01*
X105650000Y-132200000D01*
G75*
G02*
X105700000Y-132150000I50000J0D01*
G01*
X107300000Y-132150000D01*
G75*
G02*
X107350000Y-132200000I0J-50000D01*
G01*
G37*
D12*
X98880000Y-133000000D03*
%TD*%
%TO.C,D4*%
G36*
G01*
X146150000Y-73300000D02*
X146150000Y-71500000D01*
G75*
G02*
X146200000Y-71450000I50000J0D01*
G01*
X148000000Y-71450000D01*
G75*
G02*
X148050000Y-71500000I0J-50000D01*
G01*
X148050000Y-73300000D01*
G75*
G02*
X148000000Y-73350000I-50000J0D01*
G01*
X146200000Y-73350000D01*
G75*
G02*
X146150000Y-73300000I0J50000D01*
G01*
G37*
D18*
X149640000Y-72400000D03*
%TD*%
%TO.C,J4*%
G36*
G01*
X162179168Y-116050000D02*
X160820832Y-116050000D01*
G75*
G02*
X160550000Y-115779168I0J270832D01*
G01*
X160550000Y-115020832D01*
G75*
G02*
X160820832Y-114750000I270832J0D01*
G01*
X162179168Y-114750000D01*
G75*
G02*
X162450000Y-115020832I0J-270832D01*
G01*
X162450000Y-115779168D01*
G75*
G02*
X162179168Y-116050000I-270832J0D01*
G01*
G37*
D19*
X161500000Y-113400000D03*
X161500000Y-111400000D03*
X161500000Y-109400000D03*
%TD*%
D12*
%TO.C,R1*%
X123720000Y-90000000D03*
D17*
X116100000Y-90000000D03*
%TD*%
D12*
%TO.C,R2*%
X123720000Y-95000000D03*
D17*
X116100000Y-95000000D03*
%TD*%
%TO.C,R3*%
X140100000Y-86100000D03*
D12*
X140100000Y-78480000D03*
%TD*%
D17*
%TO.C,R4*%
X144300000Y-86100000D03*
D12*
X144300000Y-78480000D03*
%TD*%
%TO.C,R5*%
X90000000Y-127420000D03*
D17*
X90000000Y-119800000D03*
%TD*%
%TO.C,R6*%
X106500000Y-136000000D03*
D12*
X98880000Y-136000000D03*
%TD*%
D17*
%TO.C,R7*%
X129100000Y-130600000D03*
D12*
X136720000Y-130600000D03*
%TD*%
%TO.C,R8*%
X155720000Y-109300000D03*
D17*
X148100000Y-109300000D03*
%TD*%
D12*
%TO.C,R9*%
X148500000Y-86120000D03*
D17*
X148500000Y-78500000D03*
%TD*%
%TO.C,R11*%
X107050000Y-119630000D03*
D12*
X107050000Y-127250000D03*
%TD*%
D20*
%TO.C,RV1*%
X109180000Y-74200000D03*
X106640000Y-76740000D03*
X104100000Y-74200000D03*
%TD*%
D16*
%TO.C,SW1*%
X97050000Y-125500000D03*
X97050000Y-121000000D03*
X103550000Y-125500000D03*
X103550000Y-121000000D03*
%TD*%
%TO.C,J2*%
G36*
G01*
X162179168Y-128050000D02*
X160820832Y-128050000D01*
G75*
G02*
X160550000Y-127779168I0J270832D01*
G01*
X160550000Y-127020832D01*
G75*
G02*
X160820832Y-126750000I270832J0D01*
G01*
X162179168Y-126750000D01*
G75*
G02*
X162450000Y-127020832I0J-270832D01*
G01*
X162450000Y-127779168D01*
G75*
G02*
X162179168Y-128050000I-270832J0D01*
G01*
G37*
D19*
X161500000Y-125400000D03*
X161500000Y-123400000D03*
X161500000Y-121400000D03*
%TD*%
%TO.C,J3*%
G36*
G01*
X97850000Y-82900000D02*
X96150000Y-82900000D01*
G75*
G02*
X96100000Y-82850000I0J50000D01*
G01*
X96100000Y-81150000D01*
G75*
G02*
X96150000Y-81100000I50000J0D01*
G01*
X97850000Y-81100000D01*
G75*
G02*
X97900000Y-81150000I0J-50000D01*
G01*
X97900000Y-82850000D01*
G75*
G02*
X97850000Y-82900000I-50000J0D01*
G01*
G37*
D21*
X99540000Y-82000000D03*
X102080000Y-82000000D03*
X104620000Y-82000000D03*
X107160000Y-82000000D03*
X109700000Y-82000000D03*
X112240000Y-82000000D03*
X114780000Y-82000000D03*
X117320000Y-82000000D03*
X119860000Y-82000000D03*
X122400000Y-82000000D03*
X124940000Y-82000000D03*
X127480000Y-82000000D03*
X130020000Y-82000000D03*
X132560000Y-82000000D03*
X135100000Y-82000000D03*
%TD*%
%TO.C,J5*%
G36*
G01*
X106100000Y-92450000D02*
X106100000Y-94150000D01*
G75*
G02*
X106050000Y-94200000I-50000J0D01*
G01*
X104350000Y-94200000D01*
G75*
G02*
X104300000Y-94150000I0J50000D01*
G01*
X104300000Y-92450000D01*
G75*
G02*
X104350000Y-92400000I50000J0D01*
G01*
X106050000Y-92400000D01*
G75*
G02*
X106100000Y-92450000I0J-50000D01*
G01*
G37*
X105200000Y-95840000D03*
X105200000Y-98380000D03*
X105200000Y-100920000D03*
X105200000Y-103460000D03*
X105200000Y-106000000D03*
%TD*%
D14*
%TO.C,H1*%
X94590990Y-72409010D03*
X93000000Y-71750000D03*
X91409010Y-72409010D03*
X90750000Y-74000000D03*
X91409010Y-75590990D03*
X93000000Y-76250000D03*
X94590990Y-75590990D03*
X95250000Y-74000000D03*
D13*
X93000000Y-74000000D03*
%TD*%
%TO.C,H2*%
X164000000Y-74000000D03*
D14*
X166250000Y-74000000D03*
X165590990Y-75590990D03*
X164000000Y-76250000D03*
X162409010Y-75590990D03*
X161750000Y-74000000D03*
X162409010Y-72409010D03*
X164000000Y-71750000D03*
X165590990Y-72409010D03*
%TD*%
%TO.C,H3*%
X165590990Y-132409010D03*
X164000000Y-131750000D03*
X162409010Y-132409010D03*
X161750000Y-134000000D03*
X162409010Y-135590990D03*
X164000000Y-136250000D03*
X165590990Y-135590990D03*
X166250000Y-134000000D03*
D13*
X164000000Y-134000000D03*
%TD*%
M02*
