%TF.GenerationSoftware,KiCad,Pcbnew,8.0.1*%
%TF.CreationDate,2024-05-05T19:35:56+02:00*%
%TF.ProjectId,livello_serbatoio_definitiva,6c697665-6c6c-46f5-9f73-65726261746f,D*%
%TF.SameCoordinates,Original*%
%TF.FileFunction,Legend,Bot*%
%TF.FilePolarity,Positive*%
%FSLAX46Y46*%
G04 Gerber Fmt 4.6, Leading zero omitted, Abs format (unit mm)*
G04 Created by KiCad (PCBNEW 8.0.1) date 2024-05-05 19:35:56*
%MOMM*%
%LPD*%
G01*
G04 APERTURE LIST*
%ADD10C,0.153000*%
%ADD11C,0.120000*%
%ADD12C,0.150000*%
G04 APERTURE END LIST*
D10*
X104700000Y-84000000D02*
G75*
G02*
X104300000Y-84000000I-200000J0D01*
G01*
X104700000Y-84000000D02*
G75*
G02*
X105100000Y-84000000I200000J0D01*
G01*
D11*
X110960000Y-90130000D02*
X110960000Y-86870000D01*
X121140000Y-86870000D02*
X121140000Y-90130000D01*
X110960000Y-90110000D02*
X110960000Y-97120000D01*
D10*
X132500000Y-84000000D02*
G75*
G02*
X132100000Y-84000000I-200000J0D01*
G01*
X94570000Y-105800000D02*
G75*
G02*
X94970000Y-105800000I200000J0D01*
G01*
D11*
X110970000Y-86870000D02*
X121140000Y-86870000D01*
D10*
X94570000Y-105800000D02*
G75*
G02*
X94170000Y-105800000I-200000J0D01*
G01*
X132500000Y-84000000D02*
G75*
G02*
X132900000Y-84000000I200000J0D01*
G01*
D11*
X121140000Y-90130000D02*
X110960000Y-90130000D01*
X121140000Y-97120000D02*
X110960000Y-97120000D01*
D10*
X125000000Y-84000000D02*
G75*
G02*
X125400000Y-84000000I200000J0D01*
G01*
X125000000Y-84000000D02*
G75*
G02*
X124600000Y-84000000I-200000J0D01*
G01*
D11*
X121140000Y-97120000D02*
X121140000Y-90120000D01*
D10*
X116919523Y-138304663D02*
X117395713Y-138304663D01*
X117395713Y-138304663D02*
X117395713Y-137304663D01*
X116586189Y-137923710D02*
X115824285Y-137923710D01*
X116205237Y-138304663D02*
X116205237Y-137542758D01*
X107057618Y-137780853D02*
X106914761Y-137828472D01*
X106914761Y-137828472D02*
X106867142Y-137876091D01*
X106867142Y-137876091D02*
X106819523Y-137971329D01*
X106819523Y-137971329D02*
X106819523Y-138114186D01*
X106819523Y-138114186D02*
X106867142Y-138209424D01*
X106867142Y-138209424D02*
X106914761Y-138257044D01*
X106914761Y-138257044D02*
X107009999Y-138304663D01*
X107009999Y-138304663D02*
X107390951Y-138304663D01*
X107390951Y-138304663D02*
X107390951Y-137304663D01*
X107390951Y-137304663D02*
X107057618Y-137304663D01*
X107057618Y-137304663D02*
X106962380Y-137352282D01*
X106962380Y-137352282D02*
X106914761Y-137399901D01*
X106914761Y-137399901D02*
X106867142Y-137495139D01*
X106867142Y-137495139D02*
X106867142Y-137590377D01*
X106867142Y-137590377D02*
X106914761Y-137685615D01*
X106914761Y-137685615D02*
X106962380Y-137733234D01*
X106962380Y-137733234D02*
X107057618Y-137780853D01*
X107057618Y-137780853D02*
X107390951Y-137780853D01*
X106390951Y-137923710D02*
X105629047Y-137923710D01*
X91057142Y-126474663D02*
X91057142Y-125474663D01*
X91057142Y-125474663D02*
X90723809Y-126188948D01*
X90723809Y-126188948D02*
X90390476Y-125474663D01*
X90390476Y-125474663D02*
X90390476Y-126474663D01*
X89723809Y-125474663D02*
X89533333Y-125474663D01*
X89533333Y-125474663D02*
X89438095Y-125522282D01*
X89438095Y-125522282D02*
X89342857Y-125617520D01*
X89342857Y-125617520D02*
X89295238Y-125807996D01*
X89295238Y-125807996D02*
X89295238Y-126141329D01*
X89295238Y-126141329D02*
X89342857Y-126331805D01*
X89342857Y-126331805D02*
X89438095Y-126427044D01*
X89438095Y-126427044D02*
X89533333Y-126474663D01*
X89533333Y-126474663D02*
X89723809Y-126474663D01*
X89723809Y-126474663D02*
X89819047Y-126427044D01*
X89819047Y-126427044D02*
X89914285Y-126331805D01*
X89914285Y-126331805D02*
X89961904Y-126141329D01*
X89961904Y-126141329D02*
X89961904Y-125807996D01*
X89961904Y-125807996D02*
X89914285Y-125617520D01*
X89914285Y-125617520D02*
X89819047Y-125522282D01*
X89819047Y-125522282D02*
X89723809Y-125474663D01*
X94894285Y-112188948D02*
X94418095Y-112188948D01*
X94989523Y-112474663D02*
X94656190Y-111474663D01*
X94656190Y-111474663D02*
X94322857Y-112474663D01*
X93513333Y-111474663D02*
X93989523Y-111474663D01*
X93989523Y-111474663D02*
X94037142Y-111950853D01*
X94037142Y-111950853D02*
X93989523Y-111903234D01*
X93989523Y-111903234D02*
X93894285Y-111855615D01*
X93894285Y-111855615D02*
X93656190Y-111855615D01*
X93656190Y-111855615D02*
X93560952Y-111903234D01*
X93560952Y-111903234D02*
X93513333Y-111950853D01*
X93513333Y-111950853D02*
X93465714Y-112046091D01*
X93465714Y-112046091D02*
X93465714Y-112284186D01*
X93465714Y-112284186D02*
X93513333Y-112379424D01*
X93513333Y-112379424D02*
X93560952Y-112427044D01*
X93560952Y-112427044D02*
X93656190Y-112474663D01*
X93656190Y-112474663D02*
X93894285Y-112474663D01*
X93894285Y-112474663D02*
X93989523Y-112427044D01*
X93989523Y-112427044D02*
X94037142Y-112379424D01*
X94954285Y-109628948D02*
X94478095Y-109628948D01*
X95049523Y-109914663D02*
X94716190Y-108914663D01*
X94716190Y-108914663D02*
X94382857Y-109914663D01*
X93620952Y-109247996D02*
X93620952Y-109914663D01*
X93859047Y-108867044D02*
X94097142Y-109581329D01*
X94097142Y-109581329D02*
X93478095Y-109581329D01*
X95814285Y-107444663D02*
X95814285Y-106444663D01*
X95814285Y-106444663D02*
X95576190Y-106444663D01*
X95576190Y-106444663D02*
X95433333Y-106492282D01*
X95433333Y-106492282D02*
X95338095Y-106587520D01*
X95338095Y-106587520D02*
X95290476Y-106682758D01*
X95290476Y-106682758D02*
X95242857Y-106873234D01*
X95242857Y-106873234D02*
X95242857Y-107016091D01*
X95242857Y-107016091D02*
X95290476Y-107206567D01*
X95290476Y-107206567D02*
X95338095Y-107301805D01*
X95338095Y-107301805D02*
X95433333Y-107397044D01*
X95433333Y-107397044D02*
X95576190Y-107444663D01*
X95576190Y-107444663D02*
X95814285Y-107444663D01*
X94290476Y-107444663D02*
X94861904Y-107444663D01*
X94576190Y-107444663D02*
X94576190Y-106444663D01*
X94576190Y-106444663D02*
X94671428Y-106587520D01*
X94671428Y-106587520D02*
X94766666Y-106682758D01*
X94766666Y-106682758D02*
X94861904Y-106730377D01*
X93671428Y-106444663D02*
X93576190Y-106444663D01*
X93576190Y-106444663D02*
X93480952Y-106492282D01*
X93480952Y-106492282D02*
X93433333Y-106539901D01*
X93433333Y-106539901D02*
X93385714Y-106635139D01*
X93385714Y-106635139D02*
X93338095Y-106825615D01*
X93338095Y-106825615D02*
X93338095Y-107063710D01*
X93338095Y-107063710D02*
X93385714Y-107254186D01*
X93385714Y-107254186D02*
X93433333Y-107349424D01*
X93433333Y-107349424D02*
X93480952Y-107397044D01*
X93480952Y-107397044D02*
X93576190Y-107444663D01*
X93576190Y-107444663D02*
X93671428Y-107444663D01*
X93671428Y-107444663D02*
X93766666Y-107397044D01*
X93766666Y-107397044D02*
X93814285Y-107349424D01*
X93814285Y-107349424D02*
X93861904Y-107254186D01*
X93861904Y-107254186D02*
X93909523Y-107063710D01*
X93909523Y-107063710D02*
X93909523Y-106825615D01*
X93909523Y-106825615D02*
X93861904Y-106635139D01*
X93861904Y-106635139D02*
X93814285Y-106539901D01*
X93814285Y-106539901D02*
X93766666Y-106492282D01*
X93766666Y-106492282D02*
X93671428Y-106444663D01*
X113014285Y-85268948D02*
X112538095Y-85268948D01*
X113109523Y-85554663D02*
X112776190Y-84554663D01*
X112776190Y-84554663D02*
X112442857Y-85554663D01*
X112204761Y-84554663D02*
X111585714Y-84554663D01*
X111585714Y-84554663D02*
X111919047Y-84935615D01*
X111919047Y-84935615D02*
X111776190Y-84935615D01*
X111776190Y-84935615D02*
X111680952Y-84983234D01*
X111680952Y-84983234D02*
X111633333Y-85030853D01*
X111633333Y-85030853D02*
X111585714Y-85126091D01*
X111585714Y-85126091D02*
X111585714Y-85364186D01*
X111585714Y-85364186D02*
X111633333Y-85459424D01*
X111633333Y-85459424D02*
X111680952Y-85507044D01*
X111680952Y-85507044D02*
X111776190Y-85554663D01*
X111776190Y-85554663D02*
X112061904Y-85554663D01*
X112061904Y-85554663D02*
X112157142Y-85507044D01*
X112157142Y-85507044D02*
X112204761Y-85459424D01*
X115514285Y-85268948D02*
X115038095Y-85268948D01*
X115609523Y-85554663D02*
X115276190Y-84554663D01*
X115276190Y-84554663D02*
X114942857Y-85554663D01*
X114657142Y-84649901D02*
X114609523Y-84602282D01*
X114609523Y-84602282D02*
X114514285Y-84554663D01*
X114514285Y-84554663D02*
X114276190Y-84554663D01*
X114276190Y-84554663D02*
X114180952Y-84602282D01*
X114180952Y-84602282D02*
X114133333Y-84649901D01*
X114133333Y-84649901D02*
X114085714Y-84745139D01*
X114085714Y-84745139D02*
X114085714Y-84840377D01*
X114085714Y-84840377D02*
X114133333Y-84983234D01*
X114133333Y-84983234D02*
X114704761Y-85554663D01*
X114704761Y-85554663D02*
X114085714Y-85554663D01*
X118014285Y-85268948D02*
X117538095Y-85268948D01*
X118109523Y-85554663D02*
X117776190Y-84554663D01*
X117776190Y-84554663D02*
X117442857Y-85554663D01*
X116585714Y-85554663D02*
X117157142Y-85554663D01*
X116871428Y-85554663D02*
X116871428Y-84554663D01*
X116871428Y-84554663D02*
X116966666Y-84697520D01*
X116966666Y-84697520D02*
X117061904Y-84792758D01*
X117061904Y-84792758D02*
X117157142Y-84840377D01*
X120614285Y-85268948D02*
X120138095Y-85268948D01*
X120709523Y-85554663D02*
X120376190Y-84554663D01*
X120376190Y-84554663D02*
X120042857Y-85554663D01*
X119519047Y-84554663D02*
X119423809Y-84554663D01*
X119423809Y-84554663D02*
X119328571Y-84602282D01*
X119328571Y-84602282D02*
X119280952Y-84649901D01*
X119280952Y-84649901D02*
X119233333Y-84745139D01*
X119233333Y-84745139D02*
X119185714Y-84935615D01*
X119185714Y-84935615D02*
X119185714Y-85173710D01*
X119185714Y-85173710D02*
X119233333Y-85364186D01*
X119233333Y-85364186D02*
X119280952Y-85459424D01*
X119280952Y-85459424D02*
X119328571Y-85507044D01*
X119328571Y-85507044D02*
X119423809Y-85554663D01*
X119423809Y-85554663D02*
X119519047Y-85554663D01*
X119519047Y-85554663D02*
X119614285Y-85507044D01*
X119614285Y-85507044D02*
X119661904Y-85459424D01*
X119661904Y-85459424D02*
X119709523Y-85364186D01*
X119709523Y-85364186D02*
X119757142Y-85173710D01*
X119757142Y-85173710D02*
X119757142Y-84935615D01*
X119757142Y-84935615D02*
X119709523Y-84745139D01*
X119709523Y-84745139D02*
X119661904Y-84649901D01*
X119661904Y-84649901D02*
X119614285Y-84602282D01*
X119614285Y-84602282D02*
X119519047Y-84554663D01*
X95401904Y-103912282D02*
X95497142Y-103864663D01*
X95497142Y-103864663D02*
X95639999Y-103864663D01*
X95639999Y-103864663D02*
X95782856Y-103912282D01*
X95782856Y-103912282D02*
X95878094Y-104007520D01*
X95878094Y-104007520D02*
X95925713Y-104102758D01*
X95925713Y-104102758D02*
X95973332Y-104293234D01*
X95973332Y-104293234D02*
X95973332Y-104436091D01*
X95973332Y-104436091D02*
X95925713Y-104626567D01*
X95925713Y-104626567D02*
X95878094Y-104721805D01*
X95878094Y-104721805D02*
X95782856Y-104817044D01*
X95782856Y-104817044D02*
X95639999Y-104864663D01*
X95639999Y-104864663D02*
X95544761Y-104864663D01*
X95544761Y-104864663D02*
X95401904Y-104817044D01*
X95401904Y-104817044D02*
X95354285Y-104769424D01*
X95354285Y-104769424D02*
X95354285Y-104436091D01*
X95354285Y-104436091D02*
X95544761Y-104436091D01*
X94925713Y-104864663D02*
X94925713Y-103864663D01*
X94925713Y-103864663D02*
X94354285Y-104864663D01*
X94354285Y-104864663D02*
X94354285Y-103864663D01*
X93878094Y-104864663D02*
X93878094Y-103864663D01*
X93878094Y-103864663D02*
X93639999Y-103864663D01*
X93639999Y-103864663D02*
X93497142Y-103912282D01*
X93497142Y-103912282D02*
X93401904Y-104007520D01*
X93401904Y-104007520D02*
X93354285Y-104102758D01*
X93354285Y-104102758D02*
X93306666Y-104293234D01*
X93306666Y-104293234D02*
X93306666Y-104436091D01*
X93306666Y-104436091D02*
X93354285Y-104626567D01*
X93354285Y-104626567D02*
X93401904Y-104721805D01*
X93401904Y-104721805D02*
X93497142Y-104817044D01*
X93497142Y-104817044D02*
X93639999Y-104864663D01*
X93639999Y-104864663D02*
X93878094Y-104864663D01*
X96055713Y-101963710D02*
X95293809Y-101963710D01*
X95674761Y-102344663D02*
X95674761Y-101582758D01*
X94341428Y-101344663D02*
X94817618Y-101344663D01*
X94817618Y-101344663D02*
X94865237Y-101820853D01*
X94865237Y-101820853D02*
X94817618Y-101773234D01*
X94817618Y-101773234D02*
X94722380Y-101725615D01*
X94722380Y-101725615D02*
X94484285Y-101725615D01*
X94484285Y-101725615D02*
X94389047Y-101773234D01*
X94389047Y-101773234D02*
X94341428Y-101820853D01*
X94341428Y-101820853D02*
X94293809Y-101916091D01*
X94293809Y-101916091D02*
X94293809Y-102154186D01*
X94293809Y-102154186D02*
X94341428Y-102249424D01*
X94341428Y-102249424D02*
X94389047Y-102297044D01*
X94389047Y-102297044D02*
X94484285Y-102344663D01*
X94484285Y-102344663D02*
X94722380Y-102344663D01*
X94722380Y-102344663D02*
X94817618Y-102297044D01*
X94817618Y-102297044D02*
X94865237Y-102249424D01*
X94008094Y-101344663D02*
X93674761Y-102344663D01*
X93674761Y-102344663D02*
X93341428Y-101344663D01*
X121849523Y-138304663D02*
X122325713Y-138304663D01*
X122325713Y-138304663D02*
X122325713Y-137304663D01*
X121516189Y-137923710D02*
X120754285Y-137923710D01*
X91785713Y-124773710D02*
X91023809Y-124773710D01*
X91404761Y-125154663D02*
X91404761Y-124392758D01*
X90071428Y-124154663D02*
X90547618Y-124154663D01*
X90547618Y-124154663D02*
X90595237Y-124630853D01*
X90595237Y-124630853D02*
X90547618Y-124583234D01*
X90547618Y-124583234D02*
X90452380Y-124535615D01*
X90452380Y-124535615D02*
X90214285Y-124535615D01*
X90214285Y-124535615D02*
X90119047Y-124583234D01*
X90119047Y-124583234D02*
X90071428Y-124630853D01*
X90071428Y-124630853D02*
X90023809Y-124726091D01*
X90023809Y-124726091D02*
X90023809Y-124964186D01*
X90023809Y-124964186D02*
X90071428Y-125059424D01*
X90071428Y-125059424D02*
X90119047Y-125107044D01*
X90119047Y-125107044D02*
X90214285Y-125154663D01*
X90214285Y-125154663D02*
X90452380Y-125154663D01*
X90452380Y-125154663D02*
X90547618Y-125107044D01*
X90547618Y-125107044D02*
X90595237Y-125059424D01*
X89738094Y-124154663D02*
X89404761Y-125154663D01*
X89404761Y-125154663D02*
X89071428Y-124154663D01*
X90920952Y-126852282D02*
X91016190Y-126804663D01*
X91016190Y-126804663D02*
X91159047Y-126804663D01*
X91159047Y-126804663D02*
X91301904Y-126852282D01*
X91301904Y-126852282D02*
X91397142Y-126947520D01*
X91397142Y-126947520D02*
X91444761Y-127042758D01*
X91444761Y-127042758D02*
X91492380Y-127233234D01*
X91492380Y-127233234D02*
X91492380Y-127376091D01*
X91492380Y-127376091D02*
X91444761Y-127566567D01*
X91444761Y-127566567D02*
X91397142Y-127661805D01*
X91397142Y-127661805D02*
X91301904Y-127757044D01*
X91301904Y-127757044D02*
X91159047Y-127804663D01*
X91159047Y-127804663D02*
X91063809Y-127804663D01*
X91063809Y-127804663D02*
X90920952Y-127757044D01*
X90920952Y-127757044D02*
X90873333Y-127709424D01*
X90873333Y-127709424D02*
X90873333Y-127376091D01*
X90873333Y-127376091D02*
X91063809Y-127376091D01*
X90444761Y-127804663D02*
X90444761Y-126804663D01*
X90444761Y-126804663D02*
X89873333Y-127804663D01*
X89873333Y-127804663D02*
X89873333Y-126804663D01*
X89397142Y-127804663D02*
X89397142Y-126804663D01*
X89397142Y-126804663D02*
X89159047Y-126804663D01*
X89159047Y-126804663D02*
X89016190Y-126852282D01*
X89016190Y-126852282D02*
X88920952Y-126947520D01*
X88920952Y-126947520D02*
X88873333Y-127042758D01*
X88873333Y-127042758D02*
X88825714Y-127233234D01*
X88825714Y-127233234D02*
X88825714Y-127376091D01*
X88825714Y-127376091D02*
X88873333Y-127566567D01*
X88873333Y-127566567D02*
X88920952Y-127661805D01*
X88920952Y-127661805D02*
X89016190Y-127757044D01*
X89016190Y-127757044D02*
X89159047Y-127804663D01*
X89159047Y-127804663D02*
X89397142Y-127804663D01*
X123138094Y-85554663D02*
X123138094Y-84554663D01*
X123138094Y-84554663D02*
X122899999Y-84554663D01*
X122899999Y-84554663D02*
X122757142Y-84602282D01*
X122757142Y-84602282D02*
X122661904Y-84697520D01*
X122661904Y-84697520D02*
X122614285Y-84792758D01*
X122614285Y-84792758D02*
X122566666Y-84983234D01*
X122566666Y-84983234D02*
X122566666Y-85126091D01*
X122566666Y-85126091D02*
X122614285Y-85316567D01*
X122614285Y-85316567D02*
X122661904Y-85411805D01*
X122661904Y-85411805D02*
X122757142Y-85507044D01*
X122757142Y-85507044D02*
X122899999Y-85554663D01*
X122899999Y-85554663D02*
X123138094Y-85554663D01*
X121661904Y-84554663D02*
X122138094Y-84554663D01*
X122138094Y-84554663D02*
X122185713Y-85030853D01*
X122185713Y-85030853D02*
X122138094Y-84983234D01*
X122138094Y-84983234D02*
X122042856Y-84935615D01*
X122042856Y-84935615D02*
X121804761Y-84935615D01*
X121804761Y-84935615D02*
X121709523Y-84983234D01*
X121709523Y-84983234D02*
X121661904Y-85030853D01*
X121661904Y-85030853D02*
X121614285Y-85126091D01*
X121614285Y-85126091D02*
X121614285Y-85364186D01*
X121614285Y-85364186D02*
X121661904Y-85459424D01*
X121661904Y-85459424D02*
X121709523Y-85507044D01*
X121709523Y-85507044D02*
X121804761Y-85554663D01*
X121804761Y-85554663D02*
X122042856Y-85554663D01*
X122042856Y-85554663D02*
X122138094Y-85507044D01*
X122138094Y-85507044D02*
X122185713Y-85459424D01*
X102219047Y-85554663D02*
X102552380Y-85078472D01*
X102790475Y-85554663D02*
X102790475Y-84554663D01*
X102790475Y-84554663D02*
X102409523Y-84554663D01*
X102409523Y-84554663D02*
X102314285Y-84602282D01*
X102314285Y-84602282D02*
X102266666Y-84649901D01*
X102266666Y-84649901D02*
X102219047Y-84745139D01*
X102219047Y-84745139D02*
X102219047Y-84887996D01*
X102219047Y-84887996D02*
X102266666Y-84983234D01*
X102266666Y-84983234D02*
X102314285Y-85030853D01*
X102314285Y-85030853D02*
X102409523Y-85078472D01*
X102409523Y-85078472D02*
X102790475Y-85078472D01*
X101933332Y-84554663D02*
X101599999Y-85554663D01*
X101599999Y-85554663D02*
X101266666Y-84554663D01*
X99590476Y-84554663D02*
X100066666Y-84554663D01*
X100066666Y-84554663D02*
X100114285Y-85030853D01*
X100114285Y-85030853D02*
X100066666Y-84983234D01*
X100066666Y-84983234D02*
X99971428Y-84935615D01*
X99971428Y-84935615D02*
X99733333Y-84935615D01*
X99733333Y-84935615D02*
X99638095Y-84983234D01*
X99638095Y-84983234D02*
X99590476Y-85030853D01*
X99590476Y-85030853D02*
X99542857Y-85126091D01*
X99542857Y-85126091D02*
X99542857Y-85364186D01*
X99542857Y-85364186D02*
X99590476Y-85459424D01*
X99590476Y-85459424D02*
X99638095Y-85507044D01*
X99638095Y-85507044D02*
X99733333Y-85554663D01*
X99733333Y-85554663D02*
X99971428Y-85554663D01*
X99971428Y-85554663D02*
X100066666Y-85507044D01*
X100066666Y-85507044D02*
X100114285Y-85459424D01*
X99257142Y-84554663D02*
X98923809Y-85554663D01*
X98923809Y-85554663D02*
X98590476Y-84554663D01*
X125738094Y-85554663D02*
X125738094Y-84554663D01*
X125738094Y-84554663D02*
X125499999Y-84554663D01*
X125499999Y-84554663D02*
X125357142Y-84602282D01*
X125357142Y-84602282D02*
X125261904Y-84697520D01*
X125261904Y-84697520D02*
X125214285Y-84792758D01*
X125214285Y-84792758D02*
X125166666Y-84983234D01*
X125166666Y-84983234D02*
X125166666Y-85126091D01*
X125166666Y-85126091D02*
X125214285Y-85316567D01*
X125214285Y-85316567D02*
X125261904Y-85411805D01*
X125261904Y-85411805D02*
X125357142Y-85507044D01*
X125357142Y-85507044D02*
X125499999Y-85554663D01*
X125499999Y-85554663D02*
X125738094Y-85554663D01*
X124309523Y-84554663D02*
X124499999Y-84554663D01*
X124499999Y-84554663D02*
X124595237Y-84602282D01*
X124595237Y-84602282D02*
X124642856Y-84649901D01*
X124642856Y-84649901D02*
X124738094Y-84792758D01*
X124738094Y-84792758D02*
X124785713Y-84983234D01*
X124785713Y-84983234D02*
X124785713Y-85364186D01*
X124785713Y-85364186D02*
X124738094Y-85459424D01*
X124738094Y-85459424D02*
X124690475Y-85507044D01*
X124690475Y-85507044D02*
X124595237Y-85554663D01*
X124595237Y-85554663D02*
X124404761Y-85554663D01*
X124404761Y-85554663D02*
X124309523Y-85507044D01*
X124309523Y-85507044D02*
X124261904Y-85459424D01*
X124261904Y-85459424D02*
X124214285Y-85364186D01*
X124214285Y-85364186D02*
X124214285Y-85126091D01*
X124214285Y-85126091D02*
X124261904Y-85030853D01*
X124261904Y-85030853D02*
X124309523Y-84983234D01*
X124309523Y-84983234D02*
X124404761Y-84935615D01*
X124404761Y-84935615D02*
X124595237Y-84935615D01*
X124595237Y-84935615D02*
X124690475Y-84983234D01*
X124690475Y-84983234D02*
X124738094Y-85030853D01*
X124738094Y-85030853D02*
X124785713Y-85126091D01*
X133238094Y-85554663D02*
X133238094Y-84554663D01*
X133238094Y-84554663D02*
X132999999Y-84554663D01*
X132999999Y-84554663D02*
X132857142Y-84602282D01*
X132857142Y-84602282D02*
X132761904Y-84697520D01*
X132761904Y-84697520D02*
X132714285Y-84792758D01*
X132714285Y-84792758D02*
X132666666Y-84983234D01*
X132666666Y-84983234D02*
X132666666Y-85126091D01*
X132666666Y-85126091D02*
X132714285Y-85316567D01*
X132714285Y-85316567D02*
X132761904Y-85411805D01*
X132761904Y-85411805D02*
X132857142Y-85507044D01*
X132857142Y-85507044D02*
X132999999Y-85554663D01*
X132999999Y-85554663D02*
X133238094Y-85554663D01*
X132190475Y-85554663D02*
X131999999Y-85554663D01*
X131999999Y-85554663D02*
X131904761Y-85507044D01*
X131904761Y-85507044D02*
X131857142Y-85459424D01*
X131857142Y-85459424D02*
X131761904Y-85316567D01*
X131761904Y-85316567D02*
X131714285Y-85126091D01*
X131714285Y-85126091D02*
X131714285Y-84745139D01*
X131714285Y-84745139D02*
X131761904Y-84649901D01*
X131761904Y-84649901D02*
X131809523Y-84602282D01*
X131809523Y-84602282D02*
X131904761Y-84554663D01*
X131904761Y-84554663D02*
X132095237Y-84554663D01*
X132095237Y-84554663D02*
X132190475Y-84602282D01*
X132190475Y-84602282D02*
X132238094Y-84649901D01*
X132238094Y-84649901D02*
X132285713Y-84745139D01*
X132285713Y-84745139D02*
X132285713Y-84983234D01*
X132285713Y-84983234D02*
X132238094Y-85078472D01*
X132238094Y-85078472D02*
X132190475Y-85126091D01*
X132190475Y-85126091D02*
X132095237Y-85173710D01*
X132095237Y-85173710D02*
X131904761Y-85173710D01*
X131904761Y-85173710D02*
X131809523Y-85126091D01*
X131809523Y-85126091D02*
X131761904Y-85078472D01*
X131761904Y-85078472D02*
X131714285Y-84983234D01*
X134838095Y-84602282D02*
X134933333Y-84554663D01*
X134933333Y-84554663D02*
X135076190Y-84554663D01*
X135076190Y-84554663D02*
X135219047Y-84602282D01*
X135219047Y-84602282D02*
X135314285Y-84697520D01*
X135314285Y-84697520D02*
X135361904Y-84792758D01*
X135361904Y-84792758D02*
X135409523Y-84983234D01*
X135409523Y-84983234D02*
X135409523Y-85126091D01*
X135409523Y-85126091D02*
X135361904Y-85316567D01*
X135361904Y-85316567D02*
X135314285Y-85411805D01*
X135314285Y-85411805D02*
X135219047Y-85507044D01*
X135219047Y-85507044D02*
X135076190Y-85554663D01*
X135076190Y-85554663D02*
X134980952Y-85554663D01*
X134980952Y-85554663D02*
X134838095Y-85507044D01*
X134838095Y-85507044D02*
X134790476Y-85459424D01*
X134790476Y-85459424D02*
X134790476Y-85126091D01*
X134790476Y-85126091D02*
X134980952Y-85126091D01*
X130738094Y-85554663D02*
X130738094Y-84554663D01*
X130738094Y-84554663D02*
X130499999Y-84554663D01*
X130499999Y-84554663D02*
X130357142Y-84602282D01*
X130357142Y-84602282D02*
X130261904Y-84697520D01*
X130261904Y-84697520D02*
X130214285Y-84792758D01*
X130214285Y-84792758D02*
X130166666Y-84983234D01*
X130166666Y-84983234D02*
X130166666Y-85126091D01*
X130166666Y-85126091D02*
X130214285Y-85316567D01*
X130214285Y-85316567D02*
X130261904Y-85411805D01*
X130261904Y-85411805D02*
X130357142Y-85507044D01*
X130357142Y-85507044D02*
X130499999Y-85554663D01*
X130499999Y-85554663D02*
X130738094Y-85554663D01*
X129595237Y-84983234D02*
X129690475Y-84935615D01*
X129690475Y-84935615D02*
X129738094Y-84887996D01*
X129738094Y-84887996D02*
X129785713Y-84792758D01*
X129785713Y-84792758D02*
X129785713Y-84745139D01*
X129785713Y-84745139D02*
X129738094Y-84649901D01*
X129738094Y-84649901D02*
X129690475Y-84602282D01*
X129690475Y-84602282D02*
X129595237Y-84554663D01*
X129595237Y-84554663D02*
X129404761Y-84554663D01*
X129404761Y-84554663D02*
X129309523Y-84602282D01*
X129309523Y-84602282D02*
X129261904Y-84649901D01*
X129261904Y-84649901D02*
X129214285Y-84745139D01*
X129214285Y-84745139D02*
X129214285Y-84792758D01*
X129214285Y-84792758D02*
X129261904Y-84887996D01*
X129261904Y-84887996D02*
X129309523Y-84935615D01*
X129309523Y-84935615D02*
X129404761Y-84983234D01*
X129404761Y-84983234D02*
X129595237Y-84983234D01*
X129595237Y-84983234D02*
X129690475Y-85030853D01*
X129690475Y-85030853D02*
X129738094Y-85078472D01*
X129738094Y-85078472D02*
X129785713Y-85173710D01*
X129785713Y-85173710D02*
X129785713Y-85364186D01*
X129785713Y-85364186D02*
X129738094Y-85459424D01*
X129738094Y-85459424D02*
X129690475Y-85507044D01*
X129690475Y-85507044D02*
X129595237Y-85554663D01*
X129595237Y-85554663D02*
X129404761Y-85554663D01*
X129404761Y-85554663D02*
X129309523Y-85507044D01*
X129309523Y-85507044D02*
X129261904Y-85459424D01*
X129261904Y-85459424D02*
X129214285Y-85364186D01*
X129214285Y-85364186D02*
X129214285Y-85173710D01*
X129214285Y-85173710D02*
X129261904Y-85078472D01*
X129261904Y-85078472D02*
X129309523Y-85030853D01*
X129309523Y-85030853D02*
X129404761Y-84983234D01*
X105338094Y-85554663D02*
X105338094Y-84554663D01*
X105338094Y-84554663D02*
X105099999Y-84554663D01*
X105099999Y-84554663D02*
X104957142Y-84602282D01*
X104957142Y-84602282D02*
X104861904Y-84697520D01*
X104861904Y-84697520D02*
X104814285Y-84792758D01*
X104814285Y-84792758D02*
X104766666Y-84983234D01*
X104766666Y-84983234D02*
X104766666Y-85126091D01*
X104766666Y-85126091D02*
X104814285Y-85316567D01*
X104814285Y-85316567D02*
X104861904Y-85411805D01*
X104861904Y-85411805D02*
X104957142Y-85507044D01*
X104957142Y-85507044D02*
X105099999Y-85554663D01*
X105099999Y-85554663D02*
X105338094Y-85554663D01*
X104433332Y-84554663D02*
X103814285Y-84554663D01*
X103814285Y-84554663D02*
X104147618Y-84935615D01*
X104147618Y-84935615D02*
X104004761Y-84935615D01*
X104004761Y-84935615D02*
X103909523Y-84983234D01*
X103909523Y-84983234D02*
X103861904Y-85030853D01*
X103861904Y-85030853D02*
X103814285Y-85126091D01*
X103814285Y-85126091D02*
X103814285Y-85364186D01*
X103814285Y-85364186D02*
X103861904Y-85459424D01*
X103861904Y-85459424D02*
X103909523Y-85507044D01*
X103909523Y-85507044D02*
X104004761Y-85554663D01*
X104004761Y-85554663D02*
X104290475Y-85554663D01*
X104290475Y-85554663D02*
X104385713Y-85507044D01*
X104385713Y-85507044D02*
X104433332Y-85459424D01*
X128238094Y-85554663D02*
X128238094Y-84554663D01*
X128238094Y-84554663D02*
X127999999Y-84554663D01*
X127999999Y-84554663D02*
X127857142Y-84602282D01*
X127857142Y-84602282D02*
X127761904Y-84697520D01*
X127761904Y-84697520D02*
X127714285Y-84792758D01*
X127714285Y-84792758D02*
X127666666Y-84983234D01*
X127666666Y-84983234D02*
X127666666Y-85126091D01*
X127666666Y-85126091D02*
X127714285Y-85316567D01*
X127714285Y-85316567D02*
X127761904Y-85411805D01*
X127761904Y-85411805D02*
X127857142Y-85507044D01*
X127857142Y-85507044D02*
X127999999Y-85554663D01*
X127999999Y-85554663D02*
X128238094Y-85554663D01*
X127333332Y-84554663D02*
X126666666Y-84554663D01*
X126666666Y-84554663D02*
X127095237Y-85554663D01*
X110438094Y-85554663D02*
X110438094Y-84554663D01*
X110438094Y-84554663D02*
X110199999Y-84554663D01*
X110199999Y-84554663D02*
X110057142Y-84602282D01*
X110057142Y-84602282D02*
X109961904Y-84697520D01*
X109961904Y-84697520D02*
X109914285Y-84792758D01*
X109914285Y-84792758D02*
X109866666Y-84983234D01*
X109866666Y-84983234D02*
X109866666Y-85126091D01*
X109866666Y-85126091D02*
X109914285Y-85316567D01*
X109914285Y-85316567D02*
X109961904Y-85411805D01*
X109961904Y-85411805D02*
X110057142Y-85507044D01*
X110057142Y-85507044D02*
X110199999Y-85554663D01*
X110199999Y-85554663D02*
X110438094Y-85554663D01*
X109009523Y-84887996D02*
X109009523Y-85554663D01*
X109247618Y-84507044D02*
X109485713Y-85221329D01*
X109485713Y-85221329D02*
X108866666Y-85221329D01*
X106938095Y-84602282D02*
X107033333Y-84554663D01*
X107033333Y-84554663D02*
X107176190Y-84554663D01*
X107176190Y-84554663D02*
X107319047Y-84602282D01*
X107319047Y-84602282D02*
X107414285Y-84697520D01*
X107414285Y-84697520D02*
X107461904Y-84792758D01*
X107461904Y-84792758D02*
X107509523Y-84983234D01*
X107509523Y-84983234D02*
X107509523Y-85126091D01*
X107509523Y-85126091D02*
X107461904Y-85316567D01*
X107461904Y-85316567D02*
X107414285Y-85411805D01*
X107414285Y-85411805D02*
X107319047Y-85507044D01*
X107319047Y-85507044D02*
X107176190Y-85554663D01*
X107176190Y-85554663D02*
X107080952Y-85554663D01*
X107080952Y-85554663D02*
X106938095Y-85507044D01*
X106938095Y-85507044D02*
X106890476Y-85459424D01*
X106890476Y-85459424D02*
X106890476Y-85126091D01*
X106890476Y-85126091D02*
X107080952Y-85126091D01*
X96738095Y-84602282D02*
X96833333Y-84554663D01*
X96833333Y-84554663D02*
X96976190Y-84554663D01*
X96976190Y-84554663D02*
X97119047Y-84602282D01*
X97119047Y-84602282D02*
X97214285Y-84697520D01*
X97214285Y-84697520D02*
X97261904Y-84792758D01*
X97261904Y-84792758D02*
X97309523Y-84983234D01*
X97309523Y-84983234D02*
X97309523Y-85126091D01*
X97309523Y-85126091D02*
X97261904Y-85316567D01*
X97261904Y-85316567D02*
X97214285Y-85411805D01*
X97214285Y-85411805D02*
X97119047Y-85507044D01*
X97119047Y-85507044D02*
X96976190Y-85554663D01*
X96976190Y-85554663D02*
X96880952Y-85554663D01*
X96880952Y-85554663D02*
X96738095Y-85507044D01*
X96738095Y-85507044D02*
X96690476Y-85459424D01*
X96690476Y-85459424D02*
X96690476Y-85126091D01*
X96690476Y-85126091D02*
X96880952Y-85126091D01*
X115514285Y-98268948D02*
X115038095Y-98268948D01*
X115609523Y-98554663D02*
X115276190Y-97554663D01*
X115276190Y-97554663D02*
X114942857Y-98554663D01*
X114657142Y-97649901D02*
X114609523Y-97602282D01*
X114609523Y-97602282D02*
X114514285Y-97554663D01*
X114514285Y-97554663D02*
X114276190Y-97554663D01*
X114276190Y-97554663D02*
X114180952Y-97602282D01*
X114180952Y-97602282D02*
X114133333Y-97649901D01*
X114133333Y-97649901D02*
X114085714Y-97745139D01*
X114085714Y-97745139D02*
X114085714Y-97840377D01*
X114085714Y-97840377D02*
X114133333Y-97983234D01*
X114133333Y-97983234D02*
X114704761Y-98554663D01*
X114704761Y-98554663D02*
X114085714Y-98554663D01*
X120614285Y-98268948D02*
X120138095Y-98268948D01*
X120709523Y-98554663D02*
X120376190Y-97554663D01*
X120376190Y-97554663D02*
X120042857Y-98554663D01*
X119519047Y-97554663D02*
X119423809Y-97554663D01*
X119423809Y-97554663D02*
X119328571Y-97602282D01*
X119328571Y-97602282D02*
X119280952Y-97649901D01*
X119280952Y-97649901D02*
X119233333Y-97745139D01*
X119233333Y-97745139D02*
X119185714Y-97935615D01*
X119185714Y-97935615D02*
X119185714Y-98173710D01*
X119185714Y-98173710D02*
X119233333Y-98364186D01*
X119233333Y-98364186D02*
X119280952Y-98459424D01*
X119280952Y-98459424D02*
X119328571Y-98507044D01*
X119328571Y-98507044D02*
X119423809Y-98554663D01*
X119423809Y-98554663D02*
X119519047Y-98554663D01*
X119519047Y-98554663D02*
X119614285Y-98507044D01*
X119614285Y-98507044D02*
X119661904Y-98459424D01*
X119661904Y-98459424D02*
X119709523Y-98364186D01*
X119709523Y-98364186D02*
X119757142Y-98173710D01*
X119757142Y-98173710D02*
X119757142Y-97935615D01*
X119757142Y-97935615D02*
X119709523Y-97745139D01*
X119709523Y-97745139D02*
X119661904Y-97649901D01*
X119661904Y-97649901D02*
X119614285Y-97602282D01*
X119614285Y-97602282D02*
X119519047Y-97554663D01*
X92965714Y-127774663D02*
X93299047Y-127298472D01*
X93537142Y-127774663D02*
X93537142Y-126774663D01*
X93537142Y-126774663D02*
X93156190Y-126774663D01*
X93156190Y-126774663D02*
X93060952Y-126822282D01*
X93060952Y-126822282D02*
X93013333Y-126869901D01*
X93013333Y-126869901D02*
X92965714Y-126965139D01*
X92965714Y-126965139D02*
X92965714Y-127107996D01*
X92965714Y-127107996D02*
X93013333Y-127203234D01*
X93013333Y-127203234D02*
X93060952Y-127250853D01*
X93060952Y-127250853D02*
X93156190Y-127298472D01*
X93156190Y-127298472D02*
X93537142Y-127298472D01*
X92584761Y-127727044D02*
X92441904Y-127774663D01*
X92441904Y-127774663D02*
X92203809Y-127774663D01*
X92203809Y-127774663D02*
X92108571Y-127727044D01*
X92108571Y-127727044D02*
X92060952Y-127679424D01*
X92060952Y-127679424D02*
X92013333Y-127584186D01*
X92013333Y-127584186D02*
X92013333Y-127488948D01*
X92013333Y-127488948D02*
X92060952Y-127393710D01*
X92060952Y-127393710D02*
X92108571Y-127346091D01*
X92108571Y-127346091D02*
X92203809Y-127298472D01*
X92203809Y-127298472D02*
X92394285Y-127250853D01*
X92394285Y-127250853D02*
X92489523Y-127203234D01*
X92489523Y-127203234D02*
X92537142Y-127155615D01*
X92537142Y-127155615D02*
X92584761Y-127060377D01*
X92584761Y-127060377D02*
X92584761Y-126965139D01*
X92584761Y-126965139D02*
X92537142Y-126869901D01*
X92537142Y-126869901D02*
X92489523Y-126822282D01*
X92489523Y-126822282D02*
X92394285Y-126774663D01*
X92394285Y-126774663D02*
X92156190Y-126774663D01*
X92156190Y-126774663D02*
X92013333Y-126822282D01*
X113014285Y-98268948D02*
X112538095Y-98268948D01*
X113109523Y-98554663D02*
X112776190Y-97554663D01*
X112776190Y-97554663D02*
X112442857Y-98554663D01*
X112204761Y-97554663D02*
X111585714Y-97554663D01*
X111585714Y-97554663D02*
X111919047Y-97935615D01*
X111919047Y-97935615D02*
X111776190Y-97935615D01*
X111776190Y-97935615D02*
X111680952Y-97983234D01*
X111680952Y-97983234D02*
X111633333Y-98030853D01*
X111633333Y-98030853D02*
X111585714Y-98126091D01*
X111585714Y-98126091D02*
X111585714Y-98364186D01*
X111585714Y-98364186D02*
X111633333Y-98459424D01*
X111633333Y-98459424D02*
X111680952Y-98507044D01*
X111680952Y-98507044D02*
X111776190Y-98554663D01*
X111776190Y-98554663D02*
X112061904Y-98554663D01*
X112061904Y-98554663D02*
X112157142Y-98507044D01*
X112157142Y-98507044D02*
X112204761Y-98459424D01*
X128451904Y-137780853D02*
X128118571Y-137780853D01*
X127975714Y-138304663D02*
X128451904Y-138304663D01*
X128451904Y-138304663D02*
X128451904Y-137304663D01*
X128451904Y-137304663D02*
X127975714Y-137304663D01*
X126975714Y-138209424D02*
X127023333Y-138257044D01*
X127023333Y-138257044D02*
X127166190Y-138304663D01*
X127166190Y-138304663D02*
X127261428Y-138304663D01*
X127261428Y-138304663D02*
X127404285Y-138257044D01*
X127404285Y-138257044D02*
X127499523Y-138161805D01*
X127499523Y-138161805D02*
X127547142Y-138066567D01*
X127547142Y-138066567D02*
X127594761Y-137876091D01*
X127594761Y-137876091D02*
X127594761Y-137733234D01*
X127594761Y-137733234D02*
X127547142Y-137542758D01*
X127547142Y-137542758D02*
X127499523Y-137447520D01*
X127499523Y-137447520D02*
X127404285Y-137352282D01*
X127404285Y-137352282D02*
X127261428Y-137304663D01*
X127261428Y-137304663D02*
X127166190Y-137304663D01*
X127166190Y-137304663D02*
X127023333Y-137352282D01*
X127023333Y-137352282D02*
X126975714Y-137399901D01*
X126547142Y-138304663D02*
X126547142Y-137304663D01*
X126547142Y-137780853D02*
X125975714Y-137780853D01*
X125975714Y-138304663D02*
X125975714Y-137304663D01*
X125309047Y-137304663D02*
X125118571Y-137304663D01*
X125118571Y-137304663D02*
X125023333Y-137352282D01*
X125023333Y-137352282D02*
X124928095Y-137447520D01*
X124928095Y-137447520D02*
X124880476Y-137637996D01*
X124880476Y-137637996D02*
X124880476Y-137971329D01*
X124880476Y-137971329D02*
X124928095Y-138161805D01*
X124928095Y-138161805D02*
X125023333Y-138257044D01*
X125023333Y-138257044D02*
X125118571Y-138304663D01*
X125118571Y-138304663D02*
X125309047Y-138304663D01*
X125309047Y-138304663D02*
X125404285Y-138257044D01*
X125404285Y-138257044D02*
X125499523Y-138161805D01*
X125499523Y-138161805D02*
X125547142Y-137971329D01*
X125547142Y-137971329D02*
X125547142Y-137637996D01*
X125547142Y-137637996D02*
X125499523Y-137447520D01*
X125499523Y-137447520D02*
X125404285Y-137352282D01*
X125404285Y-137352282D02*
X125309047Y-137304663D01*
X93361427Y-125124663D02*
X93361427Y-124124663D01*
X93361427Y-124124663D02*
X93028094Y-124838948D01*
X93028094Y-124838948D02*
X92694761Y-124124663D01*
X92694761Y-124124663D02*
X92694761Y-125124663D01*
X92218570Y-125124663D02*
X92218570Y-124124663D01*
X118014285Y-98268948D02*
X117538095Y-98268948D01*
X118109523Y-98554663D02*
X117776190Y-97554663D01*
X117776190Y-97554663D02*
X117442857Y-98554663D01*
X116585714Y-98554663D02*
X117157142Y-98554663D01*
X116871428Y-98554663D02*
X116871428Y-97554663D01*
X116871428Y-97554663D02*
X116966666Y-97697520D01*
X116966666Y-97697520D02*
X117061904Y-97792758D01*
X117061904Y-97792758D02*
X117157142Y-97840377D01*
X137631904Y-137442282D02*
X137727142Y-137394663D01*
X137727142Y-137394663D02*
X137869999Y-137394663D01*
X137869999Y-137394663D02*
X138012856Y-137442282D01*
X138012856Y-137442282D02*
X138108094Y-137537520D01*
X138108094Y-137537520D02*
X138155713Y-137632758D01*
X138155713Y-137632758D02*
X138203332Y-137823234D01*
X138203332Y-137823234D02*
X138203332Y-137966091D01*
X138203332Y-137966091D02*
X138155713Y-138156567D01*
X138155713Y-138156567D02*
X138108094Y-138251805D01*
X138108094Y-138251805D02*
X138012856Y-138347044D01*
X138012856Y-138347044D02*
X137869999Y-138394663D01*
X137869999Y-138394663D02*
X137774761Y-138394663D01*
X137774761Y-138394663D02*
X137631904Y-138347044D01*
X137631904Y-138347044D02*
X137584285Y-138299424D01*
X137584285Y-138299424D02*
X137584285Y-137966091D01*
X137584285Y-137966091D02*
X137774761Y-137966091D01*
X137155713Y-138394663D02*
X137155713Y-137394663D01*
X137155713Y-137394663D02*
X136584285Y-138394663D01*
X136584285Y-138394663D02*
X136584285Y-137394663D01*
X136108094Y-138394663D02*
X136108094Y-137394663D01*
X136108094Y-137394663D02*
X135869999Y-137394663D01*
X135869999Y-137394663D02*
X135727142Y-137442282D01*
X135727142Y-137442282D02*
X135631904Y-137537520D01*
X135631904Y-137537520D02*
X135584285Y-137632758D01*
X135584285Y-137632758D02*
X135536666Y-137823234D01*
X135536666Y-137823234D02*
X135536666Y-137966091D01*
X135536666Y-137966091D02*
X135584285Y-138156567D01*
X135584285Y-138156567D02*
X135631904Y-138251805D01*
X135631904Y-138251805D02*
X135727142Y-138347044D01*
X135727142Y-138347044D02*
X135869999Y-138394663D01*
X135869999Y-138394663D02*
X136108094Y-138394663D01*
X133343808Y-137304663D02*
X132772380Y-137304663D01*
X133058094Y-138304663D02*
X133058094Y-137304663D01*
X131867618Y-138304663D02*
X132200951Y-137828472D01*
X132439046Y-138304663D02*
X132439046Y-137304663D01*
X132439046Y-137304663D02*
X132058094Y-137304663D01*
X132058094Y-137304663D02*
X131962856Y-137352282D01*
X131962856Y-137352282D02*
X131915237Y-137399901D01*
X131915237Y-137399901D02*
X131867618Y-137495139D01*
X131867618Y-137495139D02*
X131867618Y-137637996D01*
X131867618Y-137637996D02*
X131915237Y-137733234D01*
X131915237Y-137733234D02*
X131962856Y-137780853D01*
X131962856Y-137780853D02*
X132058094Y-137828472D01*
X132058094Y-137828472D02*
X132439046Y-137828472D01*
X131439046Y-138304663D02*
X131439046Y-137304663D01*
X130439047Y-137352282D02*
X130534285Y-137304663D01*
X130534285Y-137304663D02*
X130677142Y-137304663D01*
X130677142Y-137304663D02*
X130819999Y-137352282D01*
X130819999Y-137352282D02*
X130915237Y-137447520D01*
X130915237Y-137447520D02*
X130962856Y-137542758D01*
X130962856Y-137542758D02*
X131010475Y-137733234D01*
X131010475Y-137733234D02*
X131010475Y-137876091D01*
X131010475Y-137876091D02*
X130962856Y-138066567D01*
X130962856Y-138066567D02*
X130915237Y-138161805D01*
X130915237Y-138161805D02*
X130819999Y-138257044D01*
X130819999Y-138257044D02*
X130677142Y-138304663D01*
X130677142Y-138304663D02*
X130581904Y-138304663D01*
X130581904Y-138304663D02*
X130439047Y-138257044D01*
X130439047Y-138257044D02*
X130391428Y-138209424D01*
X130391428Y-138209424D02*
X130391428Y-137876091D01*
X130391428Y-137876091D02*
X130581904Y-137876091D01*
X93030476Y-126369424D02*
X93078095Y-126417044D01*
X93078095Y-126417044D02*
X93220952Y-126464663D01*
X93220952Y-126464663D02*
X93316190Y-126464663D01*
X93316190Y-126464663D02*
X93459047Y-126417044D01*
X93459047Y-126417044D02*
X93554285Y-126321805D01*
X93554285Y-126321805D02*
X93601904Y-126226567D01*
X93601904Y-126226567D02*
X93649523Y-126036091D01*
X93649523Y-126036091D02*
X93649523Y-125893234D01*
X93649523Y-125893234D02*
X93601904Y-125702758D01*
X93601904Y-125702758D02*
X93554285Y-125607520D01*
X93554285Y-125607520D02*
X93459047Y-125512282D01*
X93459047Y-125512282D02*
X93316190Y-125464663D01*
X93316190Y-125464663D02*
X93220952Y-125464663D01*
X93220952Y-125464663D02*
X93078095Y-125512282D01*
X93078095Y-125512282D02*
X93030476Y-125559901D01*
X92601904Y-126464663D02*
X92601904Y-125464663D01*
X92030476Y-126464663D02*
X92459047Y-125893234D01*
X92030476Y-125464663D02*
X92601904Y-126036091D01*
X112147618Y-137780853D02*
X112004761Y-137828472D01*
X112004761Y-137828472D02*
X111957142Y-137876091D01*
X111957142Y-137876091D02*
X111909523Y-137971329D01*
X111909523Y-137971329D02*
X111909523Y-138114186D01*
X111909523Y-138114186D02*
X111957142Y-138209424D01*
X111957142Y-138209424D02*
X112004761Y-138257044D01*
X112004761Y-138257044D02*
X112099999Y-138304663D01*
X112099999Y-138304663D02*
X112480951Y-138304663D01*
X112480951Y-138304663D02*
X112480951Y-137304663D01*
X112480951Y-137304663D02*
X112147618Y-137304663D01*
X112147618Y-137304663D02*
X112052380Y-137352282D01*
X112052380Y-137352282D02*
X112004761Y-137399901D01*
X112004761Y-137399901D02*
X111957142Y-137495139D01*
X111957142Y-137495139D02*
X111957142Y-137590377D01*
X111957142Y-137590377D02*
X112004761Y-137685615D01*
X112004761Y-137685615D02*
X112052380Y-137733234D01*
X112052380Y-137733234D02*
X112147618Y-137780853D01*
X112147618Y-137780853D02*
X112480951Y-137780853D01*
X111480951Y-137923710D02*
X110719047Y-137923710D01*
X111099999Y-138304663D02*
X111099999Y-137542758D01*
X122651904Y-138702282D02*
X122747142Y-138654663D01*
X122747142Y-138654663D02*
X122889999Y-138654663D01*
X122889999Y-138654663D02*
X123032856Y-138702282D01*
X123032856Y-138702282D02*
X123128094Y-138797520D01*
X123128094Y-138797520D02*
X123175713Y-138892758D01*
X123175713Y-138892758D02*
X123223332Y-139083234D01*
X123223332Y-139083234D02*
X123223332Y-139226091D01*
X123223332Y-139226091D02*
X123175713Y-139416567D01*
X123175713Y-139416567D02*
X123128094Y-139511805D01*
X123128094Y-139511805D02*
X123032856Y-139607044D01*
X123032856Y-139607044D02*
X122889999Y-139654663D01*
X122889999Y-139654663D02*
X122794761Y-139654663D01*
X122794761Y-139654663D02*
X122651904Y-139607044D01*
X122651904Y-139607044D02*
X122604285Y-139559424D01*
X122604285Y-139559424D02*
X122604285Y-139226091D01*
X122604285Y-139226091D02*
X122794761Y-139226091D01*
X122175713Y-139654663D02*
X122175713Y-138654663D01*
X122175713Y-138654663D02*
X121604285Y-139654663D01*
X121604285Y-139654663D02*
X121604285Y-138654663D01*
X121128094Y-139654663D02*
X121128094Y-138654663D01*
X121128094Y-138654663D02*
X120889999Y-138654663D01*
X120889999Y-138654663D02*
X120747142Y-138702282D01*
X120747142Y-138702282D02*
X120651904Y-138797520D01*
X120651904Y-138797520D02*
X120604285Y-138892758D01*
X120604285Y-138892758D02*
X120556666Y-139083234D01*
X120556666Y-139083234D02*
X120556666Y-139226091D01*
X120556666Y-139226091D02*
X120604285Y-139416567D01*
X120604285Y-139416567D02*
X120651904Y-139511805D01*
X120651904Y-139511805D02*
X120747142Y-139607044D01*
X120747142Y-139607044D02*
X120889999Y-139654663D01*
X120889999Y-139654663D02*
X121128094Y-139654663D01*
X143205713Y-137923710D02*
X142443809Y-137923710D01*
X142824761Y-138304663D02*
X142824761Y-137542758D01*
X141491428Y-137304663D02*
X141967618Y-137304663D01*
X141967618Y-137304663D02*
X142015237Y-137780853D01*
X142015237Y-137780853D02*
X141967618Y-137733234D01*
X141967618Y-137733234D02*
X141872380Y-137685615D01*
X141872380Y-137685615D02*
X141634285Y-137685615D01*
X141634285Y-137685615D02*
X141539047Y-137733234D01*
X141539047Y-137733234D02*
X141491428Y-137780853D01*
X141491428Y-137780853D02*
X141443809Y-137876091D01*
X141443809Y-137876091D02*
X141443809Y-138114186D01*
X141443809Y-138114186D02*
X141491428Y-138209424D01*
X141491428Y-138209424D02*
X141539047Y-138257044D01*
X141539047Y-138257044D02*
X141634285Y-138304663D01*
X141634285Y-138304663D02*
X141872380Y-138304663D01*
X141872380Y-138304663D02*
X141967618Y-138257044D01*
X141967618Y-138257044D02*
X142015237Y-138209424D01*
X141158094Y-137304663D02*
X140824761Y-138304663D01*
X140824761Y-138304663D02*
X140491428Y-137304663D01*
X89463333Y-114084663D02*
X89463333Y-114798948D01*
X89463333Y-114798948D02*
X89510952Y-114941805D01*
X89510952Y-114941805D02*
X89606190Y-115037044D01*
X89606190Y-115037044D02*
X89749047Y-115084663D01*
X89749047Y-115084663D02*
X89844285Y-115084663D01*
X88510952Y-114084663D02*
X88987142Y-114084663D01*
X88987142Y-114084663D02*
X89034761Y-114560853D01*
X89034761Y-114560853D02*
X88987142Y-114513234D01*
X88987142Y-114513234D02*
X88891904Y-114465615D01*
X88891904Y-114465615D02*
X88653809Y-114465615D01*
X88653809Y-114465615D02*
X88558571Y-114513234D01*
X88558571Y-114513234D02*
X88510952Y-114560853D01*
X88510952Y-114560853D02*
X88463333Y-114656091D01*
X88463333Y-114656091D02*
X88463333Y-114894186D01*
X88463333Y-114894186D02*
X88510952Y-114989424D01*
X88510952Y-114989424D02*
X88558571Y-115037044D01*
X88558571Y-115037044D02*
X88653809Y-115084663D01*
X88653809Y-115084663D02*
X88891904Y-115084663D01*
X88891904Y-115084663D02*
X88987142Y-115037044D01*
X88987142Y-115037044D02*
X89034761Y-114989424D01*
X160850833Y-128854663D02*
X160850833Y-129568948D01*
X160850833Y-129568948D02*
X160898452Y-129711805D01*
X160898452Y-129711805D02*
X160993690Y-129807044D01*
X160993690Y-129807044D02*
X161136547Y-129854663D01*
X161136547Y-129854663D02*
X161231785Y-129854663D01*
X159850833Y-129854663D02*
X160422261Y-129854663D01*
X160136547Y-129854663D02*
X160136547Y-128854663D01*
X160136547Y-128854663D02*
X160231785Y-128997520D01*
X160231785Y-128997520D02*
X160327023Y-129092758D01*
X160327023Y-129092758D02*
X160422261Y-129140377D01*
X161856666Y-107739424D02*
X161904285Y-107787044D01*
X161904285Y-107787044D02*
X162047142Y-107834663D01*
X162047142Y-107834663D02*
X162142380Y-107834663D01*
X162142380Y-107834663D02*
X162285237Y-107787044D01*
X162285237Y-107787044D02*
X162380475Y-107691805D01*
X162380475Y-107691805D02*
X162428094Y-107596567D01*
X162428094Y-107596567D02*
X162475713Y-107406091D01*
X162475713Y-107406091D02*
X162475713Y-107263234D01*
X162475713Y-107263234D02*
X162428094Y-107072758D01*
X162428094Y-107072758D02*
X162380475Y-106977520D01*
X162380475Y-106977520D02*
X162285237Y-106882282D01*
X162285237Y-106882282D02*
X162142380Y-106834663D01*
X162142380Y-106834663D02*
X162047142Y-106834663D01*
X162047142Y-106834663D02*
X161904285Y-106882282D01*
X161904285Y-106882282D02*
X161856666Y-106929901D01*
X161475713Y-106929901D02*
X161428094Y-106882282D01*
X161428094Y-106882282D02*
X161332856Y-106834663D01*
X161332856Y-106834663D02*
X161094761Y-106834663D01*
X161094761Y-106834663D02*
X160999523Y-106882282D01*
X160999523Y-106882282D02*
X160951904Y-106929901D01*
X160951904Y-106929901D02*
X160904285Y-107025139D01*
X160904285Y-107025139D02*
X160904285Y-107120377D01*
X160904285Y-107120377D02*
X160951904Y-107263234D01*
X160951904Y-107263234D02*
X161523332Y-107834663D01*
X161523332Y-107834663D02*
X160904285Y-107834663D01*
X164361904Y-107054663D02*
X164361904Y-107864186D01*
X164361904Y-107864186D02*
X164314285Y-107959424D01*
X164314285Y-107959424D02*
X164266666Y-108007044D01*
X164266666Y-108007044D02*
X164171428Y-108054663D01*
X164171428Y-108054663D02*
X163980952Y-108054663D01*
X163980952Y-108054663D02*
X163885714Y-108007044D01*
X163885714Y-108007044D02*
X163838095Y-107959424D01*
X163838095Y-107959424D02*
X163790476Y-107864186D01*
X163790476Y-107864186D02*
X163790476Y-107054663D01*
X163409523Y-107054663D02*
X162790476Y-107054663D01*
X162790476Y-107054663D02*
X163123809Y-107435615D01*
X163123809Y-107435615D02*
X162980952Y-107435615D01*
X162980952Y-107435615D02*
X162885714Y-107483234D01*
X162885714Y-107483234D02*
X162838095Y-107530853D01*
X162838095Y-107530853D02*
X162790476Y-107626091D01*
X162790476Y-107626091D02*
X162790476Y-107864186D01*
X162790476Y-107864186D02*
X162838095Y-107959424D01*
X162838095Y-107959424D02*
X162885714Y-108007044D01*
X162885714Y-108007044D02*
X162980952Y-108054663D01*
X162980952Y-108054663D02*
X163266666Y-108054663D01*
X163266666Y-108054663D02*
X163361904Y-108007044D01*
X163361904Y-108007044D02*
X163409523Y-107959424D01*
X166066666Y-107539424D02*
X166114285Y-107587044D01*
X166114285Y-107587044D02*
X166257142Y-107634663D01*
X166257142Y-107634663D02*
X166352380Y-107634663D01*
X166352380Y-107634663D02*
X166495237Y-107587044D01*
X166495237Y-107587044D02*
X166590475Y-107491805D01*
X166590475Y-107491805D02*
X166638094Y-107396567D01*
X166638094Y-107396567D02*
X166685713Y-107206091D01*
X166685713Y-107206091D02*
X166685713Y-107063234D01*
X166685713Y-107063234D02*
X166638094Y-106872758D01*
X166638094Y-106872758D02*
X166590475Y-106777520D01*
X166590475Y-106777520D02*
X166495237Y-106682282D01*
X166495237Y-106682282D02*
X166352380Y-106634663D01*
X166352380Y-106634663D02*
X166257142Y-106634663D01*
X166257142Y-106634663D02*
X166114285Y-106682282D01*
X166114285Y-106682282D02*
X166066666Y-106729901D01*
X165161904Y-106634663D02*
X165638094Y-106634663D01*
X165638094Y-106634663D02*
X165685713Y-107110853D01*
X165685713Y-107110853D02*
X165638094Y-107063234D01*
X165638094Y-107063234D02*
X165542856Y-107015615D01*
X165542856Y-107015615D02*
X165304761Y-107015615D01*
X165304761Y-107015615D02*
X165209523Y-107063234D01*
X165209523Y-107063234D02*
X165161904Y-107110853D01*
X165161904Y-107110853D02*
X165114285Y-107206091D01*
X165114285Y-107206091D02*
X165114285Y-107444186D01*
X165114285Y-107444186D02*
X165161904Y-107539424D01*
X165161904Y-107539424D02*
X165209523Y-107587044D01*
X165209523Y-107587044D02*
X165304761Y-107634663D01*
X165304761Y-107634663D02*
X165542856Y-107634663D01*
X165542856Y-107634663D02*
X165638094Y-107587044D01*
X165638094Y-107587044D02*
X165685713Y-107539424D01*
X164201904Y-95844663D02*
X164201904Y-96654186D01*
X164201904Y-96654186D02*
X164154285Y-96749424D01*
X164154285Y-96749424D02*
X164106666Y-96797044D01*
X164106666Y-96797044D02*
X164011428Y-96844663D01*
X164011428Y-96844663D02*
X163820952Y-96844663D01*
X163820952Y-96844663D02*
X163725714Y-96797044D01*
X163725714Y-96797044D02*
X163678095Y-96749424D01*
X163678095Y-96749424D02*
X163630476Y-96654186D01*
X163630476Y-96654186D02*
X163630476Y-95844663D01*
X162630476Y-96844663D02*
X163201904Y-96844663D01*
X162916190Y-96844663D02*
X162916190Y-95844663D01*
X162916190Y-95844663D02*
X163011428Y-95987520D01*
X163011428Y-95987520D02*
X163106666Y-96082758D01*
X163106666Y-96082758D02*
X163201904Y-96130377D01*
X88833333Y-100084663D02*
X88833333Y-100798948D01*
X88833333Y-100798948D02*
X88880952Y-100941805D01*
X88880952Y-100941805D02*
X88976190Y-101037044D01*
X88976190Y-101037044D02*
X89119047Y-101084663D01*
X89119047Y-101084663D02*
X89214285Y-101084663D01*
X88452380Y-100084663D02*
X87785714Y-100084663D01*
X87785714Y-100084663D02*
X88214285Y-101084663D01*
X109798333Y-94874663D02*
X109798333Y-95588948D01*
X109798333Y-95588948D02*
X109845952Y-95731805D01*
X109845952Y-95731805D02*
X109941190Y-95827044D01*
X109941190Y-95827044D02*
X110084047Y-95874663D01*
X110084047Y-95874663D02*
X110179285Y-95874663D01*
X108893571Y-94874663D02*
X109084047Y-94874663D01*
X109084047Y-94874663D02*
X109179285Y-94922282D01*
X109179285Y-94922282D02*
X109226904Y-94969901D01*
X109226904Y-94969901D02*
X109322142Y-95112758D01*
X109322142Y-95112758D02*
X109369761Y-95303234D01*
X109369761Y-95303234D02*
X109369761Y-95684186D01*
X109369761Y-95684186D02*
X109322142Y-95779424D01*
X109322142Y-95779424D02*
X109274523Y-95827044D01*
X109274523Y-95827044D02*
X109179285Y-95874663D01*
X109179285Y-95874663D02*
X108988809Y-95874663D01*
X108988809Y-95874663D02*
X108893571Y-95827044D01*
X108893571Y-95827044D02*
X108845952Y-95779424D01*
X108845952Y-95779424D02*
X108798333Y-95684186D01*
X108798333Y-95684186D02*
X108798333Y-95446091D01*
X108798333Y-95446091D02*
X108845952Y-95350853D01*
X108845952Y-95350853D02*
X108893571Y-95303234D01*
X108893571Y-95303234D02*
X108988809Y-95255615D01*
X108988809Y-95255615D02*
X109179285Y-95255615D01*
X109179285Y-95255615D02*
X109274523Y-95303234D01*
X109274523Y-95303234D02*
X109322142Y-95350853D01*
X109322142Y-95350853D02*
X109369761Y-95446091D01*
X168211904Y-100414663D02*
X167640476Y-100414663D01*
X167926190Y-101414663D02*
X167926190Y-100414663D01*
X167307142Y-101414663D02*
X167307142Y-100414663D01*
X167307142Y-100414663D02*
X166926190Y-100414663D01*
X166926190Y-100414663D02*
X166830952Y-100462282D01*
X166830952Y-100462282D02*
X166783333Y-100509901D01*
X166783333Y-100509901D02*
X166735714Y-100605139D01*
X166735714Y-100605139D02*
X166735714Y-100747996D01*
X166735714Y-100747996D02*
X166783333Y-100843234D01*
X166783333Y-100843234D02*
X166830952Y-100890853D01*
X166830952Y-100890853D02*
X166926190Y-100938472D01*
X166926190Y-100938472D02*
X167307142Y-100938472D01*
X166354761Y-100509901D02*
X166307142Y-100462282D01*
X166307142Y-100462282D02*
X166211904Y-100414663D01*
X166211904Y-100414663D02*
X165973809Y-100414663D01*
X165973809Y-100414663D02*
X165878571Y-100462282D01*
X165878571Y-100462282D02*
X165830952Y-100509901D01*
X165830952Y-100509901D02*
X165783333Y-100605139D01*
X165783333Y-100605139D02*
X165783333Y-100700377D01*
X165783333Y-100700377D02*
X165830952Y-100843234D01*
X165830952Y-100843234D02*
X166402380Y-101414663D01*
X166402380Y-101414663D02*
X165783333Y-101414663D01*
X155341904Y-93564663D02*
X154770476Y-93564663D01*
X155056190Y-94564663D02*
X155056190Y-93564663D01*
X154437142Y-94564663D02*
X154437142Y-93564663D01*
X154437142Y-93564663D02*
X154056190Y-93564663D01*
X154056190Y-93564663D02*
X153960952Y-93612282D01*
X153960952Y-93612282D02*
X153913333Y-93659901D01*
X153913333Y-93659901D02*
X153865714Y-93755139D01*
X153865714Y-93755139D02*
X153865714Y-93897996D01*
X153865714Y-93897996D02*
X153913333Y-93993234D01*
X153913333Y-93993234D02*
X153960952Y-94040853D01*
X153960952Y-94040853D02*
X154056190Y-94088472D01*
X154056190Y-94088472D02*
X154437142Y-94088472D01*
X152913333Y-94564663D02*
X153484761Y-94564663D01*
X153199047Y-94564663D02*
X153199047Y-93564663D01*
X153199047Y-93564663D02*
X153294285Y-93707520D01*
X153294285Y-93707520D02*
X153389523Y-93802758D01*
X153389523Y-93802758D02*
X153484761Y-93850377D01*
X153606666Y-114009424D02*
X153654285Y-114057044D01*
X153654285Y-114057044D02*
X153797142Y-114104663D01*
X153797142Y-114104663D02*
X153892380Y-114104663D01*
X153892380Y-114104663D02*
X154035237Y-114057044D01*
X154035237Y-114057044D02*
X154130475Y-113961805D01*
X154130475Y-113961805D02*
X154178094Y-113866567D01*
X154178094Y-113866567D02*
X154225713Y-113676091D01*
X154225713Y-113676091D02*
X154225713Y-113533234D01*
X154225713Y-113533234D02*
X154178094Y-113342758D01*
X154178094Y-113342758D02*
X154130475Y-113247520D01*
X154130475Y-113247520D02*
X154035237Y-113152282D01*
X154035237Y-113152282D02*
X153892380Y-113104663D01*
X153892380Y-113104663D02*
X153797142Y-113104663D01*
X153797142Y-113104663D02*
X153654285Y-113152282D01*
X153654285Y-113152282D02*
X153606666Y-113199901D01*
X152654285Y-114104663D02*
X153225713Y-114104663D01*
X152939999Y-114104663D02*
X152939999Y-113104663D01*
X152939999Y-113104663D02*
X153035237Y-113247520D01*
X153035237Y-113247520D02*
X153130475Y-113342758D01*
X153130475Y-113342758D02*
X153225713Y-113390377D01*
X151166666Y-114489424D02*
X151214285Y-114537044D01*
X151214285Y-114537044D02*
X151357142Y-114584663D01*
X151357142Y-114584663D02*
X151452380Y-114584663D01*
X151452380Y-114584663D02*
X151595237Y-114537044D01*
X151595237Y-114537044D02*
X151690475Y-114441805D01*
X151690475Y-114441805D02*
X151738094Y-114346567D01*
X151738094Y-114346567D02*
X151785713Y-114156091D01*
X151785713Y-114156091D02*
X151785713Y-114013234D01*
X151785713Y-114013234D02*
X151738094Y-113822758D01*
X151738094Y-113822758D02*
X151690475Y-113727520D01*
X151690475Y-113727520D02*
X151595237Y-113632282D01*
X151595237Y-113632282D02*
X151452380Y-113584663D01*
X151452380Y-113584663D02*
X151357142Y-113584663D01*
X151357142Y-113584663D02*
X151214285Y-113632282D01*
X151214285Y-113632282D02*
X151166666Y-113679901D01*
X150690475Y-114584663D02*
X150499999Y-114584663D01*
X150499999Y-114584663D02*
X150404761Y-114537044D01*
X150404761Y-114537044D02*
X150357142Y-114489424D01*
X150357142Y-114489424D02*
X150261904Y-114346567D01*
X150261904Y-114346567D02*
X150214285Y-114156091D01*
X150214285Y-114156091D02*
X150214285Y-113775139D01*
X150214285Y-113775139D02*
X150261904Y-113679901D01*
X150261904Y-113679901D02*
X150309523Y-113632282D01*
X150309523Y-113632282D02*
X150404761Y-113584663D01*
X150404761Y-113584663D02*
X150595237Y-113584663D01*
X150595237Y-113584663D02*
X150690475Y-113632282D01*
X150690475Y-113632282D02*
X150738094Y-113679901D01*
X150738094Y-113679901D02*
X150785713Y-113775139D01*
X150785713Y-113775139D02*
X150785713Y-114013234D01*
X150785713Y-114013234D02*
X150738094Y-114108472D01*
X150738094Y-114108472D02*
X150690475Y-114156091D01*
X150690475Y-114156091D02*
X150595237Y-114203710D01*
X150595237Y-114203710D02*
X150404761Y-114203710D01*
X150404761Y-114203710D02*
X150309523Y-114156091D01*
X150309523Y-114156091D02*
X150261904Y-114108472D01*
X150261904Y-114108472D02*
X150214285Y-114013234D01*
X147868333Y-102580853D02*
X148201666Y-102580853D01*
X148201666Y-103104663D02*
X148201666Y-102104663D01*
X148201666Y-102104663D02*
X147725476Y-102104663D01*
X146820714Y-103104663D02*
X147392142Y-103104663D01*
X147106428Y-103104663D02*
X147106428Y-102104663D01*
X147106428Y-102104663D02*
X147201666Y-102247520D01*
X147201666Y-102247520D02*
X147296904Y-102342758D01*
X147296904Y-102342758D02*
X147392142Y-102390377D01*
X156923333Y-113620853D02*
X157256666Y-113620853D01*
X157256666Y-114144663D02*
X157256666Y-113144663D01*
X157256666Y-113144663D02*
X156780476Y-113144663D01*
X156066190Y-113620853D02*
X155923333Y-113668472D01*
X155923333Y-113668472D02*
X155875714Y-113716091D01*
X155875714Y-113716091D02*
X155828095Y-113811329D01*
X155828095Y-113811329D02*
X155828095Y-113954186D01*
X155828095Y-113954186D02*
X155875714Y-114049424D01*
X155875714Y-114049424D02*
X155923333Y-114097044D01*
X155923333Y-114097044D02*
X156018571Y-114144663D01*
X156018571Y-114144663D02*
X156399523Y-114144663D01*
X156399523Y-114144663D02*
X156399523Y-113144663D01*
X156399523Y-113144663D02*
X156066190Y-113144663D01*
X156066190Y-113144663D02*
X155970952Y-113192282D01*
X155970952Y-113192282D02*
X155923333Y-113239901D01*
X155923333Y-113239901D02*
X155875714Y-113335139D01*
X155875714Y-113335139D02*
X155875714Y-113430377D01*
X155875714Y-113430377D02*
X155923333Y-113525615D01*
X155923333Y-113525615D02*
X155970952Y-113573234D01*
X155970952Y-113573234D02*
X156066190Y-113620853D01*
X156066190Y-113620853D02*
X156399523Y-113620853D01*
X154875714Y-114144663D02*
X155447142Y-114144663D01*
X155161428Y-114144663D02*
X155161428Y-113144663D01*
X155161428Y-113144663D02*
X155256666Y-113287520D01*
X155256666Y-113287520D02*
X155351904Y-113382758D01*
X155351904Y-113382758D02*
X155447142Y-113430377D01*
D11*
%TO.C,J5*%
X88785000Y-115785000D02*
X91385000Y-115785000D01*
X88785000Y-123525000D02*
X88785000Y-115785000D01*
X88785000Y-123525000D02*
X93985000Y-123525000D01*
X91385000Y-115785000D02*
X91385000Y-118385000D01*
X91385000Y-118385000D02*
X93985000Y-118385000D01*
X92655000Y-115785000D02*
X93985000Y-115785000D01*
X93985000Y-115785000D02*
X93985000Y-117115000D01*
X93985000Y-123525000D02*
X93985000Y-118385000D01*
%TO.C,J1*%
X159280000Y-122530000D02*
X159280000Y-123530000D01*
X159280000Y-123530000D02*
X159780000Y-123030000D01*
X159780000Y-123030000D02*
X159280000Y-122530000D01*
X160000000Y-115620000D02*
X160000000Y-127940000D01*
X160000000Y-127940000D02*
X164260000Y-127940000D01*
X164260000Y-115620000D02*
X160000000Y-115620000D01*
X168360000Y-115620000D02*
X176720000Y-115620000D01*
X176720000Y-115620000D02*
X176720000Y-127940000D01*
X176720000Y-127940000D02*
X168360000Y-127940000D01*
%TO.C,C2*%
X155290000Y-106950000D02*
X160530000Y-106950000D01*
X155290000Y-109690000D02*
X155290000Y-106950000D01*
X155290000Y-109690000D02*
X160530000Y-109690000D01*
X160530000Y-109690000D02*
X160530000Y-106950000D01*
%TO.C,U3*%
X160990000Y-109800000D02*
X160990000Y-111600000D01*
X164210000Y-109800000D02*
X164210000Y-110600000D01*
X164210000Y-111400000D02*
X164210000Y-110600000D01*
X164490000Y-112140000D02*
X164160000Y-111900000D01*
X164490000Y-111660000D01*
X164490000Y-112140000D01*
G36*
X164490000Y-112140000D02*
G01*
X164160000Y-111900000D01*
X164490000Y-111660000D01*
X164490000Y-112140000D01*
G37*
%TO.C,C5*%
X164630000Y-107980000D02*
X164630000Y-113220000D01*
X164630000Y-107980000D02*
X167370000Y-107980000D01*
X164630000Y-113220000D02*
X167370000Y-113220000D01*
X167370000Y-107980000D02*
X167370000Y-113220000D01*
D12*
%TO.C,U1*%
X153377000Y-104645000D02*
X153377000Y-98895000D01*
X153952000Y-98895000D02*
X153377000Y-98895000D01*
X153952000Y-104645000D02*
X153377000Y-104645000D01*
X164027000Y-98895000D02*
X163452000Y-98895000D01*
X164027000Y-104645000D02*
X163452000Y-104645000D01*
X164027000Y-104645000D02*
X164027000Y-98895000D01*
D11*
X153952000Y-98395000D02*
X153622000Y-98635000D01*
X153622000Y-98155000D01*
X153952000Y-98395000D01*
G36*
X153952000Y-98395000D02*
G01*
X153622000Y-98635000D01*
X153622000Y-98155000D01*
X153952000Y-98395000D01*
G37*
%TO.C,J7*%
X90070000Y-100530000D02*
X91400000Y-100530000D01*
X90070000Y-101860000D02*
X90070000Y-100530000D01*
X90070000Y-103130000D02*
X92730000Y-103130000D01*
X90070000Y-113350000D02*
X90070000Y-103130000D01*
X90070000Y-113350000D02*
X92730000Y-113350000D01*
X92730000Y-113350000D02*
X92730000Y-103130000D01*
%TO.C,J6*%
X110905000Y-96750000D02*
X110905000Y-95420000D01*
X112235000Y-96750000D02*
X110905000Y-96750000D01*
X113505000Y-96750000D02*
X113505000Y-94090000D01*
X121185000Y-94090000D02*
X113505000Y-94090000D01*
X121185000Y-96750000D02*
X113505000Y-96750000D01*
X121185000Y-96750000D02*
X121185000Y-94090000D01*
%TO.C,TP2*%
X166072000Y-99370000D02*
G75*
G02*
X164672000Y-99370000I-700000J0D01*
G01*
X164672000Y-99370000D02*
G75*
G02*
X166072000Y-99370000I700000J0D01*
G01*
%TO.C,TP1*%
X156480000Y-95490000D02*
G75*
G02*
X155080000Y-95490000I-700000J0D01*
G01*
X155080000Y-95490000D02*
G75*
G02*
X156480000Y-95490000I700000J0D01*
G01*
%TO.C,C1*%
X152070000Y-107490000D02*
X152070000Y-112730000D01*
X152070000Y-107490000D02*
X154810000Y-107490000D01*
X152070000Y-112730000D02*
X154810000Y-112730000D01*
X154810000Y-107490000D02*
X154810000Y-112730000D01*
%TO.C,C9*%
X146395225Y-111665000D02*
X146395225Y-112165000D01*
X146645225Y-111915000D02*
X146145225Y-111915000D01*
X148950000Y-107860000D02*
X148950000Y-109400000D01*
X148950000Y-111480000D02*
X148950000Y-113020000D01*
X148990000Y-107860000D02*
X148990000Y-109400000D01*
X148990000Y-111480000D02*
X148990000Y-113020000D01*
X149030000Y-107861000D02*
X149030000Y-109400000D01*
X149030000Y-111480000D02*
X149030000Y-113019000D01*
X149070000Y-107862000D02*
X149070000Y-109400000D01*
X149070000Y-111480000D02*
X149070000Y-113018000D01*
X149110000Y-107864000D02*
X149110000Y-109400000D01*
X149110000Y-111480000D02*
X149110000Y-113016000D01*
X149150000Y-107867000D02*
X149150000Y-109400000D01*
X149150000Y-111480000D02*
X149150000Y-113013000D01*
X149190000Y-107871000D02*
X149190000Y-109400000D01*
X149190000Y-111480000D02*
X149190000Y-113009000D01*
X149230000Y-107875000D02*
X149230000Y-109400000D01*
X149230000Y-111480000D02*
X149230000Y-113005000D01*
X149270000Y-107879000D02*
X149270000Y-109400000D01*
X149270000Y-111480000D02*
X149270000Y-113001000D01*
X149310000Y-107884000D02*
X149310000Y-109400000D01*
X149310000Y-111480000D02*
X149310000Y-112996000D01*
X149350000Y-107890000D02*
X149350000Y-109400000D01*
X149350000Y-111480000D02*
X149350000Y-112990000D01*
X149390000Y-107897000D02*
X149390000Y-109400000D01*
X149390000Y-111480000D02*
X149390000Y-112983000D01*
X149430000Y-107904000D02*
X149430000Y-109400000D01*
X149430000Y-111480000D02*
X149430000Y-112976000D01*
X149470000Y-107912000D02*
X149470000Y-109400000D01*
X149470000Y-111480000D02*
X149470000Y-112968000D01*
X149510000Y-107920000D02*
X149510000Y-109400000D01*
X149510000Y-111480000D02*
X149510000Y-112960000D01*
X149550000Y-107929000D02*
X149550000Y-109400000D01*
X149550000Y-111480000D02*
X149550000Y-112951000D01*
X149590000Y-107939000D02*
X149590000Y-109400000D01*
X149590000Y-111480000D02*
X149590000Y-112941000D01*
X149630000Y-107949000D02*
X149630000Y-109400000D01*
X149630000Y-111480000D02*
X149630000Y-112931000D01*
X149671000Y-107960000D02*
X149671000Y-109400000D01*
X149671000Y-111480000D02*
X149671000Y-112920000D01*
X149711000Y-107972000D02*
X149711000Y-109400000D01*
X149711000Y-111480000D02*
X149711000Y-112908000D01*
X149751000Y-107985000D02*
X149751000Y-109400000D01*
X149751000Y-111480000D02*
X149751000Y-112895000D01*
X149791000Y-107998000D02*
X149791000Y-109400000D01*
X149791000Y-111480000D02*
X149791000Y-112882000D01*
X149831000Y-108012000D02*
X149831000Y-109400000D01*
X149831000Y-111480000D02*
X149831000Y-112868000D01*
X149871000Y-108026000D02*
X149871000Y-109400000D01*
X149871000Y-111480000D02*
X149871000Y-112854000D01*
X149911000Y-108042000D02*
X149911000Y-109400000D01*
X149911000Y-111480000D02*
X149911000Y-112838000D01*
X149951000Y-108058000D02*
X149951000Y-109400000D01*
X149951000Y-111480000D02*
X149951000Y-112822000D01*
X149991000Y-108075000D02*
X149991000Y-109400000D01*
X149991000Y-111480000D02*
X149991000Y-112805000D01*
X150031000Y-108092000D02*
X150031000Y-109400000D01*
X150031000Y-111480000D02*
X150031000Y-112788000D01*
X150071000Y-108111000D02*
X150071000Y-109400000D01*
X150071000Y-111480000D02*
X150071000Y-112769000D01*
X150111000Y-108130000D02*
X150111000Y-109400000D01*
X150111000Y-111480000D02*
X150111000Y-112750000D01*
X150151000Y-108150000D02*
X150151000Y-109400000D01*
X150151000Y-111480000D02*
X150151000Y-112730000D01*
X150191000Y-108172000D02*
X150191000Y-109400000D01*
X150191000Y-111480000D02*
X150191000Y-112708000D01*
X150231000Y-108193000D02*
X150231000Y-109400000D01*
X150231000Y-111480000D02*
X150231000Y-112687000D01*
X150271000Y-108216000D02*
X150271000Y-109400000D01*
X150271000Y-111480000D02*
X150271000Y-112664000D01*
X150311000Y-108240000D02*
X150311000Y-109400000D01*
X150311000Y-111480000D02*
X150311000Y-112640000D01*
X150351000Y-108265000D02*
X150351000Y-109400000D01*
X150351000Y-111480000D02*
X150351000Y-112615000D01*
X150391000Y-108291000D02*
X150391000Y-109400000D01*
X150391000Y-111480000D02*
X150391000Y-112589000D01*
X150431000Y-108318000D02*
X150431000Y-109400000D01*
X150431000Y-111480000D02*
X150431000Y-112562000D01*
X150471000Y-108345000D02*
X150471000Y-109400000D01*
X150471000Y-111480000D02*
X150471000Y-112535000D01*
X150511000Y-108375000D02*
X150511000Y-109400000D01*
X150511000Y-111480000D02*
X150511000Y-112505000D01*
X150551000Y-108405000D02*
X150551000Y-109400000D01*
X150551000Y-111480000D02*
X150551000Y-112475000D01*
X150591000Y-108436000D02*
X150591000Y-109400000D01*
X150591000Y-111480000D02*
X150591000Y-112444000D01*
X150631000Y-108469000D02*
X150631000Y-109400000D01*
X150631000Y-111480000D02*
X150631000Y-112411000D01*
X150671000Y-108503000D02*
X150671000Y-109400000D01*
X150671000Y-111480000D02*
X150671000Y-112377000D01*
X150711000Y-108539000D02*
X150711000Y-109400000D01*
X150711000Y-111480000D02*
X150711000Y-112341000D01*
X150751000Y-108576000D02*
X150751000Y-109400000D01*
X150751000Y-111480000D02*
X150751000Y-112304000D01*
X150791000Y-108614000D02*
X150791000Y-109400000D01*
X150791000Y-111480000D02*
X150791000Y-112266000D01*
X150831000Y-108655000D02*
X150831000Y-109400000D01*
X150831000Y-111480000D02*
X150831000Y-112225000D01*
X150871000Y-108697000D02*
X150871000Y-109400000D01*
X150871000Y-111480000D02*
X150871000Y-112183000D01*
X150911000Y-108741000D02*
X150911000Y-109400000D01*
X150911000Y-111480000D02*
X150911000Y-112139000D01*
X150951000Y-108787000D02*
X150951000Y-109400000D01*
X150951000Y-111480000D02*
X150951000Y-112093000D01*
X150991000Y-108835000D02*
X150991000Y-112045000D01*
X151031000Y-108886000D02*
X151031000Y-111994000D01*
X151071000Y-108940000D02*
X151071000Y-111940000D01*
X151111000Y-108997000D02*
X151111000Y-111883000D01*
X151151000Y-109057000D02*
X151151000Y-111823000D01*
X151191000Y-109121000D02*
X151191000Y-111759000D01*
X151231000Y-109189000D02*
X151231000Y-111691000D01*
X151271000Y-109262000D02*
X151271000Y-111618000D01*
X151311000Y-109342000D02*
X151311000Y-111538000D01*
X151351000Y-109429000D02*
X151351000Y-111451000D01*
X151391000Y-109525000D02*
X151391000Y-111355000D01*
X151431000Y-109635000D02*
X151431000Y-111245000D01*
X151471000Y-109763000D02*
X151471000Y-111117000D01*
X151511000Y-109922000D02*
X151511000Y-110958000D01*
X151551000Y-110156000D02*
X151551000Y-110724000D01*
X151570000Y-110440000D02*
G75*
G02*
X146330000Y-110440000I-2620000J0D01*
G01*
X146330000Y-110440000D02*
G75*
G02*
X151570000Y-110440000I2620000J0D01*
G01*
%TO.C,F1*%
X151286252Y-103590000D02*
X148513748Y-103590000D01*
X151286252Y-107010000D02*
X148513748Y-107010000D01*
%TO.C,FB1*%
X158141252Y-111300000D02*
X157618748Y-111300000D01*
X158141252Y-112720000D02*
X157618748Y-112720000D01*
%TD*%
M02*
