%TF.GenerationSoftware,KiCad,Pcbnew,5.1.7*%
%TF.CreationDate,2020-10-18T18:31:42+02:00*%
%TF.ProjectId,livello_serbatoio_definitiva,6c697665-6c6c-46f5-9f73-65726261746f,rev?*%
%TF.SameCoordinates,Original*%
%TF.FileFunction,Soldermask,Bot*%
%TF.FilePolarity,Negative*%
%FSLAX46Y46*%
G04 Gerber Fmt 4.6, Leading zero omitted, Abs format (unit mm)*
G04 Created by KiCad (PCBNEW 5.1.7) date 2020-10-18 18:31:42*
%MOMM*%
%LPD*%
G01*
G04 APERTURE LIST*
%ADD10C,1.100000*%
%ADD11O,1.700000X1.700000*%
%ADD12C,1.700000*%
%ADD13C,0.900000*%
%ADD14C,6.100000*%
%ADD15C,1.900000*%
%ADD16O,1.900000X1.300000*%
%ADD17C,1.540000*%
%ADD18C,2.100000*%
%ADD19O,1.800000X1.800000*%
%ADD20C,1.300000*%
%ADD21C,1.800000*%
%ADD22C,3.600000*%
G04 APERTURE END LIST*
D10*
%TO.C,Y1*%
X135300000Y-133620000D03*
X130420000Y-133620000D03*
%TD*%
D11*
%TO.C,U2*%
X111300000Y-118780000D03*
X144320000Y-126400000D03*
X113840000Y-118780000D03*
X141780000Y-126400000D03*
X116380000Y-118780000D03*
X139240000Y-126400000D03*
X118920000Y-118780000D03*
X136700000Y-126400000D03*
X121460000Y-118780000D03*
X134160000Y-126400000D03*
X124000000Y-118780000D03*
X131620000Y-126400000D03*
X126540000Y-118780000D03*
X129080000Y-126400000D03*
X129080000Y-118780000D03*
X126540000Y-126400000D03*
X131620000Y-118780000D03*
X124000000Y-126400000D03*
X134160000Y-118780000D03*
X121460000Y-126400000D03*
X136700000Y-118780000D03*
X118920000Y-126400000D03*
X139240000Y-118780000D03*
X116380000Y-126400000D03*
X141780000Y-118780000D03*
X113840000Y-126400000D03*
X144320000Y-118780000D03*
G36*
G01*
X112100000Y-127250000D02*
X110500000Y-127250000D01*
G75*
G02*
X110450000Y-127200000I0J50000D01*
G01*
X110450000Y-125600000D01*
G75*
G02*
X110500000Y-125550000I50000J0D01*
G01*
X112100000Y-125550000D01*
G75*
G02*
X112150000Y-125600000I0J-50000D01*
G01*
X112150000Y-127200000D01*
G75*
G02*
X112100000Y-127250000I-50000J0D01*
G01*
G37*
%TD*%
%TO.C,R5*%
X92310000Y-122530000D03*
D12*
X92310000Y-114910000D03*
%TD*%
D13*
%TO.C,H4*%
X94590990Y-132409010D03*
X93000000Y-131750000D03*
X91409010Y-132409010D03*
X90750000Y-134000000D03*
X91409010Y-135590990D03*
X93000000Y-136250000D03*
X94590990Y-135590990D03*
X95250000Y-134000000D03*
D14*
X93000000Y-134000000D03*
%TD*%
%TO.C,U1*%
G36*
G01*
X145885000Y-98420000D02*
X145885000Y-97970000D01*
G75*
G02*
X145935000Y-97920000I50000J0D01*
G01*
X147685000Y-97920000D01*
G75*
G02*
X147735000Y-97970000I0J-50000D01*
G01*
X147735000Y-98420000D01*
G75*
G02*
X147685000Y-98470000I-50000J0D01*
G01*
X145935000Y-98470000D01*
G75*
G02*
X145885000Y-98420000I0J50000D01*
G01*
G37*
G36*
G01*
X145885000Y-97770000D02*
X145885000Y-97320000D01*
G75*
G02*
X145935000Y-97270000I50000J0D01*
G01*
X147685000Y-97270000D01*
G75*
G02*
X147735000Y-97320000I0J-50000D01*
G01*
X147735000Y-97770000D01*
G75*
G02*
X147685000Y-97820000I-50000J0D01*
G01*
X145935000Y-97820000D01*
G75*
G02*
X145885000Y-97770000I0J50000D01*
G01*
G37*
G36*
G01*
X145885000Y-97120000D02*
X145885000Y-96670000D01*
G75*
G02*
X145935000Y-96620000I50000J0D01*
G01*
X147685000Y-96620000D01*
G75*
G02*
X147735000Y-96670000I0J-50000D01*
G01*
X147735000Y-97120000D01*
G75*
G02*
X147685000Y-97170000I-50000J0D01*
G01*
X145935000Y-97170000D01*
G75*
G02*
X145885000Y-97120000I0J50000D01*
G01*
G37*
G36*
G01*
X145885000Y-96470000D02*
X145885000Y-96020000D01*
G75*
G02*
X145935000Y-95970000I50000J0D01*
G01*
X147685000Y-95970000D01*
G75*
G02*
X147735000Y-96020000I0J-50000D01*
G01*
X147735000Y-96470000D01*
G75*
G02*
X147685000Y-96520000I-50000J0D01*
G01*
X145935000Y-96520000D01*
G75*
G02*
X145885000Y-96470000I0J50000D01*
G01*
G37*
G36*
G01*
X145885000Y-95820000D02*
X145885000Y-95370000D01*
G75*
G02*
X145935000Y-95320000I50000J0D01*
G01*
X147685000Y-95320000D01*
G75*
G02*
X147735000Y-95370000I0J-50000D01*
G01*
X147735000Y-95820000D01*
G75*
G02*
X147685000Y-95870000I-50000J0D01*
G01*
X145935000Y-95870000D01*
G75*
G02*
X145885000Y-95820000I0J50000D01*
G01*
G37*
G36*
G01*
X145885000Y-95170000D02*
X145885000Y-94720000D01*
G75*
G02*
X145935000Y-94670000I50000J0D01*
G01*
X147685000Y-94670000D01*
G75*
G02*
X147735000Y-94720000I0J-50000D01*
G01*
X147735000Y-95170000D01*
G75*
G02*
X147685000Y-95220000I-50000J0D01*
G01*
X145935000Y-95220000D01*
G75*
G02*
X145885000Y-95170000I0J50000D01*
G01*
G37*
G36*
G01*
X145885000Y-94520000D02*
X145885000Y-94070000D01*
G75*
G02*
X145935000Y-94020000I50000J0D01*
G01*
X147685000Y-94020000D01*
G75*
G02*
X147735000Y-94070000I0J-50000D01*
G01*
X147735000Y-94520000D01*
G75*
G02*
X147685000Y-94570000I-50000J0D01*
G01*
X145935000Y-94570000D01*
G75*
G02*
X145885000Y-94520000I0J50000D01*
G01*
G37*
G36*
G01*
X145885000Y-93870000D02*
X145885000Y-93420000D01*
G75*
G02*
X145935000Y-93370000I50000J0D01*
G01*
X147685000Y-93370000D01*
G75*
G02*
X147735000Y-93420000I0J-50000D01*
G01*
X147735000Y-93870000D01*
G75*
G02*
X147685000Y-93920000I-50000J0D01*
G01*
X145935000Y-93920000D01*
G75*
G02*
X145885000Y-93870000I0J50000D01*
G01*
G37*
G36*
G01*
X145885000Y-93220000D02*
X145885000Y-92770000D01*
G75*
G02*
X145935000Y-92720000I50000J0D01*
G01*
X147685000Y-92720000D01*
G75*
G02*
X147735000Y-92770000I0J-50000D01*
G01*
X147735000Y-93220000D01*
G75*
G02*
X147685000Y-93270000I-50000J0D01*
G01*
X145935000Y-93270000D01*
G75*
G02*
X145885000Y-93220000I0J50000D01*
G01*
G37*
G36*
G01*
X145885000Y-92570000D02*
X145885000Y-92120000D01*
G75*
G02*
X145935000Y-92070000I50000J0D01*
G01*
X147685000Y-92070000D01*
G75*
G02*
X147735000Y-92120000I0J-50000D01*
G01*
X147735000Y-92570000D01*
G75*
G02*
X147685000Y-92620000I-50000J0D01*
G01*
X145935000Y-92620000D01*
G75*
G02*
X145885000Y-92570000I0J50000D01*
G01*
G37*
G36*
G01*
X145885000Y-91920000D02*
X145885000Y-91470000D01*
G75*
G02*
X145935000Y-91420000I50000J0D01*
G01*
X147685000Y-91420000D01*
G75*
G02*
X147735000Y-91470000I0J-50000D01*
G01*
X147735000Y-91920000D01*
G75*
G02*
X147685000Y-91970000I-50000J0D01*
G01*
X145935000Y-91970000D01*
G75*
G02*
X145885000Y-91920000I0J50000D01*
G01*
G37*
G36*
G01*
X145885000Y-91270000D02*
X145885000Y-90820000D01*
G75*
G02*
X145935000Y-90770000I50000J0D01*
G01*
X147685000Y-90770000D01*
G75*
G02*
X147735000Y-90820000I0J-50000D01*
G01*
X147735000Y-91270000D01*
G75*
G02*
X147685000Y-91320000I-50000J0D01*
G01*
X145935000Y-91320000D01*
G75*
G02*
X145885000Y-91270000I0J50000D01*
G01*
G37*
G36*
G01*
X145885000Y-90620000D02*
X145885000Y-90170000D01*
G75*
G02*
X145935000Y-90120000I50000J0D01*
G01*
X147685000Y-90120000D01*
G75*
G02*
X147735000Y-90170000I0J-50000D01*
G01*
X147735000Y-90620000D01*
G75*
G02*
X147685000Y-90670000I-50000J0D01*
G01*
X145935000Y-90670000D01*
G75*
G02*
X145885000Y-90620000I0J50000D01*
G01*
G37*
G36*
G01*
X145885000Y-89970000D02*
X145885000Y-89520000D01*
G75*
G02*
X145935000Y-89470000I50000J0D01*
G01*
X147685000Y-89470000D01*
G75*
G02*
X147735000Y-89520000I0J-50000D01*
G01*
X147735000Y-89970000D01*
G75*
G02*
X147685000Y-90020000I-50000J0D01*
G01*
X145935000Y-90020000D01*
G75*
G02*
X145885000Y-89970000I0J50000D01*
G01*
G37*
G36*
G01*
X138685000Y-89970000D02*
X138685000Y-89520000D01*
G75*
G02*
X138735000Y-89470000I50000J0D01*
G01*
X140485000Y-89470000D01*
G75*
G02*
X140535000Y-89520000I0J-50000D01*
G01*
X140535000Y-89970000D01*
G75*
G02*
X140485000Y-90020000I-50000J0D01*
G01*
X138735000Y-90020000D01*
G75*
G02*
X138685000Y-89970000I0J50000D01*
G01*
G37*
G36*
G01*
X138685000Y-90620000D02*
X138685000Y-90170000D01*
G75*
G02*
X138735000Y-90120000I50000J0D01*
G01*
X140485000Y-90120000D01*
G75*
G02*
X140535000Y-90170000I0J-50000D01*
G01*
X140535000Y-90620000D01*
G75*
G02*
X140485000Y-90670000I-50000J0D01*
G01*
X138735000Y-90670000D01*
G75*
G02*
X138685000Y-90620000I0J50000D01*
G01*
G37*
G36*
G01*
X138685000Y-91270000D02*
X138685000Y-90820000D01*
G75*
G02*
X138735000Y-90770000I50000J0D01*
G01*
X140485000Y-90770000D01*
G75*
G02*
X140535000Y-90820000I0J-50000D01*
G01*
X140535000Y-91270000D01*
G75*
G02*
X140485000Y-91320000I-50000J0D01*
G01*
X138735000Y-91320000D01*
G75*
G02*
X138685000Y-91270000I0J50000D01*
G01*
G37*
G36*
G01*
X138685000Y-91920000D02*
X138685000Y-91470000D01*
G75*
G02*
X138735000Y-91420000I50000J0D01*
G01*
X140485000Y-91420000D01*
G75*
G02*
X140535000Y-91470000I0J-50000D01*
G01*
X140535000Y-91920000D01*
G75*
G02*
X140485000Y-91970000I-50000J0D01*
G01*
X138735000Y-91970000D01*
G75*
G02*
X138685000Y-91920000I0J50000D01*
G01*
G37*
G36*
G01*
X138685000Y-92570000D02*
X138685000Y-92120000D01*
G75*
G02*
X138735000Y-92070000I50000J0D01*
G01*
X140485000Y-92070000D01*
G75*
G02*
X140535000Y-92120000I0J-50000D01*
G01*
X140535000Y-92570000D01*
G75*
G02*
X140485000Y-92620000I-50000J0D01*
G01*
X138735000Y-92620000D01*
G75*
G02*
X138685000Y-92570000I0J50000D01*
G01*
G37*
G36*
G01*
X138685000Y-93220000D02*
X138685000Y-92770000D01*
G75*
G02*
X138735000Y-92720000I50000J0D01*
G01*
X140485000Y-92720000D01*
G75*
G02*
X140535000Y-92770000I0J-50000D01*
G01*
X140535000Y-93220000D01*
G75*
G02*
X140485000Y-93270000I-50000J0D01*
G01*
X138735000Y-93270000D01*
G75*
G02*
X138685000Y-93220000I0J50000D01*
G01*
G37*
G36*
G01*
X138685000Y-93870000D02*
X138685000Y-93420000D01*
G75*
G02*
X138735000Y-93370000I50000J0D01*
G01*
X140485000Y-93370000D01*
G75*
G02*
X140535000Y-93420000I0J-50000D01*
G01*
X140535000Y-93870000D01*
G75*
G02*
X140485000Y-93920000I-50000J0D01*
G01*
X138735000Y-93920000D01*
G75*
G02*
X138685000Y-93870000I0J50000D01*
G01*
G37*
G36*
G01*
X138685000Y-94520000D02*
X138685000Y-94070000D01*
G75*
G02*
X138735000Y-94020000I50000J0D01*
G01*
X140485000Y-94020000D01*
G75*
G02*
X140535000Y-94070000I0J-50000D01*
G01*
X140535000Y-94520000D01*
G75*
G02*
X140485000Y-94570000I-50000J0D01*
G01*
X138735000Y-94570000D01*
G75*
G02*
X138685000Y-94520000I0J50000D01*
G01*
G37*
G36*
G01*
X138685000Y-95170000D02*
X138685000Y-94720000D01*
G75*
G02*
X138735000Y-94670000I50000J0D01*
G01*
X140485000Y-94670000D01*
G75*
G02*
X140535000Y-94720000I0J-50000D01*
G01*
X140535000Y-95170000D01*
G75*
G02*
X140485000Y-95220000I-50000J0D01*
G01*
X138735000Y-95220000D01*
G75*
G02*
X138685000Y-95170000I0J50000D01*
G01*
G37*
G36*
G01*
X138685000Y-95820000D02*
X138685000Y-95370000D01*
G75*
G02*
X138735000Y-95320000I50000J0D01*
G01*
X140485000Y-95320000D01*
G75*
G02*
X140535000Y-95370000I0J-50000D01*
G01*
X140535000Y-95820000D01*
G75*
G02*
X140485000Y-95870000I-50000J0D01*
G01*
X138735000Y-95870000D01*
G75*
G02*
X138685000Y-95820000I0J50000D01*
G01*
G37*
G36*
G01*
X138685000Y-96470000D02*
X138685000Y-96020000D01*
G75*
G02*
X138735000Y-95970000I50000J0D01*
G01*
X140485000Y-95970000D01*
G75*
G02*
X140535000Y-96020000I0J-50000D01*
G01*
X140535000Y-96470000D01*
G75*
G02*
X140485000Y-96520000I-50000J0D01*
G01*
X138735000Y-96520000D01*
G75*
G02*
X138685000Y-96470000I0J50000D01*
G01*
G37*
G36*
G01*
X138685000Y-97120000D02*
X138685000Y-96670000D01*
G75*
G02*
X138735000Y-96620000I50000J0D01*
G01*
X140485000Y-96620000D01*
G75*
G02*
X140535000Y-96670000I0J-50000D01*
G01*
X140535000Y-97120000D01*
G75*
G02*
X140485000Y-97170000I-50000J0D01*
G01*
X138735000Y-97170000D01*
G75*
G02*
X138685000Y-97120000I0J50000D01*
G01*
G37*
G36*
G01*
X138685000Y-97770000D02*
X138685000Y-97320000D01*
G75*
G02*
X138735000Y-97270000I50000J0D01*
G01*
X140485000Y-97270000D01*
G75*
G02*
X140535000Y-97320000I0J-50000D01*
G01*
X140535000Y-97770000D01*
G75*
G02*
X140485000Y-97820000I-50000J0D01*
G01*
X138735000Y-97820000D01*
G75*
G02*
X138685000Y-97770000I0J50000D01*
G01*
G37*
G36*
G01*
X138685000Y-98420000D02*
X138685000Y-97970000D01*
G75*
G02*
X138735000Y-97920000I50000J0D01*
G01*
X140485000Y-97920000D01*
G75*
G02*
X140535000Y-97970000I0J-50000D01*
G01*
X140535000Y-98420000D01*
G75*
G02*
X140485000Y-98470000I-50000J0D01*
G01*
X138735000Y-98470000D01*
G75*
G02*
X138685000Y-98420000I0J50000D01*
G01*
G37*
%TD*%
D15*
%TO.C,D1*%
X137640000Y-72400000D03*
G36*
G01*
X134150000Y-73300000D02*
X134150000Y-71500000D01*
G75*
G02*
X134200000Y-71450000I50000J0D01*
G01*
X136000000Y-71450000D01*
G75*
G02*
X136050000Y-71500000I0J-50000D01*
G01*
X136050000Y-73300000D01*
G75*
G02*
X136000000Y-73350000I-50000J0D01*
G01*
X134200000Y-73350000D01*
G75*
G02*
X134150000Y-73300000I0J50000D01*
G01*
G37*
%TD*%
%TO.C,D2*%
X143640000Y-72400000D03*
G36*
G01*
X140150000Y-73300000D02*
X140150000Y-71500000D01*
G75*
G02*
X140200000Y-71450000I50000J0D01*
G01*
X142000000Y-71450000D01*
G75*
G02*
X142050000Y-71500000I0J-50000D01*
G01*
X142050000Y-73300000D01*
G75*
G02*
X142000000Y-73350000I-50000J0D01*
G01*
X140200000Y-73350000D01*
G75*
G02*
X140150000Y-73300000I0J50000D01*
G01*
G37*
%TD*%
D11*
%TO.C,D3*%
X98880000Y-133000000D03*
G36*
G01*
X107350000Y-132200000D02*
X107350000Y-133800000D01*
G75*
G02*
X107300000Y-133850000I-50000J0D01*
G01*
X105700000Y-133850000D01*
G75*
G02*
X105650000Y-133800000I0J50000D01*
G01*
X105650000Y-132200000D01*
G75*
G02*
X105700000Y-132150000I50000J0D01*
G01*
X107300000Y-132150000D01*
G75*
G02*
X107350000Y-132200000I0J-50000D01*
G01*
G37*
%TD*%
D15*
%TO.C,D4*%
X149640000Y-72400000D03*
G36*
G01*
X146150000Y-73300000D02*
X146150000Y-71500000D01*
G75*
G02*
X146200000Y-71450000I50000J0D01*
G01*
X148000000Y-71450000D01*
G75*
G02*
X148050000Y-71500000I0J-50000D01*
G01*
X148050000Y-73300000D01*
G75*
G02*
X148000000Y-73350000I-50000J0D01*
G01*
X146200000Y-73350000D01*
G75*
G02*
X146150000Y-73300000I0J50000D01*
G01*
G37*
%TD*%
D16*
%TO.C,J4*%
X162306000Y-121508000D03*
X162306000Y-123508000D03*
X162306000Y-125508000D03*
G36*
G01*
X162985168Y-128158000D02*
X161626832Y-128158000D01*
G75*
G02*
X161356000Y-127887168I0J270832D01*
G01*
X161356000Y-127128832D01*
G75*
G02*
X161626832Y-126858000I270832J0D01*
G01*
X162985168Y-126858000D01*
G75*
G02*
X163256000Y-127128832I0J-270832D01*
G01*
X163256000Y-127887168D01*
G75*
G02*
X162985168Y-128158000I-270832J0D01*
G01*
G37*
%TD*%
D11*
%TO.C,R1*%
X132580000Y-97160000D03*
D12*
X124960000Y-97160000D03*
%TD*%
D11*
%TO.C,R2*%
X132580000Y-93910000D03*
D12*
X124960000Y-93910000D03*
%TD*%
D11*
%TO.C,R3*%
X139876000Y-77818000D03*
D12*
X139876000Y-85438000D03*
%TD*%
D11*
%TO.C,R4*%
X144076000Y-77818000D03*
D12*
X144076000Y-85438000D03*
%TD*%
D11*
%TO.C,R6*%
X98880000Y-136000000D03*
D12*
X106500000Y-136000000D03*
%TD*%
D11*
%TO.C,R7*%
X136710000Y-129420000D03*
D12*
X129090000Y-129420000D03*
%TD*%
D11*
%TO.C,R8*%
X157920000Y-121500000D03*
D12*
X150300000Y-121500000D03*
%TD*%
D11*
%TO.C,R9*%
X148276000Y-85458000D03*
D12*
X148276000Y-77838000D03*
%TD*%
D11*
%TO.C,R11*%
X150330000Y-125900000D03*
D12*
X157950000Y-125900000D03*
%TD*%
D17*
%TO.C,RV1*%
X104100000Y-74200000D03*
X106640000Y-76740000D03*
X109180000Y-74200000D03*
%TD*%
D18*
%TO.C,SW1*%
X103550000Y-121000000D03*
X103550000Y-125500000D03*
X97050000Y-121000000D03*
X97050000Y-125500000D03*
%TD*%
D16*
%TO.C,J2*%
X162306000Y-110078000D03*
X162306000Y-112078000D03*
X162306000Y-114078000D03*
G36*
G01*
X162985168Y-116728000D02*
X161626832Y-116728000D01*
G75*
G02*
X161356000Y-116457168I0J270832D01*
G01*
X161356000Y-115698832D01*
G75*
G02*
X161626832Y-115428000I270832J0D01*
G01*
X162985168Y-115428000D01*
G75*
G02*
X163256000Y-115698832I0J-270832D01*
G01*
X163256000Y-116457168D01*
G75*
G02*
X162985168Y-116728000I-270832J0D01*
G01*
G37*
%TD*%
D19*
%TO.C,J3*%
X135100000Y-82000000D03*
X132560000Y-82000000D03*
X130020000Y-82000000D03*
X127480000Y-82000000D03*
X124940000Y-82000000D03*
X122400000Y-82000000D03*
X119860000Y-82000000D03*
X117320000Y-82000000D03*
X114780000Y-82000000D03*
X112240000Y-82000000D03*
X109700000Y-82000000D03*
X107160000Y-82000000D03*
X104620000Y-82000000D03*
X102080000Y-82000000D03*
X99540000Y-82000000D03*
G36*
G01*
X97850000Y-82900000D02*
X96150000Y-82900000D01*
G75*
G02*
X96100000Y-82850000I0J50000D01*
G01*
X96100000Y-81150000D01*
G75*
G02*
X96150000Y-81100000I50000J0D01*
G01*
X97850000Y-81100000D01*
G75*
G02*
X97900000Y-81150000I0J-50000D01*
G01*
X97900000Y-82850000D01*
G75*
G02*
X97850000Y-82900000I-50000J0D01*
G01*
G37*
%TD*%
D13*
%TO.C,H1*%
X94590990Y-72409010D03*
X93000000Y-71750000D03*
X91409010Y-72409010D03*
X90750000Y-74000000D03*
X91409010Y-75590990D03*
X93000000Y-76250000D03*
X94590990Y-75590990D03*
X95250000Y-74000000D03*
D14*
X93000000Y-74000000D03*
%TD*%
D13*
%TO.C,H2*%
X165590990Y-72409010D03*
X164000000Y-71750000D03*
X162409010Y-72409010D03*
X161750000Y-74000000D03*
X162409010Y-75590990D03*
X164000000Y-76250000D03*
X165590990Y-75590990D03*
X166250000Y-74000000D03*
D14*
X164000000Y-74000000D03*
%TD*%
D13*
%TO.C,H3*%
X165590990Y-132409010D03*
X164000000Y-131750000D03*
X162409010Y-132409010D03*
X161750000Y-134000000D03*
X162409010Y-135590990D03*
X164000000Y-136250000D03*
X165590990Y-135590990D03*
X166250000Y-134000000D03*
D14*
X164000000Y-134000000D03*
%TD*%
D20*
%TO.C,C1*%
X155560000Y-104830000D03*
X155560000Y-102830000D03*
%TD*%
%TO.C,C2*%
X154230000Y-95260000D03*
X154230000Y-93260000D03*
%TD*%
%TO.C,C3*%
X126160000Y-113070000D03*
X128160000Y-113070000D03*
%TD*%
%TO.C,C4*%
X92240000Y-126050000D03*
X92240000Y-128050000D03*
%TD*%
%TO.C,C6*%
X132000000Y-113190000D03*
X134000000Y-113190000D03*
%TD*%
%TO.C,C7*%
X124110000Y-132530000D03*
X124110000Y-134530000D03*
%TD*%
%TO.C,C8*%
X141570000Y-132530000D03*
X141570000Y-134530000D03*
%TD*%
D19*
%TO.C,J5*%
X149910000Y-134410000D03*
X149910000Y-131870000D03*
X152450000Y-134410000D03*
X152450000Y-131870000D03*
X154990000Y-134410000D03*
G36*
G01*
X154140000Y-130970000D02*
X155840000Y-130970000D01*
G75*
G02*
X155890000Y-131020000I0J-50000D01*
G01*
X155890000Y-132720000D01*
G75*
G02*
X155840000Y-132770000I-50000J0D01*
G01*
X154140000Y-132770000D01*
G75*
G02*
X154090000Y-132720000I0J50000D01*
G01*
X154090000Y-131020000D01*
G75*
G02*
X154140000Y-130970000I50000J0D01*
G01*
G37*
%TD*%
%TO.C,J1*%
G36*
G01*
X159880000Y-96960000D02*
X159880000Y-95260000D01*
G75*
G02*
X159930000Y-95210000I50000J0D01*
G01*
X161630000Y-95210000D01*
G75*
G02*
X161680000Y-95260000I0J-50000D01*
G01*
X161680000Y-96960000D01*
G75*
G02*
X161630000Y-97010000I-50000J0D01*
G01*
X159930000Y-97010000D01*
G75*
G02*
X159880000Y-96960000I0J50000D01*
G01*
G37*
D21*
X160780000Y-93610000D03*
X162780000Y-93610000D03*
X162780000Y-96110000D03*
D22*
X165490000Y-100880000D03*
X165490000Y-88840000D03*
%TD*%
M02*
