M48
; DRILL file {KiCad 9.0.4} date 2025-08-23T15:54:29+0200
; FORMAT={-:-/ absolute / inch / decimal}
; #@! TF.CreationDate,2025-08-23T15:54:29+02:00
; #@! TF.GenerationSoftware,Kicad,Pcbnew,9.0.4
; #@! TF.FileFunction,Plated,1,2,PTH
FMAT,2
INCH
; #@! TA.AperFunction,Plated,PTH,ViaDrill
T1C0.0157
; #@! TA.AperFunction,Plated,PTH,ComponentDrill
T2C0.0197
; #@! TA.AperFunction,Plated,PTH,ComponentDrill
T3C0.0315
; #@! TA.AperFunction,Plated,PTH,ComponentDrill
T4C0.0354
; #@! TA.AperFunction,Plated,PTH,ComponentDrill
T5C0.0362
; #@! TA.AperFunction,Plated,PTH,ComponentDrill
T6C0.0394
; #@! TA.AperFunction,Plated,PTH,ComponentDrill
T7C0.0433
; #@! TA.AperFunction,Plated,PTH,ComponentDrill
T8C0.0512
; #@! TA.AperFunction,Plated,PTH,ComponentDrill
T9C0.0917
; #@! TA.AperFunction,Plated,PTH,ComponentDrill
T10C0.1181
%
G90
G05
T1
X4.4291Y-4.7677
X4.4291Y-4.8268
X4.4291Y-4.8858
X4.4291Y-4.9409
X4.4291Y-4.9961
X4.4291Y-5.0551
X4.4291Y-5.1142
X4.4882Y-5.1142
X4.5472Y-5.1142
X4.6063Y-5.1142
X4.6118Y-4.187
X4.6539Y-4.6287
X4.6654Y-5.1142
X4.713Y-4.6287
X4.7244Y-5.1142
X4.772Y-4.6287
X4.7835Y-5.1142
X4.8Y-4.5961
X4.8311Y-4.6287
X4.835Y-4.187
X4.8425Y-5.1142
X4.8902Y-4.6287
X4.9016Y-5.1142
X4.9606Y-5.1142
X5.0197Y-5.1142
X5.0787Y-4.7677
X5.0787Y-4.8268
X5.0787Y-4.8858
X5.0787Y-4.9409
X5.0787Y-4.9961
X5.0787Y-5.0551
X5.0787Y-5.1142
X5.3394Y-4.4594
X6.1699Y-4.0795
X6.2353Y-4.0751
X6.4016Y-4.465
T2
X3.5728Y-2.9134
X3.5728Y-5.2756
X3.5988Y-2.8507
X3.5988Y-2.976
X3.5988Y-5.213
X3.5988Y-5.3382
X3.6614Y-2.8248
X3.6614Y-3.002
X3.6614Y-5.187
X3.6614Y-5.3642
X3.7241Y-2.8507
X3.7241Y-2.976
X3.7241Y-5.213
X3.7241Y-5.3382
X3.75Y-2.9134
X3.75Y-5.2756
X6.3681Y-2.9134
X6.3681Y-5.2756
X6.3941Y-2.8507
X6.3941Y-2.976
X6.3941Y-5.213
X6.3941Y-5.3382
X6.4567Y-2.8248
X6.4567Y-3.002
X6.4567Y-5.187
X6.4567Y-5.3642
X6.5193Y-2.8507
X6.5193Y-2.976
X6.5193Y-5.213
X6.5193Y-5.3382
X6.5453Y-2.9134
X6.5453Y-5.2756
T3
X3.6Y-3.3902
X3.6Y-3.8902
X3.7874Y-4.5965
X3.7874Y-4.6949
X3.915Y-4.3929
X3.915Y-4.6929
X4.015Y-4.3929
X4.015Y-4.6929
X4.115Y-4.3929
X4.115Y-4.6929
X4.215Y-4.3929
X4.215Y-4.6929
X4.315Y-4.3929
X4.315Y-4.6929
X4.415Y-4.3929
X4.415Y-4.6929
X4.502Y-4.2874
X4.515Y-4.3929
X4.515Y-4.6929
X4.5693Y-5.0394
X4.6004Y-4.2874
X4.615Y-4.3929
X4.615Y-4.6929
X4.6673Y-4.8602
X4.6677Y-5.0394
X4.715Y-4.3929
X4.715Y-4.6929
X4.7224Y-4.2874
X4.815Y-4.3929
X4.815Y-4.6929
X4.8209Y-4.2874
X4.8594Y-4.8602
X4.8598Y-5.0394
X4.915Y-4.3929
X4.915Y-4.6929
X4.9583Y-5.0394
X5.015Y-4.3929
X5.015Y-4.6929
X5.115Y-4.3929
X5.115Y-4.6929
X5.215Y-4.3929
X5.215Y-4.6929
X5.4197Y-5.072
X5.4201Y-4.9201
X5.4736Y-3.2524
X5.4744Y-3.1024
X5.4744Y-3.4043
X5.8709Y-3.9969
X5.9197Y-5.072
X5.9201Y-4.9201
X5.9496Y-3.9969
X5.9736Y-3.2524
X5.9744Y-3.1024
X5.9744Y-3.4043
X6.1358Y-4.2949
X6.1594Y-3.7165
X6.2343Y-4.2949
X6.2579Y-3.7165
X6.5654Y-4.2606
X6.5654Y-4.3591
T4
X5.3228Y-2.8898
X5.4228Y-2.8898
X5.5866Y-2.8898
X5.6866Y-2.8898
X5.8504Y-2.8898
X5.9504Y-2.8898
T5
X6.3622Y-4.7453
X6.3622Y-4.8437
X6.4409Y-4.7453
X6.4409Y-4.8437
T6
X3.5478Y-4.6108
X3.5478Y-4.7108
X3.5478Y-4.8108
X3.5984Y-4.0102
X3.5984Y-4.1102
X3.5984Y-4.2102
X3.5984Y-4.3102
X3.5984Y-4.4102
X3.6478Y-4.6108
X3.6478Y-4.7108
X3.6478Y-4.8108
X3.8189Y-3.4843
X3.9189Y-3.4843
X4.0189Y-3.4843
X4.1189Y-3.4843
X4.2189Y-3.4843
X4.3189Y-3.4843
X4.4173Y-3.8215
X4.4189Y-3.4843
X4.5173Y-3.8215
X4.5189Y-3.4843
X4.6173Y-3.8215
X4.6189Y-3.4843
X4.7173Y-3.8215
X4.7189Y-3.4843
X4.8189Y-3.4843
X4.9189Y-3.4843
X5.0189Y-3.4843
X5.1189Y-3.4843
X5.2189Y-3.4843
X5.3189Y-3.4843
T7
X3.7874Y-4.8165
X3.7874Y-4.9937
X4.0433Y-4.8165
X4.0433Y-4.9937
X4.2035Y-5.3303
X4.4004Y-5.3303
X4.5972Y-5.3303
X4.7941Y-5.3303
X4.9909Y-5.3303
X5.1878Y-5.3303
X5.3846Y-5.3303
X5.5815Y-5.3303
T8
X3.9173Y-2.9882
X3.9173Y-3.185
X4.311Y-3.0866
T9
X6.5476Y-4.5575
X6.5476Y-5.0315
T10
X3.6614Y-2.9134
X3.6614Y-5.2756
X6.4567Y-2.9134
X6.4567Y-5.2756
M30
