%TF.GenerationSoftware,KiCad,Pcbnew,5.1.7*%
%TF.CreationDate,2020-10-24T17:55:56+02:00*%
%TF.ProjectId,livello_serbatoio_definitiva,6c697665-6c6c-46f5-9f73-65726261746f,rev?*%
%TF.SameCoordinates,Original*%
%TF.FileFunction,Soldermask,Top*%
%TF.FilePolarity,Negative*%
%FSLAX46Y46*%
G04 Gerber Fmt 4.6, Leading zero omitted, Abs format (unit mm)*
G04 Created by KiCad (PCBNEW 5.1.7) date 2020-10-24 17:55:56*
%MOMM*%
%LPD*%
G01*
G04 APERTURE LIST*
%ADD10R,1.700000X1.700000*%
%ADD11C,1.700000*%
%ADD12C,3.500000*%
%ADD13C,1.000000*%
%ADD14O,1.600000X1.600000*%
%ADD15R,1.600000X1.600000*%
%ADD16C,1.600000*%
%ADD17C,0.800000*%
%ADD18C,6.000000*%
%ADD19C,1.800000*%
%ADD20R,1.800000X1.800000*%
%ADD21O,1.800000X1.200000*%
%ADD22C,1.440000*%
%ADD23C,2.000000*%
%ADD24O,1.700000X1.700000*%
%ADD25C,1.200000*%
G04 APERTURE END LIST*
D10*
%TO.C,J1*%
X160780000Y-96110000D03*
D11*
X160780000Y-93610000D03*
X162780000Y-93610000D03*
X162780000Y-96110000D03*
D12*
X165490000Y-100880000D03*
X165490000Y-88840000D03*
%TD*%
D13*
%TO.C,Y1*%
X135300000Y-134020000D03*
X130420000Y-134020000D03*
%TD*%
D14*
%TO.C,U2*%
X111300000Y-118780000D03*
X144320000Y-126400000D03*
X113840000Y-118780000D03*
X141780000Y-126400000D03*
X116380000Y-118780000D03*
X139240000Y-126400000D03*
X118920000Y-118780000D03*
X136700000Y-126400000D03*
X121460000Y-118780000D03*
X134160000Y-126400000D03*
X124000000Y-118780000D03*
X131620000Y-126400000D03*
X126540000Y-118780000D03*
X129080000Y-126400000D03*
X129080000Y-118780000D03*
X126540000Y-126400000D03*
X131620000Y-118780000D03*
X124000000Y-126400000D03*
X134160000Y-118780000D03*
X121460000Y-126400000D03*
X136700000Y-118780000D03*
X118920000Y-126400000D03*
X139240000Y-118780000D03*
X116380000Y-126400000D03*
X141780000Y-118780000D03*
X113840000Y-126400000D03*
X144320000Y-118780000D03*
D15*
X111300000Y-126400000D03*
%TD*%
D14*
%TO.C,R5*%
X92310000Y-122530000D03*
D16*
X92310000Y-114910000D03*
%TD*%
D17*
%TO.C,H4*%
X94590990Y-132409010D03*
X93000000Y-131750000D03*
X91409010Y-132409010D03*
X90750000Y-134000000D03*
X91409010Y-135590990D03*
X93000000Y-136250000D03*
X94590990Y-135590990D03*
X95250000Y-134000000D03*
D18*
X93000000Y-134000000D03*
%TD*%
D19*
%TO.C,D1*%
X137640000Y-72400000D03*
D20*
X135100000Y-72400000D03*
%TD*%
D19*
%TO.C,D2*%
X143640000Y-72400000D03*
D20*
X141100000Y-72400000D03*
%TD*%
D14*
%TO.C,D3*%
X98880000Y-133000000D03*
D15*
X106500000Y-133000000D03*
%TD*%
D19*
%TO.C,D4*%
X149640000Y-72400000D03*
D20*
X147100000Y-72400000D03*
%TD*%
D21*
%TO.C,J4*%
X162306000Y-121508000D03*
X162306000Y-123508000D03*
X162306000Y-125508000D03*
G36*
G01*
X162956001Y-128108000D02*
X161655999Y-128108000D01*
G75*
G02*
X161406000Y-127858001I0J249999D01*
G01*
X161406000Y-127157999D01*
G75*
G02*
X161655999Y-126908000I249999J0D01*
G01*
X162956001Y-126908000D01*
G75*
G02*
X163206000Y-127157999I0J-249999D01*
G01*
X163206000Y-127858001D01*
G75*
G02*
X162956001Y-128108000I-249999J0D01*
G01*
G37*
%TD*%
D14*
%TO.C,R1*%
X132580000Y-97160000D03*
D16*
X124960000Y-97160000D03*
%TD*%
D14*
%TO.C,R2*%
X132580000Y-93910000D03*
D16*
X124960000Y-93910000D03*
%TD*%
D14*
%TO.C,R3*%
X139876000Y-77818000D03*
D16*
X139876000Y-85438000D03*
%TD*%
D14*
%TO.C,R4*%
X144076000Y-77818000D03*
D16*
X144076000Y-85438000D03*
%TD*%
D14*
%TO.C,R6*%
X98880000Y-136000000D03*
D16*
X106500000Y-136000000D03*
%TD*%
D14*
%TO.C,R7*%
X136700000Y-129390000D03*
D16*
X129080000Y-129390000D03*
%TD*%
D14*
%TO.C,R8*%
X157570000Y-121500000D03*
D16*
X149950000Y-121500000D03*
%TD*%
D14*
%TO.C,R9*%
X148276000Y-85458000D03*
D16*
X148276000Y-77838000D03*
%TD*%
D14*
%TO.C,R11*%
X149980000Y-125900000D03*
D16*
X157600000Y-125900000D03*
%TD*%
D22*
%TO.C,RV1*%
X104100000Y-74200000D03*
X106640000Y-76740000D03*
X109180000Y-74200000D03*
%TD*%
D23*
%TO.C,SW1*%
X103550000Y-121000000D03*
X103550000Y-125500000D03*
X97050000Y-121000000D03*
X97050000Y-125500000D03*
%TD*%
D21*
%TO.C,J2*%
X162306000Y-110078000D03*
X162306000Y-112078000D03*
X162306000Y-114078000D03*
G36*
G01*
X162956001Y-116678000D02*
X161655999Y-116678000D01*
G75*
G02*
X161406000Y-116428001I0J249999D01*
G01*
X161406000Y-115727999D01*
G75*
G02*
X161655999Y-115478000I249999J0D01*
G01*
X162956001Y-115478000D01*
G75*
G02*
X163206000Y-115727999I0J-249999D01*
G01*
X163206000Y-116428001D01*
G75*
G02*
X162956001Y-116678000I-249999J0D01*
G01*
G37*
%TD*%
D24*
%TO.C,J3*%
X135100000Y-82000000D03*
X132560000Y-82000000D03*
X130020000Y-82000000D03*
X127480000Y-82000000D03*
X124940000Y-82000000D03*
X122400000Y-82000000D03*
X119860000Y-82000000D03*
X117320000Y-82000000D03*
X114780000Y-82000000D03*
X112240000Y-82000000D03*
X109700000Y-82000000D03*
X107160000Y-82000000D03*
X104620000Y-82000000D03*
X102080000Y-82000000D03*
X99540000Y-82000000D03*
D10*
X97000000Y-82000000D03*
%TD*%
D17*
%TO.C,H1*%
X94590990Y-72409010D03*
X93000000Y-71750000D03*
X91409010Y-72409010D03*
X90750000Y-74000000D03*
X91409010Y-75590990D03*
X93000000Y-76250000D03*
X94590990Y-75590990D03*
X95250000Y-74000000D03*
D18*
X93000000Y-74000000D03*
%TD*%
D17*
%TO.C,H2*%
X165590990Y-72409010D03*
X164000000Y-71750000D03*
X162409010Y-72409010D03*
X161750000Y-74000000D03*
X162409010Y-75590990D03*
X164000000Y-76250000D03*
X165590990Y-75590990D03*
X166250000Y-74000000D03*
D18*
X164000000Y-74000000D03*
%TD*%
D17*
%TO.C,H3*%
X165590990Y-132409010D03*
X164000000Y-131750000D03*
X162409010Y-132409010D03*
X161750000Y-134000000D03*
X162409010Y-135590990D03*
X164000000Y-136250000D03*
X165590990Y-135590990D03*
X166250000Y-134000000D03*
D18*
X164000000Y-134000000D03*
%TD*%
%TO.C,FB1*%
G36*
G01*
X151100000Y-103505000D02*
X148200000Y-103505000D01*
G75*
G02*
X147950000Y-103255000I0J250000D01*
G01*
X147950000Y-102455000D01*
G75*
G02*
X148200000Y-102205000I250000J0D01*
G01*
X151100000Y-102205000D01*
G75*
G02*
X151350000Y-102455000I0J-250000D01*
G01*
X151350000Y-103255000D01*
G75*
G02*
X151100000Y-103505000I-250000J0D01*
G01*
G37*
G36*
G01*
X151100000Y-107955000D02*
X148200000Y-107955000D01*
G75*
G02*
X147950000Y-107705000I0J250000D01*
G01*
X147950000Y-106905000D01*
G75*
G02*
X148200000Y-106655000I250000J0D01*
G01*
X151100000Y-106655000D01*
G75*
G02*
X151350000Y-106905000I0J-250000D01*
G01*
X151350000Y-107705000D01*
G75*
G02*
X151100000Y-107955000I-250000J0D01*
G01*
G37*
%TD*%
D25*
%TO.C,C1*%
X155560000Y-104830000D03*
X155560000Y-102830000D03*
%TD*%
%TO.C,C2*%
X154230000Y-95260000D03*
X154230000Y-93260000D03*
%TD*%
%TO.C,C3*%
X126160000Y-113200000D03*
X128160000Y-113200000D03*
%TD*%
%TO.C,C4*%
X92240000Y-126050000D03*
X92240000Y-128050000D03*
%TD*%
%TO.C,C6*%
X132000000Y-113190000D03*
X134000000Y-113190000D03*
%TD*%
%TO.C,C7*%
X123990000Y-132530000D03*
X123990000Y-134530000D03*
%TD*%
%TO.C,C8*%
X141750000Y-132530000D03*
X141750000Y-134530000D03*
%TD*%
D24*
%TO.C,J5*%
X149910000Y-134410000D03*
X149910000Y-131870000D03*
X152450000Y-134410000D03*
X152450000Y-131870000D03*
X154990000Y-134410000D03*
D10*
X154990000Y-131870000D03*
%TD*%
M02*
