M48
; DRILL file {KiCad 5.1.8} date Sat Nov 21 16:41:18 2020
; FORMAT={-:-/ absolute / inch / decimal}
; #@! TF.CreationDate,2020-11-21T16:41:18+01:00
; #@! TF.GenerationSoftware,Kicad,Pcbnew,5.1.8
; #@! TF.FileFunction,Plated,1,2,PTH
FMAT,2
INCH
T1C0.0157
T2C0.0197
T3C0.0315
T4C0.0354
T5C0.0362
T6C0.0394
T7C0.0433
T8C0.0512
T9C0.0917
T10C0.1181
%
G90
G05
T1
X3.8189Y-3.1398
X3.8209Y-4.874
X4.0768Y-4.1654
X4.0768Y-4.874
X4.1673Y-4.438
X4.2185Y-3.1407
X4.2785Y-4.063
X4.5004Y-4.2594
X4.5004Y-4.4713
X4.6917Y-5.0728
X4.6917Y-5.1728
X4.6917Y-5.2728
X4.6917Y-5.3728
X4.7953Y-4.5669
X4.8051Y-4.8494
X4.9528Y-4.9124
X4.9579Y-4.8492
X5.0087Y-4.3382
X5.1488Y-4.1114
X5.1488Y-4.198
X5.1693Y-4.5079
X5.2067Y-3.5827
X5.2354Y-4.198
X5.3181Y-4.2724
X5.3181Y-4.3591
X5.3199Y-3.1407
X5.4047Y-4.3591
X5.5063Y-5.0728
X5.5063Y-5.1728
X5.5063Y-5.2728
X5.5063Y-5.3728
X5.5266Y-3.5598
X5.5268Y-3.5134
X5.5295Y-3.3862
X5.5524Y-4.535
X5.7949Y-3.4118
X5.8154Y-3.3748
X5.8157Y-3.2839
X5.8514Y-2.9508
X5.9949Y-3.272
X6.1988Y-5.2539
X6.2217Y-3.0276
X6.2437Y-3.2193
X6.2687Y-5.3287
X6.2819Y-3.0874
X6.4183Y-3.5846
X6.4301Y-3.7116
X6.4311Y-3.2372
X6.4783Y-3.5246
X6.498Y-5.0994
X6.5256Y-3.3327
X6.5256Y-3.6171
X6.5256Y-3.8061
X6.5266Y-3.1388
X6.6211Y-3.2372
X6.6211Y-3.7116
T2
X6.3681Y-2.9134
X6.3941Y-2.8507
X6.3941Y-2.976
X6.4567Y-2.8248
X6.4567Y-3.002
X6.5193Y-2.8507
X6.5193Y-2.976
X6.5453Y-2.9134
X3.5728Y-2.9134
X3.5988Y-2.8507
X3.5988Y-2.976
X3.6614Y-2.8248
X3.6614Y-3.002
X3.7241Y-2.8507
X3.7241Y-2.976
X3.75Y-2.9134
X5.0008Y-5.3059
X5.1929Y-5.3059
X3.5728Y-5.2756
X3.5988Y-5.213
X3.5988Y-5.3382
X3.6614Y-5.187
X3.6614Y-5.3642
X3.7241Y-5.213
X3.7241Y-5.3382
X3.75Y-5.2756
X6.3681Y-5.2756
X6.3941Y-5.213
X6.3941Y-5.3382
X6.4567Y-5.187
X6.4567Y-5.3642
X6.5193Y-5.213
X6.5193Y-5.3382
X6.5453Y-5.2756
T3
X4.3553Y-3.7378
X4.8553Y-3.7378
X3.6634Y-4.2638
X3.6634Y-4.7638
X6.0118Y-3.3654
X6.0118Y-3.4638
X5.0709Y-4.5669
X5.1693Y-4.5669
X5.4344Y-3.4278
X5.4344Y-3.9278
X5.1195Y-3.4278
X5.1195Y-3.9278
X5.998Y-5.0423
X6.498Y-5.0423
X4.8465Y-5.1083
X5.3465Y-5.1083
X4.252Y-4.6764
X4.252Y-4.9764
X4.352Y-4.6764
X4.352Y-4.9764
X4.452Y-4.6764
X4.452Y-4.9764
X4.552Y-4.6764
X4.552Y-4.9764
X4.652Y-4.6764
X4.652Y-4.9764
X4.752Y-4.6764
X4.752Y-4.9764
X4.852Y-4.6764
X4.852Y-4.9764
X4.952Y-4.6764
X4.952Y-4.9764
X5.052Y-4.6764
X5.052Y-4.9764
X5.152Y-4.6764
X5.152Y-4.9764
X5.252Y-4.6764
X5.252Y-4.9764
X5.352Y-4.6764
X5.352Y-4.9764
X5.452Y-4.6764
X5.452Y-4.9764
X5.552Y-4.6764
X5.552Y-4.9764
X3.8819Y-5.2638
X4.3819Y-5.2638
X4.7953Y-5.2677
X4.7953Y-5.3661
X4.3533Y-3.5783
X4.8533Y-3.5783
X5.998Y-4.8848
X6.498Y-4.8848
X3.685Y-4.9665
X3.685Y-5.065
X5.277Y-3.4278
X5.277Y-3.9278
X4.8524Y-4.5669
X4.9508Y-4.5669
X5.3996Y-5.2677
X5.3996Y-5.3661
X6.1236Y-3.0874
X6.222Y-3.0874
X6.1484Y-3.365
X6.1484Y-3.4634
T4
X5.8504Y-2.8898
X5.9504Y-2.8898
X5.5866Y-2.8898
X5.6866Y-2.8898
X5.3228Y-2.8898
X5.4228Y-2.8898
T5
X6.3406Y-3.4252
X6.3406Y-3.5236
X6.4193Y-3.4252
X6.4193Y-3.5236
T6
X3.8189Y-3.2283
X3.9189Y-3.2283
X4.0189Y-3.2283
X4.1189Y-3.2283
X4.2189Y-3.2283
X4.3189Y-3.2283
X4.4189Y-3.2283
X4.5189Y-3.2283
X4.6189Y-3.2283
X4.7189Y-3.2283
X4.8189Y-3.2283
X4.9189Y-3.2283
X5.0189Y-3.2283
X5.1189Y-3.2283
X5.2189Y-3.2283
X5.3189Y-3.2283
X4.7274Y-4.0638
X4.7274Y-4.1638
X4.7274Y-4.2638
X4.8274Y-4.0638
X4.8274Y-4.1638
X4.8274Y-4.2638
T7
X3.8008Y-5.074
X4.1008Y-5.074
X5.5988Y-5.3291
X5.7957Y-5.3291
X5.9925Y-5.3291
X6.1894Y-5.3291
X3.8209Y-4.7638
X3.8209Y-4.9409
X4.0768Y-4.7638
X4.0768Y-4.9409
X6.5089Y-3.9646
X6.5089Y-4.1614
X6.5089Y-4.3583
X6.5089Y-4.5551
T8
X3.935Y-2.8327
X3.935Y-3.0295
X4.3287Y-2.9311
T9
X6.526Y-3.2374
X6.526Y-3.7114
T10
X6.4567Y-2.9134
X3.6614Y-2.9134
X3.6614Y-5.2756
X6.4567Y-5.2756
T0
M30
