M48
; DRILL file {KiCad 5.1.7} date Sun Oct 18 18:31:34 2020
; FORMAT={-:-/ absolute / inch / decimal}
; #@! TF.CreationDate,2020-10-18T18:31:34+02:00
; #@! TF.GenerationSoftware,Kicad,Pcbnew,5.1.7
; #@! TF.FileFunction,Plated,1,2,PTH
FMAT,2
INCH
T1C0.0157
T2C0.0197
T3C0.0236
T4C0.0315
T5C0.0354
T6C0.0362
T7C0.0394
T8C0.0433
T9C0.0917
T10C0.1181
%
G90
G05
T1
X4.1654Y-4.2012
X4.3661Y-5.1744
X5.5543Y-4.2075
X6.0795Y-4.7823
T2
X5.1346Y-5.2606
X5.3268Y-5.2606
X3.5728Y-2.9134
X3.5988Y-2.8507
X3.5988Y-2.976
X3.6614Y-2.8248
X3.6614Y-3.002
X3.7241Y-2.8507
X3.7241Y-2.976
X3.75Y-2.9134
X6.3681Y-5.2756
X6.3941Y-5.213
X6.3941Y-5.3382
X6.4567Y-5.187
X6.4567Y-5.3642
X6.5193Y-5.213
X6.5193Y-5.3382
X6.5453Y-5.2756
X3.5728Y-5.2756
X3.5988Y-5.213
X3.5988Y-5.3382
X3.6614Y-5.187
X3.6614Y-5.3642
X3.7241Y-5.213
X3.7241Y-5.3382
X3.75Y-5.2756
X6.3681Y-2.9134
X6.3941Y-2.8507
X6.3941Y-2.976
X6.4567Y-2.8248
X6.4567Y-3.002
X6.5193Y-2.8507
X6.5193Y-2.976
X6.5453Y-2.9134
T3
X3.6315Y-4.9626
X3.6315Y-5.0413
X4.9669Y-4.4516
X5.0457Y-4.4516
X4.8862Y-5.2177
X4.8862Y-5.2965
X6.072Y-3.6717
X6.072Y-3.7504
X5.1969Y-4.4563
X5.2756Y-4.4563
X6.1244Y-4.0484
X6.1244Y-4.1272
X5.5736Y-5.2177
X5.5736Y-5.2965
T4
X5.7126Y-4.226
X4.3819Y-4.6764
X4.3819Y-4.9764
X4.4819Y-4.6764
X4.4819Y-4.9764
X4.5819Y-4.6764
X4.5819Y-4.9764
X4.6819Y-4.6764
X4.6819Y-4.9764
X4.7819Y-4.6764
X4.7819Y-4.9764
X4.8819Y-4.6764
X4.8819Y-4.9764
X4.9819Y-4.6764
X4.9819Y-4.9764
X5.0819Y-4.6764
X5.0819Y-4.9764
X5.1819Y-4.6764
X5.1819Y-4.9764
X5.2819Y-4.6764
X5.2819Y-4.9764
X5.3819Y-4.6764
X5.3819Y-4.9764
X5.4819Y-4.6764
X5.4819Y-4.9764
X5.5819Y-4.6764
X5.5819Y-4.9764
X5.6819Y-4.6764
X5.6819Y-4.9764
X3.8929Y-5.3543
X4.1929Y-5.3543
X5.0823Y-5.0953
X5.3823Y-5.0953
X5.5069Y-3.0637
X5.5069Y-3.3637
X3.6343Y-4.524
X3.6343Y-4.824
X6.39Y-4.7838
X6.39Y-4.8625
X6.39Y-4.9413
X6.39Y-5.02
X5.9185Y-4.9567
X6.2185Y-4.9567
X4.0984Y-2.9213
X4.1984Y-3.0213
X4.2984Y-2.9213
X3.8929Y-5.2362
X4.1929Y-5.2362
X4.9197Y-3.8252
X5.2197Y-3.8252
X5.6723Y-3.0637
X5.6723Y-3.3637
X4.9197Y-3.6972
X5.2197Y-3.6972
X5.8376Y-3.0645
X5.8376Y-3.3645
X6.39Y-4.3338
X6.39Y-4.4125
X6.39Y-4.4913
X6.39Y-4.57
X5.9173Y-4.7835
X6.2173Y-4.7835
T5
X5.7913Y-2.8504
X5.8913Y-2.8504
X5.3189Y-2.8504
X5.4189Y-2.8504
X5.5551Y-2.8504
X5.6551Y-2.8504
T6
X6.3299Y-3.6854
X6.3299Y-3.7839
X6.4087Y-3.6854
X6.4087Y-3.7839
T7
X5.902Y-5.1917
X5.902Y-5.2917
X6.002Y-5.1917
X6.002Y-5.2917
X6.102Y-5.1917
X6.102Y-5.2917
X3.8189Y-3.2283
X3.9189Y-3.2283
X4.0189Y-3.2283
X4.1189Y-3.2283
X4.2189Y-3.2283
X4.3189Y-3.2283
X4.4189Y-3.2283
X4.5189Y-3.2283
X4.6189Y-3.2283
X4.7189Y-3.2283
X4.8189Y-3.2283
X4.9189Y-3.2283
X5.0189Y-3.2283
X5.1189Y-3.2283
X5.2189Y-3.2283
X5.3189Y-3.2283
T8
X3.8209Y-4.7638
X3.8209Y-4.9409
X4.0768Y-4.7638
X4.0768Y-4.9409
T9
X6.5154Y-3.4976
X6.5154Y-3.9717
T10
X3.6614Y-5.2756
X6.4567Y-2.9134
X3.6614Y-2.9134
X6.4567Y-5.2756
T0
M30
