%TF.GenerationSoftware,KiCad,Pcbnew,5.1.9*%
%TF.CreationDate,2021-03-06T12:02:52+01:00*%
%TF.ProjectId,livello_serbatoio_definitiva,6c697665-6c6c-46f5-9f73-65726261746f,rev?*%
%TF.SameCoordinates,Original*%
%TF.FileFunction,Legend,Bot*%
%TF.FilePolarity,Positive*%
%FSLAX46Y46*%
G04 Gerber Fmt 4.6, Leading zero omitted, Abs format (unit mm)*
G04 Created by KiCad (PCBNEW 5.1.9) date 2021-03-06 12:02:52*
%MOMM*%
%LPD*%
G01*
G04 APERTURE LIST*
%ADD10C,0.120000*%
%ADD11C,0.150000*%
G04 APERTURE END LIST*
D10*
X109700000Y-108700000D02*
G75*
G02*
X109700000Y-109100000I0J-200000D01*
G01*
X104700000Y-84700000D02*
G75*
G02*
X105100000Y-84700000I200000J0D01*
G01*
X104700000Y-84700000D02*
G75*
G02*
X104300000Y-84700000I-200000J0D01*
G01*
X125220000Y-84700000D02*
G75*
G02*
X124820000Y-84700000I-200000J0D01*
G01*
X125220000Y-84700000D02*
G75*
G02*
X125620000Y-84700000I200000J0D01*
G01*
X132520000Y-84700000D02*
G75*
G02*
X132120000Y-84700000I-200000J0D01*
G01*
X132520000Y-84700000D02*
G75*
G02*
X132920000Y-84700000I200000J0D01*
G01*
D11*
X96738095Y-85300000D02*
X96833333Y-85252380D01*
X96976190Y-85252380D01*
X97119047Y-85300000D01*
X97214285Y-85395238D01*
X97261904Y-85490476D01*
X97309523Y-85680952D01*
X97309523Y-85823809D01*
X97261904Y-86014285D01*
X97214285Y-86109523D01*
X97119047Y-86204761D01*
X96976190Y-86252380D01*
X96880952Y-86252380D01*
X96738095Y-86204761D01*
X96690476Y-86157142D01*
X96690476Y-85823809D01*
X96880952Y-85823809D01*
X106938095Y-85300000D02*
X107033333Y-85252380D01*
X107176190Y-85252380D01*
X107319047Y-85300000D01*
X107414285Y-85395238D01*
X107461904Y-85490476D01*
X107509523Y-85680952D01*
X107509523Y-85823809D01*
X107461904Y-86014285D01*
X107414285Y-86109523D01*
X107319047Y-86204761D01*
X107176190Y-86252380D01*
X107080952Y-86252380D01*
X106938095Y-86204761D01*
X106890476Y-86157142D01*
X106890476Y-85823809D01*
X107080952Y-85823809D01*
X110438095Y-86252380D02*
X110438095Y-85252380D01*
X110200000Y-85252380D01*
X110057142Y-85300000D01*
X109961904Y-85395238D01*
X109914285Y-85490476D01*
X109866666Y-85680952D01*
X109866666Y-85823809D01*
X109914285Y-86014285D01*
X109961904Y-86109523D01*
X110057142Y-86204761D01*
X110200000Y-86252380D01*
X110438095Y-86252380D01*
X109009523Y-85585714D02*
X109009523Y-86252380D01*
X109247619Y-85204761D02*
X109485714Y-85919047D01*
X108866666Y-85919047D01*
X128238095Y-86252380D02*
X128238095Y-85252380D01*
X128000000Y-85252380D01*
X127857142Y-85300000D01*
X127761904Y-85395238D01*
X127714285Y-85490476D01*
X127666666Y-85680952D01*
X127666666Y-85823809D01*
X127714285Y-86014285D01*
X127761904Y-86109523D01*
X127857142Y-86204761D01*
X128000000Y-86252380D01*
X128238095Y-86252380D01*
X127333333Y-85252380D02*
X126666666Y-85252380D01*
X127095238Y-86252380D01*
X105338095Y-86252380D02*
X105338095Y-85252380D01*
X105100000Y-85252380D01*
X104957142Y-85300000D01*
X104861904Y-85395238D01*
X104814285Y-85490476D01*
X104766666Y-85680952D01*
X104766666Y-85823809D01*
X104814285Y-86014285D01*
X104861904Y-86109523D01*
X104957142Y-86204761D01*
X105100000Y-86252380D01*
X105338095Y-86252380D01*
X104433333Y-85252380D02*
X103814285Y-85252380D01*
X104147619Y-85633333D01*
X104004761Y-85633333D01*
X103909523Y-85680952D01*
X103861904Y-85728571D01*
X103814285Y-85823809D01*
X103814285Y-86061904D01*
X103861904Y-86157142D01*
X103909523Y-86204761D01*
X104004761Y-86252380D01*
X104290476Y-86252380D01*
X104385714Y-86204761D01*
X104433333Y-86157142D01*
X130738095Y-86252380D02*
X130738095Y-85252380D01*
X130500000Y-85252380D01*
X130357142Y-85300000D01*
X130261904Y-85395238D01*
X130214285Y-85490476D01*
X130166666Y-85680952D01*
X130166666Y-85823809D01*
X130214285Y-86014285D01*
X130261904Y-86109523D01*
X130357142Y-86204761D01*
X130500000Y-86252380D01*
X130738095Y-86252380D01*
X129595238Y-85680952D02*
X129690476Y-85633333D01*
X129738095Y-85585714D01*
X129785714Y-85490476D01*
X129785714Y-85442857D01*
X129738095Y-85347619D01*
X129690476Y-85300000D01*
X129595238Y-85252380D01*
X129404761Y-85252380D01*
X129309523Y-85300000D01*
X129261904Y-85347619D01*
X129214285Y-85442857D01*
X129214285Y-85490476D01*
X129261904Y-85585714D01*
X129309523Y-85633333D01*
X129404761Y-85680952D01*
X129595238Y-85680952D01*
X129690476Y-85728571D01*
X129738095Y-85776190D01*
X129785714Y-85871428D01*
X129785714Y-86061904D01*
X129738095Y-86157142D01*
X129690476Y-86204761D01*
X129595238Y-86252380D01*
X129404761Y-86252380D01*
X129309523Y-86204761D01*
X129261904Y-86157142D01*
X129214285Y-86061904D01*
X129214285Y-85871428D01*
X129261904Y-85776190D01*
X129309523Y-85728571D01*
X129404761Y-85680952D01*
X134838095Y-85300000D02*
X134933333Y-85252380D01*
X135076190Y-85252380D01*
X135219047Y-85300000D01*
X135314285Y-85395238D01*
X135361904Y-85490476D01*
X135409523Y-85680952D01*
X135409523Y-85823809D01*
X135361904Y-86014285D01*
X135314285Y-86109523D01*
X135219047Y-86204761D01*
X135076190Y-86252380D01*
X134980952Y-86252380D01*
X134838095Y-86204761D01*
X134790476Y-86157142D01*
X134790476Y-85823809D01*
X134980952Y-85823809D01*
X133238095Y-86252380D02*
X133238095Y-85252380D01*
X133000000Y-85252380D01*
X132857142Y-85300000D01*
X132761904Y-85395238D01*
X132714285Y-85490476D01*
X132666666Y-85680952D01*
X132666666Y-85823809D01*
X132714285Y-86014285D01*
X132761904Y-86109523D01*
X132857142Y-86204761D01*
X133000000Y-86252380D01*
X133238095Y-86252380D01*
X132190476Y-86252380D02*
X132000000Y-86252380D01*
X131904761Y-86204761D01*
X131857142Y-86157142D01*
X131761904Y-86014285D01*
X131714285Y-85823809D01*
X131714285Y-85442857D01*
X131761904Y-85347619D01*
X131809523Y-85300000D01*
X131904761Y-85252380D01*
X132095238Y-85252380D01*
X132190476Y-85300000D01*
X132238095Y-85347619D01*
X132285714Y-85442857D01*
X132285714Y-85680952D01*
X132238095Y-85776190D01*
X132190476Y-85823809D01*
X132095238Y-85871428D01*
X131904761Y-85871428D01*
X131809523Y-85823809D01*
X131761904Y-85776190D01*
X131714285Y-85680952D01*
X125738095Y-86252380D02*
X125738095Y-85252380D01*
X125500000Y-85252380D01*
X125357142Y-85300000D01*
X125261904Y-85395238D01*
X125214285Y-85490476D01*
X125166666Y-85680952D01*
X125166666Y-85823809D01*
X125214285Y-86014285D01*
X125261904Y-86109523D01*
X125357142Y-86204761D01*
X125500000Y-86252380D01*
X125738095Y-86252380D01*
X124309523Y-85252380D02*
X124500000Y-85252380D01*
X124595238Y-85300000D01*
X124642857Y-85347619D01*
X124738095Y-85490476D01*
X124785714Y-85680952D01*
X124785714Y-86061904D01*
X124738095Y-86157142D01*
X124690476Y-86204761D01*
X124595238Y-86252380D01*
X124404761Y-86252380D01*
X124309523Y-86204761D01*
X124261904Y-86157142D01*
X124214285Y-86061904D01*
X124214285Y-85823809D01*
X124261904Y-85728571D01*
X124309523Y-85680952D01*
X124404761Y-85633333D01*
X124595238Y-85633333D01*
X124690476Y-85680952D01*
X124738095Y-85728571D01*
X124785714Y-85823809D01*
X99590476Y-85252380D02*
X100066666Y-85252380D01*
X100114285Y-85728571D01*
X100066666Y-85680952D01*
X99971428Y-85633333D01*
X99733333Y-85633333D01*
X99638095Y-85680952D01*
X99590476Y-85728571D01*
X99542857Y-85823809D01*
X99542857Y-86061904D01*
X99590476Y-86157142D01*
X99638095Y-86204761D01*
X99733333Y-86252380D01*
X99971428Y-86252380D01*
X100066666Y-86204761D01*
X100114285Y-86157142D01*
X99257142Y-85252380D02*
X98923809Y-86252380D01*
X98590476Y-85252380D01*
X102219047Y-86252380D02*
X102552380Y-85776190D01*
X102790476Y-86252380D02*
X102790476Y-85252380D01*
X102409523Y-85252380D01*
X102314285Y-85300000D01*
X102266666Y-85347619D01*
X102219047Y-85442857D01*
X102219047Y-85585714D01*
X102266666Y-85680952D01*
X102314285Y-85728571D01*
X102409523Y-85776190D01*
X102790476Y-85776190D01*
X101933333Y-85252380D02*
X101600000Y-86252380D01*
X101266666Y-85252380D01*
X123138095Y-86252380D02*
X123138095Y-85252380D01*
X122900000Y-85252380D01*
X122757142Y-85300000D01*
X122661904Y-85395238D01*
X122614285Y-85490476D01*
X122566666Y-85680952D01*
X122566666Y-85823809D01*
X122614285Y-86014285D01*
X122661904Y-86109523D01*
X122757142Y-86204761D01*
X122900000Y-86252380D01*
X123138095Y-86252380D01*
X121661904Y-85252380D02*
X122138095Y-85252380D01*
X122185714Y-85728571D01*
X122138095Y-85680952D01*
X122042857Y-85633333D01*
X121804761Y-85633333D01*
X121709523Y-85680952D01*
X121661904Y-85728571D01*
X121614285Y-85823809D01*
X121614285Y-86061904D01*
X121661904Y-86157142D01*
X121709523Y-86204761D01*
X121804761Y-86252380D01*
X122042857Y-86252380D01*
X122138095Y-86204761D01*
X122185714Y-86157142D01*
D10*
X109700000Y-108700000D02*
G75*
G02*
X109700000Y-108300000I0J200000D01*
G01*
X121140000Y-97130000D02*
X110960000Y-97130000D01*
X121140000Y-97130000D02*
X121140000Y-90120000D01*
X110960000Y-90130000D02*
X110960000Y-97130000D01*
X110960000Y-90130000D02*
X110960000Y-86870000D01*
X121140000Y-90130000D02*
X110960000Y-90130000D01*
X121140000Y-86870000D02*
X121140000Y-90130000D01*
X110970000Y-86870000D02*
X121140000Y-86870000D01*
X116631960Y-112250000D02*
X102881960Y-112250000D01*
X116631960Y-115750000D02*
X116631960Y-112250000D01*
X102881960Y-115750000D02*
X116631960Y-115750000D01*
X102881960Y-112250000D02*
X102881960Y-115750000D01*
D11*
X114703388Y-109344285D02*
X114703388Y-110106190D01*
X115084340Y-109725238D02*
X114322436Y-109725238D01*
X114084340Y-111058571D02*
X114084340Y-110582380D01*
X114560531Y-110534761D01*
X114512912Y-110582380D01*
X114465293Y-110677619D01*
X114465293Y-110915714D01*
X114512912Y-111010952D01*
X114560531Y-111058571D01*
X114655769Y-111106190D01*
X114893864Y-111106190D01*
X114989102Y-111058571D01*
X115036721Y-111010952D01*
X115084340Y-110915714D01*
X115084340Y-110677619D01*
X115036721Y-110582380D01*
X114989102Y-110534761D01*
X114084340Y-111391904D02*
X115084340Y-111725238D01*
X114084340Y-112058571D01*
X111631960Y-109928095D02*
X111584340Y-109832857D01*
X111584340Y-109690000D01*
X111631960Y-109547142D01*
X111727198Y-109451904D01*
X111822436Y-109404285D01*
X112012912Y-109356666D01*
X112155769Y-109356666D01*
X112346245Y-109404285D01*
X112441483Y-109451904D01*
X112536721Y-109547142D01*
X112584340Y-109690000D01*
X112584340Y-109785238D01*
X112536721Y-109928095D01*
X112489102Y-109975714D01*
X112155769Y-109975714D01*
X112155769Y-109785238D01*
X112584340Y-110404285D02*
X111584340Y-110404285D01*
X112584340Y-110975714D01*
X111584340Y-110975714D01*
X112584340Y-111451904D02*
X111584340Y-111451904D01*
X111584340Y-111690000D01*
X111631960Y-111832857D01*
X111727198Y-111928095D01*
X111822436Y-111975714D01*
X112012912Y-112023333D01*
X112155769Y-112023333D01*
X112346245Y-111975714D01*
X112441483Y-111928095D01*
X112536721Y-111832857D01*
X112584340Y-111690000D01*
X112584340Y-111451904D01*
X120614285Y-85966666D02*
X120138095Y-85966666D01*
X120709523Y-86252380D02*
X120376190Y-85252380D01*
X120042857Y-86252380D01*
X119519047Y-85252380D02*
X119423809Y-85252380D01*
X119328571Y-85300000D01*
X119280952Y-85347619D01*
X119233333Y-85442857D01*
X119185714Y-85633333D01*
X119185714Y-85871428D01*
X119233333Y-86061904D01*
X119280952Y-86157142D01*
X119328571Y-86204761D01*
X119423809Y-86252380D01*
X119519047Y-86252380D01*
X119614285Y-86204761D01*
X119661904Y-86157142D01*
X119709523Y-86061904D01*
X119757142Y-85871428D01*
X119757142Y-85633333D01*
X119709523Y-85442857D01*
X119661904Y-85347619D01*
X119614285Y-85300000D01*
X119519047Y-85252380D01*
X118014285Y-85966666D02*
X117538095Y-85966666D01*
X118109523Y-86252380D02*
X117776190Y-85252380D01*
X117442857Y-86252380D01*
X116585714Y-86252380D02*
X117157142Y-86252380D01*
X116871428Y-86252380D02*
X116871428Y-85252380D01*
X116966666Y-85395238D01*
X117061904Y-85490476D01*
X117157142Y-85538095D01*
X115514285Y-85966666D02*
X115038095Y-85966666D01*
X115609523Y-86252380D02*
X115276190Y-85252380D01*
X114942857Y-86252380D01*
X114657142Y-85347619D02*
X114609523Y-85300000D01*
X114514285Y-85252380D01*
X114276190Y-85252380D01*
X114180952Y-85300000D01*
X114133333Y-85347619D01*
X114085714Y-85442857D01*
X114085714Y-85538095D01*
X114133333Y-85680952D01*
X114704761Y-86252380D01*
X114085714Y-86252380D01*
X113014285Y-85966666D02*
X112538095Y-85966666D01*
X113109523Y-86252380D02*
X112776190Y-85252380D01*
X112442857Y-86252380D01*
X112204761Y-85252380D02*
X111585714Y-85252380D01*
X111919047Y-85633333D01*
X111776190Y-85633333D01*
X111680952Y-85680952D01*
X111633333Y-85728571D01*
X111585714Y-85823809D01*
X111585714Y-86061904D01*
X111633333Y-86157142D01*
X111680952Y-86204761D01*
X111776190Y-86252380D01*
X112061904Y-86252380D01*
X112157142Y-86204761D01*
X112204761Y-86157142D01*
X110204340Y-109495714D02*
X109204340Y-109495714D01*
X109204340Y-109733809D01*
X109251960Y-109876666D01*
X109347198Y-109971904D01*
X109442436Y-110019523D01*
X109632912Y-110067142D01*
X109775769Y-110067142D01*
X109966245Y-110019523D01*
X110061483Y-109971904D01*
X110156721Y-109876666D01*
X110204340Y-109733809D01*
X110204340Y-109495714D01*
X110204340Y-111019523D02*
X110204340Y-110448095D01*
X110204340Y-110733809D02*
X109204340Y-110733809D01*
X109347198Y-110638571D01*
X109442436Y-110543333D01*
X109490055Y-110448095D01*
X109204340Y-111638571D02*
X109204340Y-111733809D01*
X109251960Y-111829047D01*
X109299579Y-111876666D01*
X109394817Y-111924285D01*
X109585293Y-111971904D01*
X109823388Y-111971904D01*
X110013864Y-111924285D01*
X110109102Y-111876666D01*
X110156721Y-111829047D01*
X110204340Y-111733809D01*
X110204340Y-111638571D01*
X110156721Y-111543333D01*
X110109102Y-111495714D01*
X110013864Y-111448095D01*
X109823388Y-111400476D01*
X109585293Y-111400476D01*
X109394817Y-111448095D01*
X109299579Y-111495714D01*
X109251960Y-111543333D01*
X109204340Y-111638571D01*
X107488626Y-110495714D02*
X107488626Y-110971904D01*
X107774340Y-110400476D02*
X106774340Y-110733809D01*
X107774340Y-111067142D01*
X107107674Y-111829047D02*
X107774340Y-111829047D01*
X106726721Y-111590952D02*
X107441007Y-111352857D01*
X107441007Y-111971904D01*
X104818626Y-110515714D02*
X104818626Y-110991904D01*
X105104340Y-110420476D02*
X104104340Y-110753809D01*
X105104340Y-111087142D01*
X104104340Y-111896666D02*
X104104340Y-111420476D01*
X104580531Y-111372857D01*
X104532912Y-111420476D01*
X104485293Y-111515714D01*
X104485293Y-111753809D01*
X104532912Y-111849047D01*
X104580531Y-111896666D01*
X104675769Y-111944285D01*
X104913864Y-111944285D01*
X105009102Y-111896666D01*
X105056721Y-111849047D01*
X105104340Y-111753809D01*
X105104340Y-111515714D01*
X105056721Y-111420476D01*
X105009102Y-111372857D01*
X140391428Y-90261904D02*
X140848571Y-90261904D01*
X140620000Y-90261904D02*
X140620000Y-89461904D01*
X140696190Y-89576190D01*
X140772380Y-89652380D01*
X140848571Y-89690476D01*
X158121428Y-81111904D02*
X158578571Y-81111904D01*
X158350000Y-81111904D02*
X158350000Y-80311904D01*
X158426190Y-80426190D01*
X158502380Y-80502380D01*
X158578571Y-80540476D01*
X157709523Y-130277380D02*
X158185714Y-130277380D01*
X158185714Y-129277380D01*
X157376190Y-129896428D02*
X156614285Y-129896428D01*
X142757619Y-129778571D02*
X142614761Y-129826190D01*
X142567142Y-129873809D01*
X142519523Y-129969047D01*
X142519523Y-130111904D01*
X142567142Y-130207142D01*
X142614761Y-130254761D01*
X142710000Y-130302380D01*
X143090952Y-130302380D01*
X143090952Y-129302380D01*
X142757619Y-129302380D01*
X142662380Y-129350000D01*
X142614761Y-129397619D01*
X142567142Y-129492857D01*
X142567142Y-129588095D01*
X142614761Y-129683333D01*
X142662380Y-129730952D01*
X142757619Y-129778571D01*
X143090952Y-129778571D01*
X142090952Y-129921428D02*
X141329047Y-129921428D01*
X152757619Y-129688571D02*
X152614761Y-129736190D01*
X152567142Y-129783809D01*
X152519523Y-129879047D01*
X152519523Y-130021904D01*
X152567142Y-130117142D01*
X152614761Y-130164761D01*
X152710000Y-130212380D01*
X153090952Y-130212380D01*
X153090952Y-129212380D01*
X152757619Y-129212380D01*
X152662380Y-129260000D01*
X152614761Y-129307619D01*
X152567142Y-129402857D01*
X152567142Y-129498095D01*
X152614761Y-129593333D01*
X152662380Y-129640952D01*
X152757619Y-129688571D01*
X153090952Y-129688571D01*
X152090952Y-129831428D02*
X151329047Y-129831428D01*
X151710000Y-130212380D02*
X151710000Y-129450476D01*
X147559523Y-130212380D02*
X148035714Y-130212380D01*
X148035714Y-129212380D01*
X147226190Y-129831428D02*
X146464285Y-129831428D01*
X146845238Y-130212380D02*
X146845238Y-129450476D01*
X160260714Y-115771428D02*
X159498809Y-115771428D01*
X159879761Y-116152380D02*
X159879761Y-115390476D01*
X158546428Y-115152380D02*
X159022619Y-115152380D01*
X159070238Y-115628571D01*
X159022619Y-115580952D01*
X158927380Y-115533333D01*
X158689285Y-115533333D01*
X158594047Y-115580952D01*
X158546428Y-115628571D01*
X158498809Y-115723809D01*
X158498809Y-115961904D01*
X158546428Y-116057142D01*
X158594047Y-116104761D01*
X158689285Y-116152380D01*
X158927380Y-116152380D01*
X159022619Y-116104761D01*
X159070238Y-116057142D01*
X158213095Y-115152380D02*
X157879761Y-116152380D01*
X157546428Y-115152380D01*
X160210714Y-110152380D02*
X159639285Y-110152380D01*
X159925000Y-111152380D02*
X159925000Y-110152380D01*
X160139285Y-105628571D02*
X159805952Y-105628571D01*
X159663095Y-106152380D02*
X160139285Y-106152380D01*
X160139285Y-105152380D01*
X159663095Y-105152380D01*
X159636904Y-100200000D02*
X159732142Y-100152380D01*
X159875000Y-100152380D01*
X160017857Y-100200000D01*
X160113095Y-100295238D01*
X160160714Y-100390476D01*
X160208333Y-100580952D01*
X160208333Y-100723809D01*
X160160714Y-100914285D01*
X160113095Y-101009523D01*
X160017857Y-101104761D01*
X159875000Y-101152380D01*
X159779761Y-101152380D01*
X159636904Y-101104761D01*
X159589285Y-101057142D01*
X159589285Y-100723809D01*
X159779761Y-100723809D01*
X159160714Y-101152380D02*
X159160714Y-100152380D01*
X158589285Y-101152380D01*
X158589285Y-100152380D01*
X158113095Y-101152380D02*
X158113095Y-100152380D01*
X157875000Y-100152380D01*
X157732142Y-100200000D01*
X157636904Y-100295238D01*
X157589285Y-100390476D01*
X157541666Y-100580952D01*
X157541666Y-100723809D01*
X157589285Y-100914285D01*
X157636904Y-101009523D01*
X157732142Y-101104761D01*
X157875000Y-101152380D01*
X158113095Y-101152380D01*
X162643333Y-138288571D02*
X162500476Y-138336190D01*
X162452857Y-138383809D01*
X162405238Y-138479047D01*
X162405238Y-138621904D01*
X162452857Y-138717142D01*
X162500476Y-138764761D01*
X162595714Y-138812380D01*
X162976666Y-138812380D01*
X162976666Y-137812380D01*
X162643333Y-137812380D01*
X162548095Y-137860000D01*
X162500476Y-137907619D01*
X162452857Y-138002857D01*
X162452857Y-138098095D01*
X162500476Y-138193333D01*
X162548095Y-138240952D01*
X162643333Y-138288571D01*
X162976666Y-138288571D01*
X162119523Y-137812380D02*
X161548095Y-137812380D01*
X161833809Y-138812380D02*
X161833809Y-137812380D01*
X161214761Y-138812380D02*
X161214761Y-137812380D01*
X160643333Y-138812380D01*
X160643333Y-137812380D01*
X166813095Y-120204761D02*
X166670238Y-120252380D01*
X166432142Y-120252380D01*
X166336904Y-120204761D01*
X166289285Y-120157142D01*
X166241666Y-120061904D01*
X166241666Y-119966666D01*
X166289285Y-119871428D01*
X166336904Y-119823809D01*
X166432142Y-119776190D01*
X166622619Y-119728571D01*
X166717857Y-119680952D01*
X166765476Y-119633333D01*
X166813095Y-119538095D01*
X166813095Y-119442857D01*
X166765476Y-119347619D01*
X166717857Y-119300000D01*
X166622619Y-119252380D01*
X166384523Y-119252380D01*
X166241666Y-119300000D01*
X165813095Y-119728571D02*
X165479761Y-119728571D01*
X165336904Y-120252380D02*
X165813095Y-120252380D01*
X165813095Y-119252380D01*
X165336904Y-119252380D01*
X164908333Y-120252380D02*
X164908333Y-119252380D01*
X164336904Y-120252380D01*
X164336904Y-119252380D01*
X163908333Y-120204761D02*
X163765476Y-120252380D01*
X163527380Y-120252380D01*
X163432142Y-120204761D01*
X163384523Y-120157142D01*
X163336904Y-120061904D01*
X163336904Y-119966666D01*
X163384523Y-119871428D01*
X163432142Y-119823809D01*
X163527380Y-119776190D01*
X163717857Y-119728571D01*
X163813095Y-119680952D01*
X163860714Y-119633333D01*
X163908333Y-119538095D01*
X163908333Y-119442857D01*
X163860714Y-119347619D01*
X163813095Y-119300000D01*
X163717857Y-119252380D01*
X163479761Y-119252380D01*
X163336904Y-119300000D01*
X119179523Y-105010000D02*
X119255714Y-104971904D01*
X119370000Y-104971904D01*
X119484285Y-105010000D01*
X119560476Y-105086190D01*
X119598571Y-105162380D01*
X119636666Y-105314761D01*
X119636666Y-105429047D01*
X119598571Y-105581428D01*
X119560476Y-105657619D01*
X119484285Y-105733809D01*
X119370000Y-105771904D01*
X119293809Y-105771904D01*
X119179523Y-105733809D01*
X119141428Y-105695714D01*
X119141428Y-105429047D01*
X119293809Y-105429047D01*
X118798571Y-105771904D02*
X118798571Y-104971904D01*
X118341428Y-105771904D01*
X118341428Y-104971904D01*
X117960476Y-105771904D02*
X117960476Y-104971904D01*
X117770000Y-104971904D01*
X117655714Y-105010000D01*
X117579523Y-105086190D01*
X117541428Y-105162380D01*
X117503333Y-105314761D01*
X117503333Y-105429047D01*
X117541428Y-105581428D01*
X117579523Y-105657619D01*
X117655714Y-105733809D01*
X117770000Y-105771904D01*
X117960476Y-105771904D01*
X121845714Y-105801904D02*
X121845714Y-105001904D01*
X121579047Y-105573333D01*
X121312380Y-105001904D01*
X121312380Y-105801904D01*
X120779047Y-105001904D02*
X120626666Y-105001904D01*
X120550476Y-105040000D01*
X120474285Y-105116190D01*
X120436190Y-105268571D01*
X120436190Y-105535238D01*
X120474285Y-105687619D01*
X120550476Y-105763809D01*
X120626666Y-105801904D01*
X120779047Y-105801904D01*
X120855238Y-105763809D01*
X120931428Y-105687619D01*
X120969523Y-105535238D01*
X120969523Y-105268571D01*
X120931428Y-105116190D01*
X120855238Y-105040000D01*
X120779047Y-105001904D01*
X118623333Y-112361904D02*
X118890000Y-111980952D01*
X119080476Y-112361904D02*
X119080476Y-111561904D01*
X118775714Y-111561904D01*
X118699523Y-111600000D01*
X118661428Y-111638095D01*
X118623333Y-111714285D01*
X118623333Y-111828571D01*
X118661428Y-111904761D01*
X118699523Y-111942857D01*
X118775714Y-111980952D01*
X119080476Y-111980952D01*
X118318571Y-112323809D02*
X118204285Y-112361904D01*
X118013809Y-112361904D01*
X117937619Y-112323809D01*
X117899523Y-112285714D01*
X117861428Y-112209523D01*
X117861428Y-112133333D01*
X117899523Y-112057142D01*
X117937619Y-112019047D01*
X118013809Y-111980952D01*
X118166190Y-111942857D01*
X118242380Y-111904761D01*
X118280476Y-111866666D01*
X118318571Y-111790476D01*
X118318571Y-111714285D01*
X118280476Y-111638095D01*
X118242380Y-111600000D01*
X118166190Y-111561904D01*
X117975714Y-111561904D01*
X117861428Y-111600000D01*
X121442380Y-112285714D02*
X121480476Y-112323809D01*
X121594761Y-112361904D01*
X121670952Y-112361904D01*
X121785238Y-112323809D01*
X121861428Y-112247619D01*
X121899523Y-112171428D01*
X121937619Y-112019047D01*
X121937619Y-111904761D01*
X121899523Y-111752380D01*
X121861428Y-111676190D01*
X121785238Y-111600000D01*
X121670952Y-111561904D01*
X121594761Y-111561904D01*
X121480476Y-111600000D01*
X121442380Y-111638095D01*
X121099523Y-112361904D02*
X121099523Y-111561904D01*
X120642380Y-112361904D02*
X120985238Y-111904761D01*
X120642380Y-111561904D02*
X121099523Y-112019047D01*
X124848571Y-105497142D02*
X124239047Y-105497142D01*
X124543809Y-105801904D02*
X124543809Y-105192380D01*
X123477142Y-105001904D02*
X123858095Y-105001904D01*
X123896190Y-105382857D01*
X123858095Y-105344761D01*
X123781904Y-105306666D01*
X123591428Y-105306666D01*
X123515238Y-105344761D01*
X123477142Y-105382857D01*
X123439047Y-105459047D01*
X123439047Y-105649523D01*
X123477142Y-105725714D01*
X123515238Y-105763809D01*
X123591428Y-105801904D01*
X123781904Y-105801904D01*
X123858095Y-105763809D01*
X123896190Y-105725714D01*
X123210476Y-105001904D02*
X122943809Y-105801904D01*
X122677142Y-105001904D01*
X124157142Y-112381904D02*
X124157142Y-111581904D01*
X123890476Y-112153333D01*
X123623809Y-111581904D01*
X123623809Y-112381904D01*
X123242857Y-112381904D02*
X123242857Y-111581904D01*
D10*
%TO.C,TP2*%
X140500000Y-83400000D02*
G75*
G03*
X140500000Y-83400000I-700000J0D01*
G01*
%TO.C,TP1*%
X146600000Y-92500000D02*
G75*
G03*
X146600000Y-92500000I-700000J0D01*
G01*
%TO.C,J6*%
X113505000Y-94090000D02*
X113505000Y-96750000D01*
X113505000Y-94090000D02*
X121185000Y-94090000D01*
X121185000Y-94090000D02*
X121185000Y-96750000D01*
X113505000Y-96750000D02*
X121185000Y-96750000D01*
X110905000Y-96750000D02*
X112235000Y-96750000D01*
X110905000Y-95420000D02*
X110905000Y-96750000D01*
%TO.C,J7*%
X113510000Y-115400000D02*
X113510000Y-112740000D01*
X113510000Y-115400000D02*
X103290000Y-115400000D01*
X103290000Y-115400000D02*
X103290000Y-112740000D01*
X113510000Y-112740000D02*
X103290000Y-112740000D01*
X116110000Y-112740000D02*
X114780000Y-112740000D01*
X116110000Y-114070000D02*
X116110000Y-112740000D01*
%TO.C,JP4*%
X120850000Y-93370000D02*
X120850000Y-90570000D01*
X120850000Y-90570000D02*
X118850000Y-90570000D01*
X118850000Y-90570000D02*
X118850000Y-93370000D01*
X118850000Y-93370000D02*
X120850000Y-93370000D01*
%TO.C,JP3*%
X118320000Y-93370000D02*
X118320000Y-90570000D01*
X118320000Y-90570000D02*
X116320000Y-90570000D01*
X116320000Y-90570000D02*
X116320000Y-93370000D01*
X116320000Y-93370000D02*
X118320000Y-93370000D01*
%TO.C,JP2*%
X115780000Y-93370000D02*
X115780000Y-90570000D01*
X115780000Y-90570000D02*
X113780000Y-90570000D01*
X113780000Y-90570000D02*
X113780000Y-93370000D01*
X113780000Y-93370000D02*
X115780000Y-93370000D01*
%TO.C,JP1*%
X113230000Y-93370000D02*
X113230000Y-90570000D01*
X113230000Y-90570000D02*
X111230000Y-90570000D01*
X111230000Y-90570000D02*
X111230000Y-93370000D01*
X111230000Y-93370000D02*
X113230000Y-93370000D01*
%TO.C,U3*%
X156430000Y-83380000D02*
X154630000Y-83380000D01*
X154630000Y-80160000D02*
X157580000Y-80160000D01*
%TO.C,J2*%
X139410000Y-131010000D02*
X140010000Y-131010000D01*
X139410000Y-131850000D02*
X139410000Y-131010000D01*
X158460000Y-139410000D02*
X158460000Y-138410000D01*
X155960000Y-139410000D02*
X155960000Y-138410000D01*
X155960000Y-138410000D02*
X158460000Y-138410000D01*
X155960000Y-139410000D02*
X158460000Y-139410000D01*
X156182000Y-134537000D02*
X155936000Y-134291000D01*
X158280000Y-136635000D02*
X158069000Y-136424000D01*
X156340000Y-134285000D02*
X156141000Y-134086000D01*
X158485000Y-136429000D02*
X158239000Y-136183000D01*
X153460000Y-139410000D02*
X153460000Y-138410000D01*
X150960000Y-139410000D02*
X150960000Y-138410000D01*
X150960000Y-138410000D02*
X153460000Y-138410000D01*
X150960000Y-139410000D02*
X153460000Y-139410000D01*
X151182000Y-134537000D02*
X150936000Y-134291000D01*
X153280000Y-136635000D02*
X153069000Y-136424000D01*
X151340000Y-134285000D02*
X151141000Y-134086000D01*
X153485000Y-136429000D02*
X153239000Y-136183000D01*
X148460000Y-139410000D02*
X148460000Y-138410000D01*
X145960000Y-139410000D02*
X145960000Y-138410000D01*
X145960000Y-138410000D02*
X148460000Y-138410000D01*
X145960000Y-139410000D02*
X148460000Y-139410000D01*
X146182000Y-134537000D02*
X145936000Y-134291000D01*
X148280000Y-136635000D02*
X148069000Y-136424000D01*
X146340000Y-134285000D02*
X146141000Y-134086000D01*
X148485000Y-136429000D02*
X148239000Y-136183000D01*
X143460000Y-139410000D02*
X143460000Y-138410000D01*
X140960000Y-139410000D02*
X140960000Y-138410000D01*
X140960000Y-138410000D02*
X143460000Y-138410000D01*
X140960000Y-139410000D02*
X143460000Y-139410000D01*
X159771000Y-139470000D02*
X159771000Y-131250000D01*
X139650000Y-139470000D02*
X139650000Y-131250000D01*
X139650000Y-131250000D02*
X159771000Y-131250000D01*
X139650000Y-139470000D02*
X159771000Y-139470000D01*
X139650000Y-137410000D02*
X159771000Y-137410000D01*
X139650000Y-132510000D02*
X159771000Y-132510000D01*
X139650000Y-131910000D02*
X159771000Y-131910000D01*
X158890000Y-135360000D02*
G75*
G03*
X158890000Y-135360000I-1680000J0D01*
G01*
X153890000Y-135360000D02*
G75*
G03*
X153890000Y-135360000I-1680000J0D01*
G01*
X148890000Y-135360000D02*
G75*
G03*
X148890000Y-135360000I-1680000J0D01*
G01*
X142238507Y-133679489D02*
G75*
G03*
X141129000Y-134073000I-28507J-1680511D01*
G01*
X140921937Y-134280266D02*
G75*
G03*
X140923000Y-136441000I1288063J-1079734D01*
G01*
X141130092Y-136647078D02*
G75*
G03*
X143290000Y-136647000I1079908J1287078D01*
G01*
X143497078Y-136439908D02*
G75*
G03*
X143497000Y-134280000I-1287078J1079908D01*
G01*
X143289883Y-134073045D02*
G75*
G03*
X142210000Y-133680000I-1079883J-1286955D01*
G01*
%TO.C,J4*%
X160975000Y-118500000D02*
X160975000Y-117900000D01*
X161815000Y-118500000D02*
X160975000Y-118500000D01*
X169375000Y-99450000D02*
X168375000Y-99450000D01*
X169375000Y-101950000D02*
X168375000Y-101950000D01*
X168375000Y-101950000D02*
X168375000Y-99450000D01*
X169375000Y-101950000D02*
X169375000Y-99450000D01*
X164502000Y-101728000D02*
X164256000Y-101974000D01*
X166600000Y-99630000D02*
X166389000Y-99841000D01*
X164250000Y-101570000D02*
X164051000Y-101769000D01*
X166394000Y-99425000D02*
X166148000Y-99671000D01*
X169375000Y-104450000D02*
X168375000Y-104450000D01*
X169375000Y-106950000D02*
X168375000Y-106950000D01*
X168375000Y-106950000D02*
X168375000Y-104450000D01*
X169375000Y-106950000D02*
X169375000Y-104450000D01*
X164502000Y-106728000D02*
X164256000Y-106974000D01*
X166600000Y-104630000D02*
X166389000Y-104841000D01*
X164250000Y-106570000D02*
X164051000Y-106769000D01*
X166394000Y-104425000D02*
X166148000Y-104671000D01*
X169375000Y-109450000D02*
X168375000Y-109450000D01*
X169375000Y-111950000D02*
X168375000Y-111950000D01*
X168375000Y-111950000D02*
X168375000Y-109450000D01*
X169375000Y-111950000D02*
X169375000Y-109450000D01*
X164502000Y-111728000D02*
X164256000Y-111974000D01*
X166600000Y-109630000D02*
X166389000Y-109841000D01*
X164250000Y-111570000D02*
X164051000Y-111769000D01*
X166394000Y-109425000D02*
X166148000Y-109671000D01*
X169375000Y-114450000D02*
X168375000Y-114450000D01*
X169375000Y-116950000D02*
X168375000Y-116950000D01*
X168375000Y-116950000D02*
X168375000Y-114450000D01*
X169375000Y-116950000D02*
X169375000Y-114450000D01*
X169435000Y-98139000D02*
X161215000Y-98139000D01*
X169435000Y-118260000D02*
X161215000Y-118260000D01*
X161215000Y-118260000D02*
X161215000Y-98139000D01*
X169435000Y-118260000D02*
X169435000Y-98139000D01*
X167375000Y-118260000D02*
X167375000Y-98139000D01*
X162475000Y-118260000D02*
X162475000Y-98139000D01*
X161875000Y-118260000D02*
X161875000Y-98139000D01*
X167005000Y-100700000D02*
G75*
G03*
X167005000Y-100700000I-1680000J0D01*
G01*
X167005000Y-105700000D02*
G75*
G03*
X167005000Y-105700000I-1680000J0D01*
G01*
X167005000Y-110700000D02*
G75*
G03*
X167005000Y-110700000I-1680000J0D01*
G01*
X163644489Y-115671493D02*
G75*
G03*
X164038000Y-116781000I1680511J-28507D01*
G01*
X164245266Y-116988063D02*
G75*
G03*
X166406000Y-116987000I1079734J1288063D01*
G01*
X166612078Y-116779908D02*
G75*
G03*
X166612000Y-114620000I-1287078J1079908D01*
G01*
X166404908Y-114412922D02*
G75*
G03*
X164245000Y-114413000I-1079908J-1287078D01*
G01*
X164038045Y-114620117D02*
G75*
G03*
X163645000Y-115700000I1286955J-1079883D01*
G01*
%TO.C,J1*%
X158730000Y-89000000D02*
X159230000Y-89500000D01*
X158730000Y-90000000D02*
X158730000Y-89000000D01*
X159230000Y-89500000D02*
X158730000Y-90000000D01*
X176170000Y-82090000D02*
X167810000Y-82090000D01*
X176170000Y-94410000D02*
X176170000Y-82090000D01*
X167810000Y-94410000D02*
X176170000Y-94410000D01*
X159450000Y-82090000D02*
X163710000Y-82090000D01*
X159450000Y-94410000D02*
X159450000Y-82090000D01*
X163710000Y-94410000D02*
X159450000Y-94410000D01*
D11*
%TO.C,U1*%
X143035000Y-91005000D02*
X143035000Y-90430000D01*
X148785000Y-91005000D02*
X148785000Y-90355000D01*
X148785000Y-80355000D02*
X148785000Y-81005000D01*
X143035000Y-80355000D02*
X143035000Y-81005000D01*
X143035000Y-91005000D02*
X148785000Y-91005000D01*
X143035000Y-80355000D02*
X148785000Y-80355000D01*
X143035000Y-90430000D02*
X141435000Y-90430000D01*
D10*
%TO.C,J5*%
X117280000Y-111335000D02*
X117280000Y-106135000D01*
X122420000Y-111335000D02*
X117280000Y-111335000D01*
X125020000Y-106135000D02*
X117280000Y-106135000D01*
X122420000Y-111335000D02*
X122420000Y-108735000D01*
X122420000Y-108735000D02*
X125020000Y-108735000D01*
X125020000Y-108735000D02*
X125020000Y-106135000D01*
X123690000Y-111335000D02*
X125020000Y-111335000D01*
X125020000Y-111335000D02*
X125020000Y-110005000D01*
%TO.C,TP2*%
D11*
X141061904Y-81152380D02*
X140490476Y-81152380D01*
X140776190Y-82152380D02*
X140776190Y-81152380D01*
X140157142Y-82152380D02*
X140157142Y-81152380D01*
X139776190Y-81152380D01*
X139680952Y-81200000D01*
X139633333Y-81247619D01*
X139585714Y-81342857D01*
X139585714Y-81485714D01*
X139633333Y-81580952D01*
X139680952Y-81628571D01*
X139776190Y-81676190D01*
X140157142Y-81676190D01*
X139204761Y-81247619D02*
X139157142Y-81200000D01*
X139061904Y-81152380D01*
X138823809Y-81152380D01*
X138728571Y-81200000D01*
X138680952Y-81247619D01*
X138633333Y-81342857D01*
X138633333Y-81438095D01*
X138680952Y-81580952D01*
X139252380Y-82152380D01*
X138633333Y-82152380D01*
%TO.C,TP1*%
X147061904Y-93852380D02*
X146490476Y-93852380D01*
X146776190Y-94852380D02*
X146776190Y-93852380D01*
X146157142Y-94852380D02*
X146157142Y-93852380D01*
X145776190Y-93852380D01*
X145680952Y-93900000D01*
X145633333Y-93947619D01*
X145585714Y-94042857D01*
X145585714Y-94185714D01*
X145633333Y-94280952D01*
X145680952Y-94328571D01*
X145776190Y-94376190D01*
X146157142Y-94376190D01*
X144633333Y-94852380D02*
X145204761Y-94852380D01*
X144919047Y-94852380D02*
X144919047Y-93852380D01*
X145014285Y-93995238D01*
X145109523Y-94090476D01*
X145204761Y-94138095D01*
%TO.C,J6*%
X109798333Y-94872380D02*
X109798333Y-95586666D01*
X109845952Y-95729523D01*
X109941190Y-95824761D01*
X110084047Y-95872380D01*
X110179285Y-95872380D01*
X108893571Y-94872380D02*
X109084047Y-94872380D01*
X109179285Y-94920000D01*
X109226904Y-94967619D01*
X109322142Y-95110476D01*
X109369761Y-95300952D01*
X109369761Y-95681904D01*
X109322142Y-95777142D01*
X109274523Y-95824761D01*
X109179285Y-95872380D01*
X108988809Y-95872380D01*
X108893571Y-95824761D01*
X108845952Y-95777142D01*
X108798333Y-95681904D01*
X108798333Y-95443809D01*
X108845952Y-95348571D01*
X108893571Y-95300952D01*
X108988809Y-95253333D01*
X109179285Y-95253333D01*
X109274523Y-95300952D01*
X109322142Y-95348571D01*
X109369761Y-95443809D01*
%TO.C,J7*%
X102073333Y-113552380D02*
X102073333Y-114266666D01*
X102120952Y-114409523D01*
X102216190Y-114504761D01*
X102359047Y-114552380D01*
X102454285Y-114552380D01*
X101692380Y-113552380D02*
X101025714Y-113552380D01*
X101454285Y-114552380D01*
%TO.C,U3*%
X153731904Y-78802380D02*
X153731904Y-79611904D01*
X153684285Y-79707142D01*
X153636666Y-79754761D01*
X153541428Y-79802380D01*
X153350952Y-79802380D01*
X153255714Y-79754761D01*
X153208095Y-79707142D01*
X153160476Y-79611904D01*
X153160476Y-78802380D01*
X152779523Y-78802380D02*
X152160476Y-78802380D01*
X152493809Y-79183333D01*
X152350952Y-79183333D01*
X152255714Y-79230952D01*
X152208095Y-79278571D01*
X152160476Y-79373809D01*
X152160476Y-79611904D01*
X152208095Y-79707142D01*
X152255714Y-79754761D01*
X152350952Y-79802380D01*
X152636666Y-79802380D01*
X152731904Y-79754761D01*
X152779523Y-79707142D01*
%TO.C,J2*%
X161637333Y-129256380D02*
X161637333Y-129970666D01*
X161684952Y-130113523D01*
X161780190Y-130208761D01*
X161923047Y-130256380D01*
X162018285Y-130256380D01*
X161208761Y-129351619D02*
X161161142Y-129304000D01*
X161065904Y-129256380D01*
X160827809Y-129256380D01*
X160732571Y-129304000D01*
X160684952Y-129351619D01*
X160637333Y-129446857D01*
X160637333Y-129542095D01*
X160684952Y-129684952D01*
X161256380Y-130256380D01*
X160637333Y-130256380D01*
%TO.C,J4*%
X161115333Y-119340380D02*
X161115333Y-120054666D01*
X161162952Y-120197523D01*
X161258190Y-120292761D01*
X161401047Y-120340380D01*
X161496285Y-120340380D01*
X160210571Y-119673714D02*
X160210571Y-120340380D01*
X160448666Y-119292761D02*
X160686761Y-120007047D01*
X160067714Y-120007047D01*
%TO.C,J1*%
X160353333Y-94956380D02*
X160353333Y-95670666D01*
X160400952Y-95813523D01*
X160496190Y-95908761D01*
X160639047Y-95956380D01*
X160734285Y-95956380D01*
X159353333Y-95956380D02*
X159924761Y-95956380D01*
X159639047Y-95956380D02*
X159639047Y-94956380D01*
X159734285Y-95099238D01*
X159829523Y-95194476D01*
X159924761Y-95242095D01*
%TO.C,U1*%
X146821904Y-78907380D02*
X146821904Y-79716904D01*
X146774285Y-79812142D01*
X146726666Y-79859761D01*
X146631428Y-79907380D01*
X146440952Y-79907380D01*
X146345714Y-79859761D01*
X146298095Y-79812142D01*
X146250476Y-79716904D01*
X146250476Y-78907380D01*
X145250476Y-79907380D02*
X145821904Y-79907380D01*
X145536190Y-79907380D02*
X145536190Y-78907380D01*
X145631428Y-79050238D01*
X145726666Y-79145476D01*
X145821904Y-79193095D01*
%TO.C,J5*%
X126443333Y-108182380D02*
X126443333Y-108896666D01*
X126490952Y-109039523D01*
X126586190Y-109134761D01*
X126729047Y-109182380D01*
X126824285Y-109182380D01*
X125490952Y-108182380D02*
X125967142Y-108182380D01*
X126014761Y-108658571D01*
X125967142Y-108610952D01*
X125871904Y-108563333D01*
X125633809Y-108563333D01*
X125538571Y-108610952D01*
X125490952Y-108658571D01*
X125443333Y-108753809D01*
X125443333Y-108991904D01*
X125490952Y-109087142D01*
X125538571Y-109134761D01*
X125633809Y-109182380D01*
X125871904Y-109182380D01*
X125967142Y-109134761D01*
X126014761Y-109087142D01*
%TD*%
M02*
