%TF.GenerationSoftware,KiCad,Pcbnew,5.1.7*%
%TF.CreationDate,2020-10-25T11:14:51+01:00*%
%TF.ProjectId,livello_serbatoio_definitiva,6c697665-6c6c-46f5-9f73-65726261746f,rev?*%
%TF.SameCoordinates,Original*%
%TF.FileFunction,Legend,Top*%
%TF.FilePolarity,Positive*%
%FSLAX46Y46*%
G04 Gerber Fmt 4.6, Leading zero omitted, Abs format (unit mm)*
G04 Created by KiCad (PCBNEW 5.1.7) date 2020-10-25 11:14:51*
%MOMM*%
%LPD*%
G01*
G04 APERTURE LIST*
%ADD10C,0.120000*%
%ADD11C,0.150000*%
%ADD12C,0.125000*%
%ADD13C,0.100000*%
G04 APERTURE END LIST*
D10*
X146900000Y-80000000D02*
X145500000Y-80000000D01*
X141250000Y-80050000D02*
X142650000Y-80050000D01*
X94000000Y-80000000D02*
X138450000Y-80000000D01*
X151500000Y-80000000D02*
X149650000Y-80000000D01*
X89000000Y-116000000D02*
X90900000Y-116000000D01*
X93970000Y-116000000D02*
X93700000Y-116000000D01*
X169000000Y-116000000D02*
X168750000Y-116000000D01*
X160500000Y-130000000D02*
X160500000Y-119000000D01*
X168750000Y-130000000D02*
X160500000Y-130000000D01*
X168750000Y-119000000D02*
X168750000Y-130000000D01*
X160500000Y-119000000D02*
X168750000Y-119000000D01*
X160500000Y-118500000D02*
X160500000Y-107500000D01*
X168750000Y-118500000D02*
X160500000Y-118500000D01*
X168750000Y-107500000D02*
X168750000Y-118500000D01*
X160500000Y-107500000D02*
X168750000Y-107500000D01*
D11*
X164480476Y-128012380D02*
X164004285Y-128012380D01*
X164004285Y-127012380D01*
X164813809Y-127631428D02*
X165575714Y-127631428D01*
X164302380Y-125628571D02*
X164445238Y-125676190D01*
X164492857Y-125723809D01*
X164540476Y-125819047D01*
X164540476Y-125961904D01*
X164492857Y-126057142D01*
X164445238Y-126104761D01*
X164350000Y-126152380D01*
X163969047Y-126152380D01*
X163969047Y-125152380D01*
X164302380Y-125152380D01*
X164397619Y-125200000D01*
X164445238Y-125247619D01*
X164492857Y-125342857D01*
X164492857Y-125438095D01*
X164445238Y-125533333D01*
X164397619Y-125580952D01*
X164302380Y-125628571D01*
X163969047Y-125628571D01*
X164969047Y-125771428D02*
X165730952Y-125771428D01*
X164242380Y-123558571D02*
X164385238Y-123606190D01*
X164432857Y-123653809D01*
X164480476Y-123749047D01*
X164480476Y-123891904D01*
X164432857Y-123987142D01*
X164385238Y-124034761D01*
X164290000Y-124082380D01*
X163909047Y-124082380D01*
X163909047Y-123082380D01*
X164242380Y-123082380D01*
X164337619Y-123130000D01*
X164385238Y-123177619D01*
X164432857Y-123272857D01*
X164432857Y-123368095D01*
X164385238Y-123463333D01*
X164337619Y-123510952D01*
X164242380Y-123558571D01*
X163909047Y-123558571D01*
X164909047Y-123701428D02*
X165670952Y-123701428D01*
X165290000Y-124082380D02*
X165290000Y-123320476D01*
X164570476Y-121902380D02*
X164094285Y-121902380D01*
X164094285Y-120902380D01*
X164903809Y-121521428D02*
X165665714Y-121521428D01*
X165284761Y-121902380D02*
X165284761Y-121140476D01*
X163974285Y-110131428D02*
X164736190Y-110131428D01*
X164355238Y-110512380D02*
X164355238Y-109750476D01*
X165688571Y-109512380D02*
X165212380Y-109512380D01*
X165164761Y-109988571D01*
X165212380Y-109940952D01*
X165307619Y-109893333D01*
X165545714Y-109893333D01*
X165640952Y-109940952D01*
X165688571Y-109988571D01*
X165736190Y-110083809D01*
X165736190Y-110321904D01*
X165688571Y-110417142D01*
X165640952Y-110464761D01*
X165545714Y-110512380D01*
X165307619Y-110512380D01*
X165212380Y-110464761D01*
X165164761Y-110417142D01*
X166021904Y-109512380D02*
X166355238Y-110512380D01*
X166688571Y-109512380D01*
X163976190Y-111622380D02*
X164547619Y-111622380D01*
X164261904Y-112622380D02*
X164261904Y-111622380D01*
X165452380Y-112622380D02*
X165119047Y-112146190D01*
X164880952Y-112622380D02*
X164880952Y-111622380D01*
X165261904Y-111622380D01*
X165357142Y-111670000D01*
X165404761Y-111717619D01*
X165452380Y-111812857D01*
X165452380Y-111955714D01*
X165404761Y-112050952D01*
X165357142Y-112098571D01*
X165261904Y-112146190D01*
X164880952Y-112146190D01*
X165880952Y-112622380D02*
X165880952Y-111622380D01*
X166880952Y-111670000D02*
X166785714Y-111622380D01*
X166642857Y-111622380D01*
X166500000Y-111670000D01*
X166404761Y-111765238D01*
X166357142Y-111860476D01*
X166309523Y-112050952D01*
X166309523Y-112193809D01*
X166357142Y-112384285D01*
X166404761Y-112479523D01*
X166500000Y-112574761D01*
X166642857Y-112622380D01*
X166738095Y-112622380D01*
X166880952Y-112574761D01*
X166928571Y-112527142D01*
X166928571Y-112193809D01*
X166738095Y-112193809D01*
X164128095Y-114088571D02*
X164461428Y-114088571D01*
X164604285Y-114612380D02*
X164128095Y-114612380D01*
X164128095Y-113612380D01*
X164604285Y-113612380D01*
X165604285Y-114517142D02*
X165556666Y-114564761D01*
X165413809Y-114612380D01*
X165318571Y-114612380D01*
X165175714Y-114564761D01*
X165080476Y-114469523D01*
X165032857Y-114374285D01*
X164985238Y-114183809D01*
X164985238Y-114040952D01*
X165032857Y-113850476D01*
X165080476Y-113755238D01*
X165175714Y-113660000D01*
X165318571Y-113612380D01*
X165413809Y-113612380D01*
X165556666Y-113660000D01*
X165604285Y-113707619D01*
X166032857Y-114612380D02*
X166032857Y-113612380D01*
X166032857Y-114088571D02*
X166604285Y-114088571D01*
X166604285Y-114612380D02*
X166604285Y-113612380D01*
X167270952Y-113612380D02*
X167461428Y-113612380D01*
X167556666Y-113660000D01*
X167651904Y-113755238D01*
X167699523Y-113945714D01*
X167699523Y-114279047D01*
X167651904Y-114469523D01*
X167556666Y-114564761D01*
X167461428Y-114612380D01*
X167270952Y-114612380D01*
X167175714Y-114564761D01*
X167080476Y-114469523D01*
X167032857Y-114279047D01*
X167032857Y-113945714D01*
X167080476Y-113755238D01*
X167175714Y-113660000D01*
X167270952Y-113612380D01*
X164638095Y-115550000D02*
X164542857Y-115502380D01*
X164400000Y-115502380D01*
X164257142Y-115550000D01*
X164161904Y-115645238D01*
X164114285Y-115740476D01*
X164066666Y-115930952D01*
X164066666Y-116073809D01*
X164114285Y-116264285D01*
X164161904Y-116359523D01*
X164257142Y-116454761D01*
X164400000Y-116502380D01*
X164495238Y-116502380D01*
X164638095Y-116454761D01*
X164685714Y-116407142D01*
X164685714Y-116073809D01*
X164495238Y-116073809D01*
X165114285Y-116502380D02*
X165114285Y-115502380D01*
X165685714Y-116502380D01*
X165685714Y-115502380D01*
X166161904Y-116502380D02*
X166161904Y-115502380D01*
X166400000Y-115502380D01*
X166542857Y-115550000D01*
X166638095Y-115645238D01*
X166685714Y-115740476D01*
X166733333Y-115930952D01*
X166733333Y-116073809D01*
X166685714Y-116264285D01*
X166638095Y-116359523D01*
X166542857Y-116454761D01*
X166400000Y-116502380D01*
X166161904Y-116502380D01*
X164066666Y-119668571D02*
X164209523Y-119716190D01*
X164257142Y-119763809D01*
X164304761Y-119859047D01*
X164304761Y-120001904D01*
X164257142Y-120097142D01*
X164209523Y-120144761D01*
X164114285Y-120192380D01*
X163733333Y-120192380D01*
X163733333Y-119192380D01*
X164066666Y-119192380D01*
X164161904Y-119240000D01*
X164209523Y-119287619D01*
X164257142Y-119382857D01*
X164257142Y-119478095D01*
X164209523Y-119573333D01*
X164161904Y-119620952D01*
X164066666Y-119668571D01*
X163733333Y-119668571D01*
X164590476Y-119192380D02*
X165161904Y-119192380D01*
X164876190Y-120192380D02*
X164876190Y-119192380D01*
X165495238Y-120192380D02*
X165495238Y-119192380D01*
X166066666Y-120192380D01*
X166066666Y-119192380D01*
X163071904Y-108764761D02*
X163214761Y-108812380D01*
X163452857Y-108812380D01*
X163548095Y-108764761D01*
X163595714Y-108717142D01*
X163643333Y-108621904D01*
X163643333Y-108526666D01*
X163595714Y-108431428D01*
X163548095Y-108383809D01*
X163452857Y-108336190D01*
X163262380Y-108288571D01*
X163167142Y-108240952D01*
X163119523Y-108193333D01*
X163071904Y-108098095D01*
X163071904Y-108002857D01*
X163119523Y-107907619D01*
X163167142Y-107860000D01*
X163262380Y-107812380D01*
X163500476Y-107812380D01*
X163643333Y-107860000D01*
X164071904Y-108288571D02*
X164405238Y-108288571D01*
X164548095Y-108812380D02*
X164071904Y-108812380D01*
X164071904Y-107812380D01*
X164548095Y-107812380D01*
X164976666Y-108812380D02*
X164976666Y-107812380D01*
X165548095Y-108812380D01*
X165548095Y-107812380D01*
X165976666Y-108764761D02*
X166119523Y-108812380D01*
X166357619Y-108812380D01*
X166452857Y-108764761D01*
X166500476Y-108717142D01*
X166548095Y-108621904D01*
X166548095Y-108526666D01*
X166500476Y-108431428D01*
X166452857Y-108383809D01*
X166357619Y-108336190D01*
X166167142Y-108288571D01*
X166071904Y-108240952D01*
X166024285Y-108193333D01*
X165976666Y-108098095D01*
X165976666Y-108002857D01*
X166024285Y-107907619D01*
X166071904Y-107860000D01*
X166167142Y-107812380D01*
X166405238Y-107812380D01*
X166548095Y-107860000D01*
D12*
X149609047Y-136590000D02*
X149561428Y-136566190D01*
X149490000Y-136566190D01*
X149418571Y-136590000D01*
X149370952Y-136637619D01*
X149347142Y-136685238D01*
X149323333Y-136780476D01*
X149323333Y-136851904D01*
X149347142Y-136947142D01*
X149370952Y-136994761D01*
X149418571Y-137042380D01*
X149490000Y-137066190D01*
X149537619Y-137066190D01*
X149609047Y-137042380D01*
X149632857Y-137018571D01*
X149632857Y-136851904D01*
X149537619Y-136851904D01*
X149847142Y-137066190D02*
X149847142Y-136566190D01*
X150132857Y-137066190D01*
X150132857Y-136566190D01*
X150370952Y-137066190D02*
X150370952Y-136566190D01*
X150490000Y-136566190D01*
X150561428Y-136590000D01*
X150609047Y-136637619D01*
X150632857Y-136685238D01*
X150656666Y-136780476D01*
X150656666Y-136851904D01*
X150632857Y-136947142D01*
X150609047Y-136994761D01*
X150561428Y-137042380D01*
X150490000Y-137066190D01*
X150370952Y-137066190D01*
X151744285Y-137036190D02*
X151744285Y-136536190D01*
X151910952Y-136893333D01*
X152077619Y-136536190D01*
X152077619Y-137036190D01*
X152410952Y-136536190D02*
X152506190Y-136536190D01*
X152553809Y-136560000D01*
X152601428Y-136607619D01*
X152625238Y-136702857D01*
X152625238Y-136869523D01*
X152601428Y-136964761D01*
X152553809Y-137012380D01*
X152506190Y-137036190D01*
X152410952Y-137036190D01*
X152363333Y-137012380D01*
X152315714Y-136964761D01*
X152291904Y-136869523D01*
X152291904Y-136702857D01*
X152315714Y-136607619D01*
X152363333Y-136560000D01*
X152410952Y-136536190D01*
X152815714Y-137012380D02*
X152887142Y-137036190D01*
X153006190Y-137036190D01*
X153053809Y-137012380D01*
X153077619Y-136988571D01*
X153101428Y-136940952D01*
X153101428Y-136893333D01*
X153077619Y-136845714D01*
X153053809Y-136821904D01*
X153006190Y-136798095D01*
X152910952Y-136774285D01*
X152863333Y-136750476D01*
X152839523Y-136726666D01*
X152815714Y-136679047D01*
X152815714Y-136631428D01*
X152839523Y-136583809D01*
X152863333Y-136560000D01*
X152910952Y-136536190D01*
X153030000Y-136536190D01*
X153101428Y-136560000D01*
X153315714Y-137036190D02*
X153315714Y-136536190D01*
X149626190Y-129776190D02*
X149459523Y-129538095D01*
X149340476Y-129776190D02*
X149340476Y-129276190D01*
X149530952Y-129276190D01*
X149578571Y-129300000D01*
X149602380Y-129323809D01*
X149626190Y-129371428D01*
X149626190Y-129442857D01*
X149602380Y-129490476D01*
X149578571Y-129514285D01*
X149530952Y-129538095D01*
X149340476Y-129538095D01*
X149816666Y-129752380D02*
X149888095Y-129776190D01*
X150007142Y-129776190D01*
X150054761Y-129752380D01*
X150078571Y-129728571D01*
X150102380Y-129680952D01*
X150102380Y-129633333D01*
X150078571Y-129585714D01*
X150054761Y-129561904D01*
X150007142Y-129538095D01*
X149911904Y-129514285D01*
X149864285Y-129490476D01*
X149840476Y-129466666D01*
X149816666Y-129419047D01*
X149816666Y-129371428D01*
X149840476Y-129323809D01*
X149864285Y-129300000D01*
X149911904Y-129276190D01*
X150030952Y-129276190D01*
X150102380Y-129300000D01*
X150245238Y-129276190D02*
X150530952Y-129276190D01*
X150388095Y-129776190D02*
X150388095Y-129276190D01*
X151857142Y-129752380D02*
X151928571Y-129776190D01*
X152047619Y-129776190D01*
X152095238Y-129752380D01*
X152119047Y-129728571D01*
X152142857Y-129680952D01*
X152142857Y-129633333D01*
X152119047Y-129585714D01*
X152095238Y-129561904D01*
X152047619Y-129538095D01*
X151952380Y-129514285D01*
X151904761Y-129490476D01*
X151880952Y-129466666D01*
X151857142Y-129419047D01*
X151857142Y-129371428D01*
X151880952Y-129323809D01*
X151904761Y-129300000D01*
X151952380Y-129276190D01*
X152071428Y-129276190D01*
X152142857Y-129300000D01*
X152642857Y-129728571D02*
X152619047Y-129752380D01*
X152547619Y-129776190D01*
X152500000Y-129776190D01*
X152428571Y-129752380D01*
X152380952Y-129704761D01*
X152357142Y-129657142D01*
X152333333Y-129561904D01*
X152333333Y-129490476D01*
X152357142Y-129395238D01*
X152380952Y-129347619D01*
X152428571Y-129300000D01*
X152500000Y-129276190D01*
X152547619Y-129276190D01*
X152619047Y-129300000D01*
X152642857Y-129323809D01*
X152857142Y-129776190D02*
X152857142Y-129276190D01*
X153142857Y-129776190D02*
X152928571Y-129490476D01*
X153142857Y-129276190D02*
X152857142Y-129561904D01*
X154337142Y-136845714D02*
X154718095Y-136845714D01*
X154527619Y-137036190D02*
X154527619Y-136655238D01*
X155194285Y-136536190D02*
X154956190Y-136536190D01*
X154932380Y-136774285D01*
X154956190Y-136750476D01*
X155003809Y-136726666D01*
X155122857Y-136726666D01*
X155170476Y-136750476D01*
X155194285Y-136774285D01*
X155218095Y-136821904D01*
X155218095Y-136940952D01*
X155194285Y-136988571D01*
X155170476Y-137012380D01*
X155122857Y-137036190D01*
X155003809Y-137036190D01*
X154956190Y-137012380D01*
X154932380Y-136988571D01*
X155360952Y-136536190D02*
X155527619Y-137036190D01*
X155694285Y-136536190D01*
X154194285Y-129776190D02*
X154194285Y-129276190D01*
X154360952Y-129633333D01*
X154527619Y-129276190D01*
X154527619Y-129776190D01*
X154765714Y-129776190D02*
X154765714Y-129276190D01*
X154980000Y-129752380D02*
X155051428Y-129776190D01*
X155170476Y-129776190D01*
X155218095Y-129752380D01*
X155241904Y-129728571D01*
X155265714Y-129680952D01*
X155265714Y-129633333D01*
X155241904Y-129585714D01*
X155218095Y-129561904D01*
X155170476Y-129538095D01*
X155075238Y-129514285D01*
X155027619Y-129490476D01*
X155003809Y-129466666D01*
X154980000Y-129419047D01*
X154980000Y-129371428D01*
X155003809Y-129323809D01*
X155027619Y-129300000D01*
X155075238Y-129276190D01*
X155194285Y-129276190D01*
X155265714Y-129300000D01*
X155575238Y-129276190D02*
X155670476Y-129276190D01*
X155718095Y-129300000D01*
X155765714Y-129347619D01*
X155789523Y-129442857D01*
X155789523Y-129609523D01*
X155765714Y-129704761D01*
X155718095Y-129752380D01*
X155670476Y-129776190D01*
X155575238Y-129776190D01*
X155527619Y-129752380D01*
X155480000Y-129704761D01*
X155456190Y-129609523D01*
X155456190Y-129442857D01*
X155480000Y-129347619D01*
X155527619Y-129300000D01*
X155575238Y-129276190D01*
D11*
X157165714Y-130442380D02*
X156594285Y-130442380D01*
X156880000Y-130442380D02*
X156880000Y-129442380D01*
X156784761Y-129585238D01*
X156689523Y-129680476D01*
X156594285Y-129728095D01*
X150439047Y-73931428D02*
X151200952Y-73931428D01*
X150820000Y-74312380D02*
X150820000Y-73550476D01*
X138409047Y-73961428D02*
X139170952Y-73961428D01*
X138790000Y-74342380D02*
X138790000Y-73580476D01*
X144429047Y-73891428D02*
X145190952Y-73891428D01*
X144810000Y-74272380D02*
X144810000Y-73510476D01*
X110739047Y-74231428D02*
X111500952Y-74231428D01*
X101779047Y-74191428D02*
X102540952Y-74191428D01*
X102160000Y-74572380D02*
X102160000Y-73810476D01*
D10*
X93970000Y-116000000D02*
X160500000Y-116000000D01*
D11*
X112954642Y-73478571D02*
X112954642Y-71978571D01*
X113454642Y-73050000D01*
X113954642Y-71978571D01*
X113954642Y-73478571D01*
X114883214Y-73478571D02*
X114740357Y-73407142D01*
X114668928Y-73335714D01*
X114597500Y-73192857D01*
X114597500Y-72764285D01*
X114668928Y-72621428D01*
X114740357Y-72550000D01*
X114883214Y-72478571D01*
X115097500Y-72478571D01*
X115240357Y-72550000D01*
X115311785Y-72621428D01*
X115383214Y-72764285D01*
X115383214Y-73192857D01*
X115311785Y-73335714D01*
X115240357Y-73407142D01*
X115097500Y-73478571D01*
X114883214Y-73478571D01*
X116026071Y-72478571D02*
X116026071Y-73478571D01*
X116026071Y-72621428D02*
X116097500Y-72550000D01*
X116240357Y-72478571D01*
X116454642Y-72478571D01*
X116597500Y-72550000D01*
X116668928Y-72692857D01*
X116668928Y-73478571D01*
X117383214Y-73478571D02*
X117383214Y-72478571D01*
X117383214Y-71978571D02*
X117311785Y-72050000D01*
X117383214Y-72121428D01*
X117454642Y-72050000D01*
X117383214Y-71978571D01*
X117383214Y-72121428D01*
X117883214Y-72478571D02*
X118454642Y-72478571D01*
X118097500Y-71978571D02*
X118097500Y-73264285D01*
X118168928Y-73407142D01*
X118311785Y-73478571D01*
X118454642Y-73478571D01*
X119168928Y-73478571D02*
X119026071Y-73407142D01*
X118954642Y-73335714D01*
X118883214Y-73192857D01*
X118883214Y-72764285D01*
X118954642Y-72621428D01*
X119026071Y-72550000D01*
X119168928Y-72478571D01*
X119383214Y-72478571D01*
X119526071Y-72550000D01*
X119597500Y-72621428D01*
X119668928Y-72764285D01*
X119668928Y-73192857D01*
X119597500Y-73335714D01*
X119526071Y-73407142D01*
X119383214Y-73478571D01*
X119168928Y-73478571D01*
X120311785Y-73478571D02*
X120311785Y-72478571D01*
X120311785Y-72764285D02*
X120383214Y-72621428D01*
X120454642Y-72550000D01*
X120597500Y-72478571D01*
X120740357Y-72478571D01*
X122311785Y-73407142D02*
X122526071Y-73478571D01*
X122883214Y-73478571D01*
X123026071Y-73407142D01*
X123097500Y-73335714D01*
X123168928Y-73192857D01*
X123168928Y-73050000D01*
X123097500Y-72907142D01*
X123026071Y-72835714D01*
X122883214Y-72764285D01*
X122597500Y-72692857D01*
X122454642Y-72621428D01*
X122383214Y-72550000D01*
X122311785Y-72407142D01*
X122311785Y-72264285D01*
X122383214Y-72121428D01*
X122454642Y-72050000D01*
X122597500Y-71978571D01*
X122954642Y-71978571D01*
X123168928Y-72050000D01*
X124383214Y-73407142D02*
X124240357Y-73478571D01*
X123954642Y-73478571D01*
X123811785Y-73407142D01*
X123740357Y-73264285D01*
X123740357Y-72692857D01*
X123811785Y-72550000D01*
X123954642Y-72478571D01*
X124240357Y-72478571D01*
X124383214Y-72550000D01*
X124454642Y-72692857D01*
X124454642Y-72835714D01*
X123740357Y-72978571D01*
X125097500Y-73478571D02*
X125097500Y-72478571D01*
X125097500Y-72764285D02*
X125168928Y-72621428D01*
X125240357Y-72550000D01*
X125383214Y-72478571D01*
X125526071Y-72478571D01*
X126026071Y-73478571D02*
X126026071Y-71978571D01*
X126026071Y-72550000D02*
X126168928Y-72478571D01*
X126454642Y-72478571D01*
X126597500Y-72550000D01*
X126668928Y-72621428D01*
X126740357Y-72764285D01*
X126740357Y-73192857D01*
X126668928Y-73335714D01*
X126597500Y-73407142D01*
X126454642Y-73478571D01*
X126168928Y-73478571D01*
X126026071Y-73407142D01*
X128026071Y-73478571D02*
X128026071Y-72692857D01*
X127954642Y-72550000D01*
X127811785Y-72478571D01*
X127526071Y-72478571D01*
X127383214Y-72550000D01*
X128026071Y-73407142D02*
X127883214Y-73478571D01*
X127526071Y-73478571D01*
X127383214Y-73407142D01*
X127311785Y-73264285D01*
X127311785Y-73121428D01*
X127383214Y-72978571D01*
X127526071Y-72907142D01*
X127883214Y-72907142D01*
X128026071Y-72835714D01*
X128526071Y-72478571D02*
X129097500Y-72478571D01*
X128740357Y-71978571D02*
X128740357Y-73264285D01*
X128811785Y-73407142D01*
X128954642Y-73478571D01*
X129097500Y-73478571D01*
X129811785Y-73478571D02*
X129668928Y-73407142D01*
X129597500Y-73335714D01*
X129526071Y-73192857D01*
X129526071Y-72764285D01*
X129597500Y-72621428D01*
X129668928Y-72550000D01*
X129811785Y-72478571D01*
X130026071Y-72478571D01*
X130168928Y-72550000D01*
X130240357Y-72621428D01*
X130311785Y-72764285D01*
X130311785Y-73192857D01*
X130240357Y-73335714D01*
X130168928Y-73407142D01*
X130026071Y-73478571D01*
X129811785Y-73478571D01*
X130954642Y-73478571D02*
X130954642Y-72478571D01*
X130954642Y-71978571D02*
X130883214Y-72050000D01*
X130954642Y-72121428D01*
X131026071Y-72050000D01*
X130954642Y-71978571D01*
X130954642Y-72121428D01*
X131883214Y-73478571D02*
X131740357Y-73407142D01*
X131668928Y-73335714D01*
X131597500Y-73192857D01*
X131597500Y-72764285D01*
X131668928Y-72621428D01*
X131740357Y-72550000D01*
X131883214Y-72478571D01*
X132097500Y-72478571D01*
X132240357Y-72550000D01*
X132311785Y-72621428D01*
X132383214Y-72764285D01*
X132383214Y-73192857D01*
X132311785Y-73335714D01*
X132240357Y-73407142D01*
X132097500Y-73478571D01*
X131883214Y-73478571D01*
X112811785Y-74878571D02*
X113168928Y-75878571D01*
X113526071Y-74878571D01*
X114883214Y-75878571D02*
X114026071Y-75878571D01*
X114454642Y-75878571D02*
X114454642Y-74378571D01*
X114311785Y-74592857D01*
X114168928Y-74735714D01*
X114026071Y-74807142D01*
X115526071Y-75735714D02*
X115597500Y-75807142D01*
X115526071Y-75878571D01*
X115454642Y-75807142D01*
X115526071Y-75735714D01*
X115526071Y-75878571D01*
X116526071Y-74378571D02*
X116668928Y-74378571D01*
X116811785Y-74450000D01*
X116883214Y-74521428D01*
X116954642Y-74664285D01*
X117026071Y-74950000D01*
X117026071Y-75307142D01*
X116954642Y-75592857D01*
X116883214Y-75735714D01*
X116811785Y-75807142D01*
X116668928Y-75878571D01*
X116526071Y-75878571D01*
X116383214Y-75807142D01*
X116311785Y-75735714D01*
X116240357Y-75592857D01*
X116168928Y-75307142D01*
X116168928Y-74950000D01*
X116240357Y-74664285D01*
X116311785Y-74521428D01*
X116383214Y-74450000D01*
X116526071Y-74378571D01*
X103895238Y-69857142D02*
X103847619Y-69904761D01*
X103704761Y-69952380D01*
X103609523Y-69952380D01*
X103466666Y-69904761D01*
X103371428Y-69809523D01*
X103323809Y-69714285D01*
X103276190Y-69523809D01*
X103276190Y-69380952D01*
X103323809Y-69190476D01*
X103371428Y-69095238D01*
X103466666Y-69000000D01*
X103609523Y-68952380D01*
X103704761Y-68952380D01*
X103847619Y-69000000D01*
X103895238Y-69047619D01*
X104514285Y-68952380D02*
X104704761Y-68952380D01*
X104800000Y-69000000D01*
X104895238Y-69095238D01*
X104942857Y-69285714D01*
X104942857Y-69619047D01*
X104895238Y-69809523D01*
X104800000Y-69904761D01*
X104704761Y-69952380D01*
X104514285Y-69952380D01*
X104419047Y-69904761D01*
X104323809Y-69809523D01*
X104276190Y-69619047D01*
X104276190Y-69285714D01*
X104323809Y-69095238D01*
X104419047Y-69000000D01*
X104514285Y-68952380D01*
X105371428Y-69952380D02*
X105371428Y-68952380D01*
X105942857Y-69952380D01*
X105942857Y-68952380D01*
X106276190Y-68952380D02*
X106847619Y-68952380D01*
X106561904Y-69952380D02*
X106561904Y-68952380D01*
X107752380Y-69952380D02*
X107419047Y-69476190D01*
X107180952Y-69952380D02*
X107180952Y-68952380D01*
X107561904Y-68952380D01*
X107657142Y-69000000D01*
X107704761Y-69047619D01*
X107752380Y-69142857D01*
X107752380Y-69285714D01*
X107704761Y-69380952D01*
X107657142Y-69428571D01*
X107561904Y-69476190D01*
X107180952Y-69476190D01*
X108133333Y-69666666D02*
X108609523Y-69666666D01*
X108038095Y-69952380D02*
X108371428Y-68952380D01*
X108704761Y-69952380D01*
X108990476Y-69904761D02*
X109133333Y-69952380D01*
X109371428Y-69952380D01*
X109466666Y-69904761D01*
X109514285Y-69857142D01*
X109561904Y-69761904D01*
X109561904Y-69666666D01*
X109514285Y-69571428D01*
X109466666Y-69523809D01*
X109371428Y-69476190D01*
X109180952Y-69428571D01*
X109085714Y-69380952D01*
X109038095Y-69333333D01*
X108990476Y-69238095D01*
X108990476Y-69142857D01*
X109038095Y-69047619D01*
X109085714Y-69000000D01*
X109180952Y-68952380D01*
X109419047Y-68952380D01*
X109561904Y-69000000D01*
X109847619Y-68952380D02*
X110419047Y-68952380D01*
X110133333Y-69952380D02*
X110133333Y-68952380D01*
X111585714Y-129152380D02*
X111014285Y-129152380D01*
X111300000Y-129152380D02*
X111300000Y-128152380D01*
X111204761Y-128295238D01*
X111109523Y-128390476D01*
X111014285Y-128438095D01*
D10*
X169000000Y-80000000D02*
X169000000Y-96500000D01*
X151500000Y-80000000D02*
X169000000Y-80000000D01*
D11*
X131219523Y-137642380D02*
X130648095Y-137642380D01*
X130933809Y-137642380D02*
X130933809Y-136642380D01*
X130838571Y-136785238D01*
X130743333Y-136880476D01*
X130648095Y-136928095D01*
X132076666Y-136642380D02*
X131886190Y-136642380D01*
X131790952Y-136690000D01*
X131743333Y-136737619D01*
X131648095Y-136880476D01*
X131600476Y-137070952D01*
X131600476Y-137451904D01*
X131648095Y-137547142D01*
X131695714Y-137594761D01*
X131790952Y-137642380D01*
X131981428Y-137642380D01*
X132076666Y-137594761D01*
X132124285Y-137547142D01*
X132171904Y-137451904D01*
X132171904Y-137213809D01*
X132124285Y-137118571D01*
X132076666Y-137070952D01*
X131981428Y-137023333D01*
X131790952Y-137023333D01*
X131695714Y-137070952D01*
X131648095Y-137118571D01*
X131600476Y-137213809D01*
X132600476Y-137642380D02*
X132600476Y-136642380D01*
X132933809Y-137356666D01*
X133267142Y-136642380D01*
X133267142Y-137642380D01*
X133743333Y-137642380D02*
X133743333Y-136642380D01*
X133743333Y-137118571D02*
X134314761Y-137118571D01*
X134314761Y-137642380D02*
X134314761Y-136642380D01*
X134695714Y-136975714D02*
X135219523Y-136975714D01*
X134695714Y-137642380D01*
X135219523Y-137642380D01*
X98847619Y-118852380D02*
X98514285Y-118376190D01*
X98276190Y-118852380D02*
X98276190Y-117852380D01*
X98657142Y-117852380D01*
X98752380Y-117900000D01*
X98800000Y-117947619D01*
X98847619Y-118042857D01*
X98847619Y-118185714D01*
X98800000Y-118280952D01*
X98752380Y-118328571D01*
X98657142Y-118376190D01*
X98276190Y-118376190D01*
X99276190Y-118328571D02*
X99609523Y-118328571D01*
X99752380Y-118852380D02*
X99276190Y-118852380D01*
X99276190Y-117852380D01*
X99752380Y-117852380D01*
X100133333Y-118804761D02*
X100276190Y-118852380D01*
X100514285Y-118852380D01*
X100609523Y-118804761D01*
X100657142Y-118757142D01*
X100704761Y-118661904D01*
X100704761Y-118566666D01*
X100657142Y-118471428D01*
X100609523Y-118423809D01*
X100514285Y-118376190D01*
X100323809Y-118328571D01*
X100228571Y-118280952D01*
X100180952Y-118233333D01*
X100133333Y-118138095D01*
X100133333Y-118042857D01*
X100180952Y-117947619D01*
X100228571Y-117900000D01*
X100323809Y-117852380D01*
X100561904Y-117852380D01*
X100704761Y-117900000D01*
X101133333Y-118328571D02*
X101466666Y-118328571D01*
X101609523Y-118852380D02*
X101133333Y-118852380D01*
X101133333Y-117852380D01*
X101609523Y-117852380D01*
X101895238Y-117852380D02*
X102466666Y-117852380D01*
X102180952Y-118852380D02*
X102180952Y-117852380D01*
X147780952Y-68852380D02*
X147971428Y-68852380D01*
X148066666Y-68900000D01*
X148161904Y-68995238D01*
X148209523Y-69185714D01*
X148209523Y-69519047D01*
X148161904Y-69709523D01*
X148066666Y-69804761D01*
X147971428Y-69852380D01*
X147780952Y-69852380D01*
X147685714Y-69804761D01*
X147590476Y-69709523D01*
X147542857Y-69519047D01*
X147542857Y-69185714D01*
X147590476Y-68995238D01*
X147685714Y-68900000D01*
X147780952Y-68852380D01*
X148638095Y-69852380D02*
X148638095Y-68852380D01*
X149209523Y-69852380D01*
X149209523Y-68852380D01*
X142233333Y-69852380D02*
X141900000Y-69376190D01*
X141661904Y-69852380D02*
X141661904Y-68852380D01*
X142042857Y-68852380D01*
X142138095Y-68900000D01*
X142185714Y-68947619D01*
X142233333Y-69042857D01*
X142233333Y-69185714D01*
X142185714Y-69280952D01*
X142138095Y-69328571D01*
X142042857Y-69376190D01*
X141661904Y-69376190D01*
X142566666Y-68852380D02*
X143233333Y-69852380D01*
X143233333Y-68852380D02*
X142566666Y-69852380D01*
X135638095Y-68852380D02*
X136209523Y-68852380D01*
X135923809Y-69852380D02*
X135923809Y-68852380D01*
X136447619Y-68852380D02*
X137114285Y-69852380D01*
X137114285Y-68852380D02*
X136447619Y-69852380D01*
D10*
X169000000Y-80000000D02*
X169000000Y-116000000D01*
X163000000Y-80000000D02*
X169000000Y-80000000D01*
X89000000Y-80000000D02*
X89000000Y-116000000D01*
X94000000Y-80000000D02*
X89000000Y-80000000D01*
D11*
X89509523Y-79552380D02*
X89033333Y-79552380D01*
X89033333Y-78552380D01*
X90414285Y-79457142D02*
X90366666Y-79504761D01*
X90223809Y-79552380D01*
X90128571Y-79552380D01*
X89985714Y-79504761D01*
X89890476Y-79409523D01*
X89842857Y-79314285D01*
X89795238Y-79123809D01*
X89795238Y-78980952D01*
X89842857Y-78790476D01*
X89890476Y-78695238D01*
X89985714Y-78600000D01*
X90128571Y-78552380D01*
X90223809Y-78552380D01*
X90366666Y-78600000D01*
X90414285Y-78647619D01*
X90842857Y-79552380D02*
X90842857Y-78552380D01*
X91080952Y-78552380D01*
X91223809Y-78600000D01*
X91319047Y-78695238D01*
X91366666Y-78790476D01*
X91414285Y-78980952D01*
X91414285Y-79123809D01*
X91366666Y-79314285D01*
X91319047Y-79409523D01*
X91223809Y-79504761D01*
X91080952Y-79552380D01*
X90842857Y-79552380D01*
X97285714Y-85352380D02*
X96714285Y-85352380D01*
X97000000Y-85352380D02*
X97000000Y-84352380D01*
X96904761Y-84495238D01*
X96809523Y-84590476D01*
X96714285Y-84638095D01*
D13*
%TO.C,Y1*%
X136060000Y-136520000D02*
X129660000Y-136520000D01*
X136060000Y-131520000D02*
X129660000Y-131520000D01*
X129660000Y-136520000D02*
G75*
G02*
X129660000Y-131520000I0J2500000D01*
G01*
X136060000Y-131520000D02*
G75*
G02*
X136060000Y-136520000I0J-2500000D01*
G01*
D10*
%TO.C,U2*%
X109970000Y-119940000D02*
X109970000Y-121590000D01*
X145650000Y-119940000D02*
X109970000Y-119940000D01*
X145650000Y-125240000D02*
X145650000Y-119940000D01*
X109970000Y-125240000D02*
X145650000Y-125240000D01*
X109970000Y-123590000D02*
X109970000Y-125240000D01*
X109970000Y-121590000D02*
G75*
G02*
X109970000Y-123590000I0J-1000000D01*
G01*
%TO.C,R5*%
X90940000Y-121990000D02*
X91270000Y-121990000D01*
X90940000Y-115450000D02*
X90940000Y-121990000D01*
X91270000Y-115450000D02*
X90940000Y-115450000D01*
X93680000Y-121990000D02*
X93350000Y-121990000D01*
X93680000Y-115450000D02*
X93680000Y-121990000D01*
X93350000Y-115450000D02*
X93680000Y-115450000D01*
%TO.C,D1*%
X134810000Y-73480000D02*
X134810000Y-73636000D01*
X134810000Y-71164000D02*
X134810000Y-71320000D01*
X137411130Y-73479837D02*
G75*
G02*
X135329039Y-73480000I-1041130J1079837D01*
G01*
X137411130Y-71320163D02*
G75*
G03*
X135329039Y-71320000I-1041130J-1079837D01*
G01*
X138042335Y-73478608D02*
G75*
G02*
X134810000Y-73635516I-1672335J1078608D01*
G01*
X138042335Y-71321392D02*
G75*
G03*
X134810000Y-71164484I-1672335J-1078608D01*
G01*
%TO.C,D2*%
X140810000Y-73480000D02*
X140810000Y-73636000D01*
X140810000Y-71164000D02*
X140810000Y-71320000D01*
X143411130Y-73479837D02*
G75*
G02*
X141329039Y-73480000I-1041130J1079837D01*
G01*
X143411130Y-71320163D02*
G75*
G03*
X141329039Y-71320000I-1041130J-1079837D01*
G01*
X144042335Y-73478608D02*
G75*
G02*
X140810000Y-73635516I-1672335J1078608D01*
G01*
X144042335Y-71321392D02*
G75*
G03*
X140810000Y-71164484I-1672335J-1078608D01*
G01*
%TO.C,D3*%
X104210000Y-134120000D02*
X104210000Y-131880000D01*
X103970000Y-134120000D02*
X103970000Y-131880000D01*
X104090000Y-134120000D02*
X104090000Y-131880000D01*
X99920000Y-133000000D02*
X100570000Y-133000000D01*
X105460000Y-133000000D02*
X104810000Y-133000000D01*
X100570000Y-134120000D02*
X104810000Y-134120000D01*
X100570000Y-131880000D02*
X100570000Y-134120000D01*
X104810000Y-131880000D02*
X100570000Y-131880000D01*
X104810000Y-134120000D02*
X104810000Y-131880000D01*
%TO.C,D4*%
X146810000Y-73480000D02*
X146810000Y-73636000D01*
X146810000Y-71164000D02*
X146810000Y-71320000D01*
X149411130Y-73479837D02*
G75*
G02*
X147329039Y-73480000I-1041130J1079837D01*
G01*
X149411130Y-71320163D02*
G75*
G03*
X147329039Y-71320000I-1041130J-1079837D01*
G01*
X150042335Y-73478608D02*
G75*
G02*
X146810000Y-73635516I-1672335J1078608D01*
G01*
X150042335Y-71321392D02*
G75*
G03*
X146810000Y-71164484I-1672335J-1078608D01*
G01*
%TO.C,R1*%
X132040000Y-98530000D02*
X132040000Y-98200000D01*
X125500000Y-98530000D02*
X132040000Y-98530000D01*
X125500000Y-98200000D02*
X125500000Y-98530000D01*
X132040000Y-95790000D02*
X132040000Y-96120000D01*
X125500000Y-95790000D02*
X132040000Y-95790000D01*
X125500000Y-96120000D02*
X125500000Y-95790000D01*
%TO.C,R2*%
X132040000Y-95280000D02*
X132040000Y-94950000D01*
X125500000Y-95280000D02*
X132040000Y-95280000D01*
X125500000Y-94950000D02*
X125500000Y-95280000D01*
X132040000Y-92540000D02*
X132040000Y-92870000D01*
X125500000Y-92540000D02*
X132040000Y-92540000D01*
X125500000Y-92870000D02*
X125500000Y-92540000D01*
%TO.C,R3*%
X141246000Y-78358000D02*
X140916000Y-78358000D01*
X141246000Y-84898000D02*
X141246000Y-78358000D01*
X140916000Y-84898000D02*
X141246000Y-84898000D01*
X138506000Y-78358000D02*
X138836000Y-78358000D01*
X138506000Y-84898000D02*
X138506000Y-78358000D01*
X138836000Y-84898000D02*
X138506000Y-84898000D01*
%TO.C,R4*%
X145446000Y-78358000D02*
X145116000Y-78358000D01*
X145446000Y-84898000D02*
X145446000Y-78358000D01*
X145116000Y-84898000D02*
X145446000Y-84898000D01*
X142706000Y-78358000D02*
X143036000Y-78358000D01*
X142706000Y-84898000D02*
X142706000Y-78358000D01*
X143036000Y-84898000D02*
X142706000Y-84898000D01*
%TO.C,R6*%
X99420000Y-134630000D02*
X99420000Y-134960000D01*
X105960000Y-134630000D02*
X99420000Y-134630000D01*
X105960000Y-134960000D02*
X105960000Y-134630000D01*
X99420000Y-137370000D02*
X99420000Y-137040000D01*
X105960000Y-137370000D02*
X99420000Y-137370000D01*
X105960000Y-137040000D02*
X105960000Y-137370000D01*
%TO.C,R7*%
X136160000Y-130760000D02*
X136160000Y-130430000D01*
X129620000Y-130760000D02*
X136160000Y-130760000D01*
X129620000Y-130430000D02*
X129620000Y-130760000D01*
X136160000Y-128020000D02*
X136160000Y-128350000D01*
X129620000Y-128020000D02*
X136160000Y-128020000D01*
X129620000Y-128350000D02*
X129620000Y-128020000D01*
%TO.C,R8*%
X157030000Y-122870000D02*
X157030000Y-122540000D01*
X150490000Y-122870000D02*
X157030000Y-122870000D01*
X150490000Y-122540000D02*
X150490000Y-122870000D01*
X157030000Y-120130000D02*
X157030000Y-120460000D01*
X150490000Y-120130000D02*
X157030000Y-120130000D01*
X150490000Y-120460000D02*
X150490000Y-120130000D01*
%TO.C,R9*%
X146906000Y-84918000D02*
X147236000Y-84918000D01*
X146906000Y-78378000D02*
X146906000Y-84918000D01*
X147236000Y-78378000D02*
X146906000Y-78378000D01*
X149646000Y-84918000D02*
X149316000Y-84918000D01*
X149646000Y-78378000D02*
X149646000Y-84918000D01*
X149316000Y-78378000D02*
X149646000Y-78378000D01*
%TO.C,R11*%
X150520000Y-124530000D02*
X150520000Y-124860000D01*
X157060000Y-124530000D02*
X150520000Y-124530000D01*
X157060000Y-124860000D02*
X157060000Y-124530000D01*
X150520000Y-127270000D02*
X150520000Y-126940000D01*
X157060000Y-127270000D02*
X150520000Y-127270000D01*
X157060000Y-126940000D02*
X157060000Y-127270000D01*
%TO.C,RV1*%
X110060000Y-77760000D02*
X103220000Y-77760000D01*
X110060000Y-70520000D02*
X103220000Y-70520000D01*
X103220000Y-74850000D02*
X103220000Y-77760000D01*
X103220000Y-70520000D02*
X103220000Y-73550000D01*
X110060000Y-74850000D02*
X110060000Y-77760000D01*
X110060000Y-70520000D02*
X110060000Y-73550000D01*
%TO.C,SW1*%
X103800000Y-124000000D02*
X103800000Y-122500000D01*
X102550000Y-120000000D02*
X98050000Y-120000000D01*
X96800000Y-122500000D02*
X96800000Y-124000000D01*
X98050000Y-126500000D02*
X102550000Y-126500000D01*
%TO.C,J3*%
X95670000Y-82000000D02*
X95670000Y-80670000D01*
X95670000Y-80670000D02*
X97000000Y-80670000D01*
X98270000Y-80670000D02*
X136430000Y-80670000D01*
X136430000Y-83330000D02*
X136430000Y-80670000D01*
X98270000Y-83330000D02*
X136430000Y-83330000D01*
X98270000Y-83330000D02*
X98270000Y-80670000D01*
%TO.C,FB1*%
X151360000Y-106466252D02*
X151360000Y-103693748D01*
X147940000Y-106466252D02*
X147940000Y-103693748D01*
%TO.C,C1*%
X158180000Y-103830000D02*
G75*
G03*
X158180000Y-103830000I-2620000J0D01*
G01*
%TO.C,C2*%
X156850000Y-94260000D02*
G75*
G03*
X156850000Y-94260000I-2620000J0D01*
G01*
%TO.C,C3*%
X129780000Y-113200000D02*
G75*
G03*
X129780000Y-113200000I-2620000J0D01*
G01*
%TO.C,C4*%
X94860000Y-127050000D02*
G75*
G03*
X94860000Y-127050000I-2620000J0D01*
G01*
%TO.C,C6*%
X135620000Y-113190000D02*
G75*
G03*
X135620000Y-113190000I-2620000J0D01*
G01*
%TO.C,C7*%
X126610000Y-133530000D02*
G75*
G03*
X126610000Y-133530000I-2620000J0D01*
G01*
%TO.C,C8*%
X144370000Y-133530000D02*
G75*
G03*
X144370000Y-133530000I-2620000J0D01*
G01*
%TO.C,J5*%
X156320000Y-130540000D02*
X156320000Y-131870000D01*
X154990000Y-130540000D02*
X156320000Y-130540000D01*
X156320000Y-133140000D02*
X156320000Y-135740000D01*
X153720000Y-133140000D02*
X156320000Y-133140000D01*
X153720000Y-130540000D02*
X153720000Y-133140000D01*
X156320000Y-135740000D02*
X148580000Y-135740000D01*
X153720000Y-130540000D02*
X148580000Y-130540000D01*
X148580000Y-130540000D02*
X148580000Y-135740000D01*
%TO.C,Y1*%
D11*
X137693809Y-137306190D02*
X137693809Y-137782380D01*
X137360476Y-136782380D02*
X137693809Y-137306190D01*
X138027142Y-136782380D01*
X138884285Y-137782380D02*
X138312857Y-137782380D01*
X138598571Y-137782380D02*
X138598571Y-136782380D01*
X138503333Y-136925238D01*
X138408095Y-137020476D01*
X138312857Y-137068095D01*
%TO.C,U2*%
X107858095Y-126052380D02*
X107858095Y-126861904D01*
X107905714Y-126957142D01*
X107953333Y-127004761D01*
X108048571Y-127052380D01*
X108239047Y-127052380D01*
X108334285Y-127004761D01*
X108381904Y-126957142D01*
X108429523Y-126861904D01*
X108429523Y-126052380D01*
X108858095Y-126147619D02*
X108905714Y-126100000D01*
X109000952Y-126052380D01*
X109239047Y-126052380D01*
X109334285Y-126100000D01*
X109381904Y-126147619D01*
X109429523Y-126242857D01*
X109429523Y-126338095D01*
X109381904Y-126480952D01*
X108810476Y-127052380D01*
X109429523Y-127052380D01*
%TO.C,R5*%
X92243333Y-113562380D02*
X91910000Y-113086190D01*
X91671904Y-113562380D02*
X91671904Y-112562380D01*
X92052857Y-112562380D01*
X92148095Y-112610000D01*
X92195714Y-112657619D01*
X92243333Y-112752857D01*
X92243333Y-112895714D01*
X92195714Y-112990952D01*
X92148095Y-113038571D01*
X92052857Y-113086190D01*
X91671904Y-113086190D01*
X93148095Y-112562380D02*
X92671904Y-112562380D01*
X92624285Y-113038571D01*
X92671904Y-112990952D01*
X92767142Y-112943333D01*
X93005238Y-112943333D01*
X93100476Y-112990952D01*
X93148095Y-113038571D01*
X93195714Y-113133809D01*
X93195714Y-113371904D01*
X93148095Y-113467142D01*
X93100476Y-113514761D01*
X93005238Y-113562380D01*
X92767142Y-113562380D01*
X92671904Y-113514761D01*
X92624285Y-113467142D01*
%TO.C,H4*%
X92238095Y-138752380D02*
X92238095Y-137752380D01*
X92238095Y-138228571D02*
X92809523Y-138228571D01*
X92809523Y-138752380D02*
X92809523Y-137752380D01*
X93714285Y-138085714D02*
X93714285Y-138752380D01*
X93476190Y-137704761D02*
X93238095Y-138419047D01*
X93857142Y-138419047D01*
%TO.C,D1*%
X135661904Y-75852380D02*
X135661904Y-74852380D01*
X135900000Y-74852380D01*
X136042857Y-74900000D01*
X136138095Y-74995238D01*
X136185714Y-75090476D01*
X136233333Y-75280952D01*
X136233333Y-75423809D01*
X136185714Y-75614285D01*
X136138095Y-75709523D01*
X136042857Y-75804761D01*
X135900000Y-75852380D01*
X135661904Y-75852380D01*
X137185714Y-75852380D02*
X136614285Y-75852380D01*
X136900000Y-75852380D02*
X136900000Y-74852380D01*
X136804761Y-74995238D01*
X136709523Y-75090476D01*
X136614285Y-75138095D01*
%TO.C,D2*%
X141661904Y-75852380D02*
X141661904Y-74852380D01*
X141900000Y-74852380D01*
X142042857Y-74900000D01*
X142138095Y-74995238D01*
X142185714Y-75090476D01*
X142233333Y-75280952D01*
X142233333Y-75423809D01*
X142185714Y-75614285D01*
X142138095Y-75709523D01*
X142042857Y-75804761D01*
X141900000Y-75852380D01*
X141661904Y-75852380D01*
X142614285Y-74947619D02*
X142661904Y-74900000D01*
X142757142Y-74852380D01*
X142995238Y-74852380D01*
X143090476Y-74900000D01*
X143138095Y-74947619D01*
X143185714Y-75042857D01*
X143185714Y-75138095D01*
X143138095Y-75280952D01*
X142566666Y-75852380D01*
X143185714Y-75852380D01*
%TO.C,D3*%
X108061904Y-133452380D02*
X108061904Y-132452380D01*
X108300000Y-132452380D01*
X108442857Y-132500000D01*
X108538095Y-132595238D01*
X108585714Y-132690476D01*
X108633333Y-132880952D01*
X108633333Y-133023809D01*
X108585714Y-133214285D01*
X108538095Y-133309523D01*
X108442857Y-133404761D01*
X108300000Y-133452380D01*
X108061904Y-133452380D01*
X108966666Y-132452380D02*
X109585714Y-132452380D01*
X109252380Y-132833333D01*
X109395238Y-132833333D01*
X109490476Y-132880952D01*
X109538095Y-132928571D01*
X109585714Y-133023809D01*
X109585714Y-133261904D01*
X109538095Y-133357142D01*
X109490476Y-133404761D01*
X109395238Y-133452380D01*
X109109523Y-133452380D01*
X109014285Y-133404761D01*
X108966666Y-133357142D01*
X106238095Y-135252380D02*
X106238095Y-134252380D01*
X106809523Y-135252380D02*
X106380952Y-134680952D01*
X106809523Y-134252380D02*
X106238095Y-134823809D01*
%TO.C,D4*%
X147661904Y-75852380D02*
X147661904Y-74852380D01*
X147900000Y-74852380D01*
X148042857Y-74900000D01*
X148138095Y-74995238D01*
X148185714Y-75090476D01*
X148233333Y-75280952D01*
X148233333Y-75423809D01*
X148185714Y-75614285D01*
X148138095Y-75709523D01*
X148042857Y-75804761D01*
X147900000Y-75852380D01*
X147661904Y-75852380D01*
X149090476Y-75185714D02*
X149090476Y-75852380D01*
X148852380Y-74804761D02*
X148614285Y-75519047D01*
X149233333Y-75519047D01*
%TO.C,R1*%
X122593333Y-97612380D02*
X122260000Y-97136190D01*
X122021904Y-97612380D02*
X122021904Y-96612380D01*
X122402857Y-96612380D01*
X122498095Y-96660000D01*
X122545714Y-96707619D01*
X122593333Y-96802857D01*
X122593333Y-96945714D01*
X122545714Y-97040952D01*
X122498095Y-97088571D01*
X122402857Y-97136190D01*
X122021904Y-97136190D01*
X123545714Y-97612380D02*
X122974285Y-97612380D01*
X123260000Y-97612380D02*
X123260000Y-96612380D01*
X123164761Y-96755238D01*
X123069523Y-96850476D01*
X122974285Y-96898095D01*
%TO.C,R2*%
X122593333Y-94362380D02*
X122260000Y-93886190D01*
X122021904Y-94362380D02*
X122021904Y-93362380D01*
X122402857Y-93362380D01*
X122498095Y-93410000D01*
X122545714Y-93457619D01*
X122593333Y-93552857D01*
X122593333Y-93695714D01*
X122545714Y-93790952D01*
X122498095Y-93838571D01*
X122402857Y-93886190D01*
X122021904Y-93886190D01*
X122974285Y-93457619D02*
X123021904Y-93410000D01*
X123117142Y-93362380D01*
X123355238Y-93362380D01*
X123450476Y-93410000D01*
X123498095Y-93457619D01*
X123545714Y-93552857D01*
X123545714Y-93648095D01*
X123498095Y-93790952D01*
X122926666Y-94362380D01*
X123545714Y-94362380D01*
%TO.C,R3*%
X139809333Y-87790380D02*
X139476000Y-87314190D01*
X139237904Y-87790380D02*
X139237904Y-86790380D01*
X139618857Y-86790380D01*
X139714095Y-86838000D01*
X139761714Y-86885619D01*
X139809333Y-86980857D01*
X139809333Y-87123714D01*
X139761714Y-87218952D01*
X139714095Y-87266571D01*
X139618857Y-87314190D01*
X139237904Y-87314190D01*
X140142666Y-86790380D02*
X140761714Y-86790380D01*
X140428380Y-87171333D01*
X140571238Y-87171333D01*
X140666476Y-87218952D01*
X140714095Y-87266571D01*
X140761714Y-87361809D01*
X140761714Y-87599904D01*
X140714095Y-87695142D01*
X140666476Y-87742761D01*
X140571238Y-87790380D01*
X140285523Y-87790380D01*
X140190285Y-87742761D01*
X140142666Y-87695142D01*
%TO.C,R4*%
X143909333Y-87790380D02*
X143576000Y-87314190D01*
X143337904Y-87790380D02*
X143337904Y-86790380D01*
X143718857Y-86790380D01*
X143814095Y-86838000D01*
X143861714Y-86885619D01*
X143909333Y-86980857D01*
X143909333Y-87123714D01*
X143861714Y-87218952D01*
X143814095Y-87266571D01*
X143718857Y-87314190D01*
X143337904Y-87314190D01*
X144766476Y-87123714D02*
X144766476Y-87790380D01*
X144528380Y-86742761D02*
X144290285Y-87457047D01*
X144909333Y-87457047D01*
%TO.C,R6*%
X108633333Y-136452380D02*
X108300000Y-135976190D01*
X108061904Y-136452380D02*
X108061904Y-135452380D01*
X108442857Y-135452380D01*
X108538095Y-135500000D01*
X108585714Y-135547619D01*
X108633333Y-135642857D01*
X108633333Y-135785714D01*
X108585714Y-135880952D01*
X108538095Y-135928571D01*
X108442857Y-135976190D01*
X108061904Y-135976190D01*
X109490476Y-135452380D02*
X109300000Y-135452380D01*
X109204761Y-135500000D01*
X109157142Y-135547619D01*
X109061904Y-135690476D01*
X109014285Y-135880952D01*
X109014285Y-136261904D01*
X109061904Y-136357142D01*
X109109523Y-136404761D01*
X109204761Y-136452380D01*
X109395238Y-136452380D01*
X109490476Y-136404761D01*
X109538095Y-136357142D01*
X109585714Y-136261904D01*
X109585714Y-136023809D01*
X109538095Y-135928571D01*
X109490476Y-135880952D01*
X109395238Y-135833333D01*
X109204761Y-135833333D01*
X109109523Y-135880952D01*
X109061904Y-135928571D01*
X109014285Y-136023809D01*
%TO.C,R7*%
X138587333Y-129940380D02*
X138254000Y-129464190D01*
X138015904Y-129940380D02*
X138015904Y-128940380D01*
X138396857Y-128940380D01*
X138492095Y-128988000D01*
X138539714Y-129035619D01*
X138587333Y-129130857D01*
X138587333Y-129273714D01*
X138539714Y-129368952D01*
X138492095Y-129416571D01*
X138396857Y-129464190D01*
X138015904Y-129464190D01*
X138920666Y-128940380D02*
X139587333Y-128940380D01*
X139158761Y-129940380D01*
%TO.C,R8*%
X147483333Y-123452380D02*
X147150000Y-122976190D01*
X146911904Y-123452380D02*
X146911904Y-122452380D01*
X147292857Y-122452380D01*
X147388095Y-122500000D01*
X147435714Y-122547619D01*
X147483333Y-122642857D01*
X147483333Y-122785714D01*
X147435714Y-122880952D01*
X147388095Y-122928571D01*
X147292857Y-122976190D01*
X146911904Y-122976190D01*
X148054761Y-122880952D02*
X147959523Y-122833333D01*
X147911904Y-122785714D01*
X147864285Y-122690476D01*
X147864285Y-122642857D01*
X147911904Y-122547619D01*
X147959523Y-122500000D01*
X148054761Y-122452380D01*
X148245238Y-122452380D01*
X148340476Y-122500000D01*
X148388095Y-122547619D01*
X148435714Y-122642857D01*
X148435714Y-122690476D01*
X148388095Y-122785714D01*
X148340476Y-122833333D01*
X148245238Y-122880952D01*
X148054761Y-122880952D01*
X147959523Y-122928571D01*
X147911904Y-122976190D01*
X147864285Y-123071428D01*
X147864285Y-123261904D01*
X147911904Y-123357142D01*
X147959523Y-123404761D01*
X148054761Y-123452380D01*
X148245238Y-123452380D01*
X148340476Y-123404761D01*
X148388095Y-123357142D01*
X148435714Y-123261904D01*
X148435714Y-123071428D01*
X148388095Y-122976190D01*
X148340476Y-122928571D01*
X148245238Y-122880952D01*
%TO.C,R9*%
X148109333Y-87790380D02*
X147776000Y-87314190D01*
X147537904Y-87790380D02*
X147537904Y-86790380D01*
X147918857Y-86790380D01*
X148014095Y-86838000D01*
X148061714Y-86885619D01*
X148109333Y-86980857D01*
X148109333Y-87123714D01*
X148061714Y-87218952D01*
X148014095Y-87266571D01*
X147918857Y-87314190D01*
X147537904Y-87314190D01*
X148585523Y-87790380D02*
X148776000Y-87790380D01*
X148871238Y-87742761D01*
X148918857Y-87695142D01*
X149014095Y-87552285D01*
X149061714Y-87361809D01*
X149061714Y-86980857D01*
X149014095Y-86885619D01*
X148966476Y-86838000D01*
X148871238Y-86790380D01*
X148680761Y-86790380D01*
X148585523Y-86838000D01*
X148537904Y-86885619D01*
X148490285Y-86980857D01*
X148490285Y-87218952D01*
X148537904Y-87314190D01*
X148585523Y-87361809D01*
X148680761Y-87409428D01*
X148871238Y-87409428D01*
X148966476Y-87361809D01*
X149014095Y-87314190D01*
X149061714Y-87218952D01*
%TO.C,R11*%
X147007142Y-127452380D02*
X146673809Y-126976190D01*
X146435714Y-127452380D02*
X146435714Y-126452380D01*
X146816666Y-126452380D01*
X146911904Y-126500000D01*
X146959523Y-126547619D01*
X147007142Y-126642857D01*
X147007142Y-126785714D01*
X146959523Y-126880952D01*
X146911904Y-126928571D01*
X146816666Y-126976190D01*
X146435714Y-126976190D01*
X147959523Y-127452380D02*
X147388095Y-127452380D01*
X147673809Y-127452380D02*
X147673809Y-126452380D01*
X147578571Y-126595238D01*
X147483333Y-126690476D01*
X147388095Y-126738095D01*
X148911904Y-127452380D02*
X148340476Y-127452380D01*
X148626190Y-127452380D02*
X148626190Y-126452380D01*
X148530952Y-126595238D01*
X148435714Y-126690476D01*
X148340476Y-126738095D01*
%TO.C,RV1*%
X106004761Y-79352380D02*
X105671428Y-78876190D01*
X105433333Y-79352380D02*
X105433333Y-78352380D01*
X105814285Y-78352380D01*
X105909523Y-78400000D01*
X105957142Y-78447619D01*
X106004761Y-78542857D01*
X106004761Y-78685714D01*
X105957142Y-78780952D01*
X105909523Y-78828571D01*
X105814285Y-78876190D01*
X105433333Y-78876190D01*
X106290476Y-78352380D02*
X106623809Y-79352380D01*
X106957142Y-78352380D01*
X107814285Y-79352380D02*
X107242857Y-79352380D01*
X107528571Y-79352380D02*
X107528571Y-78352380D01*
X107433333Y-78495238D01*
X107338095Y-78590476D01*
X107242857Y-78638095D01*
%TO.C,SW1*%
X98866666Y-128504761D02*
X99009523Y-128552380D01*
X99247619Y-128552380D01*
X99342857Y-128504761D01*
X99390476Y-128457142D01*
X99438095Y-128361904D01*
X99438095Y-128266666D01*
X99390476Y-128171428D01*
X99342857Y-128123809D01*
X99247619Y-128076190D01*
X99057142Y-128028571D01*
X98961904Y-127980952D01*
X98914285Y-127933333D01*
X98866666Y-127838095D01*
X98866666Y-127742857D01*
X98914285Y-127647619D01*
X98961904Y-127600000D01*
X99057142Y-127552380D01*
X99295238Y-127552380D01*
X99438095Y-127600000D01*
X99771428Y-127552380D02*
X100009523Y-128552380D01*
X100200000Y-127838095D01*
X100390476Y-128552380D01*
X100628571Y-127552380D01*
X101533333Y-128552380D02*
X100961904Y-128552380D01*
X101247619Y-128552380D02*
X101247619Y-127552380D01*
X101152380Y-127695238D01*
X101057142Y-127790476D01*
X100961904Y-127838095D01*
%TO.C,J3*%
X93606666Y-82692380D02*
X93606666Y-83406666D01*
X93559047Y-83549523D01*
X93463809Y-83644761D01*
X93320952Y-83692380D01*
X93225714Y-83692380D01*
X93987619Y-82692380D02*
X94606666Y-82692380D01*
X94273333Y-83073333D01*
X94416190Y-83073333D01*
X94511428Y-83120952D01*
X94559047Y-83168571D01*
X94606666Y-83263809D01*
X94606666Y-83501904D01*
X94559047Y-83597142D01*
X94511428Y-83644761D01*
X94416190Y-83692380D01*
X94130476Y-83692380D01*
X94035238Y-83644761D01*
X93987619Y-83597142D01*
%TO.C,H1*%
X92338095Y-78652380D02*
X92338095Y-77652380D01*
X92338095Y-78128571D02*
X92909523Y-78128571D01*
X92909523Y-78652380D02*
X92909523Y-77652380D01*
X93909523Y-78652380D02*
X93338095Y-78652380D01*
X93623809Y-78652380D02*
X93623809Y-77652380D01*
X93528571Y-77795238D01*
X93433333Y-77890476D01*
X93338095Y-77938095D01*
%TO.C,H2*%
X163238095Y-79052380D02*
X163238095Y-78052380D01*
X163238095Y-78528571D02*
X163809523Y-78528571D01*
X163809523Y-79052380D02*
X163809523Y-78052380D01*
X164238095Y-78147619D02*
X164285714Y-78100000D01*
X164380952Y-78052380D01*
X164619047Y-78052380D01*
X164714285Y-78100000D01*
X164761904Y-78147619D01*
X164809523Y-78242857D01*
X164809523Y-78338095D01*
X164761904Y-78480952D01*
X164190476Y-79052380D01*
X164809523Y-79052380D01*
%TO.C,H3*%
X163238095Y-138652380D02*
X163238095Y-137652380D01*
X163238095Y-138128571D02*
X163809523Y-138128571D01*
X163809523Y-138652380D02*
X163809523Y-137652380D01*
X164190476Y-137652380D02*
X164809523Y-137652380D01*
X164476190Y-138033333D01*
X164619047Y-138033333D01*
X164714285Y-138080952D01*
X164761904Y-138128571D01*
X164809523Y-138223809D01*
X164809523Y-138461904D01*
X164761904Y-138557142D01*
X164714285Y-138604761D01*
X164619047Y-138652380D01*
X164333333Y-138652380D01*
X164238095Y-138604761D01*
X164190476Y-138557142D01*
%TO.C,FB1*%
X148816666Y-109208571D02*
X148483333Y-109208571D01*
X148483333Y-109732380D02*
X148483333Y-108732380D01*
X148959523Y-108732380D01*
X149673809Y-109208571D02*
X149816666Y-109256190D01*
X149864285Y-109303809D01*
X149911904Y-109399047D01*
X149911904Y-109541904D01*
X149864285Y-109637142D01*
X149816666Y-109684761D01*
X149721428Y-109732380D01*
X149340476Y-109732380D01*
X149340476Y-108732380D01*
X149673809Y-108732380D01*
X149769047Y-108780000D01*
X149816666Y-108827619D01*
X149864285Y-108922857D01*
X149864285Y-109018095D01*
X149816666Y-109113333D01*
X149769047Y-109160952D01*
X149673809Y-109208571D01*
X149340476Y-109208571D01*
X150864285Y-109732380D02*
X150292857Y-109732380D01*
X150578571Y-109732380D02*
X150578571Y-108732380D01*
X150483333Y-108875238D01*
X150388095Y-108970476D01*
X150292857Y-109018095D01*
%TO.C,C1*%
X155393333Y-107887142D02*
X155345714Y-107934761D01*
X155202857Y-107982380D01*
X155107619Y-107982380D01*
X154964761Y-107934761D01*
X154869523Y-107839523D01*
X154821904Y-107744285D01*
X154774285Y-107553809D01*
X154774285Y-107410952D01*
X154821904Y-107220476D01*
X154869523Y-107125238D01*
X154964761Y-107030000D01*
X155107619Y-106982380D01*
X155202857Y-106982380D01*
X155345714Y-107030000D01*
X155393333Y-107077619D01*
X156345714Y-107982380D02*
X155774285Y-107982380D01*
X156060000Y-107982380D02*
X156060000Y-106982380D01*
X155964761Y-107125238D01*
X155869523Y-107220476D01*
X155774285Y-107268095D01*
%TO.C,C2*%
X153983333Y-98267142D02*
X153935714Y-98314761D01*
X153792857Y-98362380D01*
X153697619Y-98362380D01*
X153554761Y-98314761D01*
X153459523Y-98219523D01*
X153411904Y-98124285D01*
X153364285Y-97933809D01*
X153364285Y-97790952D01*
X153411904Y-97600476D01*
X153459523Y-97505238D01*
X153554761Y-97410000D01*
X153697619Y-97362380D01*
X153792857Y-97362380D01*
X153935714Y-97410000D01*
X153983333Y-97457619D01*
X154364285Y-97457619D02*
X154411904Y-97410000D01*
X154507142Y-97362380D01*
X154745238Y-97362380D01*
X154840476Y-97410000D01*
X154888095Y-97457619D01*
X154935714Y-97552857D01*
X154935714Y-97648095D01*
X154888095Y-97790952D01*
X154316666Y-98362380D01*
X154935714Y-98362380D01*
%TO.C,C3*%
X127033333Y-117157142D02*
X126985714Y-117204761D01*
X126842857Y-117252380D01*
X126747619Y-117252380D01*
X126604761Y-117204761D01*
X126509523Y-117109523D01*
X126461904Y-117014285D01*
X126414285Y-116823809D01*
X126414285Y-116680952D01*
X126461904Y-116490476D01*
X126509523Y-116395238D01*
X126604761Y-116300000D01*
X126747619Y-116252380D01*
X126842857Y-116252380D01*
X126985714Y-116300000D01*
X127033333Y-116347619D01*
X127366666Y-116252380D02*
X127985714Y-116252380D01*
X127652380Y-116633333D01*
X127795238Y-116633333D01*
X127890476Y-116680952D01*
X127938095Y-116728571D01*
X127985714Y-116823809D01*
X127985714Y-117061904D01*
X127938095Y-117157142D01*
X127890476Y-117204761D01*
X127795238Y-117252380D01*
X127509523Y-117252380D01*
X127414285Y-117204761D01*
X127366666Y-117157142D01*
%TO.C,C4*%
X89693333Y-130327142D02*
X89645714Y-130374761D01*
X89502857Y-130422380D01*
X89407619Y-130422380D01*
X89264761Y-130374761D01*
X89169523Y-130279523D01*
X89121904Y-130184285D01*
X89074285Y-129993809D01*
X89074285Y-129850952D01*
X89121904Y-129660476D01*
X89169523Y-129565238D01*
X89264761Y-129470000D01*
X89407619Y-129422380D01*
X89502857Y-129422380D01*
X89645714Y-129470000D01*
X89693333Y-129517619D01*
X90550476Y-129755714D02*
X90550476Y-130422380D01*
X90312380Y-129374761D02*
X90074285Y-130089047D01*
X90693333Y-130089047D01*
%TO.C,C6*%
X132823333Y-117177142D02*
X132775714Y-117224761D01*
X132632857Y-117272380D01*
X132537619Y-117272380D01*
X132394761Y-117224761D01*
X132299523Y-117129523D01*
X132251904Y-117034285D01*
X132204285Y-116843809D01*
X132204285Y-116700952D01*
X132251904Y-116510476D01*
X132299523Y-116415238D01*
X132394761Y-116320000D01*
X132537619Y-116272380D01*
X132632857Y-116272380D01*
X132775714Y-116320000D01*
X132823333Y-116367619D01*
X133680476Y-116272380D02*
X133490000Y-116272380D01*
X133394761Y-116320000D01*
X133347142Y-116367619D01*
X133251904Y-116510476D01*
X133204285Y-116700952D01*
X133204285Y-117081904D01*
X133251904Y-117177142D01*
X133299523Y-117224761D01*
X133394761Y-117272380D01*
X133585238Y-117272380D01*
X133680476Y-117224761D01*
X133728095Y-117177142D01*
X133775714Y-117081904D01*
X133775714Y-116843809D01*
X133728095Y-116748571D01*
X133680476Y-116700952D01*
X133585238Y-116653333D01*
X133394761Y-116653333D01*
X133299523Y-116700952D01*
X133251904Y-116748571D01*
X133204285Y-116843809D01*
%TO.C,C7*%
X123737333Y-130515142D02*
X123689714Y-130562761D01*
X123546857Y-130610380D01*
X123451619Y-130610380D01*
X123308761Y-130562761D01*
X123213523Y-130467523D01*
X123165904Y-130372285D01*
X123118285Y-130181809D01*
X123118285Y-130038952D01*
X123165904Y-129848476D01*
X123213523Y-129753238D01*
X123308761Y-129658000D01*
X123451619Y-129610380D01*
X123546857Y-129610380D01*
X123689714Y-129658000D01*
X123737333Y-129705619D01*
X124070666Y-129610380D02*
X124737333Y-129610380D01*
X124308761Y-130610380D01*
%TO.C,C8*%
X141657333Y-130425142D02*
X141609714Y-130472761D01*
X141466857Y-130520380D01*
X141371619Y-130520380D01*
X141228761Y-130472761D01*
X141133523Y-130377523D01*
X141085904Y-130282285D01*
X141038285Y-130091809D01*
X141038285Y-129948952D01*
X141085904Y-129758476D01*
X141133523Y-129663238D01*
X141228761Y-129568000D01*
X141371619Y-129520380D01*
X141466857Y-129520380D01*
X141609714Y-129568000D01*
X141657333Y-129615619D01*
X142228761Y-129948952D02*
X142133523Y-129901333D01*
X142085904Y-129853714D01*
X142038285Y-129758476D01*
X142038285Y-129710857D01*
X142085904Y-129615619D01*
X142133523Y-129568000D01*
X142228761Y-129520380D01*
X142419238Y-129520380D01*
X142514476Y-129568000D01*
X142562095Y-129615619D01*
X142609714Y-129710857D01*
X142609714Y-129758476D01*
X142562095Y-129853714D01*
X142514476Y-129901333D01*
X142419238Y-129948952D01*
X142228761Y-129948952D01*
X142133523Y-129996571D01*
X142085904Y-130044190D01*
X142038285Y-130139428D01*
X142038285Y-130329904D01*
X142085904Y-130425142D01*
X142133523Y-130472761D01*
X142228761Y-130520380D01*
X142419238Y-130520380D01*
X142514476Y-130472761D01*
X142562095Y-130425142D01*
X142609714Y-130329904D01*
X142609714Y-130139428D01*
X142562095Y-130044190D01*
X142514476Y-129996571D01*
X142419238Y-129948952D01*
%TO.C,J5*%
X146676666Y-135062380D02*
X146676666Y-135776666D01*
X146629047Y-135919523D01*
X146533809Y-136014761D01*
X146390952Y-136062380D01*
X146295714Y-136062380D01*
X147629047Y-135062380D02*
X147152857Y-135062380D01*
X147105238Y-135538571D01*
X147152857Y-135490952D01*
X147248095Y-135443333D01*
X147486190Y-135443333D01*
X147581428Y-135490952D01*
X147629047Y-135538571D01*
X147676666Y-135633809D01*
X147676666Y-135871904D01*
X147629047Y-135967142D01*
X147581428Y-136014761D01*
X147486190Y-136062380D01*
X147248095Y-136062380D01*
X147152857Y-136014761D01*
X147105238Y-135967142D01*
%TD*%
M02*
