%TF.GenerationSoftware,KiCad,Pcbnew,5.1.9*%
%TF.CreationDate,2021-03-06T12:02:52+01:00*%
%TF.ProjectId,livello_serbatoio_definitiva,6c697665-6c6c-46f5-9f73-65726261746f,rev?*%
%TF.SameCoordinates,Original*%
%TF.FileFunction,Copper,L1,Top*%
%TF.FilePolarity,Positive*%
%FSLAX46Y46*%
G04 Gerber Fmt 4.6, Leading zero omitted, Abs format (unit mm)*
G04 Created by KiCad (PCBNEW 5.1.9) date 2021-03-06 12:02:52*
%MOMM*%
%LPD*%
G01*
G04 APERTURE LIST*
%TA.AperFunction,ComponentPad*%
%ADD10C,1.800000*%
%TD*%
%TA.AperFunction,ComponentPad*%
%ADD11O,1.700000X1.700000*%
%TD*%
%TA.AperFunction,ComponentPad*%
%ADD12R,1.700000X1.700000*%
%TD*%
%TA.AperFunction,ComponentPad*%
%ADD13C,2.000000*%
%TD*%
%TA.AperFunction,ComponentPad*%
%ADD14R,1.800000X1.800000*%
%TD*%
%TA.AperFunction,ComponentPad*%
%ADD15R,2.200000X2.200000*%
%TD*%
%TA.AperFunction,ComponentPad*%
%ADD16O,2.200000X2.200000*%
%TD*%
%TA.AperFunction,ComponentPad*%
%ADD17C,1.600000*%
%TD*%
%TA.AperFunction,ComponentPad*%
%ADD18C,2.100000*%
%TD*%
%TA.AperFunction,ComponentPad*%
%ADD19R,2.100000X2.100000*%
%TD*%
%TA.AperFunction,ComponentPad*%
%ADD20C,1.700000*%
%TD*%
%TA.AperFunction,ComponentPad*%
%ADD21C,3.500000*%
%TD*%
%TA.AperFunction,ComponentPad*%
%ADD22O,1.600000X1.600000*%
%TD*%
%TA.AperFunction,ComponentPad*%
%ADD23R,1.600000X1.600000*%
%TD*%
%TA.AperFunction,ComponentPad*%
%ADD24C,0.800000*%
%TD*%
%TA.AperFunction,ComponentPad*%
%ADD25C,6.000000*%
%TD*%
%TA.AperFunction,ViaPad*%
%ADD26C,0.800000*%
%TD*%
%TA.AperFunction,Conductor*%
%ADD27C,0.762000*%
%TD*%
%TA.AperFunction,Conductor*%
%ADD28C,0.254000*%
%TD*%
%TA.AperFunction,Conductor*%
%ADD29C,0.508000*%
%TD*%
%TA.AperFunction,Conductor*%
%ADD30C,0.100000*%
%TD*%
G04 APERTURE END LIST*
%TO.P,FB1,2*%
%TO.N,Net-(FB1-Pad2)*%
%TA.AperFunction,SMDPad,CuDef*%
G36*
G01*
X160490000Y-92380001D02*
X160490000Y-91479999D01*
G75*
G02*
X160739999Y-91230000I249999J0D01*
G01*
X161390001Y-91230000D01*
G75*
G02*
X161640000Y-91479999I0J-249999D01*
G01*
X161640000Y-92380001D01*
G75*
G02*
X161390001Y-92630000I-249999J0D01*
G01*
X160739999Y-92630000D01*
G75*
G02*
X160490000Y-92380001I0J249999D01*
G01*
G37*
%TD.AperFunction*%
%TO.P,FB1,1*%
%TO.N,VBUS*%
%TA.AperFunction,SMDPad,CuDef*%
G36*
G01*
X158440000Y-92380001D02*
X158440000Y-91479999D01*
G75*
G02*
X158689999Y-91230000I249999J0D01*
G01*
X159340001Y-91230000D01*
G75*
G02*
X159590000Y-91479999I0J-249999D01*
G01*
X159590000Y-92380001D01*
G75*
G02*
X159340001Y-92630000I-249999J0D01*
G01*
X158689999Y-92630000D01*
G75*
G02*
X158440000Y-92380001I0J249999D01*
G01*
G37*
%TD.AperFunction*%
%TD*%
D10*
%TO.P,Y1,2*%
%TO.N,/X1*%
X127020000Y-134770000D03*
%TO.P,Y1,1*%
%TO.N,/X2*%
X131900000Y-134770000D03*
%TD*%
D11*
%TO.P,J6,4*%
%TO.N,A0*%
X119855000Y-95420000D03*
%TO.P,J6,3*%
%TO.N,A1*%
X117315000Y-95420000D03*
%TO.P,J6,2*%
%TO.N,A2*%
X114775000Y-95420000D03*
D12*
%TO.P,J6,1*%
%TO.N,A3*%
X112235000Y-95420000D03*
%TD*%
D13*
%TO.P,SW1,1*%
%TO.N,GND*%
X101790000Y-120640000D03*
%TO.P,SW1,2*%
%TO.N,ICSP_RST*%
X101790000Y-125140000D03*
%TO.P,SW1,1*%
%TO.N,GND*%
X95290000Y-120640000D03*
%TO.P,SW1,2*%
%TO.N,ICSP_RST*%
X95290000Y-125140000D03*
%TD*%
D11*
%TO.P,J7,5*%
%TO.N,A5*%
X104620000Y-114070000D03*
%TO.P,J7,4*%
%TO.N,A4*%
X107160000Y-114070000D03*
%TO.P,J7,3*%
%TO.N,D10*%
X109700000Y-114070000D03*
%TO.P,J7,2*%
%TO.N,GND*%
X112240000Y-114070000D03*
D12*
%TO.P,J7,1*%
%TO.N,VDD*%
X114780000Y-114070000D03*
%TD*%
D13*
%TO.P,RV1,2*%
%TO.N,V0*%
X109500000Y-78400000D03*
%TO.P,RV1,3*%
%TO.N,VDD*%
X99500000Y-80900000D03*
%TO.P,RV1,1*%
%TO.N,GND*%
X99500000Y-75900000D03*
%TD*%
D14*
%TO.P,D4,1*%
%TO.N,GND*%
X148600000Y-73400000D03*
D10*
%TO.P,D4,2*%
%TO.N,Net-(D4-Pad2)*%
X151140000Y-73400000D03*
%TD*%
%TO.P,F1,2*%
%TO.N,VBUS*%
%TA.AperFunction,SMDPad,CuDef*%
G36*
G01*
X156770001Y-92575000D02*
X153869999Y-92575000D01*
G75*
G02*
X153620000Y-92325001I0J249999D01*
G01*
X153620000Y-91524999D01*
G75*
G02*
X153869999Y-91275000I249999J0D01*
G01*
X156770001Y-91275000D01*
G75*
G02*
X157020000Y-91524999I0J-249999D01*
G01*
X157020000Y-92325001D01*
G75*
G02*
X156770001Y-92575000I-249999J0D01*
G01*
G37*
%TD.AperFunction*%
%TO.P,F1,1*%
%TO.N,VDD*%
%TA.AperFunction,SMDPad,CuDef*%
G36*
G01*
X156770001Y-97025000D02*
X153869999Y-97025000D01*
G75*
G02*
X153620000Y-96775001I0J249999D01*
G01*
X153620000Y-95974999D01*
G75*
G02*
X153869999Y-95725000I249999J0D01*
G01*
X156770001Y-95725000D01*
G75*
G02*
X157020000Y-95974999I0J-249999D01*
G01*
X157020000Y-96775001D01*
G75*
G02*
X156770001Y-97025000I-249999J0D01*
G01*
G37*
%TD.AperFunction*%
%TD*%
D15*
%TO.P,D3,1*%
%TO.N,VDD*%
X102890000Y-128560000D03*
D16*
%TO.P,D3,2*%
%TO.N,ICSP_RST*%
X95270000Y-128560000D03*
%TD*%
D17*
%TO.P,C5,2*%
%TO.N,VBUS*%
X155540000Y-78420000D03*
%TO.P,C5,1*%
%TO.N,GND*%
X158040000Y-78420000D03*
%TD*%
D18*
%TO.P,J2,4*%
%TO.N,GND*%
X157210000Y-135360000D03*
%TO.P,J2,3*%
%TO.N,VDD*%
X152210000Y-135360000D03*
%TO.P,J2,2*%
%TO.N,Net-(J2-Pad2)*%
X147210000Y-135360000D03*
D19*
%TO.P,J2,1*%
%TO.N,D2*%
X142210000Y-135360000D03*
%TD*%
D18*
%TO.P,J4,4*%
%TO.N,GND*%
X165325000Y-100700000D03*
%TO.P,J4,3*%
%TO.N,D12*%
X165325000Y-105700000D03*
%TO.P,J4,2*%
%TO.N,D11*%
X165325000Y-110700000D03*
D19*
%TO.P,J4,1*%
%TO.N,VDD*%
X165325000Y-115700000D03*
%TD*%
D12*
%TO.P,J1,1*%
%TO.N,Net-(FB1-Pad2)*%
X161050000Y-89500000D03*
D20*
%TO.P,J1,2*%
%TO.N,D_IN_-*%
X161050000Y-87000000D03*
%TO.P,J1,3*%
%TO.N,D_IN_+*%
X163050000Y-87000000D03*
%TO.P,J1,4*%
%TO.N,GND*%
X163050000Y-89500000D03*
D21*
%TO.P,J1,5*%
X165760000Y-94270000D03*
X165760000Y-82230000D03*
%TD*%
D22*
%TO.P,U2,28*%
%TO.N,A5*%
X108000000Y-118780000D03*
%TO.P,U2,14*%
%TO.N,D8*%
X141020000Y-126400000D03*
%TO.P,U2,27*%
%TO.N,A4*%
X110540000Y-118780000D03*
%TO.P,U2,13*%
%TO.N,D7*%
X138480000Y-126400000D03*
%TO.P,U2,26*%
%TO.N,A3*%
X113080000Y-118780000D03*
%TO.P,U2,12*%
%TO.N,D6*%
X135940000Y-126400000D03*
%TO.P,U2,25*%
%TO.N,A2*%
X115620000Y-118780000D03*
%TO.P,U2,11*%
%TO.N,D5*%
X133400000Y-126400000D03*
%TO.P,U2,24*%
%TO.N,A1*%
X118160000Y-118780000D03*
%TO.P,U2,10*%
%TO.N,/X2*%
X130860000Y-126400000D03*
%TO.P,U2,23*%
%TO.N,A0*%
X120700000Y-118780000D03*
%TO.P,U2,9*%
%TO.N,/X1*%
X128320000Y-126400000D03*
%TO.P,U2,22*%
%TO.N,GND*%
X123240000Y-118780000D03*
%TO.P,U2,8*%
X125780000Y-126400000D03*
%TO.P,U2,21*%
%TO.N,Net-(C3-Pad1)*%
X125780000Y-118780000D03*
%TO.P,U2,7*%
%TO.N,VDD*%
X123240000Y-126400000D03*
%TO.P,U2,20*%
X128320000Y-118780000D03*
%TO.P,U2,6*%
%TO.N,D4*%
X120700000Y-126400000D03*
%TO.P,U2,19*%
%TO.N,D13*%
X130860000Y-118780000D03*
%TO.P,U2,5*%
%TO.N,D3*%
X118160000Y-126400000D03*
%TO.P,U2,18*%
%TO.N,D12*%
X133400000Y-118780000D03*
%TO.P,U2,4*%
%TO.N,D2*%
X115620000Y-126400000D03*
%TO.P,U2,17*%
%TO.N,D11*%
X135940000Y-118780000D03*
%TO.P,U2,3*%
%TO.N,RX*%
X113080000Y-126400000D03*
%TO.P,U2,16*%
%TO.N,D10*%
X138480000Y-118780000D03*
%TO.P,U2,2*%
%TO.N,TX*%
X110540000Y-126400000D03*
%TO.P,U2,15*%
%TO.N,BLA*%
X141020000Y-118780000D03*
D23*
%TO.P,U2,1*%
%TO.N,ICSP_RST*%
X108000000Y-126400000D03*
%TD*%
D24*
%TO.P,H4,1*%
%TO.N,GND*%
X94590990Y-132409010D03*
X93000000Y-131750000D03*
X91409010Y-132409010D03*
X90750000Y-134000000D03*
X91409010Y-135590990D03*
X93000000Y-136250000D03*
X94590990Y-135590990D03*
X95250000Y-134000000D03*
D25*
X93000000Y-134000000D03*
%TD*%
D11*
%TO.P,J3,16*%
%TO.N,GND*%
X135100000Y-88500000D03*
%TO.P,J3,15*%
%TO.N,BLA*%
X132560000Y-88500000D03*
%TO.P,J3,14*%
%TO.N,D8*%
X130020000Y-88500000D03*
%TO.P,J3,13*%
%TO.N,D7*%
X127480000Y-88500000D03*
%TO.P,J3,12*%
%TO.N,D6*%
X124940000Y-88500000D03*
%TO.P,J3,11*%
%TO.N,D5*%
X122400000Y-88500000D03*
%TO.P,J3,10*%
%TO.N,DB3*%
X119860000Y-88500000D03*
%TO.P,J3,9*%
%TO.N,DB2*%
X117320000Y-88500000D03*
%TO.P,J3,8*%
%TO.N,DB1*%
X114780000Y-88500000D03*
%TO.P,J3,7*%
%TO.N,DB0*%
X112240000Y-88500000D03*
%TO.P,J3,6*%
%TO.N,D4*%
X109700000Y-88500000D03*
%TO.P,J3,5*%
%TO.N,GND*%
X107160000Y-88500000D03*
%TO.P,J3,4*%
%TO.N,D3*%
X104620000Y-88500000D03*
%TO.P,J3,3*%
%TO.N,V0*%
X102080000Y-88500000D03*
%TO.P,J3,2*%
%TO.N,VDD*%
X99540000Y-88500000D03*
D12*
%TO.P,J3,1*%
%TO.N,GND*%
X97000000Y-88500000D03*
%TD*%
D24*
%TO.P,H1,1*%
%TO.N,GND*%
X94590990Y-72409010D03*
X93000000Y-71750000D03*
X91409010Y-72409010D03*
X90750000Y-74000000D03*
X91409010Y-75590990D03*
X93000000Y-76250000D03*
X94590990Y-75590990D03*
X95250000Y-74000000D03*
D25*
X93000000Y-74000000D03*
%TD*%
D24*
%TO.P,H2,1*%
%TO.N,GND*%
X165590990Y-72409010D03*
X164000000Y-71750000D03*
X162409010Y-72409010D03*
X161750000Y-74000000D03*
X162409010Y-75590990D03*
X164000000Y-76250000D03*
X165590990Y-75590990D03*
X166250000Y-74000000D03*
D25*
X164000000Y-74000000D03*
%TD*%
D24*
%TO.P,H3,1*%
%TO.N,GND*%
X165590990Y-132409010D03*
X164000000Y-131750000D03*
X162409010Y-132409010D03*
X161750000Y-134000000D03*
X162409010Y-135590990D03*
X164000000Y-136250000D03*
X165590990Y-135590990D03*
X166250000Y-134000000D03*
D25*
X164000000Y-134000000D03*
%TD*%
D11*
%TO.P,J5,6*%
%TO.N,GND*%
X118610000Y-107465000D03*
%TO.P,J5,5*%
%TO.N,ICSP_RST*%
X118610000Y-110005000D03*
%TO.P,J5,4*%
%TO.N,D11*%
X121150000Y-107465000D03*
%TO.P,J5,3*%
%TO.N,D13*%
X121150000Y-110005000D03*
%TO.P,J5,2*%
%TO.N,VDD*%
X123690000Y-107465000D03*
D12*
%TO.P,J5,1*%
%TO.N,D12*%
X123690000Y-110005000D03*
%TD*%
D17*
%TO.P,C1,1*%
%TO.N,GND*%
X152740000Y-88040000D03*
%TO.P,C1,2*%
%TO.N,VDD*%
X152740000Y-85540000D03*
%TD*%
%TO.P,C2,1*%
%TO.N,Net-(C2-Pad1)*%
X156130000Y-85530000D03*
%TO.P,C2,2*%
%TO.N,GND*%
X156130000Y-88030000D03*
%TD*%
%TO.P,C3,1*%
%TO.N,Net-(C3-Pad1)*%
X125620000Y-116000000D03*
%TO.P,C3,2*%
%TO.N,GND*%
X123120000Y-116000000D03*
%TD*%
%TO.P,C4,1*%
%TO.N,ICSP_RST*%
X92110000Y-128560000D03*
%TO.P,C4,2*%
%TO.N,DTR*%
X92110000Y-126060000D03*
%TD*%
%TO.P,C6,2*%
%TO.N,GND*%
X131170000Y-116000000D03*
%TO.P,C6,1*%
%TO.N,VDD*%
X128670000Y-116000000D03*
%TD*%
%TO.P,C7,2*%
%TO.N,/X1*%
X121800000Y-133800000D03*
%TO.P,C7,1*%
%TO.N,GND*%
X121800000Y-136300000D03*
%TD*%
%TO.P,C8,1*%
%TO.N,GND*%
X137150000Y-136300000D03*
%TO.P,C8,2*%
%TO.N,/X2*%
X137150000Y-133800000D03*
%TD*%
D10*
%TO.P,D1,2*%
%TO.N,Net-(D1-Pad2)*%
X137740000Y-73400000D03*
D14*
%TO.P,D1,1*%
%TO.N,Net-(D1-Pad1)*%
X135200000Y-73400000D03*
%TD*%
%TO.P,D2,1*%
%TO.N,Net-(D2-Pad1)*%
X141900000Y-73400000D03*
D10*
%TO.P,D2,2*%
%TO.N,Net-(D2-Pad2)*%
X144440000Y-73400000D03*
%TD*%
D17*
%TO.P,R1,1*%
%TO.N,TX*%
X109850000Y-103110000D03*
D22*
%TO.P,R1,2*%
%TO.N,Net-(R1-Pad2)*%
X122550000Y-103110000D03*
%TD*%
%TO.P,R2,2*%
%TO.N,Net-(R2-Pad2)*%
X122550000Y-99065000D03*
D17*
%TO.P,R2,1*%
%TO.N,RX*%
X109850000Y-99065000D03*
%TD*%
%TO.P,R3,1*%
%TO.N,VDD*%
X130875000Y-105765000D03*
D22*
%TO.P,R3,2*%
%TO.N,Net-(D1-Pad2)*%
X130875000Y-93065000D03*
%TD*%
%TO.P,R4,2*%
%TO.N,Net-(D2-Pad2)*%
X134875000Y-93065000D03*
D17*
%TO.P,R4,1*%
%TO.N,VDD*%
X134875000Y-105765000D03*
%TD*%
%TO.P,R6,1*%
%TO.N,VDD*%
X111300000Y-133700000D03*
D22*
%TO.P,R6,2*%
%TO.N,ICSP_RST*%
X98600000Y-133700000D03*
%TD*%
%TO.P,R7,2*%
%TO.N,/X2*%
X135800000Y-129750000D03*
D17*
%TO.P,R7,1*%
%TO.N,/X1*%
X123100000Y-129750000D03*
%TD*%
%TO.P,R8,1*%
%TO.N,D13*%
X147310000Y-122925000D03*
D22*
%TO.P,R8,2*%
%TO.N,Net-(J2-Pad2)*%
X160010000Y-122925000D03*
%TD*%
%TO.P,R9,2*%
%TO.N,VDD*%
X138875000Y-105765000D03*
D17*
%TO.P,R9,1*%
%TO.N,Net-(D4-Pad2)*%
X138875000Y-93065000D03*
%TD*%
D22*
%TO.P,R11,2*%
%TO.N,D2*%
X147310000Y-126730000D03*
D17*
%TO.P,R11,1*%
%TO.N,GND*%
X160010000Y-126730000D03*
%TD*%
D23*
%TO.P,C9,1*%
%TO.N,VDD*%
X151310000Y-96400000D03*
D17*
%TO.P,C9,2*%
%TO.N,GND*%
X149310000Y-96400000D03*
%TD*%
D26*
%TO.N,DTR*%
X144200000Y-89460000D03*
X102490000Y-109530000D03*
X104590000Y-107420000D03*
%TO.N,Net-(D1-Pad1)*%
X147190000Y-86660000D03*
%TO.N,Net-(D2-Pad1)*%
X147710000Y-85720000D03*
%TO.N,BLA*%
X140340000Y-114730000D03*
%TO.N,D2*%
X125780000Y-123590000D03*
X121990000Y-123590000D03*
%TO.N,Net-(R1-Pad2)*%
X139780000Y-90000000D03*
%TO.N,TX*%
X101350000Y-104300000D03*
%TO.N,Net-(R2-Pad2)*%
X139850000Y-87800000D03*
%TO.N,RX*%
X100910000Y-101570000D03*
%TO.N,GND*%
X164550000Y-89525000D03*
X163025000Y-91050000D03*
X165750000Y-91875000D03*
X168175000Y-94275000D03*
X163325000Y-94275000D03*
X165750000Y-96675000D03*
X165750000Y-84650000D03*
X168175000Y-82225000D03*
X165775000Y-79725000D03*
X163350000Y-82225000D03*
X139860000Y-128850000D03*
X119170000Y-128850000D03*
X119170000Y-131390000D03*
X119170000Y-133930000D03*
X119170000Y-136470000D03*
X139860000Y-131390000D03*
X139860000Y-133930000D03*
X139860000Y-136470000D03*
X158490000Y-81770000D03*
X140450000Y-86010000D03*
X147720000Y-83410000D03*
X160300000Y-83590000D03*
X160300000Y-85310000D03*
X152440000Y-83030000D03*
X151090000Y-87820000D03*
X151080000Y-88700000D03*
X151090000Y-85360000D03*
%TO.N,VBUS*%
X158990000Y-90050000D03*
%TD*%
D27*
%TO.N,Net-(C3-Pad1)*%
X125750000Y-118750000D02*
X125780000Y-118780000D01*
X125750000Y-116000000D02*
X125750000Y-118750000D01*
D28*
%TO.N,DTR*%
X106978010Y-105031990D02*
X104590000Y-107420000D01*
X107430000Y-104580000D02*
X106978010Y-105031990D01*
X125330000Y-103930000D02*
X124680000Y-104580000D01*
X133020000Y-103930000D02*
X125330000Y-103930000D01*
X124680000Y-104580000D02*
X107430000Y-104580000D01*
X144200000Y-92750000D02*
X133020000Y-103930000D01*
X144200000Y-89460000D02*
X144200000Y-92750000D01*
X92110000Y-119910000D02*
X93280000Y-118740000D01*
X92110000Y-126060000D02*
X92110000Y-119910000D01*
X93280000Y-118740000D02*
X102490000Y-109530000D01*
X93060000Y-118960000D02*
X93280000Y-118740000D01*
D29*
%TO.N,VDD*%
X121740000Y-127900000D02*
X123240000Y-126400000D01*
X111410000Y-133700000D02*
X117210000Y-127900000D01*
X117210000Y-127900000D02*
X121740000Y-127900000D01*
X111300000Y-133700000D02*
X111410000Y-133700000D01*
X152350000Y-135250000D02*
X152450000Y-135350000D01*
X155790000Y-96270000D02*
X155790000Y-96375000D01*
D27*
X128540000Y-116260000D02*
X128800000Y-116000000D01*
X128320000Y-118780000D02*
X128540000Y-118560000D01*
X99540000Y-104490000D02*
X105350000Y-110300000D01*
X128320000Y-119158118D02*
X128320000Y-118780000D01*
X123240000Y-124238118D02*
X128320000Y-119158118D01*
X123240000Y-126400000D02*
X123240000Y-124238118D01*
X155790000Y-96375000D02*
X159235000Y-96375000D01*
X159235000Y-96375000D02*
X161020000Y-98160000D01*
X161020000Y-98160000D02*
X166460000Y-98160000D01*
X166460000Y-98160000D02*
X167790000Y-99490000D01*
X167790000Y-113235000D02*
X165325000Y-115700000D01*
X167790000Y-99490000D02*
X167790000Y-113235000D01*
X152210000Y-135360000D02*
X152210000Y-133840000D01*
X152210000Y-133840000D02*
X156520000Y-129530000D01*
X156520000Y-129530000D02*
X161440000Y-129530000D01*
X165325000Y-125645000D02*
X165325000Y-115700000D01*
X161440000Y-129530000D02*
X165325000Y-125645000D01*
X99540000Y-104490000D02*
X99540000Y-88500000D01*
X138875000Y-105765000D02*
X138285000Y-105765000D01*
X138285000Y-105765000D02*
X134875000Y-105765000D01*
X134875000Y-105765000D02*
X130875000Y-105765000D01*
X125390000Y-105765000D02*
X123690000Y-107465000D01*
X130875000Y-105765000D02*
X125390000Y-105765000D01*
X123690000Y-107465000D02*
X125045000Y-107465000D01*
X128800000Y-111220000D02*
X128800000Y-116000000D01*
X125045000Y-107465000D02*
X128800000Y-111220000D01*
X105350000Y-110300000D02*
X113150000Y-110300000D01*
X114780000Y-111930000D02*
X114780000Y-114070000D01*
X113150000Y-110300000D02*
X114780000Y-111930000D01*
X123690000Y-107465000D02*
X123690000Y-106360000D01*
X123690000Y-106360000D02*
X122920000Y-105590000D01*
X122920000Y-105590000D02*
X116440000Y-105590000D01*
X116440000Y-105590000D02*
X114780000Y-107250000D01*
X113210000Y-110300000D02*
X114780000Y-108730000D01*
X113150000Y-110300000D02*
X113210000Y-110300000D01*
X114780000Y-108730000D02*
X114780000Y-114070000D01*
X114780000Y-107250000D02*
X114780000Y-108730000D01*
X113150000Y-110300000D02*
X113790000Y-110300000D01*
X114170000Y-110680000D02*
X113790000Y-110300000D01*
X113790000Y-110300000D02*
X113960000Y-110300000D01*
X114780000Y-109480000D02*
X114780000Y-108730000D01*
X113960000Y-110300000D02*
X114780000Y-109480000D01*
X128670000Y-117280000D02*
X128670000Y-116000000D01*
X128320000Y-117630000D02*
X128670000Y-117280000D01*
X128320000Y-118780000D02*
X128320000Y-117630000D01*
D29*
X106160000Y-128560000D02*
X106815000Y-129215000D01*
X102890000Y-128560000D02*
X106160000Y-128560000D01*
X106815000Y-129215000D02*
X111300000Y-133700000D01*
X106480000Y-128880000D02*
X106815000Y-129215000D01*
X99500000Y-88460000D02*
X99540000Y-88500000D01*
X99500000Y-80900000D02*
X99500000Y-88460000D01*
D27*
X151335000Y-96375000D02*
X151310000Y-96400000D01*
X155790000Y-96375000D02*
X151335000Y-96375000D01*
X151310000Y-100520000D02*
X151310000Y-96400000D01*
X146065000Y-105765000D02*
X151310000Y-100520000D01*
X138875000Y-105765000D02*
X146065000Y-105765000D01*
X154430000Y-86270000D02*
X153700000Y-85540000D01*
X153700000Y-85540000D02*
X152740000Y-85540000D01*
X154430000Y-88770000D02*
X154430000Y-86270000D01*
X151310000Y-91890000D02*
X154430000Y-88770000D01*
X151310000Y-96400000D02*
X151310000Y-91890000D01*
D28*
%TO.N,Net-(D1-Pad1)*%
X135200000Y-75130000D02*
X135200000Y-73400000D01*
X138120000Y-78050000D02*
X135200000Y-75130000D01*
X144820000Y-78050000D02*
X138120000Y-78050000D01*
X145780000Y-79010000D02*
X144820000Y-78050000D01*
X145780000Y-85750000D02*
X145780000Y-79010000D01*
X146690000Y-86660000D02*
X145780000Y-85750000D01*
X147190000Y-86660000D02*
X146690000Y-86660000D01*
%TO.N,Net-(D2-Pad1)*%
X141900000Y-74850000D02*
X141900000Y-73400000D01*
X143510000Y-76460000D02*
X141900000Y-74850000D01*
X145060000Y-76460000D02*
X143510000Y-76460000D01*
X146760000Y-78160000D02*
X145060000Y-76460000D01*
X146760000Y-84770000D02*
X146760000Y-78160000D01*
X147710000Y-85720000D02*
X146760000Y-84770000D01*
%TO.N,D12*%
X133400000Y-117100000D02*
X133400000Y-118780000D01*
X138125000Y-112375000D02*
X133400000Y-117100000D01*
X145800000Y-112375000D02*
X138125000Y-112375000D01*
X152475000Y-105700000D02*
X145800000Y-112375000D01*
X165325000Y-105700000D02*
X152475000Y-105700000D01*
%TO.N,D11*%
X135940000Y-116560000D02*
X135940000Y-118780000D01*
X138750000Y-113750000D02*
X135940000Y-116560000D01*
X146767066Y-113750000D02*
X138750000Y-113750000D01*
X149817066Y-110700000D02*
X146767066Y-113750000D01*
X165325000Y-110700000D02*
X149817066Y-110700000D01*
D29*
%TO.N,V0*%
X102080000Y-88500000D02*
X102080000Y-83720000D01*
X107400000Y-78400000D02*
X109500000Y-78400000D01*
X102080000Y-83720000D02*
X107400000Y-78400000D01*
D28*
%TO.N,BLA*%
X141020000Y-115410000D02*
X140340000Y-114730000D01*
X141020000Y-118780000D02*
X141020000Y-115410000D01*
%TO.N,D2*%
X115620000Y-124970000D02*
X115620000Y-126400000D01*
X116990000Y-123600000D02*
X115620000Y-124970000D01*
D29*
X142450000Y-135350000D02*
X142450000Y-134550000D01*
D28*
X142210000Y-131830000D02*
X147310000Y-126730000D01*
X142210000Y-135360000D02*
X142210000Y-131830000D01*
X121980000Y-123600000D02*
X121990000Y-123590000D01*
X116990000Y-123600000D02*
X121980000Y-123600000D01*
X128275000Y-124725000D02*
X145305000Y-124725000D01*
X127140000Y-123590000D02*
X128275000Y-124725000D01*
X145305000Y-124725000D02*
X147310000Y-126730000D01*
X125780000Y-123590000D02*
X127140000Y-123590000D01*
%TO.N,Net-(R1-Pad2)*%
X139780000Y-90150000D02*
X139780000Y-90000000D01*
X126465000Y-103115000D02*
X126815000Y-103115000D01*
X122600000Y-103115000D02*
X126465000Y-103115000D01*
X129335000Y-103115000D02*
X126465000Y-103115000D01*
X137210000Y-95240000D02*
X129335000Y-103115000D01*
X137210000Y-92570000D02*
X137210000Y-95240000D01*
X139780000Y-90000000D02*
X137210000Y-92570000D01*
%TO.N,TX*%
X102535000Y-103115000D02*
X101350000Y-104300000D01*
X109900000Y-103115000D02*
X102535000Y-103115000D01*
%TO.N,Net-(R2-Pad2)*%
X131585000Y-99065000D02*
X122550000Y-99065000D01*
X136550000Y-94100000D02*
X131585000Y-99065000D01*
X136550000Y-91100000D02*
X136550000Y-94100000D01*
X139850000Y-87800000D02*
X136550000Y-91100000D01*
%TO.N,RX*%
X103415000Y-99065000D02*
X100910000Y-101570000D01*
X109850000Y-99065000D02*
X103415000Y-99065000D01*
%TO.N,D13*%
X135005000Y-122925000D02*
X147310000Y-122925000D01*
X130860000Y-118780000D02*
X135005000Y-122925000D01*
D29*
%TO.N,ICSP_RST*%
X95980000Y-128780000D02*
X96080000Y-128880000D01*
D28*
X108000000Y-126400000D02*
X108000000Y-125350000D01*
X108000000Y-125350000D02*
X112630000Y-120720000D01*
X112630000Y-120720000D02*
X116110000Y-120720000D01*
X116110000Y-120720000D02*
X116890000Y-119940000D01*
X116890000Y-119940000D02*
X116890000Y-115000000D01*
X118610000Y-113280000D02*
X118610000Y-110005000D01*
X116890000Y-115000000D02*
X118610000Y-113280000D01*
D29*
X104410000Y-126400000D02*
X108000000Y-126400000D01*
X103050000Y-126400000D02*
X104410000Y-126400000D01*
X101790000Y-125140000D02*
X103050000Y-126400000D01*
X92110000Y-128560000D02*
X95270000Y-128560000D01*
X95270000Y-125160000D02*
X95290000Y-125140000D01*
X95270000Y-128560000D02*
X95270000Y-125160000D01*
X95290000Y-125140000D02*
X101790000Y-125140000D01*
X95270000Y-128560000D02*
X97110000Y-128560000D01*
X98600000Y-130050000D02*
X98600000Y-133700000D01*
X97110000Y-128560000D02*
X98600000Y-130050000D01*
D27*
%TO.N,/X1*%
X121800000Y-131050000D02*
X123100000Y-129750000D01*
X121800000Y-133800000D02*
X121800000Y-131050000D01*
X126050000Y-133800000D02*
X127020000Y-134770000D01*
X121800000Y-133800000D02*
X126050000Y-133800000D01*
X128320000Y-128020000D02*
X128320000Y-126400000D01*
X126590000Y-129750000D02*
X128320000Y-128020000D01*
X123100000Y-129750000D02*
X126590000Y-129750000D01*
%TO.N,/X2*%
X137150000Y-133800000D02*
X137150000Y-131000000D01*
X135900000Y-129750000D02*
X135800000Y-129750000D01*
X137150000Y-131000000D02*
X135900000Y-129750000D01*
X132870000Y-133800000D02*
X131900000Y-134770000D01*
X137150000Y-133800000D02*
X132870000Y-133800000D01*
X132610000Y-129750000D02*
X135800000Y-129750000D01*
X130860000Y-128000000D02*
X132610000Y-129750000D01*
X130860000Y-126400000D02*
X130860000Y-128000000D01*
%TO.N,GND*%
X164525000Y-89500000D02*
X164550000Y-89525000D01*
X163050000Y-89500000D02*
X164525000Y-89500000D01*
X163050000Y-91025000D02*
X163025000Y-91050000D01*
X163050000Y-89500000D02*
X163050000Y-91025000D01*
X165750000Y-94260000D02*
X165760000Y-94270000D01*
X165750000Y-91875000D02*
X165750000Y-94260000D01*
X165755000Y-94275000D02*
X165760000Y-94270000D01*
X163325000Y-94275000D02*
X165755000Y-94275000D01*
X168170000Y-94270000D02*
X168175000Y-94275000D01*
X165760000Y-94270000D02*
X168170000Y-94270000D01*
X165760000Y-96665000D02*
X165750000Y-96675000D01*
X165760000Y-94270000D02*
X165760000Y-96665000D01*
X165760000Y-79740000D02*
X165775000Y-79725000D01*
X165760000Y-82230000D02*
X165760000Y-79740000D01*
X163355000Y-82230000D02*
X163350000Y-82225000D01*
X165760000Y-82230000D02*
X163355000Y-82230000D01*
X168170000Y-82230000D02*
X168175000Y-82225000D01*
X165760000Y-82230000D02*
X168170000Y-82230000D01*
X165760000Y-84640000D02*
X165750000Y-84650000D01*
X165760000Y-82230000D02*
X165760000Y-84640000D01*
D29*
%TO.N,VBUS*%
X155345000Y-91900000D02*
X155320000Y-91925000D01*
D27*
X159010000Y-91925000D02*
X159015000Y-91930000D01*
X155320000Y-91925000D02*
X159010000Y-91925000D01*
D29*
X158990000Y-90050000D02*
X158990000Y-91905000D01*
X158990000Y-91905000D02*
X159015000Y-91930000D01*
%TO.N,Net-(J2-Pad2)*%
X147460000Y-135360000D02*
X147210000Y-135360000D01*
D28*
X159645000Y-122925000D02*
X160010000Y-122925000D01*
X147210000Y-135360000D02*
X159645000Y-122925000D01*
D27*
%TO.N,Net-(FB1-Pad2)*%
X161050000Y-91915000D02*
X161065000Y-91930000D01*
X161050000Y-89500000D02*
X161050000Y-91915000D01*
%TD*%
D28*
%TO.N,GND*%
X161507468Y-76672140D02*
X161552608Y-76627000D01*
X161669869Y-76627000D01*
X161957106Y-77027868D01*
X162587068Y-77368237D01*
X163271327Y-77579166D01*
X163983589Y-77652550D01*
X164696482Y-77585569D01*
X165382609Y-77380796D01*
X166015603Y-77046102D01*
X166042894Y-77027868D01*
X166330131Y-76627000D01*
X166447392Y-76627000D01*
X166492532Y-76672140D01*
X166537672Y-76627000D01*
X169373000Y-76627000D01*
X169373000Y-97373000D01*
X161234263Y-97373000D01*
X159800872Y-95939609D01*
X164269997Y-95939609D01*
X164456073Y-96280766D01*
X164873409Y-96496513D01*
X165324815Y-96626696D01*
X165792946Y-96666313D01*
X166259811Y-96613842D01*
X166707468Y-96471297D01*
X167063927Y-96280766D01*
X167250003Y-95939609D01*
X165760000Y-94449605D01*
X164269997Y-95939609D01*
X159800872Y-95939609D01*
X159760223Y-95898961D01*
X159738053Y-95871947D01*
X159630247Y-95783472D01*
X159507251Y-95717729D01*
X159373792Y-95677245D01*
X159269774Y-95667000D01*
X159269766Y-95667000D01*
X159235000Y-95663576D01*
X159200234Y-95667000D01*
X157258259Y-95667000D01*
X157251074Y-95653557D01*
X157179120Y-95565880D01*
X157091443Y-95493926D01*
X156991414Y-95440460D01*
X156882877Y-95407535D01*
X156770001Y-95396418D01*
X153869999Y-95396418D01*
X153757123Y-95407535D01*
X153648586Y-95440460D01*
X153548557Y-95493926D01*
X153460880Y-95565880D01*
X153388926Y-95653557D01*
X153381741Y-95667000D01*
X152438582Y-95667000D01*
X152438582Y-95600000D01*
X152432268Y-95535897D01*
X152413570Y-95474257D01*
X152383206Y-95417450D01*
X152342343Y-95367657D01*
X152292550Y-95326794D01*
X152235743Y-95296430D01*
X152174103Y-95277732D01*
X152110000Y-95271418D01*
X152018000Y-95271418D01*
X152018000Y-94302946D01*
X163363687Y-94302946D01*
X163416158Y-94769811D01*
X163558703Y-95217468D01*
X163749234Y-95573927D01*
X164090391Y-95760003D01*
X165580395Y-94270000D01*
X165939605Y-94270000D01*
X167429609Y-95760003D01*
X167770766Y-95573927D01*
X167986513Y-95156591D01*
X168116696Y-94705185D01*
X168156313Y-94237054D01*
X168103842Y-93770189D01*
X167961297Y-93322532D01*
X167770766Y-92966073D01*
X167429609Y-92779997D01*
X165939605Y-94270000D01*
X165580395Y-94270000D01*
X164090391Y-92779997D01*
X163749234Y-92966073D01*
X163533487Y-93383409D01*
X163403304Y-93834815D01*
X163363687Y-94302946D01*
X152018000Y-94302946D01*
X152018000Y-92183262D01*
X152676263Y-91524999D01*
X153291418Y-91524999D01*
X153291418Y-92325001D01*
X153302535Y-92437877D01*
X153335460Y-92546414D01*
X153388926Y-92646443D01*
X153460880Y-92734120D01*
X153548557Y-92806074D01*
X153648586Y-92859540D01*
X153757123Y-92892465D01*
X153869999Y-92903582D01*
X156770001Y-92903582D01*
X156882877Y-92892465D01*
X156991414Y-92859540D01*
X157091443Y-92806074D01*
X157179120Y-92734120D01*
X157251074Y-92646443D01*
X157258259Y-92633000D01*
X158172343Y-92633000D01*
X158208926Y-92701443D01*
X158280880Y-92789120D01*
X158368557Y-92861074D01*
X158468586Y-92914540D01*
X158577123Y-92947465D01*
X158689999Y-92958582D01*
X159340001Y-92958582D01*
X159452877Y-92947465D01*
X159561414Y-92914540D01*
X159661443Y-92861074D01*
X159749120Y-92789120D01*
X159821074Y-92701443D01*
X159874540Y-92601414D01*
X159907465Y-92492877D01*
X159918582Y-92380001D01*
X159918582Y-91479999D01*
X159907465Y-91367123D01*
X159874540Y-91258586D01*
X159821074Y-91158557D01*
X159749120Y-91070880D01*
X159661443Y-90998926D01*
X159571000Y-90950584D01*
X159571000Y-90489038D01*
X159634259Y-90394364D01*
X159689062Y-90262058D01*
X159717000Y-90121603D01*
X159717000Y-89978397D01*
X159689062Y-89837942D01*
X159634259Y-89705636D01*
X159554698Y-89586564D01*
X159453436Y-89485302D01*
X159334364Y-89405741D01*
X159202058Y-89350938D01*
X159061603Y-89323000D01*
X158918397Y-89323000D01*
X158777942Y-89350938D01*
X158645636Y-89405741D01*
X158526564Y-89485302D01*
X158425302Y-89586564D01*
X158345741Y-89705636D01*
X158290938Y-89837942D01*
X158263000Y-89978397D01*
X158263000Y-90121603D01*
X158290938Y-90262058D01*
X158345741Y-90394364D01*
X158409000Y-90489039D01*
X158409000Y-90977309D01*
X158368557Y-90998926D01*
X158280880Y-91070880D01*
X158208926Y-91158557D01*
X158177688Y-91217000D01*
X157258259Y-91217000D01*
X157251074Y-91203557D01*
X157179120Y-91115880D01*
X157091443Y-91043926D01*
X156991414Y-90990460D01*
X156882877Y-90957535D01*
X156770001Y-90946418D01*
X153869999Y-90946418D01*
X153757123Y-90957535D01*
X153648586Y-90990460D01*
X153548557Y-91043926D01*
X153460880Y-91115880D01*
X153388926Y-91203557D01*
X153335460Y-91303586D01*
X153302535Y-91412123D01*
X153291418Y-91524999D01*
X152676263Y-91524999D01*
X154906049Y-89295214D01*
X154933052Y-89273053D01*
X154955214Y-89246049D01*
X154955220Y-89246043D01*
X154988194Y-89205863D01*
X155021528Y-89165247D01*
X155087271Y-89042251D01*
X155093201Y-89022702D01*
X155316903Y-89022702D01*
X155388486Y-89266671D01*
X155643996Y-89387571D01*
X155918184Y-89456300D01*
X156200512Y-89470217D01*
X156480130Y-89428787D01*
X156746292Y-89333603D01*
X156871514Y-89266671D01*
X156943097Y-89022702D01*
X156130000Y-88209605D01*
X155316903Y-89022702D01*
X155093201Y-89022702D01*
X155127755Y-88908792D01*
X155134312Y-88842221D01*
X155137298Y-88843097D01*
X155950395Y-88030000D01*
X156309605Y-88030000D01*
X157122702Y-88843097D01*
X157366671Y-88771514D01*
X157424167Y-88650000D01*
X159871418Y-88650000D01*
X159871418Y-90350000D01*
X159877732Y-90414103D01*
X159896430Y-90475743D01*
X159926794Y-90532550D01*
X159967657Y-90582343D01*
X160017450Y-90623206D01*
X160074257Y-90653570D01*
X160135897Y-90672268D01*
X160200000Y-90678582D01*
X160342000Y-90678582D01*
X160342001Y-91061754D01*
X160330880Y-91070880D01*
X160258926Y-91158557D01*
X160205460Y-91258586D01*
X160172535Y-91367123D01*
X160161418Y-91479999D01*
X160161418Y-92380001D01*
X160172535Y-92492877D01*
X160205460Y-92601414D01*
X160258926Y-92701443D01*
X160330880Y-92789120D01*
X160418557Y-92861074D01*
X160518586Y-92914540D01*
X160627123Y-92947465D01*
X160739999Y-92958582D01*
X161390001Y-92958582D01*
X161502877Y-92947465D01*
X161611414Y-92914540D01*
X161711443Y-92861074D01*
X161799120Y-92789120D01*
X161871074Y-92701443D01*
X161924540Y-92601414D01*
X161924850Y-92600391D01*
X164269997Y-92600391D01*
X165760000Y-94090395D01*
X167250003Y-92600391D01*
X167063927Y-92259234D01*
X166646591Y-92043487D01*
X166195185Y-91913304D01*
X165727054Y-91873687D01*
X165260189Y-91926158D01*
X164812532Y-92068703D01*
X164456073Y-92259234D01*
X164269997Y-92600391D01*
X161924850Y-92600391D01*
X161957465Y-92492877D01*
X161968582Y-92380001D01*
X161968582Y-91479999D01*
X161957465Y-91367123D01*
X161924540Y-91258586D01*
X161871074Y-91158557D01*
X161799120Y-91070880D01*
X161758000Y-91037134D01*
X161758000Y-90678582D01*
X161900000Y-90678582D01*
X161964103Y-90672268D01*
X162025743Y-90653570D01*
X162070335Y-90629735D01*
X162085104Y-90644504D01*
X162201209Y-90528399D01*
X162278843Y-90777472D01*
X162542883Y-90903371D01*
X162826411Y-90975339D01*
X163118531Y-90990611D01*
X163408019Y-90948599D01*
X163683747Y-90850919D01*
X163821157Y-90777472D01*
X163898792Y-90528397D01*
X163050000Y-89679605D01*
X163035858Y-89693748D01*
X162856253Y-89514143D01*
X162870395Y-89500000D01*
X163229605Y-89500000D01*
X164078397Y-90348792D01*
X164327472Y-90271157D01*
X164453371Y-90007117D01*
X164525339Y-89723589D01*
X164540611Y-89431469D01*
X164498599Y-89141981D01*
X164400919Y-88866253D01*
X164327472Y-88728843D01*
X164078397Y-88651208D01*
X163229605Y-89500000D01*
X162870395Y-89500000D01*
X162856253Y-89485858D01*
X163035858Y-89306253D01*
X163050000Y-89320395D01*
X163898792Y-88471603D01*
X163821157Y-88222528D01*
X163557117Y-88096629D01*
X163508156Y-88084201D01*
X163607519Y-88043044D01*
X163800294Y-87914236D01*
X163964236Y-87750294D01*
X164093044Y-87557519D01*
X164181769Y-87343318D01*
X164227000Y-87115924D01*
X164227000Y-86884076D01*
X164181769Y-86656682D01*
X164093044Y-86442481D01*
X163964236Y-86249706D01*
X163800294Y-86085764D01*
X163607519Y-85956956D01*
X163393318Y-85868231D01*
X163165924Y-85823000D01*
X162934076Y-85823000D01*
X162706682Y-85868231D01*
X162492481Y-85956956D01*
X162299706Y-86085764D01*
X162135764Y-86249706D01*
X162050000Y-86378061D01*
X161964236Y-86249706D01*
X161800294Y-86085764D01*
X161607519Y-85956956D01*
X161393318Y-85868231D01*
X161165924Y-85823000D01*
X160934076Y-85823000D01*
X160706682Y-85868231D01*
X160492481Y-85956956D01*
X160299706Y-86085764D01*
X160135764Y-86249706D01*
X160006956Y-86442481D01*
X159918231Y-86656682D01*
X159873000Y-86884076D01*
X159873000Y-87115924D01*
X159918231Y-87343318D01*
X160006956Y-87557519D01*
X160135764Y-87750294D01*
X160299706Y-87914236D01*
X160492481Y-88043044D01*
X160706682Y-88131769D01*
X160934076Y-88177000D01*
X161165924Y-88177000D01*
X161393318Y-88131769D01*
X161607519Y-88043044D01*
X161800294Y-87914236D01*
X161964236Y-87750294D01*
X162050000Y-87621939D01*
X162135764Y-87750294D01*
X162299706Y-87914236D01*
X162492481Y-88043044D01*
X162595324Y-88085643D01*
X162416253Y-88149081D01*
X162278843Y-88222528D01*
X162201209Y-88471601D01*
X162085104Y-88355496D01*
X162070335Y-88370265D01*
X162025743Y-88346430D01*
X161964103Y-88327732D01*
X161900000Y-88321418D01*
X160200000Y-88321418D01*
X160135897Y-88327732D01*
X160074257Y-88346430D01*
X160017450Y-88376794D01*
X159967657Y-88417657D01*
X159926794Y-88467450D01*
X159896430Y-88524257D01*
X159877732Y-88585897D01*
X159871418Y-88650000D01*
X157424167Y-88650000D01*
X157487571Y-88516004D01*
X157556300Y-88241816D01*
X157570217Y-87959488D01*
X157528787Y-87679870D01*
X157433603Y-87413708D01*
X157366671Y-87288486D01*
X157122702Y-87216903D01*
X156309605Y-88030000D01*
X155950395Y-88030000D01*
X155936253Y-88015858D01*
X156115858Y-87836253D01*
X156130000Y-87850395D01*
X156943097Y-87037298D01*
X156871514Y-86793329D01*
X156616004Y-86672429D01*
X156415767Y-86622237D01*
X156458734Y-86613690D01*
X156663835Y-86528734D01*
X156848421Y-86405398D01*
X157005398Y-86248421D01*
X157128734Y-86063835D01*
X157213690Y-85858734D01*
X157257000Y-85641000D01*
X157257000Y-85419000D01*
X157213690Y-85201266D01*
X157128734Y-84996165D01*
X157005398Y-84811579D01*
X156848421Y-84654602D01*
X156663835Y-84531266D01*
X156458734Y-84446310D01*
X156241000Y-84403000D01*
X156019000Y-84403000D01*
X155801266Y-84446310D01*
X155596165Y-84531266D01*
X155411579Y-84654602D01*
X155254602Y-84811579D01*
X155131266Y-84996165D01*
X155046310Y-85201266D01*
X155003000Y-85419000D01*
X155003000Y-85641000D01*
X155046310Y-85858734D01*
X155131266Y-86063835D01*
X155254602Y-86248421D01*
X155411579Y-86405398D01*
X155596165Y-86528734D01*
X155801266Y-86613690D01*
X155842619Y-86621916D01*
X155779870Y-86631213D01*
X155513708Y-86726397D01*
X155388486Y-86793329D01*
X155316903Y-87037296D01*
X155200630Y-86921023D01*
X155138000Y-86983653D01*
X155138000Y-86304766D01*
X155141424Y-86270000D01*
X155138000Y-86235233D01*
X155138000Y-86235226D01*
X155127755Y-86131208D01*
X155087271Y-85997749D01*
X155021528Y-85874753D01*
X154979055Y-85823000D01*
X154955220Y-85793957D01*
X154955219Y-85793956D01*
X154933053Y-85766947D01*
X154906044Y-85744781D01*
X154225223Y-85063961D01*
X154203053Y-85036947D01*
X154095247Y-84948472D01*
X153972251Y-84882729D01*
X153838792Y-84842245D01*
X153734774Y-84832000D01*
X153734766Y-84832000D01*
X153700000Y-84828576D01*
X153665234Y-84832000D01*
X153622361Y-84832000D01*
X153615398Y-84821579D01*
X153458421Y-84664602D01*
X153273835Y-84541266D01*
X153068734Y-84456310D01*
X152851000Y-84413000D01*
X152629000Y-84413000D01*
X152411266Y-84456310D01*
X152206165Y-84541266D01*
X152021579Y-84664602D01*
X151864602Y-84821579D01*
X151741266Y-85006165D01*
X151656310Y-85211266D01*
X151613000Y-85429000D01*
X151613000Y-85651000D01*
X151656310Y-85868734D01*
X151741266Y-86073835D01*
X151864602Y-86258421D01*
X152021579Y-86415398D01*
X152206165Y-86538734D01*
X152411266Y-86623690D01*
X152452619Y-86631916D01*
X152389870Y-86641213D01*
X152123708Y-86736397D01*
X151998486Y-86803329D01*
X151926903Y-87047298D01*
X152740000Y-87860395D01*
X152754143Y-87846253D01*
X152933748Y-88025858D01*
X152919605Y-88040000D01*
X152933748Y-88054143D01*
X152754143Y-88233748D01*
X152740000Y-88219605D01*
X151926903Y-89032702D01*
X151998486Y-89276671D01*
X152253996Y-89397571D01*
X152528184Y-89466300D01*
X152722842Y-89475895D01*
X150833957Y-91364781D01*
X150806948Y-91386947D01*
X150784782Y-91413956D01*
X150784780Y-91413958D01*
X150718472Y-91494754D01*
X150652729Y-91617750D01*
X150612245Y-91751209D01*
X150598576Y-91890000D01*
X150602001Y-91924776D01*
X150602000Y-95271418D01*
X150510000Y-95271418D01*
X150445897Y-95277732D01*
X150384257Y-95296430D01*
X150327450Y-95326794D01*
X150298719Y-95350372D01*
X150239370Y-95291023D01*
X150123097Y-95407296D01*
X150051514Y-95163329D01*
X149796004Y-95042429D01*
X149521816Y-94973700D01*
X149239488Y-94959783D01*
X148959870Y-95001213D01*
X148693708Y-95096397D01*
X148568486Y-95163329D01*
X148496903Y-95407298D01*
X149310000Y-96220395D01*
X149324143Y-96206253D01*
X149503748Y-96385858D01*
X149489605Y-96400000D01*
X149503748Y-96414143D01*
X149324143Y-96593748D01*
X149310000Y-96579605D01*
X149295858Y-96593748D01*
X149116253Y-96414143D01*
X149130395Y-96400000D01*
X148317298Y-95586903D01*
X148073329Y-95658486D01*
X147952429Y-95913996D01*
X147883700Y-96188184D01*
X147869783Y-96470512D01*
X147911213Y-96750130D01*
X148006397Y-97016292D01*
X148073329Y-97141514D01*
X148317296Y-97213097D01*
X148201023Y-97329370D01*
X148244653Y-97373000D01*
X147627000Y-97373000D01*
X147627000Y-88110512D01*
X151299783Y-88110512D01*
X151341213Y-88390130D01*
X151436397Y-88656292D01*
X151503329Y-88781514D01*
X151747298Y-88853097D01*
X152560395Y-88040000D01*
X151747298Y-87226903D01*
X151503329Y-87298486D01*
X151382429Y-87553996D01*
X151313700Y-87828184D01*
X151299783Y-88110512D01*
X147627000Y-88110512D01*
X147627000Y-87242362D01*
X147653436Y-87224698D01*
X147754698Y-87123436D01*
X147834259Y-87004364D01*
X147889062Y-86872058D01*
X147917000Y-86731603D01*
X147917000Y-86588397D01*
X147889062Y-86447942D01*
X147880522Y-86427324D01*
X147922058Y-86419062D01*
X148054364Y-86364259D01*
X148173436Y-86284698D01*
X148274698Y-86183436D01*
X148354259Y-86064364D01*
X148409062Y-85932058D01*
X148437000Y-85791603D01*
X148437000Y-85648397D01*
X148409062Y-85507942D01*
X148354259Y-85375636D01*
X148274698Y-85256564D01*
X148173436Y-85155302D01*
X148054364Y-85075741D01*
X147922058Y-85020938D01*
X147781603Y-84993000D01*
X147638397Y-84993000D01*
X147627267Y-84995214D01*
X147627000Y-84994947D01*
X147627000Y-83899609D01*
X164269997Y-83899609D01*
X164456073Y-84240766D01*
X164873409Y-84456513D01*
X165324815Y-84586696D01*
X165792946Y-84626313D01*
X166259811Y-84573842D01*
X166707468Y-84431297D01*
X167063927Y-84240766D01*
X167250003Y-83899609D01*
X165760000Y-82409605D01*
X164269997Y-83899609D01*
X147627000Y-83899609D01*
X147627000Y-82262946D01*
X163363687Y-82262946D01*
X163416158Y-82729811D01*
X163558703Y-83177468D01*
X163749234Y-83533927D01*
X164090391Y-83720003D01*
X165580395Y-82230000D01*
X165939605Y-82230000D01*
X167429609Y-83720003D01*
X167770766Y-83533927D01*
X167986513Y-83116591D01*
X168116696Y-82665185D01*
X168156313Y-82197054D01*
X168103842Y-81730189D01*
X167961297Y-81282532D01*
X167770766Y-80926073D01*
X167429609Y-80739997D01*
X165939605Y-82230000D01*
X165580395Y-82230000D01*
X164090391Y-80739997D01*
X163749234Y-80926073D01*
X163533487Y-81343409D01*
X163403304Y-81794815D01*
X163363687Y-82262946D01*
X147627000Y-82262946D01*
X147627000Y-80560391D01*
X164269997Y-80560391D01*
X165760000Y-82050395D01*
X167250003Y-80560391D01*
X167063927Y-80219234D01*
X166646591Y-80003487D01*
X166195185Y-79873304D01*
X165727054Y-79833687D01*
X165260189Y-79886158D01*
X164812532Y-80028703D01*
X164456073Y-80219234D01*
X164269997Y-80560391D01*
X147627000Y-80560391D01*
X147627000Y-78309000D01*
X154413000Y-78309000D01*
X154413000Y-78531000D01*
X154456310Y-78748734D01*
X154541266Y-78953835D01*
X154664602Y-79138421D01*
X154821579Y-79295398D01*
X155006165Y-79418734D01*
X155211266Y-79503690D01*
X155429000Y-79547000D01*
X155651000Y-79547000D01*
X155868734Y-79503690D01*
X156073835Y-79418734D01*
X156082862Y-79412702D01*
X157226903Y-79412702D01*
X157298486Y-79656671D01*
X157553996Y-79777571D01*
X157828184Y-79846300D01*
X158110512Y-79860217D01*
X158390130Y-79818787D01*
X158656292Y-79723603D01*
X158781514Y-79656671D01*
X158853097Y-79412702D01*
X158040000Y-78599605D01*
X157226903Y-79412702D01*
X156082862Y-79412702D01*
X156258421Y-79295398D01*
X156415398Y-79138421D01*
X156538734Y-78953835D01*
X156623690Y-78748734D01*
X156631916Y-78707381D01*
X156641213Y-78770130D01*
X156736397Y-79036292D01*
X156803329Y-79161514D01*
X157047298Y-79233097D01*
X157860395Y-78420000D01*
X158219605Y-78420000D01*
X159032702Y-79233097D01*
X159276671Y-79161514D01*
X159397571Y-78906004D01*
X159466300Y-78631816D01*
X159480217Y-78349488D01*
X159438787Y-78069870D01*
X159343603Y-77803708D01*
X159276671Y-77678486D01*
X159032702Y-77606903D01*
X158219605Y-78420000D01*
X157860395Y-78420000D01*
X157047298Y-77606903D01*
X156803329Y-77678486D01*
X156682429Y-77933996D01*
X156632237Y-78134233D01*
X156623690Y-78091266D01*
X156538734Y-77886165D01*
X156415398Y-77701579D01*
X156258421Y-77544602D01*
X156082863Y-77427298D01*
X157226903Y-77427298D01*
X158040000Y-78240395D01*
X158853097Y-77427298D01*
X158781514Y-77183329D01*
X158526004Y-77062429D01*
X158251816Y-76993700D01*
X157969488Y-76979783D01*
X157689870Y-77021213D01*
X157423708Y-77116397D01*
X157298486Y-77183329D01*
X157226903Y-77427298D01*
X156082863Y-77427298D01*
X156073835Y-77421266D01*
X155868734Y-77336310D01*
X155651000Y-77293000D01*
X155429000Y-77293000D01*
X155211266Y-77336310D01*
X155006165Y-77421266D01*
X154821579Y-77544602D01*
X154664602Y-77701579D01*
X154541266Y-77886165D01*
X154456310Y-78091266D01*
X154413000Y-78309000D01*
X147627000Y-78309000D01*
X147627000Y-76627000D01*
X161462328Y-76627000D01*
X161507468Y-76672140D01*
%TA.AperFunction,Conductor*%
D30*
G36*
X161507468Y-76672140D02*
G01*
X161552608Y-76627000D01*
X161669869Y-76627000D01*
X161957106Y-77027868D01*
X162587068Y-77368237D01*
X163271327Y-77579166D01*
X163983589Y-77652550D01*
X164696482Y-77585569D01*
X165382609Y-77380796D01*
X166015603Y-77046102D01*
X166042894Y-77027868D01*
X166330131Y-76627000D01*
X166447392Y-76627000D01*
X166492532Y-76672140D01*
X166537672Y-76627000D01*
X169373000Y-76627000D01*
X169373000Y-97373000D01*
X161234263Y-97373000D01*
X159800872Y-95939609D01*
X164269997Y-95939609D01*
X164456073Y-96280766D01*
X164873409Y-96496513D01*
X165324815Y-96626696D01*
X165792946Y-96666313D01*
X166259811Y-96613842D01*
X166707468Y-96471297D01*
X167063927Y-96280766D01*
X167250003Y-95939609D01*
X165760000Y-94449605D01*
X164269997Y-95939609D01*
X159800872Y-95939609D01*
X159760223Y-95898961D01*
X159738053Y-95871947D01*
X159630247Y-95783472D01*
X159507251Y-95717729D01*
X159373792Y-95677245D01*
X159269774Y-95667000D01*
X159269766Y-95667000D01*
X159235000Y-95663576D01*
X159200234Y-95667000D01*
X157258259Y-95667000D01*
X157251074Y-95653557D01*
X157179120Y-95565880D01*
X157091443Y-95493926D01*
X156991414Y-95440460D01*
X156882877Y-95407535D01*
X156770001Y-95396418D01*
X153869999Y-95396418D01*
X153757123Y-95407535D01*
X153648586Y-95440460D01*
X153548557Y-95493926D01*
X153460880Y-95565880D01*
X153388926Y-95653557D01*
X153381741Y-95667000D01*
X152438582Y-95667000D01*
X152438582Y-95600000D01*
X152432268Y-95535897D01*
X152413570Y-95474257D01*
X152383206Y-95417450D01*
X152342343Y-95367657D01*
X152292550Y-95326794D01*
X152235743Y-95296430D01*
X152174103Y-95277732D01*
X152110000Y-95271418D01*
X152018000Y-95271418D01*
X152018000Y-94302946D01*
X163363687Y-94302946D01*
X163416158Y-94769811D01*
X163558703Y-95217468D01*
X163749234Y-95573927D01*
X164090391Y-95760003D01*
X165580395Y-94270000D01*
X165939605Y-94270000D01*
X167429609Y-95760003D01*
X167770766Y-95573927D01*
X167986513Y-95156591D01*
X168116696Y-94705185D01*
X168156313Y-94237054D01*
X168103842Y-93770189D01*
X167961297Y-93322532D01*
X167770766Y-92966073D01*
X167429609Y-92779997D01*
X165939605Y-94270000D01*
X165580395Y-94270000D01*
X164090391Y-92779997D01*
X163749234Y-92966073D01*
X163533487Y-93383409D01*
X163403304Y-93834815D01*
X163363687Y-94302946D01*
X152018000Y-94302946D01*
X152018000Y-92183262D01*
X152676263Y-91524999D01*
X153291418Y-91524999D01*
X153291418Y-92325001D01*
X153302535Y-92437877D01*
X153335460Y-92546414D01*
X153388926Y-92646443D01*
X153460880Y-92734120D01*
X153548557Y-92806074D01*
X153648586Y-92859540D01*
X153757123Y-92892465D01*
X153869999Y-92903582D01*
X156770001Y-92903582D01*
X156882877Y-92892465D01*
X156991414Y-92859540D01*
X157091443Y-92806074D01*
X157179120Y-92734120D01*
X157251074Y-92646443D01*
X157258259Y-92633000D01*
X158172343Y-92633000D01*
X158208926Y-92701443D01*
X158280880Y-92789120D01*
X158368557Y-92861074D01*
X158468586Y-92914540D01*
X158577123Y-92947465D01*
X158689999Y-92958582D01*
X159340001Y-92958582D01*
X159452877Y-92947465D01*
X159561414Y-92914540D01*
X159661443Y-92861074D01*
X159749120Y-92789120D01*
X159821074Y-92701443D01*
X159874540Y-92601414D01*
X159907465Y-92492877D01*
X159918582Y-92380001D01*
X159918582Y-91479999D01*
X159907465Y-91367123D01*
X159874540Y-91258586D01*
X159821074Y-91158557D01*
X159749120Y-91070880D01*
X159661443Y-90998926D01*
X159571000Y-90950584D01*
X159571000Y-90489038D01*
X159634259Y-90394364D01*
X159689062Y-90262058D01*
X159717000Y-90121603D01*
X159717000Y-89978397D01*
X159689062Y-89837942D01*
X159634259Y-89705636D01*
X159554698Y-89586564D01*
X159453436Y-89485302D01*
X159334364Y-89405741D01*
X159202058Y-89350938D01*
X159061603Y-89323000D01*
X158918397Y-89323000D01*
X158777942Y-89350938D01*
X158645636Y-89405741D01*
X158526564Y-89485302D01*
X158425302Y-89586564D01*
X158345741Y-89705636D01*
X158290938Y-89837942D01*
X158263000Y-89978397D01*
X158263000Y-90121603D01*
X158290938Y-90262058D01*
X158345741Y-90394364D01*
X158409000Y-90489039D01*
X158409000Y-90977309D01*
X158368557Y-90998926D01*
X158280880Y-91070880D01*
X158208926Y-91158557D01*
X158177688Y-91217000D01*
X157258259Y-91217000D01*
X157251074Y-91203557D01*
X157179120Y-91115880D01*
X157091443Y-91043926D01*
X156991414Y-90990460D01*
X156882877Y-90957535D01*
X156770001Y-90946418D01*
X153869999Y-90946418D01*
X153757123Y-90957535D01*
X153648586Y-90990460D01*
X153548557Y-91043926D01*
X153460880Y-91115880D01*
X153388926Y-91203557D01*
X153335460Y-91303586D01*
X153302535Y-91412123D01*
X153291418Y-91524999D01*
X152676263Y-91524999D01*
X154906049Y-89295214D01*
X154933052Y-89273053D01*
X154955214Y-89246049D01*
X154955220Y-89246043D01*
X154988194Y-89205863D01*
X155021528Y-89165247D01*
X155087271Y-89042251D01*
X155093201Y-89022702D01*
X155316903Y-89022702D01*
X155388486Y-89266671D01*
X155643996Y-89387571D01*
X155918184Y-89456300D01*
X156200512Y-89470217D01*
X156480130Y-89428787D01*
X156746292Y-89333603D01*
X156871514Y-89266671D01*
X156943097Y-89022702D01*
X156130000Y-88209605D01*
X155316903Y-89022702D01*
X155093201Y-89022702D01*
X155127755Y-88908792D01*
X155134312Y-88842221D01*
X155137298Y-88843097D01*
X155950395Y-88030000D01*
X156309605Y-88030000D01*
X157122702Y-88843097D01*
X157366671Y-88771514D01*
X157424167Y-88650000D01*
X159871418Y-88650000D01*
X159871418Y-90350000D01*
X159877732Y-90414103D01*
X159896430Y-90475743D01*
X159926794Y-90532550D01*
X159967657Y-90582343D01*
X160017450Y-90623206D01*
X160074257Y-90653570D01*
X160135897Y-90672268D01*
X160200000Y-90678582D01*
X160342000Y-90678582D01*
X160342001Y-91061754D01*
X160330880Y-91070880D01*
X160258926Y-91158557D01*
X160205460Y-91258586D01*
X160172535Y-91367123D01*
X160161418Y-91479999D01*
X160161418Y-92380001D01*
X160172535Y-92492877D01*
X160205460Y-92601414D01*
X160258926Y-92701443D01*
X160330880Y-92789120D01*
X160418557Y-92861074D01*
X160518586Y-92914540D01*
X160627123Y-92947465D01*
X160739999Y-92958582D01*
X161390001Y-92958582D01*
X161502877Y-92947465D01*
X161611414Y-92914540D01*
X161711443Y-92861074D01*
X161799120Y-92789120D01*
X161871074Y-92701443D01*
X161924540Y-92601414D01*
X161924850Y-92600391D01*
X164269997Y-92600391D01*
X165760000Y-94090395D01*
X167250003Y-92600391D01*
X167063927Y-92259234D01*
X166646591Y-92043487D01*
X166195185Y-91913304D01*
X165727054Y-91873687D01*
X165260189Y-91926158D01*
X164812532Y-92068703D01*
X164456073Y-92259234D01*
X164269997Y-92600391D01*
X161924850Y-92600391D01*
X161957465Y-92492877D01*
X161968582Y-92380001D01*
X161968582Y-91479999D01*
X161957465Y-91367123D01*
X161924540Y-91258586D01*
X161871074Y-91158557D01*
X161799120Y-91070880D01*
X161758000Y-91037134D01*
X161758000Y-90678582D01*
X161900000Y-90678582D01*
X161964103Y-90672268D01*
X162025743Y-90653570D01*
X162070335Y-90629735D01*
X162085104Y-90644504D01*
X162201209Y-90528399D01*
X162278843Y-90777472D01*
X162542883Y-90903371D01*
X162826411Y-90975339D01*
X163118531Y-90990611D01*
X163408019Y-90948599D01*
X163683747Y-90850919D01*
X163821157Y-90777472D01*
X163898792Y-90528397D01*
X163050000Y-89679605D01*
X163035858Y-89693748D01*
X162856253Y-89514143D01*
X162870395Y-89500000D01*
X163229605Y-89500000D01*
X164078397Y-90348792D01*
X164327472Y-90271157D01*
X164453371Y-90007117D01*
X164525339Y-89723589D01*
X164540611Y-89431469D01*
X164498599Y-89141981D01*
X164400919Y-88866253D01*
X164327472Y-88728843D01*
X164078397Y-88651208D01*
X163229605Y-89500000D01*
X162870395Y-89500000D01*
X162856253Y-89485858D01*
X163035858Y-89306253D01*
X163050000Y-89320395D01*
X163898792Y-88471603D01*
X163821157Y-88222528D01*
X163557117Y-88096629D01*
X163508156Y-88084201D01*
X163607519Y-88043044D01*
X163800294Y-87914236D01*
X163964236Y-87750294D01*
X164093044Y-87557519D01*
X164181769Y-87343318D01*
X164227000Y-87115924D01*
X164227000Y-86884076D01*
X164181769Y-86656682D01*
X164093044Y-86442481D01*
X163964236Y-86249706D01*
X163800294Y-86085764D01*
X163607519Y-85956956D01*
X163393318Y-85868231D01*
X163165924Y-85823000D01*
X162934076Y-85823000D01*
X162706682Y-85868231D01*
X162492481Y-85956956D01*
X162299706Y-86085764D01*
X162135764Y-86249706D01*
X162050000Y-86378061D01*
X161964236Y-86249706D01*
X161800294Y-86085764D01*
X161607519Y-85956956D01*
X161393318Y-85868231D01*
X161165924Y-85823000D01*
X160934076Y-85823000D01*
X160706682Y-85868231D01*
X160492481Y-85956956D01*
X160299706Y-86085764D01*
X160135764Y-86249706D01*
X160006956Y-86442481D01*
X159918231Y-86656682D01*
X159873000Y-86884076D01*
X159873000Y-87115924D01*
X159918231Y-87343318D01*
X160006956Y-87557519D01*
X160135764Y-87750294D01*
X160299706Y-87914236D01*
X160492481Y-88043044D01*
X160706682Y-88131769D01*
X160934076Y-88177000D01*
X161165924Y-88177000D01*
X161393318Y-88131769D01*
X161607519Y-88043044D01*
X161800294Y-87914236D01*
X161964236Y-87750294D01*
X162050000Y-87621939D01*
X162135764Y-87750294D01*
X162299706Y-87914236D01*
X162492481Y-88043044D01*
X162595324Y-88085643D01*
X162416253Y-88149081D01*
X162278843Y-88222528D01*
X162201209Y-88471601D01*
X162085104Y-88355496D01*
X162070335Y-88370265D01*
X162025743Y-88346430D01*
X161964103Y-88327732D01*
X161900000Y-88321418D01*
X160200000Y-88321418D01*
X160135897Y-88327732D01*
X160074257Y-88346430D01*
X160017450Y-88376794D01*
X159967657Y-88417657D01*
X159926794Y-88467450D01*
X159896430Y-88524257D01*
X159877732Y-88585897D01*
X159871418Y-88650000D01*
X157424167Y-88650000D01*
X157487571Y-88516004D01*
X157556300Y-88241816D01*
X157570217Y-87959488D01*
X157528787Y-87679870D01*
X157433603Y-87413708D01*
X157366671Y-87288486D01*
X157122702Y-87216903D01*
X156309605Y-88030000D01*
X155950395Y-88030000D01*
X155936253Y-88015858D01*
X156115858Y-87836253D01*
X156130000Y-87850395D01*
X156943097Y-87037298D01*
X156871514Y-86793329D01*
X156616004Y-86672429D01*
X156415767Y-86622237D01*
X156458734Y-86613690D01*
X156663835Y-86528734D01*
X156848421Y-86405398D01*
X157005398Y-86248421D01*
X157128734Y-86063835D01*
X157213690Y-85858734D01*
X157257000Y-85641000D01*
X157257000Y-85419000D01*
X157213690Y-85201266D01*
X157128734Y-84996165D01*
X157005398Y-84811579D01*
X156848421Y-84654602D01*
X156663835Y-84531266D01*
X156458734Y-84446310D01*
X156241000Y-84403000D01*
X156019000Y-84403000D01*
X155801266Y-84446310D01*
X155596165Y-84531266D01*
X155411579Y-84654602D01*
X155254602Y-84811579D01*
X155131266Y-84996165D01*
X155046310Y-85201266D01*
X155003000Y-85419000D01*
X155003000Y-85641000D01*
X155046310Y-85858734D01*
X155131266Y-86063835D01*
X155254602Y-86248421D01*
X155411579Y-86405398D01*
X155596165Y-86528734D01*
X155801266Y-86613690D01*
X155842619Y-86621916D01*
X155779870Y-86631213D01*
X155513708Y-86726397D01*
X155388486Y-86793329D01*
X155316903Y-87037296D01*
X155200630Y-86921023D01*
X155138000Y-86983653D01*
X155138000Y-86304766D01*
X155141424Y-86270000D01*
X155138000Y-86235233D01*
X155138000Y-86235226D01*
X155127755Y-86131208D01*
X155087271Y-85997749D01*
X155021528Y-85874753D01*
X154979055Y-85823000D01*
X154955220Y-85793957D01*
X154955219Y-85793956D01*
X154933053Y-85766947D01*
X154906044Y-85744781D01*
X154225223Y-85063961D01*
X154203053Y-85036947D01*
X154095247Y-84948472D01*
X153972251Y-84882729D01*
X153838792Y-84842245D01*
X153734774Y-84832000D01*
X153734766Y-84832000D01*
X153700000Y-84828576D01*
X153665234Y-84832000D01*
X153622361Y-84832000D01*
X153615398Y-84821579D01*
X153458421Y-84664602D01*
X153273835Y-84541266D01*
X153068734Y-84456310D01*
X152851000Y-84413000D01*
X152629000Y-84413000D01*
X152411266Y-84456310D01*
X152206165Y-84541266D01*
X152021579Y-84664602D01*
X151864602Y-84821579D01*
X151741266Y-85006165D01*
X151656310Y-85211266D01*
X151613000Y-85429000D01*
X151613000Y-85651000D01*
X151656310Y-85868734D01*
X151741266Y-86073835D01*
X151864602Y-86258421D01*
X152021579Y-86415398D01*
X152206165Y-86538734D01*
X152411266Y-86623690D01*
X152452619Y-86631916D01*
X152389870Y-86641213D01*
X152123708Y-86736397D01*
X151998486Y-86803329D01*
X151926903Y-87047298D01*
X152740000Y-87860395D01*
X152754143Y-87846253D01*
X152933748Y-88025858D01*
X152919605Y-88040000D01*
X152933748Y-88054143D01*
X152754143Y-88233748D01*
X152740000Y-88219605D01*
X151926903Y-89032702D01*
X151998486Y-89276671D01*
X152253996Y-89397571D01*
X152528184Y-89466300D01*
X152722842Y-89475895D01*
X150833957Y-91364781D01*
X150806948Y-91386947D01*
X150784782Y-91413956D01*
X150784780Y-91413958D01*
X150718472Y-91494754D01*
X150652729Y-91617750D01*
X150612245Y-91751209D01*
X150598576Y-91890000D01*
X150602001Y-91924776D01*
X150602000Y-95271418D01*
X150510000Y-95271418D01*
X150445897Y-95277732D01*
X150384257Y-95296430D01*
X150327450Y-95326794D01*
X150298719Y-95350372D01*
X150239370Y-95291023D01*
X150123097Y-95407296D01*
X150051514Y-95163329D01*
X149796004Y-95042429D01*
X149521816Y-94973700D01*
X149239488Y-94959783D01*
X148959870Y-95001213D01*
X148693708Y-95096397D01*
X148568486Y-95163329D01*
X148496903Y-95407298D01*
X149310000Y-96220395D01*
X149324143Y-96206253D01*
X149503748Y-96385858D01*
X149489605Y-96400000D01*
X149503748Y-96414143D01*
X149324143Y-96593748D01*
X149310000Y-96579605D01*
X149295858Y-96593748D01*
X149116253Y-96414143D01*
X149130395Y-96400000D01*
X148317298Y-95586903D01*
X148073329Y-95658486D01*
X147952429Y-95913996D01*
X147883700Y-96188184D01*
X147869783Y-96470512D01*
X147911213Y-96750130D01*
X148006397Y-97016292D01*
X148073329Y-97141514D01*
X148317296Y-97213097D01*
X148201023Y-97329370D01*
X148244653Y-97373000D01*
X147627000Y-97373000D01*
X147627000Y-88110512D01*
X151299783Y-88110512D01*
X151341213Y-88390130D01*
X151436397Y-88656292D01*
X151503329Y-88781514D01*
X151747298Y-88853097D01*
X152560395Y-88040000D01*
X151747298Y-87226903D01*
X151503329Y-87298486D01*
X151382429Y-87553996D01*
X151313700Y-87828184D01*
X151299783Y-88110512D01*
X147627000Y-88110512D01*
X147627000Y-87242362D01*
X147653436Y-87224698D01*
X147754698Y-87123436D01*
X147834259Y-87004364D01*
X147889062Y-86872058D01*
X147917000Y-86731603D01*
X147917000Y-86588397D01*
X147889062Y-86447942D01*
X147880522Y-86427324D01*
X147922058Y-86419062D01*
X148054364Y-86364259D01*
X148173436Y-86284698D01*
X148274698Y-86183436D01*
X148354259Y-86064364D01*
X148409062Y-85932058D01*
X148437000Y-85791603D01*
X148437000Y-85648397D01*
X148409062Y-85507942D01*
X148354259Y-85375636D01*
X148274698Y-85256564D01*
X148173436Y-85155302D01*
X148054364Y-85075741D01*
X147922058Y-85020938D01*
X147781603Y-84993000D01*
X147638397Y-84993000D01*
X147627267Y-84995214D01*
X147627000Y-84994947D01*
X147627000Y-83899609D01*
X164269997Y-83899609D01*
X164456073Y-84240766D01*
X164873409Y-84456513D01*
X165324815Y-84586696D01*
X165792946Y-84626313D01*
X166259811Y-84573842D01*
X166707468Y-84431297D01*
X167063927Y-84240766D01*
X167250003Y-83899609D01*
X165760000Y-82409605D01*
X164269997Y-83899609D01*
X147627000Y-83899609D01*
X147627000Y-82262946D01*
X163363687Y-82262946D01*
X163416158Y-82729811D01*
X163558703Y-83177468D01*
X163749234Y-83533927D01*
X164090391Y-83720003D01*
X165580395Y-82230000D01*
X165939605Y-82230000D01*
X167429609Y-83720003D01*
X167770766Y-83533927D01*
X167986513Y-83116591D01*
X168116696Y-82665185D01*
X168156313Y-82197054D01*
X168103842Y-81730189D01*
X167961297Y-81282532D01*
X167770766Y-80926073D01*
X167429609Y-80739997D01*
X165939605Y-82230000D01*
X165580395Y-82230000D01*
X164090391Y-80739997D01*
X163749234Y-80926073D01*
X163533487Y-81343409D01*
X163403304Y-81794815D01*
X163363687Y-82262946D01*
X147627000Y-82262946D01*
X147627000Y-80560391D01*
X164269997Y-80560391D01*
X165760000Y-82050395D01*
X167250003Y-80560391D01*
X167063927Y-80219234D01*
X166646591Y-80003487D01*
X166195185Y-79873304D01*
X165727054Y-79833687D01*
X165260189Y-79886158D01*
X164812532Y-80028703D01*
X164456073Y-80219234D01*
X164269997Y-80560391D01*
X147627000Y-80560391D01*
X147627000Y-78309000D01*
X154413000Y-78309000D01*
X154413000Y-78531000D01*
X154456310Y-78748734D01*
X154541266Y-78953835D01*
X154664602Y-79138421D01*
X154821579Y-79295398D01*
X155006165Y-79418734D01*
X155211266Y-79503690D01*
X155429000Y-79547000D01*
X155651000Y-79547000D01*
X155868734Y-79503690D01*
X156073835Y-79418734D01*
X156082862Y-79412702D01*
X157226903Y-79412702D01*
X157298486Y-79656671D01*
X157553996Y-79777571D01*
X157828184Y-79846300D01*
X158110512Y-79860217D01*
X158390130Y-79818787D01*
X158656292Y-79723603D01*
X158781514Y-79656671D01*
X158853097Y-79412702D01*
X158040000Y-78599605D01*
X157226903Y-79412702D01*
X156082862Y-79412702D01*
X156258421Y-79295398D01*
X156415398Y-79138421D01*
X156538734Y-78953835D01*
X156623690Y-78748734D01*
X156631916Y-78707381D01*
X156641213Y-78770130D01*
X156736397Y-79036292D01*
X156803329Y-79161514D01*
X157047298Y-79233097D01*
X157860395Y-78420000D01*
X158219605Y-78420000D01*
X159032702Y-79233097D01*
X159276671Y-79161514D01*
X159397571Y-78906004D01*
X159466300Y-78631816D01*
X159480217Y-78349488D01*
X159438787Y-78069870D01*
X159343603Y-77803708D01*
X159276671Y-77678486D01*
X159032702Y-77606903D01*
X158219605Y-78420000D01*
X157860395Y-78420000D01*
X157047298Y-77606903D01*
X156803329Y-77678486D01*
X156682429Y-77933996D01*
X156632237Y-78134233D01*
X156623690Y-78091266D01*
X156538734Y-77886165D01*
X156415398Y-77701579D01*
X156258421Y-77544602D01*
X156082863Y-77427298D01*
X157226903Y-77427298D01*
X158040000Y-78240395D01*
X158853097Y-77427298D01*
X158781514Y-77183329D01*
X158526004Y-77062429D01*
X158251816Y-76993700D01*
X157969488Y-76979783D01*
X157689870Y-77021213D01*
X157423708Y-77116397D01*
X157298486Y-77183329D01*
X157226903Y-77427298D01*
X156082863Y-77427298D01*
X156073835Y-77421266D01*
X155868734Y-77336310D01*
X155651000Y-77293000D01*
X155429000Y-77293000D01*
X155211266Y-77336310D01*
X155006165Y-77421266D01*
X154821579Y-77544602D01*
X154664602Y-77701579D01*
X154541266Y-77886165D01*
X154456310Y-78091266D01*
X154413000Y-78309000D01*
X147627000Y-78309000D01*
X147627000Y-76627000D01*
X161462328Y-76627000D01*
X161507468Y-76672140D01*
G37*
%TD.AperFunction*%
%TD*%
M02*
