%TF.GenerationSoftware,KiCad,Pcbnew,5.1.8*%
%TF.CreationDate,2020-11-29T15:13:20+01:00*%
%TF.ProjectId,livello_serbatoio_definitiva,6c697665-6c6c-46f5-9f73-65726261746f,rev?*%
%TF.SameCoordinates,Original*%
%TF.FileFunction,Legend,Bot*%
%TF.FilePolarity,Positive*%
%FSLAX46Y46*%
G04 Gerber Fmt 4.6, Leading zero omitted, Abs format (unit mm)*
G04 Created by KiCad (PCBNEW 5.1.8) date 2020-11-29 15:13:20*
%MOMM*%
%LPD*%
G01*
G04 APERTURE LIST*
%ADD10C,0.120000*%
%ADD11C,0.150000*%
G04 APERTURE END LIST*
D10*
X119171960Y-112250000D02*
X105421960Y-112250000D01*
X119171960Y-115750000D02*
X119171960Y-112250000D01*
X105421960Y-115750000D02*
X119171960Y-115750000D01*
X105421960Y-112250000D02*
X105421960Y-115750000D01*
D11*
X117243388Y-109344285D02*
X117243388Y-110106190D01*
X117624340Y-109725238D02*
X116862436Y-109725238D01*
X116624340Y-111058571D02*
X116624340Y-110582380D01*
X117100531Y-110534761D01*
X117052912Y-110582380D01*
X117005293Y-110677619D01*
X117005293Y-110915714D01*
X117052912Y-111010952D01*
X117100531Y-111058571D01*
X117195769Y-111106190D01*
X117433864Y-111106190D01*
X117529102Y-111058571D01*
X117576721Y-111010952D01*
X117624340Y-110915714D01*
X117624340Y-110677619D01*
X117576721Y-110582380D01*
X117529102Y-110534761D01*
X116624340Y-111391904D02*
X117624340Y-111725238D01*
X116624340Y-112058571D01*
X114171960Y-109928095D02*
X114124340Y-109832857D01*
X114124340Y-109690000D01*
X114171960Y-109547142D01*
X114267198Y-109451904D01*
X114362436Y-109404285D01*
X114552912Y-109356666D01*
X114695769Y-109356666D01*
X114886245Y-109404285D01*
X114981483Y-109451904D01*
X115076721Y-109547142D01*
X115124340Y-109690000D01*
X115124340Y-109785238D01*
X115076721Y-109928095D01*
X115029102Y-109975714D01*
X114695769Y-109975714D01*
X114695769Y-109785238D01*
X115124340Y-110404285D02*
X114124340Y-110404285D01*
X115124340Y-110975714D01*
X114124340Y-110975714D01*
X115124340Y-111451904D02*
X114124340Y-111451904D01*
X114124340Y-111690000D01*
X114171960Y-111832857D01*
X114267198Y-111928095D01*
X114362436Y-111975714D01*
X114552912Y-112023333D01*
X114695769Y-112023333D01*
X114886245Y-111975714D01*
X114981483Y-111928095D01*
X115076721Y-111832857D01*
X115124340Y-111690000D01*
X115124340Y-111451904D01*
D10*
X121250000Y-80250000D02*
X111250000Y-80250000D01*
X121250000Y-83500000D02*
X121250000Y-80250000D01*
X111250000Y-83500000D02*
X121250000Y-83500000D01*
X111250000Y-80250000D02*
X111250000Y-83500000D01*
D11*
X120614285Y-79466666D02*
X120138095Y-79466666D01*
X120709523Y-79752380D02*
X120376190Y-78752380D01*
X120042857Y-79752380D01*
X119519047Y-78752380D02*
X119423809Y-78752380D01*
X119328571Y-78800000D01*
X119280952Y-78847619D01*
X119233333Y-78942857D01*
X119185714Y-79133333D01*
X119185714Y-79371428D01*
X119233333Y-79561904D01*
X119280952Y-79657142D01*
X119328571Y-79704761D01*
X119423809Y-79752380D01*
X119519047Y-79752380D01*
X119614285Y-79704761D01*
X119661904Y-79657142D01*
X119709523Y-79561904D01*
X119757142Y-79371428D01*
X119757142Y-79133333D01*
X119709523Y-78942857D01*
X119661904Y-78847619D01*
X119614285Y-78800000D01*
X119519047Y-78752380D01*
X118014285Y-79466666D02*
X117538095Y-79466666D01*
X118109523Y-79752380D02*
X117776190Y-78752380D01*
X117442857Y-79752380D01*
X116585714Y-79752380D02*
X117157142Y-79752380D01*
X116871428Y-79752380D02*
X116871428Y-78752380D01*
X116966666Y-78895238D01*
X117061904Y-78990476D01*
X117157142Y-79038095D01*
X115514285Y-79466666D02*
X115038095Y-79466666D01*
X115609523Y-79752380D02*
X115276190Y-78752380D01*
X114942857Y-79752380D01*
X114657142Y-78847619D02*
X114609523Y-78800000D01*
X114514285Y-78752380D01*
X114276190Y-78752380D01*
X114180952Y-78800000D01*
X114133333Y-78847619D01*
X114085714Y-78942857D01*
X114085714Y-79038095D01*
X114133333Y-79180952D01*
X114704761Y-79752380D01*
X114085714Y-79752380D01*
X113014285Y-79466666D02*
X112538095Y-79466666D01*
X113109523Y-79752380D02*
X112776190Y-78752380D01*
X112442857Y-79752380D01*
X112204761Y-78752380D02*
X111585714Y-78752380D01*
X111919047Y-79133333D01*
X111776190Y-79133333D01*
X111680952Y-79180952D01*
X111633333Y-79228571D01*
X111585714Y-79323809D01*
X111585714Y-79561904D01*
X111633333Y-79657142D01*
X111680952Y-79704761D01*
X111776190Y-79752380D01*
X112061904Y-79752380D01*
X112157142Y-79704761D01*
X112204761Y-79657142D01*
X112744340Y-109495714D02*
X111744340Y-109495714D01*
X111744340Y-109733809D01*
X111791960Y-109876666D01*
X111887198Y-109971904D01*
X111982436Y-110019523D01*
X112172912Y-110067142D01*
X112315769Y-110067142D01*
X112506245Y-110019523D01*
X112601483Y-109971904D01*
X112696721Y-109876666D01*
X112744340Y-109733809D01*
X112744340Y-109495714D01*
X112744340Y-111019523D02*
X112744340Y-110448095D01*
X112744340Y-110733809D02*
X111744340Y-110733809D01*
X111887198Y-110638571D01*
X111982436Y-110543333D01*
X112030055Y-110448095D01*
X111744340Y-111638571D02*
X111744340Y-111733809D01*
X111791960Y-111829047D01*
X111839579Y-111876666D01*
X111934817Y-111924285D01*
X112125293Y-111971904D01*
X112363388Y-111971904D01*
X112553864Y-111924285D01*
X112649102Y-111876666D01*
X112696721Y-111829047D01*
X112744340Y-111733809D01*
X112744340Y-111638571D01*
X112696721Y-111543333D01*
X112649102Y-111495714D01*
X112553864Y-111448095D01*
X112363388Y-111400476D01*
X112125293Y-111400476D01*
X111934817Y-111448095D01*
X111839579Y-111495714D01*
X111791960Y-111543333D01*
X111744340Y-111638571D01*
X110028626Y-110495714D02*
X110028626Y-110971904D01*
X110314340Y-110400476D02*
X109314340Y-110733809D01*
X110314340Y-111067142D01*
X109647674Y-111829047D02*
X110314340Y-111829047D01*
X109266721Y-111590952D02*
X109981007Y-111352857D01*
X109981007Y-111971904D01*
X107358626Y-110515714D02*
X107358626Y-110991904D01*
X107644340Y-110420476D02*
X106644340Y-110753809D01*
X107644340Y-111087142D01*
X106644340Y-111896666D02*
X106644340Y-111420476D01*
X107120531Y-111372857D01*
X107072912Y-111420476D01*
X107025293Y-111515714D01*
X107025293Y-111753809D01*
X107072912Y-111849047D01*
X107120531Y-111896666D01*
X107215769Y-111944285D01*
X107453864Y-111944285D01*
X107549102Y-111896666D01*
X107596721Y-111849047D01*
X107644340Y-111753809D01*
X107644340Y-111515714D01*
X107596721Y-111420476D01*
X107549102Y-111372857D01*
X140701428Y-90261904D02*
X141158571Y-90261904D01*
X140930000Y-90261904D02*
X140930000Y-89461904D01*
X141006190Y-89576190D01*
X141082380Y-89652380D01*
X141158571Y-89690476D01*
X158021428Y-81201904D02*
X158478571Y-81201904D01*
X158250000Y-81201904D02*
X158250000Y-80401904D01*
X158326190Y-80516190D01*
X158402380Y-80592380D01*
X158478571Y-80630476D01*
X157709523Y-130277380D02*
X158185714Y-130277380D01*
X158185714Y-129277380D01*
X157376190Y-129896428D02*
X156614285Y-129896428D01*
X153022619Y-129778571D02*
X152879761Y-129826190D01*
X152832142Y-129873809D01*
X152784523Y-129969047D01*
X152784523Y-130111904D01*
X152832142Y-130207142D01*
X152879761Y-130254761D01*
X152975000Y-130302380D01*
X153355952Y-130302380D01*
X153355952Y-129302380D01*
X153022619Y-129302380D01*
X152927380Y-129350000D01*
X152879761Y-129397619D01*
X152832142Y-129492857D01*
X152832142Y-129588095D01*
X152879761Y-129683333D01*
X152927380Y-129730952D01*
X153022619Y-129778571D01*
X153355952Y-129778571D01*
X152355952Y-129921428D02*
X151594047Y-129921428D01*
X147972619Y-129728571D02*
X147829761Y-129776190D01*
X147782142Y-129823809D01*
X147734523Y-129919047D01*
X147734523Y-130061904D01*
X147782142Y-130157142D01*
X147829761Y-130204761D01*
X147925000Y-130252380D01*
X148305952Y-130252380D01*
X148305952Y-129252380D01*
X147972619Y-129252380D01*
X147877380Y-129300000D01*
X147829761Y-129347619D01*
X147782142Y-129442857D01*
X147782142Y-129538095D01*
X147829761Y-129633333D01*
X147877380Y-129680952D01*
X147972619Y-129728571D01*
X148305952Y-129728571D01*
X147305952Y-129871428D02*
X146544047Y-129871428D01*
X146925000Y-130252380D02*
X146925000Y-129490476D01*
X142759523Y-130252380D02*
X143235714Y-130252380D01*
X143235714Y-129252380D01*
X142426190Y-129871428D02*
X141664285Y-129871428D01*
X142045238Y-130252380D02*
X142045238Y-129490476D01*
X160260714Y-115771428D02*
X159498809Y-115771428D01*
X159879761Y-116152380D02*
X159879761Y-115390476D01*
X158546428Y-115152380D02*
X159022619Y-115152380D01*
X159070238Y-115628571D01*
X159022619Y-115580952D01*
X158927380Y-115533333D01*
X158689285Y-115533333D01*
X158594047Y-115580952D01*
X158546428Y-115628571D01*
X158498809Y-115723809D01*
X158498809Y-115961904D01*
X158546428Y-116057142D01*
X158594047Y-116104761D01*
X158689285Y-116152380D01*
X158927380Y-116152380D01*
X159022619Y-116104761D01*
X159070238Y-116057142D01*
X158213095Y-115152380D02*
X157879761Y-116152380D01*
X157546428Y-115152380D01*
X160210714Y-110152380D02*
X159639285Y-110152380D01*
X159925000Y-111152380D02*
X159925000Y-110152380D01*
X160139285Y-105628571D02*
X159805952Y-105628571D01*
X159663095Y-106152380D02*
X160139285Y-106152380D01*
X160139285Y-105152380D01*
X159663095Y-105152380D01*
X159636904Y-100200000D02*
X159732142Y-100152380D01*
X159875000Y-100152380D01*
X160017857Y-100200000D01*
X160113095Y-100295238D01*
X160160714Y-100390476D01*
X160208333Y-100580952D01*
X160208333Y-100723809D01*
X160160714Y-100914285D01*
X160113095Y-101009523D01*
X160017857Y-101104761D01*
X159875000Y-101152380D01*
X159779761Y-101152380D01*
X159636904Y-101104761D01*
X159589285Y-101057142D01*
X159589285Y-100723809D01*
X159779761Y-100723809D01*
X159160714Y-101152380D02*
X159160714Y-100152380D01*
X158589285Y-101152380D01*
X158589285Y-100152380D01*
X158113095Y-101152380D02*
X158113095Y-100152380D01*
X157875000Y-100152380D01*
X157732142Y-100200000D01*
X157636904Y-100295238D01*
X157589285Y-100390476D01*
X157541666Y-100580952D01*
X157541666Y-100723809D01*
X157589285Y-100914285D01*
X157636904Y-101009523D01*
X157732142Y-101104761D01*
X157875000Y-101152380D01*
X158113095Y-101152380D01*
X163133333Y-138503571D02*
X162990476Y-138551190D01*
X162942857Y-138598809D01*
X162895238Y-138694047D01*
X162895238Y-138836904D01*
X162942857Y-138932142D01*
X162990476Y-138979761D01*
X163085714Y-139027380D01*
X163466666Y-139027380D01*
X163466666Y-138027380D01*
X163133333Y-138027380D01*
X163038095Y-138075000D01*
X162990476Y-138122619D01*
X162942857Y-138217857D01*
X162942857Y-138313095D01*
X162990476Y-138408333D01*
X163038095Y-138455952D01*
X163133333Y-138503571D01*
X163466666Y-138503571D01*
X162609523Y-138027380D02*
X162038095Y-138027380D01*
X162323809Y-139027380D02*
X162323809Y-138027380D01*
X161704761Y-139027380D02*
X161704761Y-138027380D01*
X161133333Y-139027380D01*
X161133333Y-138027380D01*
X166813095Y-120204761D02*
X166670238Y-120252380D01*
X166432142Y-120252380D01*
X166336904Y-120204761D01*
X166289285Y-120157142D01*
X166241666Y-120061904D01*
X166241666Y-119966666D01*
X166289285Y-119871428D01*
X166336904Y-119823809D01*
X166432142Y-119776190D01*
X166622619Y-119728571D01*
X166717857Y-119680952D01*
X166765476Y-119633333D01*
X166813095Y-119538095D01*
X166813095Y-119442857D01*
X166765476Y-119347619D01*
X166717857Y-119300000D01*
X166622619Y-119252380D01*
X166384523Y-119252380D01*
X166241666Y-119300000D01*
X165813095Y-119728571D02*
X165479761Y-119728571D01*
X165336904Y-120252380D02*
X165813095Y-120252380D01*
X165813095Y-119252380D01*
X165336904Y-119252380D01*
X164908333Y-120252380D02*
X164908333Y-119252380D01*
X164336904Y-120252380D01*
X164336904Y-119252380D01*
X163908333Y-120204761D02*
X163765476Y-120252380D01*
X163527380Y-120252380D01*
X163432142Y-120204761D01*
X163384523Y-120157142D01*
X163336904Y-120061904D01*
X163336904Y-119966666D01*
X163384523Y-119871428D01*
X163432142Y-119823809D01*
X163527380Y-119776190D01*
X163717857Y-119728571D01*
X163813095Y-119680952D01*
X163860714Y-119633333D01*
X163908333Y-119538095D01*
X163908333Y-119442857D01*
X163860714Y-119347619D01*
X163813095Y-119300000D01*
X163717857Y-119252380D01*
X163479761Y-119252380D01*
X163336904Y-119300000D01*
X125859523Y-102825000D02*
X125935714Y-102786904D01*
X126050000Y-102786904D01*
X126164285Y-102825000D01*
X126240476Y-102901190D01*
X126278571Y-102977380D01*
X126316666Y-103129761D01*
X126316666Y-103244047D01*
X126278571Y-103396428D01*
X126240476Y-103472619D01*
X126164285Y-103548809D01*
X126050000Y-103586904D01*
X125973809Y-103586904D01*
X125859523Y-103548809D01*
X125821428Y-103510714D01*
X125821428Y-103244047D01*
X125973809Y-103244047D01*
X125478571Y-103586904D02*
X125478571Y-102786904D01*
X125021428Y-103586904D01*
X125021428Y-102786904D01*
X124640476Y-103586904D02*
X124640476Y-102786904D01*
X124450000Y-102786904D01*
X124335714Y-102825000D01*
X124259523Y-102901190D01*
X124221428Y-102977380D01*
X124183333Y-103129761D01*
X124183333Y-103244047D01*
X124221428Y-103396428D01*
X124259523Y-103472619D01*
X124335714Y-103548809D01*
X124450000Y-103586904D01*
X124640476Y-103586904D01*
X126757142Y-106111904D02*
X126757142Y-105311904D01*
X126490476Y-105883333D01*
X126223809Y-105311904D01*
X126223809Y-106111904D01*
X125690476Y-105311904D02*
X125538095Y-105311904D01*
X125461904Y-105350000D01*
X125385714Y-105426190D01*
X125347619Y-105578571D01*
X125347619Y-105845238D01*
X125385714Y-105997619D01*
X125461904Y-106073809D01*
X125538095Y-106111904D01*
X125690476Y-106111904D01*
X125766666Y-106073809D01*
X125842857Y-105997619D01*
X125880952Y-105845238D01*
X125880952Y-105578571D01*
X125842857Y-105426190D01*
X125766666Y-105350000D01*
X125690476Y-105311904D01*
X125042857Y-106073809D02*
X124928571Y-106111904D01*
X124738095Y-106111904D01*
X124661904Y-106073809D01*
X124623809Y-106035714D01*
X124585714Y-105959523D01*
X124585714Y-105883333D01*
X124623809Y-105807142D01*
X124661904Y-105769047D01*
X124738095Y-105730952D01*
X124890476Y-105692857D01*
X124966666Y-105654761D01*
X125004761Y-105616666D01*
X125042857Y-105540476D01*
X125042857Y-105464285D01*
X125004761Y-105388095D01*
X124966666Y-105350000D01*
X124890476Y-105311904D01*
X124700000Y-105311904D01*
X124585714Y-105350000D01*
X124242857Y-106111904D02*
X124242857Y-105311904D01*
X117888095Y-103586904D02*
X118154761Y-103205952D01*
X118345238Y-103586904D02*
X118345238Y-102786904D01*
X118040476Y-102786904D01*
X117964285Y-102825000D01*
X117926190Y-102863095D01*
X117888095Y-102939285D01*
X117888095Y-103053571D01*
X117926190Y-103129761D01*
X117964285Y-103167857D01*
X118040476Y-103205952D01*
X118345238Y-103205952D01*
X117583333Y-103548809D02*
X117469047Y-103586904D01*
X117278571Y-103586904D01*
X117202380Y-103548809D01*
X117164285Y-103510714D01*
X117126190Y-103434523D01*
X117126190Y-103358333D01*
X117164285Y-103282142D01*
X117202380Y-103244047D01*
X117278571Y-103205952D01*
X117430952Y-103167857D01*
X117507142Y-103129761D01*
X117545238Y-103091666D01*
X117583333Y-103015476D01*
X117583333Y-102939285D01*
X117545238Y-102863095D01*
X117507142Y-102825000D01*
X117430952Y-102786904D01*
X117240476Y-102786904D01*
X117126190Y-102825000D01*
X116897619Y-102786904D02*
X116440476Y-102786904D01*
X116669047Y-103586904D02*
X116669047Y-102786904D01*
X118428571Y-106098809D02*
X118314285Y-106136904D01*
X118123809Y-106136904D01*
X118047619Y-106098809D01*
X118009523Y-106060714D01*
X117971428Y-105984523D01*
X117971428Y-105908333D01*
X118009523Y-105832142D01*
X118047619Y-105794047D01*
X118123809Y-105755952D01*
X118276190Y-105717857D01*
X118352380Y-105679761D01*
X118390476Y-105641666D01*
X118428571Y-105565476D01*
X118428571Y-105489285D01*
X118390476Y-105413095D01*
X118352380Y-105375000D01*
X118276190Y-105336904D01*
X118085714Y-105336904D01*
X117971428Y-105375000D01*
X117171428Y-106060714D02*
X117209523Y-106098809D01*
X117323809Y-106136904D01*
X117400000Y-106136904D01*
X117514285Y-106098809D01*
X117590476Y-106022619D01*
X117628571Y-105946428D01*
X117666666Y-105794047D01*
X117666666Y-105679761D01*
X117628571Y-105527380D01*
X117590476Y-105451190D01*
X117514285Y-105375000D01*
X117400000Y-105336904D01*
X117323809Y-105336904D01*
X117209523Y-105375000D01*
X117171428Y-105413095D01*
X116828571Y-106136904D02*
X116828571Y-105336904D01*
X116371428Y-106136904D02*
X116714285Y-105679761D01*
X116371428Y-105336904D02*
X116828571Y-105794047D01*
X126378571Y-108357142D02*
X125769047Y-108357142D01*
X126073809Y-108661904D02*
X126073809Y-108052380D01*
X125007142Y-107861904D02*
X125388095Y-107861904D01*
X125426190Y-108242857D01*
X125388095Y-108204761D01*
X125311904Y-108166666D01*
X125121428Y-108166666D01*
X125045238Y-108204761D01*
X125007142Y-108242857D01*
X124969047Y-108319047D01*
X124969047Y-108509523D01*
X125007142Y-108585714D01*
X125045238Y-108623809D01*
X125121428Y-108661904D01*
X125311904Y-108661904D01*
X125388095Y-108623809D01*
X125426190Y-108585714D01*
X124740476Y-107861904D02*
X124473809Y-108661904D01*
X124207142Y-107861904D01*
X118532142Y-108661904D02*
X118532142Y-107861904D01*
X118265476Y-108433333D01*
X117998809Y-107861904D01*
X117998809Y-108661904D01*
X117617857Y-108661904D02*
X117617857Y-107861904D01*
X117275000Y-108623809D02*
X117160714Y-108661904D01*
X116970238Y-108661904D01*
X116894047Y-108623809D01*
X116855952Y-108585714D01*
X116817857Y-108509523D01*
X116817857Y-108433333D01*
X116855952Y-108357142D01*
X116894047Y-108319047D01*
X116970238Y-108280952D01*
X117122619Y-108242857D01*
X117198809Y-108204761D01*
X117236904Y-108166666D01*
X117275000Y-108090476D01*
X117275000Y-108014285D01*
X117236904Y-107938095D01*
X117198809Y-107900000D01*
X117122619Y-107861904D01*
X116932142Y-107861904D01*
X116817857Y-107900000D01*
X116322619Y-107861904D02*
X116170238Y-107861904D01*
X116094047Y-107900000D01*
X116017857Y-107976190D01*
X115979761Y-108128571D01*
X115979761Y-108395238D01*
X116017857Y-108547619D01*
X116094047Y-108623809D01*
X116170238Y-108661904D01*
X116322619Y-108661904D01*
X116398809Y-108623809D01*
X116475000Y-108547619D01*
X116513095Y-108395238D01*
X116513095Y-108128571D01*
X116475000Y-107976190D01*
X116398809Y-107900000D01*
X116322619Y-107861904D01*
D10*
%TO.C,JP4*%
X118850000Y-86880000D02*
X120850000Y-86880000D01*
X118850000Y-84080000D02*
X118850000Y-86880000D01*
X120850000Y-84080000D02*
X118850000Y-84080000D01*
X120850000Y-86880000D02*
X120850000Y-84080000D01*
%TO.C,JP3*%
X116320000Y-86870000D02*
X118320000Y-86870000D01*
X116320000Y-84070000D02*
X116320000Y-86870000D01*
X118320000Y-84070000D02*
X116320000Y-84070000D01*
X118320000Y-86870000D02*
X118320000Y-84070000D01*
%TO.C,JP2*%
X113780000Y-86870000D02*
X115780000Y-86870000D01*
X113780000Y-84070000D02*
X113780000Y-86870000D01*
X115780000Y-84070000D02*
X113780000Y-84070000D01*
X115780000Y-86870000D02*
X115780000Y-84070000D01*
%TO.C,JP1*%
X111230000Y-86870000D02*
X113230000Y-86870000D01*
X111230000Y-84070000D02*
X111230000Y-86870000D01*
X113230000Y-84070000D02*
X111230000Y-84070000D01*
X113230000Y-86870000D02*
X113230000Y-84070000D01*
%TO.C,U3*%
X154630000Y-80160000D02*
X157580000Y-80160000D01*
X156430000Y-83380000D02*
X154630000Y-83380000D01*
%TO.C,J2*%
X148890000Y-135360000D02*
G75*
G03*
X148890000Y-135360000I-1680000J0D01*
G01*
X153890000Y-135360000D02*
G75*
G03*
X153890000Y-135360000I-1680000J0D01*
G01*
X158890000Y-135360000D02*
G75*
G03*
X158890000Y-135360000I-1680000J0D01*
G01*
X139650000Y-131910000D02*
X159771000Y-131910000D01*
X139650000Y-132510000D02*
X159771000Y-132510000D01*
X139650000Y-137410000D02*
X159771000Y-137410000D01*
X139650000Y-139470000D02*
X159771000Y-139470000D01*
X139650000Y-131250000D02*
X159771000Y-131250000D01*
X139650000Y-139470000D02*
X139650000Y-131250000D01*
X159771000Y-139470000D02*
X159771000Y-131250000D01*
X140960000Y-139410000D02*
X143460000Y-139410000D01*
X140960000Y-138410000D02*
X143460000Y-138410000D01*
X140960000Y-139410000D02*
X140960000Y-138410000D01*
X143460000Y-139410000D02*
X143460000Y-138410000D01*
X148485000Y-136429000D02*
X148239000Y-136183000D01*
X146340000Y-134285000D02*
X146141000Y-134086000D01*
X148280000Y-136635000D02*
X148069000Y-136424000D01*
X146182000Y-134537000D02*
X145936000Y-134291000D01*
X145960000Y-139410000D02*
X148460000Y-139410000D01*
X145960000Y-138410000D02*
X148460000Y-138410000D01*
X145960000Y-139410000D02*
X145960000Y-138410000D01*
X148460000Y-139410000D02*
X148460000Y-138410000D01*
X153485000Y-136429000D02*
X153239000Y-136183000D01*
X151340000Y-134285000D02*
X151141000Y-134086000D01*
X153280000Y-136635000D02*
X153069000Y-136424000D01*
X151182000Y-134537000D02*
X150936000Y-134291000D01*
X150960000Y-139410000D02*
X153460000Y-139410000D01*
X150960000Y-138410000D02*
X153460000Y-138410000D01*
X150960000Y-139410000D02*
X150960000Y-138410000D01*
X153460000Y-139410000D02*
X153460000Y-138410000D01*
X158485000Y-136429000D02*
X158239000Y-136183000D01*
X156340000Y-134285000D02*
X156141000Y-134086000D01*
X158280000Y-136635000D02*
X158069000Y-136424000D01*
X156182000Y-134537000D02*
X155936000Y-134291000D01*
X155960000Y-139410000D02*
X158460000Y-139410000D01*
X155960000Y-138410000D02*
X158460000Y-138410000D01*
X155960000Y-139410000D02*
X155960000Y-138410000D01*
X158460000Y-139410000D02*
X158460000Y-138410000D01*
X139410000Y-131850000D02*
X139410000Y-131010000D01*
X139410000Y-131010000D02*
X140010000Y-131010000D01*
X142238507Y-133679489D02*
G75*
G03*
X141129000Y-134073000I-28507J-1680511D01*
G01*
X140921937Y-134280266D02*
G75*
G03*
X140923000Y-136441000I1288063J-1079734D01*
G01*
X141130092Y-136647078D02*
G75*
G03*
X143290000Y-136647000I1079908J1287078D01*
G01*
X143497078Y-136439908D02*
G75*
G03*
X143497000Y-134280000I-1287078J1079908D01*
G01*
X143289883Y-134073045D02*
G75*
G03*
X142210000Y-133680000I-1079883J-1286955D01*
G01*
%TO.C,J4*%
X167005000Y-110700000D02*
G75*
G03*
X167005000Y-110700000I-1680000J0D01*
G01*
X167005000Y-105700000D02*
G75*
G03*
X167005000Y-105700000I-1680000J0D01*
G01*
X167005000Y-100700000D02*
G75*
G03*
X167005000Y-100700000I-1680000J0D01*
G01*
X161875000Y-118260000D02*
X161875000Y-98139000D01*
X162475000Y-118260000D02*
X162475000Y-98139000D01*
X167375000Y-118260000D02*
X167375000Y-98139000D01*
X169435000Y-118260000D02*
X169435000Y-98139000D01*
X161215000Y-118260000D02*
X161215000Y-98139000D01*
X169435000Y-118260000D02*
X161215000Y-118260000D01*
X169435000Y-98139000D02*
X161215000Y-98139000D01*
X169375000Y-116950000D02*
X169375000Y-114450000D01*
X168375000Y-116950000D02*
X168375000Y-114450000D01*
X169375000Y-116950000D02*
X168375000Y-116950000D01*
X169375000Y-114450000D02*
X168375000Y-114450000D01*
X166394000Y-109425000D02*
X166148000Y-109671000D01*
X164250000Y-111570000D02*
X164051000Y-111769000D01*
X166600000Y-109630000D02*
X166389000Y-109841000D01*
X164502000Y-111728000D02*
X164256000Y-111974000D01*
X169375000Y-111950000D02*
X169375000Y-109450000D01*
X168375000Y-111950000D02*
X168375000Y-109450000D01*
X169375000Y-111950000D02*
X168375000Y-111950000D01*
X169375000Y-109450000D02*
X168375000Y-109450000D01*
X166394000Y-104425000D02*
X166148000Y-104671000D01*
X164250000Y-106570000D02*
X164051000Y-106769000D01*
X166600000Y-104630000D02*
X166389000Y-104841000D01*
X164502000Y-106728000D02*
X164256000Y-106974000D01*
X169375000Y-106950000D02*
X169375000Y-104450000D01*
X168375000Y-106950000D02*
X168375000Y-104450000D01*
X169375000Y-106950000D02*
X168375000Y-106950000D01*
X169375000Y-104450000D02*
X168375000Y-104450000D01*
X166394000Y-99425000D02*
X166148000Y-99671000D01*
X164250000Y-101570000D02*
X164051000Y-101769000D01*
X166600000Y-99630000D02*
X166389000Y-99841000D01*
X164502000Y-101728000D02*
X164256000Y-101974000D01*
X169375000Y-101950000D02*
X169375000Y-99450000D01*
X168375000Y-101950000D02*
X168375000Y-99450000D01*
X169375000Y-101950000D02*
X168375000Y-101950000D01*
X169375000Y-99450000D02*
X168375000Y-99450000D01*
X161815000Y-118500000D02*
X160975000Y-118500000D01*
X160975000Y-118500000D02*
X160975000Y-117900000D01*
X163644489Y-115671493D02*
G75*
G03*
X164038000Y-116781000I1680511J-28507D01*
G01*
X164245266Y-116988063D02*
G75*
G03*
X166406000Y-116987000I1079734J1288063D01*
G01*
X166612078Y-116779908D02*
G75*
G03*
X166612000Y-114620000I-1287078J1079908D01*
G01*
X166404908Y-114412922D02*
G75*
G03*
X164245000Y-114413000I-1079908J-1287078D01*
G01*
X164038045Y-114620117D02*
G75*
G03*
X163645000Y-115700000I1286955J-1079883D01*
G01*
%TO.C,J1*%
X163710000Y-94410000D02*
X159450000Y-94410000D01*
X159450000Y-94410000D02*
X159450000Y-82090000D01*
X159450000Y-82090000D02*
X163710000Y-82090000D01*
X167810000Y-94410000D02*
X176170000Y-94410000D01*
X176170000Y-94410000D02*
X176170000Y-82090000D01*
X176170000Y-82090000D02*
X167810000Y-82090000D01*
X159230000Y-89500000D02*
X158730000Y-90000000D01*
X158730000Y-90000000D02*
X158730000Y-89000000D01*
X158730000Y-89000000D02*
X159230000Y-89500000D01*
D11*
%TO.C,U1*%
X143035000Y-90430000D02*
X141435000Y-90430000D01*
X143035000Y-80355000D02*
X148785000Y-80355000D01*
X143035000Y-91005000D02*
X148785000Y-91005000D01*
X143035000Y-80355000D02*
X143035000Y-81005000D01*
X148785000Y-80355000D02*
X148785000Y-81005000D01*
X148785000Y-91005000D02*
X148785000Y-90355000D01*
X143035000Y-91005000D02*
X143035000Y-90430000D01*
D10*
%TO.C,J5*%
X118745000Y-109630000D02*
X120075000Y-109630000D01*
X118745000Y-108300000D02*
X118745000Y-109630000D01*
X121345000Y-109630000D02*
X123945000Y-109630000D01*
X121345000Y-107030000D02*
X121345000Y-109630000D01*
X118745000Y-107030000D02*
X121345000Y-107030000D01*
X123945000Y-109630000D02*
X123945000Y-101890000D01*
X118745000Y-107030000D02*
X118745000Y-101890000D01*
X118745000Y-101890000D02*
X123945000Y-101890000D01*
%TO.C,JP4*%
D11*
X120554666Y-87445904D02*
X120554666Y-88017333D01*
X120592761Y-88131619D01*
X120668952Y-88207809D01*
X120783238Y-88245904D01*
X120859428Y-88245904D01*
X120173714Y-88245904D02*
X120173714Y-87445904D01*
X119868952Y-87445904D01*
X119792761Y-87484000D01*
X119754666Y-87522095D01*
X119716571Y-87598285D01*
X119716571Y-87712571D01*
X119754666Y-87788761D01*
X119792761Y-87826857D01*
X119868952Y-87864952D01*
X120173714Y-87864952D01*
X119030857Y-87712571D02*
X119030857Y-88245904D01*
X119221333Y-87407809D02*
X119411809Y-87979238D01*
X118916571Y-87979238D01*
%TO.C,JP3*%
X118014666Y-87445904D02*
X118014666Y-88017333D01*
X118052761Y-88131619D01*
X118128952Y-88207809D01*
X118243238Y-88245904D01*
X118319428Y-88245904D01*
X117633714Y-88245904D02*
X117633714Y-87445904D01*
X117328952Y-87445904D01*
X117252761Y-87484000D01*
X117214666Y-87522095D01*
X117176571Y-87598285D01*
X117176571Y-87712571D01*
X117214666Y-87788761D01*
X117252761Y-87826857D01*
X117328952Y-87864952D01*
X117633714Y-87864952D01*
X116909904Y-87445904D02*
X116414666Y-87445904D01*
X116681333Y-87750666D01*
X116567047Y-87750666D01*
X116490857Y-87788761D01*
X116452761Y-87826857D01*
X116414666Y-87903047D01*
X116414666Y-88093523D01*
X116452761Y-88169714D01*
X116490857Y-88207809D01*
X116567047Y-88245904D01*
X116795619Y-88245904D01*
X116871809Y-88207809D01*
X116909904Y-88169714D01*
%TO.C,JP2*%
X115474666Y-87445904D02*
X115474666Y-88017333D01*
X115512761Y-88131619D01*
X115588952Y-88207809D01*
X115703238Y-88245904D01*
X115779428Y-88245904D01*
X115093714Y-88245904D02*
X115093714Y-87445904D01*
X114788952Y-87445904D01*
X114712761Y-87484000D01*
X114674666Y-87522095D01*
X114636571Y-87598285D01*
X114636571Y-87712571D01*
X114674666Y-87788761D01*
X114712761Y-87826857D01*
X114788952Y-87864952D01*
X115093714Y-87864952D01*
X114331809Y-87522095D02*
X114293714Y-87484000D01*
X114217523Y-87445904D01*
X114027047Y-87445904D01*
X113950857Y-87484000D01*
X113912761Y-87522095D01*
X113874666Y-87598285D01*
X113874666Y-87674476D01*
X113912761Y-87788761D01*
X114369904Y-88245904D01*
X113874666Y-88245904D01*
%TO.C,JP1*%
X112934666Y-87445904D02*
X112934666Y-88017333D01*
X112972761Y-88131619D01*
X113048952Y-88207809D01*
X113163238Y-88245904D01*
X113239428Y-88245904D01*
X112553714Y-88245904D02*
X112553714Y-87445904D01*
X112248952Y-87445904D01*
X112172761Y-87484000D01*
X112134666Y-87522095D01*
X112096571Y-87598285D01*
X112096571Y-87712571D01*
X112134666Y-87788761D01*
X112172761Y-87826857D01*
X112248952Y-87864952D01*
X112553714Y-87864952D01*
X111334666Y-88245904D02*
X111791809Y-88245904D01*
X111563238Y-88245904D02*
X111563238Y-87445904D01*
X111639428Y-87560190D01*
X111715619Y-87636380D01*
X111791809Y-87674476D01*
%TO.C,U3*%
X153731904Y-78802380D02*
X153731904Y-79611904D01*
X153684285Y-79707142D01*
X153636666Y-79754761D01*
X153541428Y-79802380D01*
X153350952Y-79802380D01*
X153255714Y-79754761D01*
X153208095Y-79707142D01*
X153160476Y-79611904D01*
X153160476Y-78802380D01*
X152779523Y-78802380D02*
X152160476Y-78802380D01*
X152493809Y-79183333D01*
X152350952Y-79183333D01*
X152255714Y-79230952D01*
X152208095Y-79278571D01*
X152160476Y-79373809D01*
X152160476Y-79611904D01*
X152208095Y-79707142D01*
X152255714Y-79754761D01*
X152350952Y-79802380D01*
X152636666Y-79802380D01*
X152731904Y-79754761D01*
X152779523Y-79707142D01*
%TO.C,J2*%
X161637333Y-129256380D02*
X161637333Y-129970666D01*
X161684952Y-130113523D01*
X161780190Y-130208761D01*
X161923047Y-130256380D01*
X162018285Y-130256380D01*
X161208761Y-129351619D02*
X161161142Y-129304000D01*
X161065904Y-129256380D01*
X160827809Y-129256380D01*
X160732571Y-129304000D01*
X160684952Y-129351619D01*
X160637333Y-129446857D01*
X160637333Y-129542095D01*
X160684952Y-129684952D01*
X161256380Y-130256380D01*
X160637333Y-130256380D01*
%TO.C,J4*%
X161115333Y-119340380D02*
X161115333Y-120054666D01*
X161162952Y-120197523D01*
X161258190Y-120292761D01*
X161401047Y-120340380D01*
X161496285Y-120340380D01*
X160210571Y-119673714D02*
X160210571Y-120340380D01*
X160448666Y-119292761D02*
X160686761Y-120007047D01*
X160067714Y-120007047D01*
%TO.C,J1*%
X160353333Y-94956380D02*
X160353333Y-95670666D01*
X160400952Y-95813523D01*
X160496190Y-95908761D01*
X160639047Y-95956380D01*
X160734285Y-95956380D01*
X159353333Y-95956380D02*
X159924761Y-95956380D01*
X159639047Y-95956380D02*
X159639047Y-94956380D01*
X159734285Y-95099238D01*
X159829523Y-95194476D01*
X159924761Y-95242095D01*
%TO.C,U1*%
X146821904Y-78907380D02*
X146821904Y-79716904D01*
X146774285Y-79812142D01*
X146726666Y-79859761D01*
X146631428Y-79907380D01*
X146440952Y-79907380D01*
X146345714Y-79859761D01*
X146298095Y-79812142D01*
X146250476Y-79716904D01*
X146250476Y-78907380D01*
X145250476Y-79907380D02*
X145821904Y-79907380D01*
X145536190Y-79907380D02*
X145536190Y-78907380D01*
X145631428Y-79050238D01*
X145726666Y-79145476D01*
X145821904Y-79193095D01*
%TO.C,J5*%
X121683333Y-110172380D02*
X121683333Y-110886666D01*
X121730952Y-111029523D01*
X121826190Y-111124761D01*
X121969047Y-111172380D01*
X122064285Y-111172380D01*
X120730952Y-110172380D02*
X121207142Y-110172380D01*
X121254761Y-110648571D01*
X121207142Y-110600952D01*
X121111904Y-110553333D01*
X120873809Y-110553333D01*
X120778571Y-110600952D01*
X120730952Y-110648571D01*
X120683333Y-110743809D01*
X120683333Y-110981904D01*
X120730952Y-111077142D01*
X120778571Y-111124761D01*
X120873809Y-111172380D01*
X121111904Y-111172380D01*
X121207142Y-111124761D01*
X121254761Y-111077142D01*
%TD*%
M02*
