%TF.GenerationSoftware,KiCad,Pcbnew,5.1.8*%
%TF.CreationDate,2020-11-28T18:21:18+01:00*%
%TF.ProjectId,livello_serbatoio_definitiva,6c697665-6c6c-46f5-9f73-65726261746f,rev?*%
%TF.SameCoordinates,Original*%
%TF.FileFunction,Copper,L1,Top*%
%TF.FilePolarity,Positive*%
%FSLAX46Y46*%
G04 Gerber Fmt 4.6, Leading zero omitted, Abs format (unit mm)*
G04 Created by KiCad (PCBNEW 5.1.8) date 2020-11-28 18:21:18*
%MOMM*%
%LPD*%
G01*
G04 APERTURE LIST*
%TA.AperFunction,ComponentPad*%
%ADD10O,1.700000X1.700000*%
%TD*%
%TA.AperFunction,ComponentPad*%
%ADD11R,1.700000X1.700000*%
%TD*%
%TA.AperFunction,ComponentPad*%
%ADD12C,2.000000*%
%TD*%
%TA.AperFunction,ComponentPad*%
%ADD13R,1.800000X1.800000*%
%TD*%
%TA.AperFunction,ComponentPad*%
%ADD14C,1.800000*%
%TD*%
%TA.AperFunction,ComponentPad*%
%ADD15O,2.200000X2.200000*%
%TD*%
%TA.AperFunction,ComponentPad*%
%ADD16R,2.200000X2.200000*%
%TD*%
%TA.AperFunction,ComponentPad*%
%ADD17C,1.600000*%
%TD*%
%TA.AperFunction,ComponentPad*%
%ADD18C,2.100000*%
%TD*%
%TA.AperFunction,ComponentPad*%
%ADD19R,2.100000X2.100000*%
%TD*%
%TA.AperFunction,ComponentPad*%
%ADD20C,1.700000*%
%TD*%
%TA.AperFunction,ComponentPad*%
%ADD21C,3.500000*%
%TD*%
%TA.AperFunction,ComponentPad*%
%ADD22C,1.000000*%
%TD*%
%TA.AperFunction,ComponentPad*%
%ADD23O,1.600000X1.600000*%
%TD*%
%TA.AperFunction,ComponentPad*%
%ADD24R,1.600000X1.600000*%
%TD*%
%TA.AperFunction,ComponentPad*%
%ADD25C,0.800000*%
%TD*%
%TA.AperFunction,ComponentPad*%
%ADD26C,6.000000*%
%TD*%
%TA.AperFunction,ViaPad*%
%ADD27C,0.800000*%
%TD*%
%TA.AperFunction,Conductor*%
%ADD28C,0.381000*%
%TD*%
%TA.AperFunction,Conductor*%
%ADD29C,0.762000*%
%TD*%
%TA.AperFunction,Conductor*%
%ADD30C,0.508000*%
%TD*%
%TA.AperFunction,Conductor*%
%ADD31C,0.254000*%
%TD*%
%TA.AperFunction,Conductor*%
%ADD32C,0.100000*%
%TD*%
G04 APERTURE END LIST*
D10*
%TO.P,J7,5*%
%TO.N,A5*%
X107160000Y-114070000D03*
%TO.P,J7,4*%
%TO.N,A4*%
X109700000Y-114070000D03*
%TO.P,J7,3*%
%TO.N,D10*%
X112240000Y-114070000D03*
%TO.P,J7,2*%
%TO.N,GND*%
X114780000Y-114070000D03*
D11*
%TO.P,J7,1*%
%TO.N,VDD*%
X117320000Y-114070000D03*
%TD*%
D12*
%TO.P,RV1,2*%
%TO.N,V0*%
X109950000Y-74450000D03*
%TO.P,RV1,3*%
%TO.N,GND*%
X99950000Y-76950000D03*
%TO.P,RV1,1*%
%TO.N,VDD*%
X99950000Y-71950000D03*
%TD*%
D13*
%TO.P,D4,1*%
%TO.N,GND*%
X148600000Y-73400000D03*
D14*
%TO.P,D4,2*%
%TO.N,Net-(D4-Pad2)*%
X151140000Y-73400000D03*
%TD*%
%TO.P,F1,2*%
%TO.N,VBUS*%
%TA.AperFunction,SMDPad,CuDef*%
G36*
G01*
X157240001Y-92575000D02*
X154339999Y-92575000D01*
G75*
G02*
X154090000Y-92325001I0J249999D01*
G01*
X154090000Y-91524999D01*
G75*
G02*
X154339999Y-91275000I249999J0D01*
G01*
X157240001Y-91275000D01*
G75*
G02*
X157490000Y-91524999I0J-249999D01*
G01*
X157490000Y-92325001D01*
G75*
G02*
X157240001Y-92575000I-249999J0D01*
G01*
G37*
%TD.AperFunction*%
%TO.P,F1,1*%
%TO.N,VDD*%
%TA.AperFunction,SMDPad,CuDef*%
G36*
G01*
X157240001Y-97025000D02*
X154339999Y-97025000D01*
G75*
G02*
X154090000Y-96775001I0J249999D01*
G01*
X154090000Y-95974999D01*
G75*
G02*
X154339999Y-95725000I249999J0D01*
G01*
X157240001Y-95725000D01*
G75*
G02*
X157490000Y-95974999I0J-249999D01*
G01*
X157490000Y-96775001D01*
G75*
G02*
X157240001Y-97025000I-249999J0D01*
G01*
G37*
%TD.AperFunction*%
%TD*%
D15*
%TO.P,D3,2*%
%TO.N,ICSP_RST*%
X96540000Y-128880000D03*
D16*
%TO.P,D3,1*%
%TO.N,VDD*%
X104160000Y-128880000D03*
%TD*%
D17*
%TO.P,C5,2*%
%TO.N,VBUS*%
X155540000Y-78420000D03*
%TO.P,C5,1*%
%TO.N,GND*%
X158040000Y-78420000D03*
%TD*%
D18*
%TO.P,J2,4*%
%TO.N,GND*%
X157210000Y-135360000D03*
%TO.P,J2,3*%
%TO.N,D2*%
X152210000Y-135360000D03*
%TO.P,J2,2*%
%TO.N,VDD*%
X147210000Y-135360000D03*
D19*
%TO.P,J2,1*%
%TO.N,Net-(J2-Pad1)*%
X142210000Y-135360000D03*
%TD*%
D18*
%TO.P,J4,4*%
%TO.N,GND*%
X165325000Y-100700000D03*
%TO.P,J4,3*%
%TO.N,D12*%
X165325000Y-105700000D03*
%TO.P,J4,2*%
%TO.N,D11*%
X165325000Y-110700000D03*
D19*
%TO.P,J4,1*%
%TO.N,VDD*%
X165325000Y-115700000D03*
%TD*%
D11*
%TO.P,J1,1*%
%TO.N,VBUS*%
X161050000Y-89500000D03*
D20*
%TO.P,J1,2*%
%TO.N,D_IN_-*%
X161050000Y-87000000D03*
%TO.P,J1,3*%
%TO.N,D_IN_+*%
X163050000Y-87000000D03*
%TO.P,J1,4*%
%TO.N,GND*%
X163050000Y-89500000D03*
D21*
%TO.P,J1,5*%
X165760000Y-94270000D03*
X165760000Y-82230000D03*
%TD*%
D22*
%TO.P,Y1,1*%
%TO.N,/X2*%
X131900000Y-134770000D03*
%TO.P,Y1,2*%
%TO.N,/X1*%
X127020000Y-134770000D03*
%TD*%
D23*
%TO.P,U2,28*%
%TO.N,A5*%
X108000000Y-118780000D03*
%TO.P,U2,14*%
%TO.N,D8*%
X141020000Y-126400000D03*
%TO.P,U2,27*%
%TO.N,A4*%
X110540000Y-118780000D03*
%TO.P,U2,13*%
%TO.N,D7*%
X138480000Y-126400000D03*
%TO.P,U2,26*%
%TO.N,A3*%
X113080000Y-118780000D03*
%TO.P,U2,12*%
%TO.N,D6*%
X135940000Y-126400000D03*
%TO.P,U2,25*%
%TO.N,A2*%
X115620000Y-118780000D03*
%TO.P,U2,11*%
%TO.N,D5*%
X133400000Y-126400000D03*
%TO.P,U2,24*%
%TO.N,A1*%
X118160000Y-118780000D03*
%TO.P,U2,10*%
%TO.N,/X2*%
X130860000Y-126400000D03*
%TO.P,U2,23*%
%TO.N,A0*%
X120700000Y-118780000D03*
%TO.P,U2,9*%
%TO.N,/X1*%
X128320000Y-126400000D03*
%TO.P,U2,22*%
%TO.N,GND*%
X123240000Y-118780000D03*
%TO.P,U2,8*%
X125780000Y-126400000D03*
%TO.P,U2,21*%
%TO.N,Net-(C3-Pad1)*%
X125780000Y-118780000D03*
%TO.P,U2,7*%
%TO.N,VDD*%
X123240000Y-126400000D03*
%TO.P,U2,20*%
X128320000Y-118780000D03*
%TO.P,U2,6*%
%TO.N,D4*%
X120700000Y-126400000D03*
%TO.P,U2,19*%
%TO.N,D13*%
X130860000Y-118780000D03*
%TO.P,U2,5*%
%TO.N,D3*%
X118160000Y-126400000D03*
%TO.P,U2,18*%
%TO.N,D12*%
X133400000Y-118780000D03*
%TO.P,U2,4*%
%TO.N,D2*%
X115620000Y-126400000D03*
%TO.P,U2,17*%
%TO.N,D11*%
X135940000Y-118780000D03*
%TO.P,U2,3*%
%TO.N,RX*%
X113080000Y-126400000D03*
%TO.P,U2,16*%
%TO.N,D10*%
X138480000Y-118780000D03*
%TO.P,U2,2*%
%TO.N,TX*%
X110540000Y-126400000D03*
%TO.P,U2,15*%
%TO.N,BLA*%
X141020000Y-118780000D03*
D24*
%TO.P,U2,1*%
%TO.N,ICSP_RST*%
X108000000Y-126400000D03*
%TD*%
D25*
%TO.P,H4,1*%
%TO.N,GND*%
X94590990Y-132409010D03*
X93000000Y-131750000D03*
X91409010Y-132409010D03*
X90750000Y-134000000D03*
X91409010Y-135590990D03*
X93000000Y-136250000D03*
X94590990Y-135590990D03*
X95250000Y-134000000D03*
D26*
X93000000Y-134000000D03*
%TD*%
D10*
%TO.P,J3,16*%
%TO.N,GND*%
X135100000Y-82000000D03*
%TO.P,J3,15*%
%TO.N,BLA*%
X132560000Y-82000000D03*
%TO.P,J3,14*%
%TO.N,D8*%
X130020000Y-82000000D03*
%TO.P,J3,13*%
%TO.N,D7*%
X127480000Y-82000000D03*
%TO.P,J3,12*%
%TO.N,D6*%
X124940000Y-82000000D03*
%TO.P,J3,11*%
%TO.N,D5*%
X122400000Y-82000000D03*
%TO.P,J3,10*%
%TO.N,DB3*%
X119860000Y-82000000D03*
%TO.P,J3,9*%
%TO.N,DB2*%
X117320000Y-82000000D03*
%TO.P,J3,8*%
%TO.N,DB1*%
X114780000Y-82000000D03*
%TO.P,J3,7*%
%TO.N,DB0*%
X112240000Y-82000000D03*
%TO.P,J3,6*%
%TO.N,D4*%
X109700000Y-82000000D03*
%TO.P,J3,5*%
%TO.N,GND*%
X107160000Y-82000000D03*
%TO.P,J3,4*%
%TO.N,D3*%
X104620000Y-82000000D03*
%TO.P,J3,3*%
%TO.N,V0*%
X102080000Y-82000000D03*
%TO.P,J3,2*%
%TO.N,VDD*%
X99540000Y-82000000D03*
D11*
%TO.P,J3,1*%
%TO.N,GND*%
X97000000Y-82000000D03*
%TD*%
D25*
%TO.P,H1,1*%
%TO.N,GND*%
X94590990Y-72409010D03*
X93000000Y-71750000D03*
X91409010Y-72409010D03*
X90750000Y-74000000D03*
X91409010Y-75590990D03*
X93000000Y-76250000D03*
X94590990Y-75590990D03*
X95250000Y-74000000D03*
D26*
X93000000Y-74000000D03*
%TD*%
D25*
%TO.P,H2,1*%
%TO.N,GND*%
X165590990Y-72409010D03*
X164000000Y-71750000D03*
X162409010Y-72409010D03*
X161750000Y-74000000D03*
X162409010Y-75590990D03*
X164000000Y-76250000D03*
X165590990Y-75590990D03*
X166250000Y-74000000D03*
D26*
X164000000Y-74000000D03*
%TD*%
D25*
%TO.P,H3,1*%
%TO.N,GND*%
X165590990Y-132409010D03*
X164000000Y-131750000D03*
X162409010Y-132409010D03*
X161750000Y-134000000D03*
X162409010Y-135590990D03*
X164000000Y-136250000D03*
X165590990Y-135590990D03*
X166250000Y-134000000D03*
D26*
X164000000Y-134000000D03*
%TD*%
D10*
%TO.P,J5,6*%
%TO.N,GND*%
X122615000Y-103220000D03*
%TO.P,J5,5*%
%TO.N,ICSP_RST*%
X120075000Y-103220000D03*
%TO.P,J5,4*%
%TO.N,D11*%
X122615000Y-105760000D03*
%TO.P,J5,3*%
%TO.N,D13*%
X120075000Y-105760000D03*
%TO.P,J5,2*%
%TO.N,VDD*%
X122615000Y-108300000D03*
D11*
%TO.P,J5,1*%
%TO.N,D12*%
X120075000Y-108300000D03*
%TD*%
D17*
%TO.P,C1,1*%
%TO.N,GND*%
X156170000Y-87970000D03*
%TO.P,C1,2*%
%TO.N,VDD*%
X156170000Y-85470000D03*
%TD*%
%TO.P,C2,1*%
%TO.N,Net-(C2-Pad1)*%
X152700000Y-85480000D03*
%TO.P,C2,2*%
%TO.N,GND*%
X152700000Y-87980000D03*
%TD*%
%TO.P,C3,1*%
%TO.N,Net-(C3-Pad1)*%
X125750000Y-116000000D03*
%TO.P,C3,2*%
%TO.N,GND*%
X123250000Y-116000000D03*
%TD*%
%TO.P,C4,2*%
%TO.N,DTR*%
X93060000Y-126350000D03*
%TO.P,C4,1*%
%TO.N,ICSP_RST*%
X93060000Y-128850000D03*
%TD*%
%TO.P,C6,2*%
%TO.N,GND*%
X131300000Y-116000000D03*
%TO.P,C6,1*%
%TO.N,VDD*%
X128800000Y-116000000D03*
%TD*%
%TO.P,C7,2*%
%TO.N,/X1*%
X121800000Y-133800000D03*
%TO.P,C7,1*%
%TO.N,GND*%
X121800000Y-136300000D03*
%TD*%
%TO.P,C8,1*%
%TO.N,GND*%
X137150000Y-136300000D03*
%TO.P,C8,2*%
%TO.N,/X2*%
X137150000Y-133800000D03*
%TD*%
D14*
%TO.P,D1,2*%
%TO.N,Net-(D1-Pad2)*%
X137740000Y-73400000D03*
D13*
%TO.P,D1,1*%
%TO.N,Net-(D1-Pad1)*%
X135200000Y-73400000D03*
%TD*%
%TO.P,D2,1*%
%TO.N,Net-(D2-Pad1)*%
X141900000Y-73400000D03*
D14*
%TO.P,D2,2*%
%TO.N,Net-(D2-Pad2)*%
X144440000Y-73400000D03*
%TD*%
D17*
%TO.P,R1,1*%
%TO.N,TX*%
X110625000Y-94940000D03*
D23*
%TO.P,R1,2*%
%TO.N,Net-(R1-Pad2)*%
X123325000Y-94940000D03*
%TD*%
%TO.P,R2,2*%
%TO.N,Net-(R2-Pad2)*%
X123275000Y-90890000D03*
D17*
%TO.P,R2,1*%
%TO.N,RX*%
X110575000Y-90890000D03*
%TD*%
%TO.P,R3,1*%
%TO.N,VDD*%
X130035000Y-99765000D03*
D23*
%TO.P,R3,2*%
%TO.N,Net-(D1-Pad2)*%
X130035000Y-87065000D03*
%TD*%
%TO.P,R4,2*%
%TO.N,Net-(D2-Pad2)*%
X134035000Y-87065000D03*
D17*
%TO.P,R4,1*%
%TO.N,VDD*%
X134035000Y-99765000D03*
%TD*%
%TO.P,R5,1*%
%TO.N,DTR*%
X93050000Y-121000000D03*
D23*
%TO.P,R5,2*%
%TO.N,GND*%
X93050000Y-108300000D03*
%TD*%
D17*
%TO.P,R6,1*%
%TO.N,VDD*%
X111300000Y-133700000D03*
D23*
%TO.P,R6,2*%
%TO.N,ICSP_RST*%
X98600000Y-133700000D03*
%TD*%
%TO.P,R7,2*%
%TO.N,/X2*%
X135800000Y-129750000D03*
D17*
%TO.P,R7,1*%
%TO.N,/X1*%
X123100000Y-129750000D03*
%TD*%
%TO.P,R8,1*%
%TO.N,D13*%
X152350000Y-124075000D03*
D23*
%TO.P,R8,2*%
%TO.N,Net-(J2-Pad1)*%
X165050000Y-124075000D03*
%TD*%
%TO.P,R9,2*%
%TO.N,VDD*%
X138035000Y-99765000D03*
D17*
%TO.P,R9,1*%
%TO.N,Net-(D4-Pad2)*%
X138035000Y-87065000D03*
%TD*%
D23*
%TO.P,R11,2*%
%TO.N,GND*%
X165050000Y-128075000D03*
D17*
%TO.P,R11,1*%
%TO.N,D2*%
X152350000Y-128075000D03*
%TD*%
D12*
%TO.P,SW1,2*%
%TO.N,GND*%
X97050000Y-125500000D03*
%TO.P,SW1,1*%
%TO.N,DTR*%
X97050000Y-121000000D03*
%TO.P,SW1,2*%
%TO.N,GND*%
X103550000Y-125500000D03*
%TO.P,SW1,1*%
%TO.N,DTR*%
X103550000Y-121000000D03*
%TD*%
D27*
%TO.N,Net-(C2-Pad1)*%
X152270000Y-83110000D03*
%TO.N,DTR*%
X100820000Y-103960000D03*
X140144074Y-89384074D03*
%TO.N,Net-(D1-Pad1)*%
X147190000Y-86660000D03*
%TO.N,Net-(D2-Pad1)*%
X147710000Y-85720000D03*
%TO.N,BLA*%
X141030000Y-115190000D03*
%TO.N,D2*%
X122050000Y-123175000D03*
X125930000Y-123170000D03*
%TO.N,Net-(R1-Pad2)*%
X140150000Y-90520000D03*
%TO.N,Net-(R2-Pad2)*%
X132350000Y-90920000D03*
%TO.N,ICSP_RST*%
X102150000Y-115430000D03*
X102160000Y-103200000D03*
%TO.N,GND*%
X164550000Y-89525000D03*
X163025000Y-91050000D03*
X165750000Y-91875000D03*
X168175000Y-94275000D03*
X163325000Y-94275000D03*
X165750000Y-96675000D03*
X165750000Y-84650000D03*
X168175000Y-82225000D03*
X165775000Y-79725000D03*
X163350000Y-82225000D03*
X131300000Y-114500000D03*
X125800000Y-124775000D03*
X135080001Y-110720001D03*
X135080001Y-108520001D03*
X137280001Y-110720001D03*
X139860000Y-128850000D03*
X119170000Y-128850000D03*
X119170000Y-131390000D03*
X119170000Y-133930000D03*
X119170000Y-136470000D03*
X139860000Y-131390000D03*
X139860000Y-133930000D03*
X139860000Y-136470000D03*
X158590000Y-81770000D03*
X127220000Y-110190000D03*
X130779998Y-106630000D03*
X132979998Y-106630000D03*
X130779998Y-104430000D03*
X140450000Y-86010000D03*
X147720000Y-83410000D03*
X130000000Y-96500000D03*
%TD*%
D28*
%TO.N,Net-(C2-Pad1)*%
X152270000Y-83110000D02*
X152780000Y-83620000D01*
X152780000Y-85400000D02*
X152700000Y-85480000D01*
X152780000Y-83620000D02*
X152780000Y-85400000D01*
D29*
%TO.N,Net-(C3-Pad1)*%
X125750000Y-118750000D02*
X125780000Y-118780000D01*
X125750000Y-116000000D02*
X125750000Y-118750000D01*
D30*
%TO.N,DTR*%
X93050000Y-121000000D02*
X97050000Y-121000000D01*
X97050000Y-121000000D02*
X103550000Y-121000000D01*
X93050000Y-121000000D02*
X93260000Y-121210000D01*
D31*
X100820000Y-103960000D02*
X100820000Y-90460000D01*
X100820000Y-90460000D02*
X101895926Y-89384074D01*
X101895926Y-89384074D02*
X140144074Y-89384074D01*
D30*
X93050000Y-126140000D02*
X93060000Y-126150000D01*
X93050000Y-121000000D02*
X93050000Y-126140000D01*
%TO.N,VDD*%
X160275000Y-98075000D02*
X167500000Y-98075000D01*
X167500000Y-98075000D02*
X168125000Y-98700000D01*
X168125000Y-98700000D02*
X168125000Y-114650000D01*
X167075000Y-115700000D02*
X165325000Y-115700000D01*
X168125000Y-114650000D02*
X167075000Y-115700000D01*
X128320000Y-116480000D02*
X128800000Y-116000000D01*
X128320000Y-118780000D02*
X128320000Y-116480000D01*
X123240000Y-123860000D02*
X128320000Y-118780000D01*
X123240000Y-126400000D02*
X123240000Y-123860000D01*
X106500000Y-128900000D02*
X111300000Y-133700000D01*
X104100000Y-128900000D02*
X106500000Y-128900000D01*
X99540000Y-82000000D02*
X99540000Y-80365000D01*
X99540000Y-80365000D02*
X97550000Y-78375000D01*
X97550000Y-78375000D02*
X97550000Y-73125000D01*
X98725000Y-71950000D02*
X99950000Y-71950000D01*
X97550000Y-73125000D02*
X98725000Y-71950000D01*
X158565000Y-96365000D02*
X160275000Y-98075000D01*
X155850000Y-96365000D02*
X158565000Y-96365000D01*
X130175000Y-99625000D02*
X130035000Y-99765000D01*
X150625000Y-99625000D02*
X130175000Y-99625000D01*
X153885000Y-96365000D02*
X150625000Y-99625000D01*
X155850000Y-96365000D02*
X153885000Y-96365000D01*
X128800000Y-114525000D02*
X128800000Y-116000000D01*
X122615000Y-108340000D02*
X128800000Y-114525000D01*
X122615000Y-108300000D02*
X122615000Y-108340000D01*
X122650000Y-108300000D02*
X122615000Y-108300000D01*
X130035000Y-100915000D02*
X122650000Y-108300000D01*
X130035000Y-99765000D02*
X130035000Y-100915000D01*
X155790000Y-94980000D02*
X155790000Y-96375000D01*
X153810000Y-94630000D02*
X155440000Y-94630000D01*
X155440000Y-94630000D02*
X155790000Y-94980000D01*
X152950000Y-93770000D02*
X153810000Y-94630000D01*
X154480000Y-87160000D02*
X154480000Y-89620000D01*
X152950000Y-91150000D02*
X152950000Y-93770000D01*
X154480000Y-89620000D02*
X152950000Y-91150000D01*
X156170000Y-85470000D02*
X154480000Y-87160000D01*
X121680000Y-127960000D02*
X123240000Y-126400000D01*
X111300000Y-133302000D02*
X116642000Y-127960000D01*
X116642000Y-127960000D02*
X121680000Y-127960000D01*
X111300000Y-133700000D02*
X111300000Y-133302000D01*
X105350000Y-110300000D02*
X99540000Y-104490000D01*
X120615000Y-110300000D02*
X105350000Y-110300000D01*
X99540000Y-104490000D02*
X99540000Y-82000000D01*
X122615000Y-108300000D02*
X120615000Y-110300000D01*
X122615000Y-108300000D02*
X122615000Y-110885000D01*
X149910000Y-132890000D02*
X147450000Y-135350000D01*
X159350000Y-126225000D02*
X152685000Y-132890000D01*
X165965000Y-126225000D02*
X159350000Y-126225000D01*
X152685000Y-132890000D02*
X149910000Y-132890000D01*
X166840000Y-125350000D02*
X165965000Y-126225000D01*
X166840000Y-122870000D02*
X166840000Y-125350000D01*
X165325000Y-121355000D02*
X166840000Y-122870000D01*
X165325000Y-115700000D02*
X165325000Y-121355000D01*
X119430000Y-114070000D02*
X122615000Y-110885000D01*
X117320000Y-114070000D02*
X118870600Y-114070000D01*
X118870600Y-114070000D02*
X119430000Y-114070000D01*
X118190000Y-114070000D02*
X118870600Y-114070000D01*
D31*
%TO.N,Net-(D1-Pad1)*%
X135200000Y-77150000D02*
X135200000Y-73400000D01*
X136100000Y-78050000D02*
X135200000Y-77150000D01*
X145780000Y-79010000D02*
X144820000Y-78050000D01*
X145780000Y-85750000D02*
X145780000Y-79010000D01*
X144820000Y-78050000D02*
X136100000Y-78050000D01*
X146690000Y-86660000D02*
X145780000Y-85750000D01*
X147190000Y-86660000D02*
X146690000Y-86660000D01*
%TO.N,Net-(D2-Pad1)*%
X142490000Y-76460000D02*
X141900000Y-75870000D01*
X146140000Y-76460000D02*
X142490000Y-76460000D01*
X146760000Y-77080000D02*
X146140000Y-76460000D01*
X141900000Y-75870000D02*
X141900000Y-73400000D01*
X146760000Y-84770000D02*
X146760000Y-77080000D01*
X147710000Y-85720000D02*
X146760000Y-84770000D01*
%TO.N,D12*%
X137250000Y-113250000D02*
X133400000Y-117100000D01*
X133400000Y-117100000D02*
X133400000Y-118780000D01*
X146625000Y-113250000D02*
X137250000Y-113250000D01*
X154175000Y-105700000D02*
X146625000Y-113250000D01*
X165325000Y-105700000D02*
X154175000Y-105700000D01*
%TO.N,D11*%
X135940000Y-116560000D02*
X135940000Y-118780000D01*
X138750000Y-113750000D02*
X135940000Y-116560000D01*
X146767066Y-113750000D02*
X138750000Y-113750000D01*
X149817066Y-110700000D02*
X146767066Y-113750000D01*
X165325000Y-110700000D02*
X149817066Y-110700000D01*
D28*
%TO.N,V0*%
X102080000Y-82000000D02*
X102080000Y-79770000D01*
X107400000Y-74450000D02*
X109950000Y-74450000D01*
X102080000Y-79770000D02*
X107400000Y-74450000D01*
D31*
%TO.N,BLA*%
X141020000Y-115200000D02*
X141030000Y-115190000D01*
X141020000Y-118780000D02*
X141020000Y-115200000D01*
D30*
%TO.N,D2*%
X152350000Y-135250000D02*
X152450000Y-135350000D01*
D31*
X115620000Y-126400000D02*
X115620000Y-124155000D01*
X116600000Y-123175000D02*
X122050000Y-123175000D01*
X115620000Y-124155000D02*
X116600000Y-123175000D01*
X136035000Y-124725000D02*
X134480000Y-123170000D01*
X149000000Y-124725000D02*
X136035000Y-124725000D01*
X134480000Y-123170000D02*
X125930000Y-123170000D01*
X152350000Y-128075000D02*
X149000000Y-124725000D01*
%TO.N,Net-(R1-Pad2)*%
X139750001Y-90919999D02*
X140150000Y-90520000D01*
X135710000Y-94960000D02*
X139750001Y-90919999D01*
X123835000Y-94960000D02*
X135710000Y-94960000D01*
X123275000Y-94400000D02*
X123835000Y-94960000D01*
%TO.N,Net-(R2-Pad2)*%
X123225000Y-90350000D02*
X123795000Y-90920000D01*
X123795000Y-90920000D02*
X131784315Y-90920000D01*
X131784315Y-90920000D02*
X132350000Y-90920000D01*
%TO.N,D13*%
X136155000Y-124075000D02*
X152350000Y-124075000D01*
X130860000Y-118780000D02*
X136155000Y-124075000D01*
D30*
%TO.N,ICSP_RST*%
X98600000Y-131020000D02*
X98600000Y-133700000D01*
X96480000Y-128900000D02*
X98600000Y-131020000D01*
X96380000Y-128800000D02*
X96480000Y-128900000D01*
X107260000Y-127140000D02*
X108000000Y-126400000D01*
X98240000Y-127140000D02*
X107260000Y-127140000D01*
X96480000Y-128900000D02*
X98240000Y-127140000D01*
D31*
X120075000Y-103220000D02*
X102180000Y-103220000D01*
X102180000Y-103220000D02*
X102160000Y-103200000D01*
X105830000Y-126400000D02*
X108000000Y-126400000D01*
X105400000Y-125970000D02*
X105830000Y-126400000D01*
X105400000Y-120340000D02*
X105400000Y-125970000D01*
X104300000Y-119240000D02*
X105400000Y-120340000D01*
X103120000Y-119240000D02*
X104300000Y-119240000D01*
X102150000Y-118270000D02*
X103120000Y-119240000D01*
X102150000Y-115430000D02*
X102150000Y-118270000D01*
D30*
X96510000Y-128850000D02*
X96540000Y-128880000D01*
X93060000Y-128850000D02*
X96510000Y-128850000D01*
D29*
%TO.N,/X1*%
X121800000Y-131050000D02*
X123100000Y-129750000D01*
X121800000Y-133800000D02*
X121800000Y-131050000D01*
X126050000Y-133800000D02*
X127020000Y-134770000D01*
X121800000Y-133800000D02*
X126050000Y-133800000D01*
X128320000Y-128020000D02*
X128320000Y-126400000D01*
X126590000Y-129750000D02*
X128320000Y-128020000D01*
X123100000Y-129750000D02*
X126590000Y-129750000D01*
%TO.N,/X2*%
X137150000Y-133800000D02*
X137150000Y-131000000D01*
X135900000Y-129750000D02*
X135800000Y-129750000D01*
X137150000Y-131000000D02*
X135900000Y-129750000D01*
X132870000Y-133800000D02*
X131900000Y-134770000D01*
X137150000Y-133800000D02*
X132870000Y-133800000D01*
X132610000Y-129750000D02*
X135800000Y-129750000D01*
X130860000Y-128000000D02*
X132610000Y-129750000D01*
X130860000Y-126400000D02*
X130860000Y-128000000D01*
%TO.N,GND*%
X164525000Y-89500000D02*
X164550000Y-89525000D01*
X163050000Y-89500000D02*
X164525000Y-89500000D01*
X163050000Y-91025000D02*
X163025000Y-91050000D01*
X163050000Y-89500000D02*
X163050000Y-91025000D01*
X165750000Y-94260000D02*
X165760000Y-94270000D01*
X165750000Y-91875000D02*
X165750000Y-94260000D01*
X165755000Y-94275000D02*
X165760000Y-94270000D01*
X163325000Y-94275000D02*
X165755000Y-94275000D01*
X168170000Y-94270000D02*
X168175000Y-94275000D01*
X165760000Y-94270000D02*
X168170000Y-94270000D01*
X165760000Y-96665000D02*
X165750000Y-96675000D01*
X165760000Y-94270000D02*
X165760000Y-96665000D01*
X165760000Y-79740000D02*
X165775000Y-79725000D01*
X165760000Y-82230000D02*
X165760000Y-79740000D01*
X163355000Y-82230000D02*
X163350000Y-82225000D01*
X165760000Y-82230000D02*
X163355000Y-82230000D01*
X168170000Y-82230000D02*
X168175000Y-82225000D01*
X165760000Y-82230000D02*
X168170000Y-82230000D01*
X165760000Y-84640000D02*
X165750000Y-84650000D01*
X165760000Y-82230000D02*
X165760000Y-84640000D01*
X131300000Y-116000000D02*
X131300000Y-114500000D01*
X107150000Y-81990000D02*
X107160000Y-82000000D01*
X135125000Y-81975000D02*
X135100000Y-82000000D01*
X131300000Y-114500000D02*
X131700001Y-114100001D01*
X131700001Y-114100001D02*
X135080001Y-110720001D01*
X127220000Y-110190000D02*
X127619999Y-109789999D01*
X127619999Y-109789999D02*
X130779998Y-106630000D01*
X125250000Y-96500000D02*
X130000000Y-96500000D01*
X122615000Y-99135000D02*
X125250000Y-96500000D01*
X122615000Y-103220000D02*
X122615000Y-99135000D01*
D30*
X114780000Y-115511520D02*
X114780000Y-114070000D01*
X115268480Y-116000000D02*
X114780000Y-115511520D01*
X123250000Y-116000000D02*
X115268480Y-116000000D01*
%TO.N,Net-(J2-Pad1)*%
X151620000Y-131830000D02*
X159375000Y-124075000D01*
X159375000Y-124075000D02*
X165050000Y-124075000D01*
X145170000Y-131830000D02*
X151620000Y-131830000D01*
X142450000Y-134550000D02*
X145170000Y-131830000D01*
X142450000Y-135350000D02*
X142450000Y-134550000D01*
D29*
%TO.N,VBUS*%
X161050000Y-89500000D02*
X161050000Y-90390000D01*
X159525000Y-91915000D02*
X155850000Y-91915000D01*
X161050000Y-90390000D02*
X159525000Y-91915000D01*
%TD*%
D31*
%TO.N,GND*%
X161507468Y-76672140D02*
X161552608Y-76627000D01*
X161669869Y-76627000D01*
X161957106Y-77027868D01*
X162587068Y-77368237D01*
X163271327Y-77579166D01*
X163983589Y-77652550D01*
X164696482Y-77585569D01*
X165382609Y-77380796D01*
X166015603Y-77046102D01*
X166042894Y-77027868D01*
X166330131Y-76627000D01*
X166447392Y-76627000D01*
X166492532Y-76672140D01*
X166537672Y-76627000D01*
X169373000Y-76627000D01*
X169373000Y-97373000D01*
X160394658Y-97373000D01*
X158996017Y-95974360D01*
X158977817Y-95952183D01*
X158962496Y-95939609D01*
X164269997Y-95939609D01*
X164456073Y-96280766D01*
X164873409Y-96496513D01*
X165324815Y-96626696D01*
X165792946Y-96666313D01*
X166259811Y-96613842D01*
X166707468Y-96471297D01*
X167063927Y-96280766D01*
X167250003Y-95939609D01*
X165760000Y-94449605D01*
X164269997Y-95939609D01*
X158962496Y-95939609D01*
X158889348Y-95879579D01*
X158788415Y-95825629D01*
X158678896Y-95792407D01*
X158593540Y-95784000D01*
X158565000Y-95781189D01*
X158536460Y-95784000D01*
X157783766Y-95784000D01*
X157774540Y-95753586D01*
X157721074Y-95653557D01*
X157649120Y-95565880D01*
X157561443Y-95493926D01*
X157461414Y-95440460D01*
X157352877Y-95407535D01*
X157240001Y-95396418D01*
X156371000Y-95396418D01*
X156371000Y-95008540D01*
X156373811Y-94980000D01*
X156362593Y-94866104D01*
X156329371Y-94756585D01*
X156275421Y-94655652D01*
X156221010Y-94589352D01*
X156202817Y-94567183D01*
X156180646Y-94548988D01*
X155934604Y-94302946D01*
X163363687Y-94302946D01*
X163416158Y-94769811D01*
X163558703Y-95217468D01*
X163749234Y-95573927D01*
X164090391Y-95760003D01*
X165580395Y-94270000D01*
X165939605Y-94270000D01*
X167429609Y-95760003D01*
X167770766Y-95573927D01*
X167986513Y-95156591D01*
X168116696Y-94705185D01*
X168156313Y-94237054D01*
X168103842Y-93770189D01*
X167961297Y-93322532D01*
X167770766Y-92966073D01*
X167429609Y-92779997D01*
X165939605Y-94270000D01*
X165580395Y-94270000D01*
X164090391Y-92779997D01*
X163749234Y-92966073D01*
X163533487Y-93383409D01*
X163403304Y-93834815D01*
X163363687Y-94302946D01*
X155934604Y-94302946D01*
X155871017Y-94239360D01*
X155852817Y-94217183D01*
X155764348Y-94144579D01*
X155663415Y-94090629D01*
X155553896Y-94057407D01*
X155468540Y-94049000D01*
X155440000Y-94046189D01*
X155411460Y-94049000D01*
X154050658Y-94049000D01*
X153531000Y-93529343D01*
X153531000Y-91524999D01*
X153761418Y-91524999D01*
X153761418Y-92325001D01*
X153772535Y-92437877D01*
X153805460Y-92546414D01*
X153858926Y-92646443D01*
X153930880Y-92734120D01*
X154018557Y-92806074D01*
X154118586Y-92859540D01*
X154227123Y-92892465D01*
X154339999Y-92903582D01*
X157240001Y-92903582D01*
X157352877Y-92892465D01*
X157461414Y-92859540D01*
X157561443Y-92806074D01*
X157649120Y-92734120D01*
X157721074Y-92646443D01*
X157733604Y-92623000D01*
X159490234Y-92623000D01*
X159525000Y-92626424D01*
X159559766Y-92623000D01*
X159559774Y-92623000D01*
X159663792Y-92612755D01*
X159704550Y-92600391D01*
X164269997Y-92600391D01*
X165760000Y-94090395D01*
X167250003Y-92600391D01*
X167063927Y-92259234D01*
X166646591Y-92043487D01*
X166195185Y-91913304D01*
X165727054Y-91873687D01*
X165260189Y-91926158D01*
X164812532Y-92068703D01*
X164456073Y-92259234D01*
X164269997Y-92600391D01*
X159704550Y-92600391D01*
X159797251Y-92572271D01*
X159920247Y-92506528D01*
X160028053Y-92418053D01*
X160050223Y-92391039D01*
X161526044Y-90915219D01*
X161553053Y-90893053D01*
X161641528Y-90785247D01*
X161698542Y-90678582D01*
X161900000Y-90678582D01*
X161964103Y-90672268D01*
X162025743Y-90653570D01*
X162070335Y-90629735D01*
X162085104Y-90644504D01*
X162201209Y-90528399D01*
X162278843Y-90777472D01*
X162542883Y-90903371D01*
X162826411Y-90975339D01*
X163118531Y-90990611D01*
X163408019Y-90948599D01*
X163683747Y-90850919D01*
X163821157Y-90777472D01*
X163898792Y-90528397D01*
X163050000Y-89679605D01*
X163035858Y-89693748D01*
X162856253Y-89514143D01*
X162870395Y-89500000D01*
X163229605Y-89500000D01*
X164078397Y-90348792D01*
X164327472Y-90271157D01*
X164453371Y-90007117D01*
X164525339Y-89723589D01*
X164540611Y-89431469D01*
X164498599Y-89141981D01*
X164400919Y-88866253D01*
X164327472Y-88728843D01*
X164078397Y-88651208D01*
X163229605Y-89500000D01*
X162870395Y-89500000D01*
X162856253Y-89485858D01*
X163035858Y-89306253D01*
X163050000Y-89320395D01*
X163898792Y-88471603D01*
X163821157Y-88222528D01*
X163557117Y-88096629D01*
X163508156Y-88084201D01*
X163607519Y-88043044D01*
X163800294Y-87914236D01*
X163964236Y-87750294D01*
X164093044Y-87557519D01*
X164181769Y-87343318D01*
X164227000Y-87115924D01*
X164227000Y-86884076D01*
X164181769Y-86656682D01*
X164093044Y-86442481D01*
X163964236Y-86249706D01*
X163800294Y-86085764D01*
X163607519Y-85956956D01*
X163393318Y-85868231D01*
X163165924Y-85823000D01*
X162934076Y-85823000D01*
X162706682Y-85868231D01*
X162492481Y-85956956D01*
X162299706Y-86085764D01*
X162135764Y-86249706D01*
X162050000Y-86378061D01*
X161964236Y-86249706D01*
X161800294Y-86085764D01*
X161607519Y-85956956D01*
X161393318Y-85868231D01*
X161165924Y-85823000D01*
X160934076Y-85823000D01*
X160706682Y-85868231D01*
X160492481Y-85956956D01*
X160299706Y-86085764D01*
X160135764Y-86249706D01*
X160006956Y-86442481D01*
X159918231Y-86656682D01*
X159873000Y-86884076D01*
X159873000Y-87115924D01*
X159918231Y-87343318D01*
X160006956Y-87557519D01*
X160135764Y-87750294D01*
X160299706Y-87914236D01*
X160492481Y-88043044D01*
X160706682Y-88131769D01*
X160934076Y-88177000D01*
X161165924Y-88177000D01*
X161393318Y-88131769D01*
X161607519Y-88043044D01*
X161800294Y-87914236D01*
X161964236Y-87750294D01*
X162050000Y-87621939D01*
X162135764Y-87750294D01*
X162299706Y-87914236D01*
X162492481Y-88043044D01*
X162595324Y-88085643D01*
X162416253Y-88149081D01*
X162278843Y-88222528D01*
X162201209Y-88471601D01*
X162085104Y-88355496D01*
X162070335Y-88370265D01*
X162025743Y-88346430D01*
X161964103Y-88327732D01*
X161900000Y-88321418D01*
X160200000Y-88321418D01*
X160135897Y-88327732D01*
X160074257Y-88346430D01*
X160017450Y-88376794D01*
X159967657Y-88417657D01*
X159926794Y-88467450D01*
X159896430Y-88524257D01*
X159877732Y-88585897D01*
X159871418Y-88650000D01*
X159871418Y-90350000D01*
X159877732Y-90414103D01*
X159896430Y-90475743D01*
X159919616Y-90519121D01*
X159231738Y-91207000D01*
X157722914Y-91207000D01*
X157721074Y-91203557D01*
X157649120Y-91115880D01*
X157561443Y-91043926D01*
X157461414Y-90990460D01*
X157352877Y-90957535D01*
X157240001Y-90946418D01*
X154339999Y-90946418D01*
X154227123Y-90957535D01*
X154118586Y-90990460D01*
X154018557Y-91043926D01*
X153930880Y-91115880D01*
X153858926Y-91203557D01*
X153805460Y-91303586D01*
X153772535Y-91412123D01*
X153761418Y-91524999D01*
X153531000Y-91524999D01*
X153531000Y-91390657D01*
X154870651Y-90051008D01*
X154892817Y-90032817D01*
X154913909Y-90007117D01*
X154965421Y-89944348D01*
X155019371Y-89843415D01*
X155052593Y-89733896D01*
X155063811Y-89620000D01*
X155061000Y-89591460D01*
X155061000Y-88962702D01*
X155356903Y-88962702D01*
X155428486Y-89206671D01*
X155683996Y-89327571D01*
X155958184Y-89396300D01*
X156240512Y-89410217D01*
X156520130Y-89368787D01*
X156786292Y-89273603D01*
X156911514Y-89206671D01*
X156983097Y-88962702D01*
X156170000Y-88149605D01*
X155356903Y-88962702D01*
X155061000Y-88962702D01*
X155061000Y-88748974D01*
X155177298Y-88783097D01*
X155990395Y-87970000D01*
X156349605Y-87970000D01*
X157162702Y-88783097D01*
X157406671Y-88711514D01*
X157527571Y-88456004D01*
X157596300Y-88181816D01*
X157610217Y-87899488D01*
X157568787Y-87619870D01*
X157473603Y-87353708D01*
X157406671Y-87228486D01*
X157162702Y-87156903D01*
X156349605Y-87970000D01*
X155990395Y-87970000D01*
X155976253Y-87955858D01*
X156155858Y-87776253D01*
X156170000Y-87790395D01*
X156983097Y-86977298D01*
X156911514Y-86733329D01*
X156656004Y-86612429D01*
X156455767Y-86562237D01*
X156498734Y-86553690D01*
X156703835Y-86468734D01*
X156888421Y-86345398D01*
X157045398Y-86188421D01*
X157168734Y-86003835D01*
X157253690Y-85798734D01*
X157297000Y-85581000D01*
X157297000Y-85359000D01*
X157253690Y-85141266D01*
X157168734Y-84936165D01*
X157045398Y-84751579D01*
X156888421Y-84594602D01*
X156703835Y-84471266D01*
X156498734Y-84386310D01*
X156281000Y-84343000D01*
X156059000Y-84343000D01*
X155841266Y-84386310D01*
X155636165Y-84471266D01*
X155451579Y-84594602D01*
X155294602Y-84751579D01*
X155171266Y-84936165D01*
X155086310Y-85141266D01*
X155043000Y-85359000D01*
X155043000Y-85581000D01*
X155075243Y-85743099D01*
X154089360Y-86728983D01*
X154067183Y-86747183D01*
X153995460Y-86834579D01*
X153994579Y-86835653D01*
X153940629Y-86936586D01*
X153907407Y-87046105D01*
X153896189Y-87160000D01*
X153899000Y-87188540D01*
X153899000Y-87227433D01*
X153692702Y-87166903D01*
X152879605Y-87980000D01*
X153692702Y-88793097D01*
X153899001Y-88732567D01*
X153899001Y-89379340D01*
X152559360Y-90718983D01*
X152537183Y-90737183D01*
X152497739Y-90785247D01*
X152464579Y-90825653D01*
X152410629Y-90926586D01*
X152377407Y-91036105D01*
X152366189Y-91150000D01*
X152369000Y-91178540D01*
X152369001Y-93741450D01*
X152366189Y-93770000D01*
X152377407Y-93883895D01*
X152410629Y-93993414D01*
X152462467Y-94090395D01*
X152464580Y-94094348D01*
X152537184Y-94182817D01*
X152559355Y-94201012D01*
X153378987Y-95020645D01*
X153397183Y-95042817D01*
X153459422Y-95093895D01*
X153485652Y-95115421D01*
X153586585Y-95169371D01*
X153696104Y-95202593D01*
X153810000Y-95213811D01*
X153838540Y-95211000D01*
X155199343Y-95211000D01*
X155209000Y-95220658D01*
X155209000Y-95396418D01*
X154339999Y-95396418D01*
X154227123Y-95407535D01*
X154118586Y-95440460D01*
X154018557Y-95493926D01*
X153930880Y-95565880D01*
X153858926Y-95653557D01*
X153805460Y-95753586D01*
X153794379Y-95790115D01*
X153771104Y-95792407D01*
X153661585Y-95825629D01*
X153560652Y-95879579D01*
X153472183Y-95952183D01*
X153453987Y-95974355D01*
X152055342Y-97373000D01*
X147627000Y-97373000D01*
X147627000Y-88972702D01*
X151886903Y-88972702D01*
X151958486Y-89216671D01*
X152213996Y-89337571D01*
X152488184Y-89406300D01*
X152770512Y-89420217D01*
X153050130Y-89378787D01*
X153316292Y-89283603D01*
X153441514Y-89216671D01*
X153513097Y-88972702D01*
X152700000Y-88159605D01*
X151886903Y-88972702D01*
X147627000Y-88972702D01*
X147627000Y-88050512D01*
X151259783Y-88050512D01*
X151301213Y-88330130D01*
X151396397Y-88596292D01*
X151463329Y-88721514D01*
X151707298Y-88793097D01*
X152520395Y-87980000D01*
X151707298Y-87166903D01*
X151463329Y-87238486D01*
X151342429Y-87493996D01*
X151273700Y-87768184D01*
X151259783Y-88050512D01*
X147627000Y-88050512D01*
X147627000Y-87242362D01*
X147653436Y-87224698D01*
X147754698Y-87123436D01*
X147834259Y-87004364D01*
X147889062Y-86872058D01*
X147917000Y-86731603D01*
X147917000Y-86588397D01*
X147889062Y-86447942D01*
X147880522Y-86427324D01*
X147922058Y-86419062D01*
X148054364Y-86364259D01*
X148173436Y-86284698D01*
X148274698Y-86183436D01*
X148354259Y-86064364D01*
X148409062Y-85932058D01*
X148437000Y-85791603D01*
X148437000Y-85648397D01*
X148409062Y-85507942D01*
X148354259Y-85375636D01*
X148274698Y-85256564D01*
X148173436Y-85155302D01*
X148054364Y-85075741D01*
X147922058Y-85020938D01*
X147781603Y-84993000D01*
X147638397Y-84993000D01*
X147627267Y-84995214D01*
X147627000Y-84994947D01*
X147627000Y-83038397D01*
X151543000Y-83038397D01*
X151543000Y-83181603D01*
X151570938Y-83322058D01*
X151625741Y-83454364D01*
X151705302Y-83573436D01*
X151806564Y-83674698D01*
X151925636Y-83754259D01*
X152057942Y-83809062D01*
X152198397Y-83837000D01*
X152262500Y-83837000D01*
X152262500Y-84441362D01*
X152166165Y-84481266D01*
X151981579Y-84604602D01*
X151824602Y-84761579D01*
X151701266Y-84946165D01*
X151616310Y-85151266D01*
X151573000Y-85369000D01*
X151573000Y-85591000D01*
X151616310Y-85808734D01*
X151701266Y-86013835D01*
X151824602Y-86198421D01*
X151981579Y-86355398D01*
X152166165Y-86478734D01*
X152371266Y-86563690D01*
X152412619Y-86571916D01*
X152349870Y-86581213D01*
X152083708Y-86676397D01*
X151958486Y-86743329D01*
X151886903Y-86987298D01*
X152700000Y-87800395D01*
X153513097Y-86987298D01*
X153441514Y-86743329D01*
X153186004Y-86622429D01*
X152985767Y-86572237D01*
X153028734Y-86563690D01*
X153233835Y-86478734D01*
X153418421Y-86355398D01*
X153575398Y-86198421D01*
X153698734Y-86013835D01*
X153783690Y-85808734D01*
X153827000Y-85591000D01*
X153827000Y-85369000D01*
X153783690Y-85151266D01*
X153698734Y-84946165D01*
X153575398Y-84761579D01*
X153418421Y-84604602D01*
X153297500Y-84523805D01*
X153297500Y-83899609D01*
X164269997Y-83899609D01*
X164456073Y-84240766D01*
X164873409Y-84456513D01*
X165324815Y-84586696D01*
X165792946Y-84626313D01*
X166259811Y-84573842D01*
X166707468Y-84431297D01*
X167063927Y-84240766D01*
X167250003Y-83899609D01*
X165760000Y-82409605D01*
X164269997Y-83899609D01*
X153297500Y-83899609D01*
X153297500Y-83645413D01*
X153300003Y-83620000D01*
X153290011Y-83518552D01*
X153260420Y-83421003D01*
X153248604Y-83398897D01*
X153212367Y-83331102D01*
X153147698Y-83252302D01*
X153127952Y-83236097D01*
X152997000Y-83105145D01*
X152997000Y-83038397D01*
X152969062Y-82897942D01*
X152914259Y-82765636D01*
X152834698Y-82646564D01*
X152733436Y-82545302D01*
X152614364Y-82465741D01*
X152482058Y-82410938D01*
X152341603Y-82383000D01*
X152198397Y-82383000D01*
X152057942Y-82410938D01*
X151925636Y-82465741D01*
X151806564Y-82545302D01*
X151705302Y-82646564D01*
X151625741Y-82765636D01*
X151570938Y-82897942D01*
X151543000Y-83038397D01*
X147627000Y-83038397D01*
X147627000Y-82262946D01*
X163363687Y-82262946D01*
X163416158Y-82729811D01*
X163558703Y-83177468D01*
X163749234Y-83533927D01*
X164090391Y-83720003D01*
X165580395Y-82230000D01*
X165939605Y-82230000D01*
X167429609Y-83720003D01*
X167770766Y-83533927D01*
X167986513Y-83116591D01*
X168116696Y-82665185D01*
X168156313Y-82197054D01*
X168103842Y-81730189D01*
X167961297Y-81282532D01*
X167770766Y-80926073D01*
X167429609Y-80739997D01*
X165939605Y-82230000D01*
X165580395Y-82230000D01*
X164090391Y-80739997D01*
X163749234Y-80926073D01*
X163533487Y-81343409D01*
X163403304Y-81794815D01*
X163363687Y-82262946D01*
X147627000Y-82262946D01*
X147627000Y-80560391D01*
X164269997Y-80560391D01*
X165760000Y-82050395D01*
X167250003Y-80560391D01*
X167063927Y-80219234D01*
X166646591Y-80003487D01*
X166195185Y-79873304D01*
X165727054Y-79833687D01*
X165260189Y-79886158D01*
X164812532Y-80028703D01*
X164456073Y-80219234D01*
X164269997Y-80560391D01*
X147627000Y-80560391D01*
X147627000Y-78309000D01*
X154413000Y-78309000D01*
X154413000Y-78531000D01*
X154456310Y-78748734D01*
X154541266Y-78953835D01*
X154664602Y-79138421D01*
X154821579Y-79295398D01*
X155006165Y-79418734D01*
X155211266Y-79503690D01*
X155429000Y-79547000D01*
X155651000Y-79547000D01*
X155868734Y-79503690D01*
X156073835Y-79418734D01*
X156082862Y-79412702D01*
X157226903Y-79412702D01*
X157298486Y-79656671D01*
X157553996Y-79777571D01*
X157828184Y-79846300D01*
X158110512Y-79860217D01*
X158390130Y-79818787D01*
X158656292Y-79723603D01*
X158781514Y-79656671D01*
X158853097Y-79412702D01*
X158040000Y-78599605D01*
X157226903Y-79412702D01*
X156082862Y-79412702D01*
X156258421Y-79295398D01*
X156415398Y-79138421D01*
X156538734Y-78953835D01*
X156623690Y-78748734D01*
X156631916Y-78707381D01*
X156641213Y-78770130D01*
X156736397Y-79036292D01*
X156803329Y-79161514D01*
X157047298Y-79233097D01*
X157860395Y-78420000D01*
X158219605Y-78420000D01*
X159032702Y-79233097D01*
X159276671Y-79161514D01*
X159397571Y-78906004D01*
X159466300Y-78631816D01*
X159480217Y-78349488D01*
X159438787Y-78069870D01*
X159343603Y-77803708D01*
X159276671Y-77678486D01*
X159032702Y-77606903D01*
X158219605Y-78420000D01*
X157860395Y-78420000D01*
X157047298Y-77606903D01*
X156803329Y-77678486D01*
X156682429Y-77933996D01*
X156632237Y-78134233D01*
X156623690Y-78091266D01*
X156538734Y-77886165D01*
X156415398Y-77701579D01*
X156258421Y-77544602D01*
X156082863Y-77427298D01*
X157226903Y-77427298D01*
X158040000Y-78240395D01*
X158853097Y-77427298D01*
X158781514Y-77183329D01*
X158526004Y-77062429D01*
X158251816Y-76993700D01*
X157969488Y-76979783D01*
X157689870Y-77021213D01*
X157423708Y-77116397D01*
X157298486Y-77183329D01*
X157226903Y-77427298D01*
X156082863Y-77427298D01*
X156073835Y-77421266D01*
X155868734Y-77336310D01*
X155651000Y-77293000D01*
X155429000Y-77293000D01*
X155211266Y-77336310D01*
X155006165Y-77421266D01*
X154821579Y-77544602D01*
X154664602Y-77701579D01*
X154541266Y-77886165D01*
X154456310Y-78091266D01*
X154413000Y-78309000D01*
X147627000Y-78309000D01*
X147627000Y-76627000D01*
X161462328Y-76627000D01*
X161507468Y-76672140D01*
%TA.AperFunction,Conductor*%
D32*
G36*
X161507468Y-76672140D02*
G01*
X161552608Y-76627000D01*
X161669869Y-76627000D01*
X161957106Y-77027868D01*
X162587068Y-77368237D01*
X163271327Y-77579166D01*
X163983589Y-77652550D01*
X164696482Y-77585569D01*
X165382609Y-77380796D01*
X166015603Y-77046102D01*
X166042894Y-77027868D01*
X166330131Y-76627000D01*
X166447392Y-76627000D01*
X166492532Y-76672140D01*
X166537672Y-76627000D01*
X169373000Y-76627000D01*
X169373000Y-97373000D01*
X160394658Y-97373000D01*
X158996017Y-95974360D01*
X158977817Y-95952183D01*
X158962496Y-95939609D01*
X164269997Y-95939609D01*
X164456073Y-96280766D01*
X164873409Y-96496513D01*
X165324815Y-96626696D01*
X165792946Y-96666313D01*
X166259811Y-96613842D01*
X166707468Y-96471297D01*
X167063927Y-96280766D01*
X167250003Y-95939609D01*
X165760000Y-94449605D01*
X164269997Y-95939609D01*
X158962496Y-95939609D01*
X158889348Y-95879579D01*
X158788415Y-95825629D01*
X158678896Y-95792407D01*
X158593540Y-95784000D01*
X158565000Y-95781189D01*
X158536460Y-95784000D01*
X157783766Y-95784000D01*
X157774540Y-95753586D01*
X157721074Y-95653557D01*
X157649120Y-95565880D01*
X157561443Y-95493926D01*
X157461414Y-95440460D01*
X157352877Y-95407535D01*
X157240001Y-95396418D01*
X156371000Y-95396418D01*
X156371000Y-95008540D01*
X156373811Y-94980000D01*
X156362593Y-94866104D01*
X156329371Y-94756585D01*
X156275421Y-94655652D01*
X156221010Y-94589352D01*
X156202817Y-94567183D01*
X156180646Y-94548988D01*
X155934604Y-94302946D01*
X163363687Y-94302946D01*
X163416158Y-94769811D01*
X163558703Y-95217468D01*
X163749234Y-95573927D01*
X164090391Y-95760003D01*
X165580395Y-94270000D01*
X165939605Y-94270000D01*
X167429609Y-95760003D01*
X167770766Y-95573927D01*
X167986513Y-95156591D01*
X168116696Y-94705185D01*
X168156313Y-94237054D01*
X168103842Y-93770189D01*
X167961297Y-93322532D01*
X167770766Y-92966073D01*
X167429609Y-92779997D01*
X165939605Y-94270000D01*
X165580395Y-94270000D01*
X164090391Y-92779997D01*
X163749234Y-92966073D01*
X163533487Y-93383409D01*
X163403304Y-93834815D01*
X163363687Y-94302946D01*
X155934604Y-94302946D01*
X155871017Y-94239360D01*
X155852817Y-94217183D01*
X155764348Y-94144579D01*
X155663415Y-94090629D01*
X155553896Y-94057407D01*
X155468540Y-94049000D01*
X155440000Y-94046189D01*
X155411460Y-94049000D01*
X154050658Y-94049000D01*
X153531000Y-93529343D01*
X153531000Y-91524999D01*
X153761418Y-91524999D01*
X153761418Y-92325001D01*
X153772535Y-92437877D01*
X153805460Y-92546414D01*
X153858926Y-92646443D01*
X153930880Y-92734120D01*
X154018557Y-92806074D01*
X154118586Y-92859540D01*
X154227123Y-92892465D01*
X154339999Y-92903582D01*
X157240001Y-92903582D01*
X157352877Y-92892465D01*
X157461414Y-92859540D01*
X157561443Y-92806074D01*
X157649120Y-92734120D01*
X157721074Y-92646443D01*
X157733604Y-92623000D01*
X159490234Y-92623000D01*
X159525000Y-92626424D01*
X159559766Y-92623000D01*
X159559774Y-92623000D01*
X159663792Y-92612755D01*
X159704550Y-92600391D01*
X164269997Y-92600391D01*
X165760000Y-94090395D01*
X167250003Y-92600391D01*
X167063927Y-92259234D01*
X166646591Y-92043487D01*
X166195185Y-91913304D01*
X165727054Y-91873687D01*
X165260189Y-91926158D01*
X164812532Y-92068703D01*
X164456073Y-92259234D01*
X164269997Y-92600391D01*
X159704550Y-92600391D01*
X159797251Y-92572271D01*
X159920247Y-92506528D01*
X160028053Y-92418053D01*
X160050223Y-92391039D01*
X161526044Y-90915219D01*
X161553053Y-90893053D01*
X161641528Y-90785247D01*
X161698542Y-90678582D01*
X161900000Y-90678582D01*
X161964103Y-90672268D01*
X162025743Y-90653570D01*
X162070335Y-90629735D01*
X162085104Y-90644504D01*
X162201209Y-90528399D01*
X162278843Y-90777472D01*
X162542883Y-90903371D01*
X162826411Y-90975339D01*
X163118531Y-90990611D01*
X163408019Y-90948599D01*
X163683747Y-90850919D01*
X163821157Y-90777472D01*
X163898792Y-90528397D01*
X163050000Y-89679605D01*
X163035858Y-89693748D01*
X162856253Y-89514143D01*
X162870395Y-89500000D01*
X163229605Y-89500000D01*
X164078397Y-90348792D01*
X164327472Y-90271157D01*
X164453371Y-90007117D01*
X164525339Y-89723589D01*
X164540611Y-89431469D01*
X164498599Y-89141981D01*
X164400919Y-88866253D01*
X164327472Y-88728843D01*
X164078397Y-88651208D01*
X163229605Y-89500000D01*
X162870395Y-89500000D01*
X162856253Y-89485858D01*
X163035858Y-89306253D01*
X163050000Y-89320395D01*
X163898792Y-88471603D01*
X163821157Y-88222528D01*
X163557117Y-88096629D01*
X163508156Y-88084201D01*
X163607519Y-88043044D01*
X163800294Y-87914236D01*
X163964236Y-87750294D01*
X164093044Y-87557519D01*
X164181769Y-87343318D01*
X164227000Y-87115924D01*
X164227000Y-86884076D01*
X164181769Y-86656682D01*
X164093044Y-86442481D01*
X163964236Y-86249706D01*
X163800294Y-86085764D01*
X163607519Y-85956956D01*
X163393318Y-85868231D01*
X163165924Y-85823000D01*
X162934076Y-85823000D01*
X162706682Y-85868231D01*
X162492481Y-85956956D01*
X162299706Y-86085764D01*
X162135764Y-86249706D01*
X162050000Y-86378061D01*
X161964236Y-86249706D01*
X161800294Y-86085764D01*
X161607519Y-85956956D01*
X161393318Y-85868231D01*
X161165924Y-85823000D01*
X160934076Y-85823000D01*
X160706682Y-85868231D01*
X160492481Y-85956956D01*
X160299706Y-86085764D01*
X160135764Y-86249706D01*
X160006956Y-86442481D01*
X159918231Y-86656682D01*
X159873000Y-86884076D01*
X159873000Y-87115924D01*
X159918231Y-87343318D01*
X160006956Y-87557519D01*
X160135764Y-87750294D01*
X160299706Y-87914236D01*
X160492481Y-88043044D01*
X160706682Y-88131769D01*
X160934076Y-88177000D01*
X161165924Y-88177000D01*
X161393318Y-88131769D01*
X161607519Y-88043044D01*
X161800294Y-87914236D01*
X161964236Y-87750294D01*
X162050000Y-87621939D01*
X162135764Y-87750294D01*
X162299706Y-87914236D01*
X162492481Y-88043044D01*
X162595324Y-88085643D01*
X162416253Y-88149081D01*
X162278843Y-88222528D01*
X162201209Y-88471601D01*
X162085104Y-88355496D01*
X162070335Y-88370265D01*
X162025743Y-88346430D01*
X161964103Y-88327732D01*
X161900000Y-88321418D01*
X160200000Y-88321418D01*
X160135897Y-88327732D01*
X160074257Y-88346430D01*
X160017450Y-88376794D01*
X159967657Y-88417657D01*
X159926794Y-88467450D01*
X159896430Y-88524257D01*
X159877732Y-88585897D01*
X159871418Y-88650000D01*
X159871418Y-90350000D01*
X159877732Y-90414103D01*
X159896430Y-90475743D01*
X159919616Y-90519121D01*
X159231738Y-91207000D01*
X157722914Y-91207000D01*
X157721074Y-91203557D01*
X157649120Y-91115880D01*
X157561443Y-91043926D01*
X157461414Y-90990460D01*
X157352877Y-90957535D01*
X157240001Y-90946418D01*
X154339999Y-90946418D01*
X154227123Y-90957535D01*
X154118586Y-90990460D01*
X154018557Y-91043926D01*
X153930880Y-91115880D01*
X153858926Y-91203557D01*
X153805460Y-91303586D01*
X153772535Y-91412123D01*
X153761418Y-91524999D01*
X153531000Y-91524999D01*
X153531000Y-91390657D01*
X154870651Y-90051008D01*
X154892817Y-90032817D01*
X154913909Y-90007117D01*
X154965421Y-89944348D01*
X155019371Y-89843415D01*
X155052593Y-89733896D01*
X155063811Y-89620000D01*
X155061000Y-89591460D01*
X155061000Y-88962702D01*
X155356903Y-88962702D01*
X155428486Y-89206671D01*
X155683996Y-89327571D01*
X155958184Y-89396300D01*
X156240512Y-89410217D01*
X156520130Y-89368787D01*
X156786292Y-89273603D01*
X156911514Y-89206671D01*
X156983097Y-88962702D01*
X156170000Y-88149605D01*
X155356903Y-88962702D01*
X155061000Y-88962702D01*
X155061000Y-88748974D01*
X155177298Y-88783097D01*
X155990395Y-87970000D01*
X156349605Y-87970000D01*
X157162702Y-88783097D01*
X157406671Y-88711514D01*
X157527571Y-88456004D01*
X157596300Y-88181816D01*
X157610217Y-87899488D01*
X157568787Y-87619870D01*
X157473603Y-87353708D01*
X157406671Y-87228486D01*
X157162702Y-87156903D01*
X156349605Y-87970000D01*
X155990395Y-87970000D01*
X155976253Y-87955858D01*
X156155858Y-87776253D01*
X156170000Y-87790395D01*
X156983097Y-86977298D01*
X156911514Y-86733329D01*
X156656004Y-86612429D01*
X156455767Y-86562237D01*
X156498734Y-86553690D01*
X156703835Y-86468734D01*
X156888421Y-86345398D01*
X157045398Y-86188421D01*
X157168734Y-86003835D01*
X157253690Y-85798734D01*
X157297000Y-85581000D01*
X157297000Y-85359000D01*
X157253690Y-85141266D01*
X157168734Y-84936165D01*
X157045398Y-84751579D01*
X156888421Y-84594602D01*
X156703835Y-84471266D01*
X156498734Y-84386310D01*
X156281000Y-84343000D01*
X156059000Y-84343000D01*
X155841266Y-84386310D01*
X155636165Y-84471266D01*
X155451579Y-84594602D01*
X155294602Y-84751579D01*
X155171266Y-84936165D01*
X155086310Y-85141266D01*
X155043000Y-85359000D01*
X155043000Y-85581000D01*
X155075243Y-85743099D01*
X154089360Y-86728983D01*
X154067183Y-86747183D01*
X153995460Y-86834579D01*
X153994579Y-86835653D01*
X153940629Y-86936586D01*
X153907407Y-87046105D01*
X153896189Y-87160000D01*
X153899000Y-87188540D01*
X153899000Y-87227433D01*
X153692702Y-87166903D01*
X152879605Y-87980000D01*
X153692702Y-88793097D01*
X153899001Y-88732567D01*
X153899001Y-89379340D01*
X152559360Y-90718983D01*
X152537183Y-90737183D01*
X152497739Y-90785247D01*
X152464579Y-90825653D01*
X152410629Y-90926586D01*
X152377407Y-91036105D01*
X152366189Y-91150000D01*
X152369000Y-91178540D01*
X152369001Y-93741450D01*
X152366189Y-93770000D01*
X152377407Y-93883895D01*
X152410629Y-93993414D01*
X152462467Y-94090395D01*
X152464580Y-94094348D01*
X152537184Y-94182817D01*
X152559355Y-94201012D01*
X153378987Y-95020645D01*
X153397183Y-95042817D01*
X153459422Y-95093895D01*
X153485652Y-95115421D01*
X153586585Y-95169371D01*
X153696104Y-95202593D01*
X153810000Y-95213811D01*
X153838540Y-95211000D01*
X155199343Y-95211000D01*
X155209000Y-95220658D01*
X155209000Y-95396418D01*
X154339999Y-95396418D01*
X154227123Y-95407535D01*
X154118586Y-95440460D01*
X154018557Y-95493926D01*
X153930880Y-95565880D01*
X153858926Y-95653557D01*
X153805460Y-95753586D01*
X153794379Y-95790115D01*
X153771104Y-95792407D01*
X153661585Y-95825629D01*
X153560652Y-95879579D01*
X153472183Y-95952183D01*
X153453987Y-95974355D01*
X152055342Y-97373000D01*
X147627000Y-97373000D01*
X147627000Y-88972702D01*
X151886903Y-88972702D01*
X151958486Y-89216671D01*
X152213996Y-89337571D01*
X152488184Y-89406300D01*
X152770512Y-89420217D01*
X153050130Y-89378787D01*
X153316292Y-89283603D01*
X153441514Y-89216671D01*
X153513097Y-88972702D01*
X152700000Y-88159605D01*
X151886903Y-88972702D01*
X147627000Y-88972702D01*
X147627000Y-88050512D01*
X151259783Y-88050512D01*
X151301213Y-88330130D01*
X151396397Y-88596292D01*
X151463329Y-88721514D01*
X151707298Y-88793097D01*
X152520395Y-87980000D01*
X151707298Y-87166903D01*
X151463329Y-87238486D01*
X151342429Y-87493996D01*
X151273700Y-87768184D01*
X151259783Y-88050512D01*
X147627000Y-88050512D01*
X147627000Y-87242362D01*
X147653436Y-87224698D01*
X147754698Y-87123436D01*
X147834259Y-87004364D01*
X147889062Y-86872058D01*
X147917000Y-86731603D01*
X147917000Y-86588397D01*
X147889062Y-86447942D01*
X147880522Y-86427324D01*
X147922058Y-86419062D01*
X148054364Y-86364259D01*
X148173436Y-86284698D01*
X148274698Y-86183436D01*
X148354259Y-86064364D01*
X148409062Y-85932058D01*
X148437000Y-85791603D01*
X148437000Y-85648397D01*
X148409062Y-85507942D01*
X148354259Y-85375636D01*
X148274698Y-85256564D01*
X148173436Y-85155302D01*
X148054364Y-85075741D01*
X147922058Y-85020938D01*
X147781603Y-84993000D01*
X147638397Y-84993000D01*
X147627267Y-84995214D01*
X147627000Y-84994947D01*
X147627000Y-83038397D01*
X151543000Y-83038397D01*
X151543000Y-83181603D01*
X151570938Y-83322058D01*
X151625741Y-83454364D01*
X151705302Y-83573436D01*
X151806564Y-83674698D01*
X151925636Y-83754259D01*
X152057942Y-83809062D01*
X152198397Y-83837000D01*
X152262500Y-83837000D01*
X152262500Y-84441362D01*
X152166165Y-84481266D01*
X151981579Y-84604602D01*
X151824602Y-84761579D01*
X151701266Y-84946165D01*
X151616310Y-85151266D01*
X151573000Y-85369000D01*
X151573000Y-85591000D01*
X151616310Y-85808734D01*
X151701266Y-86013835D01*
X151824602Y-86198421D01*
X151981579Y-86355398D01*
X152166165Y-86478734D01*
X152371266Y-86563690D01*
X152412619Y-86571916D01*
X152349870Y-86581213D01*
X152083708Y-86676397D01*
X151958486Y-86743329D01*
X151886903Y-86987298D01*
X152700000Y-87800395D01*
X153513097Y-86987298D01*
X153441514Y-86743329D01*
X153186004Y-86622429D01*
X152985767Y-86572237D01*
X153028734Y-86563690D01*
X153233835Y-86478734D01*
X153418421Y-86355398D01*
X153575398Y-86198421D01*
X153698734Y-86013835D01*
X153783690Y-85808734D01*
X153827000Y-85591000D01*
X153827000Y-85369000D01*
X153783690Y-85151266D01*
X153698734Y-84946165D01*
X153575398Y-84761579D01*
X153418421Y-84604602D01*
X153297500Y-84523805D01*
X153297500Y-83899609D01*
X164269997Y-83899609D01*
X164456073Y-84240766D01*
X164873409Y-84456513D01*
X165324815Y-84586696D01*
X165792946Y-84626313D01*
X166259811Y-84573842D01*
X166707468Y-84431297D01*
X167063927Y-84240766D01*
X167250003Y-83899609D01*
X165760000Y-82409605D01*
X164269997Y-83899609D01*
X153297500Y-83899609D01*
X153297500Y-83645413D01*
X153300003Y-83620000D01*
X153290011Y-83518552D01*
X153260420Y-83421003D01*
X153248604Y-83398897D01*
X153212367Y-83331102D01*
X153147698Y-83252302D01*
X153127952Y-83236097D01*
X152997000Y-83105145D01*
X152997000Y-83038397D01*
X152969062Y-82897942D01*
X152914259Y-82765636D01*
X152834698Y-82646564D01*
X152733436Y-82545302D01*
X152614364Y-82465741D01*
X152482058Y-82410938D01*
X152341603Y-82383000D01*
X152198397Y-82383000D01*
X152057942Y-82410938D01*
X151925636Y-82465741D01*
X151806564Y-82545302D01*
X151705302Y-82646564D01*
X151625741Y-82765636D01*
X151570938Y-82897942D01*
X151543000Y-83038397D01*
X147627000Y-83038397D01*
X147627000Y-82262946D01*
X163363687Y-82262946D01*
X163416158Y-82729811D01*
X163558703Y-83177468D01*
X163749234Y-83533927D01*
X164090391Y-83720003D01*
X165580395Y-82230000D01*
X165939605Y-82230000D01*
X167429609Y-83720003D01*
X167770766Y-83533927D01*
X167986513Y-83116591D01*
X168116696Y-82665185D01*
X168156313Y-82197054D01*
X168103842Y-81730189D01*
X167961297Y-81282532D01*
X167770766Y-80926073D01*
X167429609Y-80739997D01*
X165939605Y-82230000D01*
X165580395Y-82230000D01*
X164090391Y-80739997D01*
X163749234Y-80926073D01*
X163533487Y-81343409D01*
X163403304Y-81794815D01*
X163363687Y-82262946D01*
X147627000Y-82262946D01*
X147627000Y-80560391D01*
X164269997Y-80560391D01*
X165760000Y-82050395D01*
X167250003Y-80560391D01*
X167063927Y-80219234D01*
X166646591Y-80003487D01*
X166195185Y-79873304D01*
X165727054Y-79833687D01*
X165260189Y-79886158D01*
X164812532Y-80028703D01*
X164456073Y-80219234D01*
X164269997Y-80560391D01*
X147627000Y-80560391D01*
X147627000Y-78309000D01*
X154413000Y-78309000D01*
X154413000Y-78531000D01*
X154456310Y-78748734D01*
X154541266Y-78953835D01*
X154664602Y-79138421D01*
X154821579Y-79295398D01*
X155006165Y-79418734D01*
X155211266Y-79503690D01*
X155429000Y-79547000D01*
X155651000Y-79547000D01*
X155868734Y-79503690D01*
X156073835Y-79418734D01*
X156082862Y-79412702D01*
X157226903Y-79412702D01*
X157298486Y-79656671D01*
X157553996Y-79777571D01*
X157828184Y-79846300D01*
X158110512Y-79860217D01*
X158390130Y-79818787D01*
X158656292Y-79723603D01*
X158781514Y-79656671D01*
X158853097Y-79412702D01*
X158040000Y-78599605D01*
X157226903Y-79412702D01*
X156082862Y-79412702D01*
X156258421Y-79295398D01*
X156415398Y-79138421D01*
X156538734Y-78953835D01*
X156623690Y-78748734D01*
X156631916Y-78707381D01*
X156641213Y-78770130D01*
X156736397Y-79036292D01*
X156803329Y-79161514D01*
X157047298Y-79233097D01*
X157860395Y-78420000D01*
X158219605Y-78420000D01*
X159032702Y-79233097D01*
X159276671Y-79161514D01*
X159397571Y-78906004D01*
X159466300Y-78631816D01*
X159480217Y-78349488D01*
X159438787Y-78069870D01*
X159343603Y-77803708D01*
X159276671Y-77678486D01*
X159032702Y-77606903D01*
X158219605Y-78420000D01*
X157860395Y-78420000D01*
X157047298Y-77606903D01*
X156803329Y-77678486D01*
X156682429Y-77933996D01*
X156632237Y-78134233D01*
X156623690Y-78091266D01*
X156538734Y-77886165D01*
X156415398Y-77701579D01*
X156258421Y-77544602D01*
X156082863Y-77427298D01*
X157226903Y-77427298D01*
X158040000Y-78240395D01*
X158853097Y-77427298D01*
X158781514Y-77183329D01*
X158526004Y-77062429D01*
X158251816Y-76993700D01*
X157969488Y-76979783D01*
X157689870Y-77021213D01*
X157423708Y-77116397D01*
X157298486Y-77183329D01*
X157226903Y-77427298D01*
X156082863Y-77427298D01*
X156073835Y-77421266D01*
X155868734Y-77336310D01*
X155651000Y-77293000D01*
X155429000Y-77293000D01*
X155211266Y-77336310D01*
X155006165Y-77421266D01*
X154821579Y-77544602D01*
X154664602Y-77701579D01*
X154541266Y-77886165D01*
X154456310Y-78091266D01*
X154413000Y-78309000D01*
X147627000Y-78309000D01*
X147627000Y-76627000D01*
X161462328Y-76627000D01*
X161507468Y-76672140D01*
G37*
%TD.AperFunction*%
%TD*%
M02*
