%TF.GenerationSoftware,KiCad,Pcbnew,7.0.6*%
%TF.CreationDate,2023-08-05T18:39:03+02:00*%
%TF.ProjectId,livello_serbatoio_definitiva,6c697665-6c6c-46f5-9f73-65726261746f,rev?*%
%TF.SameCoordinates,Original*%
%TF.FileFunction,Soldermask,Top*%
%TF.FilePolarity,Negative*%
%FSLAX46Y46*%
G04 Gerber Fmt 4.6, Leading zero omitted, Abs format (unit mm)*
G04 Created by KiCad (PCBNEW 7.0.6) date 2023-08-05 18:39:03*
%MOMM*%
%LPD*%
G01*
G04 APERTURE LIST*
%ADD10C,2.000000*%
%ADD11C,0.800000*%
%ADD12C,6.000000*%
%ADD13R,1.600000X1.600000*%
%ADD14O,1.600000X1.600000*%
%ADD15C,1.800000*%
%ADD16C,1.600000*%
%ADD17R,1.800000X1.800000*%
%ADD18R,1.500000X1.000000*%
%ADD19R,1.700000X1.700000*%
%ADD20O,1.700000X1.700000*%
%ADD21R,2.100000X2.100000*%
%ADD22C,2.100000*%
%ADD23C,1.700000*%
%ADD24C,3.500000*%
G04 APERTURE END LIST*
D10*
%TO.C,RV1*%
X99500000Y-75900000D03*
X109500000Y-78400000D03*
X99500000Y-80900000D03*
%TD*%
D11*
%TO.C,H1*%
X90750000Y-74000000D03*
X91409010Y-72409010D03*
X91409010Y-75590990D03*
X93000000Y-71750000D03*
D12*
X93000000Y-74000000D03*
D11*
X93000000Y-76250000D03*
X94590990Y-72409010D03*
X94590990Y-75590990D03*
X95250000Y-74000000D03*
%TD*%
%TO.C,H2*%
X161750000Y-74000000D03*
X162409010Y-72409010D03*
X162409010Y-75590990D03*
X164000000Y-71750000D03*
D12*
X164000000Y-74000000D03*
D11*
X164000000Y-76250000D03*
X165590990Y-72409010D03*
X165590990Y-75590990D03*
X166250000Y-74000000D03*
%TD*%
%TO.C,H3*%
X161750000Y-134000000D03*
X162409010Y-132409010D03*
X162409010Y-135590990D03*
X164000000Y-131750000D03*
D12*
X164000000Y-134000000D03*
D11*
X164000000Y-136250000D03*
X165590990Y-132409010D03*
X165590990Y-135590990D03*
X166250000Y-134000000D03*
%TD*%
%TO.C,H4*%
X90750000Y-134000000D03*
X91409010Y-132409010D03*
X91409010Y-135590990D03*
X93000000Y-131750000D03*
D12*
X93000000Y-134000000D03*
D11*
X93000000Y-136250000D03*
X94590990Y-132409010D03*
X94590990Y-135590990D03*
X95250000Y-134000000D03*
%TD*%
D13*
%TO.C,U2*%
X99440000Y-119200000D03*
D14*
X101980000Y-119200000D03*
X104520000Y-119200000D03*
X107060000Y-119200000D03*
X109600000Y-119200000D03*
X112140000Y-119200000D03*
X114680000Y-119200000D03*
X117220000Y-119200000D03*
X119760000Y-119200000D03*
X122300000Y-119200000D03*
X124840000Y-119200000D03*
X127380000Y-119200000D03*
X129920000Y-119200000D03*
X132460000Y-119200000D03*
X132460000Y-111580000D03*
X129920000Y-111580000D03*
X127380000Y-111580000D03*
X124840000Y-111580000D03*
X122300000Y-111580000D03*
X119760000Y-111580000D03*
X117220000Y-111580000D03*
X114680000Y-111580000D03*
X112140000Y-111580000D03*
X109600000Y-111580000D03*
X107060000Y-111580000D03*
X104520000Y-111580000D03*
X101980000Y-111580000D03*
X99440000Y-111580000D03*
%TD*%
D15*
%TO.C,Y1*%
X123150000Y-127520000D03*
X118270000Y-127520000D03*
%TD*%
D16*
%TO.C,C3*%
X116850000Y-108900000D03*
X114350000Y-108900000D03*
%TD*%
%TO.C,C7*%
X110650000Y-126500000D03*
X113150000Y-126500000D03*
%TD*%
%TO.C,C8*%
X130750000Y-126500000D03*
X128250000Y-126500000D03*
%TD*%
D17*
%TO.C,D4*%
X148600000Y-73400000D03*
D15*
X151140000Y-73400000D03*
%TD*%
D16*
%TO.C,R6*%
X97560000Y-91810000D03*
D14*
X97560000Y-104510000D03*
%TD*%
D16*
%TO.C,R7*%
X114350000Y-122500000D03*
D14*
X127050000Y-122500000D03*
%TD*%
D16*
%TO.C,C6*%
X119950000Y-108900000D03*
X122450000Y-108900000D03*
%TD*%
%TO.C,R8*%
X137670000Y-124970000D03*
D14*
X150370000Y-124970000D03*
%TD*%
D16*
%TO.C,R4*%
X139030000Y-82610000D03*
D14*
X151730000Y-82610000D03*
%TD*%
D16*
%TO.C,R3*%
X139050000Y-86470000D03*
D14*
X151750000Y-86470000D03*
%TD*%
D16*
%TO.C,R9*%
X151750000Y-78800000D03*
D14*
X139050000Y-78800000D03*
%TD*%
D18*
%TO.C,JP2*%
X114860000Y-92600000D03*
X114860000Y-91300000D03*
%TD*%
D19*
%TO.C,J3*%
X97000000Y-88500000D03*
D20*
X99540000Y-88500000D03*
X102080000Y-88500000D03*
X104620000Y-88500000D03*
X107160000Y-88500000D03*
X109700000Y-88500000D03*
X112240000Y-88500000D03*
X114780000Y-88500000D03*
X117320000Y-88500000D03*
X119860000Y-88500000D03*
X122400000Y-88500000D03*
X124940000Y-88500000D03*
X127480000Y-88500000D03*
X130020000Y-88500000D03*
X132560000Y-88500000D03*
X135100000Y-88500000D03*
%TD*%
D18*
%TO.C,JP3*%
X117400000Y-92600000D03*
X117400000Y-91300000D03*
%TD*%
%TO.C,JP4*%
X119930000Y-92600000D03*
X119930000Y-91300000D03*
%TD*%
D16*
%TO.C,R2*%
X140380000Y-116850000D03*
D14*
X140380000Y-104150000D03*
%TD*%
D16*
%TO.C,R1*%
X144160000Y-116850000D03*
D14*
X144160000Y-104150000D03*
%TD*%
D18*
%TO.C,JP1*%
X112310000Y-92600000D03*
X112310000Y-91300000D03*
%TD*%
D17*
%TO.C,D1*%
X135200000Y-73400000D03*
D15*
X137740000Y-73400000D03*
%TD*%
D17*
%TO.C,D2*%
X141900000Y-73400000D03*
D15*
X144440000Y-73400000D03*
%TD*%
D16*
%TO.C,C4*%
X96200000Y-119250000D03*
X96200000Y-116750000D03*
%TD*%
D10*
%TO.C,SW1*%
X102700000Y-126840000D03*
X96200000Y-126840000D03*
X102700000Y-122340000D03*
X96200000Y-122340000D03*
%TD*%
D16*
%TO.C,R5*%
X137660000Y-128830000D03*
D14*
X150360000Y-128830000D03*
%TD*%
D21*
%TO.C,J8*%
X141770000Y-135390000D03*
D22*
X136770000Y-135390000D03*
X131770000Y-135390000D03*
X126770000Y-135390000D03*
X121770000Y-135390000D03*
X116770000Y-135390000D03*
X111770000Y-135390000D03*
X106770000Y-135390000D03*
%TD*%
D20*
%TO.C,J5*%
X90115000Y-122195000D03*
X92655000Y-122195000D03*
X90115000Y-119655000D03*
X92655000Y-119655000D03*
X90115000Y-117115000D03*
D19*
X92655000Y-117115000D03*
%TD*%
%TO.C,J1*%
X161600000Y-123030000D03*
D23*
X161600000Y-120530000D03*
X163600000Y-120530000D03*
X163600000Y-123030000D03*
D24*
X166310000Y-115760000D03*
X166310000Y-127800000D03*
%TD*%
D16*
%TO.C,C2*%
X159160000Y-108320000D03*
X156660000Y-108320000D03*
%TD*%
%TO.C,C5*%
X166000000Y-111850000D03*
X166000000Y-109350000D03*
%TD*%
D19*
%TO.C,J7*%
X91400000Y-101860000D03*
D20*
X91400000Y-104400000D03*
X91400000Y-106940000D03*
X91400000Y-109480000D03*
X91400000Y-112020000D03*
%TD*%
D19*
%TO.C,J6*%
X112235000Y-95420000D03*
D20*
X114775000Y-95420000D03*
X117315000Y-95420000D03*
X119855000Y-95420000D03*
%TD*%
D16*
%TO.C,C1*%
X153440000Y-111360000D03*
X153440000Y-108860000D03*
%TD*%
D13*
%TO.C,C9*%
X147950000Y-110440000D03*
D16*
X149950000Y-110440000D03*
%TD*%
M02*
