M48
; DRILL file {KiCad 5.1.8} date Tue Dec 22 17:08:38 2020
; FORMAT={-:-/ absolute / inch / decimal}
; #@! TF.CreationDate,2020-12-22T17:08:38+01:00
; #@! TF.GenerationSoftware,Kicad,Pcbnew,5.1.8
; #@! TF.FileFunction,Plated,1,2,PTH
FMAT,2
INCH
T1C0.0157
T2C0.0197
T3C0.0315
T4C0.0354
T5C0.0362
T6C0.0394
T7C0.0433
T8C0.0512
T9C0.0917
T10C0.1181
%
G90
G05
T1
X3.9728Y-3.9988
X3.9902Y-4.1063
X4.035Y-4.3122
X4.1177Y-4.2291
X4.6917Y-5.0728
X4.6917Y-5.1728
X4.6917Y-5.2728
X4.6917Y-5.3728
X4.8028Y-4.8657
X4.952Y-4.8657
X5.5031Y-3.5433
X5.5059Y-3.4567
X5.5063Y-5.0728
X5.5063Y-5.1728
X5.5063Y-5.2728
X5.5063Y-5.3728
X5.5252Y-4.5169
X5.5295Y-3.3862
X5.6772Y-3.522
X5.7949Y-3.4118
X5.8154Y-3.3748
X5.8157Y-3.2839
X5.9531Y-3.2693
X6.0016Y-3.2689
X6.2398Y-3.2193
X6.311Y-3.2909
X6.311Y-3.3587
X6.4183Y-3.5846
X6.4301Y-3.7116
X6.4311Y-3.2372
X6.4783Y-3.5246
X6.5256Y-3.3327
X6.5256Y-3.6171
X6.5256Y-3.8061
X6.5266Y-3.1388
X6.6211Y-3.2372
X6.6211Y-3.7116
T2
X3.5728Y-2.9134
X3.5988Y-2.8507
X3.5988Y-2.976
X3.6614Y-2.8248
X3.6614Y-3.002
X3.7241Y-2.8507
X3.7241Y-2.976
X3.75Y-2.9134
X6.3681Y-5.2756
X6.3941Y-5.213
X6.3941Y-5.3382
X6.4567Y-5.187
X6.4567Y-5.3642
X6.5193Y-5.213
X6.5193Y-5.3382
X6.5453Y-5.2756
X3.5728Y-5.2756
X3.5988Y-5.213
X3.5988Y-5.3382
X3.6614Y-5.187
X3.6614Y-5.3642
X3.7241Y-5.213
X3.7241Y-5.3382
X3.75Y-5.2756
X5.0008Y-5.3059
X5.1929Y-5.3059
X6.3681Y-2.9134
X6.3941Y-2.8507
X6.3941Y-2.976
X6.4567Y-2.8248
X6.4567Y-3.002
X6.5193Y-2.8507
X6.5193Y-2.976
X6.5453Y-2.9134
T3
X5.1526Y-3.664
X5.1526Y-4.164
X5.7996Y-4.8396
X6.2996Y-4.8396
X6.1236Y-3.0874
X6.222Y-3.0874
X5.0657Y-4.5669
X5.1642Y-4.5669
X4.8472Y-4.5669
X4.9457Y-4.5669
X4.7953Y-5.2677
X4.7953Y-5.3661
X6.1476Y-3.3669
X6.1476Y-3.4654
X5.4675Y-3.664
X5.4675Y-4.164
X6.011Y-3.3673
X6.011Y-3.4657
X4.3248Y-4.0594
X4.8248Y-4.0594
X4.3248Y-3.9002
X4.8248Y-3.9002
X3.6264Y-4.963
X3.6264Y-5.0614
X5.31Y-3.664
X5.31Y-4.164
X4.8465Y-5.1083
X5.3465Y-5.1083
X5.7996Y-4.9894
X6.2996Y-4.9894
X3.8819Y-5.2638
X4.3819Y-5.2638
X5.3996Y-5.2677
X5.3996Y-5.3661
X4.252Y-4.6764
X4.252Y-4.9764
X4.352Y-4.6764
X4.352Y-4.9764
X4.452Y-4.6764
X4.452Y-4.9764
X4.552Y-4.6764
X4.552Y-4.9764
X4.652Y-4.6764
X4.652Y-4.9764
X4.752Y-4.6764
X4.752Y-4.9764
X4.852Y-4.6764
X4.852Y-4.9764
X4.952Y-4.6764
X4.952Y-4.9764
X5.052Y-4.6764
X5.052Y-4.9764
X5.152Y-4.6764
X5.152Y-4.9764
X5.252Y-4.6764
X5.252Y-4.9764
X5.352Y-4.6764
X5.352Y-4.9764
X5.452Y-4.6764
X5.452Y-4.9764
X5.552Y-4.6764
X5.552Y-4.9764
T4
X5.5866Y-2.8898
X5.6866Y-2.8898
X5.3228Y-2.8898
X5.4228Y-2.8898
X5.8504Y-2.8898
X5.9504Y-2.8898
T5
X6.3406Y-3.4252
X6.3406Y-3.5236
X6.4193Y-3.4252
X6.4193Y-3.5236
T6
X3.8189Y-3.4843
X3.9189Y-3.4843
X4.0189Y-3.4843
X4.1189Y-3.4843
X4.2189Y-3.4843
X4.3189Y-3.4843
X4.4189Y-3.4843
X4.5189Y-3.4843
X4.6189Y-3.4843
X4.7189Y-3.4843
X4.8189Y-3.4843
X4.9189Y-3.4843
X5.0189Y-3.4843
X5.1189Y-3.4843
X5.2189Y-3.4843
X5.3189Y-3.4843
X4.1189Y-4.4909
X4.2189Y-4.4909
X4.3189Y-4.4909
X4.4189Y-4.4909
X4.5189Y-4.4909
X4.6697Y-4.2309
X4.6697Y-4.3309
X4.7697Y-4.2309
X4.7697Y-4.3309
X4.8697Y-4.2309
X4.8697Y-4.3309
X4.4187Y-3.7567
X4.5187Y-3.7567
X4.6187Y-3.7567
X4.7187Y-3.7567
T7
X3.7508Y-5.0614
X4.0508Y-5.0614
X5.5988Y-5.3291
X5.7957Y-5.3291
X5.9925Y-5.3291
X6.1894Y-5.3291
X6.5089Y-3.9646
X6.5089Y-4.1614
X6.5089Y-4.3583
X6.5089Y-4.5551
X3.7516Y-4.7496
X3.7516Y-4.9268
X4.0075Y-4.7496
X4.0075Y-4.9268
T8
X3.9173Y-2.9882
X3.9173Y-3.185
X4.311Y-3.0866
T9
X6.526Y-3.2374
X6.526Y-3.7114
T10
X6.4567Y-5.2756
X6.4567Y-2.9134
X3.6614Y-2.9134
X3.6614Y-5.2756
T0
M30
