%TF.GenerationSoftware,KiCad,Pcbnew,9.0.4*%
%TF.CreationDate,2025-08-23T15:54:27+02:00*%
%TF.ProjectId,livello_serbatoio_definitiva,6c697665-6c6c-46f5-9f73-65726261746f,D*%
%TF.SameCoordinates,Original*%
%TF.FileFunction,Legend,Bot*%
%TF.FilePolarity,Positive*%
%FSLAX46Y46*%
G04 Gerber Fmt 4.6, Leading zero omitted, Abs format (unit mm)*
G04 Created by KiCad (PCBNEW 9.0.4) date 2025-08-23 15:54:27*
%MOMM*%
%LPD*%
G01*
G04 APERTURE LIST*
%ADD10C,0.150000*%
%ADD11C,0.153000*%
%ADD12C,0.160000*%
G04 APERTURE END LIST*
D10*
X104700000Y-84000000D02*
G75*
G02*
X104300000Y-84000000I-200000J0D01*
G01*
X104700000Y-84000000D02*
G75*
G02*
X105100000Y-84000000I200000J0D01*
G01*
X110960000Y-90130000D02*
X110960000Y-86870000D01*
X121140000Y-86870000D02*
X121140000Y-90130000D01*
X110960000Y-90830000D02*
X110960000Y-97840000D01*
X132500000Y-84000000D02*
G75*
G02*
X132100000Y-84000000I-200000J0D01*
G01*
X94570000Y-105800000D02*
G75*
G02*
X94970000Y-105800000I200000J0D01*
G01*
X110970000Y-86870000D02*
X121140000Y-86870000D01*
X94570000Y-105800000D02*
G75*
G02*
X94170000Y-105800000I-200000J0D01*
G01*
X132500000Y-84000000D02*
G75*
G02*
X132900000Y-84000000I200000J0D01*
G01*
X121140000Y-90850000D02*
X110960000Y-90850000D01*
X121205000Y-98650000D02*
X111025000Y-98650000D01*
X125000000Y-84000000D02*
G75*
G02*
X125400000Y-84000000I200000J0D01*
G01*
X125000000Y-84000000D02*
G75*
G02*
X124600000Y-84000000I-200000J0D01*
G01*
X121140000Y-97840000D02*
X121140000Y-90840000D01*
X116919523Y-138304819D02*
X117395713Y-138304819D01*
X117395713Y-138304819D02*
X117395713Y-137304819D01*
X116586189Y-137923866D02*
X115824285Y-137923866D01*
X116205237Y-138304819D02*
X116205237Y-137542914D01*
X107057618Y-137781009D02*
X106914761Y-137828628D01*
X106914761Y-137828628D02*
X106867142Y-137876247D01*
X106867142Y-137876247D02*
X106819523Y-137971485D01*
X106819523Y-137971485D02*
X106819523Y-138114342D01*
X106819523Y-138114342D02*
X106867142Y-138209580D01*
X106867142Y-138209580D02*
X106914761Y-138257200D01*
X106914761Y-138257200D02*
X107009999Y-138304819D01*
X107009999Y-138304819D02*
X107390951Y-138304819D01*
X107390951Y-138304819D02*
X107390951Y-137304819D01*
X107390951Y-137304819D02*
X107057618Y-137304819D01*
X107057618Y-137304819D02*
X106962380Y-137352438D01*
X106962380Y-137352438D02*
X106914761Y-137400057D01*
X106914761Y-137400057D02*
X106867142Y-137495295D01*
X106867142Y-137495295D02*
X106867142Y-137590533D01*
X106867142Y-137590533D02*
X106914761Y-137685771D01*
X106914761Y-137685771D02*
X106962380Y-137733390D01*
X106962380Y-137733390D02*
X107057618Y-137781009D01*
X107057618Y-137781009D02*
X107390951Y-137781009D01*
X106390951Y-137923866D02*
X105629047Y-137923866D01*
X91057142Y-126474819D02*
X91057142Y-125474819D01*
X91057142Y-125474819D02*
X90723809Y-126189104D01*
X90723809Y-126189104D02*
X90390476Y-125474819D01*
X90390476Y-125474819D02*
X90390476Y-126474819D01*
X89723809Y-125474819D02*
X89533333Y-125474819D01*
X89533333Y-125474819D02*
X89438095Y-125522438D01*
X89438095Y-125522438D02*
X89342857Y-125617676D01*
X89342857Y-125617676D02*
X89295238Y-125808152D01*
X89295238Y-125808152D02*
X89295238Y-126141485D01*
X89295238Y-126141485D02*
X89342857Y-126331961D01*
X89342857Y-126331961D02*
X89438095Y-126427200D01*
X89438095Y-126427200D02*
X89533333Y-126474819D01*
X89533333Y-126474819D02*
X89723809Y-126474819D01*
X89723809Y-126474819D02*
X89819047Y-126427200D01*
X89819047Y-126427200D02*
X89914285Y-126331961D01*
X89914285Y-126331961D02*
X89961904Y-126141485D01*
X89961904Y-126141485D02*
X89961904Y-125808152D01*
X89961904Y-125808152D02*
X89914285Y-125617676D01*
X89914285Y-125617676D02*
X89819047Y-125522438D01*
X89819047Y-125522438D02*
X89723809Y-125474819D01*
X94894285Y-112189104D02*
X94418095Y-112189104D01*
X94989523Y-112474819D02*
X94656190Y-111474819D01*
X94656190Y-111474819D02*
X94322857Y-112474819D01*
X93513333Y-111474819D02*
X93989523Y-111474819D01*
X93989523Y-111474819D02*
X94037142Y-111951009D01*
X94037142Y-111951009D02*
X93989523Y-111903390D01*
X93989523Y-111903390D02*
X93894285Y-111855771D01*
X93894285Y-111855771D02*
X93656190Y-111855771D01*
X93656190Y-111855771D02*
X93560952Y-111903390D01*
X93560952Y-111903390D02*
X93513333Y-111951009D01*
X93513333Y-111951009D02*
X93465714Y-112046247D01*
X93465714Y-112046247D02*
X93465714Y-112284342D01*
X93465714Y-112284342D02*
X93513333Y-112379580D01*
X93513333Y-112379580D02*
X93560952Y-112427200D01*
X93560952Y-112427200D02*
X93656190Y-112474819D01*
X93656190Y-112474819D02*
X93894285Y-112474819D01*
X93894285Y-112474819D02*
X93989523Y-112427200D01*
X93989523Y-112427200D02*
X94037142Y-112379580D01*
X94954285Y-109629104D02*
X94478095Y-109629104D01*
X95049523Y-109914819D02*
X94716190Y-108914819D01*
X94716190Y-108914819D02*
X94382857Y-109914819D01*
X93620952Y-109248152D02*
X93620952Y-109914819D01*
X93859047Y-108867200D02*
X94097142Y-109581485D01*
X94097142Y-109581485D02*
X93478095Y-109581485D01*
X95814285Y-107444819D02*
X95814285Y-106444819D01*
X95814285Y-106444819D02*
X95576190Y-106444819D01*
X95576190Y-106444819D02*
X95433333Y-106492438D01*
X95433333Y-106492438D02*
X95338095Y-106587676D01*
X95338095Y-106587676D02*
X95290476Y-106682914D01*
X95290476Y-106682914D02*
X95242857Y-106873390D01*
X95242857Y-106873390D02*
X95242857Y-107016247D01*
X95242857Y-107016247D02*
X95290476Y-107206723D01*
X95290476Y-107206723D02*
X95338095Y-107301961D01*
X95338095Y-107301961D02*
X95433333Y-107397200D01*
X95433333Y-107397200D02*
X95576190Y-107444819D01*
X95576190Y-107444819D02*
X95814285Y-107444819D01*
X94290476Y-107444819D02*
X94861904Y-107444819D01*
X94576190Y-107444819D02*
X94576190Y-106444819D01*
X94576190Y-106444819D02*
X94671428Y-106587676D01*
X94671428Y-106587676D02*
X94766666Y-106682914D01*
X94766666Y-106682914D02*
X94861904Y-106730533D01*
X93671428Y-106444819D02*
X93576190Y-106444819D01*
X93576190Y-106444819D02*
X93480952Y-106492438D01*
X93480952Y-106492438D02*
X93433333Y-106540057D01*
X93433333Y-106540057D02*
X93385714Y-106635295D01*
X93385714Y-106635295D02*
X93338095Y-106825771D01*
X93338095Y-106825771D02*
X93338095Y-107063866D01*
X93338095Y-107063866D02*
X93385714Y-107254342D01*
X93385714Y-107254342D02*
X93433333Y-107349580D01*
X93433333Y-107349580D02*
X93480952Y-107397200D01*
X93480952Y-107397200D02*
X93576190Y-107444819D01*
X93576190Y-107444819D02*
X93671428Y-107444819D01*
X93671428Y-107444819D02*
X93766666Y-107397200D01*
X93766666Y-107397200D02*
X93814285Y-107349580D01*
X93814285Y-107349580D02*
X93861904Y-107254342D01*
X93861904Y-107254342D02*
X93909523Y-107063866D01*
X93909523Y-107063866D02*
X93909523Y-106825771D01*
X93909523Y-106825771D02*
X93861904Y-106635295D01*
X93861904Y-106635295D02*
X93814285Y-106540057D01*
X93814285Y-106540057D02*
X93766666Y-106492438D01*
X93766666Y-106492438D02*
X93671428Y-106444819D01*
X113014285Y-85269104D02*
X112538095Y-85269104D01*
X113109523Y-85554819D02*
X112776190Y-84554819D01*
X112776190Y-84554819D02*
X112442857Y-85554819D01*
X112204761Y-84554819D02*
X111585714Y-84554819D01*
X111585714Y-84554819D02*
X111919047Y-84935771D01*
X111919047Y-84935771D02*
X111776190Y-84935771D01*
X111776190Y-84935771D02*
X111680952Y-84983390D01*
X111680952Y-84983390D02*
X111633333Y-85031009D01*
X111633333Y-85031009D02*
X111585714Y-85126247D01*
X111585714Y-85126247D02*
X111585714Y-85364342D01*
X111585714Y-85364342D02*
X111633333Y-85459580D01*
X111633333Y-85459580D02*
X111680952Y-85507200D01*
X111680952Y-85507200D02*
X111776190Y-85554819D01*
X111776190Y-85554819D02*
X112061904Y-85554819D01*
X112061904Y-85554819D02*
X112157142Y-85507200D01*
X112157142Y-85507200D02*
X112204761Y-85459580D01*
X115514285Y-85269104D02*
X115038095Y-85269104D01*
X115609523Y-85554819D02*
X115276190Y-84554819D01*
X115276190Y-84554819D02*
X114942857Y-85554819D01*
X114657142Y-84650057D02*
X114609523Y-84602438D01*
X114609523Y-84602438D02*
X114514285Y-84554819D01*
X114514285Y-84554819D02*
X114276190Y-84554819D01*
X114276190Y-84554819D02*
X114180952Y-84602438D01*
X114180952Y-84602438D02*
X114133333Y-84650057D01*
X114133333Y-84650057D02*
X114085714Y-84745295D01*
X114085714Y-84745295D02*
X114085714Y-84840533D01*
X114085714Y-84840533D02*
X114133333Y-84983390D01*
X114133333Y-84983390D02*
X114704761Y-85554819D01*
X114704761Y-85554819D02*
X114085714Y-85554819D01*
X118014285Y-85269104D02*
X117538095Y-85269104D01*
X118109523Y-85554819D02*
X117776190Y-84554819D01*
X117776190Y-84554819D02*
X117442857Y-85554819D01*
X116585714Y-85554819D02*
X117157142Y-85554819D01*
X116871428Y-85554819D02*
X116871428Y-84554819D01*
X116871428Y-84554819D02*
X116966666Y-84697676D01*
X116966666Y-84697676D02*
X117061904Y-84792914D01*
X117061904Y-84792914D02*
X117157142Y-84840533D01*
X120614285Y-85269104D02*
X120138095Y-85269104D01*
X120709523Y-85554819D02*
X120376190Y-84554819D01*
X120376190Y-84554819D02*
X120042857Y-85554819D01*
X119519047Y-84554819D02*
X119423809Y-84554819D01*
X119423809Y-84554819D02*
X119328571Y-84602438D01*
X119328571Y-84602438D02*
X119280952Y-84650057D01*
X119280952Y-84650057D02*
X119233333Y-84745295D01*
X119233333Y-84745295D02*
X119185714Y-84935771D01*
X119185714Y-84935771D02*
X119185714Y-85173866D01*
X119185714Y-85173866D02*
X119233333Y-85364342D01*
X119233333Y-85364342D02*
X119280952Y-85459580D01*
X119280952Y-85459580D02*
X119328571Y-85507200D01*
X119328571Y-85507200D02*
X119423809Y-85554819D01*
X119423809Y-85554819D02*
X119519047Y-85554819D01*
X119519047Y-85554819D02*
X119614285Y-85507200D01*
X119614285Y-85507200D02*
X119661904Y-85459580D01*
X119661904Y-85459580D02*
X119709523Y-85364342D01*
X119709523Y-85364342D02*
X119757142Y-85173866D01*
X119757142Y-85173866D02*
X119757142Y-84935771D01*
X119757142Y-84935771D02*
X119709523Y-84745295D01*
X119709523Y-84745295D02*
X119661904Y-84650057D01*
X119661904Y-84650057D02*
X119614285Y-84602438D01*
X119614285Y-84602438D02*
X119519047Y-84554819D01*
X95401904Y-103912438D02*
X95497142Y-103864819D01*
X95497142Y-103864819D02*
X95639999Y-103864819D01*
X95639999Y-103864819D02*
X95782856Y-103912438D01*
X95782856Y-103912438D02*
X95878094Y-104007676D01*
X95878094Y-104007676D02*
X95925713Y-104102914D01*
X95925713Y-104102914D02*
X95973332Y-104293390D01*
X95973332Y-104293390D02*
X95973332Y-104436247D01*
X95973332Y-104436247D02*
X95925713Y-104626723D01*
X95925713Y-104626723D02*
X95878094Y-104721961D01*
X95878094Y-104721961D02*
X95782856Y-104817200D01*
X95782856Y-104817200D02*
X95639999Y-104864819D01*
X95639999Y-104864819D02*
X95544761Y-104864819D01*
X95544761Y-104864819D02*
X95401904Y-104817200D01*
X95401904Y-104817200D02*
X95354285Y-104769580D01*
X95354285Y-104769580D02*
X95354285Y-104436247D01*
X95354285Y-104436247D02*
X95544761Y-104436247D01*
X94925713Y-104864819D02*
X94925713Y-103864819D01*
X94925713Y-103864819D02*
X94354285Y-104864819D01*
X94354285Y-104864819D02*
X94354285Y-103864819D01*
X93878094Y-104864819D02*
X93878094Y-103864819D01*
X93878094Y-103864819D02*
X93639999Y-103864819D01*
X93639999Y-103864819D02*
X93497142Y-103912438D01*
X93497142Y-103912438D02*
X93401904Y-104007676D01*
X93401904Y-104007676D02*
X93354285Y-104102914D01*
X93354285Y-104102914D02*
X93306666Y-104293390D01*
X93306666Y-104293390D02*
X93306666Y-104436247D01*
X93306666Y-104436247D02*
X93354285Y-104626723D01*
X93354285Y-104626723D02*
X93401904Y-104721961D01*
X93401904Y-104721961D02*
X93497142Y-104817200D01*
X93497142Y-104817200D02*
X93639999Y-104864819D01*
X93639999Y-104864819D02*
X93878094Y-104864819D01*
X96055713Y-101963866D02*
X95293809Y-101963866D01*
X95674761Y-102344819D02*
X95674761Y-101582914D01*
X94341428Y-101344819D02*
X94817618Y-101344819D01*
X94817618Y-101344819D02*
X94865237Y-101821009D01*
X94865237Y-101821009D02*
X94817618Y-101773390D01*
X94817618Y-101773390D02*
X94722380Y-101725771D01*
X94722380Y-101725771D02*
X94484285Y-101725771D01*
X94484285Y-101725771D02*
X94389047Y-101773390D01*
X94389047Y-101773390D02*
X94341428Y-101821009D01*
X94341428Y-101821009D02*
X94293809Y-101916247D01*
X94293809Y-101916247D02*
X94293809Y-102154342D01*
X94293809Y-102154342D02*
X94341428Y-102249580D01*
X94341428Y-102249580D02*
X94389047Y-102297200D01*
X94389047Y-102297200D02*
X94484285Y-102344819D01*
X94484285Y-102344819D02*
X94722380Y-102344819D01*
X94722380Y-102344819D02*
X94817618Y-102297200D01*
X94817618Y-102297200D02*
X94865237Y-102249580D01*
X94008094Y-101344819D02*
X93674761Y-102344819D01*
X93674761Y-102344819D02*
X93341428Y-101344819D01*
X121849523Y-138304819D02*
X122325713Y-138304819D01*
X122325713Y-138304819D02*
X122325713Y-137304819D01*
X121516189Y-137923866D02*
X120754285Y-137923866D01*
X91785713Y-124773866D02*
X91023809Y-124773866D01*
X91404761Y-125154819D02*
X91404761Y-124392914D01*
X90071428Y-124154819D02*
X90547618Y-124154819D01*
X90547618Y-124154819D02*
X90595237Y-124631009D01*
X90595237Y-124631009D02*
X90547618Y-124583390D01*
X90547618Y-124583390D02*
X90452380Y-124535771D01*
X90452380Y-124535771D02*
X90214285Y-124535771D01*
X90214285Y-124535771D02*
X90119047Y-124583390D01*
X90119047Y-124583390D02*
X90071428Y-124631009D01*
X90071428Y-124631009D02*
X90023809Y-124726247D01*
X90023809Y-124726247D02*
X90023809Y-124964342D01*
X90023809Y-124964342D02*
X90071428Y-125059580D01*
X90071428Y-125059580D02*
X90119047Y-125107200D01*
X90119047Y-125107200D02*
X90214285Y-125154819D01*
X90214285Y-125154819D02*
X90452380Y-125154819D01*
X90452380Y-125154819D02*
X90547618Y-125107200D01*
X90547618Y-125107200D02*
X90595237Y-125059580D01*
X89738094Y-124154819D02*
X89404761Y-125154819D01*
X89404761Y-125154819D02*
X89071428Y-124154819D01*
X90920952Y-126852438D02*
X91016190Y-126804819D01*
X91016190Y-126804819D02*
X91159047Y-126804819D01*
X91159047Y-126804819D02*
X91301904Y-126852438D01*
X91301904Y-126852438D02*
X91397142Y-126947676D01*
X91397142Y-126947676D02*
X91444761Y-127042914D01*
X91444761Y-127042914D02*
X91492380Y-127233390D01*
X91492380Y-127233390D02*
X91492380Y-127376247D01*
X91492380Y-127376247D02*
X91444761Y-127566723D01*
X91444761Y-127566723D02*
X91397142Y-127661961D01*
X91397142Y-127661961D02*
X91301904Y-127757200D01*
X91301904Y-127757200D02*
X91159047Y-127804819D01*
X91159047Y-127804819D02*
X91063809Y-127804819D01*
X91063809Y-127804819D02*
X90920952Y-127757200D01*
X90920952Y-127757200D02*
X90873333Y-127709580D01*
X90873333Y-127709580D02*
X90873333Y-127376247D01*
X90873333Y-127376247D02*
X91063809Y-127376247D01*
X90444761Y-127804819D02*
X90444761Y-126804819D01*
X90444761Y-126804819D02*
X89873333Y-127804819D01*
X89873333Y-127804819D02*
X89873333Y-126804819D01*
X89397142Y-127804819D02*
X89397142Y-126804819D01*
X89397142Y-126804819D02*
X89159047Y-126804819D01*
X89159047Y-126804819D02*
X89016190Y-126852438D01*
X89016190Y-126852438D02*
X88920952Y-126947676D01*
X88920952Y-126947676D02*
X88873333Y-127042914D01*
X88873333Y-127042914D02*
X88825714Y-127233390D01*
X88825714Y-127233390D02*
X88825714Y-127376247D01*
X88825714Y-127376247D02*
X88873333Y-127566723D01*
X88873333Y-127566723D02*
X88920952Y-127661961D01*
X88920952Y-127661961D02*
X89016190Y-127757200D01*
X89016190Y-127757200D02*
X89159047Y-127804819D01*
X89159047Y-127804819D02*
X89397142Y-127804819D01*
X123138094Y-85554819D02*
X123138094Y-84554819D01*
X123138094Y-84554819D02*
X122899999Y-84554819D01*
X122899999Y-84554819D02*
X122757142Y-84602438D01*
X122757142Y-84602438D02*
X122661904Y-84697676D01*
X122661904Y-84697676D02*
X122614285Y-84792914D01*
X122614285Y-84792914D02*
X122566666Y-84983390D01*
X122566666Y-84983390D02*
X122566666Y-85126247D01*
X122566666Y-85126247D02*
X122614285Y-85316723D01*
X122614285Y-85316723D02*
X122661904Y-85411961D01*
X122661904Y-85411961D02*
X122757142Y-85507200D01*
X122757142Y-85507200D02*
X122899999Y-85554819D01*
X122899999Y-85554819D02*
X123138094Y-85554819D01*
X121661904Y-84554819D02*
X122138094Y-84554819D01*
X122138094Y-84554819D02*
X122185713Y-85031009D01*
X122185713Y-85031009D02*
X122138094Y-84983390D01*
X122138094Y-84983390D02*
X122042856Y-84935771D01*
X122042856Y-84935771D02*
X121804761Y-84935771D01*
X121804761Y-84935771D02*
X121709523Y-84983390D01*
X121709523Y-84983390D02*
X121661904Y-85031009D01*
X121661904Y-85031009D02*
X121614285Y-85126247D01*
X121614285Y-85126247D02*
X121614285Y-85364342D01*
X121614285Y-85364342D02*
X121661904Y-85459580D01*
X121661904Y-85459580D02*
X121709523Y-85507200D01*
X121709523Y-85507200D02*
X121804761Y-85554819D01*
X121804761Y-85554819D02*
X122042856Y-85554819D01*
X122042856Y-85554819D02*
X122138094Y-85507200D01*
X122138094Y-85507200D02*
X122185713Y-85459580D01*
X102219047Y-85554819D02*
X102552380Y-85078628D01*
X102790475Y-85554819D02*
X102790475Y-84554819D01*
X102790475Y-84554819D02*
X102409523Y-84554819D01*
X102409523Y-84554819D02*
X102314285Y-84602438D01*
X102314285Y-84602438D02*
X102266666Y-84650057D01*
X102266666Y-84650057D02*
X102219047Y-84745295D01*
X102219047Y-84745295D02*
X102219047Y-84888152D01*
X102219047Y-84888152D02*
X102266666Y-84983390D01*
X102266666Y-84983390D02*
X102314285Y-85031009D01*
X102314285Y-85031009D02*
X102409523Y-85078628D01*
X102409523Y-85078628D02*
X102790475Y-85078628D01*
X101933332Y-84554819D02*
X101599999Y-85554819D01*
X101599999Y-85554819D02*
X101266666Y-84554819D01*
X99590476Y-84554819D02*
X100066666Y-84554819D01*
X100066666Y-84554819D02*
X100114285Y-85031009D01*
X100114285Y-85031009D02*
X100066666Y-84983390D01*
X100066666Y-84983390D02*
X99971428Y-84935771D01*
X99971428Y-84935771D02*
X99733333Y-84935771D01*
X99733333Y-84935771D02*
X99638095Y-84983390D01*
X99638095Y-84983390D02*
X99590476Y-85031009D01*
X99590476Y-85031009D02*
X99542857Y-85126247D01*
X99542857Y-85126247D02*
X99542857Y-85364342D01*
X99542857Y-85364342D02*
X99590476Y-85459580D01*
X99590476Y-85459580D02*
X99638095Y-85507200D01*
X99638095Y-85507200D02*
X99733333Y-85554819D01*
X99733333Y-85554819D02*
X99971428Y-85554819D01*
X99971428Y-85554819D02*
X100066666Y-85507200D01*
X100066666Y-85507200D02*
X100114285Y-85459580D01*
X99257142Y-84554819D02*
X98923809Y-85554819D01*
X98923809Y-85554819D02*
X98590476Y-84554819D01*
X125738094Y-85554819D02*
X125738094Y-84554819D01*
X125738094Y-84554819D02*
X125499999Y-84554819D01*
X125499999Y-84554819D02*
X125357142Y-84602438D01*
X125357142Y-84602438D02*
X125261904Y-84697676D01*
X125261904Y-84697676D02*
X125214285Y-84792914D01*
X125214285Y-84792914D02*
X125166666Y-84983390D01*
X125166666Y-84983390D02*
X125166666Y-85126247D01*
X125166666Y-85126247D02*
X125214285Y-85316723D01*
X125214285Y-85316723D02*
X125261904Y-85411961D01*
X125261904Y-85411961D02*
X125357142Y-85507200D01*
X125357142Y-85507200D02*
X125499999Y-85554819D01*
X125499999Y-85554819D02*
X125738094Y-85554819D01*
X124309523Y-84554819D02*
X124499999Y-84554819D01*
X124499999Y-84554819D02*
X124595237Y-84602438D01*
X124595237Y-84602438D02*
X124642856Y-84650057D01*
X124642856Y-84650057D02*
X124738094Y-84792914D01*
X124738094Y-84792914D02*
X124785713Y-84983390D01*
X124785713Y-84983390D02*
X124785713Y-85364342D01*
X124785713Y-85364342D02*
X124738094Y-85459580D01*
X124738094Y-85459580D02*
X124690475Y-85507200D01*
X124690475Y-85507200D02*
X124595237Y-85554819D01*
X124595237Y-85554819D02*
X124404761Y-85554819D01*
X124404761Y-85554819D02*
X124309523Y-85507200D01*
X124309523Y-85507200D02*
X124261904Y-85459580D01*
X124261904Y-85459580D02*
X124214285Y-85364342D01*
X124214285Y-85364342D02*
X124214285Y-85126247D01*
X124214285Y-85126247D02*
X124261904Y-85031009D01*
X124261904Y-85031009D02*
X124309523Y-84983390D01*
X124309523Y-84983390D02*
X124404761Y-84935771D01*
X124404761Y-84935771D02*
X124595237Y-84935771D01*
X124595237Y-84935771D02*
X124690475Y-84983390D01*
X124690475Y-84983390D02*
X124738094Y-85031009D01*
X124738094Y-85031009D02*
X124785713Y-85126247D01*
X133238094Y-85554819D02*
X133238094Y-84554819D01*
X133238094Y-84554819D02*
X132999999Y-84554819D01*
X132999999Y-84554819D02*
X132857142Y-84602438D01*
X132857142Y-84602438D02*
X132761904Y-84697676D01*
X132761904Y-84697676D02*
X132714285Y-84792914D01*
X132714285Y-84792914D02*
X132666666Y-84983390D01*
X132666666Y-84983390D02*
X132666666Y-85126247D01*
X132666666Y-85126247D02*
X132714285Y-85316723D01*
X132714285Y-85316723D02*
X132761904Y-85411961D01*
X132761904Y-85411961D02*
X132857142Y-85507200D01*
X132857142Y-85507200D02*
X132999999Y-85554819D01*
X132999999Y-85554819D02*
X133238094Y-85554819D01*
X132190475Y-85554819D02*
X131999999Y-85554819D01*
X131999999Y-85554819D02*
X131904761Y-85507200D01*
X131904761Y-85507200D02*
X131857142Y-85459580D01*
X131857142Y-85459580D02*
X131761904Y-85316723D01*
X131761904Y-85316723D02*
X131714285Y-85126247D01*
X131714285Y-85126247D02*
X131714285Y-84745295D01*
X131714285Y-84745295D02*
X131761904Y-84650057D01*
X131761904Y-84650057D02*
X131809523Y-84602438D01*
X131809523Y-84602438D02*
X131904761Y-84554819D01*
X131904761Y-84554819D02*
X132095237Y-84554819D01*
X132095237Y-84554819D02*
X132190475Y-84602438D01*
X132190475Y-84602438D02*
X132238094Y-84650057D01*
X132238094Y-84650057D02*
X132285713Y-84745295D01*
X132285713Y-84745295D02*
X132285713Y-84983390D01*
X132285713Y-84983390D02*
X132238094Y-85078628D01*
X132238094Y-85078628D02*
X132190475Y-85126247D01*
X132190475Y-85126247D02*
X132095237Y-85173866D01*
X132095237Y-85173866D02*
X131904761Y-85173866D01*
X131904761Y-85173866D02*
X131809523Y-85126247D01*
X131809523Y-85126247D02*
X131761904Y-85078628D01*
X131761904Y-85078628D02*
X131714285Y-84983390D01*
X134838095Y-84602438D02*
X134933333Y-84554819D01*
X134933333Y-84554819D02*
X135076190Y-84554819D01*
X135076190Y-84554819D02*
X135219047Y-84602438D01*
X135219047Y-84602438D02*
X135314285Y-84697676D01*
X135314285Y-84697676D02*
X135361904Y-84792914D01*
X135361904Y-84792914D02*
X135409523Y-84983390D01*
X135409523Y-84983390D02*
X135409523Y-85126247D01*
X135409523Y-85126247D02*
X135361904Y-85316723D01*
X135361904Y-85316723D02*
X135314285Y-85411961D01*
X135314285Y-85411961D02*
X135219047Y-85507200D01*
X135219047Y-85507200D02*
X135076190Y-85554819D01*
X135076190Y-85554819D02*
X134980952Y-85554819D01*
X134980952Y-85554819D02*
X134838095Y-85507200D01*
X134838095Y-85507200D02*
X134790476Y-85459580D01*
X134790476Y-85459580D02*
X134790476Y-85126247D01*
X134790476Y-85126247D02*
X134980952Y-85126247D01*
X130738094Y-85554819D02*
X130738094Y-84554819D01*
X130738094Y-84554819D02*
X130499999Y-84554819D01*
X130499999Y-84554819D02*
X130357142Y-84602438D01*
X130357142Y-84602438D02*
X130261904Y-84697676D01*
X130261904Y-84697676D02*
X130214285Y-84792914D01*
X130214285Y-84792914D02*
X130166666Y-84983390D01*
X130166666Y-84983390D02*
X130166666Y-85126247D01*
X130166666Y-85126247D02*
X130214285Y-85316723D01*
X130214285Y-85316723D02*
X130261904Y-85411961D01*
X130261904Y-85411961D02*
X130357142Y-85507200D01*
X130357142Y-85507200D02*
X130499999Y-85554819D01*
X130499999Y-85554819D02*
X130738094Y-85554819D01*
X129595237Y-84983390D02*
X129690475Y-84935771D01*
X129690475Y-84935771D02*
X129738094Y-84888152D01*
X129738094Y-84888152D02*
X129785713Y-84792914D01*
X129785713Y-84792914D02*
X129785713Y-84745295D01*
X129785713Y-84745295D02*
X129738094Y-84650057D01*
X129738094Y-84650057D02*
X129690475Y-84602438D01*
X129690475Y-84602438D02*
X129595237Y-84554819D01*
X129595237Y-84554819D02*
X129404761Y-84554819D01*
X129404761Y-84554819D02*
X129309523Y-84602438D01*
X129309523Y-84602438D02*
X129261904Y-84650057D01*
X129261904Y-84650057D02*
X129214285Y-84745295D01*
X129214285Y-84745295D02*
X129214285Y-84792914D01*
X129214285Y-84792914D02*
X129261904Y-84888152D01*
X129261904Y-84888152D02*
X129309523Y-84935771D01*
X129309523Y-84935771D02*
X129404761Y-84983390D01*
X129404761Y-84983390D02*
X129595237Y-84983390D01*
X129595237Y-84983390D02*
X129690475Y-85031009D01*
X129690475Y-85031009D02*
X129738094Y-85078628D01*
X129738094Y-85078628D02*
X129785713Y-85173866D01*
X129785713Y-85173866D02*
X129785713Y-85364342D01*
X129785713Y-85364342D02*
X129738094Y-85459580D01*
X129738094Y-85459580D02*
X129690475Y-85507200D01*
X129690475Y-85507200D02*
X129595237Y-85554819D01*
X129595237Y-85554819D02*
X129404761Y-85554819D01*
X129404761Y-85554819D02*
X129309523Y-85507200D01*
X129309523Y-85507200D02*
X129261904Y-85459580D01*
X129261904Y-85459580D02*
X129214285Y-85364342D01*
X129214285Y-85364342D02*
X129214285Y-85173866D01*
X129214285Y-85173866D02*
X129261904Y-85078628D01*
X129261904Y-85078628D02*
X129309523Y-85031009D01*
X129309523Y-85031009D02*
X129404761Y-84983390D01*
X105338094Y-85554819D02*
X105338094Y-84554819D01*
X105338094Y-84554819D02*
X105099999Y-84554819D01*
X105099999Y-84554819D02*
X104957142Y-84602438D01*
X104957142Y-84602438D02*
X104861904Y-84697676D01*
X104861904Y-84697676D02*
X104814285Y-84792914D01*
X104814285Y-84792914D02*
X104766666Y-84983390D01*
X104766666Y-84983390D02*
X104766666Y-85126247D01*
X104766666Y-85126247D02*
X104814285Y-85316723D01*
X104814285Y-85316723D02*
X104861904Y-85411961D01*
X104861904Y-85411961D02*
X104957142Y-85507200D01*
X104957142Y-85507200D02*
X105099999Y-85554819D01*
X105099999Y-85554819D02*
X105338094Y-85554819D01*
X104433332Y-84554819D02*
X103814285Y-84554819D01*
X103814285Y-84554819D02*
X104147618Y-84935771D01*
X104147618Y-84935771D02*
X104004761Y-84935771D01*
X104004761Y-84935771D02*
X103909523Y-84983390D01*
X103909523Y-84983390D02*
X103861904Y-85031009D01*
X103861904Y-85031009D02*
X103814285Y-85126247D01*
X103814285Y-85126247D02*
X103814285Y-85364342D01*
X103814285Y-85364342D02*
X103861904Y-85459580D01*
X103861904Y-85459580D02*
X103909523Y-85507200D01*
X103909523Y-85507200D02*
X104004761Y-85554819D01*
X104004761Y-85554819D02*
X104290475Y-85554819D01*
X104290475Y-85554819D02*
X104385713Y-85507200D01*
X104385713Y-85507200D02*
X104433332Y-85459580D01*
X128238094Y-85554819D02*
X128238094Y-84554819D01*
X128238094Y-84554819D02*
X127999999Y-84554819D01*
X127999999Y-84554819D02*
X127857142Y-84602438D01*
X127857142Y-84602438D02*
X127761904Y-84697676D01*
X127761904Y-84697676D02*
X127714285Y-84792914D01*
X127714285Y-84792914D02*
X127666666Y-84983390D01*
X127666666Y-84983390D02*
X127666666Y-85126247D01*
X127666666Y-85126247D02*
X127714285Y-85316723D01*
X127714285Y-85316723D02*
X127761904Y-85411961D01*
X127761904Y-85411961D02*
X127857142Y-85507200D01*
X127857142Y-85507200D02*
X127999999Y-85554819D01*
X127999999Y-85554819D02*
X128238094Y-85554819D01*
X127333332Y-84554819D02*
X126666666Y-84554819D01*
X126666666Y-84554819D02*
X127095237Y-85554819D01*
X110438094Y-85554819D02*
X110438094Y-84554819D01*
X110438094Y-84554819D02*
X110199999Y-84554819D01*
X110199999Y-84554819D02*
X110057142Y-84602438D01*
X110057142Y-84602438D02*
X109961904Y-84697676D01*
X109961904Y-84697676D02*
X109914285Y-84792914D01*
X109914285Y-84792914D02*
X109866666Y-84983390D01*
X109866666Y-84983390D02*
X109866666Y-85126247D01*
X109866666Y-85126247D02*
X109914285Y-85316723D01*
X109914285Y-85316723D02*
X109961904Y-85411961D01*
X109961904Y-85411961D02*
X110057142Y-85507200D01*
X110057142Y-85507200D02*
X110199999Y-85554819D01*
X110199999Y-85554819D02*
X110438094Y-85554819D01*
X109009523Y-84888152D02*
X109009523Y-85554819D01*
X109247618Y-84507200D02*
X109485713Y-85221485D01*
X109485713Y-85221485D02*
X108866666Y-85221485D01*
X106938095Y-84602438D02*
X107033333Y-84554819D01*
X107033333Y-84554819D02*
X107176190Y-84554819D01*
X107176190Y-84554819D02*
X107319047Y-84602438D01*
X107319047Y-84602438D02*
X107414285Y-84697676D01*
X107414285Y-84697676D02*
X107461904Y-84792914D01*
X107461904Y-84792914D02*
X107509523Y-84983390D01*
X107509523Y-84983390D02*
X107509523Y-85126247D01*
X107509523Y-85126247D02*
X107461904Y-85316723D01*
X107461904Y-85316723D02*
X107414285Y-85411961D01*
X107414285Y-85411961D02*
X107319047Y-85507200D01*
X107319047Y-85507200D02*
X107176190Y-85554819D01*
X107176190Y-85554819D02*
X107080952Y-85554819D01*
X107080952Y-85554819D02*
X106938095Y-85507200D01*
X106938095Y-85507200D02*
X106890476Y-85459580D01*
X106890476Y-85459580D02*
X106890476Y-85126247D01*
X106890476Y-85126247D02*
X107080952Y-85126247D01*
X96738095Y-84602438D02*
X96833333Y-84554819D01*
X96833333Y-84554819D02*
X96976190Y-84554819D01*
X96976190Y-84554819D02*
X97119047Y-84602438D01*
X97119047Y-84602438D02*
X97214285Y-84697676D01*
X97214285Y-84697676D02*
X97261904Y-84792914D01*
X97261904Y-84792914D02*
X97309523Y-84983390D01*
X97309523Y-84983390D02*
X97309523Y-85126247D01*
X97309523Y-85126247D02*
X97261904Y-85316723D01*
X97261904Y-85316723D02*
X97214285Y-85411961D01*
X97214285Y-85411961D02*
X97119047Y-85507200D01*
X97119047Y-85507200D02*
X96976190Y-85554819D01*
X96976190Y-85554819D02*
X96880952Y-85554819D01*
X96880952Y-85554819D02*
X96738095Y-85507200D01*
X96738095Y-85507200D02*
X96690476Y-85459580D01*
X96690476Y-85459580D02*
X96690476Y-85126247D01*
X96690476Y-85126247D02*
X96880952Y-85126247D01*
X115579285Y-99799104D02*
X115103095Y-99799104D01*
X115674523Y-100084819D02*
X115341190Y-99084819D01*
X115341190Y-99084819D02*
X115007857Y-100084819D01*
X114722142Y-99180057D02*
X114674523Y-99132438D01*
X114674523Y-99132438D02*
X114579285Y-99084819D01*
X114579285Y-99084819D02*
X114341190Y-99084819D01*
X114341190Y-99084819D02*
X114245952Y-99132438D01*
X114245952Y-99132438D02*
X114198333Y-99180057D01*
X114198333Y-99180057D02*
X114150714Y-99275295D01*
X114150714Y-99275295D02*
X114150714Y-99370533D01*
X114150714Y-99370533D02*
X114198333Y-99513390D01*
X114198333Y-99513390D02*
X114769761Y-100084819D01*
X114769761Y-100084819D02*
X114150714Y-100084819D01*
X120679285Y-99799104D02*
X120203095Y-99799104D01*
X120774523Y-100084819D02*
X120441190Y-99084819D01*
X120441190Y-99084819D02*
X120107857Y-100084819D01*
X119584047Y-99084819D02*
X119488809Y-99084819D01*
X119488809Y-99084819D02*
X119393571Y-99132438D01*
X119393571Y-99132438D02*
X119345952Y-99180057D01*
X119345952Y-99180057D02*
X119298333Y-99275295D01*
X119298333Y-99275295D02*
X119250714Y-99465771D01*
X119250714Y-99465771D02*
X119250714Y-99703866D01*
X119250714Y-99703866D02*
X119298333Y-99894342D01*
X119298333Y-99894342D02*
X119345952Y-99989580D01*
X119345952Y-99989580D02*
X119393571Y-100037200D01*
X119393571Y-100037200D02*
X119488809Y-100084819D01*
X119488809Y-100084819D02*
X119584047Y-100084819D01*
X119584047Y-100084819D02*
X119679285Y-100037200D01*
X119679285Y-100037200D02*
X119726904Y-99989580D01*
X119726904Y-99989580D02*
X119774523Y-99894342D01*
X119774523Y-99894342D02*
X119822142Y-99703866D01*
X119822142Y-99703866D02*
X119822142Y-99465771D01*
X119822142Y-99465771D02*
X119774523Y-99275295D01*
X119774523Y-99275295D02*
X119726904Y-99180057D01*
X119726904Y-99180057D02*
X119679285Y-99132438D01*
X119679285Y-99132438D02*
X119584047Y-99084819D01*
X92965714Y-127774819D02*
X93299047Y-127298628D01*
X93537142Y-127774819D02*
X93537142Y-126774819D01*
X93537142Y-126774819D02*
X93156190Y-126774819D01*
X93156190Y-126774819D02*
X93060952Y-126822438D01*
X93060952Y-126822438D02*
X93013333Y-126870057D01*
X93013333Y-126870057D02*
X92965714Y-126965295D01*
X92965714Y-126965295D02*
X92965714Y-127108152D01*
X92965714Y-127108152D02*
X93013333Y-127203390D01*
X93013333Y-127203390D02*
X93060952Y-127251009D01*
X93060952Y-127251009D02*
X93156190Y-127298628D01*
X93156190Y-127298628D02*
X93537142Y-127298628D01*
X92584761Y-127727200D02*
X92441904Y-127774819D01*
X92441904Y-127774819D02*
X92203809Y-127774819D01*
X92203809Y-127774819D02*
X92108571Y-127727200D01*
X92108571Y-127727200D02*
X92060952Y-127679580D01*
X92060952Y-127679580D02*
X92013333Y-127584342D01*
X92013333Y-127584342D02*
X92013333Y-127489104D01*
X92013333Y-127489104D02*
X92060952Y-127393866D01*
X92060952Y-127393866D02*
X92108571Y-127346247D01*
X92108571Y-127346247D02*
X92203809Y-127298628D01*
X92203809Y-127298628D02*
X92394285Y-127251009D01*
X92394285Y-127251009D02*
X92489523Y-127203390D01*
X92489523Y-127203390D02*
X92537142Y-127155771D01*
X92537142Y-127155771D02*
X92584761Y-127060533D01*
X92584761Y-127060533D02*
X92584761Y-126965295D01*
X92584761Y-126965295D02*
X92537142Y-126870057D01*
X92537142Y-126870057D02*
X92489523Y-126822438D01*
X92489523Y-126822438D02*
X92394285Y-126774819D01*
X92394285Y-126774819D02*
X92156190Y-126774819D01*
X92156190Y-126774819D02*
X92013333Y-126822438D01*
X113079285Y-99799104D02*
X112603095Y-99799104D01*
X113174523Y-100084819D02*
X112841190Y-99084819D01*
X112841190Y-99084819D02*
X112507857Y-100084819D01*
X112269761Y-99084819D02*
X111650714Y-99084819D01*
X111650714Y-99084819D02*
X111984047Y-99465771D01*
X111984047Y-99465771D02*
X111841190Y-99465771D01*
X111841190Y-99465771D02*
X111745952Y-99513390D01*
X111745952Y-99513390D02*
X111698333Y-99561009D01*
X111698333Y-99561009D02*
X111650714Y-99656247D01*
X111650714Y-99656247D02*
X111650714Y-99894342D01*
X111650714Y-99894342D02*
X111698333Y-99989580D01*
X111698333Y-99989580D02*
X111745952Y-100037200D01*
X111745952Y-100037200D02*
X111841190Y-100084819D01*
X111841190Y-100084819D02*
X112126904Y-100084819D01*
X112126904Y-100084819D02*
X112222142Y-100037200D01*
X112222142Y-100037200D02*
X112269761Y-99989580D01*
X128451904Y-137781009D02*
X128118571Y-137781009D01*
X127975714Y-138304819D02*
X128451904Y-138304819D01*
X128451904Y-138304819D02*
X128451904Y-137304819D01*
X128451904Y-137304819D02*
X127975714Y-137304819D01*
X126975714Y-138209580D02*
X127023333Y-138257200D01*
X127023333Y-138257200D02*
X127166190Y-138304819D01*
X127166190Y-138304819D02*
X127261428Y-138304819D01*
X127261428Y-138304819D02*
X127404285Y-138257200D01*
X127404285Y-138257200D02*
X127499523Y-138161961D01*
X127499523Y-138161961D02*
X127547142Y-138066723D01*
X127547142Y-138066723D02*
X127594761Y-137876247D01*
X127594761Y-137876247D02*
X127594761Y-137733390D01*
X127594761Y-137733390D02*
X127547142Y-137542914D01*
X127547142Y-137542914D02*
X127499523Y-137447676D01*
X127499523Y-137447676D02*
X127404285Y-137352438D01*
X127404285Y-137352438D02*
X127261428Y-137304819D01*
X127261428Y-137304819D02*
X127166190Y-137304819D01*
X127166190Y-137304819D02*
X127023333Y-137352438D01*
X127023333Y-137352438D02*
X126975714Y-137400057D01*
X126547142Y-138304819D02*
X126547142Y-137304819D01*
X126547142Y-137781009D02*
X125975714Y-137781009D01*
X125975714Y-138304819D02*
X125975714Y-137304819D01*
X125309047Y-137304819D02*
X125118571Y-137304819D01*
X125118571Y-137304819D02*
X125023333Y-137352438D01*
X125023333Y-137352438D02*
X124928095Y-137447676D01*
X124928095Y-137447676D02*
X124880476Y-137638152D01*
X124880476Y-137638152D02*
X124880476Y-137971485D01*
X124880476Y-137971485D02*
X124928095Y-138161961D01*
X124928095Y-138161961D02*
X125023333Y-138257200D01*
X125023333Y-138257200D02*
X125118571Y-138304819D01*
X125118571Y-138304819D02*
X125309047Y-138304819D01*
X125309047Y-138304819D02*
X125404285Y-138257200D01*
X125404285Y-138257200D02*
X125499523Y-138161961D01*
X125499523Y-138161961D02*
X125547142Y-137971485D01*
X125547142Y-137971485D02*
X125547142Y-137638152D01*
X125547142Y-137638152D02*
X125499523Y-137447676D01*
X125499523Y-137447676D02*
X125404285Y-137352438D01*
X125404285Y-137352438D02*
X125309047Y-137304819D01*
X93361427Y-125124819D02*
X93361427Y-124124819D01*
X93361427Y-124124819D02*
X93028094Y-124839104D01*
X93028094Y-124839104D02*
X92694761Y-124124819D01*
X92694761Y-124124819D02*
X92694761Y-125124819D01*
X92218570Y-125124819D02*
X92218570Y-124124819D01*
X118079285Y-99799104D02*
X117603095Y-99799104D01*
X118174523Y-100084819D02*
X117841190Y-99084819D01*
X117841190Y-99084819D02*
X117507857Y-100084819D01*
X116650714Y-100084819D02*
X117222142Y-100084819D01*
X116936428Y-100084819D02*
X116936428Y-99084819D01*
X116936428Y-99084819D02*
X117031666Y-99227676D01*
X117031666Y-99227676D02*
X117126904Y-99322914D01*
X117126904Y-99322914D02*
X117222142Y-99370533D01*
X137631904Y-137442438D02*
X137727142Y-137394819D01*
X137727142Y-137394819D02*
X137869999Y-137394819D01*
X137869999Y-137394819D02*
X138012856Y-137442438D01*
X138012856Y-137442438D02*
X138108094Y-137537676D01*
X138108094Y-137537676D02*
X138155713Y-137632914D01*
X138155713Y-137632914D02*
X138203332Y-137823390D01*
X138203332Y-137823390D02*
X138203332Y-137966247D01*
X138203332Y-137966247D02*
X138155713Y-138156723D01*
X138155713Y-138156723D02*
X138108094Y-138251961D01*
X138108094Y-138251961D02*
X138012856Y-138347200D01*
X138012856Y-138347200D02*
X137869999Y-138394819D01*
X137869999Y-138394819D02*
X137774761Y-138394819D01*
X137774761Y-138394819D02*
X137631904Y-138347200D01*
X137631904Y-138347200D02*
X137584285Y-138299580D01*
X137584285Y-138299580D02*
X137584285Y-137966247D01*
X137584285Y-137966247D02*
X137774761Y-137966247D01*
X137155713Y-138394819D02*
X137155713Y-137394819D01*
X137155713Y-137394819D02*
X136584285Y-138394819D01*
X136584285Y-138394819D02*
X136584285Y-137394819D01*
X136108094Y-138394819D02*
X136108094Y-137394819D01*
X136108094Y-137394819D02*
X135869999Y-137394819D01*
X135869999Y-137394819D02*
X135727142Y-137442438D01*
X135727142Y-137442438D02*
X135631904Y-137537676D01*
X135631904Y-137537676D02*
X135584285Y-137632914D01*
X135584285Y-137632914D02*
X135536666Y-137823390D01*
X135536666Y-137823390D02*
X135536666Y-137966247D01*
X135536666Y-137966247D02*
X135584285Y-138156723D01*
X135584285Y-138156723D02*
X135631904Y-138251961D01*
X135631904Y-138251961D02*
X135727142Y-138347200D01*
X135727142Y-138347200D02*
X135869999Y-138394819D01*
X135869999Y-138394819D02*
X136108094Y-138394819D01*
X133343808Y-137304819D02*
X132772380Y-137304819D01*
X133058094Y-138304819D02*
X133058094Y-137304819D01*
X131867618Y-138304819D02*
X132200951Y-137828628D01*
X132439046Y-138304819D02*
X132439046Y-137304819D01*
X132439046Y-137304819D02*
X132058094Y-137304819D01*
X132058094Y-137304819D02*
X131962856Y-137352438D01*
X131962856Y-137352438D02*
X131915237Y-137400057D01*
X131915237Y-137400057D02*
X131867618Y-137495295D01*
X131867618Y-137495295D02*
X131867618Y-137638152D01*
X131867618Y-137638152D02*
X131915237Y-137733390D01*
X131915237Y-137733390D02*
X131962856Y-137781009D01*
X131962856Y-137781009D02*
X132058094Y-137828628D01*
X132058094Y-137828628D02*
X132439046Y-137828628D01*
X131439046Y-138304819D02*
X131439046Y-137304819D01*
X130439047Y-137352438D02*
X130534285Y-137304819D01*
X130534285Y-137304819D02*
X130677142Y-137304819D01*
X130677142Y-137304819D02*
X130819999Y-137352438D01*
X130819999Y-137352438D02*
X130915237Y-137447676D01*
X130915237Y-137447676D02*
X130962856Y-137542914D01*
X130962856Y-137542914D02*
X131010475Y-137733390D01*
X131010475Y-137733390D02*
X131010475Y-137876247D01*
X131010475Y-137876247D02*
X130962856Y-138066723D01*
X130962856Y-138066723D02*
X130915237Y-138161961D01*
X130915237Y-138161961D02*
X130819999Y-138257200D01*
X130819999Y-138257200D02*
X130677142Y-138304819D01*
X130677142Y-138304819D02*
X130581904Y-138304819D01*
X130581904Y-138304819D02*
X130439047Y-138257200D01*
X130439047Y-138257200D02*
X130391428Y-138209580D01*
X130391428Y-138209580D02*
X130391428Y-137876247D01*
X130391428Y-137876247D02*
X130581904Y-137876247D01*
X93030476Y-126369580D02*
X93078095Y-126417200D01*
X93078095Y-126417200D02*
X93220952Y-126464819D01*
X93220952Y-126464819D02*
X93316190Y-126464819D01*
X93316190Y-126464819D02*
X93459047Y-126417200D01*
X93459047Y-126417200D02*
X93554285Y-126321961D01*
X93554285Y-126321961D02*
X93601904Y-126226723D01*
X93601904Y-126226723D02*
X93649523Y-126036247D01*
X93649523Y-126036247D02*
X93649523Y-125893390D01*
X93649523Y-125893390D02*
X93601904Y-125702914D01*
X93601904Y-125702914D02*
X93554285Y-125607676D01*
X93554285Y-125607676D02*
X93459047Y-125512438D01*
X93459047Y-125512438D02*
X93316190Y-125464819D01*
X93316190Y-125464819D02*
X93220952Y-125464819D01*
X93220952Y-125464819D02*
X93078095Y-125512438D01*
X93078095Y-125512438D02*
X93030476Y-125560057D01*
X92601904Y-126464819D02*
X92601904Y-125464819D01*
X92030476Y-126464819D02*
X92459047Y-125893390D01*
X92030476Y-125464819D02*
X92601904Y-126036247D01*
X112147618Y-137781009D02*
X112004761Y-137828628D01*
X112004761Y-137828628D02*
X111957142Y-137876247D01*
X111957142Y-137876247D02*
X111909523Y-137971485D01*
X111909523Y-137971485D02*
X111909523Y-138114342D01*
X111909523Y-138114342D02*
X111957142Y-138209580D01*
X111957142Y-138209580D02*
X112004761Y-138257200D01*
X112004761Y-138257200D02*
X112099999Y-138304819D01*
X112099999Y-138304819D02*
X112480951Y-138304819D01*
X112480951Y-138304819D02*
X112480951Y-137304819D01*
X112480951Y-137304819D02*
X112147618Y-137304819D01*
X112147618Y-137304819D02*
X112052380Y-137352438D01*
X112052380Y-137352438D02*
X112004761Y-137400057D01*
X112004761Y-137400057D02*
X111957142Y-137495295D01*
X111957142Y-137495295D02*
X111957142Y-137590533D01*
X111957142Y-137590533D02*
X112004761Y-137685771D01*
X112004761Y-137685771D02*
X112052380Y-137733390D01*
X112052380Y-137733390D02*
X112147618Y-137781009D01*
X112147618Y-137781009D02*
X112480951Y-137781009D01*
X111480951Y-137923866D02*
X110719047Y-137923866D01*
X111099999Y-138304819D02*
X111099999Y-137542914D01*
X122651904Y-138702438D02*
X122747142Y-138654819D01*
X122747142Y-138654819D02*
X122889999Y-138654819D01*
X122889999Y-138654819D02*
X123032856Y-138702438D01*
X123032856Y-138702438D02*
X123128094Y-138797676D01*
X123128094Y-138797676D02*
X123175713Y-138892914D01*
X123175713Y-138892914D02*
X123223332Y-139083390D01*
X123223332Y-139083390D02*
X123223332Y-139226247D01*
X123223332Y-139226247D02*
X123175713Y-139416723D01*
X123175713Y-139416723D02*
X123128094Y-139511961D01*
X123128094Y-139511961D02*
X123032856Y-139607200D01*
X123032856Y-139607200D02*
X122889999Y-139654819D01*
X122889999Y-139654819D02*
X122794761Y-139654819D01*
X122794761Y-139654819D02*
X122651904Y-139607200D01*
X122651904Y-139607200D02*
X122604285Y-139559580D01*
X122604285Y-139559580D02*
X122604285Y-139226247D01*
X122604285Y-139226247D02*
X122794761Y-139226247D01*
X122175713Y-139654819D02*
X122175713Y-138654819D01*
X122175713Y-138654819D02*
X121604285Y-139654819D01*
X121604285Y-139654819D02*
X121604285Y-138654819D01*
X121128094Y-139654819D02*
X121128094Y-138654819D01*
X121128094Y-138654819D02*
X120889999Y-138654819D01*
X120889999Y-138654819D02*
X120747142Y-138702438D01*
X120747142Y-138702438D02*
X120651904Y-138797676D01*
X120651904Y-138797676D02*
X120604285Y-138892914D01*
X120604285Y-138892914D02*
X120556666Y-139083390D01*
X120556666Y-139083390D02*
X120556666Y-139226247D01*
X120556666Y-139226247D02*
X120604285Y-139416723D01*
X120604285Y-139416723D02*
X120651904Y-139511961D01*
X120651904Y-139511961D02*
X120747142Y-139607200D01*
X120747142Y-139607200D02*
X120889999Y-139654819D01*
X120889999Y-139654819D02*
X121128094Y-139654819D01*
X143205713Y-137923866D02*
X142443809Y-137923866D01*
X142824761Y-138304819D02*
X142824761Y-137542914D01*
X141491428Y-137304819D02*
X141967618Y-137304819D01*
X141967618Y-137304819D02*
X142015237Y-137781009D01*
X142015237Y-137781009D02*
X141967618Y-137733390D01*
X141967618Y-137733390D02*
X141872380Y-137685771D01*
X141872380Y-137685771D02*
X141634285Y-137685771D01*
X141634285Y-137685771D02*
X141539047Y-137733390D01*
X141539047Y-137733390D02*
X141491428Y-137781009D01*
X141491428Y-137781009D02*
X141443809Y-137876247D01*
X141443809Y-137876247D02*
X141443809Y-138114342D01*
X141443809Y-138114342D02*
X141491428Y-138209580D01*
X141491428Y-138209580D02*
X141539047Y-138257200D01*
X141539047Y-138257200D02*
X141634285Y-138304819D01*
X141634285Y-138304819D02*
X141872380Y-138304819D01*
X141872380Y-138304819D02*
X141967618Y-138257200D01*
X141967618Y-138257200D02*
X142015237Y-138209580D01*
X141158094Y-137304819D02*
X140824761Y-138304819D01*
X140824761Y-138304819D02*
X140491428Y-137304819D01*
D11*
X157566666Y-92559424D02*
X157614285Y-92607044D01*
X157614285Y-92607044D02*
X157757142Y-92654663D01*
X157757142Y-92654663D02*
X157852380Y-92654663D01*
X157852380Y-92654663D02*
X157995237Y-92607044D01*
X157995237Y-92607044D02*
X158090475Y-92511805D01*
X158090475Y-92511805D02*
X158138094Y-92416567D01*
X158138094Y-92416567D02*
X158185713Y-92226091D01*
X158185713Y-92226091D02*
X158185713Y-92083234D01*
X158185713Y-92083234D02*
X158138094Y-91892758D01*
X158138094Y-91892758D02*
X158090475Y-91797520D01*
X158090475Y-91797520D02*
X157995237Y-91702282D01*
X157995237Y-91702282D02*
X157852380Y-91654663D01*
X157852380Y-91654663D02*
X157757142Y-91654663D01*
X157757142Y-91654663D02*
X157614285Y-91702282D01*
X157614285Y-91702282D02*
X157566666Y-91749901D01*
X156614285Y-92654663D02*
X157185713Y-92654663D01*
X156899999Y-92654663D02*
X156899999Y-91654663D01*
X156899999Y-91654663D02*
X156995237Y-91797520D01*
X156995237Y-91797520D02*
X157090475Y-91892758D01*
X157090475Y-91892758D02*
X157185713Y-91940377D01*
X168061904Y-96454663D02*
X167490476Y-96454663D01*
X167776190Y-97454663D02*
X167776190Y-96454663D01*
X167157142Y-97454663D02*
X167157142Y-96454663D01*
X167157142Y-96454663D02*
X166776190Y-96454663D01*
X166776190Y-96454663D02*
X166680952Y-96502282D01*
X166680952Y-96502282D02*
X166633333Y-96549901D01*
X166633333Y-96549901D02*
X166585714Y-96645139D01*
X166585714Y-96645139D02*
X166585714Y-96787996D01*
X166585714Y-96787996D02*
X166633333Y-96883234D01*
X166633333Y-96883234D02*
X166680952Y-96930853D01*
X166680952Y-96930853D02*
X166776190Y-96978472D01*
X166776190Y-96978472D02*
X167157142Y-96978472D01*
X166204761Y-96549901D02*
X166157142Y-96502282D01*
X166157142Y-96502282D02*
X166061904Y-96454663D01*
X166061904Y-96454663D02*
X165823809Y-96454663D01*
X165823809Y-96454663D02*
X165728571Y-96502282D01*
X165728571Y-96502282D02*
X165680952Y-96549901D01*
X165680952Y-96549901D02*
X165633333Y-96645139D01*
X165633333Y-96645139D02*
X165633333Y-96740377D01*
X165633333Y-96740377D02*
X165680952Y-96883234D01*
X165680952Y-96883234D02*
X166252380Y-97454663D01*
X166252380Y-97454663D02*
X165633333Y-97454663D01*
X152361904Y-92774663D02*
X151790476Y-92774663D01*
X152076190Y-93774663D02*
X152076190Y-92774663D01*
X151457142Y-93774663D02*
X151457142Y-92774663D01*
X151457142Y-92774663D02*
X151076190Y-92774663D01*
X151076190Y-92774663D02*
X150980952Y-92822282D01*
X150980952Y-92822282D02*
X150933333Y-92869901D01*
X150933333Y-92869901D02*
X150885714Y-92965139D01*
X150885714Y-92965139D02*
X150885714Y-93107996D01*
X150885714Y-93107996D02*
X150933333Y-93203234D01*
X150933333Y-93203234D02*
X150980952Y-93250853D01*
X150980952Y-93250853D02*
X151076190Y-93298472D01*
X151076190Y-93298472D02*
X151457142Y-93298472D01*
X149933333Y-93774663D02*
X150504761Y-93774663D01*
X150219047Y-93774663D02*
X150219047Y-92774663D01*
X150219047Y-92774663D02*
X150314285Y-92917520D01*
X150314285Y-92917520D02*
X150409523Y-93012758D01*
X150409523Y-93012758D02*
X150504761Y-93060377D01*
X89463333Y-114084663D02*
X89463333Y-114798948D01*
X89463333Y-114798948D02*
X89510952Y-114941805D01*
X89510952Y-114941805D02*
X89606190Y-115037044D01*
X89606190Y-115037044D02*
X89749047Y-115084663D01*
X89749047Y-115084663D02*
X89844285Y-115084663D01*
X88510952Y-114084663D02*
X88987142Y-114084663D01*
X88987142Y-114084663D02*
X89034761Y-114560853D01*
X89034761Y-114560853D02*
X88987142Y-114513234D01*
X88987142Y-114513234D02*
X88891904Y-114465615D01*
X88891904Y-114465615D02*
X88653809Y-114465615D01*
X88653809Y-114465615D02*
X88558571Y-114513234D01*
X88558571Y-114513234D02*
X88510952Y-114560853D01*
X88510952Y-114560853D02*
X88463333Y-114656091D01*
X88463333Y-114656091D02*
X88463333Y-114894186D01*
X88463333Y-114894186D02*
X88510952Y-114989424D01*
X88510952Y-114989424D02*
X88558571Y-115037044D01*
X88558571Y-115037044D02*
X88653809Y-115084663D01*
X88653809Y-115084663D02*
X88891904Y-115084663D01*
X88891904Y-115084663D02*
X88987142Y-115037044D01*
X88987142Y-115037044D02*
X89034761Y-114989424D01*
X160850833Y-128854663D02*
X160850833Y-129568948D01*
X160850833Y-129568948D02*
X160898452Y-129711805D01*
X160898452Y-129711805D02*
X160993690Y-129807044D01*
X160993690Y-129807044D02*
X161136547Y-129854663D01*
X161136547Y-129854663D02*
X161231785Y-129854663D01*
X159850833Y-129854663D02*
X160422261Y-129854663D01*
X160136547Y-129854663D02*
X160136547Y-128854663D01*
X160136547Y-128854663D02*
X160231785Y-128997520D01*
X160231785Y-128997520D02*
X160327023Y-129092758D01*
X160327023Y-129092758D02*
X160422261Y-129140377D01*
X155456666Y-111649424D02*
X155504285Y-111697044D01*
X155504285Y-111697044D02*
X155647142Y-111744663D01*
X155647142Y-111744663D02*
X155742380Y-111744663D01*
X155742380Y-111744663D02*
X155885237Y-111697044D01*
X155885237Y-111697044D02*
X155980475Y-111601805D01*
X155980475Y-111601805D02*
X156028094Y-111506567D01*
X156028094Y-111506567D02*
X156075713Y-111316091D01*
X156075713Y-111316091D02*
X156075713Y-111173234D01*
X156075713Y-111173234D02*
X156028094Y-110982758D01*
X156028094Y-110982758D02*
X155980475Y-110887520D01*
X155980475Y-110887520D02*
X155885237Y-110792282D01*
X155885237Y-110792282D02*
X155742380Y-110744663D01*
X155742380Y-110744663D02*
X155647142Y-110744663D01*
X155647142Y-110744663D02*
X155504285Y-110792282D01*
X155504285Y-110792282D02*
X155456666Y-110839901D01*
X155075713Y-110839901D02*
X155028094Y-110792282D01*
X155028094Y-110792282D02*
X154932856Y-110744663D01*
X154932856Y-110744663D02*
X154694761Y-110744663D01*
X154694761Y-110744663D02*
X154599523Y-110792282D01*
X154599523Y-110792282D02*
X154551904Y-110839901D01*
X154551904Y-110839901D02*
X154504285Y-110935139D01*
X154504285Y-110935139D02*
X154504285Y-111030377D01*
X154504285Y-111030377D02*
X154551904Y-111173234D01*
X154551904Y-111173234D02*
X155123332Y-111744663D01*
X155123332Y-111744663D02*
X154504285Y-111744663D01*
X160661904Y-112284663D02*
X160661904Y-113094186D01*
X160661904Y-113094186D02*
X160614285Y-113189424D01*
X160614285Y-113189424D02*
X160566666Y-113237044D01*
X160566666Y-113237044D02*
X160471428Y-113284663D01*
X160471428Y-113284663D02*
X160280952Y-113284663D01*
X160280952Y-113284663D02*
X160185714Y-113237044D01*
X160185714Y-113237044D02*
X160138095Y-113189424D01*
X160138095Y-113189424D02*
X160090476Y-113094186D01*
X160090476Y-113094186D02*
X160090476Y-112284663D01*
X159709523Y-112284663D02*
X159090476Y-112284663D01*
X159090476Y-112284663D02*
X159423809Y-112665615D01*
X159423809Y-112665615D02*
X159280952Y-112665615D01*
X159280952Y-112665615D02*
X159185714Y-112713234D01*
X159185714Y-112713234D02*
X159138095Y-112760853D01*
X159138095Y-112760853D02*
X159090476Y-112856091D01*
X159090476Y-112856091D02*
X159090476Y-113094186D01*
X159090476Y-113094186D02*
X159138095Y-113189424D01*
X159138095Y-113189424D02*
X159185714Y-113237044D01*
X159185714Y-113237044D02*
X159280952Y-113284663D01*
X159280952Y-113284663D02*
X159566666Y-113284663D01*
X159566666Y-113284663D02*
X159661904Y-113237044D01*
X159661904Y-113237044D02*
X159709523Y-113189424D01*
X167026666Y-113249424D02*
X167074285Y-113297044D01*
X167074285Y-113297044D02*
X167217142Y-113344663D01*
X167217142Y-113344663D02*
X167312380Y-113344663D01*
X167312380Y-113344663D02*
X167455237Y-113297044D01*
X167455237Y-113297044D02*
X167550475Y-113201805D01*
X167550475Y-113201805D02*
X167598094Y-113106567D01*
X167598094Y-113106567D02*
X167645713Y-112916091D01*
X167645713Y-112916091D02*
X167645713Y-112773234D01*
X167645713Y-112773234D02*
X167598094Y-112582758D01*
X167598094Y-112582758D02*
X167550475Y-112487520D01*
X167550475Y-112487520D02*
X167455237Y-112392282D01*
X167455237Y-112392282D02*
X167312380Y-112344663D01*
X167312380Y-112344663D02*
X167217142Y-112344663D01*
X167217142Y-112344663D02*
X167074285Y-112392282D01*
X167074285Y-112392282D02*
X167026666Y-112439901D01*
X166121904Y-112344663D02*
X166598094Y-112344663D01*
X166598094Y-112344663D02*
X166645713Y-112820853D01*
X166645713Y-112820853D02*
X166598094Y-112773234D01*
X166598094Y-112773234D02*
X166502856Y-112725615D01*
X166502856Y-112725615D02*
X166264761Y-112725615D01*
X166264761Y-112725615D02*
X166169523Y-112773234D01*
X166169523Y-112773234D02*
X166121904Y-112820853D01*
X166121904Y-112820853D02*
X166074285Y-112916091D01*
X166074285Y-112916091D02*
X166074285Y-113154186D01*
X166074285Y-113154186D02*
X166121904Y-113249424D01*
X166121904Y-113249424D02*
X166169523Y-113297044D01*
X166169523Y-113297044D02*
X166264761Y-113344663D01*
X166264761Y-113344663D02*
X166502856Y-113344663D01*
X166502856Y-113344663D02*
X166598094Y-113297044D01*
X166598094Y-113297044D02*
X166645713Y-113249424D01*
X164201904Y-95844663D02*
X164201904Y-96654186D01*
X164201904Y-96654186D02*
X164154285Y-96749424D01*
X164154285Y-96749424D02*
X164106666Y-96797044D01*
X164106666Y-96797044D02*
X164011428Y-96844663D01*
X164011428Y-96844663D02*
X163820952Y-96844663D01*
X163820952Y-96844663D02*
X163725714Y-96797044D01*
X163725714Y-96797044D02*
X163678095Y-96749424D01*
X163678095Y-96749424D02*
X163630476Y-96654186D01*
X163630476Y-96654186D02*
X163630476Y-95844663D01*
X162630476Y-96844663D02*
X163201904Y-96844663D01*
X162916190Y-96844663D02*
X162916190Y-95844663D01*
X162916190Y-95844663D02*
X163011428Y-95987520D01*
X163011428Y-95987520D02*
X163106666Y-96082758D01*
X163106666Y-96082758D02*
X163201904Y-96130377D01*
X88833333Y-100084663D02*
X88833333Y-100798948D01*
X88833333Y-100798948D02*
X88880952Y-100941805D01*
X88880952Y-100941805D02*
X88976190Y-101037044D01*
X88976190Y-101037044D02*
X89119047Y-101084663D01*
X89119047Y-101084663D02*
X89214285Y-101084663D01*
X88452380Y-100084663D02*
X87785714Y-100084663D01*
X87785714Y-100084663D02*
X88214285Y-101084663D01*
X148236666Y-98189424D02*
X148284285Y-98237044D01*
X148284285Y-98237044D02*
X148427142Y-98284663D01*
X148427142Y-98284663D02*
X148522380Y-98284663D01*
X148522380Y-98284663D02*
X148665237Y-98237044D01*
X148665237Y-98237044D02*
X148760475Y-98141805D01*
X148760475Y-98141805D02*
X148808094Y-98046567D01*
X148808094Y-98046567D02*
X148855713Y-97856091D01*
X148855713Y-97856091D02*
X148855713Y-97713234D01*
X148855713Y-97713234D02*
X148808094Y-97522758D01*
X148808094Y-97522758D02*
X148760475Y-97427520D01*
X148760475Y-97427520D02*
X148665237Y-97332282D01*
X148665237Y-97332282D02*
X148522380Y-97284663D01*
X148522380Y-97284663D02*
X148427142Y-97284663D01*
X148427142Y-97284663D02*
X148284285Y-97332282D01*
X148284285Y-97332282D02*
X148236666Y-97379901D01*
X147760475Y-98284663D02*
X147569999Y-98284663D01*
X147569999Y-98284663D02*
X147474761Y-98237044D01*
X147474761Y-98237044D02*
X147427142Y-98189424D01*
X147427142Y-98189424D02*
X147331904Y-98046567D01*
X147331904Y-98046567D02*
X147284285Y-97856091D01*
X147284285Y-97856091D02*
X147284285Y-97475139D01*
X147284285Y-97475139D02*
X147331904Y-97379901D01*
X147331904Y-97379901D02*
X147379523Y-97332282D01*
X147379523Y-97332282D02*
X147474761Y-97284663D01*
X147474761Y-97284663D02*
X147665237Y-97284663D01*
X147665237Y-97284663D02*
X147760475Y-97332282D01*
X147760475Y-97332282D02*
X147808094Y-97379901D01*
X147808094Y-97379901D02*
X147855713Y-97475139D01*
X147855713Y-97475139D02*
X147855713Y-97713234D01*
X147855713Y-97713234D02*
X147808094Y-97808472D01*
X147808094Y-97808472D02*
X147760475Y-97856091D01*
X147760475Y-97856091D02*
X147665237Y-97903710D01*
X147665237Y-97903710D02*
X147474761Y-97903710D01*
X147474761Y-97903710D02*
X147379523Y-97856091D01*
X147379523Y-97856091D02*
X147331904Y-97808472D01*
X147331904Y-97808472D02*
X147284285Y-97713234D01*
X154353333Y-120320853D02*
X154686666Y-120320853D01*
X154686666Y-120844663D02*
X154686666Y-119844663D01*
X154686666Y-119844663D02*
X154210476Y-119844663D01*
X153305714Y-120844663D02*
X153877142Y-120844663D01*
X153591428Y-120844663D02*
X153591428Y-119844663D01*
X153591428Y-119844663D02*
X153686666Y-119987520D01*
X153686666Y-119987520D02*
X153781904Y-120082758D01*
X153781904Y-120082758D02*
X153877142Y-120130377D01*
D12*
X109763333Y-96519299D02*
X109763333Y-97233584D01*
X109763333Y-97233584D02*
X109810952Y-97376441D01*
X109810952Y-97376441D02*
X109906190Y-97471680D01*
X109906190Y-97471680D02*
X110049047Y-97519299D01*
X110049047Y-97519299D02*
X110144285Y-97519299D01*
X108858571Y-96519299D02*
X109049047Y-96519299D01*
X109049047Y-96519299D02*
X109144285Y-96566918D01*
X109144285Y-96566918D02*
X109191904Y-96614537D01*
X109191904Y-96614537D02*
X109287142Y-96757394D01*
X109287142Y-96757394D02*
X109334761Y-96947870D01*
X109334761Y-96947870D02*
X109334761Y-97328822D01*
X109334761Y-97328822D02*
X109287142Y-97424060D01*
X109287142Y-97424060D02*
X109239523Y-97471680D01*
X109239523Y-97471680D02*
X109144285Y-97519299D01*
X109144285Y-97519299D02*
X108953809Y-97519299D01*
X108953809Y-97519299D02*
X108858571Y-97471680D01*
X108858571Y-97471680D02*
X108810952Y-97424060D01*
X108810952Y-97424060D02*
X108763333Y-97328822D01*
X108763333Y-97328822D02*
X108763333Y-97090727D01*
X108763333Y-97090727D02*
X108810952Y-96995489D01*
X108810952Y-96995489D02*
X108858571Y-96947870D01*
X108858571Y-96947870D02*
X108953809Y-96900251D01*
X108953809Y-96900251D02*
X109144285Y-96900251D01*
X109144285Y-96900251D02*
X109239523Y-96947870D01*
X109239523Y-96947870D02*
X109287142Y-96995489D01*
X109287142Y-96995489D02*
X109334761Y-97090727D01*
D10*
%TO.C,C1*%
X160320000Y-95770000D02*
X160320000Y-93030000D01*
X155080000Y-95770000D02*
X160320000Y-95770000D01*
X155080000Y-95770000D02*
X155080000Y-93030000D01*
X155080000Y-93030000D02*
X160320000Y-93030000D01*
%TO.C,TP2*%
X166361288Y-98540000D02*
G75*
G02*
X164418712Y-98540000I-971288J0D01*
G01*
X164418712Y-98540000D02*
G75*
G02*
X166361288Y-98540000I971288J0D01*
G01*
%TO.C,TP1*%
X153800000Y-94700000D02*
G75*
G02*
X151800000Y-94700000I-1000000J0D01*
G01*
X151800000Y-94700000D02*
G75*
G02*
X153800000Y-94700000I1000000J0D01*
G01*
%TO.C,J5*%
X88785000Y-115785000D02*
X91385000Y-115785000D01*
X88785000Y-123525000D02*
X88785000Y-115785000D01*
X88785000Y-123525000D02*
X93985000Y-123525000D01*
X91385000Y-115785000D02*
X91385000Y-118385000D01*
X91385000Y-118385000D02*
X93985000Y-118385000D01*
X92655000Y-115785000D02*
X93985000Y-115785000D01*
X93985000Y-115785000D02*
X93985000Y-117115000D01*
X93985000Y-123525000D02*
X93985000Y-118385000D01*
%TO.C,J1*%
X159280000Y-122530000D02*
X159280000Y-123530000D01*
X159280000Y-123530000D02*
X159780000Y-123030000D01*
X159780000Y-123030000D02*
X159280000Y-122530000D01*
X160000000Y-115620000D02*
X160000000Y-127940000D01*
X160000000Y-127940000D02*
X164260000Y-127940000D01*
X164260000Y-115620000D02*
X160000000Y-115620000D01*
X168360000Y-115620000D02*
X176720000Y-115620000D01*
X176720000Y-115620000D02*
X176720000Y-127940000D01*
X176720000Y-127940000D02*
X168360000Y-127940000D01*
%TO.C,C2*%
X154480000Y-107720000D02*
X159720000Y-107720000D01*
X154480000Y-110460000D02*
X154480000Y-107720000D01*
X154480000Y-110460000D02*
X159720000Y-110460000D01*
X159720000Y-110460000D02*
X159720000Y-107720000D01*
%TO.C,U3*%
X160990000Y-109800000D02*
X160990000Y-111600000D01*
X164210000Y-109800000D02*
X164210000Y-110600000D01*
X164210000Y-111400000D02*
X164210000Y-110600000D01*
X164490000Y-112140000D02*
X164160000Y-111900000D01*
X164490000Y-111660000D01*
X164490000Y-112140000D01*
G36*
X164490000Y-112140000D02*
G01*
X164160000Y-111900000D01*
X164490000Y-111660000D01*
X164490000Y-112140000D01*
G37*
%TO.C,C5*%
X165390000Y-112090000D02*
X165390000Y-106850000D01*
X168130000Y-106850000D02*
X165390000Y-106850000D01*
X168130000Y-112090000D02*
X165390000Y-112090000D01*
X168130000Y-112090000D02*
X168130000Y-106850000D01*
%TO.C,U1*%
X153377000Y-104645000D02*
X153377000Y-98895000D01*
X153952000Y-98895000D02*
X153377000Y-98895000D01*
X153952000Y-104645000D02*
X153377000Y-104645000D01*
X164027000Y-98895000D02*
X163452000Y-98895000D01*
X164027000Y-104645000D02*
X163452000Y-104645000D01*
X164027000Y-104645000D02*
X164027000Y-98895000D01*
X153952000Y-98395000D02*
X153622000Y-98635000D01*
X153622000Y-98155000D01*
X153952000Y-98395000D01*
G36*
X153952000Y-98395000D02*
G01*
X153622000Y-98635000D01*
X153622000Y-98155000D01*
X153952000Y-98395000D01*
G37*
%TO.C,J7*%
X90070000Y-100530000D02*
X91400000Y-100530000D01*
X90070000Y-101860000D02*
X90070000Y-100530000D01*
X90070000Y-103130000D02*
X92730000Y-103130000D01*
X90070000Y-113350000D02*
X90070000Y-103130000D01*
X90070000Y-113350000D02*
X92730000Y-113350000D01*
X92730000Y-113350000D02*
X92730000Y-103130000D01*
%TO.C,C9*%
X147519000Y-101804000D02*
X147519000Y-101236000D01*
X147559000Y-102038000D02*
X147559000Y-101002000D01*
X147599000Y-102197000D02*
X147599000Y-100843000D01*
X147639000Y-102325000D02*
X147639000Y-100715000D01*
X147679000Y-102435000D02*
X147679000Y-100605000D01*
X147719000Y-102531000D02*
X147719000Y-100509000D01*
X147759000Y-102618000D02*
X147759000Y-100422000D01*
X147799000Y-102698000D02*
X147799000Y-100342000D01*
X147839000Y-102771000D02*
X147839000Y-100269000D01*
X147879000Y-102839000D02*
X147879000Y-100201000D01*
X147919000Y-102903000D02*
X147919000Y-100137000D01*
X147959000Y-102963000D02*
X147959000Y-100077000D01*
X147999000Y-103020000D02*
X147999000Y-100020000D01*
X148039000Y-103074000D02*
X148039000Y-99966000D01*
X148079000Y-103125000D02*
X148079000Y-99915000D01*
X148119000Y-100480000D02*
X148119000Y-99867000D01*
X148119000Y-103173000D02*
X148119000Y-102560000D01*
X148159000Y-100480000D02*
X148159000Y-99821000D01*
X148159000Y-103219000D02*
X148159000Y-102560000D01*
X148199000Y-100480000D02*
X148199000Y-99777000D01*
X148199000Y-103263000D02*
X148199000Y-102560000D01*
X148239000Y-100480000D02*
X148239000Y-99735000D01*
X148239000Y-103305000D02*
X148239000Y-102560000D01*
X148279000Y-100480000D02*
X148279000Y-99694000D01*
X148279000Y-103346000D02*
X148279000Y-102560000D01*
X148319000Y-100480000D02*
X148319000Y-99656000D01*
X148319000Y-103384000D02*
X148319000Y-102560000D01*
X148359000Y-100480000D02*
X148359000Y-99619000D01*
X148359000Y-103421000D02*
X148359000Y-102560000D01*
X148399000Y-100480000D02*
X148399000Y-99583000D01*
X148399000Y-103457000D02*
X148399000Y-102560000D01*
X148439000Y-100480000D02*
X148439000Y-99549000D01*
X148439000Y-103491000D02*
X148439000Y-102560000D01*
X148479000Y-100480000D02*
X148479000Y-99516000D01*
X148479000Y-103524000D02*
X148479000Y-102560000D01*
X148519000Y-100480000D02*
X148519000Y-99485000D01*
X148519000Y-103555000D02*
X148519000Y-102560000D01*
X148559000Y-100480000D02*
X148559000Y-99455000D01*
X148559000Y-103585000D02*
X148559000Y-102560000D01*
X148599000Y-100480000D02*
X148599000Y-99425000D01*
X148599000Y-103615000D02*
X148599000Y-102560000D01*
X148639000Y-100480000D02*
X148639000Y-99398000D01*
X148639000Y-103642000D02*
X148639000Y-102560000D01*
X148679000Y-100480000D02*
X148679000Y-99371000D01*
X148679000Y-103669000D02*
X148679000Y-102560000D01*
X148719000Y-100480000D02*
X148719000Y-99345000D01*
X148719000Y-103695000D02*
X148719000Y-102560000D01*
X148759000Y-100480000D02*
X148759000Y-99320000D01*
X148759000Y-103720000D02*
X148759000Y-102560000D01*
X148799000Y-100480000D02*
X148799000Y-99296000D01*
X148799000Y-103744000D02*
X148799000Y-102560000D01*
X148839000Y-100480000D02*
X148839000Y-99273000D01*
X148839000Y-103767000D02*
X148839000Y-102560000D01*
X148879000Y-100480000D02*
X148879000Y-99252000D01*
X148879000Y-103788000D02*
X148879000Y-102560000D01*
X148919000Y-100480000D02*
X148919000Y-99230000D01*
X148919000Y-103810000D02*
X148919000Y-102560000D01*
X148959000Y-100480000D02*
X148959000Y-99210000D01*
X148959000Y-103830000D02*
X148959000Y-102560000D01*
X148999000Y-100480000D02*
X148999000Y-99191000D01*
X148999000Y-103849000D02*
X148999000Y-102560000D01*
X149039000Y-100480000D02*
X149039000Y-99172000D01*
X149039000Y-103868000D02*
X149039000Y-102560000D01*
X149079000Y-100480000D02*
X149079000Y-99155000D01*
X149079000Y-103885000D02*
X149079000Y-102560000D01*
X149119000Y-100480000D02*
X149119000Y-99138000D01*
X149119000Y-103902000D02*
X149119000Y-102560000D01*
X149159000Y-100480000D02*
X149159000Y-99122000D01*
X149159000Y-103918000D02*
X149159000Y-102560000D01*
X149199000Y-100480000D02*
X149199000Y-99106000D01*
X149199000Y-103934000D02*
X149199000Y-102560000D01*
X149239000Y-100480000D02*
X149239000Y-99092000D01*
X149239000Y-103948000D02*
X149239000Y-102560000D01*
X149279000Y-100480000D02*
X149279000Y-99078000D01*
X149279000Y-103962000D02*
X149279000Y-102560000D01*
X149319000Y-100480000D02*
X149319000Y-99065000D01*
X149319000Y-103975000D02*
X149319000Y-102560000D01*
X149359000Y-100480000D02*
X149359000Y-99052000D01*
X149359000Y-103988000D02*
X149359000Y-102560000D01*
X149399000Y-100480000D02*
X149399000Y-99040000D01*
X149399000Y-104000000D02*
X149399000Y-102560000D01*
X149440000Y-100480000D02*
X149440000Y-99029000D01*
X149440000Y-104011000D02*
X149440000Y-102560000D01*
X149480000Y-100480000D02*
X149480000Y-99019000D01*
X149480000Y-104021000D02*
X149480000Y-102560000D01*
X149520000Y-100480000D02*
X149520000Y-99009000D01*
X149520000Y-104031000D02*
X149520000Y-102560000D01*
X149560000Y-100480000D02*
X149560000Y-99000000D01*
X149560000Y-104040000D02*
X149560000Y-102560000D01*
X149600000Y-100480000D02*
X149600000Y-98992000D01*
X149600000Y-104048000D02*
X149600000Y-102560000D01*
X149640000Y-100480000D02*
X149640000Y-98984000D01*
X149640000Y-104056000D02*
X149640000Y-102560000D01*
X149680000Y-100480000D02*
X149680000Y-98977000D01*
X149680000Y-104063000D02*
X149680000Y-102560000D01*
X149720000Y-100480000D02*
X149720000Y-98970000D01*
X149720000Y-104070000D02*
X149720000Y-102560000D01*
X149760000Y-100480000D02*
X149760000Y-98964000D01*
X149760000Y-104076000D02*
X149760000Y-102560000D01*
X149800000Y-100480000D02*
X149800000Y-98959000D01*
X149800000Y-104081000D02*
X149800000Y-102560000D01*
X149840000Y-100480000D02*
X149840000Y-98955000D01*
X149840000Y-104085000D02*
X149840000Y-102560000D01*
X149880000Y-100480000D02*
X149880000Y-98951000D01*
X149880000Y-104089000D02*
X149880000Y-102560000D01*
X149920000Y-100480000D02*
X149920000Y-98947000D01*
X149920000Y-104093000D02*
X149920000Y-102560000D01*
X149960000Y-100480000D02*
X149960000Y-98944000D01*
X149960000Y-104096000D02*
X149960000Y-102560000D01*
X150000000Y-100480000D02*
X150000000Y-98942000D01*
X150000000Y-104098000D02*
X150000000Y-102560000D01*
X150040000Y-100480000D02*
X150040000Y-98941000D01*
X150040000Y-104099000D02*
X150040000Y-102560000D01*
X150080000Y-100480000D02*
X150080000Y-98940000D01*
X150080000Y-104100000D02*
X150080000Y-102560000D01*
X150120000Y-100480000D02*
X150120000Y-98940000D01*
X150120000Y-104100000D02*
X150120000Y-102560000D01*
X152424775Y-100045000D02*
X152924775Y-100045000D01*
X152674775Y-100295000D02*
X152674775Y-99795000D01*
X152740000Y-101520000D02*
G75*
G02*
X147500000Y-101520000I-2620000J0D01*
G01*
X147500000Y-101520000D02*
G75*
G02*
X152740000Y-101520000I2620000J0D01*
G01*
%TO.C,F1*%
X155290000Y-122186252D02*
X155290000Y-119413748D01*
X158710000Y-122186252D02*
X158710000Y-119413748D01*
%TO.C,J6*%
X110870000Y-98395000D02*
X110870000Y-97065000D01*
X112200000Y-98395000D02*
X110870000Y-98395000D01*
X113470000Y-98395000D02*
X113470000Y-95735000D01*
X121150000Y-95735000D02*
X113470000Y-95735000D01*
X121150000Y-98395000D02*
X113470000Y-98395000D01*
X121150000Y-98395000D02*
X121150000Y-95735000D01*
%TD*%
M02*
