%TF.GenerationSoftware,KiCad,Pcbnew,5.1.8*%
%TF.CreationDate,2020-11-14T17:55:41+01:00*%
%TF.ProjectId,livello_serbatoio_definitiva,6c697665-6c6c-46f5-9f73-65726261746f,rev?*%
%TF.SameCoordinates,Original*%
%TF.FileFunction,Soldermask,Top*%
%TF.FilePolarity,Negative*%
%FSLAX46Y46*%
G04 Gerber Fmt 4.6, Leading zero omitted, Abs format (unit mm)*
G04 Created by KiCad (PCBNEW 5.1.8) date 2020-11-14 17:55:41*
%MOMM*%
%LPD*%
G01*
G04 APERTURE LIST*
%ADD10O,2.200000X2.200000*%
%ADD11R,2.200000X2.200000*%
%ADD12C,1.600000*%
%ADD13C,2.100000*%
%ADD14R,2.100000X2.100000*%
%ADD15C,2.000000*%
%ADD16R,1.700000X1.700000*%
%ADD17C,1.700000*%
%ADD18C,3.500000*%
%ADD19C,1.000000*%
%ADD20O,1.600000X1.600000*%
%ADD21R,1.600000X1.600000*%
%ADD22C,0.800000*%
%ADD23C,6.000000*%
%ADD24O,1.700000X1.700000*%
%ADD25C,1.800000*%
%ADD26R,1.800000X1.800000*%
G04 APERTURE END LIST*
D10*
%TO.C,D3*%
X96540000Y-128880000D03*
D11*
X104160000Y-128880000D03*
%TD*%
D12*
%TO.C,C5*%
X155540000Y-78420000D03*
X158040000Y-78420000D03*
%TD*%
D13*
%TO.C,J2*%
X157450000Y-135350000D03*
X152450000Y-135350000D03*
X147450000Y-135350000D03*
D14*
X142450000Y-135350000D03*
%TD*%
D13*
%TO.C,J4*%
X165325000Y-100700000D03*
X165325000Y-105700000D03*
X165325000Y-110700000D03*
D14*
X165325000Y-115700000D03*
%TD*%
D15*
%TO.C,RV1*%
X109950000Y-74450000D03*
X99950000Y-76950000D03*
X99950000Y-71950000D03*
%TD*%
D16*
%TO.C,J1*%
X161050000Y-89500000D03*
D17*
X161050000Y-87000000D03*
X163050000Y-87000000D03*
X163050000Y-89500000D03*
D18*
X165760000Y-94270000D03*
X165760000Y-82230000D03*
%TD*%
D19*
%TO.C,Y1*%
X131900000Y-134770000D03*
X127020000Y-134770000D03*
%TD*%
D20*
%TO.C,U2*%
X108000000Y-118780000D03*
X141020000Y-126400000D03*
X110540000Y-118780000D03*
X138480000Y-126400000D03*
X113080000Y-118780000D03*
X135940000Y-126400000D03*
X115620000Y-118780000D03*
X133400000Y-126400000D03*
X118160000Y-118780000D03*
X130860000Y-126400000D03*
X120700000Y-118780000D03*
X128320000Y-126400000D03*
X123240000Y-118780000D03*
X125780000Y-126400000D03*
X125780000Y-118780000D03*
X123240000Y-126400000D03*
X128320000Y-118780000D03*
X120700000Y-126400000D03*
X130860000Y-118780000D03*
X118160000Y-126400000D03*
X133400000Y-118780000D03*
X115620000Y-126400000D03*
X135940000Y-118780000D03*
X113080000Y-126400000D03*
X138480000Y-118780000D03*
X110540000Y-126400000D03*
X141020000Y-118780000D03*
D21*
X108000000Y-126400000D03*
%TD*%
D22*
%TO.C,H4*%
X94590990Y-132409010D03*
X93000000Y-131750000D03*
X91409010Y-132409010D03*
X90750000Y-134000000D03*
X91409010Y-135590990D03*
X93000000Y-136250000D03*
X94590990Y-135590990D03*
X95250000Y-134000000D03*
D23*
X93000000Y-134000000D03*
%TD*%
D24*
%TO.C,J3*%
X135100000Y-82000000D03*
X132560000Y-82000000D03*
X130020000Y-82000000D03*
X127480000Y-82000000D03*
X124940000Y-82000000D03*
X122400000Y-82000000D03*
X119860000Y-82000000D03*
X117320000Y-82000000D03*
X114780000Y-82000000D03*
X112240000Y-82000000D03*
X109700000Y-82000000D03*
X107160000Y-82000000D03*
X104620000Y-82000000D03*
X102080000Y-82000000D03*
X99540000Y-82000000D03*
D16*
X97000000Y-82000000D03*
%TD*%
D22*
%TO.C,H1*%
X94590990Y-72409010D03*
X93000000Y-71750000D03*
X91409010Y-72409010D03*
X90750000Y-74000000D03*
X91409010Y-75590990D03*
X93000000Y-76250000D03*
X94590990Y-75590990D03*
X95250000Y-74000000D03*
D23*
X93000000Y-74000000D03*
%TD*%
D22*
%TO.C,H2*%
X165590990Y-72409010D03*
X164000000Y-71750000D03*
X162409010Y-72409010D03*
X161750000Y-74000000D03*
X162409010Y-75590990D03*
X164000000Y-76250000D03*
X165590990Y-75590990D03*
X166250000Y-74000000D03*
D23*
X164000000Y-74000000D03*
%TD*%
D22*
%TO.C,H3*%
X165590990Y-132409010D03*
X164000000Y-131750000D03*
X162409010Y-132409010D03*
X161750000Y-134000000D03*
X162409010Y-135590990D03*
X164000000Y-136250000D03*
X165590990Y-135590990D03*
X166250000Y-134000000D03*
D23*
X164000000Y-134000000D03*
%TD*%
%TO.C,FB1*%
G36*
G01*
X157300001Y-92565000D02*
X154399999Y-92565000D01*
G75*
G02*
X154150000Y-92315001I0J249999D01*
G01*
X154150000Y-91514999D01*
G75*
G02*
X154399999Y-91265000I249999J0D01*
G01*
X157300001Y-91265000D01*
G75*
G02*
X157550000Y-91514999I0J-249999D01*
G01*
X157550000Y-92315001D01*
G75*
G02*
X157300001Y-92565000I-249999J0D01*
G01*
G37*
G36*
G01*
X157300001Y-97015000D02*
X154399999Y-97015000D01*
G75*
G02*
X154150000Y-96765001I0J249999D01*
G01*
X154150000Y-95964999D01*
G75*
G02*
X154399999Y-95715000I249999J0D01*
G01*
X157300001Y-95715000D01*
G75*
G02*
X157550000Y-95964999I0J-249999D01*
G01*
X157550000Y-96765001D01*
G75*
G02*
X157300001Y-97015000I-249999J0D01*
G01*
G37*
%TD*%
D24*
%TO.C,J5*%
X122615000Y-103220000D03*
X120075000Y-103220000D03*
X122615000Y-105760000D03*
X120075000Y-105760000D03*
X122615000Y-108300000D03*
D16*
X120075000Y-108300000D03*
%TD*%
D12*
%TO.C,C1*%
X156170000Y-87970000D03*
X156170000Y-85470000D03*
%TD*%
%TO.C,C2*%
X152700000Y-85480000D03*
X152700000Y-87980000D03*
%TD*%
%TO.C,C3*%
X125750000Y-116000000D03*
X123250000Y-116000000D03*
%TD*%
%TO.C,C4*%
X93600000Y-126150000D03*
X93600000Y-128650000D03*
%TD*%
%TO.C,C6*%
X131300000Y-116000000D03*
X128800000Y-116000000D03*
%TD*%
%TO.C,C7*%
X121800000Y-133800000D03*
X121800000Y-136300000D03*
%TD*%
%TO.C,C8*%
X137150000Y-136300000D03*
X137150000Y-133800000D03*
%TD*%
D25*
%TO.C,D1*%
X137740000Y-73400000D03*
D26*
X135200000Y-73400000D03*
%TD*%
%TO.C,D2*%
X141900000Y-73400000D03*
D25*
X144440000Y-73400000D03*
%TD*%
D26*
%TO.C,D4*%
X148600000Y-73400000D03*
D25*
X151140000Y-73400000D03*
%TD*%
D12*
%TO.C,R1*%
X110575000Y-94400000D03*
D20*
X123275000Y-94400000D03*
%TD*%
%TO.C,R2*%
X123225000Y-90350000D03*
D12*
X110525000Y-90350000D03*
%TD*%
%TO.C,R3*%
X130035000Y-99765000D03*
D20*
X130035000Y-87065000D03*
%TD*%
%TO.C,R4*%
X134035000Y-87065000D03*
D12*
X134035000Y-99765000D03*
%TD*%
%TO.C,R5*%
X93050000Y-121000000D03*
D20*
X93050000Y-108300000D03*
%TD*%
D12*
%TO.C,R6*%
X111300000Y-133700000D03*
D20*
X98600000Y-133700000D03*
%TD*%
%TO.C,R7*%
X135800000Y-129750000D03*
D12*
X123100000Y-129750000D03*
%TD*%
%TO.C,R8*%
X152350000Y-124075000D03*
D20*
X165050000Y-124075000D03*
%TD*%
%TO.C,R9*%
X138035000Y-99765000D03*
D12*
X138035000Y-87065000D03*
%TD*%
D20*
%TO.C,R11*%
X165050000Y-128075000D03*
D12*
X152350000Y-128075000D03*
%TD*%
D15*
%TO.C,SW1*%
X97050000Y-125500000D03*
X97050000Y-121000000D03*
X103550000Y-125500000D03*
X103550000Y-121000000D03*
%TD*%
M02*
