%TF.GenerationSoftware,KiCad,Pcbnew,5.1.6*%
%TF.CreationDate,2020-08-22T14:38:23+02:00*%
%TF.ProjectId,livello_serbatoio_definitiva,6c697665-6c6c-46f5-9f73-65726261746f,rev?*%
%TF.SameCoordinates,Original*%
%TF.FileFunction,Soldermask,Bot*%
%TF.FilePolarity,Negative*%
%FSLAX46Y46*%
G04 Gerber Fmt 4.6, Leading zero omitted, Abs format (unit mm)*
G04 Created by KiCad (PCBNEW 5.1.6) date 2020-08-22 14:38:23*
%MOMM*%
%LPD*%
G01*
G04 APERTURE LIST*
%ADD10R,1.700000X1.700000*%
%ADD11O,1.700000X1.700000*%
%ADD12R,1.800000X1.800000*%
%ADD13C,1.800000*%
%ADD14C,3.600000*%
%ADD15C,6.100000*%
%ADD16C,0.900000*%
%ADD17C,1.100000*%
%ADD18C,2.100000*%
%ADD19C,1.700000*%
%ADD20C,1.900000*%
%ADD21R,1.900000X1.900000*%
%ADD22O,1.900000X1.300000*%
%ADD23C,1.540000*%
%ADD24O,1.800000X1.800000*%
G04 APERTURE END LIST*
D10*
%TO.C,U2*%
X111300000Y-126400000D03*
D11*
X144320000Y-118780000D03*
X113840000Y-126400000D03*
X141780000Y-118780000D03*
X116380000Y-126400000D03*
X139240000Y-118780000D03*
X118920000Y-126400000D03*
X136700000Y-118780000D03*
X121460000Y-126400000D03*
X134160000Y-118780000D03*
X124000000Y-126400000D03*
X131620000Y-118780000D03*
X126540000Y-126400000D03*
X129080000Y-118780000D03*
X129080000Y-126400000D03*
X126540000Y-118780000D03*
X131620000Y-126400000D03*
X124000000Y-118780000D03*
X134160000Y-126400000D03*
X121460000Y-118780000D03*
X136700000Y-126400000D03*
X118920000Y-118780000D03*
X139240000Y-126400000D03*
X116380000Y-118780000D03*
X141780000Y-126400000D03*
X113840000Y-118780000D03*
X144320000Y-126400000D03*
X111300000Y-118780000D03*
%TD*%
D12*
%TO.C,J1*%
X153500000Y-89500000D03*
D13*
X153500000Y-87000000D03*
X155500000Y-87000000D03*
X155500000Y-89500000D03*
D14*
X158210000Y-94270000D03*
X158210000Y-82230000D03*
%TD*%
D15*
%TO.C,H4*%
X93000000Y-134000000D03*
D16*
X95250000Y-134000000D03*
X94590990Y-135590990D03*
X93000000Y-136250000D03*
X91409010Y-135590990D03*
X90750000Y-134000000D03*
X91409010Y-132409010D03*
X93000000Y-131750000D03*
X94590990Y-132409010D03*
%TD*%
D17*
%TO.C,Y1*%
X135290000Y-135050000D03*
X130410000Y-135050000D03*
%TD*%
D18*
%TO.C,F1*%
X153400000Y-103500000D03*
X164800000Y-103500000D03*
%TD*%
D19*
%TO.C,C3*%
X117700000Y-107000000D03*
D11*
X117700000Y-99500000D03*
%TD*%
D19*
%TO.C,C2*%
X143300000Y-105900000D03*
D11*
X143300000Y-113400000D03*
%TD*%
%TO.C,C1*%
X155000000Y-98500000D03*
D19*
X162500000Y-98500000D03*
%TD*%
D11*
%TO.C,C4*%
X93400000Y-119900000D03*
D19*
X93400000Y-127400000D03*
%TD*%
D11*
%TO.C,C6*%
X122900000Y-99500000D03*
D19*
X122900000Y-107000000D03*
%TD*%
%TO.C,C7*%
X125200000Y-138100000D03*
D11*
X125200000Y-130600000D03*
%TD*%
%TO.C,C8*%
X140400000Y-130600000D03*
D19*
X140400000Y-138100000D03*
%TD*%
D20*
%TO.C,D1*%
X137640000Y-72400000D03*
D21*
X135100000Y-72400000D03*
%TD*%
%TO.C,D2*%
X141100000Y-72400000D03*
D20*
X143640000Y-72400000D03*
%TD*%
D10*
%TO.C,D3*%
X106500000Y-133000000D03*
D11*
X98880000Y-133000000D03*
%TD*%
D21*
%TO.C,D4*%
X147100000Y-72400000D03*
D20*
X149640000Y-72400000D03*
%TD*%
%TO.C,J4*%
G36*
G01*
X162179168Y-116050000D02*
X160820832Y-116050000D01*
G75*
G02*
X160550000Y-115779168I0J270832D01*
G01*
X160550000Y-115020832D01*
G75*
G02*
X160820832Y-114750000I270832J0D01*
G01*
X162179168Y-114750000D01*
G75*
G02*
X162450000Y-115020832I0J-270832D01*
G01*
X162450000Y-115779168D01*
G75*
G02*
X162179168Y-116050000I-270832J0D01*
G01*
G37*
D22*
X161500000Y-113400000D03*
X161500000Y-111400000D03*
X161500000Y-109400000D03*
%TD*%
D11*
%TO.C,R1*%
X123720000Y-90000000D03*
D19*
X116100000Y-90000000D03*
%TD*%
D11*
%TO.C,R2*%
X123720000Y-95000000D03*
D19*
X116100000Y-95000000D03*
%TD*%
%TO.C,R3*%
X140100000Y-86100000D03*
D11*
X140100000Y-78480000D03*
%TD*%
D19*
%TO.C,R4*%
X144300000Y-86100000D03*
D11*
X144300000Y-78480000D03*
%TD*%
%TO.C,R5*%
X90000000Y-127420000D03*
D19*
X90000000Y-119800000D03*
%TD*%
%TO.C,R6*%
X106500000Y-136000000D03*
D11*
X98880000Y-136000000D03*
%TD*%
D19*
%TO.C,R7*%
X129100000Y-130600000D03*
D11*
X136720000Y-130600000D03*
%TD*%
%TO.C,R8*%
X155720000Y-109300000D03*
D19*
X148100000Y-109300000D03*
%TD*%
D11*
%TO.C,R9*%
X148500000Y-86120000D03*
D19*
X148500000Y-78500000D03*
%TD*%
%TO.C,R11*%
X107050000Y-119630000D03*
D11*
X107050000Y-127250000D03*
%TD*%
D23*
%TO.C,RV1*%
X109180000Y-74200000D03*
X106640000Y-76740000D03*
X104100000Y-74200000D03*
%TD*%
D18*
%TO.C,SW1*%
X97050000Y-125500000D03*
X97050000Y-121000000D03*
X103550000Y-125500000D03*
X103550000Y-121000000D03*
%TD*%
%TO.C,J2*%
G36*
G01*
X162179168Y-128050000D02*
X160820832Y-128050000D01*
G75*
G02*
X160550000Y-127779168I0J270832D01*
G01*
X160550000Y-127020832D01*
G75*
G02*
X160820832Y-126750000I270832J0D01*
G01*
X162179168Y-126750000D01*
G75*
G02*
X162450000Y-127020832I0J-270832D01*
G01*
X162450000Y-127779168D01*
G75*
G02*
X162179168Y-128050000I-270832J0D01*
G01*
G37*
D22*
X161500000Y-125400000D03*
X161500000Y-123400000D03*
X161500000Y-121400000D03*
%TD*%
D12*
%TO.C,J3*%
X97000000Y-82000000D03*
D24*
X99540000Y-82000000D03*
X102080000Y-82000000D03*
X104620000Y-82000000D03*
X107160000Y-82000000D03*
X109700000Y-82000000D03*
X112240000Y-82000000D03*
X114780000Y-82000000D03*
X117320000Y-82000000D03*
X119860000Y-82000000D03*
X122400000Y-82000000D03*
X124940000Y-82000000D03*
X127480000Y-82000000D03*
X130020000Y-82000000D03*
X132560000Y-82000000D03*
X135100000Y-82000000D03*
%TD*%
D12*
%TO.C,J5*%
X105200000Y-93300000D03*
D24*
X105200000Y-95840000D03*
X105200000Y-98380000D03*
X105200000Y-100920000D03*
X105200000Y-103460000D03*
X105200000Y-106000000D03*
%TD*%
D16*
%TO.C,H1*%
X94590990Y-72409010D03*
X93000000Y-71750000D03*
X91409010Y-72409010D03*
X90750000Y-74000000D03*
X91409010Y-75590990D03*
X93000000Y-76250000D03*
X94590990Y-75590990D03*
X95250000Y-74000000D03*
D15*
X93000000Y-74000000D03*
%TD*%
%TO.C,H2*%
X164000000Y-74000000D03*
D16*
X166250000Y-74000000D03*
X165590990Y-75590990D03*
X164000000Y-76250000D03*
X162409010Y-75590990D03*
X161750000Y-74000000D03*
X162409010Y-72409010D03*
X164000000Y-71750000D03*
X165590990Y-72409010D03*
%TD*%
%TO.C,H3*%
X165590990Y-132409010D03*
X164000000Y-131750000D03*
X162409010Y-132409010D03*
X161750000Y-134000000D03*
X162409010Y-135590990D03*
X164000000Y-136250000D03*
X165590990Y-135590990D03*
X166250000Y-134000000D03*
D15*
X164000000Y-134000000D03*
%TD*%
M02*
